<?xml version="1.0" encoding="UTF-8" standalone="no"?>
<svg
   width="187"
   height="195"
   viewBox="0 0 187 195"
   version="1.1"
   id="svg98"
   sodipodi:docname="buffer.svg"
   inkscape:version="1.4.4 (dcaf3e7d9e, 2026-05-05)"
   xmlns:inkscape="http://www.inkscape.org/namespaces/inkscape"
   xmlns:sodipodi="http://sodipodi.sourceforge.net/DTD/sodipodi-0.dtd"
   xmlns="http://www.w3.org/2000/svg"
   xmlns:svg="http://www.w3.org/2000/svg">
  <defs
     id="defs98">
    <linearGradient
       id="gradient_1"
       gradientUnits="userSpaceOnUse"
       x1="963.74487"
       y1="1051.7085"
       x2="872.21051"
       y2="934.47986"
       gradientTransform="matrix(1.5,0,0,1.5,-1282.936,-1392.0953)">
      <stop
         offset="0"
         stop-color="#28456C"
         id="stop16" />
      <stop
         offset="1"
         stop-color="#41699E"
         id="stop17" />
    </linearGradient>
  </defs>
  <sodipodi:namedview
     id="namedview98"
     pagecolor="#ffffff"
     bordercolor="#000000"
     borderopacity="0.25"
     inkscape:showpageshadow="2"
     inkscape:pageopacity="0.0"
     inkscape:pagecheckerboard="0"
     inkscape:deskcolor="#d1d1d1"
     inkscape:zoom="1.1077586"
     inkscape:cx="31.595331"
     inkscape:cy="266.3035"
     inkscape:window-width="1259"
     inkscape:window-height="1387"
     inkscape:window-x="12"
     inkscape:window-y="39"
     inkscape:window-maximized="1"
     inkscape:current-layer="svg98" />
  <path
     fill="#1b2f4a"
     d="m 53.348786,33.399727 c 16.02,-0.465 32.118,0.3 48.151504,0.24 22.878,-0.09 45.447,-0.885 68.3055,0.87 0.2355,5.49 0.6795,11.205 0.3285,16.68 -0.3885,6.075 -2.394,8.955 -6.8055,12.885 0.4905,25.89 0.2055,51.840003 0.258,77.730003 4.7055,4.725 7.9905,11.775 8.2215,18.555 0.0915,2.685 -1.0275,5.16 -2.931,7.02 -7.3485,7.2 -20.8635,4.875 -30.135,4.365 -23.1135,-0.78 -46.615504,-0.18 -69.748504,0.285 -12.051,0.24 -24.6975,1.365 -36.69,0.18 -3.879,-0.375 -8.079,-0.945 -10.554,-4.29 -3.0975,-4.17 -2.247,-9.165 -1.4535,-13.965 1.056,-6.405 2.262,-8.22 7.3785,-11.94 0.2445,-16.995 4.0665,-68.655003 -2.496,-80.985003 -2.325,-4.365 -5.073,-9.405 -5.562,-14.415 -0.4455,-4.53 1.095,-7.44 3.9465,-10.8 6.573,-3.585 21.9525,-2.175 29.7855,-2.415 z"
     id="path215"
     style="stroke-width:1.5" />
  <path
     fill="#badbf8"
     d="m 40.393286,97.149727 51.7095,0.435 c -3.6945,3.795003 -7.959,7.770003 -10.776,12.285003 -2.946,4.74 -5.2215,13.125 -3.5025,18.57 1.071,3.39 3.5745,5.745 6.8295,7.05 6.327,2.565 16.786504,2.685 22.881004,-0.495 2.574,-1.35 4.293,-3.45 5.04,-6.255 2.5905,-9.765 -5.3565,-20.67 -9.843,-28.755003 5.331,-4.725 21.0165,-2.715 28.0725,-2.655 l 20.4345,-0.03 -0.1815,46.485003 c -36.7605,1.095 -73.882504,0.045 -110.682004,0 z"
     id="path216"
     style="stroke-width:1.5" />
  <path
     fill="#badbf8"
     d="m 40.367786,63.324727 c 36.906,-0.555 73.897504,-0.045 110.812504,-0.045 l 0.007,22.545 c -36.8205,1.125 -73.966504,0.15 -110.820004,0.15 z"
     id="path217"
     style="stroke-width:1.5" />
  <path
     fill="#335584"
     d="m 49.049786,44.139727 c 32.8305,-1.305 67.119004,-1.815 99.889504,0.9 3.1785,0.255 7.1595,0.24 9.273,2.715 -0.1785,0.225 -0.33,0.465 -0.534,0.675 -4.7175,4.635 -12.831,3.48 -18.8595,3.21 -14.7525,0.24 -97.968004,3.39 -106.246504,-2.7 l 1.0125,-1.65 c 4.887,-3.465 9.687,-3.12 15.465,-3.15 z"
     id="path218"
     style="stroke-width:1.5" />
  <path
     fill="#335584"
     d="m 33.209786,153.50473 c 17.7465,-0.975 114.453004,-2.385 123.723004,3.045 l 0.3255,2.265 -1.9965,1.095 c -15.42,-0.06 -115.950004,4.05 -122.341504,-2.115 z"
     id="path219"
     style="stroke-width:1.5" />
  <path
     fill="#badbf8"
     d="m 91.963286,115.07473 c 1.8795,-1.14 4.2435,-1.14 6.1095,0.03 1.866,1.17 2.914504,3.285 2.709004,5.475 -0.2055,2.19 -1.630504,4.08 -3.681004,4.875 -2.808,1.095 -5.9865,-0.135 -7.3215,-2.835 -1.3365,-2.7 -0.3885,-5.97 2.184,-7.545 z"
     id="path220"
     style="stroke-width:1.5" />
</svg>
