<?xml version="1.0" encoding="UTF-8" standalone="no"?>
<svg
   width="928"
   height="1152"
   viewBox="0 0 928 1152"
   version="1.1"
   id="svg140"
   sodipodi:docname="cab_light.svg"
   inkscape:version="1.4.4 (dcaf3e7d9e, 2026-05-05)"
   xmlns:inkscape="http://www.inkscape.org/namespaces/inkscape"
   xmlns:sodipodi="http://sodipodi.sourceforge.net/DTD/sodipodi-0.dtd"
   xmlns="http://www.w3.org/2000/svg"
   xmlns:svg="http://www.w3.org/2000/svg">
  <sodipodi:namedview
     id="namedview140"
     pagecolor="#ffffff"
     bordercolor="#000000"
     borderopacity="0.25"
     inkscape:showpageshadow="2"
     inkscape:pageopacity="0.0"
     inkscape:pagecheckerboard="0"
     inkscape:deskcolor="#d1d1d1"
     inkscape:zoom="0.55387931"
     inkscape:cx="518.16342"
     inkscape:cy="577.74319"
     inkscape:window-width="2560"
     inkscape:window-height="1387"
     inkscape:window-x="0"
     inkscape:window-y="53"
     inkscape:window-maximized="1"
     inkscape:current-layer="svg140" />
  <defs
     id="defs18">
    <linearGradient
       id="gradient_0"
       gradientUnits="userSpaceOnUse"
       x1="460.34729"
       y1="281.14429"
       x2="463.87051"
       y2="740.62976">
      <stop
         offset="0"
         stop-color="#C8C6BC"
         id="stop17" />
      <stop
         offset="1"
         stop-color="#94C0E6"
         id="stop18" />
    </linearGradient>
  </defs>
  <path
     fill="url(#gradient_0)"
     d="M201.49 296.046C228.48 292.289 257.654 289.939 284.83 287.724C375.124 280.408 465.782 278.656 556.29 282.477C592.696 283.741 629.056 286.084 665.322 289.506C684.295 291.195 707.645 293.243 726.27 296.01C726.507 300.549 726.638 305.092 726.663 309.637C725.818 317.312 727.063 335.867 727.219 344.182C727.543 361.461 727.871 378.878 728.263 396.158L729.271 445.139C729.395 450.96 729.239 462.997 729.992 468.211L733.443 651.813C733.797 671.163 734.011 690.516 734.083 709.869C734.12 715.589 735.152 735.406 733.404 739.763L732.725 740.162C730.153 731.159 737.047 698.316 726.55 691.997C723.29 690.035 714.689 690.323 710.444 690.285C709.077 671.279 707.837 652.263 706.726 633.24L701.507 561.317L699.079 525.835C698.542 517.946 698.124 510.4 696.934 502.559C696.003 496.426 688.786 490.233 683.274 494.333C682.162 496.355 682.425 495.471 682.452 497.772C684.348 500.501 690.254 500.911 690.615 503.936C692.703 521.418 693.784 545.9 694.966 563.052L701.283 651.899C702.091 664.116 703.368 678.312 703.701 690.391C687.1 690.366 666.902 689.841 650.546 690.674C664.985 681.809 675.508 671.905 679.655 654.663C682.971 640.698 680.575 625.986 672.997 613.797C665.403 601.616 653.265 592.967 639.274 589.767C625.255 586.678 610.582 589.372 598.574 597.24C586.595 605.194 578.263 617.578 575.409 631.673C572.603 645.355 575.438 659.591 583.271 671.153C588.643 679.191 596.055 685.567 604.399 690.365L425.569 690.374C392.548 690.391 356.727 691.166 323.986 690.322C351.826 673.729 362.736 643.096 345.931 614.048C338.999 602.068 325.901 593.035 312.472 589.863C298.784 586.725 284.41 589.169 272.528 596.654C260.384 604.291 251.719 616.387 248.395 630.345C245.295 643.751 247.677 657.84 255.014 669.481C261.631 679.991 267.498 683.963 277.541 690.321C259.812 690.419 242.082 690.407 224.354 690.283L233.261 561.431L235.695 526.287C236.153 519.247 236.487 512.406 237.352 505.407C238.393 496.987 248.506 501.884 245.583 494.298C241.74 491.082 236.514 493.884 233.535 497.103C231.51 499.291 231.289 502.526 230.809 505.333C229.849 514.174 229.356 523.293 228.742 532.184L225.475 578.623C222.939 614.259 219.205 654.736 218.038 690.274C211.09 690.349 197.078 689.808 196.409 699.957C195.667 711.216 195.503 723.757 195.76 735.083C195.808 736.703 195.938 738.32 196.147 739.928L195.477 740.27C193.836 738.682 193.694 738.1 193.71 735.609C193.858 711.299 194.134 686.93 194.542 662.625L197.061 528.068C197.396 508.68 198.109 488.144 197.908 468.83C198.937 458.836 198.711 441.598 198.934 430.876L200.43 362.191C200.659 348.329 200.993 334.468 201.432 320.611C201.607 313.799 202.18 302.394 201.49 296.046Z"
     id="path18" />
  <path
     fill="#D6CCBA"
     d="M613.3 300.369C616.173 297.547 618.56 292.401 622.324 291.86C624.202 292.75 623.556 292.304 624.805 294.152C625.073 296.769 623.096 298.766 621.46 300.966C640.178 302.112 658.883 303.47 677.57 305.04C686.456 305.781 695.737 306.251 704.487 307.919C709.683 308.91 712.972 313.201 713.382 318.451C714.541 333.288 714.33 348.333 714.668 363.238L716.703 450.928C716.667 463.949 711.261 468.272 698.7 467.623C682.148 466.768 665.551 465.824 648.989 465.202C588.486 462.664 527.949 461.059 467.397 460.387C447.133 460.238 425.874 460.873 405.586 461.252C352.936 462.239 300.304 464.054 247.711 466.695C234.969 467.328 218.248 472.048 212.347 458.436C210.754 453.858 212.061 430.812 212.203 424.786L213.48 369.1L214.203 338.09C214.308 332.386 214.161 323.295 214.949 317.958C215.314 315.362 216.503 312.952 218.341 311.083C222.319 307.016 233.593 306.563 239.152 306.137C261.439 304.432 284.323 301.921 306.626 301.156C305.255 298.918 303.492 296.675 303.684 294.157C304.925 292.556 304.155 293.176 306.209 292.411C309.791 292.932 312.11 297.791 314.864 300.435C349.711 297.583 389.456 296.377 424.324 295.687C470.198 294.616 516.096 295.227 561.926 297.518C578.452 298.281 596.865 299.018 613.3 300.369Z"
     id="path19" />
  <path
     fill="#FBD475"
     d="M613.3 300.369C616.173 297.547 618.56 292.401 622.324 291.86C624.202 292.75 623.556 292.304 624.805 294.152C625.073 296.769 623.096 298.766 621.46 300.966C620.113 303.134 618.919 305.445 617.003 307.06C615.026 309.192 613.447 310.938 611.627 313.206L663.401 316.854C672.628 317.488 682.808 317.691 691.79 319.511C702.571 321.696 700.74 338.338 700.949 346.635L701.706 382.398L702.543 419.268C702.682 425.536 702.964 432.005 702.73 438.269C702.611 441.487 701.029 445.183 698.57 447.269C696.655 448.873 693.392 449.919 690.892 449.894C681.431 449.804 671.733 449.253 662.297 448.783C646.043 447.95 629.784 447.232 613.52 446.63L562.252 444.867C558.298 444.733 554.303 444.655 550.352 444.472C540.741 444.028 532.048 446.005 528.441 434.449C527.668 432.753 527.506 431.408 527.5 429.563C527.404 399.896 527.454 370.225 527.356 340.556C527.344 336.79 527.223 332.984 527.566 329.232C527.542 328.502 527.523 327.771 527.51 327.041C527.118 304.606 546.267 309.8 562.404 310.683C576.144 311.529 589.893 312.231 603.648 312.787C605.424 311.035 607.298 308.606 608.91 306.647L613.3 300.369Z"
     id="path20" />
  <path
     fill="#38434D"
     d="M613.3 300.369C616.173 297.547 618.56 292.401 622.324 291.86C624.202 292.75 623.556 292.304 624.805 294.152C625.073 296.769 623.096 298.766 621.46 300.966C620.113 303.134 618.919 305.445 617.003 307.06C615.026 309.192 613.447 310.938 611.627 313.206L663.401 316.854C672.628 317.488 682.808 317.691 691.79 319.511C702.571 321.696 700.74 338.338 700.949 346.635L701.706 382.398L702.543 419.268C702.682 425.536 702.964 432.005 702.73 438.269C702.611 441.487 701.029 445.183 698.57 447.269C696.655 448.873 693.392 449.919 690.892 449.894C681.431 449.804 671.733 449.253 662.297 448.783C646.043 447.95 629.784 447.232 613.52 446.63L562.252 444.867C558.298 444.733 554.303 444.655 550.352 444.472C540.741 444.028 532.048 446.005 528.441 434.449C529.053 434.118 531.463 435.76 534.685 433.546C535.951 435.295 537.481 437.467 539.859 437.608C567.862 439.275 596.004 439.581 624.046 440.712C628.57 440.895 633.159 441.074 637.674 440.993C641.084 439.376 651.58 440.621 655.679 441.038L654.421 441.064C659.17 436.798 672.314 419.761 674.46 413.862C677.596 405.237 681.007 389.6 681.002 380.147C681.131 375.523 679.332 368.824 679.19 364.59C678.667 348.984 670.37 342.877 662.813 331.037C662.22 330.106 664.315 325.693 664.888 324.298C659.558 324.272 644.171 323.626 639.849 321.669C629.242 320.718 617.424 319.952 606.766 319.41C592.491 337.165 575.547 358.028 561.925 376.173C562.037 383.522 564.094 407.818 560.463 412.324C558.69 412.805 559.444 412.834 557.492 411.798C555.54 409.415 555.979 397.656 555.893 393.722L555.258 364.267C555.103 356.723 554.893 348.476 554.666 340.869C554.622 339.367 556.321 335.693 557.802 334.518L558.552 334.425C561.915 337.287 561.338 361.063 561.356 366.517C569.584 356.377 577.707 346.152 585.724 335.843C589.371 331.197 595.546 323.796 598.617 319.088C593.032 318.532 587.288 318.185 581.674 317.96C567.799 317.404 553.854 316.13 539.976 316.197C536.217 316.216 534.56 318.734 533.757 322.065C531.32 325.226 532.817 330.374 532.214 334.286C531.559 338.541 531.409 337.563 528.329 339.404C528.284 337.043 528.539 330.802 527.566 329.232C527.542 328.502 527.523 327.771 527.51 327.041C527.118 304.606 546.267 309.8 562.404 310.683C576.144 311.529 589.893 312.231 603.648 312.787C605.424 311.035 607.298 308.606 608.91 306.647L613.3 300.369Z"
     id="path21" />
  <path
     fill="#DC9D4A"
     d="M639.849 321.669C646.69 321.91 688.974 323.673 691.742 326.431C693.005 327.689 693.687 329.026 693.91 330.781C695.526 343.484 694.657 357.198 694.959 370.035L695.721 412.601C695.866 420.72 696.177 428.939 696.08 437.058C696.056 439.076 695.64 440.582 694.205 442.063C693.388 443.054 690.947 443.236 689.638 443.211C680.751 443.036 671.491 442.875 662.632 442.194C654.882 441.598 645.183 442.147 637.674 440.993C641.084 439.376 651.58 440.621 655.679 441.038L654.421 441.064C659.17 436.798 672.314 419.761 674.46 413.862C677.596 405.237 681.007 389.6 681.002 380.147C681.131 375.523 679.332 368.824 679.19 364.59C678.667 348.984 670.37 342.877 662.813 331.037C662.22 330.106 664.315 325.693 664.888 324.298C659.558 324.272 644.171 323.626 639.849 321.669Z"
     id="path22" />
  <path
     fill="#7D6D5C"
     d="M528.329 339.404C531.409 337.563 531.559 338.541 532.214 334.286C532.817 330.374 531.32 325.226 533.757 322.065C534.179 348.837 533.298 375.955 533.699 402.74C533.788 408.693 533.328 428.854 534.685 433.546C531.463 435.76 529.053 434.118 528.441 434.449C527.668 432.753 527.506 431.408 527.5 429.563C527.404 399.896 527.454 370.225 527.356 340.556C527.344 336.79 527.223 332.984 527.566 329.232C528.539 330.802 528.284 337.043 528.329 339.404Z"
     id="path23" />
  <defs
     id="defs24">
    <linearGradient
       id="gradient_1"
       gradientUnits="userSpaceOnUse"
       x1="232.28174"
       y1="373.72736"
       x2="394.93317"
       y2="384.0994">
      <stop
         offset="0"
         stop-color="#F6C466"
         id="stop23" />
      <stop
         offset="1"
         stop-color="#FFE180"
         id="stop24" />
    </linearGradient>
  </defs>
  <path
     fill="url(#gradient_1)"
     d="M306.626 301.156C305.255 298.918 303.492 296.675 303.684 294.157C304.925 292.556 304.155 293.176 306.209 292.411C309.791 292.932 312.11 297.791 314.864 300.435C316.77 302.623 318.167 304.113 319.663 306.613C321.465 309.235 322.449 310.606 324.565 312.979L365.514 310.736C373.214 310.31 390.389 307.977 396.142 312.927C398.408 314.894 399.945 317.568 400.504 320.516C401.28 325.192 400.974 338.146 400.967 343.646L400.894 386.775C400.885 392.657 401.204 427.637 400.423 431.087C400.307 447.38 379.945 444.299 368.877 444.664L325.853 446.242L270.712 448.595C260.523 449.063 250.047 449.671 239.866 449.789C236.566 449.658 232.784 449.644 230.146 447.472C223.44 441.954 225.451 428.056 225.68 419.738L226.59 387.749L227.419 350.184C227.526 345.193 227.492 334.241 228.099 329.618C228.406 327.078 229.466 324.688 231.141 322.755C235.907 317.24 257.833 317.273 265.356 316.747L316.64 313.32C314.847 311.074 313.297 308.909 311.028 307.144C309.801 305.669 307.822 302.79 306.626 301.156Z"
     id="path24" />
  <path
     fill="#38434D"
     d="M306.626 301.156C305.255 298.918 303.492 296.675 303.684 294.157C304.925 292.556 304.155 293.176 306.209 292.411C309.791 292.932 312.11 297.791 314.864 300.435C316.77 302.623 318.167 304.113 319.663 306.613C321.465 309.235 322.449 310.606 324.565 312.979L365.514 310.736C373.214 310.31 390.389 307.977 396.142 312.927C398.408 314.894 399.945 317.568 400.504 320.516C399.996 326.452 399.808 331.222 399.726 337.148L398.795 337.648C393.612 335.042 396.074 326.654 394.48 320.905C393.213 318.542 391.458 316.318 388.611 316.168C381.887 315.813 374.848 316.433 368.126 316.786L332.755 318.727L330.711 319.036C330.181 321.391 333.305 324.031 334.895 325.771C338.699 330.772 355.512 353.953 359.04 356.704C361.994 357.086 362.19 360.542 365.105 361.147C365.363 360.806 366.683 353.572 367.202 351.786C367.317 347.214 366.848 339.282 369.239 335.747L370.599 334.922C375.248 336.196 373.042 352.175 373.445 356.387C373.093 360.891 372.345 381.939 372.794 386.189L372.733 386.893C372.19 393.561 373.984 409.267 369.961 412.753C367.94 412.777 368.908 413.007 367.046 411.739C365.703 409.584 365.977 407.483 365.972 404.859L366.644 376.73C364.477 374.058 362.279 371.411 360.049 368.792C350.153 355.285 333.75 334 322.958 321.429C322.083 320.269 321.814 319.379 320.313 319.471C310.194 320.091 299.291 320.849 289.268 321.517L256.811 323.687C251.233 324.06 245.643 324.326 240.088 324.957C236.737 325.338 234.618 327.303 234.518 330.722L234.572 331.379C234.845 334.899 233.72 341.968 235.186 343.419L236.304 343.217L237.783 343.375C239.304 348.899 235.852 367.781 236.371 374.994L235.249 376.08C234.612 375.939 233.713 375.672 233.079 375.703C232.971 379.492 232.711 384.163 232.91 387.876C232.843 391.909 232.908 397.358 232.663 401.281C232.465 404.415 232.35 406.988 232.365 410.125C232.351 415.355 232.001 420.615 232.028 425.792C232.07 433.705 228.983 443.373 239.669 443.338L245.248 443.198C256.737 442.31 269.702 442.026 281.316 441.533C284.927 441.436 291.484 441.918 294.658 441.127L295.104 440.974C297.753 441.118 301.134 440.96 303.806 440.789C316.275 439.994 329.37 440.517 341.776 439.488L349.823 439.235C352.265 439.227 355.207 439.329 357.579 438.974C365.981 438.41 377.322 438.156 385.668 438.212C389.989 437.83 392.927 435.771 394.313 431.63C395.252 428.996 395.073 424.258 395.227 421.162C396.704 419.71 397.583 419.191 399.323 418.026C400.319 422.372 399.316 426.727 400.423 431.087C400.307 447.38 379.945 444.299 368.877 444.664L325.853 446.242L270.712 448.595C260.523 449.063 250.047 449.671 239.866 449.789C236.566 449.658 232.784 449.644 230.146 447.472C223.44 441.954 225.451 428.056 225.68 419.738L226.59 387.749L227.419 350.184C227.526 345.193 227.492 334.241 228.099 329.618C228.406 327.078 229.466 324.688 231.141 322.755C235.907 317.24 257.833 317.273 265.356 316.747L316.64 313.32C314.847 311.074 313.297 308.909 311.028 307.144C309.801 305.669 307.822 302.79 306.626 301.156Z"
     id="path25" />
  <path
     fill="#A56F25"
     d="M234.518 330.722L234.572 331.379C234.845 334.899 233.72 341.968 235.186 343.419L236.304 343.217L237.783 343.375C239.304 348.899 235.852 367.781 236.371 374.994L235.249 376.08C234.612 375.939 233.713 375.672 233.079 375.703C233.872 363.846 232.888 340.878 234.518 330.722Z"
     id="path26" />
  <path
     fill="#FBD475"
     d="M359.04 356.704C361.994 357.086 362.19 360.542 365.105 361.147C365.363 360.806 366.683 353.572 367.202 351.786L367.104 367.199C364.826 364.288 360.965 359.656 359.04 356.704Z"
     id="path27" />
  <path
     fill="#FBD475"
     d="M294.658 441.127C292.003 441.275 290.502 441.825 288.616 439.91C287.975 435.859 293.065 431.716 296.408 431.113C310.695 428.537 328.784 427.571 342.803 431.526C346.667 432.616 348.47 435.836 349.823 439.235L341.776 439.488C329.37 440.517 316.275 439.994 303.806 440.789C301.134 440.96 297.753 441.118 295.104 440.974L294.658 441.127Z"
     id="path28" />
  <path
     fill="#A56F25"
     d="M295.104 440.974C295.918 434.003 299.648 433.957 306.085 433.583C316.272 432.991 327.155 432.746 337.204 434.566C339.704 435.018 338.775 438.161 341.776 439.488C329.37 440.517 316.275 439.994 303.806 440.789C301.134 440.96 297.753 441.118 295.104 440.974Z"
     id="path29" />
  <path
     fill="#7D6D5C"
     d="M394.48 320.905C396.074 326.654 393.612 335.042 398.795 337.648L399.726 337.148C399.808 331.222 399.996 326.452 400.504 320.516C401.28 325.192 400.974 338.146 400.967 343.646L400.894 386.775C400.885 392.657 401.204 427.637 400.423 431.087C399.316 426.727 400.319 422.372 399.323 418.026C397.583 419.191 396.704 419.71 395.227 421.162C395.073 424.258 395.252 428.996 394.313 431.63C393.874 427.913 394.167 418.596 394.204 414.415L394.322 397.403C394.896 392.423 394.781 382.157 394.767 376.961C394.739 366.626 395.08 354.316 394.322 344.028C394.274 338.357 393.818 325.793 394.48 320.905Z"
     id="path30" />
  <path
     fill="#A56F25"
     d="M239.609 404.492L240.371 401.538C242.051 400.681 241.192 400.802 243.031 401.144C245.168 403.436 244.889 402.641 245.403 405.845C245.129 410.769 245.88 413.888 246.193 418.609C246.732 426.73 246.645 435.171 245.248 443.198L239.669 443.338C228.983 443.373 232.07 433.705 232.028 425.792C232.001 420.615 232.351 415.355 232.365 410.125C232.35 406.988 232.465 404.415 232.663 401.281C235.002 402.411 237.21 403.486 239.609 404.492Z"
     id="path31" />
  <path
     fill="#DC9D4A"
     d="M232.365 410.125L233.051 408.846C235.64 409.26 237.992 412.128 239.832 414.061C241.457 423.331 240.283 433.846 239.669 443.338C228.983 443.373 232.07 433.705 232.028 425.792C232.001 420.615 232.351 415.355 232.365 410.125Z"
     id="path32" />
  <path
     fill="#A56F25"
     d="M281.316 441.533C283.867 431.583 288.952 425.473 299.625 424.453C314.306 423.049 330.463 422.444 344.913 425.631C349.675 426.681 354.242 434.498 356.191 438.544L357.579 438.974C355.207 439.329 352.265 439.227 349.823 439.235C348.47 435.836 346.667 432.616 342.803 431.526C328.784 427.571 310.695 428.537 296.408 431.113C293.065 431.716 287.975 435.859 288.616 439.91C290.502 441.825 292.003 441.275 294.658 441.127C291.484 441.918 284.927 441.436 281.316 441.533Z"
     id="path33" />
  <path
     fill="#DC9D4A"
     d="M236.304 343.217C245.129 332.986 246.833 352.685 246.133 357.737C245.369 363.256 247.658 378.472 240.421 380.345L239.432 380.023L240.046 379.774C241.85 379.028 242.487 378.973 243.502 377.457C243.295 375.77 243.667 376.425 242.461 375.368C239.038 374.889 233.863 378.53 233.372 382.053C233.059 384.296 233.546 385.207 232.91 387.876C232.711 384.163 232.971 379.492 233.079 375.703C233.713 375.672 234.612 375.939 235.249 376.08L236.371 374.994C235.852 367.781 239.304 348.899 237.783 343.375L236.304 343.217Z"
     id="path34" />
  <path
     fill="#FBD475"
     d="M322.958 321.429C333.75 334 350.153 355.285 360.049 368.792C362.279 371.411 364.477 374.058 366.644 376.73L365.972 404.859C364.479 404.641 365.005 402.984 365.031 401.552C365.098 397.78 364.468 394.389 363.564 390.756C362.462 386.33 361.942 381.756 361.189 377.263C361.189 377.263 359.111 376.248 359.111 376.248C358.545 373.92 360.616 372.002 359.77 369.671C358.263 368.542 355.241 364.378 354.019 362.701C351.55 359.312 348.69 358.478 345.485 355.602C342.115 352.577 342.716 348.591 340.406 345.009C337.448 340.42 323.125 326.028 322.958 321.429Z"
     id="path35" />
  <path
     fill="#DC9D4A"
     d="M385.668 438.212C385.86 432.544 384.977 427.2 385.026 421.604C385.09 414.332 388.114 413.512 394.204 414.415C394.167 418.596 393.874 427.913 394.313 431.63C392.927 435.771 389.989 437.83 385.668 438.212Z"
     id="path36" />
  <path
     fill="#DC9D4A"
     d="M234.887 384.209C236.483 383.541 239.547 382.153 241.155 382.318C248.548 383.078 246.103 400.701 245.403 405.845C244.889 402.641 245.168 403.436 243.031 401.144C241.192 400.802 242.051 400.681 240.371 401.538L239.609 404.492C239.444 399.483 239.656 394.56 239.51 389.678L234.887 384.209Z"
     id="path37" />
  <path
     fill="#DC9D4A"
     d="M394.322 344.028C395.08 354.316 394.739 366.626 394.767 376.961C394.781 382.157 394.896 392.423 394.322 397.403C393.976 393.628 394.617 387.807 393.504 384.51C386.131 380.625 386.032 371.909 393.248 367.442C394.91 366.412 394.183 347.056 394.322 344.028Z"
     id="path38" />
  <path
     fill="#FBD475"
     d="M373.445 356.387C374.298 358.799 374.812 366.54 375.206 369.598C375.209 367.483 375.242 365.324 375.163 363.214C376.543 369.155 376.554 378.925 374.371 384.424L374.758 379.806C373.81 384.74 373.834 386.855 373.203 391.08C373.083 389.55 372.991 387.68 372.794 386.189C372.345 381.939 373.093 360.891 373.445 356.387Z"
     id="path39" />
  <path
     fill="#FBD475"
     d="M334.895 325.771C333.305 324.031 330.181 321.391 330.711 319.036L332.755 318.727L336.27 318.992L336.595 319.502L333.961 322.592C334.459 323.745 335.142 324.377 335.972 325.314C335.325 325.869 335.691 325.734 334.895 325.771Z"
     id="path40" />
  <defs
     id="defs41">
    <linearGradient
       id="gradient_2"
       gradientUnits="userSpaceOnUse"
       x1="464.20999"
       y1="469.70538"
       x2="463.94684"
       y2="451.00201">
      <stop
         offset="0"
         stop-color="#645E58"
         id="stop40" />
      <stop
         offset="1"
         stop-color="#847060"
         id="stop41" />
    </linearGradient>
  </defs>
  <path
     fill="url(#gradient_2)"
     d="M710.271 452.731L711.25 453.531C714.369 453.887 715.418 453.561 716.703 450.928C716.667 463.949 711.261 468.272 698.7 467.623C682.148 466.768 665.551 465.824 648.989 465.202C588.486 462.664 527.949 461.059 467.397 460.387C447.133 460.238 425.874 460.873 405.586 461.252C352.936 462.239 300.304 464.054 247.711 466.695C234.969 467.328 218.248 472.048 212.347 458.436C212.964 455.883 212.434 456.462 214.112 454.986C216.051 454.562 215.292 454.591 217.312 455.302L217.815 456.779L218.472 456.351C221.543 461.542 222.561 461.318 228.5 461.274C231.464 461.252 234.493 461.026 237.453 460.881C322.257 456.442 407.166 454.333 492.086 454.555C542.147 455.399 592.197 456.782 642.228 458.703C663.054 459.515 684.474 460.974 705.153 461.507C709.019 458.602 709.789 457.548 710.271 452.731Z"
     id="path41" />
  <path
     fill="#7D6D5C"
     d="M314.864 300.435C349.711 297.583 389.456 296.377 424.324 295.687C470.198 294.616 516.096 295.227 561.926 297.518C578.452 298.281 596.865 299.018 613.3 300.369L608.91 306.647C605.946 305.457 580.048 304.696 574.515 304.423C489.612 299.426 404.468 300.158 319.663 306.613C318.167 304.113 316.77 302.623 314.864 300.435Z"
     id="path42" />
  <path
     fill="#7D6D5C"
     d="M212.347 458.436C210.754 453.858 212.061 430.812 212.203 424.786L213.48 369.1L214.203 338.09C214.308 332.386 214.161 323.295 214.949 317.958C215.314 315.362 216.503 312.952 218.341 311.083C222.319 307.016 233.593 306.563 239.152 306.137C261.439 304.432 284.323 301.921 306.626 301.156C307.822 302.79 309.801 305.669 311.028 307.144C299.956 307.677 228.93 311.47 223.08 315.466C220.021 321.325 220.416 340.766 220.226 348.106C219.776 362.282 219.422 376.46 219.163 390.639C218.822 404.605 218.578 418.572 218.43 432.541C218.345 439.243 217.922 449.947 218.472 456.351L217.815 456.779L217.312 455.302C215.292 454.591 216.051 454.562 214.112 454.986C212.434 456.462 212.964 455.883 212.347 458.436Z"
     id="path43" />
  <path
     fill="#7D6D5C"
     d="M621.46 300.966C640.178 302.112 658.883 303.47 677.57 305.04C686.456 305.781 695.737 306.251 704.487 307.919C709.683 308.91 712.972 313.201 713.382 318.451C714.541 333.288 714.33 348.333 714.668 363.238L716.703 450.928C715.418 453.561 714.369 453.887 711.25 453.531L710.271 452.731C709.912 422.183 709.291 391.638 708.408 361.101C708.051 347.74 707.964 334.357 707.406 321.012C707.255 317.414 705.67 314.338 701.844 313.745C693.22 312.408 684.349 311.873 675.639 311.147C656.121 309.418 636.572 308.056 617.003 307.06C618.919 305.445 620.113 303.134 621.46 300.966Z"
     id="path44" />
  <path
     fill="#FBD475"
     d="M495.872 442.77C476.815 442.439 457.633 442.925 438.565 442.844C432.726 442.819 427.293 443.183 421.424 442.381C408.935 440.673 410.553 428.68 410.472 419.304C410.603 386.482 410.42 353.823 410.501 321.019C410.535 309.73 419.562 307.804 428.832 307.892C432.164 307.91 435.654 307.802 438.998 307.772C449.795 307.684 460.592 307.694 471.388 307.802C482.358 307.854 493.867 307.679 504.831 308.059C509.012 308.204 512.371 309.751 515.035 313.048C517.898 315.88 517.7 320.002 517.72 323.847L517.665 392.072C517.69 404.65 517.996 417.347 517.437 429.899C516.831 443.535 506.092 443.095 495.872 442.77Z"
     id="path45" />
  <defs
     id="defs46">
    <linearGradient
       id="gradient_3"
       gradientUnits="userSpaceOnUse"
       x1="511.25302"
       y1="375.58301"
       x2="410.65881"
       y2="374.72052">
      <stop
         offset="0"
         stop-color="#222E3C"
         id="stop45" />
      <stop
         offset="1"
         stop-color="#675D51"
         id="stop46" />
    </linearGradient>
  </defs>
  <path
     fill="url(#gradient_3)"
     d="M495.872 442.77C476.815 442.439 457.633 442.925 438.565 442.844C432.726 442.819 427.293 443.183 421.424 442.381C408.935 440.673 410.553 428.68 410.472 419.304C410.603 386.482 410.42 353.823 410.501 321.019C410.535 309.73 419.562 307.804 428.832 307.892C432.164 307.91 435.654 307.802 438.998 307.772C449.795 307.684 460.592 307.694 471.388 307.802C482.358 307.854 493.867 307.679 504.831 308.059C509.012 308.204 512.371 309.751 515.035 313.048C512.462 311.94 509.263 311.408 507.856 314.569C503.912 313.879 489.13 314.08 484.403 314.079C476.236 314.005 423.581 313.367 419.399 315.49C417.061 318.757 416.777 323.48 416.76 327.378C416.655 351.647 416.691 375.926 416.695 400.196C416.695 405.224 416.815 410.361 416.706 415.377C423.19 418.055 426.849 429.897 426.802 436.486C445.047 436.496 466.938 435.971 484.942 436.59C481.394 439.099 477.816 436.888 475.506 438.457C478.471 444.2 494.505 438.348 497.984 442.086L495.872 442.77Z"
     id="path46" />
  <path
     fill="#DC9D4A"
     d="M416.706 415.377C423.19 418.055 426.849 429.897 426.802 436.486C413.251 436.152 416.456 426.014 416.706 415.377Z"
     id="path47" />
  <defs
     id="defs48">
    <linearGradient
       id="gradient_4"
       gradientUnits="userSpaceOnUse"
       x1="475.59518"
       y1="376.42517"
       x2="516.6098"
       y2="376.65546">
      <stop
         offset="0"
         stop-color="#202F40"
         id="stop47" />
      <stop
         offset="1"
         stop-color="#796752"
         id="stop48" />
    </linearGradient>
  </defs>
  <path
     fill="url(#gradient_4)"
     d="M507.856 314.569C509.263 311.408 512.462 311.94 515.035 313.048C517.898 315.88 517.7 320.002 517.72 323.847L517.665 392.072C517.69 404.65 517.996 417.347 517.437 429.899C516.831 443.535 506.092 443.095 495.872 442.77L497.984 442.086C494.505 438.348 478.471 444.2 475.506 438.457C477.816 436.888 481.394 439.099 484.942 436.59C490.725 436.47 496.508 436.452 502.291 436.537C502.059 430.146 501.597 415.023 511.303 416.762C510.576 389.016 511.313 357.759 511.273 329.717C511.49 323.328 512.826 319.222 507.856 314.569Z"
     id="path48" />
  <path
     fill="#DC9D4A"
     d="M502.291 436.537C502.059 430.146 501.597 415.023 511.303 416.762C511.554 425.255 514.122 436.767 502.291 436.537Z"
     id="path49" />
  <path
     fill="#EAB969"
     d="M484.403 314.079C489.13 314.08 503.912 313.879 507.856 314.569C512.826 319.222 511.49 323.328 511.273 329.717C510.872 328.36 505.863 323.25 504.945 320.724C503.716 317.339 496.102 318.515 492.098 317.217C495.92 315.309 504.069 317.722 506.879 316.197C503.613 313.584 487.973 316.51 484.403 314.079Z"
     id="path50" />
  <defs
     id="defs51">
    <linearGradient
       id="gradient_5"
       gradientUnits="userSpaceOnUse"
       x1="464.78891"
       y1="475.28656"
       x2="463.09756"
       y2="600.76056">
      <stop
         offset="0"
         stop-color="#4E545A"
         id="stop50" />
      <stop
         offset="1"
         stop-color="#193A5E"
         id="stop51" />
    </linearGradient>
  </defs>
  <path
     fill="url(#gradient_5)"
     d="M416.228 475.474C420.09 475.266 424.448 475.313 428.36 475.338C456.253 475.511 484.249 474.747 512.109 475.597C514.219 475.662 517.435 477.585 519.095 478.943C522.238 481.497 524.207 485.22 524.551 489.256C524.991 494.299 524.772 502.323 524.778 507.62L524.796 540.761C524.795 555.267 525.279 570.331 524.179 584.742C523.545 593.06 514.803 596.529 507.608 596.812L469.117 596.766C469.062 596.914 469.011 597.064 468.953 597.212C468.856 597.457 468.751 597.699 468.652 597.943C467.914 599.773 466.887 601.777 464.961 602.608C460.416 604.57 460.37 597.182 455.4 596.916C444.576 596.337 421.596 598.935 412.489 595.185C408.767 593.652 406.044 590.426 404.551 586.739C402.258 581.074 402.927 502.481 403.603 491.219C403.734 489.032 403.916 486.533 404.854 484.525C407.195 479.509 411.279 477.244 416.228 475.474Z"
     id="path51" />
  <defs
     id="defs53">
    <linearGradient
       id="gradient_6"
       gradientUnits="userSpaceOnUse"
       x1="471.10452"
       y1="477.36453"
       x2="456.40271"
       y2="594.20673">
      <stop
         offset="0"
         stop-color="#B2C3CB"
         id="stop52" />
      <stop
         offset="1"
         stop-color="#9DC3E2"
         id="stop53" />
    </linearGradient>
  </defs>
  <path
     fill="url(#gradient_6)"
     d="M416.723 481.567C423.666 481.182 431.33 481.401 438.378 481.418C461.756 481.475 485.184 481.171 508.551 481.627C514.46 481.743 518.397 485.371 518.435 491.455C518.544 508.744 518.408 526.044 518.464 543.341L518.522 569.317C518.522 574.217 519.444 585.928 515.259 588.361C508.192 592.47 486.739 590.834 478.477 590.874C480.403 589.133 482.269 587.469 483.299 585.012C485.073 580.779 481.945 556.915 479.904 552.353C478.05 548.207 474.918 545.207 470.621 543.677C462.56 540.808 459.342 543.48 452.351 546.752L451.716 546.12L451.717 541.864C451.729 540.266 451.764 538.032 451.562 536.474C450.923 531.179 448.207 526.355 444.01 523.064C435.837 516.773 424.936 518.457 419.167 527.042C414.108 534.569 415.429 542.626 415.346 551.146C415.318 554.098 414.29 557.662 414.939 560.648C417.523 568.88 420.648 566.732 426.74 569.342C429.131 570.685 428.888 574.905 429.41 577.147C430.287 580.911 433.218 580.898 436.347 580.076C439.664 576.829 438.709 569.858 442.788 568.191C447.636 569.246 444.251 577.174 444.78 580.841C445.576 586.364 446.602 587.435 450.574 590.882C442.056 590.572 433.302 591.017 424.74 590.869C413.933 590.682 409.837 589.223 409.727 577.982C409.476 551.255 409.583 524.503 409.654 497.773C409.677 489.224 408.72 486.036 416.723 481.567Z"
     id="path53" />
  <path
     fill="#2A4360"
     d="M488.896 496.809C511.876 494.003 513.66 514.663 512.017 531.03C511.742 533.768 513.026 537.619 512.679 540.632C512.474 542.489 511.72 544.243 510.513 545.669C507.473 549.274 503.391 549.364 499.094 549.584C497.77 553.023 496.245 557.505 494.292 560.52C491.153 561.29 488.191 562.202 485.618 559.92C484.161 556.389 486.133 553.318 487.653 549.648C481.964 549.249 476.824 548.591 474.147 542.727C472.602 539.427 474.208 536.082 474.306 532.636C474.766 516.579 470.807 503.913 488.896 496.809Z"
     id="path54" />
  <path
     fill="#748593"
     d="M492.84 502.472C506.41 503.833 506.151 512.593 506.175 523.676C501.649 522.928 499.112 522.955 494.512 523.008C489.523 523.005 485.104 522.726 480.385 524.308C480.481 513.528 479.852 504.977 492.84 502.472Z"
     id="path55" />
  <path
     fill="#748593"
     d="M484.131 529.395C489.164 529.22 494.067 529.027 499.106 529.034C507.084 529.045 509.651 539.252 503.842 543.311C497.109 543.117 478.024 546.372 480.155 536.189C481.015 532.081 480.812 532.017 484.131 529.395Z"
     id="path56" />
  <path
     fill="#748593"
     d="M424.927 548.528C430.751 548.349 444.823 546.115 447.105 552.366C448.519 556.242 448.552 560.6 444.316 562.541C438.899 563.023 432.923 563.142 427.492 562.919C419.264 562.582 419.182 552.537 424.927 548.528Z"
     id="path57" />
  <path
     fill="#748593"
     d="M453.757 571.64C458.564 571.406 464.226 571.462 468.9 571.107C477.638 570.443 480.902 580.537 474.974 585.394C466.102 585.526 441.089 588.572 453.757 571.64Z"
     id="path58" />
  <path
     fill="#748593"
     d="M433.455 525.529C443.701 526.586 445.021 533.53 444.986 542.194L432.554 541.996C429.749 541.981 423.428 543.049 422.255 542.69C419.176 539.213 421.353 535.294 423.544 531.844C426.167 527.714 428.777 526.396 433.455 525.529Z"
     id="path59" />
  <path
     fill="#748593"
     d="M453.181 565.44C454.727 555.438 455.018 544.491 469.658 550.171C474.348 553.616 475.021 555.602 475.521 561.146L475.097 564.525C474.251 565.246 456.407 565.284 453.181 565.44Z"
     id="path60" />
  <path
     fill="#A2C1DC"
     d="M469.658 550.171C474.348 553.616 475.021 555.602 475.521 561.146C470.732 559.322 467.5 555.37 469.658 550.171Z"
     id="path61" />
  <path
     fill="#2A4360"
     d="M515.728 651.569C524.221 651.037 524.473 653.01 528.663 660.434C531.948 666.509 535.256 668.137 542.205 665.84C551.206 662.864 547.727 647.499 560.419 651.884C561.675 652.318 561.786 653.987 561.964 655.034C561.272 657.042 561.902 656.321 560.026 657.282C559.122 657.41 558.044 657.563 556.792 657.74C552.561 662.222 552.18 667.845 545.977 670.837C533.588 676.813 524.885 668.502 519.813 658.348C516.686 657.978 514.46 657.818 513.207 654.606C513.835 652.752 514.026 652.731 515.728 651.569Z"
     id="path72" />
  <path
     fill="#2A4360"
     d="M368.261 651.523C375.906 651.238 376.909 652.568 380.303 659.564C382.951 665.505 388.007 667.845 394.579 665.967C403.025 663.554 400.95 646.842 413.013 652.101C414.213 652.624 414.406 653.935 414.635 655.006C413.913 657.032 414.341 656.304 412.694 657.754C411.951 657.799 409.55 657.945 409.166 658.34C405.719 661.886 403.566 667.084 399.362 670.035C395.806 672.532 392.339 673.296 388.341 672.649C378.496 671.056 377.824 667.022 373.087 659.741C371.749 657.684 370.116 657.727 367.838 657.436C366.069 655.914 366.574 656.828 366.089 654.709C366.912 652.337 366.345 653.182 368.261 651.523Z"
     id="path73" />
  <path
     fill="#A2C1DC"
     d="M205.901 696.542C226.97 695.846 251.61 696.46 272.846 696.469L401.595 696.503L713.056 696.467C715.289 696.488 723.233 696.376 723.876 697.641C727.179 704.145 726.095 727.766 726.128 734.723C716.542 734.918 706.954 734.916 697.369 734.718L697.331 719.475C697.29 715.806 697.601 706.968 695.895 704.475C691.645 698.266 670.563 697.843 671.661 708.714C672.041 712.475 666.957 712.523 665.894 716.577C665.066 719.732 665.673 724.317 666.408 727.677C668.042 729.656 670.446 730.459 672.056 733.585L671.705 734.509C669.543 735.149 646.33 734.871 642.88 734.868L569.549 734.866L202.322 734.756C202.478 724.057 201.887 712.652 202.584 701.977C202.766 699.201 203.808 698.159 205.901 696.542Z"
     id="path74" />
  <path
     fill="#A2C1DC"
     d="M404.003 107.696C419.868 107.141 437.243 107.44 453.162 107.436C477.554 107.283 501.947 107.421 526.336 107.85C550.224 108.333 589.037 105.832 609.564 118.87C613.869 121.605 644.35 149.89 641.061 154.438C635.933 155.896 630.434 149.084 627.021 145.807C610.565 130.011 604.718 119.256 580.508 118.451L580.25 129.827L576.54 133.576C576.497 137.061 575.976 148.015 576.742 150.924C578.975 159.412 578.999 170.914 580.926 178.877C586.362 181.822 599.783 158.713 600.589 191.227C596.494 191.224 588.638 191.438 584.864 190.869L584.1 189.496C580.763 188.278 571.522 193.932 567.286 194.279C559.973 194.879 552.468 194.656 545.141 194.636C532.808 194.589 520.475 194.604 508.142 194.681C502.802 187.207 499.738 183.89 491.776 178.868C506.321 179.066 521.049 179.001 535.605 179.001C545.336 179.002 560.135 179.782 569.363 178.641C563.564 176.849 554.491 175.163 548.324 173.813L511.072 165.667C495.248 161.542 471.68 156.586 455.362 153.426C452.127 152.799 430.178 158.064 425.078 159.113L361.694 172.043L361.674 179.017C378.358 179.232 395.104 178.806 411.795 179.079C420.024 179.213 428.054 179.212 436.276 178.756C427.866 184.46 425.832 186.738 419.984 194.783C401.453 194.263 382.741 194.957 364.195 194.555C357.12 194.402 353.091 190.949 346.318 189.373C343.266 188.662 343.631 190.718 342.836 190.772C338.694 191.057 331.556 191.17 327.647 191.267C326.886 159.054 342.51 181.336 347.097 179.784C348.431 175.267 347.917 170.294 348.877 166.092C351.61 154.135 351.708 145.466 351.539 133.196L348.275 130.24L347.78 118.542C321.181 118.728 313.056 135.925 294.817 151.583C292.322 153.725 291.003 155.224 287.552 154.651C284.812 151.283 291.124 145.215 293.631 142.784C306.072 130.722 317.497 114.697 335.745 111.607C357.803 107.873 381.558 108.336 404.003 107.696Z"
     id="path75" />
  <path
     fill="#2A4360"
     d="M408.072 118.39C442.799 117.824 477.533 117.841 512.259 118.438C529.044 118.611 546.144 118.555 562.941 119.351C564.449 119.423 565.669 119.793 566.665 120.963C566.793 122.742 566.912 121.857 565.976 123.641C562.361 125 551.758 126.881 547.443 127.753L510.01 135.264C499.695 137.48 459.357 147.254 452.053 146.155C441.02 144.494 429.728 141.048 418.794 138.593C401.173 134.637 383.347 131.206 365.815 126.904C364.865 126.671 362.592 126.278 362.14 125.421C361.352 123.925 361.636 121.253 362.035 119.622C365.391 118.253 402.327 118.45 408.072 118.39Z"
     id="path76" />
  <path
     fill="#2A4360"
     d="M566.568 130.096L567.354 130.064C569.048 130.969 569.716 132.268 570.842 133.861C570.89 137.566 571.21 149.644 570.653 152.504C569.323 159.346 568.108 164.866 567.13 172.028C544.485 165.972 515.534 160.28 492.24 154.946C487.099 153.893 474.784 151.567 470.375 149.733C502.44 143.366 534.516 136.185 566.568 130.096Z"
     id="path77" />
  <path
     fill="#2A4360"
     d="M359.119 131.608L439.538 149.643C435.489 150.879 427.478 152.279 423.055 153.169C402.901 157.966 381.09 161.674 360.632 166.199C358.953 159.226 353.551 137.361 359.119 131.608Z"
     id="path78" />
  <defs
     id="defs79">
    <linearGradient
       id="gradient_7"
       gradientUnits="userSpaceOnUse"
       x1="326.03088"
       y1="288.15378"
       x2="317.62729"
       y2="219.59653">
      <stop
         offset="0"
         stop-color="#B8C4C6"
         id="stop78" />
      <stop
         offset="1"
         stop-color="#9ABDD8"
         id="stop79" />
    </linearGradient>
  </defs>
  <path
     fill="url(#gradient_7)"
     d="M405.732 209.024L413.262 208.391C405.947 241.139 422.428 264.727 453.401 274.558C425.717 275.386 398.939 275.326 371.009 276.5C329.248 278.343 287.536 281.197 245.913 285.058C231.246 286.457 216.604 288.098 201.991 289.978C204.912 276.905 208.325 267.95 217.286 257.401C222.334 251.399 228.588 246.528 235.642 243.103C244.821 238.582 257.815 235.334 267.886 232.589C313.005 220.475 359.152 212.587 405.732 209.024Z"
     id="path79" />
  <defs
     id="defs81">
    <linearGradient
       id="gradient_8"
       gradientUnits="userSpaceOnUse"
       x1="600.98645"
       y1="290.19293"
       x2="610.72906"
       y2="220.59224">
      <stop
         offset="0"
         stop-color="#BAC4C7"
         id="stop80" />
      <stop
         offset="1"
         stop-color="#9ABDD8"
         id="stop81" />
    </linearGradient>
  </defs>
  <path
     fill="url(#gradient_8)"
     d="M514.793 208.47C521.907 208.737 531.278 209.866 538.532 210.523C515.806 228.96 540.141 253.155 557.747 240.375C561.378 237.737 563.811 233.763 564.507 229.328C565.551 222.66 563.042 217.934 559.253 212.831C589.886 215.934 674.119 231.254 697.886 246.025C712.239 254.945 721.562 270.131 725.279 286.371C725.519 287.741 725.701 287.856 725.189 289.095C722.15 290.198 703.075 287.117 698.365 286.626C675.925 284.372 653.459 282.383 630.973 280.657C597.789 278.304 564.564 276.57 531.316 275.456C512.587 274.9 493.316 275.283 474.687 274.302C506.117 266.084 522.052 240.249 514.793 208.47Z"
     id="path81" />
  <path
     fill="#A2C1DC"
     d="M208.96 741.068C245.441 740.087 285.075 741.137 321.855 741.042L545.755 740.94C587.759 741.133 629.764 741.111 671.768 740.876C676.532 748.465 683.435 746.932 691.15 746.397C694.131 744.151 694.398 743.924 696.722 740.927C702.516 740.899 724.34 740.079 727.669 742.117L727.547 742.945C725.604 743.894 706.601 743.601 701.795 744.163L701.042 744.255C699.034 752.983 692.029 800.953 687.892 804.237L687.04 804.048C683.64 781.437 697.491 751.29 663.614 752.64C642.476 753.482 620.34 751.687 599.097 752.967C588.816 753.586 584.816 758.299 582.72 767.851L582.665 788.31C572.774 788.739 569.279 790.357 565.949 799.915C565.545 798.696 565.104 797.385 564.494 796.257C562.43 792.525 558.902 789.824 554.761 788.807C550.937 787.895 546.907 788.531 543.551 790.578C540.197 792.627 537.813 795.945 536.942 799.777C535.753 805.162 537.394 809.092 540.071 813.48L528.784 813.412C528.883 810.276 528.955 807.14 529.002 804.003C529.195 788.782 529.708 771.624 528.32 756.623C526.901 741.289 496.565 745.29 485.165 745.306L419.501 745.249C410.522 745.268 401.643 746.229 399.819 757.278C398.735 763.838 399.22 771.285 399.234 777.975L399.344 813.463L388.193 813.544C393.464 804.52 393.49 793.77 382.422 789.383C378.697 787.928 374.546 788.011 370.882 789.615C363.041 793.036 366.192 796.389 362.306 799.058C357.635 796.497 363.549 788.912 345.408 788.372C345.545 770.595 349.783 752.26 324.705 752.664C301.774 753.034 277.618 751.788 254.672 753.369C249.18 753.747 242.842 760.191 242.261 765.863C240.92 778.948 241.402 793.037 241.529 806.32C236.113 798.334 235.758 790.234 233.84 780.969C231.297 768.688 229.411 756.249 226.873 743.968C221.704 743.589 204.116 744.829 200.792 742.688L200.705 741.724C201.902 741.168 207.342 741.129 208.96 741.068Z"
     id="path82" />
  <path
     fill="#A2C1DC"
     d="M254.973 876.972C257.638 876.87 260.743 877.18 263.345 877.75C302.247 886.27 341.39 893.649 380.272 902.275C382.499 902.769 388.699 904.567 390.612 905.857C397.712 910.645 401.194 920.111 402.976 928.115C405.419 938.849 406.277 945.938 393.393 948.143C387.924 948.532 374.933 947.577 368.969 947.277C354.015 946.62 339.067 945.823 324.127 944.887C309.534 943.972 293.74 943.364 279.269 941.677C269.494 940.537 253.96 921.972 247.979 914.486C240.611 905.263 245.396 883.34 254.973 876.972Z"
     id="path83" />
  <path
     fill="#A2C1DC"
     d="M668.928 877.104C680.097 875.103 683.078 894.275 683.882 902.045C684.629 909.266 680.535 915.414 675.56 920.36C670.294 925.157 659.423 938.78 652.982 940.669C643.465 943.458 622.802 943.848 612.858 944.43C588.317 945.896 563.764 947.16 539.202 948.221C534.238 948.278 523.947 946.764 524.056 940.012C524.255 927.613 528.302 907.974 542.326 904.048C556.347 900.123 570.948 897.505 585.275 894.484L640.77 883.094C650.128 881.159 659.58 878.83 668.928 877.104Z"
     id="path84" />
  <path
     fill="#A2C1DC"
     d="M300.251 594.901C326.164 594.726 347.334 615.551 347.589 641.466C347.844 667.382 327.087 688.62 301.176 688.954C275.152 689.291 253.804 668.421 253.548 642.392C253.292 616.363 274.225 595.077 300.251 594.901Z"
     id="path85" />
  <path
     fill="#2A4360"
     d="M294.407 604.022C315.472 600.593 335.298 614.978 338.577 636.069C341.855 657.16 327.332 676.886 306.221 680.015C285.321 683.113 265.838 668.765 262.592 647.884C259.346 627.004 273.554 607.417 294.407 604.022Z"
     id="path86" />
  <path
     fill="#748593"
     d="M296.497 610.166C314.081 607.898 330.193 620.266 332.548 637.841C334.903 655.416 322.616 671.591 305.055 674.033C287.371 676.492 271.061 664.098 268.689 646.4C266.318 628.702 278.79 612.451 296.497 610.166Z"
     id="path87" />
  <path
     fill="#2A4360"
     d="M315.065 662.868C312.696 669.925 305.538 674.202 298.202 672.944C290.866 671.685 285.542 665.267 285.66 657.823C285.779 650.38 291.304 644.134 298.676 643.11C306.049 642.085 313.067 646.588 315.21 653.717C315.469 654.576 315.65 655.456 315.752 656.347C316.003 658.545 315.769 660.771 315.065 662.868Z"
     id="path88" />
  <path
     fill="#38434D"
     d="M300.773 649.333C308.535 650.224 313.054 655.605 308.131 663.29C306.391 666.008 303.493 666.192 300.476 666.558C287.97 666.265 288.821 651.302 300.773 649.333Z"
     id="path89" />
  <path
     fill="#A2C1DC"
     d="M293 616.627C296.953 616.269 300.117 616.123 302.888 619.675C303.437 625.42 294.527 625.976 290.925 627.232C287.48 628.433 285.15 634.178 283.895 637.437C283.004 638.518 282.885 638.478 281.748 639.281C272.172 640.457 274.522 621.823 293 616.627Z"
     id="path90" />
  <path
     fill="#A2C1DC"
     d="M315.21 653.717C317.788 647.388 317.531 643.276 319.26 636.864C319.801 636.607 320.341 636.35 320.881 636.093C333.033 636.87 324.361 661.149 316.943 662.103L316.128 661.699C316.041 659.974 316.011 658.03 315.752 656.347C315.65 655.456 315.469 654.576 315.21 653.717Z"
     id="path91" />
  <path
     fill="#A2C1DC"
     d="M625.487 595.001C651.276 593.759 673.24 613.551 674.684 639.333C676.129 665.115 656.513 687.237 630.747 688.885C604.692 690.551 582.271 670.665 580.81 644.594C579.35 618.524 599.409 596.257 625.487 595.001Z"
     id="path92" />
  <path
     fill="#2A4360"
     d="M622.053 604.035C643.113 600.871 662.723 615.456 665.754 636.538C668.786 657.62 654.08 677.141 632.982 680.041C612.071 682.915 592.761 668.365 589.757 647.469C586.752 626.573 601.179 607.17 622.053 604.035Z"
     id="path93" />
  <path
     fill="#748593"
     d="M622.298 610.331C639.787 607.32 656.419 619.02 659.497 636.501C662.574 653.981 650.94 670.66 633.473 673.805C615.912 676.968 599.124 665.254 596.03 647.678C592.935 630.102 604.712 613.358 622.298 610.331Z"
     id="path94" />
  <path
     fill="#2A4360"
     d="M642.659 659.812C641.747 667.562 635.125 673.367 627.324 673.256C619.522 673.145 613.068 667.153 612.378 659.38C611.687 651.608 616.984 644.572 624.644 643.087C632.303 641.602 639.845 646.149 642.109 653.616C642.716 655.622 642.904 657.731 642.659 659.812Z"
     id="path95" />
  <path
     fill="#38434D"
     d="M625.436 649.12C630.256 648.874 634.008 649.789 635.98 654.866C636.887 657.198 636.793 659.801 635.72 662.062C634.297 665.088 632.158 665.663 629.238 666.709C618.487 668.058 613.608 655.691 625.436 649.12Z"
     id="path96" />
  <path
     fill="#A2C1DC"
     d="M622.571 615.528C626.289 615.771 629.326 616.864 628.575 621.242C626.146 624.615 624.261 624.311 620.348 625.522C613.367 627.682 613.696 632.081 610.592 638.167C596.484 640.532 606.154 618.357 622.571 615.528Z"
     id="path97" />
  <path
     fill="#A2C1DC"
     d="M642.109 653.616C645.7 648.446 644.474 637.635 652.019 640.545C656.315 645.339 650.394 658.784 644.034 660.786L642.986 660.468L642.659 659.812C642.904 657.731 642.716 655.622 642.109 653.616Z"
     id="path98" />
  <path
     fill="#A2C1DC"
     d="M461.461 176.995C486.868 175.549 508.663 194.919 510.215 220.323C511.767 245.727 492.492 267.606 467.098 269.265C441.553 270.934 419.517 251.517 417.956 225.961C416.394 200.405 435.902 178.449 461.461 176.995Z"
     id="path99" />
  <path
     fill="#2A4360"
     d="M457.877 186.081C478.273 182.642 497.602 196.371 501.074 216.765C504.545 237.158 490.848 256.511 470.463 260.016C450.032 263.528 430.629 249.792 427.149 229.352C423.67 208.913 437.435 189.529 457.877 186.081Z"
     id="path100" />
  <path
     fill="#748593"
     d="M458.988 192.179C476.016 189.37 492.103 200.877 494.946 217.901C497.789 234.925 486.316 251.037 469.3 253.915C452.236 256.801 436.07 245.286 433.218 228.214C430.367 211.142 441.913 194.997 458.988 192.179Z"
     id="path101" />
  <path
     fill="#A2C1DC"
     d="M455.824 199.764C459.377 199.722 465.69 200.116 464.943 205.068C461.853 209.049 460.461 207.698 455.245 209.343L454.705 209.517C452.838 211.421 451.42 213.788 449.955 216.026C447.957 217.8 447.434 218.053 444.803 217.353C442.256 215.062 442.328 212.072 443.651 208.997C445.935 203.689 450.726 201.598 455.824 199.764Z"
     id="path102" />
  <path
     fill="#A2C1DC"
     d="M482.226 222.802C483.413 222.81 484.473 222.883 485.653 222.954C489.53 225.215 488.88 229.038 487.368 232.777C484.554 239.735 481.673 243.285 474.706 246.356C471.973 246.19 470.607 246.109 469.086 243.781C469.768 239.067 476.133 236.456 478.637 232.986C479.723 231.481 480.866 225.72 482.226 222.802Z"
     id="path103" />
  <path
     fill="#A2C1DC"
     d="M599.488 759.045C615.146 758.94 630.803 758.914 646.461 758.969C654.203 758.974 667.137 758.594 674.325 759.478C676.896 761.164 679.812 763.489 680.133 766.866C681.026 776.236 680.503 785.817 680.638 795.236C680.421 800.739 681.043 806.707 680.156 812.139C679.305 817.341 675.81 819.537 671.113 820.128C660.453 820.218 598.351 821.745 593.58 818.888C591.253 817.495 590.184 813.255 589.68 810.734C588.464 804.649 587.997 767.577 590.958 763.453C593.225 760.295 595.885 759.627 599.488 759.045Z"
     id="path104" />
  <path
     fill="#A2C1DC"
     d="M257.807 759.061C268.633 758.751 329.356 757.809 335.012 760.449C336.486 761.137 337.354 763.19 337.881 764.62C339.952 770.25 340.237 810.352 337.856 814.954C336.148 818.257 333.507 819.226 330.16 820.128C308.402 820.514 286.547 819.979 264.75 820.265C249.697 821.245 247.3 815.877 247.833 801.859C248.064 792.683 248.173 783.5 247.799 774.328C247.459 766.025 248.935 760.75 257.807 759.061Z"
     id="path105" />
  <path
     fill="#A2C1DC"
     d="M412.854 751.572C446.066 750.527 480.581 751.994 513.879 751.806C518.182 751.782 520.071 754.154 522.522 757.198C523.335 772.477 523.081 801.539 522.429 816.608C517.623 824.349 510.263 822.289 502.208 822.513C496.475 822.673 490.526 822.4 484.77 822.331L484.646 800.798C495.819 800.905 494.841 799.039 494.535 788.861C494.558 784.198 495.388 771.314 493.337 768.24C488.168 766.412 439.483 766.76 434.535 768.478C432.688 771.339 432.678 795.892 435.08 799.526C436.182 801.194 441.705 800.815 443.569 800.771L443.471 822.321C435.271 822.342 419.105 823.791 411.761 821.843C409.301 821.191 407.332 819.306 406.194 817.061C404.57 813.86 404.769 759.976 405.946 757.138C407.246 754.003 409.84 752.71 412.854 751.572Z"
     id="path106" />
  <path
     fill="#A2C1DC"
     d="M199.947 327.198C199.81 322.008 200.79 301.23 201.49 296.046C202.18 302.394 201.607 313.799 201.432 320.611C200.993 334.468 200.659 348.329 200.43 362.191L198.934 430.876C198.711 441.598 198.937 458.836 197.908 468.83C196.881 464.817 197.131 450.194 197.135 445.173C196.471 444.129 192.62 438.678 192.571 437.752C192.179 430.278 190.868 422.138 187.737 415.289C187.371 414.49 186.075 414.424 185.992 414.06C185.767 413.076 186.231 413.091 185.364 411.893L185.08 412.678C187.213 418.258 185.525 458.239 184.544 465.897L184.449 620.495C184.447 649.352 184.125 679.06 184.605 707.855C188.442 712.6 187.948 712.682 187.835 719.151C180.05 715.57 177.092 712.515 177.019 703.411C176.269 697.239 176.754 673.275 176.748 665.966L176.752 585.778L176.66 468.713C176.35 435.818 175.431 402.978 175.908 370.046C176.111 356.018 176.916 352.121 190.652 347.816C193.228 344.613 188.055 336.321 199.947 327.198Z"
     id="path107" />
  <path
     fill="#7D6D5C"
     d="M199.947 327.198C199.81 322.008 200.79 301.23 201.49 296.046C202.18 302.394 201.607 313.799 201.432 320.611C200.993 334.468 200.659 348.329 200.43 362.191L198.934 430.876C198.711 441.598 198.937 458.836 197.908 468.83C196.881 464.817 197.131 450.194 197.135 445.173C196.471 444.129 192.62 438.678 192.571 437.752C192.179 430.278 190.868 422.138 187.737 415.289C187.371 414.49 186.075 414.424 185.992 414.06C185.767 413.076 186.231 413.091 185.364 411.893L185.08 412.678C187.213 418.258 185.525 458.239 184.544 465.897C183.776 436.034 184.871 405.857 184.427 375.967C184.356 371.225 183.659 360.76 187.266 357.595C188.965 356.105 198.129 356.528 194.121 349.529C189.601 346.826 181.751 352.043 179.453 356.037C177.608 359.244 177.552 362.462 177.303 366.052C177.002 376.683 177.123 387.502 177.137 398.147L177.176 456.408L177.072 620.512C177.058 647.397 177.697 676.76 177.019 703.411C176.269 697.239 176.754 673.275 176.748 665.966L176.752 585.778L176.66 468.713C176.35 435.818 175.431 402.978 175.908 370.046C176.111 356.018 176.916 352.121 190.652 347.816C193.228 344.613 188.055 336.321 199.947 327.198Z"
     id="path108" />
  <path
     fill="#A2C1DC"
     d="M726.663 309.637C728.881 312.107 726.937 330.216 728.278 333.682C728.308 333.758 732.96 334.748 734.573 336.648C738.033 340.725 736.459 342.127 738.351 346.507C742.262 350.146 746.642 350.702 749.912 355.685C752.217 359.197 751.837 362.364 751.888 366.278C752.449 409.379 751.581 452.459 751.455 495.551L751.39 550.237C751.39 558.035 751.822 571.501 751.247 578.971C750.543 609.171 751.685 640.58 751.3 670.934C751.158 682.194 752.099 698.131 750.648 709.42C750.065 713.964 744.19 717.433 740.301 719.502C739.696 708.039 742.976 712.845 743.381 704.101C743.828 694.455 743.58 683.186 743.563 673.437L743.512 465.841C740.397 454.221 743.453 428.016 742.05 414.331C739.714 418.153 736.535 423.715 733.722 426.997C733.735 426.861 733.535 429.885 733.672 429.347C732.803 432.759 730.152 435.627 730.228 439.545C730.422 449.455 730.727 458.269 729.992 468.211C729.239 462.997 729.395 450.96 729.271 445.139L728.263 396.158C727.871 378.878 727.543 361.461 727.219 344.182C727.063 335.867 725.818 317.312 726.663 309.637Z"
     id="path109" />
  <defs
     id="defs110">
    <linearGradient
       id="gradient_9"
       gradientUnits="userSpaceOnUse"
       x1="743.22437"
       y1="383.77509"
       x2="727.5473"
       y2="384.53436">
      <stop
         offset="0"
         stop-color="#706560"
         id="stop109" />
      <stop
         offset="1"
         stop-color="#847462"
         id="stop110" />
    </linearGradient>
  </defs>
  <path
     fill="url(#gradient_9)"
     d="M726.663 309.637C728.881 312.107 726.937 330.216 728.278 333.682C728.308 333.758 732.96 334.748 734.573 336.648C738.033 340.725 736.459 342.127 738.351 346.507C742.262 350.146 746.642 350.702 749.912 355.685C752.217 359.197 751.837 362.364 751.888 366.278C752.449 409.379 751.581 452.459 751.455 495.551L751.39 550.237C751.39 558.035 751.822 571.501 751.247 578.971C750.861 574.179 751.045 565.267 751.041 560.242L751.05 525.36L751.087 413.694L751.074 381.271C751.058 370.534 753.944 348.908 735.922 348.702C734.74 348.688 733.875 350.09 733.365 350.959C732.994 356.649 737.294 355.993 740.946 357.69C743.357 360.307 743.611 363.871 743.593 367.295C743.541 377.117 743.524 386.964 743.532 396.784L743.512 465.841C740.397 454.221 743.453 428.016 742.05 414.331C739.714 418.153 736.535 423.715 733.722 426.997C733.735 426.861 733.535 429.885 733.672 429.347C732.803 432.759 730.152 435.627 730.228 439.545C730.422 449.455 730.727 458.269 729.992 468.211C729.239 462.997 729.395 450.96 729.271 445.139L728.263 396.158C727.871 378.878 727.543 361.461 727.219 344.182C727.063 335.867 725.818 317.312 726.663 309.637Z"
     id="path110" />
  <path
     fill="#A2C1DC"
     d="M288.639 828.209C296.83 828.053 305.023 828.068 313.214 828.252C315.303 832.057 316.832 834.436 317.875 838.668C323.598 838.565 329.489 838.623 335.227 838.613C335.217 850.351 335.231 859.689 336.402 871.401C332.983 871.482 325.567 870.451 323.146 872.265L323.04 874.264C323.265 877.32 323.279 880.984 323.367 884.095C318.836 883.224 314.359 882.14 309.866 881.089L309.72 871.391L283.856 871.298C283.708 863.154 283.791 854.955 283.745 846.815C283.699 838.685 284.058 834.994 288.639 828.209Z"
     id="path111" />
  <path
     fill="#A2C1DC"
     d="M616.347 828.271C623.972 828.126 632.088 828.309 639.75 828.353C646.844 838.723 644.39 858.895 644.249 871.361L618.596 871.378C618.676 874.618 618.863 878.165 618.514 881.357C615.293 882.055 612.077 882.776 608.866 883.519L609.361 871.339L591.616 871.296C593.036 860.23 592.844 849.719 592.902 838.592L610.234 838.608C611.284 835.479 613.148 829.318 616.347 828.271Z"
     id="path112" />
  <path
     fill="#A2C1DC"
     d="M705.458 749.828C714.366 749.783 723.952 749.427 732.819 750.146C736.592 750.418 738.211 755.75 738.305 758.895C739.139 786.675 738.589 814.495 738.561 842.28L738.525 873.026C738.519 877.482 738.79 887.178 737.895 891.072C736.907 891.417 734.606 891.997 733.593 892.051C732.306 892.115 731.064 891.566 730.245 890.572C728.018 887.893 728.897 876.339 728.683 872.25C727.806 853.084 727.085 833.911 726.519 814.734C726.31 808.006 726.337 795.705 724.94 789.462C722.65 779.236 704.826 759.575 705.458 749.828Z"
     id="path113" />
  <path
     fill="#A2C1DC"
     d="M195.552 749.984C200.634 749.668 218.223 749.374 222.348 750.692C224.243 756.056 206.685 780.595 203.766 787.418C200.765 794.433 199.799 861.522 199.489 874.421C199.184 878.611 199.475 882.751 199.172 887.02C198.806 892.195 193.899 893.442 190.426 890.266C189.201 885.646 189.593 852.247 189.582 845.175C189.605 817.186 189.262 789.17 189.672 761.185C189.758 755.31 189.997 752.564 195.552 749.984Z"
     id="path114" />
  <path
     fill="#A2C1DC"
     d="M484.609 838.622C504.331 838.494 524.053 838.476 543.774 838.57C544.033 849.554 543.78 860.545 543.015 871.506C537.693 871.606 532.189 871.549 526.851 871.562C518.858 871.508 477.716 872.353 473.097 870.591L473.021 869.664C480.262 864.233 496.472 864.938 484.784 848.426L484.609 838.622Z"
     id="path115" />
  <path
     fill="#A2C1DC"
     d="M384.371 838.529L443.619 838.559L443.573 848.224C433.484 861.229 443.424 865.728 454.755 869.037L454.326 870.975C452.245 872.09 392.612 871.6 385.239 871.589C384.136 862.964 384.395 847.718 384.371 838.529Z"
     id="path116" />
  <path
     fill="#A2C1DC"
     d="M236.455 810.138L236.918 810.262C239.385 810.949 240.143 811.09 241.442 813.286C245.694 820.475 245.222 821.756 252.561 825.701L252.631 871.168C244.145 876.478 244.072 879.525 240.167 888.668L238.68 882.428C237.873 878.221 237.49 875.628 237.158 871.363C231.717 871.447 227.811 871.236 223.193 867.925C215.278 862.252 212.95 848.926 219.193 841.244C223.843 835.521 229.509 834.679 236.343 833.754C236.279 826.104 236.043 817.713 236.455 810.138Z"
     id="path117" />
  <path
     fill="#A2C1DC"
     d="M690.068 809.858L691.349 810.804C692.883 813.923 692.239 829.049 692.219 833.615C697.789 834.515 702.568 835.13 706.809 838.95C717.284 848.387 712.53 867.756 698.652 870.948C696.326 871.482 693.624 871.413 691.3 871.434L690.466 878.251C690.024 881.769 689.162 885.882 688.514 889.417C685.128 881.292 683.717 875.681 675.905 871.304C675.78 856.041 675.816 840.776 676.012 825.514C686.85 819.729 683.367 814.741 690.068 809.858Z"
     id="path118" />
  <path
     fill="#A2C1DC"
     d="M453.724 782.461C452.463 780.998 455.893 835.852 454.835 840.546C454.395 842.499 454.891 847.19 455.306 849.491C459.298 854.729 460.224 848.62 464.548 847.402C467.888 847.933 467.531 852.325 471.625 851.133C471.792 850.943 473.231 849.363 473.234 849.302C473.765 837.667 473.195 826.003 473.519 814.362C473.687 808.366 474.665 802.395 474.914 796.401C475.061 792.88 474.756 789.393 474.513 785.884C474.404 784.204 474.253 784.355 475.065 783.477C479.783 786.379 478.426 803.806 478.413 809.334L478.489 839.648L478.592 852.002C480.359 853.833 481.187 853.992 481.955 856.52C481.14 862.224 472.261 862.167 467.413 862.749C467.449 869.896 468.78 895.885 466.941 901.062C466.61 901.994 466.057 902.417 465.12 902.763C464.491 902.995 463.226 903.009 462.75 902.544C459.289 899.163 460.797 869.341 460.844 862.952C455.941 862.29 447.123 862.334 446.07 856.65C446.548 854.416 448.12 853.12 449.717 851.371C450.323 832.44 448.106 804.335 450.048 786.471C451.073 785.133 452.538 783.696 453.724 782.461Z"
     id="path119" />
  <path
     fill="#A2C1DC"
     d="M548.984 794.847C561.85 794.213 561.176 803.437 555.609 811.928C555.59 824.137 557.941 836.721 557.418 849.252C556.977 859.822 556.101 870.131 555.433 880.62C555.137 885.256 561.365 890.601 552.667 895.291C550.028 895.417 548.994 895.637 546.865 894.285C542.465 888.663 548.559 878.579 549.117 871.438C550.687 851.315 550.086 831.528 547.626 811.491C542.318 805.086 539.823 799.376 548.984 794.847Z"
     id="path120" />
  <path
     fill="#A2C1DC"
     d="M374.678 794.781C377.284 794.517 382.049 795.242 383.708 797.005C388.952 802.452 380.795 810.09 380.345 814.172C378.059 834.912 377.521 857.006 379.79 877.732C380.489 884.122 387.349 888.455 380.912 895.202C365.782 896.991 373.277 884.12 372.638 878.944C369.753 855.608 371.499 834.703 372.866 811.551C367.911 804.499 366.247 799.714 374.678 794.781Z"
     id="path121" />
  <path
     fill="#A2C1DC"
     d="M345.387 794.74C357.516 794.626 359.271 803.574 351.045 811.501C348.44 831.092 348.658 853.414 350.045 873.187C350.409 878.371 353.291 883.069 353.681 888.707L352.293 889.565C348.89 889.63 345.511 888.635 342.191 887.831C343.672 877.26 341.973 869.271 341.697 859.237C341.241 842.638 340.138 827.127 345.22 811.114C345.971 808.747 345.453 797.909 345.387 794.74Z"
     id="path122" />
  <path
     fill="#A2C1DC"
     d="M577.623 794.8C579.641 794.654 580.501 794.406 582.312 795.137C583.27 798.68 582 808.96 582.714 810.815C588.747 826.493 586.392 841.815 586.441 858.406C586.473 868.947 583.674 876.527 586.635 887.559C583.258 888.574 580.675 889.062 577.201 889.721L576.229 889.683C573.497 887.108 576.781 880.303 577.485 876.362C580.488 859.538 580.008 827.297 577.017 811.212C571.279 805.592 569.415 799.141 577.623 794.8Z"
     id="path123" />
  <path
     fill="#A2C1DC"
     d="M656.371 826.445L669.657 826.547C669.714 837.541 670.01 857.967 669.473 869.983C669.165 870.301 668.856 870.62 668.548 870.938C664.705 871.854 660.347 872.618 656.437 873.394L656.371 826.445Z"
     id="path124" />
  <path
     fill="#A2C1DC"
     d="M258.739 826.488C262.965 826.438 267.478 826.576 271.728 826.628L271.691 873.248C267.842 872.345 262.76 871.58 258.787 870.866C258.468 856.622 258.562 840.715 258.739 826.488Z"
     id="path125" />
  <path
     fill="#A2C1DC"
     d="M594.241 196.584C599.145 196.563 611.301 195.245 613.819 199.591C613.705 201.202 613.824 201.268 612.773 202.55C611.359 202.896 610.965 202.94 609.63 203.578C608.822 205.935 609.259 212.164 609.329 214.974C605.608 214.182 601.6 213.495 597.84 212.779C591.985 211.83 586.121 210.932 580.25 210.085C580.335 207.857 580.315 206.053 580.256 203.84C578.588 201.76 577.554 203.835 574.913 201.578C574.199 199.385 574.093 200.374 574.942 198.49C578.889 195.8 589.074 196.579 594.241 196.584Z"
     id="path126" />
  <path
     fill="#A2C1DC"
     d="M316.096 196.957C326.375 196.55 336.872 196.479 347.151 196.721C350.55 196.801 353.992 197.434 353.62 201.308C351.76 203.243 351.624 202.024 348.57 203.372C347.548 205.274 348.43 207.116 347.883 210.027C338.587 211.715 328.6 213.136 319.193 214.683C319.147 211.879 319.052 208.858 319.181 206.068C319.379 201.802 316.412 203.731 314.279 200.469C314.43 198.645 314.829 198.435 316.096 196.957Z"
     id="path127" />
  <path
     fill="#A2C1DC"
     d="M678.7 706.667C682.666 706.471 686.661 706.547 690.634 706.574C690.873 712.083 691.733 737.349 689.669 740.634C685.498 740.617 682.041 740.444 677.877 740.142C677.461 735.906 676.51 709.351 678.7 706.667Z"
     id="path128" />
  <path
     fill="#748593"
     d="M544.688 215.099C550.73 213.862 556.654 217.675 558.031 223.686C559.408 229.698 555.735 235.71 549.758 237.227C545.766 238.24 541.538 237.011 538.71 234.016C535.883 231.02 534.9 226.728 536.141 222.8C537.382 218.872 540.653 215.925 544.688 215.099Z"
     id="path129" />
  <path
     fill="#A2C1DC"
     d="M563.538 838.593L573.163 838.554C573.311 850.812 573.365 859.248 572.124 871.465C569.013 871.569 565.491 871.501 562.344 871.514C563.849 860.895 563.705 849.274 563.538 838.593Z"
     id="path130" />
  <path
     fill="#A2C1DC"
     d="M355.181 838.656L364.487 838.641C364.367 849.777 364.992 860.306 365.681 871.381L356.053 871.474C355.434 860.218 355.313 849.948 355.181 838.656Z"
     id="path131" />
  <path
     fill="#A2C1DC"
     d="M463.254 776.945C471.891 779.358 469.126 804.99 465.349 812.076C464.075 811.889 464.208 811.834 462.984 811.317C457.235 804.717 458.583 784.343 463.254 776.945Z"
     id="path132" />
  <path
     fill="#A2C1DC"
     d="M599.27 951.443C601.469 951.46 600.893 951.118 602.082 952.325C604.397 960.366 601.137 970.438 593.45 974.469C590.224 972.709 589.508 971.021 589.368 967.391C589.17 962.283 589.443 956.933 589.523 951.815L599.27 951.443Z"
     id="path133" />
  <path
     fill="#A2C1DC"
     d="M325.724 951.257L338.487 951.806C338.636 957.188 339.654 968.631 337.478 972.841C325.121 977.708 325.863 957.972 325.724 951.257Z"
     id="path134" />
  <path
     fill="#A2C1DC"
     d="M308.766 950.627C312.573 950.643 315.994 950.834 319.797 951.071C319.981 955.328 319.956 959.965 320.018 964.256C307.115 964.58 308.535 962.817 308.766 950.627Z"
     id="path135" />
  <path
     fill="#A2C1DC"
     d="M608.672 950.89C612.082 950.685 615.877 950.658 619.322 950.558C619.418 954.11 619.99 960.633 618.366 963.637C615.198 964.398 611.574 964.191 608.285 964.157L608.672 950.89Z"
     id="path136" />
  <path
     fill="#A2C1DC"
     d="M460.482 838.627C462.635 838.505 464.129 838.307 466.264 838.71C467.929 840.294 467.405 840.021 467.854 842.89C465.437 842.826 464.305 843.225 461.78 842.676C460.262 841.038 460.749 841.413 460.482 838.627Z"
     id="path137" />
  <path
     fill="#A2C1DC"
     d="M460.989 817.867C463.063 817.734 464.702 817.438 466.654 818.076C467.796 819.816 467.4 819.88 467.493 822.347C465.421 822.42 464.116 822.564 462.046 822.137C460.672 820.459 461.134 820.58 460.989 817.867Z"
     id="path138" />
  <path
     fill="#A2C1DC"
     d="M362.047 805.449C362.777 806.304 364.513 811.78 364.727 813.195L363.357 813.948C361.848 813.817 360.869 813.898 359.639 813.036L359.586 811.722C361.017 809.207 361.488 808.346 362.047 805.449Z"
     id="path139" />
  <path
     fill="#A2C1DC"
     d="M565.91 805.923C566.21 807.063 568.361 811.523 568.974 813.05L568.089 813.854C566.485 813.758 565.703 813.826 564.219 813.158C563.557 811.06 565.019 808.574 565.91 805.923Z"
     id="path140" />
</svg>
