<?xml version="1.0" encoding="UTF-8" standalone="no"?>
<svg
   width="187"
   height="195"
   viewBox="0 0 187 195"
   version="1.1"
   id="svg98"
   sodipodi:docname="coal_bunker.svg"
   inkscape:version="1.4.4 (dcaf3e7d9e, 2026-05-05)"
   xmlns:inkscape="http://www.inkscape.org/namespaces/inkscape"
   xmlns:sodipodi="http://sodipodi.sourceforge.net/DTD/sodipodi-0.dtd"
   xmlns="http://www.w3.org/2000/svg"
   xmlns:svg="http://www.w3.org/2000/svg">
  <defs
     id="defs98">
    <linearGradient
       id="gradient_1"
       gradientUnits="userSpaceOnUse"
       x1="963.74487"
       y1="1051.7085"
       x2="872.21051"
       y2="934.47986"
       gradientTransform="matrix(1.5,0,0,1.5,-1282.936,-1392.0953)">
      <stop
         offset="0"
         stop-color="#28456C"
         id="stop16" />
      <stop
         offset="1"
         stop-color="#41699E"
         id="stop17" />
    </linearGradient>
  </defs>
  <sodipodi:namedview
     id="namedview98"
     pagecolor="#ffffff"
     bordercolor="#000000"
     borderopacity="0.25"
     inkscape:showpageshadow="2"
     inkscape:pageopacity="0.0"
     inkscape:pagecheckerboard="0"
     inkscape:deskcolor="#d1d1d1"
     inkscape:zoom="1.1077586"
     inkscape:cx="31.595331"
     inkscape:cy="266.3035"
     inkscape:window-width="1259"
     inkscape:window-height="1387"
     inkscape:window-x="12"
     inkscape:window-y="39"
     inkscape:window-maximized="1"
     inkscape:current-layer="svg98" />
  <path
     fill="#203551"
     d="m 101.37664,67.191635 c 3.267,0.77685 5.397,1.2552 7.8825,3.58425 l -0.4365,6.56055 0.9885,0.68895 c 2.22,-3.0357 3.9405,-5.7957 7.362,-7.5804 3.6705,0.81165 3.9435,0.9636 6.408,3.80115 2.244,8.6802 -1.8825,16.719 -5.2545,24.5049 6.114,0.09615 12.2265,0.29475 18.333,0.59565 1.821,7.770895 5.355,13.301245 9.7065,19.812745 -1.308,1.5435 -2.778,3.03 -3.444,4.9755 -0.4935,1.443 1.17,2.352 2.121,3.3675 5.2395,5.5995 9.0825,10.818 12.75,17.565 l -17.301,5.709 -21.384,-6.3405 c -6.0945,3.2985 -11.7315,6.417 -18.5505,8.0025 -11.351996,0.03 -21.374996,-4.134 -31.916996,-7.857 -16.782,4.344 -26.2695,1.731 -42.1815,-3.9075 6.1815,-3.0585 11.8935,-6.969 17.6715,-10.7145 -0.894,-6.1185 -1.038,-12.3705 -1.3665,-18.5409 2.46,-1.09215 5.3325,-2.1399 7.575,-3.61215 3.684,-2.41815 3.402,-5.2881 4.113,-9.260095 4.182,-5.76705 19.8285,-15.3942 26.658,-18.14145 3.0075,-1.21005 6.573,1.52205 9.3885,2.86275 4.281,-1.29585 8.238,-11.79405 10.877996,-16.07595 z"
     id="path506"
     style="stroke-width:1.5" />
  <path
     fill="#badbf8"
     d="m 81.518144,84.367535 c 0.501,0.2535 0.999,0.51105 1.503,0.75765 0.723,0.35415 1.467,0.66975 2.1675,1.068 6.897,3.92325 11.967,1.3437 18.992996,3.20655 0.897,1.2003 2.0355,2.5977 2.5425,4.01385 1.1805,3.29325 0.2085,5.04 -1.2465,7.863295 -3.2415,2.247 -6.121496,2.32035 -9.896996,2.6337 -1.545,0.12825 -2.4885,0.36615 -3.8475,1.20855 2.5575,2.66625 4.9005,4.23645 8.1975,5.8881 4.895996,0.021 9.065996,-3.1266 13.250996,-5.38005 4.656,-2.50635 9.6285,-5.0484 15.0345,-3.02205 3.0885,1.1574 5.1465,2.82735 6.627,5.73105 -1.386,2.83065 -3.723,3.42 -6.4365,4.82925 l 0.909,1.809 c 3.2445,0.4095 6.12,0.966 9.207,2.0565 l 0.7095,2.31 c -1.8105,2.7135 -3.5865,5.4345 -5.2755,8.2275 l 1.188,1.437 c 2.4225,0.654 5.7615,1.2855 7.7745,2.823 3.1125,2.379 5.2365,5.3865 6.015,9.132 -2.8425,3.516 -5.37,3.7485 -9.5925,5.1825 -6.078,-2.5665 -12.318,-4.4205 -18.624,-6.318 -8.4915,-0.441 -13.7325,7.956 -22.223996,8.4105 -9.816,0.525 -17.0145,-6.972 -26.2095,-8.043 -8.0085,-0.933 -16.9785,2.4915 -25.2795,1.956 -3.1965,-0.2055 -5.1195,-0.657 -7.3005,-3.0495 l 8.898,-7.5165 c -0.7965,-6.2925 -2.1255,-12.474 1.146,-18.2835 7.2525,-3.77955 10.9785,3.291 17.862,3.834 2.5575,0.2025 3.2745,-0.8835 5.0445,-2.4465 -4.509,-1.878 -8.352,-3.26385 -11.5215,-7.15485 -1.1145,-3.40095 -1.512,-5.58345 -0.828,-9.120145 3.2565,-3.0069 7.599,-1.94715 11.82,-3.51615 2.547,-4.9113 4.8585,-7.3737 9.393,-10.52775 z"
     id="path507"
     style="stroke-width:1.5" />
  <path
     fill="#203551"
     d="m 112.44664,127.97343 1.7685,0.153 -0.3735,2.1435 c -2.9925,3.468 -5.004,5.4075 -9.366,7.125 -2.067,-1.6245 -3.8115,-3.3195 -5.569496,-5.274 l 1.163996,-1.6065 c 4.344,-0.4245 8.196,-1.3155 12.3765,-2.541 z"
     id="path508"
     style="stroke-width:1.5" />
  <path
     fill="#375d8e"
     d="m 59.439644,131.64543 c 5.703,0.4395 11.7675,2.319 17.3775,3.543 -1.215,0.405 -2.427,0.795 -3.684,1.053 -5.208,1.0725 -9.4755,-1.995 -13.6935,-4.596 z"
     id="path509"
     style="stroke-width:1.5" />
  <path
     fill="#1b2f4a"
     d="m 126.45514,27.832685 c 1.5,0.7626 1.722,1.18485 3.0045,2.34165 1.077,7.91025 -9.6435,29.60625 -13.374,37.974 l -2.5575,-2.3529 c -0.6195,-7.5921 9.468,-29.6958 12.927,-37.96275 z"
     id="path510"
     style="stroke-width:1.5" />
</svg>
