<?xml version="1.0" encoding="UTF-8" standalone="no"?>
<svg
   width="187"
   height="195"
   viewBox="0 0 187 195"
   version="1.1"
   id="svg98"
   sodipodi:docname="compressor.svg"
   inkscape:version="1.4.4 (dcaf3e7d9e, 2026-05-05)"
   xmlns:inkscape="http://www.inkscape.org/namespaces/inkscape"
   xmlns:sodipodi="http://sodipodi.sourceforge.net/DTD/sodipodi-0.dtd"
   xmlns="http://www.w3.org/2000/svg"
   xmlns:svg="http://www.w3.org/2000/svg">
  <defs
     id="defs98">
    <linearGradient
       id="gradient_1"
       gradientUnits="userSpaceOnUse"
       x1="963.74487"
       y1="1051.7085"
       x2="872.21051"
       y2="934.47986"
       gradientTransform="matrix(1.5,0,0,1.5,-1282.936,-1392.0953)">
      <stop
         offset="0"
         stop-color="#28456C"
         id="stop16" />
      <stop
         offset="1"
         stop-color="#41699E"
         id="stop17" />
    </linearGradient>
  </defs>
  <sodipodi:namedview
     id="namedview98"
     pagecolor="#ffffff"
     bordercolor="#000000"
     borderopacity="0.25"
     inkscape:showpageshadow="2"
     inkscape:pageopacity="0.0"
     inkscape:pagecheckerboard="0"
     inkscape:deskcolor="#d1d1d1"
     inkscape:zoom="1.1077586"
     inkscape:cx="31.595331"
     inkscape:cy="266.3035"
     inkscape:window-width="1259"
     inkscape:window-height="1387"
     inkscape:window-x="12"
     inkscape:window-y="39"
     inkscape:window-maximized="1"
     inkscape:current-layer="svg98" />
  <path
     fill="#1b2f4a"
     d="m 98.114871,59.548753 0.717,-1.2285 -0.864,-2.343 c 3.569999,-7.491 18.101999,-8.0415 25.163999,-5.1915 8.7345,7.0845 1.8105,19.7985 4.236,28.3785 1.497,5.2935 13.1175,0.693 20.097,3.306 13.0485,11.346 8.5095,44.126997 1.0515,57.428997 -5.0355,3.0075 -8.064,0.2355 -13.362,0.951 -5.355,0.7245 1.1475,5.0865 -3.087,11.3805 -13.1565,3.8655 -7.1265,-4.3785 -12.8145,-8.6205 -6.123,-4.566 -46.352999,-4.554 -50.168999,0.2175 0.357,3.609 0.96,5.214 -0.7875,8.142 -3.63,1.9425 -5.142,1.536 -9.21,1.1925 -4.6995,-3.5355 -1.617,-3.6705 -4.896,-10.731 -4.2465,-2.691 -7.3995,-0.474 -13.9785,-2.001 -15.7875,-13.8555 -8.9055,-42.970497 -0.8445,-59.432997 36.9915,3.5595 19.6365,-5.664 29.2605,-19.4235 4.7805,-3.9585 14.2305,-3.783 20.2485,-3.5985 l 7.5705,-0.522 z"
     id="path371"
     style="stroke-width:1.5" />
  <path
     fill="#badbf8"
     d="m 88.876371,57.975253 7.5705,-0.522 1.668,2.0955 c 0.2085,6.9405 2.489999,21.1515 -7.9785,20.637 -7.482,-5.301 -7.548,-11.34 -5.7615,-19.479 z"
     id="path372"
     style="stroke-width:1.5" />
  <path
     fill="#badbf8"
     d="m 48.170871,85.171753 c 9.177,-1.0155 17.6595,4.5405 26.661,5.94 12.207,1.8975 36.469499,0.996 48.854999,-0.8985 5.178,-4.086 7.716,-5.3835 14.2245,-5.187 2.9685,2.268 3.2745,4.641 4.488,8.037 l 0.7425,-0.267 c 0.7215,-2.0775 1.53,-4.065 2.4255,-6.0735 l 2.5665,0.2835 c 1.2765,1.0875 2.403,2.2605 3.006,3.861 5.223,13.853997 0.195,37.093497 -5.316,50.138997 -1.3365,-13.9215 -1.089,-27.984 -2.151,-41.951997 -4.182,5.378997 -1.1295,28.726497 -3.7785,36.896997 -0.4155,1.281 -3.2205,2.19 -4.4625,2.82 -1.179,-1.4955 -2.3505,-2.94 -3.774,-4.215 -6.0375,-5.4075 -8.16,1.875 -14.58,2.799 -9.0045,1.299 -20.527499,2.0715 -29.575499,0.9585 -6.9765,-0.858 -19.188,-5.8965 -25.686,-4.731 -4.02,0.72 -6.585,4.3125 -11.511,4.512 -8.724,-5.358 1.305,-31.671 -4.716,-40.700997 -7.257,9.643497 1.833,27.664497 -3.57,38.068497 l -1.9725,-0.6015 c -5.0055,-7.8435 -5.4465,-18.2535 -5.34,-27.303 0.081,-6.9585 1.041,-16.120497 6.3465,-21.223497 2.457,1.2765 2.823,4.041 3.78,6.579 l 1.776,-0.972 z"
     id="path373"
     style="stroke-width:1.5" />
  <path
     fill="#badbf8"
     d="m 103.11587,81.832753 c 1.4895,-0.042 2.982,-0.075 4.4715,-0.0255 3.6555,0.12 7.704,-0.006 10.2345,2.6655 l 2.0925,-0.813 -0.849,1.1505 c -10.5915,2.685 -20.681999,2.157 -31.511999,1.7175 -2.8095,0.1365 -5.649,0.3135 -8.4615,0.2685 -3.4185,-0.0555 -5.883,0.1515 -8.3535,-2.3265 l -2.817,0.861 1.1115,-1.1325 c 11.259,-2.5605 22.602,-2.313 34.082999,-2.3655 z"
     id="path374"
     style="stroke-width:1.5" />
  <path
     fill="#badbf8"
     d="m 70.057371,63.001753 c 3.2745,0.3345 5.3475,0.5295 8.0385,2.5065 2.5455,3.9735 1.713,8.757 1.548,13.3035 -4.239,-0.7575 -5.868,-0.924 -9.2805,-3.759 -1.6545,-4.164 -0.933,-7.7745 -0.306,-12.051 z"
     id="path375"
     style="stroke-width:1.5" />
  <path
     fill="#badbf8"
     d="m 106.94837,52.972753 c 2.7075,-0.132 5.7105,-0.45 8.3925,-0.0225 3.4815,0.555 4.0695,0.9525 6.027,3.6225 l -1.35,3.627 c -3.3075,0.087 -7.296,0.546 -10.5195,-0.189 -2.7675,-0.6315 -2.736,-0.873 -4.254,-3.33 z"
     id="path376"
     style="stroke-width:1.5" />
  <path
     fill="#badbf8"
     d="m 114.32687,71.847253 c 2.3325,0.7185 3.5505,1.419 5.4495,2.955 l -0.5715,2.1525 -4.731,1.683 c -3.1305,-0.7335 -5.166,-1.3365 -7.719,-3.327 2.0355,-2.67 4.4355,-2.661 7.572,-3.4635 z"
     id="path377"
     style="stroke-width:1.5" />
  <path
     fill="#badbf8"
     d="m 60.938871,136.66675 2.2695,1.053 c 2.2875,3.579 1.989,7.146 2.034,11.2425 -1.692,-0.4785 -3.198,-1.1775 -4.7985,-1.8915 -1.5135,-3.9615 -0.378,-6.3105 0.495,-10.404 z"
     id="path378"
     style="stroke-width:1.5" />
  <path
     fill="#badbf8"
     d="m 125.71937,135.39025 c 0.9795,0.657 0.927,0.5445 1.8285,1.5765 2.5215,2.8845 1.926,8.4375 1.8855,12.0345 l -4.0125,-1.7805 c -2.109,-3.747 -0.591,-7.899 0.2985,-11.8305 z"
     id="path379"
     style="stroke-width:1.5" />
  <path
     fill="#badbf8"
     d="m 101.25887,60.469753 c 1.704,0.573 3.5865,1.092 4.8855,2.3925 2.1435,2.145 1.5735,3.5445 1.524,6.4275 -1.479,0.492 -2.976,0.6345 -4.5165,0.852 -2.4795,-3.0465 -1.791,-5.841 -1.893,-9.672 z"
     id="path380"
     style="stroke-width:1.5" />
  <path
     fill="#badbf8"
     d="m 121.11887,63.342253 c 1.707,-1.041 3.9315,-0.5325 5.016,1.1475 1.083,1.68 0.6315,3.918 -1.02,5.0445 -1.107,0.7545 -2.535,0.8505 -3.732,0.249 -1.197,-0.6015 -1.9725,-1.8045 -2.028,-3.1425 -0.054,-1.338 0.621,-2.601 1.764,-3.2985 z"
     id="path381"
     style="stroke-width:1.5" />
  <path
     fill="#badbf8"
     d="m 112.29137,63.444253 c 1.119,-0.5865 2.475,-0.4815 3.492,0.2685 1.0155,0.7515 1.515,2.0175 1.2825,3.2595 -0.231,1.2435 -1.152,2.244 -2.37,2.5785 -1.626,0.4455 -3.3255,-0.405 -3.9435,-1.974 -0.618,-1.5675 0.045,-3.3495 1.539,-4.1325 z"
     id="path382"
     style="stroke-width:1.5" />
</svg>
