<?xml version="1.0" encoding="UTF-8" standalone="no"?>
<svg
   width="187"
   height="195"
   viewBox="0 0 187 195"
   version="1.1"
   id="svg98"
   sodipodi:docname="coupling.svg"
   inkscape:version="1.4.4 (dcaf3e7d9e, 2026-05-05)"
   xmlns:inkscape="http://www.inkscape.org/namespaces/inkscape"
   xmlns:sodipodi="http://sodipodi.sourceforge.net/DTD/sodipodi-0.dtd"
   xmlns="http://www.w3.org/2000/svg"
   xmlns:svg="http://www.w3.org/2000/svg">
  <defs
     id="defs98">
    <linearGradient
       id="gradient_1"
       gradientUnits="userSpaceOnUse"
       x1="963.74487"
       y1="1051.7085"
       x2="872.21051"
       y2="934.47986"
       gradientTransform="matrix(1.5,0,0,1.5,-1282.936,-1392.0953)">
      <stop
         offset="0"
         stop-color="#28456C"
         id="stop16" />
      <stop
         offset="1"
         stop-color="#41699E"
         id="stop17" />
    </linearGradient>
  </defs>
  <sodipodi:namedview
     id="namedview98"
     pagecolor="#ffffff"
     bordercolor="#000000"
     borderopacity="0.25"
     inkscape:showpageshadow="2"
     inkscape:pageopacity="0.0"
     inkscape:pagecheckerboard="0"
     inkscape:deskcolor="#d1d1d1"
     inkscape:zoom="1.1077586"
     inkscape:cx="31.595331"
     inkscape:cy="266.3035"
     inkscape:window-width="879"
     inkscape:window-height="1387"
     inkscape:window-x="12"
     inkscape:window-y="39"
     inkscape:window-maximized="0"
     inkscape:current-layer="svg98" />
  <path
     fill="#1b2f4a"
     d="m 127.41191,39.807739 25.536,-0.096 c -0.063,5.7735 -0.6,21.336 0.4815,26.496 4.5345,21.636 4.9155,38.113501 4.704,60.349501 -5.9535,-0.018 -12.57,-0.5985 -17.8245,1.9605 l -1.7715,2.541 c 3.222,11.2725 26.0415,10.1175 18.7005,24.339 -4.9635,2.8335 -6.528,1.248 -11.2665,0.6465 -19.479,-2.472 -15.9255,-27.336 -31.7415,-30.8115 -1.2195,-6.9 -1.1055,-13.911 -1.2165,-20.9205 -1.833,-5.929501 -3.1005,-8.547001 -1.7625,-14.521501 l 15.8085,-0.654 c 0.306,-16.4415 0.423,-32.8845 0.3525,-49.329 z"
     id="path418"
     style="stroke-width:1.5" />
  <path
     fill="#1b2f4a"
     d="m 33.03491,39.651739 c 8.5605,-0.177 17.121,-0.2835 25.683,-0.321 0.5385,15.795 -0.5565,32.751 0.8055,48.285 2.16,2.778 5.5605,1.977 10.6215,2.7735 3.6165,5.769 -1.695,11.769001 4.2675,20.164501 l -0.4905,1.503 c -3.021,4.5795 -1.374,9.0075 -3.105,14.121 -0.0945,0.2775 -5.2965,1.446 -6.3135,2.5425 -4.9665,5.1345 -6.102,13.3725 -10.479,18.9885 -5.19,6.66 -19.947,12.585 -27.021,5.856 -0.285,-9.891 17.3925,-13.917 21.327,-23.277 l -1.1655,-1.8405 c -5.703,-1.995 -13.662,-1.5525 -19.881,-1.5855 -0.303,-22.0305 -0.081,-37.684501 5.1855,-59.368501 1.29,-5.3115 0.6825,-21.7155 0.5655,-27.8415 z"
     id="path419"
     style="stroke-width:1.5" />
  <path
     fill="#badbf8"
     d="m 91.25141,98.696239 c -10.0575,-15.099 12.921,-24.7755 19.9995,-8.9055 -1.338,5.9745 -0.0705,8.592 1.7625,14.521501 l -3.615,-1.956 c -3.5865,-4.605001 0.6075,-22.549501 -13.809,-16.839001 -2.796,4.419 -2.1315,2.379 -2.2035,7.929 z"
     id="path420"
     style="stroke-width:1.5" />
  <path
     fill="#badbf8"
     d="m 92.79191,103.98374 6.495,0.051 c 0.201,4.224 1.4865,10.464 -1.521,13.7385 -7.8465,8.541 -18.4905,1.6305 -23.844,-5.7165 l 0.4905,-1.503 1.83,-0.204 c 5.8815,5.244 11.73,9.015 19.7385,6.675 l 0.9795,-2.103 c -0.546,-5.2635 -1.506,-6.42 -4.1685,-10.938 z"
     id="path421"
     style="stroke-width:1.5" />
  <path
     fill="#203551"
     d="m 93.38591,93.446239 1.8945,-0.1515 c 2.0805,2.8515 4.263,7.117501 4.0065,10.740001 l -6.495,-0.051 -1.5555,0.4845 c -1.2555,-3.2445 -1.0275,-1.929 0.015,-5.772001 z"
     id="path422"
     style="stroke-width:1.5" />
</svg>
