<?xml version="1.0" encoding="UTF-8" standalone="no"?>
<svg
   width="187"
   height="195"
   viewBox="0 0 187 195"
   version="1.1"
   id="svg98"
   sodipodi:docname="crane_up.svg"
   inkscape:version="1.4.4 (dcaf3e7d9e, 2026-05-05)"
   xmlns:inkscape="http://www.inkscape.org/namespaces/inkscape"
   xmlns:sodipodi="http://sodipodi.sourceforge.net/DTD/sodipodi-0.dtd"
   xmlns="http://www.w3.org/2000/svg"
   xmlns:svg="http://www.w3.org/2000/svg">
  <defs
     id="defs98">
    <linearGradient
       id="gradient_1"
       gradientUnits="userSpaceOnUse"
       x1="963.74487"
       y1="1051.7085"
       x2="872.21051"
       y2="934.47986"
       gradientTransform="matrix(1.5,0,0,1.5,-1282.936,-1392.0953)">
      <stop
         offset="0"
         stop-color="#28456C"
         id="stop16" />
      <stop
         offset="1"
         stop-color="#41699E"
         id="stop17" />
    </linearGradient>
  </defs>
  <sodipodi:namedview
     id="namedview98"
     pagecolor="#ffffff"
     bordercolor="#000000"
     borderopacity="0.25"
     inkscape:showpageshadow="2"
     inkscape:pageopacity="0.0"
     inkscape:pagecheckerboard="0"
     inkscape:deskcolor="#d1d1d1"
     inkscape:zoom="1.1077586"
     inkscape:cx="31.595331"
     inkscape:cy="266.3035"
     inkscape:window-width="1259"
     inkscape:window-height="1387"
     inkscape:window-x="12"
     inkscape:window-y="39"
     inkscape:window-maximized="1"
     inkscape:current-layer="svg98" />
  <path
     fill="#1b2f4a"
     d="m 41.657848,22.433302 c 4.7985,-0.255 9.957,-0.45 14.01,2.655 4.335,3.315 6.0525,10.26 10.4055,14.385 21.5295,20.4 44.916002,40.35 68.143502,58.785 5.6175,4.469998 12.4665,9.539998 15.8865,15.974998 9.09,17.1 9.402,43.125 12.6645,62.28 -20.1405,-1.11 -40.749,-0.3 -60.9375,-0.27 3.795,-14.58 5.1855,-30.435 7.8255,-45.345 l 0.159,-2.925 c -5.646,-11.295 -44.937002,-52.469998 -56.923502,-64.514998 l -1.7865,0.405 c -2.361,9.09 6.6855,15.12 10.512,22.59 1.5,2.925 2.5875,6.825 1.3455,10.02 -1.83,4.694998 -7.308,8.144998 -11.7195,10.139998 -2.9445,1.335 -5.982,1.575 -8.9805,0.3 -3.8055,-1.605 -8.874,-5.625 -10.287,-9.569998 -1.0425,-2.925 -0.333,-3.66 0.8805,-6.33 4.341,0.165 9.2205,9.299998 14.526,11.159998 3.6735,-0.645 4.698,-1.02 7.08,-4.169998 2.097,-2.79 3.3585,-6.405 2.9685,-9.855 -1.9695,-4.14 -8.2125,-6.12 -11.9385,-8.82 -2.0655,-6.96 -1.056,-15.765 -1.026,-23.025 -3.291,-1.62 -6.255,-3.39 -8.691,-6.18 -3.1245,-3.6 -4.998,-8.31 -4.4595,-13.095 0.7965,-7.065 5.0955,-10.56 10.3425,-14.595 z"
     id="path181"
     style="stroke-width:1.5" />
  <path
     fill="#badbf8"
     d="m 126.85935,111.9383 c 5.601,-0.375 11.151,-0.96 15.6795,3.03 11.9325,10.5 11.622,40.89 13.1565,55.74 l -17.5065,0.015 -29.4885,0.09 1.776,-13.2 c 2.205,-16.125 2.451,-35.1 16.383,-45.675 z"
     id="path182"
     style="stroke-width:1.5" />
  <path
     fill="#1b2f4a"
     d="m 130.10385,117.0533 c 5.6175,-1.515 11.421,1.725 13.0815,7.305 1.6605,5.58 -1.428,11.46 -6.96,13.26 -3.708,1.215 -7.7775,0.315 -10.632,-2.34 -2.8545,-2.655 -4.044,-6.66 -3.1065,-10.44 0.9375,-3.78 3.8535,-6.765 7.617,-7.785 z"
     id="path183"
     style="stroke-width:1.5" />
  <path
     fill="#badbf8"
     d="m 130.64835,122.1233 c 1.944,-0.81 4.1805,-0.48 5.8065,0.87 1.626,1.335 2.373,3.465 1.941,5.535 -0.4335,2.055 -1.974,3.72 -4.002,4.29 -2.886,0.825 -5.913,-0.75 -6.9045,-3.585 -0.993,-2.835 0.393,-5.94 3.159,-7.11 z"
     id="path184"
     style="stroke-width:1.5" />
  <path
     fill="#375d8e"
     d="m 43.660348,28.673302 c 5.3205,-1.8 11.124,0.885 13.1865,6.105 2.0625,5.235 -0.3405,11.16 -5.4615,13.47 -3.5415,1.605 -7.674,1.125 -10.7535,-1.245 -3.0795,-2.37 -4.6065,-6.24 -3.9735,-10.065 0.633,-3.84 3.324,-7.005 7.002,-8.265 z"
     id="path185"
     style="stroke-width:1.5" />
  <path
     fill="#1b2f4a"
     d="m 44.627848,33.968302 c 2.4525,-1.2 5.4105,-0.195 6.6285,2.25 1.2195,2.43 0.246,5.4 -2.184,6.645 -2.46,1.26 -5.4765,0.27 -6.7125,-2.205 -1.2345,-2.475 -0.216,-5.475 2.268,-6.69 z"
     id="path186"
     style="stroke-width:1.5" />
  <path
     fill="#375d8e"
     d="m 112.61985,89.468302 c 3.84,1.305 13.0875,7.785 15.1845,11.264998 1.401,2.34 1.5135,2.82 0.7575,5.355 l -6.0825,2.43 c -2.8365,2.175 -5.436,4.29 -8.757,5.715 -3.216,-3.555 -1.188,-19.034998 -1.1025,-24.764998 z"
     id="path187"
     style="stroke-width:1.5" />
  <path
     fill="#335584"
     d="m 106.86735,89.468302 c 0.6495,0.72 0.984,1.26 1.1205,2.235 0.729,5.175 2.277,13.634998 -0.9315,18.059998 l -2.322,0.3 -5.001002,-4.95 c -3.0915,-3.315 -5.913,-7.019998 -8.8305,-10.499998 z"
     id="path188"
     style="stroke-width:1.5" />
  <path
     fill="#375d8e"
     d="m 89.920348,68.603302 c 4.824,2.565 13.033502,9.885 15.657002,14.64 l -1.4025,1.695 -14.185502,4.305 z"
     id="path189"
     style="stroke-width:1.5" />
  <path
     fill="#375d8e"
     d="m 82.478848,67.883302 c 1.023,0.135 1.8195,0.81 2.691,1.35 0.9105,5.61 2.1495,12.42 -0.504,17.715 l -2.5755,-1.605 c -3.267,-3.45 -8.5905,-7.86 -9.492,-12.585 2.8035,-3.375 5.739,-3.585 9.8805,-4.875 z"
     id="path190"
     style="stroke-width:1.5" />
  <path
     fill="#375d8e"
     d="m 68.158348,49.628302 c 4.6155,2.61 8.895,6.21 12.447,10.125 1.233,1.365 0.804,1.665 0.726,3.42 -3.8085,1.425 -7.449,3.405 -11.526,2.235 -2.7735,-3.81 -1.7205,-11.1 -1.647,-15.78 z"
     id="path191"
     style="stroke-width:1.5" />
  <path
     fill="#375d8e"
     d="m 61.549348,46.283302 c 0.3435,0.45 0.948,1.17 1.2,1.74 1.566,3.555 1.17,11.145 -0.09,14.85 l -1.821,-0.735 -5.52,-5.685 c -0.2565,-4.485 3.3495,-6.87 6.231,-10.17 z"
     id="path192"
     style="stroke-width:1.5" />
  <path
     fill="#1b2f4a"
     d="m 45.437848,111.3383 c 3.252,0.93 5.5305,2.445 8.211,4.455 7.341,5.52 15.045,12.375 16.212,22.035 0.168,1.395 -0.6525,1.83 -1.4655,2.895 -0.4545,-0.03 -0.9105,-0.045 -1.362,-0.105 -6.207,-0.84 -12.183,-10.47 -15.837,-15.15 0.696,15.48 1.896,31.665 -0.444,47.025 -3.396,0.525 -3.567,0.66 -6.4605,-1.125 -6.048,-8.865 -2.4,-33.06 -2.064,-43.725 -3.7995,4.17 -8.1555,9.75 -13.0605,12.63 -2.2965,1.335 -4.1265,2.58 -6.7515,1.875 -0.003,-0.465 -0.027,-0.915 -0.0075,-1.38 0.4455,-10.35 16.164,-22.965 23.0295,-29.43 z"
     id="path193"
     style="stroke-width:1.5" />
</svg>
