<?xml version="1.0" encoding="UTF-8" standalone="no"?>
<svg
   width="187"
   height="195"
   viewBox="0 0 187 195"
   version="1.1"
   id="svg98"
   sodipodi:docname="crane_right.svg"
   inkscape:version="1.4.4 (dcaf3e7d9e, 2026-05-05)"
   xmlns:inkscape="http://www.inkscape.org/namespaces/inkscape"
   xmlns:sodipodi="http://sodipodi.sourceforge.net/DTD/sodipodi-0.dtd"
   xmlns="http://www.w3.org/2000/svg"
   xmlns:svg="http://www.w3.org/2000/svg">
  <defs
     id="defs98">
    <linearGradient
       id="gradient_1"
       gradientUnits="userSpaceOnUse"
       x1="963.74487"
       y1="1051.7085"
       x2="872.21051"
       y2="934.47986"
       gradientTransform="matrix(1.5,0,0,1.5,-1282.936,-1392.0953)">
      <stop
         offset="0"
         stop-color="#28456C"
         id="stop16" />
      <stop
         offset="1"
         stop-color="#41699E"
         id="stop17" />
    </linearGradient>
  </defs>
  <sodipodi:namedview
     id="namedview98"
     pagecolor="#ffffff"
     bordercolor="#000000"
     borderopacity="0.25"
     inkscape:showpageshadow="2"
     inkscape:pageopacity="0.0"
     inkscape:pagecheckerboard="0"
     inkscape:deskcolor="#d1d1d1"
     inkscape:zoom="1.1077586"
     inkscape:cx="31.595331"
     inkscape:cy="266.3035"
     inkscape:window-width="1259"
     inkscape:window-height="1387"
     inkscape:window-x="12"
     inkscape:window-y="39"
     inkscape:window-maximized="1"
     inkscape:current-layer="svg98" />
  <path
     fill="#1b2f4a"
     d="m 37.498277,16.814823 c 5.4105,-0.36 11.583,-0.51 15.9435,3.27 3.2655,2.835 3.7695,7.98 6.336,11.415 3.4275,4.59 8.895,8.61 13.209,12.36 16.5045,14.37 64.873503,51.69 72.121503,69.359997 7.14,17.4 8.0895,39.69 10.311,58.395 -19.8855,0.765 -39.855,0.33 -59.754003,0.24 2.2215,-14.655 4.645503,-29.28 7.275003,-43.86 l 0.654,-3.615 c -1.9215,-7.89 -46.345503,-60.374997 -54.570003,-65.489997 l -1.602,1.065 c -0.69,12.75 11.553,14.43 13.311,25.2 0.5235,3.225 -0.741,6.36 -2.523,8.985 -2.9385,4.32 -6.3975,7.469997 -11.802,8.174997 -4.4085,0.54 -8.8485,-0.75 -12.2775,-3.569997 -3.3195,-2.79 -4.128,-5.835 -4.5945,-9.99 l 1.176,-1.065 c 5.34,3.36 11.007,8.415 17.3895,9.075 2.6535,-1.275 3.3825,-1.41 4.4655,-4.35 1.428,-3.885 1.1895,-8.865 -0.6345,-12.525 -2.1645,-1.335 -4.5375,-2.7 -6.3465,-4.5 -5.9655,-5.925 -4.431,-16.035 -4.257,-23.73 -2.988,-1.725 -5.841,-3.78 -8.193,-6.33 -3.2505,-3.51 -5.6265,-8.835 -5.301,-13.65 0.456,-6.78 4.821,-10.815 9.663,-14.865 z"
     id="path113"
     style="stroke-width:1.5" />
  <path
     fill="#badbf8"
     d="m 121.73078,106.31982 c 4.935,-0.225 9.711,-0.42 13.683,3 12.0525,10.365 11.844,41.73 13.4595,56.79 l -17.064,0.12 -29.4,-0.015 c 1.5135,-12.015 2.577,-24.435 5.103,-36.285 2.307,-10.83 4.788,-17.475 14.2185,-23.61 z"
     id="path114"
     style="stroke-width:1.5" />
  <path
     fill="#203551"
     d="m 121.69328,112.67982 c 3.48,-1.665 7.5855,-1.335 10.7505,0.87 3.165,2.205 4.902,5.94 4.548,9.78 -0.354,3.84 -2.745,7.2 -6.261,8.79 -5.352,2.415 -11.6535,0.075 -14.13,-5.25 -2.4765,-5.34 -0.2055,-11.655 5.0925,-14.19 z"
     id="path115"
     style="stroke-width:1.5" />
  <path
     fill="#badbf8"
     d="m 124.65428,116.68482 c 2.9655,-0.765 5.997,0.99 6.8175,3.93 0.8205,2.955 -0.8715,6.015 -3.8055,6.9 -1.9485,0.585 -4.0605,0.06 -5.5215,-1.35 -1.4595,-1.41 -2.043,-3.51 -1.5225,-5.475 0.5205,-1.965 2.0625,-3.495 4.032,-4.005 z"
     id="path116"
     style="stroke-width:1.5" />
  <path
     fill="#375d8e"
     d="m 40.021277,23.024823 c 3.7095,-1.32 7.8465,-0.495 10.761,2.16 2.9145,2.64 4.134,6.69 3.1725,10.5 -0.9615,3.825 -3.948,6.81 -7.77,7.755 -5.5215,1.38 -11.151,-1.815 -12.7965,-7.275 -1.6455,-5.445 1.2735,-11.22 6.633,-13.14 z"
     id="path117"
     style="stroke-width:1.5" />
  <path
     fill="#1b2f4a"
     d="m 42.241277,28.469823 c 2.3895,-0.78 4.9785,0.405 5.9685,2.715 0.99,2.31 0.0525,4.995 -2.1585,6.18 -1.6185,0.87 -3.591,0.75 -5.0955,-0.3 -1.503,-1.05 -2.2815,-2.88 -2.0085,-4.695 0.2715,-1.815 1.5465,-3.33 3.294,-3.9 z"
     id="path118"
     style="stroke-width:1.5" />
  <path
     fill="#335584"
     d="m 107.34128,83.189823 c 3.7155,1.8 12.228,8.445 14.307,12 1.413,2.415 1.599,2.82 0.837,5.444997 l -5.988,2.04 c -3.4155,1.995 -6.4995,5.355 -9.456,8.01 z"
     id="path119"
     style="stroke-width:1.5" />
  <path
     fill="#375d8e"
     d="m 101.49578,83.714823 c 0.2265,0.3 0.4665,0.6 0.678,0.915 2.274,3.315 1.299,15.944997 0.399,19.754997 -0.3225,1.365 -0.891,1.305 -2.025,1.995 l -3.588003,-3.66 c -4.0605,-4.259997 -7.8435,-8.819997 -11.694,-13.274997 z"
     id="path120"
     style="stroke-width:1.5" />
  <path
     fill="#335584"
     d="m 85.351277,63.149823 c 5.511,3.465 11.9055,8.985 15.711003,14.235 l -1.017,2.085 -14.998503,5.22 z"
     id="path121"
     style="stroke-width:1.5" />
  <path
     fill="#375d8e"
     d="m 79.025777,62.399823 1.239,1.83 c 0.4305,5.37 0.7755,10.17 -0.321,15.465 l -1.578,0.75 -2.523,-3.045 c -2.8665,-2.97 -6.489,-5.88 -7.407,-10.035 3.0645,-3.3 6.333,-3.63 10.59,-4.965 z"
     id="path122"
     style="stroke-width:1.5" />
  <path
     fill="#375d8e"
     d="m 64.694777,45.434823 c 1.3425,0.6 2.532,1.29 3.7485,2.13 3.2115,2.175 8.853,6.675 9.498,10.59 -3.696,1.185 -7.2105,2.835 -11.0535,1.605 -2.859,-3.705 -2.1285,-9.75 -2.193,-14.325 z"
     id="path123"
     style="stroke-width:1.5" />
  <path
     fill="#375d8e"
     d="m 57.968777,40.604823 2.058,1.62 c 0.654,5.37 0.7275,9.87 -0.099,15.24 l -1.845,0.375 c -2.262,-2.355 -4.26,-4.71 -6.1725,-7.335 0.549,-4.68 3.0285,-6.39 6.0585,-9.9 z"
     id="path124"
     style="stroke-width:1.5" />
</svg>
