<?xml version="1.0" encoding="UTF-8" standalone="no"?>
<svg
   width="187"
   height="195"
   viewBox="0 0 187 195"
   version="1.1"
   id="svg98"
   sodipodi:docname="crane_down.svg"
   inkscape:version="1.4.4 (dcaf3e7d9e, 2026-05-05)"
   xmlns:inkscape="http://www.inkscape.org/namespaces/inkscape"
   xmlns:sodipodi="http://sodipodi.sourceforge.net/DTD/sodipodi-0.dtd"
   xmlns="http://www.w3.org/2000/svg"
   xmlns:svg="http://www.w3.org/2000/svg">
  <defs
     id="defs98">
    <linearGradient
       id="gradient_1"
       gradientUnits="userSpaceOnUse"
       x1="963.74487"
       y1="1051.7085"
       x2="872.21051"
       y2="934.47986"
       gradientTransform="matrix(1.5,0,0,1.5,-1282.936,-1392.0953)">
      <stop
         offset="0"
         stop-color="#28456C"
         id="stop16" />
      <stop
         offset="1"
         stop-color="#41699E"
         id="stop17" />
    </linearGradient>
  </defs>
  <sodipodi:namedview
     id="namedview98"
     pagecolor="#ffffff"
     bordercolor="#000000"
     borderopacity="0.25"
     inkscape:showpageshadow="2"
     inkscape:pageopacity="0.0"
     inkscape:pagecheckerboard="0"
     inkscape:deskcolor="#d1d1d1"
     inkscape:zoom="1.1077586"
     inkscape:cx="31.595331"
     inkscape:cy="266.3035"
     inkscape:window-width="1259"
     inkscape:window-height="1387"
     inkscape:window-x="12"
     inkscape:window-y="39"
     inkscape:window-maximized="1"
     inkscape:current-layer="svg98" />
  <path
     fill="#1b2f4a"
     d="m 45.135791,20.140078 c 3.4635,0.03 7.9095,0.09 11.058,1.665 5.733,2.85 7.5165,8.91 9.6585,14.475 14.424,9.945 27.153,22.605 40.150499,34.29 l 46.5915,41.310002 c 7.5105,19.17 8.655,43.98 11.6115,64.485 -20.4345,-0.51 -40.8585,0.24 -61.287,-0.615 l 7.29,-47.22 0.3195,-1.71 c -6.111,-11.73 -44.411999,-54.990002 -55.309499,-64.560002 l -2.562,0.87 0.7245,-1.74 -0.741,0.69 c 1.011,11.07 11.0595,19.62 12.9015,29.865 0.462,2.565 -1.356,6.165 -2.982,8.145002 -3.0915,3.765 -8.0025,5.97 -12.8175,6.225 -4.3365,0.24 -9.0345,-1.08 -12.2205,-4.14 -2.7105,-2.595002 -3.321,-5.460002 -3.564,-9.060002 2.3235,-1.2 11.988,6.57 15.8415,7.605002 3.726,-0.54 4.9155,-1.080002 7.566,-3.870002 2.604,-2.745 2.8815,-4.98 2.754,-8.46 -2.3055,-4.665 -8.1945,-7.47 -12.399,-10.365 -2.2545,-7.14 -1.842,-15.03 -1.9935,-22.455 -3.5265,-2.34 -6.855,-4.56 -9.138,-8.22 -2.5815,-4.14 -4.2105,-9.615 -2.9565,-14.43 1.6755,-6.42 6.1935,-9.57 11.5035,-12.78 z"
     id="path36"
     style="stroke-width:1.5" />
  <path
     fill="#badbf8"
     d="m 128.01979,110.96508 c 4.905,-0.375 11.25,-0.81 15.3225,2.37 12.621,9.87 12.231,41.73 13.9035,56.625 l -15.36,-0.06 h -32.508 c 3.4125,-19.56 1.7595,-45.69 18.642,-58.935 z"
     id="path37"
     style="stroke-width:1.5" />
  <path
     fill="#203551"
     d="m 131.13979,115.88508 c 5.763,-1.455 11.616,1.995 13.1475,7.74 1.533,5.745 -1.8225,11.655 -7.536,13.275 -3.777,1.08 -7.8405,0.03 -10.6305,-2.745 -2.7885,-2.76 -3.8715,-6.81 -2.832,-10.605 1.0395,-3.78 4.041,-6.72 7.851,-7.665 z"
     id="path38"
     style="stroke-width:1.5" />
  <path
     fill="#badbf8"
     d="m 131.80279,121.04508 c 1.935,-0.69 4.0875,-0.27 5.634,1.08 1.545,1.35 2.2455,3.42 1.8315,5.43 -0.414,2.01 -1.878,3.645 -3.831,4.275 -2.964,0.96 -6.1455,-0.645 -7.14,-3.6 -0.9945,-2.955 0.567,-6.15 3.5055,-7.185 z"
     id="path39"
     style="stroke-width:1.5" />
  <path
     fill="#375d8e"
     d="m 47.358791,26.335078 c 5.5815,-0.9 10.923,2.625 12.294,8.115 1.371,5.475 -1.6845,11.1 -7.032,12.93 -3.8895,1.335 -8.1975,0.36 -11.1375,-2.505 -2.94,-2.88 -4.011,-7.155 -2.769,-11.085 1.242,-3.915 4.587,-6.795 8.6445,-7.455 z"
     id="path40"
     style="stroke-width:1.5" />
  <path
     fill="#1b2f4a"
     d="m 46.658291,32.665078 c 1.6665,-0.93 3.717,-0.81 5.271,0.285 1.554,1.11 2.337,3 2.0115,4.89 -0.3255,1.875 -1.701,3.405 -3.537,3.915 -2.418,0.675 -4.962,-0.555 -5.919,-2.88 -0.957,-2.325 -0.0225,-4.995 2.1735,-6.21 z"
     id="path41"
     style="stroke-width:1.5" />
  <path
     fill="#335584"
     d="m 114.03829,87.445078 c 4.6185,3.255 13.1985,8.325 15.4605,13.395002 0.7965,1.785 0.441,2.055 -0.207,3.87 l -6.36,1.95 c -3.33,2.22 -6.438,5.97 -9.3075,8.805 -0.1215,-9.36 0.0795,-18.660002 0.414,-28.020002 z"
     id="path42"
     style="stroke-width:1.5" />
  <path
     fill="#335584"
     d="m 106.76329,88.195078 1.3005,0.24 c 2.226,3.255 2.5635,13.290002 2.0535,17.400002 -0.342,2.76 -0.2175,3.33 -2.3895,4.995 l -3.9465,-3.33 c -3.486,-5.01 -7.741499,-9.450002 -11.839499,-13.965002 z"
     id="path43"
     style="stroke-width:1.5" />
  <path
     fill="#375d8e"
     d="m 91.137791,67.315078 c 5.163,1.965 12.517499,9.15 15.728999,13.59 l -0.822,1.905 -15.236999,5.31 z"
     id="path44"
     style="stroke-width:1.5" />
  <path
     fill="#335584"
     d="m 84.282791,66.925078 2.169,1.23 c 0.792,5.235 2.106,11.955 -0.7335,16.605 l -2.6025,-1.92 c -3.15,-3.45 -6.72,-6.705 -8.349,-11.16 2.3685,-3.48 5.592,-3.57 9.516,-4.755 z"
     id="path45"
     style="stroke-width:1.5" />
  <path
     fill="#375d8e"
     d="m 64.715291,43.675078 1.3785,1.695 c 1.0995,5.355 1.9335,12.69 -0.1425,17.835 l -2.2035,-1.305 c -2.5455,-2.4 -4.6935,-4.53 -6.5115,-7.575 0.9585,-4.83 4.1745,-7.08 7.479,-10.65 z"
     id="path46"
     style="stroke-width:1.5" />
  <path
     fill="#375d8e"
     d="m 70.955291,48.760078 c 0.4725,0.24 1.305,0.66 1.788,0.975 3.396,2.28 9.726,7.83 10.632,11.55 -4.074,1.185 -7.002,2.775 -11.166,1.62 -2.316,-3.78 -1.374,-9.78 -1.254,-14.145 z"
     id="path47"
     style="stroke-width:1.5" />
  <path
     fill="#1b2f4a"
     d="m 47.012291,108.38508 c 1.7445,0.345 3.1605,1.215 4.6995,2.055 6.903,9.84 3.3075,34.095 2.9925,46.32 5.0865,-4.725 11.3085,-12.27 18.5655,-12.255 l 0.75,2.325 c -4.545,10.83 -12.5985,16.935 -21.2085,24.525 -1.107,0.255 -1.8165,0.645 -2.9145,0.255 -8.739,-3.06 -18.282,-12.555 -22.1955,-20.88 -1.3755,-2.925 -1.935,-4.815 -0.909,-7.935 0.321,0 0.6435,-0.06 0.963,-0.03 6.384,0.675 13.3125,9.555 17.526,14.025 -0.5205,-16.23 -1.728,-32.4 1.731,-48.405 z"
     id="path48"
     style="stroke-width:1.5" />
</svg>
