<?xml version="1.0" encoding="UTF-8" standalone="no"?>
<svg
   width="187"
   height="195"
   viewBox="0 0 187 195"
   version="1.1"
   id="svg98"
   sodipodi:docname="crane_left.svg"
   inkscape:version="1.4.4 (dcaf3e7d9e, 2026-05-05)"
   xmlns:inkscape="http://www.inkscape.org/namespaces/inkscape"
   xmlns:sodipodi="http://sodipodi.sourceforge.net/DTD/sodipodi-0.dtd"
   xmlns="http://www.w3.org/2000/svg"
   xmlns:svg="http://www.w3.org/2000/svg">
  <defs
     id="defs98">
    <linearGradient
       id="gradient_1"
       gradientUnits="userSpaceOnUse"
       x1="963.74487"
       y1="1051.7085"
       x2="872.21051"
       y2="934.47986"
       gradientTransform="matrix(1.5,0,0,1.5,-1282.936,-1392.0953)">
      <stop
         offset="0"
         stop-color="#28456C"
         id="stop16" />
      <stop
         offset="1"
         stop-color="#41699E"
         id="stop17" />
    </linearGradient>
  </defs>
  <sodipodi:namedview
     id="namedview98"
     pagecolor="#ffffff"
     bordercolor="#000000"
     borderopacity="0.25"
     inkscape:showpageshadow="2"
     inkscape:pageopacity="0.0"
     inkscape:pagecheckerboard="0"
     inkscape:deskcolor="#d1d1d1"
     inkscape:zoom="1.1077586"
     inkscape:cx="31.595331"
     inkscape:cy="266.3035"
     inkscape:window-width="1259"
     inkscape:window-height="1387"
     inkscape:window-x="12"
     inkscape:window-y="39"
     inkscape:window-maximized="1"
     inkscape:current-layer="svg98" />
  <path
     fill="#1b2f4a"
     d="m 42.88772,18.235405 c 4.86,-0.24 9.912,-0.345 14.025,2.76 4.527,3.42 5.766,10.65 10.2735,14.895 22.617,21.255 47.637,40.71 71.0565,61.155 4.2675,3.734995 9.7005,7.844995 12.63,12.704995 9.357,15.51 11.1705,46.05 12.3885,64.245 -20.2245,-0.48 -40.4595,0.09 -60.69,-0.09 3.873,-15.825 5.7105,-32.55 9.108,-48.57 -0.291,-0.855 -49.356,-57.689995 -53.3865,-61.904995 -2.475,-2.58 -3.648,-2.955 -7.0425,-2.94 -6.066,9.225 14.541,18.96 13.3545,31.005 -0.378,3.855 -3.0075,6.885 -6.0285,9.074995 -4.212,3.075 -9.804,5.985 -15.1515,4.77 -3.483,-0.795 -6.303,-3.21 -8.166,-6.179995 -2.043,-3.255 -2.7855,-6.33 -1.911,-10.065 l 1.932,-0.09 c 1.44,2.295 2.9265,5.115 4.7565,7.095 2.211,2.4 4.7805,3.195 8.013,3.12 2.547,-0.045 5.1465,-1.65 6.7575,-3.54 2.601,-3.075 3.444,-7.455 3.1485,-11.34 -3.078,-4.395 -7.5945,-4.605 -11.736,-7.89 -2.37,-6.615 -1.3155,-15.585 -1.3185,-22.605 -3.7035,-2.28 -7.2435,-4.455 -9.849,-8.025 -2.901,-3.96 -4.6845,-9.06 -3.6435,-13.965 1.4595,-6.885 5.9865,-10.065 11.4795,-13.62 z"
     id="path4"
     style="stroke-width:1.5" />
  <path
     fill="#badbf8"
     d="m 127.27172,109.3454 c 5.478,-0.405 11.6085,-1.29 16.131,2.565 12.4095,10.59 12.2505,40.95 14.064,56.28 l -14.8575,0.165 -33.1395,-0.015 c 3.471,-19.08 1.5195,-45.945 17.802,-58.995 z"
     id="path5"
     style="stroke-width:1.5" />
  <path
     fill="#203551"
     d="m 130.96022,114.3254 c 5.793,-1.605 11.799,1.77 13.419,7.56 1.62,5.805 -1.758,11.805 -7.548,13.44 -5.796,1.62 -11.814,-1.77 -13.4355,-7.56 -1.623,-5.805 1.7655,-11.82 7.5645,-13.44 z"
     id="path6"
     style="stroke-width:1.5" />
  <path
     fill="#badbf8"
     d="m 131.44022,119.4404 c 2.835,-1.185 6.0975,0.06 7.416,2.835 1.317,2.775 0.228,6.105 -2.4795,7.56 -1.872,1.005 -4.146,0.885 -5.916,-0.285 -1.7685,-1.185 -2.745,-3.24 -2.541,-5.355 0.204,-2.115 1.557,-3.945 3.5205,-4.755 z"
     id="path7"
     style="stroke-width:1.5" />
  <path
     fill="#375d8e"
     d="m 45.08972,24.475405 c 3.909,-0.81 7.947,0.585 10.5345,3.615 2.586,3.045 3.312,7.245 1.89,10.98 -1.422,3.735 -4.7625,6.39 -8.7165,6.93 -5.8365,0.81 -11.262,-3.165 -12.2625,-8.97 -1.0005,-5.805 2.784,-11.355 8.5545,-12.555 z"
     id="path8"
     style="stroke-width:1.5" />
  <path
     fill="#1b2f4a"
     d="m 45.69872,29.980405 c 1.755,-0.57 3.6885,-0.165 5.058,1.08 1.3695,1.23 1.9635,3.12 1.554,4.92 -0.4095,1.815 -1.7595,3.255 -3.531,3.78 -2.6835,0.81 -5.5125,-0.705 -6.354,-3.375 -0.8415,-2.67 0.615,-5.52 3.273,-6.405 z"
     id="path9"
     style="stroke-width:1.5" />
  <path
     fill="#335584"
     d="m 115.04972,86.035405 c 4.92,2.97 12.9645,8.88 15.495,14.054995 0.5625,1.14 -0.048,1.71 -0.483,2.835 l -5.565,1.89 c -4.0005,2.1 -7.248,5.25 -10.6155,8.22 0.7545,-8.955 0.8415,-18.029995 1.1685,-26.999995 z"
     id="path10"
     style="stroke-width:1.5" />
  <path
     fill="#335584"
     d="m 106.29722,86.545405 c 1.9395,0.3 1.7235,0.615 2.904,2.055 0.4485,5.175 1.485,11.28 0.4545,16.364995 -0.435,2.16 -0.5205,2.085 -2.3025,3.3 l -3.6285,-3.075 -12.315,-13.559995 z"
     id="path11"
     style="stroke-width:1.5" />
  <path
     fill="#335584"
     d="m 91.81172,64.750405 c 5.1735,3.87 12.8715,8.88 15.6465,14.745 l -1.923,1.74 -14.16,5.085 c -0.162,-7.185 0.192,-14.385 0.4365,-21.57 z"
     id="path12"
     style="stroke-width:1.5" />
  <path
     fill="#375d8e"
     d="m 82.01972,64.945405 c 1.6515,-0.03 2.6775,0.585 4.1265,1.305 1.4055,6.06 2.0145,11.91 -0.084,17.91 l -2.115,-0.945 c -3.4365,-4.155 -8.628,-7.875 -10.2285,-13.11 1.971,-3.57 4.611,-3.735 8.301,-5.16 z"
     id="path13"
     style="stroke-width:1.5" />
  <path
     fill="#476fa3"
     d="m 68.93372,45.610405 c 4.782,2.505 12.345,8.34 15.048,12.96 l -1.5345,1.575 -13.524,3.885 c -0.1425,-6.135 -0.0225,-12.285 0.0105,-18.42 z"
     id="path14"
     style="stroke-width:1.5" />
  <path
     fill="#375d8e"
     d="m 62.23922,42.025405 c 1.002,0.93 0.81,0.6 1.467,1.92 1.7655,3.54 1.263,11.88 -0.0405,15.645 l -2.2125,-0.48 c -2.007,-2.16 -3.7215,-4.38 -5.4465,-6.765 0.3645,-4.455 3.4605,-6.9 6.2325,-10.32 z"
     id="path15"
     style="stroke-width:1.5" />
  <path
     fill="#1b2f4a"
     d="m 40.17422,112.5854 c 2.826,0.12 3.723,0.375 5.9565,2.115 l 0.2775,3 c -2.817,6.555 -9.0795,11.955 -13.9425,17.07 11.385,-0.255 23.1195,-1.95 34.458,-0.42 4.764,0.645 10.2495,1.455 13.2375,5.43 l -1.587,1.905 c -12.9075,5.325 -27.843,2.715 -41.4225,1.92 l -3.69,0.795 c 1.4535,6.465 11.0355,10.395 13.401,17.475 -1.0035,2.91 -1.3425,2.73 -3.939,4.11 -9.8115,-5.25 -19.689,-16.965 -26.628,-25.71 5.442,-10.635 15.4815,-19.395 23.8785,-27.69 z"
     id="path16"
     style="stroke-width:1.5" />
</svg>
