<?xml version="1.0" encoding="UTF-8" standalone="no"?>
<svg
   width="187"
   height="195"
   viewBox="0 0 187 195"
   version="1.1"
   id="svg98"
   sodipodi:docname="danger.svg"
   inkscape:version="1.4.4 (dcaf3e7d9e, 2026-05-05)"
   xmlns:inkscape="http://www.inkscape.org/namespaces/inkscape"
   xmlns:sodipodi="http://sodipodi.sourceforge.net/DTD/sodipodi-0.dtd"
   xmlns="http://www.w3.org/2000/svg"
   xmlns:svg="http://www.w3.org/2000/svg">
  <defs
     id="defs98">
    <linearGradient
       id="gradient_1"
       gradientUnits="userSpaceOnUse"
       x1="963.74487"
       y1="1051.7085"
       x2="872.21051"
       y2="934.47986"
       gradientTransform="matrix(1.5,0,0,1.5,-1282.936,-1392.0953)">
      <stop
         offset="0"
         stop-color="#28456C"
         id="stop16" />
      <stop
         offset="1"
         stop-color="#41699E"
         id="stop17" />
    </linearGradient>
  </defs>
  <sodipodi:namedview
     id="namedview98"
     pagecolor="#ffffff"
     bordercolor="#000000"
     borderopacity="0.25"
     inkscape:showpageshadow="2"
     inkscape:pageopacity="0.0"
     inkscape:pagecheckerboard="0"
     inkscape:deskcolor="#d1d1d1"
     inkscape:zoom="1.1077586"
     inkscape:cx="31.595331"
     inkscape:cy="266.3035"
     inkscape:window-width="1259"
     inkscape:window-height="1387"
     inkscape:window-x="12"
     inkscape:window-y="39"
     inkscape:window-maximized="1"
     inkscape:current-layer="svg98" />
  <path
     fill="#1b2f4a"
     d="m 93.069638,30.821012 c 0.9615,0.39 2.778,0.855 3.5505,1.455 6.195002,4.83 60.934502,104.324998 71.814002,121.214998 -21.8535,-0.81 -43.7565,-0.18 -65.625,-0.42 -26.757002,0.015 -53.505002,0.495 -80.260502,-0.06 6.948,-16.05 17.223,-31.5 26.088,-46.575 z"
     id="path241"
     style="stroke-width:1.5" />
  <path
     fill="#badbf8"
     d="m 94.515638,42.086012 c 7.846502,10.485 14.136002,23.325 20.799002,34.665 l 40.6395,68.939998 -59.490002,-0.075 c -20.88,-0.195 -41.799,0.18 -62.6835,0.285 18.324,-35.13 40.224,-69.884998 60.735,-103.814998 z"
     id="path242"
     style="stroke-width:1.5" />
  <path
     fill="#1b2f4a"
     d="m 89.718638,74.141012 c 2.973,0.69 5.4195,1.635 8.142,3.015 4.468502,2.28 1.44,11.88 3.016502,16.635 3.1695,0.495 5.748,0.93 8.619,2.4 1.488,2.61 1.74,4.634998 1.4445,7.604998 -1.3695,13.845 -8.658,29.325 -19.479002,37.92 -4.713,-4.02 -6.027,-10.215 -7.878,-15.87 2.25,-4.215 5.799,-9.435 5.385,-14.265 -3.381,-1.05 -6.759,-2.625 -9.426,-5.01 -2.283,-2.04 -3.285,-4.875 -3.348,-7.889998 -0.1515,-7.23 8.487,-19.575 13.524,-24.54 z"
     id="path243"
     style="stroke-width:1.5" />
  <path
     fill="#badbf8"
     d="m 90.858638,81.506012 c 8.0925,4.56 -1.293,11.04 2.286,16.86 1.635,2.654998 7.390502,1.395 9.961502,6.794998 0.2715,7.59 -5.604002,17.94 -9.177002,24.525 -1.221,-7.29 2.8575,-18.24 4.536,-25.485 l -16.317,-0.465 c 2.4855,-7.514998 5.763,-14.879998 8.7105,-22.229998 z"
     id="path244"
     style="stroke-width:1.5" />
</svg>
