<?xml version="1.0" encoding="UTF-8" standalone="no"?>
<svg
   width="1024"
   height="1024"
   viewBox="0 0 1024 1024"
   version="1.1"
   id="svg186"
   sodipodi:docname="dashboard_light.svg"
   inkscape:version="1.4.4 (dcaf3e7d9e, 2026-05-05)"
   xmlns:inkscape="http://www.inkscape.org/namespaces/inkscape"
   xmlns:sodipodi="http://sodipodi.sourceforge.net/DTD/sodipodi-0.dtd"
   xmlns="http://www.w3.org/2000/svg"
   xmlns:svg="http://www.w3.org/2000/svg">
  <sodipodi:namedview
     id="namedview186"
     pagecolor="#ffffff"
     bordercolor="#000000"
     borderopacity="0.25"
     inkscape:showpageshadow="2"
     inkscape:pageopacity="0.0"
     inkscape:pagecheckerboard="0"
     inkscape:deskcolor="#d1d1d1"
     inkscape:zoom="0.50195312"
     inkscape:cx="451.23735"
     inkscape:cy="480.12451"
     inkscape:window-width="1259"
     inkscape:window-height="1387"
     inkscape:window-x="12"
     inkscape:window-y="39"
     inkscape:window-maximized="1"
     inkscape:current-layer="svg186" />
  <path
     fill="#BBD9EC"
     d="M270.814 164.72C272.412 164.623 273.963 164.608 275.562 164.583C330.351 164.206 385.142 164.344 439.928 164.996C497.497 165.364 555.069 165.377 612.638 165.037L745.459 165.162C769.443 164.926 793.428 164.956 817.411 165.251C831.894 165.531 858.659 163.644 870.213 173.455C876.41 178.718 878.467 192.752 878.894 200.702C879.9 219.455 878.837 238.666 878.627 257.561C878.42 288.833 878.404 320.106 878.579 351.378L879.042 722.379C878.973 734.424 877.427 751.44 861.783 753.18C848.599 754.647 834.337 753.611 821.008 753.983C798.922 754.6 776.887 755.212 754.784 755.048L361.177 755.435C317.162 755.723 273.145 755.526 229.134 754.844C209.843 754.574 190.363 754.956 171.158 753.726C155.116 752.698 146.483 743.748 145.86 727.543C145.395 715.435 145.459 703.554 145.427 691.472L145.023 638.644L145.315 441.872L145.816 275.766L146.038 223.973C146.113 214.429 145.875 204.602 146.666 195.136C147.992 179.285 155.556 169.285 171.798 166.88C185.242 164.89 197.992 165.449 211.385 165.475C231.198 165.685 251.013 165.433 270.814 164.72Z"
     id="path3" />
  <path
     fill="#2A4664"
     d="M696.96 254.075C779.555 248.76 850.784 311.488 855.953 394.093C861.121 476.698 798.266 547.816 715.653 552.838C633.246 557.847 562.344 495.184 557.189 412.786C552.034 330.388 614.571 259.376 696.96 254.075Z"
     id="path4" />
  <path
     fill="#BBD9EC"
     d="M697.779 262.613C775.534 257.715 842.546 316.759 847.478 394.513C852.409 472.266 793.393 539.303 715.642 544.267C637.844 549.234 570.758 490.176 565.824 412.376C560.89 334.576 619.977 267.515 697.779 262.613Z"
     id="path5" />
  <path
     fill="#2A4664"
     d="M698.144 279.945C766.433 275.282 825.546 326.918 830.105 395.214C834.664 463.51 782.937 522.544 714.635 526.999C646.479 531.444 587.6 479.853 583.051 411.705C578.502 343.556 630.003 284.598 698.144 279.945Z"
     id="path6" />
  <path
     fill="#BBD9EC"
     d="M688.66 288.602C694.252 289.084 693.663 300.369 693.326 303.993C691.632 322.221 691.563 340.729 690.136 358.941C683.029 361.809 676.663 366.246 671.511 371.921C661.128 383.425 659.889 396.214 660.688 410.878C652.68 417.646 641.918 424.135 633.315 430.324C625.21 435.922 617.441 442.23 609.147 447.528C606.183 449.42 602.664 450.819 600.512 447.467C597.955 442.203 596.487 436.314 595.087 430.663C581.406 375.447 610.196 317.675 663.116 296.261C672.003 292.665 679.404 290.677 688.66 288.602Z"
     id="path7" />
  <path
     fill="#2A4664"
     d="M671.36 329.491C673.571 329.475 673.637 329.484 674.854 330.642C674.849 334.537 666.819 338.032 663.342 340.203C646.992 350.412 638.858 363.588 633.372 381.54C635.811 379.456 638.219 376.513 641.415 378.744L641.577 379.991C640.163 384.368 633.801 390.346 630.437 393.814C629.546 394.15 629.194 394.148 628.248 394.31C624.147 392.736 619.648 376.327 623.541 373.645C626.314 374.365 626.941 377.024 627.998 379.449C628.876 376.147 630.393 371.833 631.724 368.705C639.152 350.854 653.43 336.727 671.36 329.491Z"
     id="path8" />
  <path
     fill="#2A4664"
     d="M600.849 396.704C604.976 396.576 612.97 395.274 614.04 400.242C613.321 401.723 613.582 401.244 611.605 402.069C608.541 402.228 598.815 403.142 598.342 399.187C599.307 397.728 599.478 397.719 600.849 396.704Z"
     id="path9" />
  <path
     fill="#2A4664"
     d="M646.137 312.22C651.194 312.658 656.679 319.816 653.195 324.834C648.339 324.071 643.863 317.023 646.137 312.22Z"
     id="path10" />
  <path
     fill="#2A4664"
     d="M612.186 349.235C615.715 349.511 621.458 352.252 623.519 355.265C624.281 356.378 623.815 357.49 623.559 358.671C619.707 358.651 613.795 356.389 611.8 352.831C611.085 351.556 611.754 350.459 612.186 349.235Z"
     id="path11" />
  <path
     fill="#2A4664"
     d="M602.287 373.498C606.169 373.122 612.616 374.212 615.201 377.381C615.545 379.28 615.599 378.345 614.851 380.271C610.729 380.409 605.396 379.576 602.19 376.806C601.463 375.021 601.608 375.734 602.287 373.498Z"
     id="path12" />
  <path
     fill="#2A4664"
     d="M667.091 301.248C673.153 301.428 675.716 309.614 673.794 314.268C668.358 314.746 666.861 305.173 667.091 301.248Z"
     id="path13" />
  <path
     fill="#2A4664"
     d="M626.661 328.735C630.58 329.088 634.354 332.541 636.033 336.036C636.773 337.575 636.224 338.324 635.721 339.804C630.954 339.124 625.31 334.104 626.661 328.735Z"
     id="path14" />
  <path
     fill="#BBD9EC"
     d="M735.929 439.487C744.262 444.122 752.375 448.606 760.912 453.16C771.092 458.592 783.272 463.78 792.615 470.532C793.826 471.406 795.22 474.185 795.958 475.583C793.812 478.769 790.514 482.15 787.883 484.969C759.485 515.397 713.844 528.805 673.6 515.947C655.802 510.31 639.147 500.026 626.453 486.463C623.411 483.213 620.714 480.808 618.107 477.079C618.788 475.451 619.923 472.458 621.304 471.52C629.753 465.779 640.181 460.327 649.154 455.565C658.835 450.427 668.038 445.192 677.552 440.036C695.888 453.87 717.804 453.225 735.929 439.487Z"
     id="path15" />
  <path
     fill="#BBD9EC"
     d="M724.288 287.558C732.214 288.879 738.26 290.163 745.832 292.901C774.205 303.196 797.259 324.447 809.826 351.888C823.142 381.567 824.296 415.282 813.041 445.802C811.254 448.109 808.652 447.59 806.492 446.177C788.509 434.414 770.286 422.431 752.38 410.577C755.47 392.006 749.416 375.625 734.166 364.394C731.123 362.154 727.048 361.014 724.317 358.355C723.361 357.425 723.437 356.035 723.229 354.793C722.597 345.492 722.304 336.325 721.663 327C720.974 316.967 719.818 306.69 719.539 296.657C719.425 292.557 721.556 290.178 724.288 287.558Z"
     id="path16" />
  <path
     fill="#2A4664"
     d="M739.54 331.427C743.159 331.448 746.749 332.489 749.891 334.276C769.353 345.343 777.116 358.083 783.841 378.005C785.094 375.741 785.67 374.166 787.82 372.933C792.941 373.231 788.357 386.078 787.552 389.075C786.908 391.472 786.183 392.554 784.143 393.973C779.544 392.531 770.964 383.514 770.841 378.563C772.674 375.941 776.259 379.23 778.083 380.592C773.558 364.175 763.604 349.152 748.899 340.461C746.54 339.067 740.956 335.854 739.307 333.745C738.851 333.162 739.288 332.423 739.54 331.427Z"
     id="path17" />
  <path
     fill="#2A4664"
     d="M788.334 344.825C792.7 345.547 793.707 348.623 795.958 352.152C797.725 351.434 800.833 350.141 802.177 351.977C801.996 354.112 799.711 356.251 799.429 357.665C798.624 361.701 800.643 360.688 797.995 364.874C796.379 364.549 795.286 364.084 794.602 362.473C792.709 358.011 790.355 362.008 786.969 359.643L786.937 358.47C787.689 356.973 789.15 356.495 790.708 355.668C788.71 351.677 785.843 349.141 788.334 344.825Z"
     id="path18" />
  <path
     fill="#2A4664"
     d="M806.284 398.709C809.472 398.462 811.578 398.199 813.338 401.186C812.856 405.057 809.55 404.561 806.501 404.581C803.485 404.593 800.112 405.071 798.326 402.229C798.754 398.483 803.334 398.9 806.284 398.709Z"
     id="path19" />
  <path
     fill="#2A4664"
     d="M805.995 375.601C807.478 375.377 808.165 375.553 809.666 375.684L810.644 376.912C810.676 377.171 810.277 378.061 810.161 378.367C806.703 381.468 806.166 381.141 801.609 381.957C800.067 382.264 799.089 382.078 797.54 381.937L796.588 380.593C797.502 377.222 803.148 376.225 805.995 375.601Z"
     id="path20" />
  <path
     fill="#2A4664"
     d="M767.208 313.78C768.108 313.993 768.167 314.085 769.015 314.485C770.97 318.339 765.73 324.069 762.835 326.293C760.997 326.003 760.998 325.807 760.371 324.292C760.794 320.154 764.215 316.465 767.208 313.78Z"
     id="path21" />
  <path
     fill="#2A4664"
     d="M745.049 302.249C747.074 302.98 746.313 302.377 747.537 303.952C748.19 308.205 745.628 312.781 743.34 316.268C741.118 315.426 741.899 316.117 740.662 314.443C740.023 310.27 742.742 305.606 745.049 302.249Z"
     id="path22" />
  <path
     fill="#2A4664"
     d="M785.595 329.908C786.488 330.353 786.558 330.622 787.304 331.403C788.279 335.624 782.347 339.535 779.029 341.161C772.567 339.089 783.684 331.387 785.595 329.908Z"
     id="path23" />
  <path
     fill="#BBD9EC"
     d="M702.461 286.71C706.178 286.4 711.165 286.537 714.986 286.535C714.307 288.393 712.658 292.551 712.719 294.378C713.409 315.237 714.613 336.217 716.114 357.035C716.525 362.744 718.975 364.323 723.778 366.856C731.937 371.16 738.138 375.777 741.951 384.548C743.807 388.808 744.962 393.34 745.373 397.968C745.725 402.169 744.118 409.716 746.016 413.346C748.202 417.528 794.06 447.68 801.061 451.63C803.801 453.176 806.413 454.15 809.443 454.953C806.654 459.599 804.313 464.739 801.289 469.108C799.641 467.003 796.679 464.012 794.401 462.729C782.865 456.236 744.18 434.057 733.908 431.892C723.976 437.193 724.536 440.081 711.074 442.018C696.341 443.751 690.574 438.805 679.054 431.868C674.386 433.472 670.76 435.27 666.432 437.684C651.186 446.188 635.563 454.193 620.618 463.195C617.422 465.12 615.106 467.902 612.758 470.73C609.242 465.682 607.051 461.944 603.993 456.623C613.334 454.851 621.363 446.992 629.39 441.836C641.186 434.261 652.535 426.148 663.793 417.735C671.728 411.805 666.761 405.205 668.115 396.914C669.529 385.123 674.38 376.717 684.346 369.964C688.361 367.243 692.296 365.707 696.111 362.567C699.192 356.239 699.815 305.83 700.584 295.599C700.728 293.689 698.335 288.797 698.42 287.175L702.461 286.71Z"
     id="path24" />
  <path
     fill="#2A4664"
     d="M701.755 368.117C713.578 367.199 730.591 369.998 717.515 384.907C720.892 387.697 723.031 389.409 725.094 393.47C727.677 398.548 728.091 404.457 726.242 409.846C724.391 415.067 720.538 419.337 715.534 421.713C709.98 424.38 704.777 424.398 699.105 422.357C698.724 422.168 698.345 421.972 697.969 421.771C692.545 418.783 688.577 413.708 686.986 407.723C685.514 402.207 686.421 396.326 689.486 391.51C693.179 385.624 697.601 383.446 703.961 381.942L704.626 373.244C698.142 373.923 692.459 376.115 685.979 377.242C690.87 371.419 694.209 369.439 701.755 368.117Z"
     id="path25" />
  <path
     fill="#BBD9EC"
     d="M707.776 388.653C721.152 387.332 728.137 413.208 706.94 416.7C700.264 416.021 694.744 412.751 693.275 405.77C692.483 401.933 693.365 397.941 695.7 394.795C699.071 390.21 702.638 389.361 707.776 388.653Z"
     id="path26" />
  <path
     fill="#BBD9EC"
     d="M705.113 372.995C708.125 373.221 712.16 372.982 713.99 375.083C714.622 378.961 713.042 377.995 714.739 381.885L714.253 382.573C712.787 383.179 710.855 382.61 709.196 382.32C708.026 379.214 706.499 376.033 705.113 372.995Z"
     id="path27" />
  <path
     fill="#2A4664"
     d="M731.625 383.403C743.042 387.903 742.616 408.717 737.299 417.931C731.875 427.328 727.605 431.662 717.154 435.025C715.323 435.141 714.456 435.279 713.13 434.06C714.005 431.273 720.32 428.989 722.943 427.022C733.327 419.237 738.904 406.482 734.762 393.697C733.698 390.414 731.702 386.945 731.625 383.403Z"
     id="path28" />
  <defs
     id="defs29">
    <linearGradient
       id="gradient_0"
       gradientUnits="userSpaceOnUse"
       x1="679.41431"
       y1="425.18051"
       x2="690.32745"
       y2="406.267">
      <stop
         offset="0"
         stop-color="#253F5E"
         id="stop28" />
      <stop
         offset="1"
         stop-color="#3E5E79"
         id="stop29" />
    </linearGradient>
  </defs>
  <path
     fill="url(#gradient_0)"
     d="M674.444 394.736L677.53 396.624C676.944 410.434 679.637 419.449 691.753 427.539C693.849 428.939 696.627 430.224 697.836 432.211C697.853 433.967 698.129 433.21 696.948 434.544C695.783 434.675 696.26 434.738 695.141 434.403C687.049 432.02 680.262 426.473 676.315 419.018C672.014 410.872 671.79 403.393 674.444 394.736Z"
     id="path29" />
  <path
     fill="#9FC2DD"
     d="M674.444 394.736C675.727 391.431 677.908 384.38 681.437 383.063C682.493 386.164 678.334 392.77 677.53 396.624L674.444 394.736Z"
     id="path30" />
  <path
     fill="#2A4664"
     d="M833.263 442.824C833.723 443.259 834.542 444.18 834.581 444.743C835.019 450.997 826.552 468.758 823.739 473.476C810.17 496.238 791.025 515.317 767.194 527.041C764.261 528.484 759.58 530.7 756.562 531.455C755.43 530.444 755.474 530.538 754.863 529.156C755.645 524.489 761.77 523.164 765.667 521.114C791.44 507.557 812.356 487.45 824.691 460.798C826.806 456.227 830.211 446.08 833.263 442.824Z"
     id="path31" />
  <path
     fill="#2A4664"
     d="M582.689 350.631C591.79 331.011 608.799 303.309 629.319 292.622C630.241 292.142 631.043 292.239 631.956 292.643C632.211 293.846 632.35 295.133 631.413 296.147C625.983 302.023 619.11 307.183 613.542 313.067C601.804 325.473 595.04 338.909 586.959 353.465C584.446 353.198 584.11 352.536 582.689 350.631Z"
     id="path32" />
  <path
     fill="#2A4664"
     d="M735.705 532.614C737.787 532.632 737.748 532.533 739.534 533.489C740.326 534.893 740.214 534.152 739.759 535.8C735.268 540.374 726.522 539.888 720.375 539.983C719.329 539.896 718.84 539.73 717.798 539.484L717.481 538.616C719.55 536.283 732.276 533.334 735.705 532.614Z"
     id="path33" />
  <path
     fill="#2A4664"
     d="M582.689 350.631C584.11 352.536 584.446 353.198 586.959 353.465C584.731 357.941 582.27 366.637 578.764 369.497L578.063 369.33C576.527 364.044 581.008 356.799 582.524 351.257L582.689 350.631Z"
     id="path34" />
  <path
     fill="#2A4664"
     d="M650.765 279.953C653.053 279.854 652.957 279.738 654.156 280.818L654.117 281.782C652.328 285.123 646.59 287.621 643.151 289.062C641.594 289.527 642.135 289.387 640.404 289.258C638.544 286.025 648.268 281.013 650.765 279.953Z"
     id="path35" />
  <path
     fill="#2A4664"
     d="M463.86 209.623C466.271 209.438 468.689 209.36 471.107 209.388C476.569 209.45 485.863 210.735 489.086 215.322C500.439 231.484 492.12 269.45 491.826 288.476C491.664 299.031 491.03 310.045 490.389 318.935C506.187 319 517.854 316.524 518.664 336.135C520.682 385.034 521.729 434.072 520.921 483.009L520.321 516.007C519.575 555.255 515.679 550.092 478.744 551.439C467.103 551.527 447.535 552.728 436.957 550.391C433.508 549.629 430.191 548.28 427.583 545.839C422.469 541.05 423.149 515.864 422.782 508.365C420.734 466.582 421.351 424.441 422.279 382.632C422.61 367.738 421.558 352.114 423.273 337.344C423.714 333.541 424.56 327.695 427.294 324.888C433.079 318.95 443.471 319.503 451.15 319.231C449.934 292.1 444.704 265.114 444.245 237.988C443.994 223.141 447.51 212.354 463.86 209.623Z"
     id="path36" />
  <path
     fill="#BBD9EC"
     d="M488.504 324.599C494.341 324.664 505.493 324.054 510.276 327.134C512.086 328.299 512.538 330.645 512.802 332.72C513.998 342.146 513.847 352.895 513.951 362.456C514.133 381.306 514.197 400.157 514.141 419.008C514.34 445.351 514.309 471.695 514.05 498.038C514.018 508.475 514.49 518.979 514.283 529.385C514.029 542.226 510.663 543.554 498.744 544.265C484.026 545.012 469.286 545.228 454.553 544.912C449.126 544.819 443.394 544.922 438.112 544.248C432.87 543.579 429.938 539.879 429.697 534.776C429.371 527.895 429.509 520.846 429.453 513.966L428.901 480.469L428.954 349.375C428.628 325.876 429.849 326.364 452.451 325.205C454.139 326.788 456.248 328.232 458.131 329.613C458.34 333.221 458.275 335.936 458.156 339.556C454.031 343.715 452.214 346.551 451.981 352.59C451.599 362.455 451.567 372.524 451.489 382.4C451.378 402.551 451.384 422.703 451.508 442.854L452.063 490.227C452.201 499.253 452.248 508.222 452.831 517.185C453.165 527.576 459.701 531.508 469.382 531.852C483.581 532.357 491.451 528.506 491.372 513.383C491.317 502.716 491.07 492.133 490.776 481.554C490.481 469.565 490.362 457.572 490.42 445.58C490.645 423.802 490.512 402.021 490.02 380.247C489.88 370.478 490.23 359.965 489.205 350.287C488.727 345.776 486.65 343.069 483.681 339.883C483.6 336.348 483.668 332.663 483.684 329.115C485.655 327.551 486.776 326.376 488.504 324.599Z"
     id="path37" />
  <path
     fill="#2A4664"
     d="M504.937 355.131C506.433 355.382 508.098 355.651 508.274 357.522C508.634 361.354 508.663 365.265 508.748 369.116C508.953 379.8 509.059 390.487 509.067 401.173L509.097 464.212C509.087 472.075 509.8 507.758 507.025 512.756C505.803 512.262 504.979 511.987 504.297 510.768C502.393 507.362 503.218 381.37 503.694 368.089C503.849 363.749 503.94 359.375 504.937 355.131Z"
     id="path38" />
  <path
     fill="#2A4664"
     d="M439.044 360.206L440.773 360.515C444.692 364.102 442.519 384.964 440.042 390.022C439.555 389.917 439.297 389.654 438.833 389.347C435.921 382.472 436.835 367.328 439.044 360.206Z"
     id="path39" />
  <path
     fill="#2A4664"
     d="M440.275 481.346C445.184 484.768 444.27 503.98 441.141 508.621C440.956 508.501 439.436 507.522 439.342 507.295C436.766 501.112 435.84 485.986 440.275 481.346Z"
     id="path40" />
  <path
     fill="#2A4664"
     d="M438.535 339.508C445.458 339.021 449.039 345.672 442.056 349.92C434.151 350.294 431.135 344.143 438.535 339.508Z"
     id="path41" />
  <path
     fill="#2A4664"
     d="M436.866 518.356C443.379 519.067 448.864 522.9 442.646 529.037C436.047 530.623 431.38 523.148 436.866 518.356Z"
     id="path42" />
  <path
     fill="#D35351"
     d="M465.772 216.125C477.948 215.461 488.057 216.289 488.393 231.333C488.873 252.845 486.416 274.416 484.681 295.843C484.165 302.214 484.315 315.035 482.847 320.798C480.953 323.282 478.352 323.681 475.37 324.512C449.226 326.435 458.148 313.709 455.631 294.364C454.01 281.903 452.638 268.372 452.128 255.836C451.483 239.985 444.436 219.731 465.772 216.125Z"
     id="path43" />
  <path
     fill="#4F3648"
     d="M478.493 223.376C487.223 227.302 482.032 267.293 481.164 276.541C480.902 279.344 480.48 282.182 479.323 284.767L477.744 284.465C474.556 281.05 477.752 266.95 477.935 261.49C478.148 255.156 478.662 248.756 478.692 242.355C478.713 237.878 476.272 226.386 478.493 223.376Z"
     id="path44" />
  <path
     fill="#4F3648"
     d="M477.006 288.708C478.962 289.448 478.226 288.845 479.367 290.486C479.901 293.79 478.91 295.275 477.423 298.348L476.086 298.315C474.289 296.155 475.64 290.917 477.006 288.708Z"
     id="path45" />
  <path
     fill="#BBD9EC"
     d="M464.5 331.404C468.639 331.58 472.893 331.458 477.044 331.4C476.907 339.257 478.621 392.529 477.388 395.551C474.495 396.698 470.155 397.711 467.368 395.517C466.66 394.935 466.149 394.238 466.128 393.285C465.672 372.665 465.504 352.006 464.5 331.404Z"
     id="path46" />
  <path
     fill="#2A4664"
     d="M783.47 635.719C810.876 635.268 835.441 649.244 848.294 673.727C858.221 692.637 859.41 721.54 847.556 739.763C845.601 742.769 828.339 742.128 824.703 742.168C812.328 742.326 799.952 742.353 787.577 742.25L724.974 741.438L724.847 741.34C717.28 735.592 714.607 722.647 714.029 713.628C711.254 670.344 741.071 638.226 783.47 635.719Z"
     id="path47" />
  <path
     fill="#BBD9EC"
     d="M779.267 643.185C788.928 641.497 802.465 644.091 811.379 648.25C826.994 655.638 838.99 668.986 844.674 685.299C850.839 702.576 849.889 718.886 842.104 735.413C825.215 735.398 808.49 735.012 791.608 735.309C772.604 735.805 746.396 736.568 728.159 735.428C724.768 729.335 722.848 722.883 721.931 715.986C719.421 698.427 724.239 680.608 735.255 666.706C746.403 652.359 761.554 645.356 779.267 643.185Z"
     id="path48" />
  <path
     fill="#2A4664"
     d="M817.316 668.899C819.221 671.649 817.936 673.78 816.229 676.38C810.474 685.143 803.652 693.665 796.897 701.616C797.616 712.978 792.27 718.317 780.996 717.073C777.842 720.54 774.994 725.128 769.929 723.35C764.465 717.449 769.007 714.801 773.565 709.967C771.816 699.794 776.239 692.952 787.142 693.733C796.013 685.769 807.299 675.269 817.316 668.899Z"
     id="path49" />
  <path
     fill="#BBD9EC"
     d="M782.717 699.815C785.819 698.479 789.419 699.883 790.798 702.965C792.177 706.048 790.824 709.667 787.761 711.089C785.741 712.027 783.372 711.805 781.562 710.507C779.752 709.21 778.781 707.039 779.02 704.824C779.259 702.61 780.672 700.696 782.717 699.815Z"
     id="path50" />
  <path
     fill="#BBD9EC"
     d="M803.9 685.058L804.188 685.3C801.542 688.644 796.802 695.012 793.909 697.781L792.814 696.099C793.278 694.104 801.697 687.163 803.9 685.058Z"
     id="path51" />
  <path
     fill="#2A4664"
     d="M784.054 646.158C790.316 647.704 788.894 659.605 785.952 663.578C783.167 662.878 782.373 662.082 781.973 659.03C781.506 655.457 781.865 649.153 784.054 646.158Z"
     id="path52" />
  <path
     fill="#2A4664"
     d="M833.999 674.003C840.587 678.479 827.341 683.332 824.27 684.669C822.389 683.509 822.183 683.24 822.367 681.221C824.715 677.498 829.896 675.237 833.999 674.003Z"
     id="path53" />
  <path
     fill="#2A4664"
     d="M830.763 702.568C834.508 702.417 839.04 701.825 842.421 703.24C843.674 704.628 843.321 703.834 843.491 705.718C842.546 707.304 842.91 706.791 840.882 707.669C837.864 707.96 828.376 708.976 827.723 705.149C828.433 703.682 829.331 703.388 830.763 702.568Z"
     id="path54" />
  <path
     fill="#2A4664"
     d="M727.966 702.624C731.444 702.498 739.333 701.839 741.414 705.067C741.186 706.955 741.528 706.052 739.87 707.65C736.259 707.989 727.774 709.061 726.147 705.333C726.54 703.759 726.788 703.73 727.966 702.624Z"
     id="path55" />
  <path
     fill="#2A4664"
     d="M812.657 654.308L814.441 655.589C816.029 659.685 811.123 666.06 808.083 668.608L806.202 667.268C804.365 663.338 809.878 656.814 812.657 654.308Z"
     id="path56" />
  <path
     fill="#2A4664"
     d="M823.757 722.352C827.803 722.529 838.149 724.714 837.053 730.112C833.043 731.15 826.955 729.204 824.138 726.133C823.179 725.087 823.626 723.641 823.757 722.352Z"
     id="path57" />
  <path
     fill="#2A4664"
     d="M756.463 654.7C759.724 655.467 761.553 658.897 762.869 661.833C764.3 665.026 764.593 665.871 763.3 669.033C759.153 667.994 756.526 662.258 755.449 658.454C754.931 656.622 755.561 656.148 756.463 654.7Z"
     id="path58" />
  <path
     fill="#2A4664"
     d="M735.613 674.747C739.359 675.364 745.112 677.816 747.328 681.192C748.303 682.677 747.814 683.151 747.338 684.735C743.552 684.401 737.629 681.504 735.519 678.215C734.716 676.965 735.263 676.023 735.613 674.747Z"
     id="path59" />
  <path
     fill="#2A4664"
     d="M743.482 722.431C745.238 722.543 745.34 722.422 746.849 723.409C747.806 726.988 739.851 729.919 737.123 731.04C735.207 730.844 734.022 730.982 733.509 728.973C734.938 726.196 740.62 723.855 743.482 722.431Z"
     id="path60" />
  <path
     fill="#2A4664"
     d="M414.314 184.714C419.925 184.217 429.504 184.49 435.341 184.507L472.471 184.617C512.064 184.479 551.658 184.587 591.25 184.94L762.213 185.558L823.034 185.611C832.461 185.625 841.93 185.586 851.353 185.641C853.798 185.655 858.158 186.045 859.982 187.727C861.022 188.686 860.823 189.2 860.77 190.266C859.345 192.4 855.544 192.597 853.181 192.606C845.027 192.638 836.87 192.629 828.716 192.618L772 192.522L526.409 191.487L451.806 191.008C439.747 190.981 425.645 190.606 413.817 191.327C390.703 192.735 367.185 196.606 344.303 199.976L250.257 213.536C235.285 215.441 220.333 217.5 205.403 219.713C195.423 221.202 181.722 221.973 173.747 228.608C171.271 230.668 169.097 234.892 167.851 237.896C165.514 243.528 164.746 249.955 164.548 256.008C163.958 271.98 164.194 287.966 163.952 303.944L162.402 478.216C161.495 526.722 160.855 575.234 160.484 623.747L160.534 664.733C160.583 673.01 160.435 681.486 161.082 689.734C161.479 694.788 162.645 700.098 166.312 703.838C169.017 706.596 173.115 708.242 176.956 707.277C182.373 705.915 207.766 687.329 214.804 682.878C224.321 676.977 234.012 671.359 243.863 666.033C307.489 632.081 356.611 624.542 427.781 623.472L692.52 621.779L796.632 621.403L831.482 621.424C837.176 621.44 858.27 620.556 861.52 624.325L861.259 625.109C858.08 627.156 855.448 627.389 851.705 627.419C842.014 627.497 832.33 627.561 822.64 627.727C791.74 628.136 760.836 628.259 729.934 628.095L486.798 629.334C447.008 629.865 407.396 628.839 367.748 633.476C328.963 637.755 291.285 649.08 256.568 666.894C241.824 674.277 226.195 683.788 212.363 692.654C203.122 698.744 194.526 705.422 184.909 710.954C169.12 720.038 155.926 708.169 154.895 691.738C154.208 680.799 154.119 669.725 154.133 658.708L154.161 618.839C154.273 563.967 155.572 508.333 156.241 453.381L157.807 307.625C158.121 287.622 157.297 266.679 158.703 247.306C160.149 227.38 174.067 215.988 193.167 214.769C197.865 214.469 204.588 213.096 209.425 212.381C227.282 209.706 245.153 207.126 263.037 204.641L339.923 193.972C366.566 190.124 387.167 186.547 414.314 184.714Z"
     id="path61" />
  <path
     fill="#2A4664"
     d="M603.996 645.218C613.792 644.547 679.103 644.208 683.584 647.621C688.171 651.114 687.831 662.026 688.112 667.348C688.524 675.163 690.28 702.908 684.858 707.878C680.163 712.181 658.51 710.923 651.375 710.933C639.884 710.978 577.35 711.741 571.372 709.036C564.909 702.408 566.012 658.289 570.548 649.057C572.045 646.011 599.115 645.469 603.996 645.218Z"
     id="path62" />
  <path
     fill="#BBD9EC"
     d="M607.366 652.245L645.259 652.246C657.777 652.216 667.522 651.947 679.891 653.239C681.244 665.545 681.542 690.764 680.135 702.918C672.329 704.085 651.191 703.534 641.921 703.832C640.83 702.17 639.451 700.445 638.236 698.851C642.971 692.083 647.431 685.126 651.604 677.998C652.688 675.82 654.759 672.659 653.44 670.309L652.418 670.315C646.682 673.206 636.45 689.92 632.777 695.66C623.934 694.66 619.166 695.683 614.92 704.062C601.761 704.691 588.578 704.637 575.425 703.9C573.897 693.245 573.603 663.13 575.712 653.092C584.955 652.122 597.826 652.344 607.366 652.245Z"
     id="path63" />
  <path
     fill="#2A4664"
     d="M583.353 672.12C587.195 672.97 592.467 677.101 594.169 680.696C594.785 681.996 594.049 682.902 593.5 684.043C589.996 683.325 585.294 680.168 583.491 676.975C582.286 674.839 582.754 674.263 583.353 672.12Z"
     id="path64" />
  <path
     fill="#2A4664"
     d="M671.434 673.314C672.872 673.262 672.317 673.213 673.724 673.79C675.483 677.538 668.536 681.808 665.801 683.598C664.794 683.595 664.644 683.447 663.641 683.165C661.405 679.955 668.966 675.033 671.434 673.314Z"
     id="path65" />
  <path
     fill="#2A4664"
     d="M627.949 654.874C628.573 655.134 629.212 655.533 629.813 655.87C631.829 659.631 631.766 665.507 628.612 668.723C627.653 668.185 627.536 668.034 626.671 667.337C624.947 663.836 624.871 657.666 627.949 654.874Z"
     id="path66" />
  <path
     fill="#2A4664"
     d="M602.619 659.719C607.887 660.294 609.987 665.954 609.181 670.611C603.754 670.655 602.152 664.118 602.619 659.719Z"
     id="path67" />
  <path
     fill="#9FC2DD"
     d="M624.876 700.508C627.563 700.409 631.594 700.384 633.358 702.76L633.114 703.5L631.392 703.765C629.148 703.781 624.283 704.193 622.772 703.299L622.782 702.473L624.876 700.508Z"
     id="path68" />
  <path
     fill="#2A4664"
     d="M407.364 220.159C411.348 221.149 410.979 227.779 411.05 231.274C411.709 263.773 410.838 296.313 410.736 328.819C410.215 394.661 410.111 460.505 410.423 526.348C410.445 535.199 409.497 583.726 411.927 589.297C413.418 592.712 416.762 595.194 420.419 595.734C429.682 597.102 442.988 596.564 452.617 596.728C482.062 597.229 511.583 596.63 541.039 596.639L810.16 597.455C817.491 597.53 858.958 596.288 862.884 598.512C864.133 599.219 864.226 599.511 864.576 600.797C863.911 602.572 864.076 602.043 862.349 603.396C856.876 604.07 848.556 603.913 842.912 603.903L813.401 603.786L720.507 603.772L520.389 602.966C490.405 602.816 460.241 603.646 430.281 602.836C424.999 602.693 419.7 602.561 414.76 600.481C410.322 598.612 407.256 595.594 405.551 591.057C402.89 583.981 404.006 507.31 403.991 493.193C403.633 429.536 403.943 365.877 404.92 302.227C405.104 288.926 403.958 228.24 407.364 220.159Z"
     id="path69" />
  <path
     fill="#2A4664"
     d="M282.685 352.716C313.426 351.885 312.049 351.174 311.917 382.357C311.814 406.51 313.583 406.722 288.625 407.489C253.932 407.955 257.806 409.979 257.661 373.547C257.572 351.025 261.159 353.529 282.685 352.716Z"
     id="path70" />
  <path
     fill="#9FC2DD"
     d="M279.35 358.238C286.033 358.01 299.186 357.959 305.337 359.338C306.689 369.45 307.254 391.025 305.291 400.776C300.253 401.223 295.201 401.492 290.144 401.582C286.671 401.707 265.106 403.125 264.551 400.619C262.91 393.199 261.944 366.086 264.283 359.833C267.115 358.008 275.614 358.322 279.35 358.238Z"
     id="path71" />
  <path
     fill="#2A4664"
     d="M281.307 361.707C285.255 361.342 296.342 361.251 299.531 363.675C302.777 366.142 302.66 378.469 302.569 382.264C302.218 396.82 301.585 397.009 288.122 398.328C267.223 399.648 265.866 396.999 266.302 377.233C266.61 363.29 267.724 363.054 281.307 361.707Z"
     id="path72" />
  <path
     fill="#9FC2DD"
     d="M275.971 366.172C279.81 365.952 296.689 364.885 297.467 368.723C298.527 373.957 299.249 386.302 297.102 391.792C296.61 393.049 294.751 393.178 293.622 393.434C287.671 393.902 277.873 394.77 272.231 392.905C269.16 388.74 268.828 372.287 271.773 367.504C272.554 366.237 274.608 366.34 275.971 366.172Z"
     id="path73" />
  <path
     fill="#2A4664"
     d="M214.812 257.719C220.352 257.52 237.46 256.718 240.563 259.697C245.954 264.874 244.427 303.858 241.294 308.951C236.73 312.338 225.363 312.055 219.393 312.341C209.861 312.575 190.031 316.043 189.882 303.243C189.744 291.303 187.648 272.54 192.202 261.213C193.537 257.893 210.719 257.883 214.812 257.719Z"
     id="path74" />
  <path
     fill="#BBD9EC"
     d="M196.876 263.668C202.504 263.402 232.789 262.395 236.551 264.558C239.409 270.299 238.637 296.76 237.565 304.108C237.387 305.332 236.491 305.387 235.386 305.872C229.576 306.555 201.017 308.564 196.38 305.813C195.58 304.045 194.87 300.006 195.014 298.123C195.511 291.658 193.22 267.663 196.876 263.668Z"
     id="path75" />
  <path
     fill="#2A4664"
     d="M218.601 266.722C221.328 266.756 229.358 266.61 231.131 268.462C236.382 273.944 235.733 294.769 231.961 300.741C230.37 303.26 218.48 303.265 215.3 303.408C197.08 302.764 198.777 301.975 198.314 284.438C197.814 265.487 201.926 267.707 218.601 266.722Z"
     id="path76" />
  <path
     fill="#EFEDC0"
     d="M214.315 270.716C217.35 270.581 228.628 270.325 229.58 272.892C231.472 277.994 231.036 292.334 229.237 297.151C227.029 299.245 222.825 298.848 219.57 298.965C216.42 298.982 204.159 299.727 203.178 296.534C201.033 289.551 201.715 278.701 203.041 271.552C206.526 271.077 210.744 270.929 214.315 270.716Z"
     id="path77" />
  <path
     fill="#2A4664"
     d="M213.272 352.713C219.483 352.338 234.838 351.914 239.471 354.364C246.047 357.844 244.38 398.53 241.447 403.875C237.201 407.388 227.076 407.075 221.31 407.368C199.267 407.786 186.898 413.01 189.272 385.214C191.615 357.792 181.964 354.313 213.272 352.713Z"
     id="path78" />
  <path
     fill="#BBD9EC"
     d="M209.778 358.219C215.932 357.915 231.712 357.117 236.618 359.892C239.102 364.037 238.325 394.621 237.368 400.593C232.756 401.475 227.083 401.486 222.345 401.546C216.663 401.897 200.197 403.563 196.231 400.601C193.738 395.255 194.529 365.218 195.734 359.119C199.639 358.411 205.662 358.371 209.778 358.219Z"
     id="path79" />
  <path
     fill="#2A4664"
     d="M212.116 361.69C215.492 361.291 228.45 361.239 230.571 362.94C236.263 367.503 235.642 389.367 232.041 395.488C230.881 397.46 224.261 397.741 222.124 397.944C200.785 399.171 197.282 399.746 198.294 376.979C198.883 363.746 198.825 363.295 212.116 361.69Z"
     id="path80" />
  <path
     fill="#EFEDC0"
     d="M210.256 365.711C214.274 365.303 224.511 365.28 227.694 366.848C231.405 368.676 230.989 389.471 228.938 392.79C227.019 393.826 224.939 393.716 222.7 393.863C219.438 393.957 216.176 394.026 212.913 394.068C201.215 394.142 201.449 390.303 201.741 380.065C201.875 375.377 202.025 371.258 202.632 366.565C204.978 366.155 207.847 365.949 210.256 365.711Z"
     id="path81" />
  <path
     fill="#2A4664"
     d="M205.802 447.211C211.777 446.639 234.604 445.552 240.166 449.207C241.636 450.174 243.169 455.372 243.245 458.282C243.518 468.698 245.553 488.982 241.109 497.997C239.792 500.671 231.319 500.973 228.39 501.13C221.727 501.687 197.007 503.059 193.154 500.028C187.271 495.4 188.188 457.7 192.081 450.493C193.477 447.909 202.971 447.443 205.802 447.211Z"
     id="path82" />
  <path
     fill="#BBD9EC"
     d="M198.724 452.704C203.476 452.408 236.338 451.107 236.806 454.682C237.988 463.711 239.318 485.676 237.093 494.149C235.524 495.508 235.987 495.086 233.625 495.481C222.896 495.925 209.848 496.735 198.82 495.877C192.029 495.348 195.631 464.125 194.829 458.596C194.387 455.55 195.735 453.532 198.724 452.704Z"
     id="path83" />
  <path
     fill="#2A4664"
     d="M211.83 456.21C216.222 455.854 226.921 455.263 230.954 457.485C234.578 459.481 234.608 470.137 234.617 474.006C234.626 478.093 234.699 485.204 232.551 488.931C230.913 491.775 225.118 492.08 222.27 492.354C217.509 492.423 205.281 493.017 201.892 490.931C196.48 487.599 197.759 463.119 200.602 458.695C203.938 456.309 207.608 456.561 211.83 456.21Z"
     id="path84" />
  <path
     fill="#9FC2DD"
     d="M211.289 460.216C215.611 460.121 225.326 459.584 228.899 461.534C230.639 465.276 231.172 483.408 228.909 486.596C227.026 487.717 225.218 487.682 222.997 487.924C196.267 489.083 201.08 485.1 202.626 460.6L211.289 460.216Z"
     id="path85" />
  <path
     fill="#2A4664"
     d="M280.313 257.717C286.49 257.512 303.111 256.394 308.49 259.669C310.025 260.603 311.954 266.429 311.842 269.118C311.456 278.411 314.123 302.27 309.082 309.566C307.44 311.943 293.701 312.145 290.125 312.323C287.334 312.347 283.071 312.346 280.382 312.398C260.847 312.776 257.01 313.869 257.901 291.743C258.255 282.94 256.493 269.313 260.259 261.145C261.773 257.861 276.967 257.863 280.313 257.717Z"
     id="path86" />
  <path
     fill="#9FC2DD"
     d="M267.47 263.668C276.363 263.369 297.083 262.796 305.443 264.054C306.647 271.354 307.137 298.257 305.696 304.909C304.337 306.045 304.623 305.691 302.559 305.978C297.047 306.69 269.122 307.692 264.802 306.13C262.554 302.23 262.954 269.912 263.899 265.039C265.27 263.715 265.212 264.104 267.47 263.668Z"
     id="path87" />
  <path
     fill="#2A4664"
     d="M282.81 266.716C303.953 265.493 303.219 270.409 302.833 290.064C302.585 302.684 298.281 302.54 287.25 303.201C283.625 303.383 271.628 303.941 269.184 301.052C265.25 296.401 265.242 274.545 268.727 269.457C270.059 267.514 279.695 266.97 282.81 266.716Z"
     id="path88" />
  <path
     fill="#9FC2DD"
     d="M276.312 271.176C280.145 270.884 296.712 270.215 297.532 273.604C298.641 278.189 299.885 291.621 297.577 296.56C296.814 298.191 295.113 298.122 293.655 298.437C289.973 298.58 272.997 299.75 271.687 297.145C269.546 292.888 270.078 276.852 271.62 272.34C272.883 271.18 274.494 271.331 276.312 271.176Z"
     id="path89" />
  <path
     fill="#2A4664"
     d="M348.262 352.714C380.185 351.474 376.061 353.698 376.559 383.523C376.971 408.202 375.972 406.59 352.466 407.473C327.822 407.839 320.45 412.432 322.464 382.951C324.452 353.854 317.02 354.205 348.262 352.714Z"
     id="path90" />
  <path
     fill="#BBD9EC"
     d="M347.268 358.231C351.344 358.112 367.546 357.359 369.89 360.066C371.376 366.589 371.548 393.457 369.846 399.905C367.199 401.872 355.715 401.651 351.624 401.788C347.873 402.017 331.232 403.071 328.889 400.663C327.322 395.02 326.937 364.974 328.872 359.916C332.374 357.846 342.623 358.298 347.268 358.231Z"
     id="path91" />
  <path
     fill="#2A4664"
     d="M344.938 361.673C348.533 361.35 361.589 361.051 363.82 363.611C368.838 369.37 368.917 388.454 364.897 395.101C363.501 397.41 357.147 397.728 354.624 397.961C330.867 399.443 330.281 397.963 331.023 373.916C331.365 362.848 334.83 363.134 344.938 361.673Z"
     id="path92" />
  <path
     fill="#EFEDC0"
     d="M348.552 365.72C351.574 365.676 361.757 365.329 362.248 369.185C362.996 375.055 364.063 387.153 361.565 392.542C358.969 394.3 353.625 393.935 350.339 393.99C348.57 393.965 346.802 393.927 345.034 393.875C342.485 393.796 337.688 393.963 335.994 392.158C333.807 386.854 334.731 372.473 335.949 366.723C339.948 365.914 344.44 365.883 348.552 365.72Z"
     id="path93" />
  <path
     fill="#2A4664"
     d="M348.37 257.726C355.119 257.502 367.676 256.615 373.415 259.758C378.758 266.098 375.943 287.737 376.573 295.969C377.959 314.084 366.523 311.786 352.625 312.496C346.781 312.644 331.371 313.516 326.457 310.964C320.956 308.107 322.791 289.756 322.767 283.931C322.743 278.079 322.394 266.251 325.277 260.999C329.532 257.483 342.214 257.979 348.37 257.726Z"
     id="path94" />
  <path
     fill="#BBD9EC"
     d="M347.812 263.241C352.843 263.214 365.664 262.62 369.383 264.61C372.33 269.496 370.877 298.514 370.254 305.671C364.712 306.589 357.763 306.712 352.052 306.978C346.959 307.101 333.069 307.98 329.23 306.039C327.682 301.839 326.512 267.428 329.198 264.571C332.836 262.991 343.388 263.3 347.812 263.241Z"
     id="path95" />
  <path
     fill="#2A4664"
     d="M342.788 267.169C347.725 266.646 359.21 266.053 363.585 268.381C365.253 269.269 366.455 272.278 366.787 274.391C367.832 281.037 368.629 293.652 365.419 299.617C364.168 301.941 359.196 302.512 356.793 302.914C330.671 304.95 330.573 303.733 331.446 277.521C331.756 268.217 334.485 268.351 342.788 267.169Z"
     id="path96" />
  <path
     fill="#EFEDC0"
     d="M339.333 271.217C347.819 270.76 353.925 270.221 362.236 272.346C363.141 277.04 364.227 292.021 361.835 296.962C361.227 298.218 360.215 298.217 359.034 298.481C351.94 299.497 342.968 299.148 335.872 298.179C335.152 292.858 333.517 278.015 336.128 272.808C336.806 271.456 337.987 271.488 339.333 271.217Z"
     id="path97" />
  <path
     fill="#2A4664"
     d="M211.569 540.731C226.733 538.162 241.105 548.387 243.648 563.556C246.192 578.725 235.942 593.079 220.768 595.596C205.632 598.108 191.32 587.888 188.783 572.756C186.246 557.623 196.441 543.294 211.569 540.731Z"
     id="path98" />
  <path
     fill="#9FC2DD"
     d="M212.013 546.159C219.902 544.67 227.981 547.538 233.167 553.667C238.352 559.795 239.843 568.238 237.069 575.772C234.296 583.305 227.686 588.766 219.765 590.069C207.714 592.051 196.312 583.971 194.189 571.945C192.066 559.918 200.013 548.422 212.013 546.159Z"
     id="path99" />
  <path
     fill="#2A4664"
     d="M213.205 549.82C223.196 548.419 232.453 555.317 233.969 565.291C235.485 575.264 228.694 584.601 218.738 586.231C212.195 587.302 205.582 584.774 201.422 579.612C197.263 574.449 196.199 567.449 198.637 561.284C201.076 555.119 206.64 550.741 213.205 549.82Z"
     id="path100" />
  <path
     fill="#9FC2DD"
     d="M212.674 554.088C220.376 552.218 228.13 556.967 229.965 564.678C231.8 572.388 227.016 580.121 219.297 581.921C211.627 583.71 203.954 578.963 202.131 571.301C200.307 563.64 205.02 555.945 212.674 554.088Z"
     id="path101" />
  <path
     fill="#2A4664"
     d="M342.078 540.858C357.24 538.074 371.77 548.166 374.454 563.346C377.139 578.526 366.953 592.989 351.756 595.575C336.698 598.138 322.396 588.065 319.735 573.024C317.075 557.983 327.055 543.616 342.078 540.858Z"
     id="path102" />
  <path
     fill="white"
     d="M343.362 546.194C355.565 544.205 367.054 552.536 368.956 564.753C370.859 576.971 362.447 588.4 350.216 590.216C338.108 592.013 326.817 583.704 324.934 571.608C323.05 559.513 331.28 548.164 343.362 546.194Z"
     id="path103" />
  <path
     fill="#3D4B4E"
     d="M343.635 550.206C353.557 548.499 362.981 555.169 364.67 565.094C366.36 575.019 359.674 584.431 349.746 586.103C339.842 587.771 330.458 581.105 328.773 571.204C327.087 561.304 333.737 551.908 343.635 550.206Z"
     id="path104" />
  <path
     fill="#EFEDC0"
     d="M345.256 553.69C353.247 552.804 360.43 558.594 361.262 566.59C362.094 574.586 356.256 581.731 348.254 582.508C340.329 583.279 333.267 577.508 332.443 569.588C331.619 561.668 337.342 554.567 345.256 553.69Z"
     id="path105" />
  <path
     fill="#2A4664"
     d="M342.637 446.924C357.817 444.413 372.135 454.753 374.527 469.952C376.918 485.152 366.466 499.389 351.249 501.661C336.199 503.908 322.153 493.596 319.788 478.565C317.423 463.533 327.624 449.407 342.637 446.924Z"
     id="path106" />
  <path
     fill="#9FC2DD"
     d="M343.162 452.244C355.297 450.105 366.862 458.23 368.965 470.371C371.068 482.513 362.91 494.054 350.762 496.121C338.665 498.18 327.182 490.063 325.088 477.972C322.993 465.881 331.077 454.374 343.162 452.244Z"
     id="path107" />
  <path
     fill="#2A4664"
     d="M345.026 455.85C355.048 454.951 363.929 462.28 364.946 472.291C365.964 482.302 358.739 491.269 348.741 492.404C342.168 493.15 335.701 490.305 331.81 484.955C327.919 479.605 327.205 472.576 329.94 466.553C332.675 460.529 338.437 456.442 345.026 455.85Z"
     id="path108" />
  <path
     fill="#9FC2DD"
     d="M344.759 460.04C349.824 459.257 354.919 461.257 358.098 465.276C361.278 469.296 362.051 474.714 360.123 479.463C358.195 484.211 353.863 487.556 348.781 488.221C341.05 489.232 333.945 483.836 332.844 476.118C331.742 468.4 337.054 461.232 344.759 460.04Z"
     id="path109" />
  <path
     fill="#2A4664"
     d="M532.852 216.082C534.651 216.451 534.642 216.133 535.692 217.234C536.327 222.478 536.277 230.086 536.347 235.514L536.678 265.454C537.275 300.34 537.554 335.23 537.514 370.121L537.648 522.591C537.528 540.471 537.717 558.443 537.475 576.322C537.43 579.671 536.645 581.839 535.443 584.9L534.249 585.023C531.642 583.575 531.47 578.306 531.482 575.511C531.579 551.538 531.574 527.568 531.532 503.594L531.388 339.125L531.084 265.972C531.061 256.055 530.454 224.031 532.852 216.082Z"
     id="path110" />
  <path
     fill="#2A4664"
     d="M640.717 729.746C655.074 729.527 674.565 729.044 689.274 730.527C690.099 730.61 690.978 731.375 691.616 731.927C692.13 733.637 692.191 732.83 691.466 734.432C686.95 737.501 663.296 736.569 656.742 736.631L591.481 736.94L434.751 737.952C424.859 737.952 414.968 737.888 405.077 737.76C400.496 737.707 385.917 738.456 383.342 734.786L383.918 733.738C385.517 732.639 386.479 732.148 388.492 732.099C398.458 731.852 408.495 731.619 418.455 731.492C438.797 731.228 459.139 731.096 479.482 731.096L640.717 729.746Z"
     id="path111" />
  <path
     fill="#2A4664"
     d="M455.479 643.198C457.459 642.905 462.283 642.798 464.313 642.815C484.726 643.05 504.19 651.474 518.332 666.197C531.488 679.715 538.338 698.664 539.138 717.631C539.219 719.55 538.649 721.121 537.214 722.416C535.979 722.86 534.395 722.977 533.376 721.949C532.904 721.557 532.316 720.463 532.259 719.811C531.546 711.672 530.523 703.752 527.913 695.922C525.522 688.861 521.95 682.257 517.35 676.39C505.12 660.479 489.122 652.724 469.618 650.091C434.178 647.53 401.663 668.904 394.334 704.475C393.455 708.745 392.849 720.038 390.829 722.597C388.15 723.642 385.675 721.14 385.673 718.627C385.638 677.62 415.478 647.703 455.479 643.198Z"
     id="path112" />
  <path
     fill="#2A4664"
     d="M335.769 700.738C356.556 700.477 355.381 700.61 355.678 721.978C355.876 736.162 356.698 737.5 341.789 737.985C322.092 738.529 320.279 739.635 320.761 717.634C321.105 701.95 320.347 701.053 335.769 700.738Z"
     id="path113" />
  <path
     fill="#BBD9EC"
     d="M327.793 706.744C332.078 706.493 346.123 705.837 349.554 707.273C351.009 710.23 349.995 724.794 350.105 729.035C350.145 730.583 349.966 731.212 348.981 732.058C346.015 732.117 327.945 733.229 327.324 731.494C326.016 727.842 326.038 711.192 326.823 707.348L327.793 706.744Z"
     id="path114" />
  <path
     fill="#2A4664"
     d="M240.994 700.744C244.669 700.669 254.787 700.373 257.466 701.651C263.286 704.426 261.66 731.648 259.592 735.837C256.788 738.001 251.269 737.625 247.545 737.725C222.529 738.788 227.233 736.741 226.778 712.902C226.541 700.499 230.229 701.109 240.994 700.744Z"
     id="path115" />
  <path
     fill="#BBD9EC"
     d="M233.363 706.741C238.561 706.41 250.485 705.677 255.044 707.358C256.222 710.038 256.244 729.833 254.889 731.987C247.68 732.276 239.656 732.715 232.522 732.114C232.312 724.804 232.39 717.275 232.301 709.949C232.277 707.97 232.312 707.722 233.363 706.741Z"
     id="path116" />
  <path
     fill="#2A4664"
     d="M279.4 701.131C297.297 700.47 311.079 695.403 308.626 718.875C308.042 724.462 308.861 729.496 307.669 735.74C305.514 736.602 304.406 736.858 302.126 737.413C296.839 737.686 279.077 739.258 276.63 736.341C272.952 731.955 273.266 709.753 275.545 703.839C276.198 702.143 278.176 701.578 279.4 701.131Z"
     id="path117" />
  <path
     fill="#BBD9EC"
     d="M281.331 706.721C285.707 706.469 299.003 705.744 302.439 707.37C304.026 710.308 303.305 726.445 302.897 730.621C302.813 731.485 302.391 731.424 301.428 731.938C299.224 731.979 280.601 733.253 280.22 731.273C278.872 724.263 279.505 715.161 279.916 707.945C279.962 707.135 280.656 707.066 281.331 706.721Z"
     id="path118" />
  <path
     fill="#2A4664"
     d="M423.603 681.634C429.675 682.889 453.263 704.096 458.905 709.191C465.772 709.868 475.088 711.399 477.377 719.498C477.924 721.433 477.54 722.687 476.552 724.377C474.792 725.412 475.719 725.22 473.664 724.932C472.162 723.954 471.992 723.11 471.245 721.456L470.964 720.821C469.887 718.937 467.527 716.627 465.58 715.775C457.188 712.105 453.339 724.4 449.114 725.825L448.167 725.128C447.204 723.298 447.461 721.632 447.478 719.508C442.171 711.679 422.255 690.508 423.603 681.634Z"
     id="path119" />
  <path
     fill="#BBD9EC"
     d="M436.488 696.896C438.933 698.243 451.423 709.322 453.138 711.594L452.711 712.482C451.379 713.46 451.15 714.023 449.859 713.986C446.154 710.235 439.742 701.334 436.488 696.896Z"
     id="path120" />
  <path
     fill="#2A4664"
     d="M206.031 418.457C206.772 418.467 207.512 418.485 208.253 418.51C209.526 418.562 211.318 418.515 212.086 419.359C210.968 420.949 209.846 421.904 210.652 423.749C212.808 424.275 220.883 424.638 222.509 423.163L222.33 422.31C220.779 421.471 219.897 421.249 218.244 420.729L218.008 419.966C222.17 415.608 225.862 418.611 226.96 423.29C227.229 424.438 229.826 424.682 231.054 425.457C231.955 427.34 231.893 430.649 232.009 432.864C232.07 435.779 232.602 437.255 230.446 439.27C226.12 439.919 205.396 439.885 201.652 438.312C201.052 435.143 200.767 428.362 201.773 425.194C202.033 424.376 204.16 424.289 205.664 423.821C205.629 421.403 205.602 420.798 206.031 418.457Z"
     id="path121" />
  <path
     fill="white"
     d="M208.306 427.249C215.01 427.035 221.719 427.041 228.423 427.266C228.469 430.352 229.247 433.07 228.428 435.936C227.166 437.155 227.698 436.791 225.375 436.788C218.399 436.299 211.405 436.112 204.412 436.227C204.484 433.279 203.706 430.772 204.736 428.22C206.194 427.068 206.065 427.441 208.306 427.249Z"
     id="path122" />
  <path
     fill="#2A4664"
     d="M206.768 430.115C208.586 430.19 210.879 429.944 211.922 431.488L211.375 432.519C209.476 432.57 207.987 432.802 206.252 432.089L205.984 431.261L206.768 430.115Z"
     id="path123" />
  <path
     fill="#2A4664"
     d="M341.009 240.474C338.816 240.543 334.548 241.026 332.912 240L332.364 238.781C332.64 238.1 332.711 237.467 333.273 237.331C337.402 236.329 343.354 237.561 347.51 236.406C347.763 234.92 347.528 234.704 347.176 233.166C343.543 231.949 339.813 234.788 338.29 231.768C339.337 227.581 345.105 230.755 347.221 228.842C347.413 226.746 347.104 226.072 348.152 224.665L349.792 224.523C351.45 226.095 350.598 228.747 351.345 229.004C354.203 229.986 359.162 227.921 360.262 232.165C357.942 234.324 353.948 232.119 351.642 233.103C351.262 233.265 349.567 235.986 349.171 236.602C352.843 236.657 363.092 236.181 365.86 237.984L366.079 238.862C364.095 241.13 359.525 240.453 356.548 240.486C357.482 242.938 358.96 246.482 358.523 249.023C357.123 250.086 357.875 249.926 356.326 249.906C354.25 247.64 355.337 245.205 353.507 243.354L352.754 243.748C348.177 246.087 345.753 243.662 342.901 245.49C342.719 248.028 343.18 248.753 341.789 249.998C340.242 250.245 340.954 250.393 339.608 249.427C338.809 247.068 339.632 243.483 341.047 241.442L341.009 240.474Z"
     id="path124" />
  <path
     fill="#9FC2DD"
     d="M341.009 240.474C343.665 240.363 345.749 240.213 348.417 240.514L348.88 241.253L349.066 240.654L349.427 241.05C347.285 241.717 343.355 241.577 341.047 241.442L341.009 240.474Z"
     id="path125" />
  <path
     fill="#2A4664"
     d="M333.701 341.985C328.441 330.412 341.723 320.409 352.413 322.108C361.543 323.559 367.321 332.381 364.778 341.29C364.328 342.866 364.171 344.14 362.644 345.064L361.577 344.788C360.578 343.773 360.264 343.717 360.002 342.38C361 340.638 362.213 339.074 361.527 337.084L359.404 336.42C358.377 335.27 358.596 335.916 358.622 334.459L360.71 333.466L360.883 332.545C360.041 330.261 360.732 331.095 359.02 329.745C357.521 329.668 356.788 329.734 355.391 329.136C354.755 326.958 354.835 325.979 352.692 325.054C348.465 325.774 352.945 325.761 349.697 327.248C347.81 326.267 347.451 325.954 345.4 325.687C343.785 326.119 343.778 325.986 342.685 327.203L342.791 328.715C341.959 330.145 337.053 328.263 337.493 333.055C338.422 334.017 339.031 334.486 339.508 335.746C338.099 337.712 338.374 335.224 335.215 338.101C337.256 343.301 339.27 340.155 339.001 343.497C337.355 344.936 336.249 344.422 334.383 343.623L333.701 341.985Z"
     id="path126" />
  <path
     fill="#2A4664"
     d="M333.701 341.985L334.749 341.674C335.815 340.265 335.418 340.47 335.215 338.101C337.256 343.301 339.27 340.155 339.001 343.497C337.355 344.936 336.249 344.422 334.383 343.623L333.701 341.985Z"
     id="path127" />
  <path
     fill="#2A4664"
     d="M555.187 217.874C559.997 217.252 564.391 220.67 564.971 225.485C565.551 230.299 562.095 234.663 557.275 235.202C552.514 235.733 548.215 232.328 547.642 227.572C547.069 222.817 550.437 218.488 555.187 217.874Z"
     id="path128" />
  <path
     fill="#BBD9EC"
     d="M555.596 222.737C557.565 222.379 559.467 223.632 559.916 225.583C560.364 227.533 559.2 229.491 557.272 230.029C555.944 230.4 554.519 230.011 553.564 229.016C552.608 228.021 552.277 226.581 552.702 225.269C553.127 223.956 554.239 222.984 555.596 222.737Z"
     id="path129" />
  <path
     fill="#2A4664"
     d="M176.952 673.08C178.625 672.955 180.477 672.866 182.096 673.392C184.249 674.098 186.017 675.656 186.991 677.702C189.471 683.018 186.274 688.32 181.274 690.594C177.122 690.478 174.034 689.805 171.783 685.938C170.587 683.887 170.315 681.426 171.034 679.164C172.074 675.855 174.074 674.559 176.952 673.08Z"
     id="path130" />
  <path
     fill="#BBD9EC"
     d="M178.104 677.458C179.846 677.536 180.405 677.409 181.844 678.409C183.751 681.419 182.995 683.164 180.701 685.698C174.249 685.308 174.311 681.501 178.104 677.458Z"
     id="path131" />
  <path
     fill="#2A4664"
     d="M554.371 568.876C557.436 568.203 560.625 569.239 562.709 571.584C564.793 573.93 565.446 577.219 564.416 580.183C563.386 583.147 560.834 585.323 557.745 585.871C553.1 586.696 548.65 583.653 547.731 579.027C546.813 574.4 549.764 569.889 554.371 568.876Z"
     id="path132" />
  <path
     fill="#BBD9EC"
     d="M554.411 573.845C555.633 573.217 557.099 573.296 558.246 574.053C559.394 574.81 560.043 576.127 559.947 577.498C559.85 578.869 559.021 580.081 557.779 580.67C555.901 581.559 553.657 580.777 552.737 578.914C551.818 577.051 552.563 574.795 554.411 573.845Z"
     id="path133" />
  <path
     fill="#2A4664"
     d="M852.779 216.716C855.829 216.223 858.907 217.411 860.835 219.824C862.763 222.237 863.243 225.501 862.09 228.367C860.937 231.232 858.33 233.255 855.268 233.66C850.627 234.273 846.353 231.046 845.673 226.414C844.992 221.783 848.158 217.463 852.779 216.716Z"
     id="path134" />
  <path
     fill="#BBD9EC"
     d="M852.163 221.87C853.322 221.209 854.747 221.224 855.892 221.909C857.037 222.593 857.725 223.841 857.692 225.175C857.659 226.509 856.911 227.721 855.733 228.348C853.948 229.299 851.731 228.64 850.755 226.869C849.779 225.097 850.406 222.871 852.163 221.87Z"
     id="path135" />
  <path
     fill="#2A4664"
     d="M853.244 569.281C857.848 568.884 861.935 572.214 862.476 576.803C863.017 581.392 859.816 585.581 855.246 586.265C852.16 586.727 849.068 585.472 847.176 582.99C845.285 580.509 844.894 577.195 846.157 574.342C847.42 571.489 850.136 569.549 853.244 569.281Z"
     id="path136" />
  <path
     fill="#BBD9EC"
     d="M852.897 574.255C854.88 573.74 856.904 574.934 857.413 576.918C857.922 578.903 856.723 580.923 854.737 581.427C852.759 581.928 850.749 580.735 850.242 578.758C849.735 576.782 850.922 574.768 852.897 574.255Z"
     id="path137" />
  <path
     fill="#2A4664"
     d="M351.293 512.347C357.611 512.551 356.482 516.046 359.53 519.632C360.747 521.063 360.922 519.436 363.303 521.135C363.416 522.697 363.572 521.93 362.458 523.414C356.938 525.028 360.618 527.095 356.48 531.37C351.3 536.722 343.605 536.825 338.262 531.599C336.967 530.332 331.63 523.032 331.63 521.532C332.651 520.168 331.967 520.714 334.083 520.307C334.847 517.243 337.071 513.717 340.021 512.437L340.843 512.814C342.151 517.61 338.835 515.945 338.04 519.762C340.171 524.439 337.632 522.558 338.043 524.692C339.615 532.87 351.265 534.54 355.41 527.21C357.922 522.769 354.873 524.964 354.319 521.993L355.63 520.26C355.025 517.022 351.631 516.388 351.293 512.347Z"
     id="path138" />
  <path
     fill="#2A4664"
     d="M277.159 234.638C281.674 234.384 292.374 233.585 295.645 236.216C296.147 237.57 296.16 238.521 296.298 239.941C298.764 241.633 299.944 239.514 302.624 241.496L302.551 242.598C300.175 245.584 296.382 245.942 293.294 243.769C292.191 242.302 292.397 241.51 292.4 239.65L292.408 238.969C288.742 238.195 280.664 238.464 276.624 238.501L276.313 244.492C273.32 244.615 269.528 245.184 267.088 243.639C266.374 242.093 266.474 242.888 266.86 241.162C268.966 239.568 270.271 241.296 272.764 239.677C273.123 238.606 273.206 238.288 273.346 237.198L273.458 236.285C275.068 234.754 274.672 235.221 277.159 234.638Z"
     id="path139" />
  <path
     fill="#2A4664"
     d="M203.681 514.75C207.708 515.209 209.847 517.63 213.202 519.576C220.011 523.524 212.634 527.022 208.76 529.732C207.78 530.451 206.924 530.852 205.855 531.405C201.888 531.362 205.224 528.303 202.303 525.342C200.88 525.151 199.869 525.197 198.801 524.285C198.699 522.675 198.55 523.414 199.237 521.978C203.734 521.615 203.28 518.473 203.681 514.75Z"
     id="path140" />
  <path
     fill="#2A4664"
     d="M219.781 323.818C220.345 324.059 220.965 324.493 221.506 324.83C221.51 327.206 216.562 331.155 214.309 333.798C216.559 337.097 221.648 340.859 222.205 343.497C219.15 346.377 212.254 337.24 209.924 334.996C207.271 337.607 209.575 337.06 207.454 339.301L205.483 339.299C204.613 338.294 204.896 337.88 204.773 336.212C202.966 335.878 201.103 335.756 199.738 334.611L199.883 333.561C201.559 332.061 201.196 332.557 204.108 332.448C205.309 331.572 205.125 330.047 205.437 328.127L206.136 327.681C207.765 328.699 208.199 330.652 209.978 332.431C212.071 331.178 216.491 326.293 219.781 323.818Z"
     id="path141" />
  <path
     fill="#2A4664"
     d="M287.833 326.947L289.107 327.257C290.629 330.438 290.006 339.764 289.916 343.713C286.389 342.301 284.033 340.999 280.68 339.173C278.462 337.929 276.112 336.363 273.947 334.987C277.324 332.276 283.817 329.056 287.833 326.947Z"
     id="path142" />
  <path
     fill="#2A4664"
     d="M217.363 227.151C219.365 228.168 218.733 227.428 219.602 229.18C219.513 231.623 217.668 234.892 216.569 237.325C218.945 237.041 220.435 236.461 222.237 238.123C223.013 241.396 219.035 247.352 217.271 250.863C215.427 251.185 216.257 251.304 214.665 250.755C213.706 247.908 215.526 244.691 216.715 241.809L210.672 241.647C211.943 236.297 214.241 231.639 217.363 227.151Z"
     id="path143" />
  <path
     fill="#2A4664"
     d="M354.711 421.93C356.582 422.14 355.831 421.765 357.129 422.892C356.985 425.952 340.694 432.278 337.34 432.944C336.305 433.15 333.083 433.143 331.876 433.134C330.351 432.793 329.731 432.494 329.359 431.009C331.69 427.333 336.958 429.659 340.244 428.224C345.262 426.031 349.528 423.878 354.711 421.93Z"
     id="path144" />
  <path
     fill="#2A4664"
     d="M224.607 512.665C225.733 513.059 225.334 512.857 226.251 513.666C227.284 516.059 227.132 518.339 227.227 520.981C229.386 520.979 231.412 520.789 233.177 522.02L232.774 522.929C229.81 525.132 229.845 523.857 227.462 525.144L227.374 526.381C227.334 528.925 227.444 529.847 226.129 531.906L225.299 531.987C222.679 529.358 222.565 515.774 224.607 512.665Z"
     id="path145" />
  <path
     fill="#2A4664"
     d="M512.581 715.598C516.675 715.435 525.185 714.189 527.492 717.72C527.51 719.443 527.391 719.344 526.357 720.777C522.794 721.87 514.845 722.807 512.353 719.344C511.863 717.598 512.07 717.309 512.581 715.598Z"
     id="path146" />
  <path
     fill="#2A4664"
     d="M225.392 321.626C226.609 321.741 226.764 321.813 227.942 322.186C229.147 324.468 228.703 343.022 228.325 346.338C226.871 346.282 226.884 346.347 225.553 345.817C224.38 343.551 225.081 325.135 225.392 321.626Z"
     id="path147" />
  <path
     fill="#2A4664"
     d="M271.615 324.098C272.406 324.397 273.384 324.898 273.59 325.712C274.698 330.085 275.021 341.855 273.272 345.752C271.778 345.412 270.781 344.984 270.602 343.298C270.074 338.318 269.183 328.361 271.615 324.098Z"
     id="path148" />
  <path
     fill="#2A4664"
     d="M295.967 324.723C297.193 325.275 297.76 325.804 297.935 327.201C298.435 331.188 299.45 342.458 297.389 345.589C297.096 345.417 296.803 345.244 296.51 345.072C293.103 341.969 293.801 327.855 295.967 324.723Z"
     id="path149" />
  <path
     fill="#2A4664"
     d="M398.943 715.617C402.472 715.291 410.941 714.277 412.827 717.641C412.512 718.967 412.284 718.927 411.195 719.842C407.909 720.49 400.497 721.291 398.246 718.483C398.059 716.494 397.876 717.426 398.943 715.617Z"
     id="path150" />
  <path
     fill="#2A4664"
     d="M461.31 655.237C462.911 655.332 462.795 655.324 464.12 656.249C466.255 659.861 465.573 666.463 463.052 669.819C458.264 667.371 458.979 659.026 461.31 655.237Z"
     id="path151" />
  <path
     fill="#2A4664"
     d="M429.654 663.421C434.357 664.758 438.682 671.888 436.395 676.579C432.284 675.599 426.231 667.618 429.654 663.421Z"
     id="path152" />
  <path
     fill="#2A4664"
     d="M514.582 685.392C516.775 685.697 517.529 686.258 517.483 688.298C515.629 691.334 511.781 693.19 508.692 694.898C506.955 695.055 506.254 694.932 505.172 693.704C505.515 689.94 511.555 687.044 514.582 685.392Z"
     id="path153" />
  <path
     fill="#2A4664"
     d="M491.696 663.304L494.034 663.569C497.181 666.427 491.643 672.998 489.657 675.664C488.94 675.742 488.485 675.631 487.752 675.551C484.749 672.658 489.603 665.928 491.696 663.304Z"
     id="path154" />
  <path
     fill="#2A4664"
     d="M407.357 686.216C411.511 687.121 419.64 690.103 417.675 695.494C413.801 694.763 408.635 692.777 406.292 689.399C406.136 687.517 406.14 688.157 407.357 686.216Z"
     id="path155" />
  <path
     fill="#2A4664"
     d="M346.392 508.758L347.937 509.578C349.271 512.038 349.345 522.767 347.291 525.073C343.746 522.559 344.174 511.757 346.392 508.758Z"
     id="path156" />
  <path
     fill="#2A4664"
     d="M357.039 429.194C359.82 429.027 364.322 428.48 366.17 430.906C365.725 432.785 366.136 431.911 364.578 433.448C361.763 433.516 356.701 433.969 355.047 431.463C355.577 430 355.714 430.106 357.039 429.194Z"
     id="path157" />
  <path
     fill="#2A4664"
     d="M343.206 330.199C345.559 330.574 349.124 334.725 351.05 336.388C352.32 337.483 351.958 338.617 351.928 340.289C351.038 340.354 349.596 340.626 348.929 340.264C346.199 338.784 343.926 333.078 343.206 330.199Z"
     id="path158" />
  <path
     fill="#2A4664"
     d="M218.838 517.139C222.409 519.028 221.693 525.08 220.317 528.186C216.814 526.165 217.984 520.404 218.838 517.139Z"
     id="path159" />
  <defs
     id="defs180">
    <linearGradient
       id="gradient_1"
       gradientUnits="userSpaceOnUse"
       x1="252.68726"
       y1="947.20984"
       x2="295.25391"
       y2="967.32227">
      <stop
         offset="0"
         stop-color="#20364F"
         id="stop179" />
      <stop
         offset="1"
         stop-color="#3A5066"
         id="stop180" />
    </linearGradient>
  </defs>
  <defs
     id="defs183">
    <linearGradient
       id="gradient_2"
       gradientUnits="userSpaceOnUse"
       x1="457.2005"
       y1="958.27356"
       x2="472.92654"
       y2="961.52838">
      <stop
         offset="0"
         stop-color="#1E3350"
         id="stop182" />
      <stop
         offset="1"
         stop-color="#2F4A5F"
         id="stop183" />
    </linearGradient>
  </defs>
</svg>
