<?xml version="1.0" encoding="UTF-8" standalone="no"?>
<svg
   width="187"
   height="195"
   viewBox="0 0 187 195"
   version="1.1"
   id="svg98"
   sodipodi:docname="destination_board_lights.svg"
   inkscape:version="1.4.4 (dcaf3e7d9e, 2026-05-05)"
   xmlns:inkscape="http://www.inkscape.org/namespaces/inkscape"
   xmlns:sodipodi="http://sodipodi.sourceforge.net/DTD/sodipodi-0.dtd"
   xmlns="http://www.w3.org/2000/svg"
   xmlns:svg="http://www.w3.org/2000/svg">
  <defs
     id="defs98">
    <linearGradient
       id="gradient_1"
       gradientUnits="userSpaceOnUse"
       x1="963.74487"
       y1="1051.7085"
       x2="872.21051"
       y2="934.47986"
       gradientTransform="matrix(1.5,0,0,1.5,-1282.936,-1392.0953)">
      <stop
         offset="0"
         stop-color="#28456C"
         id="stop16" />
      <stop
         offset="1"
         stop-color="#41699E"
         id="stop17" />
    </linearGradient>
  </defs>
  <sodipodi:namedview
     id="namedview98"
     pagecolor="#ffffff"
     bordercolor="#000000"
     borderopacity="0.25"
     inkscape:showpageshadow="2"
     inkscape:pageopacity="0.0"
     inkscape:pagecheckerboard="0"
     inkscape:deskcolor="#d1d1d1"
     inkscape:zoom="1.1077586"
     inkscape:cx="31.595331"
     inkscape:cy="266.3035"
     inkscape:window-width="1259"
     inkscape:window-height="1387"
     inkscape:window-x="12"
     inkscape:window-y="39"
     inkscape:window-maximized="1"
     inkscape:current-layer="svg98" />
  <path
     fill="#badbf8"
     d="m 36.378284,74.670715 c 4.94685,-0.5955 25.96545,-2.475 29.68785,-0.147 31.6605,0.321 63.322946,0.351 94.983446,0.09 l 0.1695,51.256505 c -6.0075,0.021 -29.166,0.834 -32.943,-1.281 -4.9605,-0.933 -26.36295,-0.6855 -32.508596,-0.675 l -63.08655,0.186 c 0.33015,-15.7185 0.0846,-32.424005 0.09045,-48.223505 0.5088,-0.498 2.72715,-0.9585 3.6069,-1.206 z"
     id="path523"
     style="stroke-width:1.5" />
  <path
     fill="#1b2f4a"
     d="m 36.378284,74.670715 c 4.94685,-0.5955 25.96545,-2.475 29.68785,-0.147 31.6605,0.321 63.322946,0.351 94.983446,0.09 l 0.1695,51.256505 c -6.0075,0.021 -29.166,0.834 -32.943,-1.281 0.2445,-15.9405 0.144,-32.212505 0.195,-48.183005 -28.425,0.048 -68.252846,1.299 -95.699696,-0.5295 0.5088,-0.498 2.72715,-0.9585 3.6069,-1.206 z"
     id="path524"
     style="stroke-width:1.5" />
  <path
     fill="#335584"
     d="m 36.378284,74.670715 c 4.94685,-0.5955 25.96545,-2.475 29.68785,-0.147 -10.6101,0.552 -19.0524,0.4425 -29.68785,0.147 z"
     id="path525"
     style="stroke-width:1.5" />
  <path
     fill="#375d8e"
     d="m 43.781984,86.135215 c 2.3091,0.069 5.03145,0.237 7.13475,1.26 2.91855,1.4175 5.0313,4.8345 5.7237,7.914 1.5738,6.999005 -1.16415,13.314005 -4.91205,19.026005 -2.23905,-0.093 -5.0109,-0.3825 -7.06965,-1.3095 -3.063,-1.3785 -5.3655,-4.827 -6.1371,-8.01 -1.7112,-7.057505 1.4076,-13.243505 5.26035,-18.880505 z"
     id="path526"
     style="stroke-width:1.5" />
  <path
     fill="#badbf8"
     d="m 45.026684,88.724215 4.41135,1.2495 c 1.4136,1.269 2.8662,2.619 3.58965,4.419 2.25975,5.622005 -0.22635,12.273005 -2.32035,17.530505 -1.90125,-0.384 -3.6777,-1.101 -5.5011,-1.7535 -1.2864,-1.431 -2.6787,-2.976 -3.3216,-4.8225 -1.93155,-5.545505 0.61545,-11.752505 3.14205,-16.623005 z"
     id="path527"
     style="stroke-width:1.5" />
  <path
     fill="#335584"
     d="m 111.62608,85.161715 c 3.216,0.7095 5.4405,1.152 7.7025,3.6855 2.5995,2.9115 2.967,11.239505 2.7495,14.994005 -0.3645,6.3015 -1.728,7.9785 -6.2985,12.0495 -1.7745,-0.6345 -4.3815,-1.341 -5.877,-2.484 -3.10485,-2.37 -3.5301,-5.7045 -3.8001,-9.3555 -0.51585,-6.975005 0.98955,-13.846505 5.5236,-18.889505 z"
     id="path528"
     style="stroke-width:1.5" />
  <path
     fill="#badbf8"
     d="m 111.06058,100.90272 c 2.565,-1.465505 5.826,-0.6855 7.4505,1.7805 1.6245,2.4675 1.053,5.7735 -1.3065,7.551 -1.6635,1.254 -3.888,1.479 -5.769,0.5835 -1.88265,-0.894 -3.1119,-2.7615 -3.1905,-4.8435 -0.0786,-2.0835 1.00635,-4.0365 2.8155,-5.0715 z"
     id="path529"
     style="stroke-width:1.5" />
  <path
     fill="#badbf8"
     d="m 112.47208,89.030215 c 2.163,-0.8505 4.611,0.1695 5.529,2.3055 0.918,2.136 -0.0255,4.6155 -2.1315,5.601 -1.422,0.6645 -3.0945,0.5025 -4.362,-0.423 -1.2678,-0.927 -1.93095,-2.4705 -1.73025,-4.0275 0.20055,-1.557 1.23375,-2.8815 2.69475,-3.456 z"
     id="path530"
     style="stroke-width:1.5" />
  <path
     fill="#335584"
     d="m 84.796934,86.630215 9.07395,0.1095 1.64805,1.7565 1.4409,-0.297 c -2.50725,0.7455 -6.4149,1.17 -7.85595,3.324 3.47715,3.162 8.5389,7.0755 10.79505,11.256005 1.656446,3.069 0.597746,4.686 -0.60465,7.587 -3.3264,3.165 -5.7927,4.113 -10.12155,5.2755 -2.3907,-2.196 -4.0542,-3.735 -5.2608,-6.7845 2.87385,0.723 5.74005,1.3365 8.6541,1.8765 3.12225,-1.425 3.24075,-1.557 4.7871,-4.6245 -0.59445,-3.966 -0.7155,-4.4295 -3.44715,-7.341005 -4.5513,-0.387 -5.6604,1.485005 -9.5742,3.466505 -1.51395,-4.798505 -0.15315,-10.653005 0.46515,-15.604505 z"
     id="path531"
     style="stroke-width:1.5" />
  <path
     fill="#335584"
     d="m 67.712984,84.854215 4.72725,1.1535 c 4.26705,3.8925 5.93355,10.9665 6.1449,16.786505 0.15735,4.3305 -0.9141,6.9675 -3.81015,10.1205 -3.78015,1.326 -4.58385,1.395 -8.5164,0.642 -2.6577,-2.511 -3.38385,-3.162 -4.46355,-6.6075 l 1.2639,0.5235 c 3.36975,2.4105 5.23545,3.399 9.46935,3.1155 2.59935,-2.127 2.38545,-2.451 2.99055,-5.6025 -1.54335,-3.561 -2.98545,-3.6285 -6.2607,-5.182505 0.87225,-2.4795 2.89605,-4.641 4.5042,-6.711 l -0.45705,-2.3205 c -4.1979,-1.161 -6.05415,-0.315 -10.15485,0.8025 0.45645,-3.105 2.47695,-4.4925 4.56255,-6.72 z"
     id="path532"
     style="stroke-width:1.5" />
</svg>
