<?xml version="1.0" encoding="UTF-8" standalone="no"?>
<svg
   width="187"
   height="195"
   viewBox="0 0 187 195"
   version="1.1"
   id="svg98"
   sodipodi:docname="door.svg"
   inkscape:version="1.4.4 (dcaf3e7d9e, 2026-05-05)"
   xmlns:inkscape="http://www.inkscape.org/namespaces/inkscape"
   xmlns:sodipodi="http://sodipodi.sourceforge.net/DTD/sodipodi-0.dtd"
   xmlns="http://www.w3.org/2000/svg"
   xmlns:svg="http://www.w3.org/2000/svg">
  <defs
     id="defs98">
    <linearGradient
       id="gradient_1"
       gradientUnits="userSpaceOnUse"
       x1="963.74487"
       y1="1051.7085"
       x2="872.21051"
       y2="934.47986"
       gradientTransform="matrix(1.5,0,0,1.5,-1282.936,-1392.0953)">
      <stop
         offset="0"
         stop-color="#28456C"
         id="stop16" />
      <stop
         offset="1"
         stop-color="#41699E"
         id="stop17" />
    </linearGradient>
  </defs>
  <sodipodi:namedview
     id="namedview98"
     pagecolor="#ffffff"
     bordercolor="#000000"
     borderopacity="0.25"
     inkscape:showpageshadow="2"
     inkscape:pageopacity="0.0"
     inkscape:pagecheckerboard="0"
     inkscape:deskcolor="#d1d1d1"
     inkscape:zoom="1.1077586"
     inkscape:cx="31.595331"
     inkscape:cy="266.3035"
     inkscape:window-width="1259"
     inkscape:window-height="1387"
     inkscape:window-x="12"
     inkscape:window-y="39"
     inkscape:window-maximized="1"
     inkscape:current-layer="svg98" />
  <path
     fill="#badbf8"
     d="m 34.316119,53.919683 c 8.9925,-1.1325 17.0325,-1.425 26.0595,-1.821 -0.0675,13.134 1.839,95.059497 -1.7295,99.536997 l -1.5075,-0.753 c -2.6385,-17.7585 -23.1165,-12.822 -21.8925,-33.342 4.683,0.3315 17.8215,12.399 21.819,15.981 0.06,-10.569 1.728,-72.412497 -1.878,-77.164497 l -1.7865,-0.525 c -2.2665,0.627 -6.123,1.3695 -7.7805,2.6865 -2.4465,0.483 -5.946,0.8055 -8.5065,1.125 l 0.4275,-1.149 c -2.2995,-1.881 -2.1795,-1.7715 -3.225,-4.575 z"
     id="path535"
     style="stroke-width:1.5" />
  <path
     fill="#4e77aa"
     d="m 37.113619,59.643683 0.4275,-1.149 c -2.2995,-1.881 -2.1795,-1.7715 -3.225,-4.575 5.0355,3.27 12.9405,2.235 19.0845,1.9125 -2.2665,0.627 -6.123,1.3695 -7.7805,2.6865 -2.4465,0.483 -5.946,0.8055 -8.5065,1.125 z"
     id="path536"
     style="stroke-width:1.5" />
  <path
     fill="#1b2f4a"
     d="m 33.513619,43.067183 c 15.8505,-2.229 110.259001,-2.7885 124.528501,0.102 1.644,0.333 2.112,1.8975 3,3.2625 -14.631,2.274 -30.669,1.17 -45.4785,1.248 -22.261501,0.1185 -44.704501,0.7365 -66.948001,-0.0675 -5.9775,-0.216 -10.911,-0.039 -15.102,-4.545 z"
     id="path537"
     style="stroke-width:1.5" />
  <path
     fill="#1b2f4a"
     d="m 135.86312,152.97518 c 7.5135,-0.276 15.7755,-0.675 22.7265,2.631 -7.167,3.4215 -86.839501,2.259 -101.736001,2.64 -6.7305,-0.1035 -13.182,0.2505 -19.47,-2.1525 l 0.036,-1.2225 c 13.7565,-3.024 78.576001,-1.5075 98.443501,-1.896 z"
     id="path538"
     style="stroke-width:1.5" />
  <path
     fill="#c6e1f8"
     d="m 134.70212,52.137683 c 5.706,0.0165 20.9865,-0.5775 24.435,2.6385 l -0.309,6.198 c -3.735,-2.1285 -6.546,-1.9575 -10.8495,-2.3085 -2.118,-1.179 -7.6995,-1.992 -10.3935,-2.523 l -0.102,76.328997 -2.751,-0.6045 c -0.9225,-24.7215 -0.072,-54.611997 -0.03,-79.729497 z"
     id="path539"
     style="stroke-width:1.5" />
  <path
     fill="#375d8e"
     d="m 137.58512,56.142683 c 6.621,-0.057 15.33,0.267 21.552,-1.3665 l -0.309,6.198 c -3.735,-2.1285 -6.546,-1.9575 -10.8495,-2.3085 -2.118,-1.179 -7.6995,-1.992 -10.3935,-2.523 z"
     id="path540"
     style="stroke-width:1.5" />
  <path
     fill="#badbf8"
     d="m 45.620119,58.518683 c 9.678,8.559 8.157,27.9795 6.3765,40.023 -0.576,3.887997 -3.288,6.427497 -6.66,8.297997 -4.1985,0.7365 -4.713,0.759 -8.6595,-0.8175 l 0.84,-1.815 c 15.1005,-3.6255 13.2495,-18.170997 12.069,-31.007997 -1.2015,-13.0695 -8.187,-7.08 -14.085,-11.1555 l 1.6125,-2.4 c 2.5605,-0.3195 6.06,-0.642 8.5065,-1.125 z"
     id="path541"
     style="stroke-width:1.5" />
  <path
     fill="#badbf8"
     d="m 147.97862,58.665683 c 4.3035,0.351 7.1145,0.18 10.8495,2.3085 -2.685,2.556 -5.955,0.423 -11.4465,3.876 -2.667,5.5905 -3.9045,30.1485 0.471,36.071997 1.737,2.3505 7.299,0.6285 10.6695,3.6375 -3.21,3.2085 -12.5055,3.039 -14.175,-1.812 -3.8475,-11.185497 -4.269,-35.110497 3.6315,-44.081997 z"
     id="path542"
     style="stroke-width:1.5" />
  <path
     fill="#badbf8"
     d="m 140.63462,134.01068 c 2.2155,-5.1855 14.6025,-16.2345 20.1135,-15.6 l -1.155,1.7265 c 3.135,8.7705 -7.5645,13.9695 -14.424,19.2585 l -3.114,-4.4055 -0.3975,0.2445 z"
     id="path543"
     style="stroke-width:1.5" />
  <path
     fill="#c6e1f8"
     d="m 140.63462,134.01068 c 2.2155,-5.1855 14.6025,-16.2345 20.1135,-15.6 l -1.155,1.7265 c -6.0495,4.824 -12.03,9.4005 -17.538,14.853 l -0.3975,0.2445 z"
     id="path544"
     style="stroke-width:1.5" />
  <path
     fill="#badbf8"
     d="m 134.73212,131.86718 2.751,0.6045 3.1515,1.539 1.023,1.224 0.3975,-0.2445 3.114,4.4055 c -6.3705,5.391 -5.8965,6.1755 -9.306,13.5795 -2.19,-4.8645 -1.281,-15.393 -1.131,-21.108 z"
     id="path545"
     style="stroke-width:1.5" />
</svg>
