<?xml version="1.0" encoding="UTF-8" standalone="no"?>
<svg
   width="928"
   height="1152"
   viewBox="0 0 928 1152"
   version="1.1"
   id="svg98"
   sodipodi:docname="engine.ts"
   inkscape:version="1.4.4 (dcaf3e7d9e, 2026-05-05)"
   xmlns:inkscape="http://www.inkscape.org/namespaces/inkscape"
   xmlns:sodipodi="http://sodipodi.sourceforge.net/DTD/sodipodi-0.dtd"
   xmlns="http://www.w3.org/2000/svg"
   xmlns:svg="http://www.w3.org/2000/svg">
  <defs
     id="defs98" />
  <sodipodi:namedview
     id="namedview98"
     pagecolor="#ffffff"
     bordercolor="#000000"
     borderopacity="0.25"
     inkscape:showpageshadow="2"
     inkscape:pageopacity="0.0"
     inkscape:pagecheckerboard="0"
     inkscape:deskcolor="#d1d1d1"
     inkscape:zoom="0.27693966"
     inkscape:cx="464"
     inkscape:cy="577.74319"
     inkscape:window-width="1259"
     inkscape:window-height="1387"
     inkscape:window-x="12"
     inkscape:window-y="39"
     inkscape:window-maximized="1"
     inkscape:current-layer="svg98" />
  <path
     fill="#BAD6E9"
     d="M564.893 148.163C586.033 146.278 614.711 156.498 636.039 159.948C647.265 161.764 661.924 165.802 670.453 173.494C674.129 176.773 677.13 180.738 679.287 185.168C684.384 195.666 689.747 225.01 690.473 237.351C658.864 246.887 627.151 256.077 595.34 264.917L467.279 301.471L391.74 323.03C378.345 326.813 362.554 331.774 349.033 333.954C338.778 335.607 322.872 330.848 312.455 328.243C273.533 316.792 232.102 308.894 193.518 296.906C194.715 282.302 197.47 253.437 204.978 241.128C207.882 236.347 211.983 232.407 216.877 229.697C226.315 224.389 262.165 216.716 275.027 213.614C282.763 229.245 312.535 227.939 327.691 227.217C337.933 226.73 349.456 223.832 356.359 215.739C357.437 210.303 357.126 201.011 357.11 195.206C379.739 190.667 405.684 184.21 428.275 178.873L501.269 162.037L537.314 153.583C546.366 151.464 555.661 148.945 564.893 148.163Z"
     id="path10" />
  <path
     fill="#28415A"
     d="M649.673 174.448C651.994 174.249 653.239 174.177 654.917 175.89C655.538 179.126 652.38 181.495 649.553 182.156C640.619 184.248 631.751 186.565 622.872 188.884C600.663 194.816 578.417 200.613 556.137 206.274C489.383 223.862 420.977 242.103 354.053 258.666C351.65 258.986 350.802 258.84 349.063 257.212C348.558 254.006 351.584 251.519 354.435 250.907C363.615 248.937 372.697 246.574 381.79 244.231C402.949 238.595 424.136 233.068 445.351 227.649L649.673 174.448Z"
     id="path11" />
  <path
     fill="#28415A"
     d="M226.912 230.641C246.397 229.45 290.261 243.888 310.095 248.229C334.927 253.663 343.238 284.939 345.283 306.242C345.765 311.266 348.172 320.059 344.943 324.487C343.691 324.516 340.348 324.161 340.087 322.73C336.116 300.981 337.503 269.208 314.129 257.947C300.162 251.217 281.481 248.769 266.263 244.634C253.851 241.261 240.233 239.334 227.569 236.931C226.375 236.703 225.892 235.469 225.431 234.565C225.541 232.478 225.659 232.409 226.912 230.641Z"
     id="path12" />
  <path
     fill="#BAD6E9"
     d="M691.47 309.978C697.395 309.514 701.084 312.55 704.261 317.158C724.522 346.564 745.012 375.857 764.962 405.471C767.472 409.198 770.673 415.207 767.885 419.309C763.731 421.788 741.411 428.84 735.873 430.688L672.159 452.171L513.875 505.502C488.535 514.075 463.136 522.855 437.791 531.441C435.028 532.377 433.066 532.605 430.173 532.741C423.932 531.702 419.85 529.936 416.155 524.48C406.696 510.509 397.693 496.185 388.571 481.982C380.436 469.421 372.421 456.782 364.527 444.068C359.943 436.757 349.242 423.732 353.021 415.059C354.257 412.222 360.398 410.116 363.301 409.167C374.286 405.577 385.449 402.447 396.513 399.061L481.435 373.514C550.743 352.471 621.997 329.892 691.47 309.978Z"
     id="path13" />
  <path
     fill="#28415A"
     d="M423.265 413.006C437.787 411.862 448.421 415.867 460.88 424.016C479.907 436.462 498.271 466.479 484.206 488.56C480.495 494.386 472.638 498.204 465.827 499.438C450.773 501.2 440.425 497.695 426.87 489.352C404.246 475.428 382.409 434.009 412.806 416.221C415.961 414.375 419.571 413.65 423.265 413.006Z"
     id="path14" />
  <path
     fill="#BAD6E9"
     d="M424.147 420.304C434.412 419.569 441.88 421.478 451.631 426.735C469.062 436.131 490.931 463.786 478.076 484.101C475.138 488.745 468.923 491.277 463.604 492.558C418.196 497.097 381.438 428.52 424.147 420.304Z"
     id="path15" />
  <path
     fill="#28415A"
     d="M505.241 387.663C559.704 383.152 596.476 461.119 547.858 472.412C495.439 478.305 453.677 400.102 505.241 387.663Z"
     id="path16" />
  <path
     fill="#28415A"
     d="M588.655 362.422C640.553 359.203 676.301 439.693 626.963 446.705C570.457 448.159 537.086 369.47 588.655 362.422Z"
     id="path17" />
  <path
     fill="#28415A"
     d="M665.788 338.259C715.475 334.59 753.772 411.276 705.478 420.872C691.695 421.348 683.282 418.268 671.061 410.343C652.769 398.481 633.011 370.058 646.824 348.24C650.76 342.023 658.627 339.363 665.788 338.259Z"
     id="path18" />
  <path
     fill="#28415A"
     d="M426.133 503.523C436.761 502.909 445.055 513.626 435.026 520.452C424.507 520.557 415.754 510.438 426.133 503.523Z"
     id="path19" />
  <path
     fill="#28415A"
     d="M373.346 419.043C383.231 418.944 392.435 429.244 382.149 435.401C370.753 436.378 362.73 424.588 373.346 419.043Z"
     id="path20" />
  <path
     fill="#28415A"
     d="M455.967 394.302C466.343 393.668 475.404 403.665 465.232 410.61C455.109 411.23 445.824 401.344 455.967 394.302Z"
     id="path21" />
  <path
     fill="#28415A"
     d="M507.97 475.984C518.04 476.568 524.694 488.393 513.096 492.983C502.871 491.195 495.412 479.628 507.97 475.984Z"
     id="path22" />
  <path
     fill="#28415A"
     d="M587.093 449.44C597.373 449.085 606.113 459.175 595.706 465.701C594.904 465.716 594.102 465.701 593.302 465.657C585.214 465.164 577.883 456.158 587.093 449.44Z"
     id="path23" />
  <path
     fill="#28415A"
     d="M537.109 369.068C547.847 367.462 556.442 378.484 546.985 384.786C536.817 385.152 527.802 376.688 537.109 369.068Z"
     id="path24" />
  <path
     fill="#28415A"
     d="M666.453 423.58C675.577 423.121 684.47 432.232 675.641 439.257C665.161 439.926 657.274 430.961 666.453 423.58Z"
     id="path25" />
  <path
     fill="#28415A"
     d="M617.495 344.735C626.734 345.348 634.951 355.196 625.117 360.123C614.972 360.281 607.418 350.659 617.495 344.735Z"
     id="path26" />
  <path
     fill="#28415A"
     d="M742.819 399.871C751.186 399.829 759.73 409.428 750.095 414.822C741.063 414.852 733.516 405.623 742.819 399.871Z"
     id="path27" />
  <path
     fill="#28415A"
     d="M690.622 321.214C699.217 321.233 706.987 328.709 698.668 335.33C690.102 335.687 681.566 327.273 690.622 321.214Z"
     id="path28" />
  <path
     fill="#BAD6E9"
     d="M198.301 375.777C201.172 386.332 209.027 394.979 214.919 404.064C216.441 406.412 222.733 415.064 224.906 416.078C240.923 423.547 259.809 426.2 276.701 431.662C287.349 435.008 294.984 436.822 305.524 439.504C307.882 439.832 312.384 440.636 314.413 439.116C325.778 430.607 332.201 421.683 345.051 414.622C344.37 423.465 344.963 426.688 349.607 434.292C355.62 444.138 362.002 453.717 368.152 463.472C377.74 478.756 387.426 493.977 397.212 509.134C405.629 522.229 409.091 532.405 423.88 538.634C421.507 540.591 419.06 542.542 416.924 544.76C412.486 549.367 363.758 626.555 361.564 632.785C359.067 639.874 359.236 648.463 361.671 655.542C366.671 670.078 382.211 686.359 384.895 700.844C386.979 712.084 385.76 724.78 385.95 736.268L387.519 801.009C381.043 801.244 378.239 800.689 372.04 798.631C344.101 789.358 316.429 779.019 288.464 769.85C308.241 761.946 314.201 744.644 318.043 725.443C322.342 722.229 323.473 721.494 327.25 717.576C337.4 707.049 335.058 682.562 330.369 669.932C328.384 665.515 324.924 661.629 322.397 657.569C311.515 640.064 309.632 618.606 306.768 598.621C305.364 588.828 303.811 578.315 302.952 568.501C312.322 566.742 317.435 565.142 325.767 561.018L326.573 616.48C326.688 626.305 326.666 636.307 326.981 646.119C327.073 648.989 327.211 650.332 329.265 652.135C336.509 653.915 334.19 641.454 334.168 636.606L333.632 597.187L332.744 517.785C332.515 506.639 333.444 477.008 327.907 468.69C320.726 461.788 308.671 459.532 299.175 456.844L267.052 447.806L238.33 439.698C227.209 436.532 204.603 426.926 203.157 446.751C202.619 454.126 203.215 462.771 203.416 470.234L204.478 511.804L206.159 579.095C206.444 591.463 206.684 603.89 207.063 616.253C207.103 617.539 207.216 619.224 208.239 619.959C210.039 621.251 209.677 621.128 211.643 621.209C214.148 619.662 214.251 616.674 214.198 613.987C214.016 604.797 213.685 595.606 213.464 586.417L211.363 498.293C211.121 488.652 208.773 448.884 212.42 442.461C216.679 440.187 235.71 446.608 241.214 448.152C237.764 450.256 231.059 454.56 230.945 459.043C230.194 488.543 232.008 518.394 232.48 547.947C232.51 549.809 233.19 554.487 234.272 555.842C241.131 564.433 252.608 566.54 262.758 568.709C263.505 583.674 263.731 611.22 260.412 625.529C243.578 625.205 227.541 632.357 211.56 637.534C201.016 640.951 190.839 653.205 186.978 663.548C177.594 688.684 180.18 712.971 190.222 737.068C185.378 735.027 180.514 733.53 175.471 731.343C173.888 700.139 173.015 667.51 173.51 636.227C173.709 623.65 187.829 617.194 189.907 606.046C191.387 598.103 189.907 584.609 188.792 576.299C186.708 567.776 179.612 555.622 175.452 547.537L146.501 490.666C142.565 482.977 126.936 456.735 130.26 448.151C135.363 437.436 147.809 425.41 156.181 416.816C168.521 404.149 183.266 384.412 198.301 375.777Z"
     id="path29" />
  <path
     fill="#BAD6E9"
     d="M705.174 708.777L705.8 709.389C706.467 715.207 704.522 728.304 699.617 732.075C693.337 736.904 683.256 740.052 675.757 742.905L633.94 758.84C618.474 764.682 605.851 768.234 591.939 777.413C572.085 790.511 576.116 812.746 560.936 824.61C554.589 829.572 529.022 838.746 520.27 842.205L460.233 865.937L419.524 882.012C408.353 886.428 388.147 895.84 376.648 894.051C362.689 891.879 346.34 885.248 332.82 880.339L284.577 862.982L250.134 850.422C235.014 844.855 226.955 843.63 216.71 830.343C208.511 817.076 209.318 787.215 208.615 770.518C217.627 772.971 227.23 779.282 235.46 780.936C248.134 783.482 258.942 787.704 271.107 791.918L333.891 813.79C350.87 819.768 376.767 832.049 394.232 826.715C405.148 823.382 417.788 818.229 428.623 814.12L492.762 789.602L705.174 708.777Z"
     id="path30" />
  <path
     fill="#28415A"
     d="M381.232 837.86C382.612 837.914 386.083 838.003 386.159 839.881C386.464 847.489 388.038 878.255 385.265 883.763C384.05 884.165 383.504 884.065 382.222 884.057C381.362 883.557 379.829 882.704 379.843 881.526C379.93 873.673 377.985 843.363 381.232 837.86Z"
     id="path31" />
  <path
     fill="#BAD6E9"
     d="M205.073 327.528C217.691 330.289 233.557 334.937 246.198 338.324L297.052 351.561C311.513 355.405 327.908 360.512 342.613 362.046C348.739 362.686 357.309 360.611 363.405 359.232C363.432 373.066 363.882 387.221 364.026 401.119C355.168 403.808 347.499 406.153 338.873 409.533L338.431 372.387C337.961 369.776 337.569 369.529 335.302 368.433C329.618 369.199 331.437 383.951 331.536 388.735C331.768 397.266 331.87 405.799 331.841 414.332C325.599 419.301 316.077 429.538 310.482 432.936C309.532 432.872 308.586 432.753 307.65 432.582C298.853 430.973 232.975 413.093 228.921 409.933C223.409 405.637 210.865 385.103 206.122 378.105C205.638 371.618 205.865 362.615 205.805 355.934C205.643 346.464 205.4 336.995 205.073 327.528Z"
     id="path32" />
  <path
     fill="#BAD6E9"
     d="M220.091 643.02C269.866 638.705 296.093 722.996 271.491 758.661C265.217 767.757 260.422 771.065 250.151 774.077C190.559 781.69 162.301 656.006 220.091 643.02Z"
     id="path33" />
  <path
     fill="#28415A"
     d="M231.771 675.161C255.589 674.387 267.595 714.749 255.953 731.958C249.954 740.825 240.15 741.56 230.719 743.54C206.59 746.134 193.583 704.605 206.778 687.689C211.724 681.347 223.998 676.19 231.771 675.161Z"
     id="path34" />
  <path
     fill="#BAD6E9"
     d="M217.736 688.517C238.256 688.536 247.222 726.808 229.937 735.598C210.742 737.267 199.945 696.464 217.736 688.517Z"
     id="path35" />
  <path
     fill="#BAD6E9"
     d="M229.884 682.442C249.43 680.277 260.365 715.921 247.538 730.844C246.249 731.828 246.063 732.078 244.436 732.427C243.805 730.915 244.542 729.308 244.993 727.627C247.346 718.855 245.743 707.803 242.408 699.516C239.798 693.03 234.734 688.052 229.72 683.576L229.884 682.442Z"
     id="path36" />
  <path
     fill="#BAD6E9"
     d="M766.523 428.158L766.692 428.428C767.035 432.311 713.357 509.306 710.118 520.286C706.148 533.75 717.945 545.097 723.978 556.896C741.127 590.437 746.226 632.784 733.964 668.828C719.165 665.036 703.802 660.492 689.04 656.363C692.572 649.136 693.959 643.631 694.852 635.656C698.241 634.387 701.702 633.347 705.157 632.27L705.487 632.142C710.093 630.31 713.082 628.76 715.522 624.063C721.882 611.817 716.982 592.416 704.771 585.542C697.493 581.445 690.816 584.561 683.649 586.718C675.549 573.704 667.232 568.017 653.249 563.154L654.861 555.269C657.801 555.211 660.735 555 663.652 554.637C670.187 553.776 679.848 551.073 683.794 545.246C687.187 540.235 698.014 478.739 696.506 472.551C694.77 465.424 686.13 460.605 680.241 457.38C708.509 447.143 738.007 437.966 766.523 428.158Z"
     id="path37" />
  <path
     fill="#BAD6E9"
     d="M697.646 234.875C708.251 238.783 708.78 240.571 707.374 251.865C699.196 255.429 676.145 261.417 666.895 264.073L589.129 286.58L433.43 331.565C409.079 338.561 382.557 346.888 358.166 353.128C353.485 354.362 348.658 354.953 343.817 354.886C335.595 354.728 298.419 344.377 287.885 341.6L182.237 313.884C176.194 311.287 175.637 305.433 178.266 299.991C180.035 296.329 182.458 295.864 186.002 294.7C187.401 301.115 188.726 303.027 195.278 305.141C200.635 306.87 206.293 308.044 211.754 309.409C221.939 311.947 232.109 314.541 242.265 317.19C261.641 322.389 281.053 327.455 300.498 332.39C318.547 337.077 338.469 344.817 357.061 340.096C370.091 336.787 383.162 332.917 396.116 329.23L470.509 307.982L614.879 266.725C626.994 263.291 688.066 247.263 693.372 243.461C696.449 241.256 697.106 238.376 697.646 234.875Z"
     id="path38" />
  <path
     fill="#BAD6E9"
     d="M733.961 677.786L734.868 678.192C736.035 681.667 735.203 685.976 734.661 689.566C715.374 697.95 690 706.569 669.863 714.228L542.077 762.866L445.712 799.764C429.013 806.184 412.195 813.345 395.197 818.853C391.007 820.211 386.506 821.023 382.092 820.967C370.661 820.819 335.11 806.643 322.125 802.078L265.745 782.462C263.479 781.698 261.015 780.668 258.767 779.789C265.121 777.773 271.495 775.824 277.889 773.943C296.919 780.286 315.898 786.782 334.823 793.431C342.35 796.042 378.194 809.332 382.716 808.67C398.747 806.324 430.786 792.847 446.813 786.782L513.863 761.333L733.961 677.786Z"
     id="path39" />
  <path
     fill="#BAD6E9"
     d="M238.471 500.813C262.589 512.845 300.36 511.11 324.935 501.125C325.16 508.963 326.469 549.091 324.519 553.06C308.275 566.055 253.66 567.589 239.714 550.94C239.685 534.81 238.801 517.128 238.471 500.813Z"
     id="path40" />
  <path
     fill="#28415A"
     d="M256.417 516.466C269.835 518.342 274.031 539.147 259.461 544.829C245.578 542.057 242.856 520.482 256.417 516.466Z"
     id="path41" />
  <path
     fill="#BAD6E9"
     d="M490.301 621.694C497.361 620.849 506.252 621.475 510.973 627.587C517.723 636.326 522.113 646.442 528.053 655.846C538.96 673.11 557.062 688.03 548.81 710.604C543.907 723.668 533.029 725.787 521.115 721.193C517.406 719.141 506.51 708.567 502.45 704.971C518.448 689.36 508.708 651.979 483.336 659.133C480.017 660.069 476.314 661.477 473.01 662.613C472.554 661.24 472.108 659.864 471.672 658.485C466.014 640.39 471.802 627.097 490.301 621.694Z"
     id="path42" />
  <path
     fill="#BAD6E9"
     d="M393.63 653.231C396.121 653.028 398.628 653.272 401.034 653.951C407.198 655.749 410.578 660.02 413.317 665.555C416.341 671.94 419.667 678.143 422.665 684.544C431.288 703.078 446.415 721.097 438.907 742.765C433.822 757.442 423.566 762.14 409.143 757.274C403.238 754.205 396.908 748.726 393.265 743.144C395.057 742.464 397.621 741.546 399.24 740.667C416.117 731.511 410.935 702.786 396.748 693.615C394.25 691.999 392.273 691.42 389.455 690.695C385.929 683.193 379.18 672.25 374.817 664.711C379.72 657.376 384.888 654.493 393.63 653.231Z"
     id="path43" />
  <path
     fill="#BAD6E9"
     d="M254.124 632.487C302.695 634.283 327.719 719.937 298.704 753.991C292.99 760.698 287.662 762.695 279.666 765.2C278.459 765.594 277.912 765.92 276.7 765.569C276.711 765.07 282.711 753.702 283.627 750.892C297.193 709.278 279.413 652.739 236.268 637.155C242.53 634.569 247.335 633.08 254.124 632.487Z"
     id="path44" />
  <path
     fill="#BAD6E9"
     d="M514.767 540.682C535.797 553.533 565.475 556.771 588.09 546.254C587.391 552.359 584.55 582.575 581.972 586.382C566.8 600.541 522.034 596.846 510.658 578.282C511.315 567.173 513.486 551.934 514.767 540.682Z"
     id="path45" />
  <path
     fill="#BAD6E9"
     d="M585.422 593.248C589.109 593.425 591.899 595.093 595.109 596.703C622.444 610.413 635.21 674.835 603.293 688.873C613.853 669.937 614.177 649.632 606.923 629.153C604.23 623.362 601.347 614.685 595.837 611.035C593.637 609.578 591.879 612.652 591.47 614.471C591.989 617.136 594.026 619.734 595.567 622.1C600.466 630.951 603.455 640.732 604.342 650.81C605.946 669.877 600.663 693.208 578.148 695.185C578.698 688.207 578.638 681.398 578.615 674.411C581.792 672.761 583.903 671.667 586.133 668.591C595.979 655.015 588.002 628.11 570.067 625.986C567.97 625.738 565.025 626.326 562.895 626.716C563.039 618.46 563.455 609.923 563.68 601.622C572.841 599.663 577.598 598.692 585.422 593.248Z"
     id="path46" />
  <path
     fill="#BAD6E9"
     d="M719.418 516.661C725.009 520.886 731.627 530.078 735.728 536C770.379 586.027 775.536 683.98 718.81 720.949C716.855 722.14 714.4 723.241 712.314 724.252C712.989 717.616 713.263 712.472 713.424 705.794C722.031 701.87 738.092 698.72 741.638 690.914C745.062 683.374 740.117 675.83 741.606 669.393C743.527 661.085 745.368 653.976 746.546 645.474C750.391 616.383 745.884 586.798 733.551 560.172C728.792 549.916 722.917 541.252 717.838 531.315C715.561 526.861 717.342 521.07 719.418 516.661Z"
     id="path47" />
  <path
     fill="#BAD6E9"
     d="M651.788 570.604C682.281 578.677 694.547 621.668 684.574 648.801C681.635 656.795 677.882 661.053 670.191 664.527C671.235 662.588 672.207 660.611 673.103 658.599C680.169 642.576 678.756 620.243 672.146 604.366C669.374 597.71 663.663 586.266 656.685 583.229C655.011 583.717 654.951 583.82 653.52 584.695C653.14 585.463 652.332 586.647 652.996 587.522C660.816 597.898 666.686 606.695 669.284 619.986C672.473 636.303 670.113 666.428 649.627 670.82C647.628 671.248 645.987 671.197 644.331 669.97C643.873 668.306 644.239 667.974 644.812 666.279C650.299 650.979 654.05 645.279 648.289 629.49C641.918 612.03 648.323 588.508 651.788 570.604Z"
     id="path48" />
  <path
     fill="#BAD6E9"
     d="M416.397 557.932C435.527 571.889 466.678 574.068 487.839 563.437C486.846 572.227 485.84 584.798 483.653 593.509C483.487 594.169 481.969 595.697 481.392 596.25C478.153 598.345 475.105 600.068 471.41 601.253C453.39 607.031 422.043 601.987 410.468 586.093C410.274 574.028 409.854 567.807 416.397 557.932Z"
     id="path49" />
  <path
     fill="#28415A"
     d="M423.531 569.751C427.835 569.688 431.042 570.894 433.465 574.662C435.071 577.15 435.62 580.174 434.992 583.067C434.234 586.602 432.776 588.026 429.917 589.92C417.391 591.514 414.231 575.928 423.531 569.751Z"
     id="path50" />
  <path
     fill="#BAD6E9"
     d="M402.389 580.309C402.894 582.091 402.921 584.886 403.64 586.802C407.39 596.791 414.978 600.453 423.813 604.632C421.372 618.976 418.17 640.28 413.933 653.565C412.95 652.663 411.909 651.826 410.818 651.059C403.139 645.564 394.851 646.243 385.959 647.701C378.248 650.275 375.935 651.64 370.426 657.607C362.968 637.084 370.379 630.948 381.18 613.888L402.389 580.309Z"
     id="path51" />
  <path
     fill="#BAD6E9"
     d="M421.032 342.588L422.389 342.609C423.465 344.326 423.318 378.626 423.381 383.184C407.643 388.558 389.149 393.576 373.006 398.365L372.015 398.572L371.314 398.007C370.846 384.654 370.915 370.589 370.708 357.146L421.032 342.588Z"
     id="path52" />
  <path
     fill="#BAD6E9"
     d="M490.356 521.457L510.422 514.514L505.775 555.332C502.979 579.835 499.065 586.087 524.482 597.557C522.55 607.158 521.087 615.038 517.938 624.39C515.342 621.427 512.112 618.152 508.369 616.759C486.741 608.712 467.978 619.329 462.812 640.893C460.587 637.588 463.051 635.483 462.073 631.025L461.199 631.604L461.823 610.569C471.292 609.134 483.421 606.46 489.305 598.051C492.62 593.313 499.327 538.015 498.044 533.027C496.845 528.364 493.584 524.857 490.356 521.457Z"
     id="path53" />
  <path
     fill="#BAD6E9"
     d="M504.946 318.487C505.887 320.408 505.458 353.665 505.443 358.498C488.448 363.47 471.493 368.579 454.58 373.824C453.614 370.795 453.751 339.129 453.626 333.366C470.577 328.209 487.876 323.677 504.946 318.487Z"
     id="path54" />
  <path
     fill="#BAD6E9"
     d="M613.228 503.067C618.573 506.037 619.528 508.085 627.727 511.812C645.295 519.952 665.398 520.688 683.514 513.853C681.573 521.886 680.828 532.946 678.169 540.74C662.914 555.181 618.621 547.135 609.965 528.64C610.489 521.425 612.165 510.313 613.228 503.067Z"
     id="path55" />
  <path
     fill="#28415A"
     d="M622.929 515.253C626.889 515.283 629.563 515.925 632.005 519.364C633.724 521.78 634.372 524.798 633.797 527.707C633.021 531.518 631.374 533.167 628.252 535.097C624.1 535.276 621.239 534.323 618.979 530.586C617.404 527.929 616.965 524.749 617.763 521.764C618.625 518.437 620.119 516.947 622.929 515.253Z"
     id="path56" />
  <path
     fill="#BAD6E9"
     d="M585.525 295.38L586.148 295.505C586.979 296.829 586.693 329.305 586.702 333.842C571.451 338.821 552.686 344.593 537.294 348.676L536.936 348.402C536.02 346.178 536.082 314.228 536.036 309.724C552.476 304.75 568.974 299.968 585.525 295.38Z"
     id="path57" />
  <path
     fill="#BAD6E9"
     d="M664.499 272.285C665.675 272.079 665.284 272.058 666.381 272.326C667.223 274.996 666.623 304.312 666.612 309.567C651.469 314.544 634.705 319.336 619.365 323.942L618.334 324.092L617.637 323.442C617.117 319.944 617.375 312.091 617.374 308.104C617.33 300.784 617.232 293.464 617.079 286.146C632.918 281.638 648.725 277.018 664.499 272.285Z"
     id="path58" />
  <path
     fill="#F1E4A5"
     d="M774.388 238.061C777.339 238.186 780.441 238.656 783.225 239.675C832.721 257.797 863.839 317.463 846.55 368.054C845.51 369.614 844.901 370.417 843.097 370.938C840.311 369.472 840.942 364.639 841.154 361.563C842.351 344.194 839.041 324.294 832.302 308.13C824.69 289.684 812.992 273.206 798.09 259.938C792.802 255.22 787.327 250.628 781.121 247.171C778.582 245.756 774.492 243.663 773.21 241.061C773.454 238.845 773.06 239.803 774.388 238.061Z"
     id="path59" />
  <path
     fill="#BAD6E9"
     d="M608.419 481.603C609.144 482.358 604.395 514.469 603.896 517.641C601.312 534.094 604.814 538.364 618.57 547.076C615.041 557.769 607.164 583.638 601.85 592.501C600.289 591.496 598.523 590.483 596.918 589.515C594.805 588.336 593.046 587.705 590.812 586.841C592.037 576.71 600.698 510.044 599.06 504.397C596.893 496.928 590.223 493.264 583.841 489.851C591.057 487.024 600.895 484.09 608.419 481.603Z"
     id="path60" />
  <path
     fill="#BAD6E9"
     d="M287.329 569.999L296.221 569.658C296.708 578.302 298.332 588.847 299.507 597.598C302.128 617.117 304.541 635.513 312.084 653.855C315.415 661.955 324.855 670.853 325.645 677.638C326.907 688.482 329.673 702.618 323.266 711.92C321.863 713.38 320.097 714.591 318.463 715.814C318.099 699.566 315.062 683.279 308.515 668.359C304.955 660.244 302.538 658.839 300.235 649.218C294.113 623.647 290.192 596.085 287.329 569.999Z"
     id="path61" />
  <path
     fill="#BAD6E9"
     d="M179.191 357.722C180.958 358.607 189.297 368.989 191.15 371.207C179.039 380.069 161.399 400.325 150.79 411.808C146.832 406.059 142.49 400.407 138.292 394.815C146.748 378.329 162.273 365.022 179.191 357.722Z"
     id="path62" />
  <path
     fill="#F1E4A5"
     d="M755.915 274.982C759.177 275.278 761.773 275.614 764.871 276.739C798.895 289.088 817.643 328.989 805.717 362.854C804.402 364.319 803.564 365.067 801.532 364.843C799.062 362.448 799.598 353.663 799.311 349.946C798.521 340.158 796.197 330.555 792.424 321.488C786.736 307.639 778.086 297.075 766.601 287.419C763.848 285.104 758.21 282.887 755.949 279.61C754.951 278.163 755.594 276.674 755.915 274.982Z"
     id="path63" />
  <path
     fill="#BAD6E9"
     d="M571.513 493.892C576.607 493.224 586.562 499.217 590.256 502.712C594.491 506.719 593.719 510.038 589.162 513.162C577.73 520.999 560.741 521.138 547.597 519.025C538.044 517.797 531.083 515.289 522.928 510.354C538.906 504.714 555.434 499.306 571.513 493.892Z"
     id="path64" />
  <path
     fill="#BAD6E9"
     d="M282.342 197.793C301.766 206.17 330.122 205.606 349.801 198.026C349.862 201.993 350.242 210.493 349.125 213.746C334.563 223.615 297.38 222.441 282.38 213.281C282.274 208.227 282.352 202.872 282.342 197.793Z"
     id="path65" />
  <path
     fill="#BAD6E9"
     d="M667.96 461.239C670.168 460.535 676.457 463.147 678.609 464.293C692.575 471.728 693.472 483.324 676.021 486.578C666.628 488.33 659.581 487.98 650.036 486.512C640.927 484.829 632.277 481.241 624.651 475.982C639.144 471.237 653.582 466.322 667.96 461.239Z"
     id="path66" />
  <path
     fill="#BAD6E9"
     d="M430.711 607.227C433.339 607.634 438.012 608.939 440.748 609.622C439.784 632.567 434.837 658.1 440.355 680.665C441.08 683.629 442.409 687.132 443.408 690.07L438.83 687.401C436.258 686.003 433.895 685.143 431.175 684.084C426.658 676.511 422.773 668.393 419.107 660.379C424.022 649.385 428.629 620.198 430.711 607.227Z"
     id="path67" />
  <path
     fill="#BAD6E9"
     d="M489.419 664.896C503.157 666.409 508.422 692.673 496.712 699.256C495.007 700.215 481.402 705.24 479.591 704.685C477.513 689.88 470.09 687.882 463.841 673.226C472.239 670.179 480.887 667.566 489.419 664.896Z"
     id="path68" />
  <path
     fill="#BAD6E9"
     d="M447.791 610.457L454.827 610.809C453.453 629.102 451.631 661.427 458.138 678.377C460.684 685.006 471.056 696.065 471.645 701.517C470.752 703.007 469.416 703.313 467.762 704.031L459.486 707.838C454.764 697.276 447.335 684.102 445.966 672.579C443.687 653.386 446.507 629.705 447.791 610.457Z"
     id="path69" />
  <path
     fill="#BAD6E9"
     d="M481.409 524.281C488.054 528.176 496.629 538.039 487.121 543.94C474.835 551.565 456.666 550.481 442.829 548.153C437.44 546.818 434.02 545.551 429.005 543.235C435.714 539.275 445.941 536.331 453.535 533.791C462.844 530.672 472.135 527.502 481.409 524.281Z"
     id="path70" />
  <path
     fill="#BAD6E9"
     d="M269.978 569.628C273.46 569.737 277.056 569.969 280.546 570.147C281.309 586.612 284.535 603.998 286.97 620.341C287.661 624.978 290.662 638.469 290.737 641.858L290.065 641.919C283.478 634.595 276.844 631.1 268.115 627.232C270.235 605.653 270.36 591.32 269.978 569.628Z"
     id="path71" />
  <path
     fill="#BAD6E9"
     d="M252.089 451.683C256.585 451.428 306.262 466.352 313.697 468.636C309.19 470.435 304.579 471.231 299.799 471.853C289.507 473.576 236.445 474.989 238.245 459.488C240.958 455.149 247.427 453.267 252.089 451.683Z"
     id="path72" />
  <path
     fill="#BAD6E9"
     d="M641.183 554.22L647.523 554.872C643.315 576.59 636.602 601.424 639.33 623.557C640.152 630.226 645.794 640.271 643.328 647C641.359 649.024 641.252 648.57 638.213 649.474L628.991 652.81C628.824 642.312 628.406 628.848 628.968 618.548C629.426 610.181 632.432 596.528 634.132 588.139C636.392 576.814 638.742 565.507 641.183 554.22Z"
     id="path73" />
  <path
     fill="#BAD6E9"
     d="M305.697 180.783C311.303 180.299 316.937 180.208 322.556 180.512C327.066 180.762 349.525 182.874 349.016 189.184C345.081 194.072 333.431 195.523 327.47 196.236C319.007 197.106 310.472 197.01 302.03 195.95C298.067 195.414 282.149 192.617 282.973 187.174C286.509 183.432 300.529 181.311 305.697 180.783Z"
     id="path74" />
  <path
     fill="#BAD6E9"
     d="M531.84 599.442C535.395 600.368 539.115 601.043 542.729 601.753C541.023 617.861 539.422 637.268 542.284 653.292C543.173 658.271 547.11 665.709 547.786 670.442L547.296 670.457L545.564 668.027C534.265 653.734 531.736 648.291 523.205 632.355C527.253 619.713 529.122 612.333 531.84 599.442Z"
     id="path75" />
  <path
     fill="#BAD6E9"
     d="M625.3 549.909L634.255 552.835C631.019 567.342 627.949 581.885 625.045 596.462C623.909 602.284 622.982 609.58 621.717 615.076L621.009 615.1L620.019 613.422C616.131 606.969 612.888 603.285 608.02 597.628C615.297 581.259 619.661 566.862 625.3 549.909Z"
     id="path76" />
  <path
     fill="#BAD6E9"
     d="M549.54 601.967L556.532 602.095C555.873 618.843 553.905 635.661 559.201 651.703C561.6 658.968 570.118 668.726 570.424 674.405C569.626 676.228 569.993 675.62 567.651 676.681L559.441 679.883C556.909 671.689 552.527 662.491 550.37 654.722C546.19 639.671 548.626 618.144 549.54 601.967Z"
     id="path77" />
  <path
     fill="#BAD6E9"
     d="M445.041 335.862L445.883 335.875C446.906 337.129 446.924 371.231 446.985 375.923C442.244 377.558 436.941 379.114 432.126 380.623L431.151 380.639C430.268 379.349 430.271 344.697 430.229 340.098C434.406 339.154 440.784 337.1 445.041 335.862Z"
     id="path78" />
  <path
     fill="#BAD6E9"
     d="M526.872 312.27L528.182 312.174C529.519 314.706 529.191 345.755 529.213 351.192C524.242 352.827 519.25 354.395 514.238 355.899C513.304 356.045 513.742 356 512.679 355.566C511.958 346.849 512.533 326.024 512.438 316.45L526.872 312.27Z"
     id="path79" />
  <path
     fill="#BAD6E9"
     d="M237.938 471.698C258.118 482.087 284.211 481.469 306.152 478.06C310.799 477.339 319.346 471.951 323.163 474.741C323.897 476.733 323.834 476.893 323.764 479.065C306.06 489.52 253.473 492.286 238.378 477.859C237.631 476.197 237.901 473.618 237.938 471.698Z"
     id="path80" />
  <path
     fill="#BAD6E9"
     d="M608.787 288.628L609.311 288.726C610.587 290.752 610.266 322.35 610.278 326.742C605.423 327.952 600.172 329.764 595.369 331.304C594.657 331.279 594.766 331.192 594.046 330.785C593.748 318.494 594.004 305.252 594.023 292.889L608.787 288.628Z"
     id="path81" />
  <path
     fill="#BAD6E9"
     d="M237.885 486.651C239.864 487.533 241.861 488.374 243.874 489.173C265.779 497.638 302.628 496.465 324.325 486.803C324.398 488.903 324.315 491.311 324.296 493.438C316.017 498.62 299.238 501.353 288.765 501.735C275.823 502.208 250.315 502.164 240.123 493.309C237.746 491.244 237.937 489.534 237.885 486.651Z"
     id="path82" />
  <path
     fill="#F1E4A5"
     d="M739.749 309.412C763.647 308.925 777.29 333.972 768.363 355.419C767.019 356.979 766.887 357.375 765.007 357.879C764.049 357.63 762.911 357.405 762.612 356.146C760.844 348.687 760.831 343.174 758.453 335.55C754.924 324.238 744.082 319.594 739.336 313.201C738.848 311.45 739.126 311.108 739.749 309.412Z"
     id="path83" />
  <path
     fill="#BAD6E9"
     d="M695.731 590.676C707.507 588.371 714.285 611.899 709.109 620.106C706.685 623.949 706.193 624.092 702.238 625.555C699.968 626.292 697.506 626.988 695.206 627.681C694.339 613.912 693.127 606.333 687.241 593.437L695.731 590.676Z"
     id="path84" />
  <path
     fill="#BAD6E9"
     d="M168.147 346.558C170.81 346.744 173.91 348.427 174.56 351.119C173.032 352.822 164.189 357.134 161.522 358.923C150.687 366.192 142.09 375.385 134.913 386.091C133.96 387.63 134.594 387.129 133.105 387.817C131.445 386.889 130.493 384.484 129.544 382.698C133.218 368.146 153.93 349.824 168.147 346.558Z"
     id="path85" />
  <path
     fill="#BAD6E9"
     d="M471.89 709.84L472.805 710.068C474.438 716.592 471.878 731.453 471.373 738.378C470.776 746.56 464.98 754.81 455.69 753.337L454.979 753.014C454.45 751.022 458.843 746.079 459.44 743.391C461.423 734.465 462.085 723.87 461.312 714.889C464.546 713.118 468.5 711.407 471.89 709.84Z"
     id="path86" />
  <path
     fill="#BAD6E9"
     d="M517.761 515.118C535.721 529.564 569.466 530.104 590.016 521.041L590.634 521.39C590.603 523.407 590.25 523.78 589.305 525.65C574.203 537.593 532.371 535.653 518.396 520.851C516.924 519.292 517.449 517.111 517.761 515.118Z"
     id="path87" />
  <path
     fill="#BAD6E9"
     d="M569.14 632.901C580.098 634.808 584.352 649.145 582.546 658.832C581.727 663.223 580.288 664.707 576.809 667.061C575.53 666.225 571.738 659.919 570.64 658.19C567.298 652.93 561.959 641.341 563.429 635.129C565.09 633.564 566.855 633.437 569.14 632.901Z"
     id="path88" />
  <path
     fill="#BAD6E9"
     d="M167.841 737.586C173.478 738.095 187.888 744.049 194.366 746.149C198.192 752.181 201.714 756.867 205.552 762.632C195.506 759.784 185.361 755.601 175.407 752.421C166.696 749.638 167.106 745.784 167.841 737.586Z"
     id="path89" />
  <path
     fill="#BAD6E9"
     d="M423.164 548.694C439.825 555.874 455.065 558.501 473.615 556.267C477.106 555.847 483.985 552.395 488.683 551.95L489.181 552.683C488.777 554.284 487.92 554.886 486.745 556.065C470.654 566.983 443.64 563.699 426.785 556.355C424.796 555.489 423.147 554.104 421.81 552.419C421.495 550.405 421.668 550.97 423.164 548.694Z"
     id="path90" />
  <path
     fill="#BAD6E9"
     d="M616.673 478.903C633.417 491.665 652.681 496.652 673.74 494.035C678.261 493.474 682.165 491.824 686.521 490.752L686.839 491.467L685.542 493.835C668.552 505.137 636.157 500.37 620.795 487.375C617.613 484.683 616.751 482.997 616.673 478.903Z"
     id="path91" />
  <path
     fill="#BAD6E9"
     d="M435.713 694.367C444.803 696.908 454.496 709.436 454.519 719.126C454.548 731.533 455.071 740.531 446.67 750.216L442.124 754.141C453.051 728.985 447.554 716.914 435.713 694.367Z"
     id="path92" />
  <path
     fill="#BAD6E9"
     d="M570.74 682.859C571.448 683.211 571.177 683.128 571.72 683.981C571.763 691.076 569.939 704.669 566.307 711.028C563.412 716.099 560.001 717.802 554.721 719.067L553.721 718.605C553.221 716.785 556.017 713.072 556.418 710.998C557.979 702.923 559.597 694.614 561.445 686.631L570.74 682.859Z"
     id="path93" />
  <path
     fill="#BAD6E9"
     d="M515.851 528.416C519.255 530.108 521.738 532.273 525.611 533.866C542.462 540.8 563.001 542.822 580.549 537.543C582.903 536.835 586.73 534.703 588.959 534.721C589.38 536.137 588.961 536.198 588.201 537.966C580.866 542.765 572.981 544.313 564.315 545.167C553.665 546.217 516.559 542.417 515.851 528.416Z"
     id="path94" />
  <path
     fill="#BAD6E9"
     d="M614.556 491.558C617.481 492.95 622.322 497.567 625.576 499.095C641.82 506.728 660.567 509.563 678.086 504.986C680.83 504.269 681.531 503.429 684.152 502.583L684.827 503.113L684.621 504.795C679.472 508.424 676.426 508.81 670.399 510.432C657.738 513.84 617.275 507.334 614.556 491.558Z"
     id="path95" />
  <path
     fill="#BAD6E9"
     d="M392.484 699.535C402.379 705.742 405.352 721.66 399.438 731.562C396.906 733.842 396.248 734.091 393.164 735.206L392.484 699.535Z"
     id="path96" />
  <path
     fill="#BAD6E9"
     d="M639.842 656.515C640.174 656.776 640.166 657.029 640.37 657.546C637.511 666.706 635.102 680.507 624.092 682.179C623.682 681.449 623.342 680.599 623.597 679.788C625.949 672.292 627.739 668.274 628.483 660.416L639.842 656.515Z"
     id="path97" />
  <path
     fill="#C2DBF3"
     d="M461.199 631.604L462.073 631.025C463.051 635.483 460.587 637.588 462.812 640.893C462.075 649.803 462.814 653.762 465.578 662.423C466.029 663.836 465.451 664.342 464.793 665.363C463.041 665.843 463.828 665.963 462.338 665.128C459.793 660.943 461.019 637.784 461.199 631.604Z"
     id="path98" />
</svg>
