<?xml version="1.0" encoding="UTF-8" standalone="no"?>
<svg
   width="187"
   height="195"
   viewBox="0 0 187 195"
   version="1.1"
   id="svg98"
   sodipodi:docname="fan.svg"
   inkscape:version="1.4.4 (dcaf3e7d9e, 2026-05-05)"
   xmlns:inkscape="http://www.inkscape.org/namespaces/inkscape"
   xmlns:sodipodi="http://sodipodi.sourceforge.net/DTD/sodipodi-0.dtd"
   xmlns="http://www.w3.org/2000/svg"
   xmlns:svg="http://www.w3.org/2000/svg">
  <defs
     id="defs98">
    <linearGradient
       id="gradient_1"
       gradientUnits="userSpaceOnUse"
       x1="963.74487"
       y1="1051.7085"
       x2="872.21051"
       y2="934.47986"
       gradientTransform="matrix(1.5,0,0,1.5,-1282.936,-1392.0953)">
      <stop
         offset="0"
         stop-color="#28456C"
         id="stop16" />
      <stop
         offset="1"
         stop-color="#41699E"
         id="stop17" />
    </linearGradient>
  </defs>
  <sodipodi:namedview
     id="namedview98"
     pagecolor="#ffffff"
     bordercolor="#000000"
     borderopacity="0.25"
     inkscape:showpageshadow="2"
     inkscape:pageopacity="0.0"
     inkscape:pagecheckerboard="0"
     inkscape:deskcolor="#d1d1d1"
     inkscape:zoom="1.1077586"
     inkscape:cx="31.595331"
     inkscape:cy="266.3035"
     inkscape:window-width="1259"
     inkscape:window-height="1387"
     inkscape:window-x="12"
     inkscape:window-y="39"
     inkscape:window-maximized="1"
     inkscape:current-layer="svg98" />
  <path
     fill="#1b2f4a"
     d="m 40.475868,40.816141 c 20.5845,-0.393 89.886002,-3.1035 106.257002,1.314 3.1545,0.8505 4.8795,1.248 6.471,4.236 5.49,10.314 5.1555,97.798499 1.3395,110.548499 -2.5185,3.555 -5.649,4.62 -9.5205,6.21 -18.066,0.705 -91.455002,3.39 -105.609002,-1.59 -3.4545,-1.215 -5.5215,-2.76 -7.0365,-6.075 -4.677,-10.23 -4.086,-97.144499 0.1575,-107.672999 1.614,-4.0065 4.2345,-5.292 7.941,-6.9705 z"
     id="path69"
     style="stroke-width:1.5" />
  <path
     fill="#335584"
     d="m 85.766868,55.550641 c 25.080002,-4.1565 48.850502,12.5985 53.373002,37.62 4.524,25.028999 -11.8755,49.043999 -36.8235,53.933999 -16.467002,3.225 -33.397502,-2.67 -44.302502,-15.42 -10.905,-12.765 -14.094,-30.4035 -8.346,-46.171499 5.748,-15.7695 19.5435,-27.2205 36.099,-29.9625 z"
     id="path70"
     style="stroke-width:1.5" />
  <path
     fill="#badbf8"
     d="m 105.74237,105.83964 c 3.732,0.9855 7.3125,2.3295 9.852,5.4 2.2755,2.76 3.2655,6.225 2.649,9.75 -1.1505,6.615 -5.763,10.275 -11.0295,13.71 -3.1215,0.69 -5.82,1.11 -9.019502,0.945 -2.4435,-2.31 -3.096,-3.465 -3.279,-7.065 -0.381,-7.44 5.851502,-17.565 10.827002,-22.74 z"
     id="path71"
     style="stroke-width:1.5" />
  <path
     fill="#badbf8"
     d="m 87.853368,111.70464 c -3.042,22.2 -26.052,14.1 -29.6835,-1.749 0.912,-4.3425 0.0315,-2.769 3.492,-5.862 6.8595,-2.058 14.1945,0.588 21.1515,2.397 z"
     id="path72"
     style="stroke-width:1.5" />
  <path
     fill="#badbf8"
     d="m 82.949868,67.193641 c 2.6265,-0.2235 5.1405,-0.471 7.7595,-0.0435 2.172,0.3555 2.2395,1.125 3.4845,2.8485 0.9015,9.2685 -6.9465,19.3575 -11.4405,27.147 -3.606,-1.1295 -7.101,-2.151 -9.5295,-5.2815 -2.295,-2.958 -3.2205,-6.366 -2.5065,-10.062 1.419,-7.365 6.246,-10.923 12.2325,-14.6085 z"
     id="path73"
     style="stroke-width:1.5" />
  <path
     fill="#badbf8"
     d="m 111.11537,76.213141 c 7.0335,1.572 11.202,4.257 15.231,10.2945 2.1495,3.222 3.2895,6.18 2.4705,10.0605 -2.958,2.553 -3.4695,2.3205 -7.4385,2.4675 -7.9035,-1.3125 -13.7895,-2.013 -19.8105,-7.665 -0.7305,-1.9005 -1.660502,-3.216 -1.11,-5.2485 1.3575,-5.01 6.48,-7.554 10.6575,-9.909 z"
     id="path74"
     style="stroke-width:1.5" />
  <path
     fill="#badbf8"
     d="m 86.746368,98.966641 c 1.5675,-4.002 6.075,-5.982 10.0815,-4.4295 4.008002,1.5525 6.006002,6.052499 4.468502,10.066499 -1.536002,4.014 -6.028502,6.03 -10.047002,4.509 l -3.396,2.592 -5.04,-5.214 c 3.3255,-2.9865 2.5425,-2.9145 3.933,-7.523999 z"
     id="path75"
     style="stroke-width:1.5" />
  <path
     fill="#375d8e"
     d="m 82.813368,106.49064 c 3.3255,-2.9865 2.5425,-2.9145 3.933,-7.523999 -0.7605,1.940999 -0.7125,4.106999 0.1335,6.013499 0.846,1.905 2.4195,3.3945 4.3695,4.1325 l -3.396,2.592 z"
     id="path76"
     style="stroke-width:1.5" />
  <path
     fill="#335584"
     d="m 139.10387,142.70964 c 2.8605,-1.53 6.42,-0.465 7.9725,2.385 1.5525,2.85 0.516,6.42 -2.3205,7.995 -2.868,1.59 -6.483,0.54 -8.052,-2.34 -1.569,-2.88 -0.492,-6.48 2.4,-8.04 z"
     id="path77"
     style="stroke-width:1.5" />
  <path
     fill="#335584"
     d="m 138.28037,50.561641 c 1.7265,-1.3095 4.0335,-1.566 6.0045,-0.6645 1.9725,0.9015 3.2895,2.8125 3.429,4.9755 0.141,2.1645 -0.9195,4.23 -2.7585,5.3775 -2.67,1.6665 -6.1785,0.9375 -7.965,-1.6545 -1.7865,-2.592 -1.218,-6.1305 1.29,-8.034 z"
     id="path78"
     style="stroke-width:1.5" />
  <path
     fill="#335584"
     d="m 42.983868,142.75464 c 2.8605,-1.335 6.255,-0.135 7.6575,2.685 1.4025,2.82 0.303,6.255 -2.4795,7.725 -1.869,1.005 -4.131,0.9 -5.9055,-0.255 -1.7745,-1.155 -2.7825,-3.18 -2.631,-5.295 0.1515,-2.115 1.4385,-3.975 3.3585,-4.86 z"
     id="path79"
     style="stroke-width:1.5" />
  <path
     fill="#335584"
     d="m 44.236368,49.204141 c 2.9985,-0.6795 6.0075,1.0965 6.8625,4.05 0.8535,2.955 -0.7425,6.063 -3.6405,7.089 -2.0325,0.72 -4.296,0.255 -5.88,-1.209 -1.5825,-1.464 -2.226,-3.684 -1.668,-5.7675 0.558,-2.0835 2.223,-3.6855 4.326,-4.1625 z"
     id="path80"
     style="stroke-width:1.5" />
</svg>
