<?xml version="1.0" encoding="UTF-8" standalone="no"?>
<svg
   width="187"
   height="195"
   viewBox="0 0 187 195"
   version="1.1"
   id="svg98"
   sodipodi:docname="hand_brake.svg"
   inkscape:version="1.4.4 (dcaf3e7d9e, 2026-05-05)"
   xmlns:inkscape="http://www.inkscape.org/namespaces/inkscape"
   xmlns:sodipodi="http://sodipodi.sourceforge.net/DTD/sodipodi-0.dtd"
   xmlns="http://www.w3.org/2000/svg"
   xmlns:svg="http://www.w3.org/2000/svg">
  <defs
     id="defs98">
    <linearGradient
       id="gradient_1"
       gradientUnits="userSpaceOnUse"
       x1="963.74487"
       y1="1051.7085"
       x2="872.21051"
       y2="934.47986"
       gradientTransform="matrix(1.5,0,0,1.5,-1282.936,-1392.0953)">
      <stop
         offset="0"
         stop-color="#28456C"
         id="stop16" />
      <stop
         offset="1"
         stop-color="#41699E"
         id="stop17" />
    </linearGradient>
  </defs>
  <sodipodi:namedview
     id="namedview98"
     pagecolor="#ffffff"
     bordercolor="#000000"
     borderopacity="0.25"
     inkscape:showpageshadow="2"
     inkscape:pageopacity="0.0"
     inkscape:pagecheckerboard="0"
     inkscape:deskcolor="#d1d1d1"
     inkscape:zoom="1.1077586"
     inkscape:cx="31.595331"
     inkscape:cy="266.3035"
     inkscape:window-width="1259"
     inkscape:window-height="1387"
     inkscape:window-x="12"
     inkscape:window-y="39"
     inkscape:window-maximized="1"
     inkscape:current-layer="svg98" />
  <path
     fill="#1b2f4a"
     d="m 88.293112,48.991863 c 25.487998,-3.4704 49.036498,14.1762 52.868998,39.617097 3.831,25.4409 -13.4745,49.24395 -38.853,53.43795 -16.741498,2.766 -33.673498,-3.6975 -44.315998,-16.917 -10.641,-13.21905 -13.341,-31.14525 -7.065,-46.913397 6.2745,-15.7683 20.553,-26.93535 37.365,-29.22465 z"
     id="path497"
     style="stroke-width:1.5" />
  <path
     fill="#badbf8"
     d="m 89.386612,56.983413 c 21.373498,-2.86365 41.014498,12.16365 43.846498,33.546447 2.8305,21.3828 -12.222,41.00655 -33.604498,43.80555 -21.3375,2.7945 -40.9065,-12.2235 -43.731,-33.5613 -2.826,-21.337797 12.1605,-40.933047 33.489,-43.790697 z"
     id="path498"
     style="stroke-width:1.5" />
  <path
     fill="#1b2f4a"
     d="m 90.100612,78.362163 c 0.9405,0.50715 1.731,1.0209 2.3445,1.9266 5.4255,8.002647 1.665,25.421697 0.207,34.561347 l -10.5315,-8.3976 c -2.5395,-1.2864 -6.3735,-1.1313 -9.2295,-1.39365 -2.292,-2.6055 -2.151,-5.93655 -1.9965,-9.37455 0.4845,-10.796547 11.286,-10.129347 18.108,-16.309197 z"
     id="path499"
     style="stroke-width:1.5" />
  <path
     fill="#badbf8"
     d="m 87.802612,86.40816 c 2.8755,2.6601 2.7675,7.09845 2.793,10.99755 0.021,3.08235 -0.3165,5.07915 -2.448,7.26 l -3.4155,-2.10075 c -2.1495,-0.5202 -5.046,-0.96375 -6.783,-2.38605 -1.926,-1.5759 -1.6785,-2.43015 -1.7985,-4.71615 2.424,-4.3719 7.4895,-6.58665 11.652,-9.0546 z"
     id="path500"
     style="stroke-width:1.5" />
  <path
     fill="#1b2f4a"
     d="m 104.29511,79.223913 c 1.9545,0.2478 3.801,0.71955 5.7135,1.1829 2.0085,1.7379 3.6045,3.3699 4.5645,5.904597 3.2685,8.6319 -0.0255,18.76125 -3.8955,26.57475 l -2.3265,-0.1539 c -3.2685,-4.54005 1.6005,-16.5867 0.393,-23.11815 -0.639,-3.44925 -2.883,-7.251447 -4.449,-10.390197 z"
     id="path501"
     style="stroke-width:1.5" />
  <path
     fill="#1b2f4a"
     d="m 98.809612,85.165263 c 2.095498,1.094847 4.013998,3.104097 4.891498,5.306697 2.3565,5.91465 0.3795,11.69055 -2.175,17.1021 -1.374,-0.67665 -2.108998,-1.56615 -3.107998,-2.706 0.2085,-6.1536 -1.104,-13.926 0.3915,-19.702797 z"
     id="path502"
     style="stroke-width:1.5" />
  <path
     fill="#1b2f4a"
     d="m 134.09261,49.690713 c 18.231,1.95045 26.694,31.2033 25.7775,46.401447 -1.14,18.9174 -6.4305,31.77375 -19.977,44.74875 l -2.8245,0.0555 -2.175,-2.1465 c -0.2475,-8.391 17.817,-18.336 17.928,-41.2158 0.1275,-26.074197 -18.771,-32.516697 -18.729,-47.843397 z"
     id="path503"
     style="stroke-width:1.5" />
  <path
     fill="#1b2f4a"
     d="m 50.779612,49.927863 c 1.2045,0.5169 2.2005,1.58025 3.24,2.4864 0.153,9.9462 -16.3815,24.2121 -17.2845,41.949447 -1.0515,20.66385 19.182,35.6262 16.8015,47.5542 -3.3525,-1.2525 -6.267,-3.1455 -8.7075,-5.715 -24.9045,-26.22975 -17.463,-62.976897 5.9505,-86.275047 z"
     id="path504"
     style="stroke-width:1.5" />
</svg>
