<?xml version="1.0" encoding="UTF-8" standalone="no"?>
<svg
   width="928"
   height="1152"
   viewBox="0 0 928 1152"
   version="1.1"
   id="svg159"
   sodipodi:docname="headlight.svg"
   inkscape:version="1.4.4 (dcaf3e7d9e, 2026-05-05)"
   xmlns:inkscape="http://www.inkscape.org/namespaces/inkscape"
   xmlns:sodipodi="http://sodipodi.sourceforge.net/DTD/sodipodi-0.dtd"
   xmlns="http://www.w3.org/2000/svg"
   xmlns:svg="http://www.w3.org/2000/svg">
  <sodipodi:namedview
     id="namedview159"
     pagecolor="#ffffff"
     bordercolor="#000000"
     borderopacity="0.25"
     inkscape:showpageshadow="2"
     inkscape:pageopacity="0.0"
     inkscape:pagecheckerboard="0"
     inkscape:deskcolor="#d1d1d1"
     inkscape:zoom="0.39165182"
     inkscape:cx="311.50117"
     inkscape:cy="543.8504"
     inkscape:window-width="2560"
     inkscape:window-height="1387"
     inkscape:window-x="0"
     inkscape:window-y="53"
     inkscape:window-maximized="1"
     inkscape:current-layer="svg159" />
  <path
     fill="#BDDAEE"
     d="M201.55 296.01C224.855 292.96 248.067 291.082 271.442 289.035C365.476 280.656 459.96 278.508 554.277 282.606C608.069 284.643 672.795 288.591 726.295 296.016C726.798 304.407 726.519 314.972 726.715 323.608C727.314 345.59 727.8 367.574 728.174 389.561L731.853 573.674C732.188 577.718 732.317 580.476 732.269 584.524C732.193 587.644 732.176 590.765 732.218 593.885C731.47 592.541 731.348 592.22 731.206 590.692C730.086 590.323 727.842 591.117 726.848 591.982C724.217 594.271 706.817 598.855 704.332 598.626C705.742 624.367 708.11 650.207 709.558 675.967C709.721 678.862 709.929 682.05 710.276 684.912C710.266 686.674 709.979 688.675 710.958 690.022L712.851 690.658C709.246 690.483 707.193 690.446 703.611 690.711C708.581 694.018 708.505 688.847 712.365 693.889L712.516 695.235C710.337 696.412 710.226 695.032 707.173 696.388C712.225 696.453 720.457 696.061 724.871 697.949C725.205 699.305 725.563 700.679 725.84 702.045L726.011 709.46L726.123 734.765L697.362 734.874C697.413 727.097 697.716 718.925 697.284 711.276C696.703 700.969 691.723 700.397 682.938 700.512C675.231 700.613 671.355 702.919 671.41 711.051C671.433 712.368 667.284 712.097 666.906 713.69C665.896 717.935 665.434 724.929 667.02 729.001C668.616 729.84 671.426 731.081 672.237 732.557C671.932 734.348 672.326 733.526 670.602 734.876L202.115 734.84C201.337 729.743 202.117 719.034 201.629 712.39C200.004 712.916 198.34 713.334 196.641 712.971L195.875 715.835L196.374 700.596L196.368 699.456L195.97 699.117C195.622 699.646 195.39 699.968 195.016 700.467L194.171 700.21C193.78 690.689 194.48 675.66 194.597 665.671C194.906 639.535 195.47 613.403 196.286 587.278L196.259 580.66C196.103 557.482 197.162 533.766 197.372 510.529C198.018 439.136 201.132 367.348 201.55 296.01Z"
     id="path19" />
  <path
     fill="#6E7158"
     d="M661.296 600.512C662.886 601.938 664.777 603.546 666.22 605.08L671.407 611.333C668.536 612.795 667.906 612.912 664.819 613.583C663.884 612.329 662.303 610.623 661.237 609.396C658.512 606.599 656.749 605.351 653.567 603.014C654.465 602.482 659.748 601.014 661.296 600.512Z"
     id="path20" />
  <path
     fill="#BDDAEE"
     d="M339.058 668.835C340.752 671.847 340.738 671.824 343.472 673.642C337.712 680.756 332.404 686.248 323.943 690.364C347.984 690.534 372.026 690.521 396.067 690.327L548.608 690.396C553.234 691.395 557.558 690.692 561.845 690.965C571.867 691.603 597.201 689.868 605.65 691.605L606.128 692.371C605.676 694.214 605.618 694.12 604.227 695.503C601.001 696.591 600.566 694.773 595.447 696.4C614.131 697.09 636.965 696.529 656.05 696.588C667.427 696.627 678.804 696.579 690.18 696.446C694.83 696.428 702.778 696.692 707.173 696.388C712.225 696.453 720.457 696.061 724.871 697.949C725.205 699.305 725.563 700.679 725.84 702.045L726.011 709.46L726.123 734.765L697.362 734.874C697.413 727.097 697.716 718.925 697.284 711.276C696.703 700.969 691.723 700.397 682.938 700.512C675.231 700.613 671.355 702.919 671.41 711.051C671.433 712.368 667.284 712.097 666.906 713.69C665.896 717.935 665.434 724.929 667.02 729.001C668.616 729.84 671.426 731.081 672.237 732.557C671.932 734.348 672.326 733.526 670.602 734.876L202.115 734.84C201.337 729.743 202.117 719.034 201.629 712.39C200.004 712.916 198.34 713.334 196.641 712.971L195.875 715.835L196.374 700.596L196.368 699.456C200.552 689.099 208.227 690.65 217.739 690.504C218.707 687.762 221.393 684.64 224.477 685.566L224.5 688.592L225.106 687.963C225.747 688.652 226.395 689.425 227.43 689.475C238.463 690.008 250.513 690.521 260.071 684.577C256.346 683.961 250.825 685.758 246.558 685.551C251.457 683.388 258.465 684.72 263.987 680.706L260.918 677.392C262.532 675.714 264.613 675.387 266.921 674.693C268.206 675.895 269.757 677.466 271.151 678.461C293.729 696.95 321.627 690.951 339.058 668.835Z"
     id="path21" />
  <defs
     id="defs22">
    <linearGradient
       id="gradient_0"
       gradientUnits="userSpaceOnUse"
       x1="399.69095"
       y1="665.40198"
       x2="403.57886"
       y2="712.02002">
      <stop
         offset="0"
         stop-color="#606256"
         id="stop21" />
      <stop
         offset="1"
         stop-color="#1C3E68"
         id="stop22" />
    </linearGradient>
  </defs>
  <path
     fill="url(#gradient_0)"
     d="M339.058 668.835C340.752 671.847 340.738 671.824 343.472 673.642C337.712 680.756 332.404 686.248 323.943 690.364C347.984 690.534 372.026 690.521 396.067 690.327L548.608 690.396C553.234 691.395 557.558 690.692 561.845 690.965C571.867 691.603 597.201 689.868 605.65 691.605L606.128 692.371C605.676 694.214 605.618 694.12 604.227 695.503C601.001 696.591 600.566 694.773 595.447 696.4C560.135 696.853 523.995 696.47 488.627 696.466L325.006 696.553L247.325 696.57C235.133 696.561 222.955 696.54 210.765 696.413C207.56 696.379 203.936 696.719 202.525 699.965C199.809 700.601 199.178 700.615 196.374 700.596L196.368 699.456C200.552 689.099 208.227 690.65 217.739 690.504C218.707 687.762 221.393 684.64 224.477 685.566L224.5 688.592L225.106 687.963C225.747 688.652 226.395 689.425 227.43 689.475C238.463 690.008 250.513 690.521 260.071 684.577C256.346 683.961 250.825 685.758 246.558 685.551C251.457 683.388 258.465 684.72 263.987 680.706L260.918 677.392C262.532 675.714 264.613 675.387 266.921 674.693C268.206 675.895 269.757 677.466 271.151 678.461C293.729 696.95 321.627 690.951 339.058 668.835Z"
     id="path22" />
  <path
     fill="#D2DBCA"
     d="M246.558 685.551C251.457 683.388 258.465 684.72 263.987 680.706C268.889 685.293 271.785 687.059 277.713 690.304C269.611 690.382 229.301 691.518 224.824 689.957L224.5 688.592L225.106 687.963C225.747 688.652 226.395 689.425 227.43 689.475C238.463 690.008 250.513 690.521 260.071 684.577C256.346 683.961 250.825 685.758 246.558 685.551Z"
     id="path23" />
  <path
     fill="#4D5A5C"
     d="M196.374 700.596C199.178 700.615 199.809 700.601 202.525 699.965C202.41 706.762 202.859 729.444 202.115 734.84C201.337 729.743 202.117 719.034 201.629 712.39C200.004 712.916 198.34 713.334 196.641 712.971L195.875 715.835L196.374 700.596Z"
     id="path24" />
  <path
     fill="#FADB6D"
     d="M277.148 601.128C289.163 594.831 300.989 592.826 314.219 596.908C326.456 600.688 336.633 609.277 342.416 620.706C348.068 631.725 348.751 645.029 344.956 656.749C343.599 661.047 341.611 665.121 339.058 668.835C321.627 690.951 293.729 696.95 271.151 678.461C269.757 677.466 268.206 675.895 266.921 674.693C249.662 655.335 249.483 631.577 265.191 611.33C266.109 610.258 267.554 608.852 268.57 607.798C271.796 604.943 273.582 603.536 277.148 601.128Z"
     id="path25" />
  <path
     fill="#D2DBCA"
     d="M277.148 601.128C289.163 594.831 300.989 592.826 314.219 596.908C326.456 600.688 336.633 609.277 342.416 620.706C348.068 631.725 348.751 645.029 344.956 656.749C343.599 661.047 341.611 665.121 339.058 668.835C321.627 690.951 293.729 696.95 271.151 678.461C272.955 675.851 276.768 675.359 279.968 674.523L278.548 673.346C281.26 672.051 284.952 673.056 289.019 672.519C296.566 676.906 309.499 674.557 316.593 670.087C325.839 664.261 329.604 658.092 332.252 647.641C335.707 643.649 334.348 639.955 338.512 637.205C338.42 634.792 337.516 631.181 336.709 628.912C333.244 619.285 326.077 611.44 316.803 607.122C315.96 607.642 315.011 608.327 314.108 608.621C310.766 607.969 308.202 607.987 305.171 609.725C301.408 609.593 296.679 609.213 293.145 610.568C290.854 610.346 283.743 609.33 282.108 608.23C279.538 609.495 278.52 610.255 276.261 611.894C273.922 610.254 271.672 609.932 268.57 607.798C271.796 604.943 273.582 603.536 277.148 601.128Z"
     id="path26" />
  <path
     fill="#837C4C"
     d="M332.252 647.641C335.707 643.649 334.348 639.955 338.512 637.205C339.299 649.444 337.436 658.559 328.939 668.108C322.205 675.734 312.643 680.273 302.477 680.668C294.31 681.037 286.787 679.068 279.968 674.523L278.548 673.346C281.26 672.051 284.952 673.056 289.019 672.519C296.566 676.906 309.499 674.557 316.593 670.087C325.839 664.261 329.604 658.092 332.252 647.641Z"
     id="path27" />
  <path
     fill="#6E7158"
     d="M282.108 608.23C284.199 606.977 286.173 606.151 288.469 605.362C297.768 602.128 307.975 602.762 316.803 607.122C315.96 607.642 315.011 608.327 314.108 608.621C310.766 607.969 308.202 607.987 305.171 609.725C301.408 609.593 296.679 609.213 293.145 610.568C290.854 610.346 283.743 609.33 282.108 608.23Z"
     id="path28" />
  <path
     fill="#FADB6D"
     d="M268.57 607.798C271.672 609.932 273.922 610.254 276.261 611.894C273.344 614.689 271.7 616.276 269.419 619.63C267.804 622.06 266.888 624.049 265.489 626.576C258.165 639.808 264.374 666.282 278.548 673.346L279.968 674.523C276.768 675.359 272.955 675.851 271.151 678.461C269.757 677.466 268.206 675.895 266.921 674.693C249.662 655.335 249.483 631.577 265.191 611.33C266.109 610.258 267.554 608.852 268.57 607.798Z"
     id="path29" />
  <path
     fill="#C9AF4F"
     d="M278.548 673.346C264.374 666.282 258.165 639.808 265.489 626.576C266.888 624.049 267.804 622.06 269.419 619.63C272.811 619.97 274.209 619.895 277.623 619.686C274.33 623.751 271.424 627.464 270.128 632.597C265.289 651.758 273.717 663.295 289.019 672.519C284.952 673.056 281.26 672.051 278.548 673.346Z"
     id="path30" />
  <defs
     id="defs31">
    <linearGradient
       id="gradient_1"
       gradientUnits="userSpaceOnUse"
       x1="331.91537"
       y1="621.25275"
       x2="320.99771"
       y2="630.67188">
      <stop
         offset="0"
         stop-color="#7C774D"
         id="stop30" />
      <stop
         offset="1"
         stop-color="#A49452"
         id="stop31" />
    </linearGradient>
  </defs>
  <path
     fill="url(#gradient_1)"
     d="M316.803 607.122C326.077 611.44 333.244 619.285 336.709 628.912C337.516 631.181 338.42 634.792 338.512 637.205C334.348 639.955 335.707 643.649 332.252 647.641C333.141 631.17 328.923 622.069 314.927 612.983L316.096 612.325L316.268 611.408L314.108 608.621C315.011 608.327 315.96 607.642 316.803 607.122Z"
     id="path31" />
  <path
     fill="#A49655"
     d="M276.261 611.894C278.52 610.255 279.538 609.495 282.108 608.23C283.743 609.33 290.854 610.346 293.145 610.568C285.814 612.904 283.026 614.234 277.623 619.686C274.209 619.895 272.811 619.97 269.419 619.63C271.7 616.276 273.344 614.689 276.261 611.894Z"
     id="path32" />
  <path
     fill="#837C4C"
     d="M305.171 609.725C308.202 607.987 310.766 607.969 314.108 608.621L316.268 611.408L316.096 612.325L314.927 612.983C311.393 611.378 308.944 610.763 305.171 609.725Z"
     id="path33" />
  <path
     fill="#E5DB94"
     d="M293.743 622.624C298.233 621.946 304.67 620.729 308.09 624.51L308.627 624.399L309.142 625.369C310.334 627.409 313.442 630.581 313.985 631.865C330.218 670.236 264.718 656.243 287.479 630.412C289.608 626.52 290.532 625.812 293.743 622.624Z"
     id="path34" />
  <path
     fill="#E5DB94"
     d="M196.286 587.278C198.566 588.035 198.941 588.121 201.338 588.188L202.155 587.736L201.771 586.845C200.306 586.699 199.184 586.621 197.712 586.578C197.228 585.421 197.201 584.25 197.514 583.035C201.318 582.917 206.526 584.289 210.119 585.561L210.47 586.129L207.854 586.183C206.449 586.204 206.118 586.094 205.185 587.233C209.661 588.938 219.666 586.745 222.086 589.525C218.945 590.887 210.678 588.35 206.466 588.981C207.271 589.869 209.795 589.903 211.246 590.077C215.557 590.592 220.05 592.25 224.271 593.477C224.32 591.199 224.561 589.805 224.901 587.581C224.863 589.865 224.53 591.632 225.71 593.477C227.439 594.192 229.245 593.979 231.101 593.48C231.065 594.904 231.065 596.565 230.966 597.969C234.065 598.581 237.081 598.27 240.102 598.901C246.434 600.222 252.125 602.815 258.7 602.79C259.462 602.787 261.589 603.899 262.977 604.046L258.923 608.967C261.583 610.235 262.309 610.539 265.191 611.33C249.483 631.577 249.662 655.335 266.921 674.693C264.613 675.387 262.532 675.714 260.918 677.392L263.987 680.706C258.465 684.72 251.457 683.388 246.558 685.551C250.825 685.758 256.346 683.961 260.071 684.577C250.513 690.521 238.463 690.008 227.43 689.475C226.395 689.425 225.747 688.652 225.106 687.963L224.5 688.592L224.477 685.566C221.393 684.64 218.707 687.762 217.739 690.504C208.227 690.65 200.552 689.099 196.368 699.456L195.97 699.117C195.622 699.646 195.39 699.968 195.016 700.467L194.171 700.21C193.78 690.689 194.48 675.66 194.597 665.671C194.906 639.535 195.47 613.403 196.286 587.278Z"
     id="path35" />
  <path
     fill="#E5DB94"
     d="M224.477 685.566C226.524 681.428 229.057 608.159 230.966 597.969C234.065 598.581 237.081 598.27 240.102 598.901C246.434 600.222 252.125 602.815 258.7 602.79C259.462 602.787 261.589 603.899 262.977 604.046L258.923 608.967C261.583 610.235 262.309 610.539 265.191 611.33C249.483 631.577 249.662 655.335 266.921 674.693C264.613 675.387 262.532 675.714 260.918 677.392L263.987 680.706C258.465 684.72 251.457 683.388 246.558 685.551C250.825 685.758 256.346 683.961 260.071 684.577C250.513 690.521 238.463 690.008 227.43 689.475C226.395 689.425 225.747 688.652 225.106 687.963L224.5 688.592L224.477 685.566Z"
     id="path36" />
  <path
     fill="#C9AF4F"
     d="M258.923 608.967C261.583 610.235 262.309 610.539 265.191 611.33C249.483 631.577 249.662 655.335 266.921 674.693C264.613 675.387 262.532 675.714 260.918 677.392L259.533 675.932C243.716 655.295 241.777 629.572 258.923 608.967Z"
     id="path37" />
  <path
     fill="#D2D8B1"
     d="M246.558 685.551C242.676 684.401 231.234 683.622 227.801 685.631C226.799 684.871 226.708 684.844 226.1 683.772C227.556 682.204 239.358 680.886 242.19 679.483C242.585 679.287 244.702 681.259 246.972 680.767L246.898 680.157L243.86 679.329C243.166 679.843 258.888 676.095 259.533 675.932L260.918 677.392L263.987 680.706C258.465 684.72 251.457 683.388 246.558 685.551Z"
     id="path38" />
  <path
     fill="#A49655"
     d="M224.271 593.477C224.32 591.199 224.561 589.805 224.901 587.581C224.863 589.865 224.53 591.632 225.71 593.477C227.439 594.192 229.245 593.979 231.101 593.48C231.065 594.904 231.065 596.565 230.966 597.969C229.057 608.159 226.524 681.428 224.477 685.566C221.393 684.64 218.707 687.762 217.739 690.504C219.151 658.997 222.299 625.302 224.271 593.477Z"
     id="path39" />
  <path
     fill="#E5DB94"
     d="M703.775 593.431C703.969 595.143 704.201 596.915 704.332 598.626C705.742 624.367 708.11 650.207 709.558 675.967C709.721 678.862 709.929 682.05 710.276 684.912C710.266 686.674 709.979 688.675 710.958 690.022L712.851 690.658C709.246 690.483 707.193 690.446 703.611 690.711C698.748 691.14 688.197 690.962 683.221 690.661C672.46 690.447 661.696 690.438 650.935 690.636C656.054 687.303 658.914 685.502 663.639 681.517L667.001 678.038C664.851 676.629 662.401 676.693 659.755 676.431L657.987 678.138C654.731 676.463 653.083 675.188 650.172 673.498C651.605 672.219 653.02 670.918 654.414 669.596C654.792 669.365 655.202 669.142 655.501 668.801C670.377 651.85 669.437 629.138 652.991 613.248C657.231 613.264 657.886 612.134 661.237 609.396C662.303 610.623 663.884 612.329 664.819 613.583C667.906 612.912 668.536 612.795 671.407 611.333L666.22 605.08C673.724 600.541 687.108 599.694 696.351 598.246C697.093 596.935 696.956 594.75 697.006 593.156L697.432 596.581C699.886 596.81 701.398 597.103 703.262 595.933L703.775 593.431Z"
     id="path40" />
  <path
     fill="#FADB6D"
     d="M661.237 609.396C662.303 610.623 663.884 612.329 664.819 613.583C679.409 634.833 677.909 657.651 659.755 676.431L657.987 678.138C654.731 676.463 653.083 675.188 650.172 673.498C651.605 672.219 653.02 670.918 654.414 669.596C654.792 669.365 655.202 669.142 655.501 668.801C670.377 651.85 669.437 629.138 652.991 613.248C657.231 613.264 657.886 612.134 661.237 609.396Z"
     id="path41" />
  <path
     fill="#A49655"
     d="M703.775 593.431C703.969 595.143 704.201 596.915 704.332 598.626C705.742 624.367 708.11 650.207 709.558 675.967C709.721 678.862 709.929 682.05 710.276 684.912C708.808 682.489 708.516 684.825 704.389 683.66L703.556 681.021C703.291 680.471 697.354 602.138 697.432 596.581C699.886 596.81 701.398 597.103 703.262 595.933L703.775 593.431Z"
     id="path42" />
  <path
     fill="#C9AF4F"
     d="M671.407 611.333C679.674 622.779 682.967 637.08 680.537 650.989C678.962 660.346 675.643 667.217 669.908 674.667C669.327 675.359 667.59 677.526 667.001 678.038C664.851 676.629 662.401 676.693 659.755 676.431C677.909 657.651 679.409 634.833 664.819 613.583C667.906 612.912 668.536 612.795 671.407 611.333Z"
     id="path43" />
  <path
     fill="#D2DBCA"
     d="M650.935 690.636C656.054 687.303 658.914 685.502 663.639 681.517C670.433 683.603 682.547 684.464 687.349 687.536C681.944 686.919 675.252 685.177 670.43 684.836L670.359 685.346C675.214 686.307 680.19 688.344 684.774 689.127C688.787 689.812 700.334 690.36 703.506 688.523L703.556 681.021L704.389 683.66C708.516 684.825 708.808 682.489 710.276 684.912C710.266 686.674 709.979 688.675 710.958 690.022L712.851 690.658C709.246 690.483 707.193 690.446 703.611 690.711C698.748 691.14 688.197 690.962 683.221 690.661C672.46 690.447 661.696 690.438 650.935 690.636Z"
     id="path44" />
  <path
     fill="#837C4C"
     d="M703.556 681.021L704.389 683.66C708.516 684.825 708.808 682.489 710.276 684.912C710.266 686.674 709.979 688.675 710.958 690.022L712.851 690.658C709.246 690.483 707.193 690.446 703.611 690.711C698.748 691.14 688.197 690.962 683.221 690.661C688.012 690.02 699.489 690.866 703.141 689.827L703.506 688.523L703.556 681.021Z"
     id="path45" />
  <path
     fill="#D2D8B1"
     d="M669.908 674.667C676.619 678.489 678.986 678.756 686.519 679.97L681.496 680.266C686.292 681.661 691.238 679.898 694.075 681.731L693.729 681.927C691.447 683.239 690.425 683.74 690.437 686.662C689.524 686.924 688.239 687.341 687.349 687.536C682.547 684.464 670.433 683.603 663.639 681.517L667.001 678.038C667.59 677.526 669.327 675.359 669.908 674.667Z"
     id="path46" />
  <path
     fill="#FADB6D"
     d="M642.074 606.333C646.141 608.234 648.823 609.765 652.226 612.803L652.991 613.248C669.437 629.138 670.377 651.85 655.501 668.801C655.202 669.142 654.792 669.365 654.414 669.596L653.722 669.247C652.569 669.869 652.502 669.854 651.217 670.172L651.981 669.526C649.887 670.21 646.823 671.437 644.747 671.382L644.78 670.628L645.227 670.187L645.014 669.204C634.463 675.914 620.982 675.904 610.441 669.178C599.901 662.452 594.211 650.228 595.85 637.831C597.685 623.949 608.285 612.846 622.067 610.374C623.154 610.179 624.251 610.04 625.353 609.958C629.739 606.824 636.733 611.042 642.074 606.333Z"
     id="path47" />
  <path
     fill="#C9AF4F"
     d="M652.226 612.803L652.991 613.248C669.437 629.138 670.377 651.85 655.501 668.801C655.202 669.142 654.792 669.365 654.414 669.596L653.722 669.247C652.569 669.869 652.502 669.854 651.217 670.172L651.981 669.526C649.887 670.21 646.823 671.437 644.747 671.382L644.78 670.628L645.227 670.187L645.014 669.204C654.428 663.216 660.069 652.779 659.921 641.621C659.773 630.464 653.857 620.18 644.287 614.445C647.048 614.247 650.076 614.358 652.226 612.803Z"
     id="path48" />
  <path
     fill="#837C4C"
     d="M642.074 606.333C646.141 608.234 648.823 609.765 652.226 612.803C650.076 614.358 647.048 614.247 644.287 614.445C638.59 611.031 631.976 609.463 625.353 609.958C629.739 606.824 636.733 611.042 642.074 606.333Z"
     id="path49" />
  <path
     fill="#E5DB94"
     d="M624.023 621.473C631.019 621.034 635.587 624.914 640.917 628.756C643.573 634.893 646 641.823 642.408 648.381C639.827 653.092 636.598 653.781 631.769 655.08C614.739 655.249 613.431 648.748 612.011 634.017C614.114 628.158 618.382 623.949 624.023 621.473Z"
     id="path50" />
  <path
     fill="#D2DBCA"
     d="M657.987 678.138C652.256 682.757 645.596 686.087 638.461 687.899C626.289 690.912 614.462 689.022 603.77 682.464C592.874 675.83 585.113 665.082 582.242 652.652C579.308 640.439 581.407 627.559 588.065 616.91C594.692 606.278 605.285 598.729 617.496 595.935C630.99 592.879 642.197 595.818 653.567 603.014C656.749 605.351 658.512 606.599 661.237 609.396C657.886 612.134 657.231 613.264 652.991 613.248L652.226 612.803C648.823 609.765 646.141 608.234 642.074 606.333C636.733 611.042 629.739 606.824 625.353 609.958C624.251 610.04 623.154 610.179 622.067 610.374C608.285 612.846 597.685 623.949 595.85 637.831C594.211 650.228 599.901 662.452 610.441 669.178C620.982 675.904 634.463 675.914 645.014 669.204L645.227 670.187L644.78 670.628L644.747 671.382C646.823 671.437 649.887 670.21 651.981 669.526L651.217 670.172C652.502 669.854 652.569 669.869 653.722 669.247L654.414 669.596C653.02 670.918 651.605 672.219 650.172 673.498C653.083 675.188 654.731 676.463 657.987 678.138Z"
     id="path51" />
  <defs
     id="defs52">
    <linearGradient
       id="gradient_2"
       gradientUnits="userSpaceOnUse"
       x1="620.54254"
       y1="660.09546"
       x2="613.70367"
       y2="676.85406">
      <stop
         offset="0"
         stop-color="#A49451"
         id="stop51" />
      <stop
         offset="1"
         stop-color="#777655"
         id="stop52" />
    </linearGradient>
  </defs>
  <path
     fill="url(#gradient_2)"
     d="M592.653 656.999L593.423 656.54C595.787 652.534 594.505 643.262 595.85 637.831C594.211 650.228 599.901 662.452 610.441 669.178C620.982 675.904 634.463 675.914 645.014 669.204L645.227 670.187L644.78 670.628L644.747 671.382C646.823 671.437 649.887 670.21 651.981 669.526L651.217 670.172C652.502 669.854 652.569 669.869 653.722 669.247L654.414 669.596C653.02 670.918 651.605 672.219 650.172 673.498C628.955 687.687 603.1 680.488 592.653 656.999Z"
     id="path52" />
  <path
     fill="#837C4C"
     d="M609.701 607.891C613.721 611.351 617.514 606.852 622.067 610.374C608.285 612.846 597.685 623.949 595.85 637.831C594.505 643.262 595.787 652.534 593.423 656.54L592.653 656.999C589.245 649.024 588.623 640.133 590.885 631.76C593.668 621.256 600.388 613.268 609.701 607.891Z"
     id="path53" />
  <path
     fill="#6E7158"
     d="M609.701 607.891C610.324 607.523 610.958 607.176 611.603 606.849C621.518 601.767 631.959 603.034 642.074 606.333C636.733 611.042 629.739 606.824 625.353 609.958C624.251 610.04 623.154 610.179 622.067 610.374C617.514 606.852 613.721 611.351 609.701 607.891Z"
     id="path54" />
  <path
     fill="#4D5A5C"
     d="M603.935 690.335C588.786 680.378 576.942 668.014 574.829 649.38C569.286 600.497 622.284 570.494 661.296 600.512C659.748 601.014 654.465 602.482 653.567 603.014C642.197 595.818 630.99 592.879 617.496 595.935C605.285 598.729 594.692 606.278 588.065 616.91C581.407 627.559 579.308 640.439 582.242 652.652C585.113 665.082 592.874 675.83 603.77 682.464C614.462 689.022 626.289 690.912 638.461 687.899C645.596 686.087 652.256 682.757 657.987 678.138L659.755 676.431C662.401 676.693 664.851 676.629 667.001 678.038L663.639 681.517C658.914 685.502 656.054 687.303 650.935 690.636C661.696 690.438 672.46 690.447 683.221 690.661C688.197 690.962 698.748 691.14 703.611 690.711C708.581 694.018 708.505 688.847 712.365 693.889L712.516 695.235C710.337 696.412 710.226 695.032 707.173 696.388C702.778 696.692 694.83 696.428 690.18 696.446C678.804 696.579 667.427 696.627 656.05 696.588C636.965 696.529 614.131 697.09 595.447 696.4C600.566 694.773 601.001 696.591 604.227 695.503C605.618 694.12 605.676 694.214 606.128 692.371L605.65 691.605C597.201 689.868 571.867 691.603 561.845 690.965C557.558 690.692 553.234 691.395 548.608 690.396C565.877 689.875 586.286 690.391 603.935 690.335Z"
     id="path55" />
  <path
     fill="#4D5A5C"
     d="M272.763 596.583C324.341 566.697 376.958 626.124 343.472 673.642C340.738 671.824 340.752 671.847 339.058 668.835C341.611 665.121 343.599 661.047 344.956 656.749C348.751 645.029 348.068 631.725 342.416 620.706C336.633 609.277 326.456 600.688 314.219 596.908C300.989 592.826 289.163 594.831 277.148 601.128C276.103 599.696 274.089 597.871 272.763 596.583Z"
     id="path56" />
  <path
     fill="#29425F"
     d="M224.901 587.581L228.664 531.872C229.368 521.702 229.709 511.404 231.581 501.388C232.626 495.8 240.259 490.055 245.082 493.978C245.96 495.656 245.901 495.569 245.701 497.482C243.425 500.59 239.054 500.192 237.426 504.328C236.346 507.075 231.137 585.076 231.101 593.48C229.245 593.979 227.439 594.192 225.71 593.477C224.53 591.632 224.863 589.865 224.901 587.581Z"
     id="path57" />
  <path
     fill="#29425F"
     d="M696.282 581.6C694.725 558.367 693.073 535.12 691.557 511.887C690.63 497.682 689.246 504.724 682.614 497.945C682.091 495.873 682.106 496.905 682.729 494.736C687.918 489.748 695.82 496.103 696.859 502.512C698.478 512.499 698.875 522.373 699.547 532.461C700.673 547.466 701.686 562.48 702.586 577.5C702.339 580.877 701.893 584.033 697.905 584.036C696.806 583.4 696.942 583.02 696.282 581.6Z"
     id="path58" />
  <path
     fill="#D2D8B1"
     d="M731.853 573.674C732.188 577.718 732.317 580.476 732.269 584.524C732.193 587.644 732.176 590.765 732.218 593.885C731.47 592.541 731.348 592.22 731.206 590.692C730.086 590.323 727.842 591.117 726.848 591.982C724.217 594.271 706.817 598.855 704.332 598.626C704.201 596.915 703.969 595.143 703.775 593.431C703.595 591.772 703.616 589.887 703.582 588.199C704.914 589.698 704.926 592.478 705.333 594.757L707.097 595.004C710.702 593.469 708.097 592.333 711.365 590.732C716.169 588.378 726.265 587.184 729.752 583.481C728.597 583.673 728.494 583.806 727.402 583.471L727.83 582.646C729.44 582.216 729.39 582.279 730.8 581.201C732.081 578.928 731.805 576.385 731.853 573.674Z"
     id="path59" />
  <path
     fill="#5A635C"
     d="M262.977 604.046C265.945 601.037 269.174 598.768 272.763 596.583C274.089 597.871 276.103 599.696 277.148 601.128C273.582 603.536 271.796 604.943 268.57 607.798C267.554 608.852 266.109 610.258 265.191 611.33C262.309 610.539 261.583 610.235 258.923 608.967L262.977 604.046Z"
     id="path60" />
  <path
     fill="#4D5A5C"
     d="M702.586 577.5C702.923 580.69 703.126 585.302 703.582 588.199C703.616 589.887 703.595 591.772 703.775 593.431L703.262 595.933C701.398 597.103 699.886 596.81 697.432 596.581L697.006 593.156C696.651 589.312 696.409 585.459 696.282 581.6C696.942 583.02 696.806 583.4 697.905 584.036C701.893 584.033 702.339 580.877 702.586 577.5Z"
     id="path61" />
  <path
     fill="#29425F"
     d="M613.386 300.453C615.788 297.333 619.784 291.133 624.264 292.017L624.938 293.072C624.986 296.873 623.626 298.116 621.229 300.878C648.482 303.462 676.311 303.733 703.496 307.627C716.248 309.453 713.892 326.399 714.126 336.343L714.92 369.357L716.242 424.885C716.438 434.707 716.684 444.596 716.608 454.44C716.571 459.149 714.8 461.711 711.493 465.025C709.814 466.751 705.901 467.526 703.51 467.58C695.217 467.766 686.523 467.051 678.239 466.612C663.495 465.848 648.746 465.18 633.993 464.608C617.065 464.61 597.195 463.224 579.857 462.714C542.241 461.705 504.618 460.95 466.992 460.45C452.124 460.306 436.136 460.943 421.204 461.177C378.956 461.684 336.718 462.841 294.506 464.647C278.618 465.223 262.735 465.913 246.857 466.719C239.156 467.092 231.256 467.663 223.557 467.621C217.366 467.587 211.824 461.43 211.565 455.403C211.19 446.67 211.687 437.689 211.938 428.907L212.876 387.359L214.026 340.297C214.196 333.56 214.009 326.659 214.473 320.039C215.071 315.476 216.027 311.17 220.587 309.214C225.214 307.228 228.997 306.983 233.88 306.509C258.014 304.169 282.209 302.89 306.37 300.924C305.061 298.901 304.045 297.644 303.446 295.304C303.882 292.938 303.775 293.646 305.534 291.562C309.385 292.803 311.951 297.108 314.483 300.429C329.317 299.219 345.223 298.597 360.159 297.838C413.766 295.019 467.467 294.405 521.125 295.999C549.318 296.764 585.261 297.806 613.386 300.453Z"
     id="path62" />
  <path
     fill="#BDDAEE"
     d="M453.37 301.256C467.301 300.264 491.506 301.434 506.081 301.74C529.044 302.217 551.997 303.104 574.928 304.401C585.795 304.994 598.493 305.471 609.154 306.582C607.429 308.707 605.511 310.768 603.676 312.807C583.221 312.813 562.229 309.979 541.831 309.685C536.241 309.605 528.115 313.123 527.923 318.745C526.69 356.088 527.479 393.77 527.552 431.176C527.583 447.069 547.488 444.517 558.119 444.813C571.954 445.162 585.787 445.581 599.619 446.071C619.061 446.763 638.499 447.593 657.931 448.561C668.72 449.066 679.638 449.676 690.302 449.823C697.489 449.922 702.177 445.433 702.509 438.514C703.142 425.345 702.011 411.034 701.734 397.919L700.93 353.296C700.78 345.784 700.73 338.165 700.262 330.712C700.258 325.711 695.843 319.683 690.524 319.031C673.717 316.971 656.184 316.567 639.287 315.14C629.876 314.345 620.677 314.298 611.371 313.275L616.747 307.068C626.787 307.507 700.715 311.518 704.916 314.923C706.547 316.245 707.137 318.643 707.333 320.622C707.906 326.398 707.631 332.53 707.75 338.346L708.588 370.709C709.036 387.39 709.393 404.072 709.66 420.757C709.803 427.069 711.613 451.295 708.745 458.716C708.391 459.633 705.669 461.304 704.265 461.318C695.808 461.405 687.253 460.784 678.781 460.356C664.791 459.628 650.795 459.019 636.795 458.529C583.183 456.397 529.543 455.037 475.893 454.45C393.401 453.614 310.131 458.051 227.705 461.316C220.055 461.619 218.309 459.2 218.125 451.526C217.935 443.612 218.261 435.625 218.401 427.721C218.597 412.404 218.908 397.088 219.337 381.776L220.249 342.778C220.381 335.627 220.361 328.471 220.693 321.392C220.967 315.539 223.955 314.126 229.414 313.357C237.757 312.182 246.66 311.637 255.068 310.935C273.755 309.295 292.471 308.004 311.207 307.062L316.887 313.49C301.046 314.337 285.214 315.345 269.393 316.512C259.689 317.143 241.015 316.894 232.074 321.618C230.59 322.402 228.206 327.177 228.083 329.074C227.457 338.734 227.407 348.523 227.141 358.229L225.506 426.568C225.329 436.931 223.746 450.192 238.833 449.911C248.702 449.727 258.64 449.055 268.509 448.603L325.156 446.227C338.456 445.725 351.758 445.299 365.063 444.947C372.666 444.726 380.709 444.655 388.241 443.991C391.724 443.573 394.297 443.341 396.752 440.53C402.638 433.791 400.775 419.322 400.82 410.409C400.785 381.7 401.013 352.784 400.76 324.097C400.678 314.726 396.118 309.97 387.079 309.881C378.978 309.801 370.563 310.412 362.496 310.935C349.873 311.752 337.149 312.174 324.584 313.365L319.207 306.621C332.678 305.195 350.188 304.5 363.837 303.868C393.662 302.445 423.512 301.575 453.37 301.256Z"
     id="path63" />
  <path
     fill="#29425F"
     d="M421.863 307.907C435.287 307.803 500.957 305.941 510.522 309.41C513.809 310.602 515.45 312.601 516.784 315.791C518.313 319.448 518.19 418.583 517.529 430.159C517.407 432.288 517.133 434.146 516.182 436.083C514.284 439.947 510.866 441.498 506.996 442.717C479.53 443.167 451.799 442.575 424.317 442.665C411.23 442.708 410.302 433.816 410.373 423.233C410.471 408.845 410.442 394.312 410.428 379.882L410.385 340.156C410.38 333.099 410.279 326.018 410.522 318.97C410.635 315.688 412.326 312.814 414.814 310.76C416.907 309.032 419.277 308.415 421.863 307.907Z"
     id="path64" />
  <path
     fill="#BDDAEE"
     d="M426.157 314.15C447.158 313.633 468.525 314.077 489.551 313.929C495.188 313.889 505.094 313.359 509.918 316.045C512.033 319.268 511.316 337.555 511.306 342.131L511.219 380.838L511.29 412.54C511.314 418.206 511.455 423.882 511.22 429.542C510.981 435.299 507.945 436.546 502.73 436.496L450.791 436.518C442.47 436.523 433.917 436.336 425.621 436.448C413.61 436.611 416.721 425.469 416.725 415.889L416.721 386.361L416.683 342.649C416.68 335.084 416.501 327.367 416.848 319.827C417.109 314.151 422.177 314.251 426.157 314.15Z"
     id="path65" />
  <path
     fill="#BDDAEE"
     d="M605.773 320.302C606.952 318.839 630.305 321.034 633.76 321.252L667.676 323.258C674.068 323.639 687.967 323.386 692.612 327.34C694.805 332.144 694.46 354.133 694.609 360.915C695.12 377.093 695.477 393.276 695.68 409.461C695.853 419.164 696.536 429.383 696.041 439.09C695.988 440.125 694.382 442.586 693.406 442.944C691.644 443.432 688.904 443.357 687.008 443.269C639.855 441.091 592.684 439.586 545.509 438.023C542.57 437.926 539.32 437.282 536.499 436.598C532.447 432.1 533.678 423.706 533.673 417.713L533.668 390.851L533.659 345.98C533.658 338.394 533.567 330.69 533.705 323.11C533.762 320.017 534.433 318.698 536.657 316.715C542.201 315.022 590.033 318.427 598.833 319.099C587.185 334.234 573.407 352.061 561.268 366.674C561.24 360.8 562.573 337.931 557.751 334.99C556.955 335.05 556.606 334.861 556.158 335.518C554.064 338.59 554.77 345.742 554.86 349.24C555.378 369.531 555.655 389.782 556.432 410.052C556.501 411.828 558.73 412.647 560.254 412.599C563.86 409.694 562.448 401.785 562.33 397.311L561.825 376.13L590.667 339.707C595.005 334.212 601.991 325.87 605.773 320.302Z"
     id="path66" />
  <path
     fill="#BDDAEE"
     d="M375.803 316.444C379.839 316.146 385.938 315.224 389.797 316.378C391.4 316.857 392.306 317.551 393.058 319.061C394.051 321.055 394.356 323.688 394.483 325.904C395.159 337.719 395.083 429.764 393.438 433.901C392.899 435.259 391.081 436.67 389.756 437.207C385.805 438.808 283.944 441.469 270.704 442.024C265.531 442.241 237.453 444.375 234.733 442.869C233.115 441.974 232.516 440.302 232.139 438.584C230.49 431.077 232.322 416.581 232.481 408.189C232.756 391.115 233.145 374.042 233.646 356.973C233.821 350.007 233.048 331.497 236.171 326.383C240.437 323.547 256.686 323.609 262.826 323.354C280.842 321.23 302.499 321.001 321.282 319.286C325.669 323.992 331.247 331.918 335.483 337.242C345.863 350.285 355.89 363.916 366.617 376.665C366.505 385.861 366.194 395.12 365.903 404.315C365.798 407.652 365.464 412.208 369.44 412.788C373.067 410.912 372.807 404.758 372.429 401.238C371.294 390.692 375.769 342.925 372.553 336.325C370.917 334.897 371.502 334.951 369.872 335.034C366.132 338.887 367.052 360.828 366.973 367.114C354.323 351.148 341.791 335.089 329.378 318.938C343.565 317.599 361.331 317.182 375.803 316.444Z"
     id="path67" />
  <path
     fill="#29425F"
     d="M416.139 475.446C445.565 474.336 475.896 475.919 505.393 475.227C513.276 475.042 519.027 476.372 523.077 483.914C524.202 486.01 524.522 488.244 524.57 490.598C524.864 518.68 524.674 546.794 524.72 574.878C524.731 581.661 525.335 587.054 520.079 592.299C516.22 596.149 512.555 596.669 507.495 596.828L469.182 596.725C468.531 598.392 467.568 600.204 466.763 601.824C456.651 602.308 460.542 598.493 457.171 597.071C451.898 594.847 422.493 599.244 412.691 595.298C408.696 593.69 405.801 590.297 404.308 586.297C402.447 581.312 402.895 500.836 403.552 490.243C403.672 488.298 403.908 486.371 404.749 484.586C407.106 479.59 411.151 477.15 416.139 475.446Z"
     id="path68" />
  <path
     fill="#BDDAEE"
     d="M450.972 591.014C443.58 590.664 416.922 592.539 412.718 588.085C411.06 586.33 410.18 584.323 409.847 581.947C408.49 572.282 409.505 558.091 409.509 548.02C409.515 530.053 408.878 511.858 409.593 493.917C409.753 489.878 409.836 486.575 413.136 483.742C415.004 482.138 417.18 481.97 419.536 481.738C431.489 480.561 444.325 481.434 456.371 481.435C474.987 481.437 493.783 480.914 512.377 481.68C514.672 483.178 517.807 485.671 518.057 488.545C518.936 498.694 518.489 509.469 518.484 519.639L518.427 583.778C516.584 587.29 515.45 588.384 512.338 590.526C502.649 591.13 488.572 590.742 478.555 590.745C486.55 582.88 484.051 581.633 482.779 571.334C482.004 564.663 482.826 555.151 478.355 549.413C470.904 539.849 460.099 541.228 451.63 547.55C451.747 536.143 450.985 522.053 436.518 519.559C431.802 518.76 426.963 519.914 423.114 522.756C415.879 528.096 414.972 535.814 415.342 544.056C415.945 557.445 410.127 566.908 428.008 569.14C428.547 571.7 429.22 575.459 428.983 577.997C431.404 575.122 436.293 575.709 438.78 577.86C438.672 576.247 439.045 572.72 439.307 571.154C439.749 568.5 443.557 568.467 445.368 569.862C445.831 573.107 444.699 578.676 444.879 583.288L444.916 584.154C446.918 587.679 447.948 588.585 450.972 591.014Z"
     id="path69" />
  <path
     fill="#1F3952"
     d="M428.983 577.997C431.404 575.122 436.293 575.709 438.78 577.86C435.839 581.28 432.159 581.088 428.983 577.997Z"
     id="path70" />
  <path
     fill="#29425F"
     d="M492.367 496.322C496.679 496.526 501.379 497.654 504.801 500.349C514.76 508.138 511.48 520.477 512.034 530.729C512.693 542.919 514.811 548.451 498.987 549.497C496.964 554.434 496.925 559.378 491.59 561.269C481.562 562.015 485.184 555.723 487.659 549.662C484.515 549.388 481.934 548.899 478.835 548.335C471.195 541.608 474.34 540.07 474.292 531.852C474.201 516.092 471.851 499.078 492.367 496.322Z"
     id="path71" />
  <path
     fill="#BDDAEE"
     d="M490.017 502.97C490.482 502.94 490.947 502.914 491.413 502.891C505.955 502.187 506.249 512.883 506.136 523.941C502.528 523.236 501.035 523.182 497.324 523.111C491.462 523.018 486.131 522.686 480.446 524.254C480.423 514.822 479.716 506.805 490.017 502.97Z"
     id="path72" />
  <path
     fill="#BDDAEE"
     d="M484.021 529.462C489.423 529.227 497.205 528.307 502.212 529.723C507.054 531.092 509.532 541.182 502.958 543.265C497.278 543.248 491.756 543.708 486.062 543.294C477.622 542.68 478.505 533.376 484.021 529.462Z"
     id="path73" />
  <path
     fill="#BDDAEE"
     d="M424.293 548.536C428.959 548.349 434.719 548.431 439.235 548.142C448.02 547.581 450.598 558.55 444.821 562.55C444.166 562.608 443.509 562.655 442.852 562.69C437.357 562.992 420.678 565.507 420.971 557.034C421.112 552.954 421.404 551.434 424.293 548.536Z"
     id="path74" />
  <path
     fill="#BDDAEE"
     d="M454.389 571.591C459.64 571.255 465.366 570.916 470.475 571.255C477.038 571.692 478.441 577.048 477.559 582.531C477.298 584.148 475.773 584.676 474.569 585.412C468.431 585.385 450.162 588.422 450.897 579.526C451.22 575.617 451.418 574.233 454.389 571.591Z"
     id="path75" />
  <path
     fill="#BDDAEE"
     d="M430.225 526C442.457 525.214 444.967 531.68 445.021 542.329L434.324 542.167C430.733 542.135 425.791 541.576 422.64 543.145C419.993 541.696 420.505 538.695 421.424 536.305C423.45 531.036 425.229 528.463 430.225 526Z"
     id="path76" />
  <path
     fill="#BDDAEE"
     d="M460.606 549.128C468.529 548.228 471.237 549.746 475.227 556.64C475.366 559.282 475.268 562.648 475.26 565.352L467.942 564.976L453.265 565.31L454.043 555.19C456.051 551.806 457.356 550.97 460.606 549.128Z"
     id="path77" />
  <path
     fill="#29425F"
     d="M535.322 672.548C522.462 669.174 525.751 663.074 517.521 657.954C515.806 656.887 514.411 657.111 512.571 654.456C512.655 653.952 512.607 653.257 513.063 653.036C529.159 645.236 523.254 664.892 538.181 666.728L538.88 666.811L539.568 666.634C549.949 663.912 546.781 656.443 554.162 651.6C555.096 650.986 559.665 651.397 561.075 652.103C562.306 653.996 562.339 653.462 562.451 655.432C560.546 657.62 556.555 657.822 556.345 658.119C549.956 667.147 549.139 673.38 535.322 672.548Z"
     id="path88" />
  <path
     fill="#29425F"
     d="M376.041 651.765C377.799 654.351 378.789 657.734 380.376 660.205C388.052 672.162 400.756 665.881 403.044 653.761C403.565 651.001 413.498 649.187 414.75 654.964C414.201 656.759 414.202 656.654 412.689 657.835C405.079 658.118 405.739 666.938 398.584 670.51C391.243 674.174 383.671 673.675 378.008 667.09C375.337 663.984 373.204 658.329 368.974 657.561C364.849 656.831 365.906 653.668 368.273 651.533C370.768 651.467 373.527 651.656 376.041 651.765Z"
     id="path89" />
  <path
     fill="#BDDAEE"
     d="M347.866 118.527C319.123 119.335 315.003 134.933 294.892 151.62C292.465 153.634 289.39 156.301 286.79 153.879C286.534 152.366 286.451 150.801 287.634 149.588C304.06 132.741 316.768 112.988 342.113 110.38C357.222 108.825 370.039 108.511 384.662 108.119C413.165 107.426 441.677 107.196 470.187 107.429C495.024 107.295 519.86 107.552 544.689 108.198C564.233 108.663 594.041 107.088 610.467 119.466C615.093 122.952 644.798 149.882 640.651 154.865C636.529 154.99 632.151 150.633 629.255 148.024C610.609 131.222 606.986 119.317 580.437 118.446L580.277 129.859L576.482 133.561C576.414 145.838 576.749 155.124 579.355 167.095C580.177 170.869 579.706 175.031 580.952 178.988C587.565 181.562 591.019 165.053 599.978 179.466C600.223 183.252 600.584 187.433 600.602 191.195C595.448 191.205 590.294 191.152 585.141 191.033C584.623 190.282 584.242 189.8 583.523 189.234C575.736 190.336 571.594 194.364 563.183 194.71L562.571 194.785C553.992 195.784 529.462 194.201 523.482 196.081L522.53 197.429C520.833 196.432 523.273 195.779 521.06 196.094L520.575 197.245C522.699 199.931 526.296 199.875 529.695 200.729L516.581 200.813C516.554 203.357 516.361 204.807 517.188 207.226L517.284 206.792C517.578 205.501 517.594 205.1 518.333 203.968C520.645 212.381 527.001 205.981 533.28 209.897C526.726 209.827 521.232 208.925 514.89 208.528C522.213 239.287 505.816 266.031 475.469 274.307C487.413 274.647 501.49 274.397 513.071 275.126C510.007 276.476 481.721 275.721 476.433 275.764C476.404 275.764 472.683 274.725 471.78 274.569C469.162 275.967 461.007 279.234 458.868 278.165C448.41 272.934 435.963 277.898 425.615 274.848C433.349 274.366 444.548 274.541 452.498 274.368C421.593 265.076 406.751 239.956 413.256 208.4C407.941 208.966 402.615 209.417 397.281 209.752C399.73 208.765 403.989 208.073 406.715 207.536C405.693 205.561 406.444 202.931 408.153 201.68C406.624 200.384 403.066 200.728 400.869 200.707C403.483 199.927 406.073 199.095 408.788 198.755L409.143 198.167C410.095 197.731 414.027 198.496 415.758 198.582L416.265 197.896L415.904 197.034C412.755 194.229 374.724 196.04 366.4 194.731C363.661 194.603 362.27 194.508 359.614 194.003C356.06 193.326 346.745 188.364 343.943 189.611L343.117 190.833C339.561 191.363 331.559 191.178 327.667 191.194C327.485 185.722 326.742 173.488 335.145 173.442C340.984 173.41 341.182 178.94 343.865 179.968C345.304 180.027 346.006 180.216 347.217 179.456C348.599 175.039 347.878 169.746 348.855 165.687C351.679 153.953 351.65 144.975 351.538 133.071C350.521 132.183 348.981 130.927 348.062 130.024C347.956 126.203 347.81 122.346 347.866 118.527Z"
     id="path90" />
  <path
     fill="#5A635C"
     d="M413.149 161.876C420.701 159.335 429.718 158.865 436.917 156.484C454.812 150.566 471.2 156.182 489.025 160.471C496.746 162.329 520.554 166.377 526.257 169.071L525.813 169.64C528.206 170.296 530.607 170.923 533.016 171.52L533.382 172.367C531.288 175.124 531.026 174.707 532.264 178.168C529.679 178.433 523.698 177.877 522.106 178.842C512.499 179.391 502.231 179.018 492.537 178.933C499.348 184.212 503.312 187.421 508.202 194.727C526.529 194.605 544.856 194.599 563.183 194.71L562.571 194.785C553.992 195.784 529.462 194.201 523.482 196.081L522.53 197.429C520.833 196.432 523.273 195.779 521.06 196.094L520.575 197.245C522.699 199.931 526.296 199.875 529.695 200.729L516.581 200.813C516.554 203.357 516.361 204.807 517.188 207.226L517.284 206.792C517.578 205.501 517.594 205.1 518.333 203.968C520.645 212.381 527.001 205.981 533.28 209.897C526.726 209.827 521.232 208.925 514.89 208.528C522.213 239.287 505.816 266.031 475.469 274.307C487.413 274.647 501.49 274.397 513.071 275.126C510.007 276.476 481.721 275.721 476.433 275.764C476.404 275.764 472.683 274.725 471.78 274.569C469.162 275.967 461.007 279.234 458.868 278.165C448.41 272.934 435.963 277.898 425.615 274.848C433.349 274.366 444.548 274.541 452.498 274.368C421.593 265.076 406.751 239.956 413.256 208.4C407.941 208.966 402.615 209.417 397.281 209.752C399.73 208.765 403.989 208.073 406.715 207.536C405.693 205.561 406.444 202.931 408.153 201.68C406.624 200.384 403.066 200.728 400.869 200.707C403.483 199.927 406.073 199.095 408.788 198.755L409.143 198.167C410.095 197.731 414.027 198.496 415.758 198.582L416.265 197.896L415.904 197.034C412.755 194.229 374.724 196.04 366.4 194.731C382.756 194.152 403.666 194.574 420.048 194.846C425.378 187.179 428.124 184.269 435.923 179.134C429.148 179.202 417.828 179.594 411.312 178.914C406.814 176.564 391.952 178.954 386.587 178.412C379.376 177.683 383.364 172.231 374.424 171.731L374.03 170.846L374.05 170.868C380.471 168.234 410.11 164.696 413.149 161.876Z"
     id="path91" />
  <path
     fill="#D2DBCA"
     d="M461.585 176.987C487.132 175.587 508.95 195.222 510.245 220.778C511.54 246.334 491.818 268.075 466.26 269.264C440.85 270.447 419.267 250.862 417.979 225.454C416.692 200.046 436.186 178.379 461.585 176.987Z"
     id="path92" />
  <path
     fill="#A49655"
     d="M428.262 212.064C431.345 202.041 438.478 193.765 447.936 189.239C457.394 184.714 468.314 184.351 478.051 188.24C479.389 188.775 480.696 189.386 481.964 190.071C495.812 197.549 503.524 212.875 501.277 228.454C499.031 244.034 487.304 256.556 471.907 259.817C456.51 263.078 440.715 256.384 432.348 243.053C426.545 233.808 425.054 222.496 428.262 212.064Z"
     id="path93" />
  <path
     fill="#837C4C"
     d="M428.262 212.064C429.559 210.504 430.954 207.263 431.967 206.496C429.791 210.887 431.518 215.635 430.438 220.052C428.957 226.109 435.743 237.764 432.348 243.053C426.545 233.808 425.054 222.496 428.262 212.064Z"
     id="path94" />
  <path
     fill="#FADB6D"
     d="M477.971 194.889C492.87 202.2 499.503 219.848 493.108 235.164C486.713 250.48 469.501 258.169 453.828 252.711C438.155 247.253 429.44 230.536 433.939 214.559C438.438 198.583 454.596 188.872 470.813 192.397C473.291 192.935 475.694 193.772 477.971 194.889Z"
     id="path95" />
  <path
     fill="#E5DB94"
     d="M461.547 203.708C462.687 204.364 466.149 204.709 468.342 205.678L467.612 205.753C492.249 215.517 475.646 226.992 476.442 234.703C477.2 234.737 477.727 234.657 478.455 234.443C476.603 236.292 475.326 236.501 472.855 237.364C461.139 241.344 449.195 240.96 449.118 225.053C449.102 221.643 449.076 218.086 449.095 214.653C450.671 211.261 455.157 207.66 458.283 205.74L461.547 203.708Z"
     id="path96" />
  <path
     fill="#29425F"
     d="M361.626 171.875C378.814 168.919 396.044 164.744 413.149 161.876C410.11 164.696 380.471 168.234 374.05 170.868L374.03 170.846L374.424 171.731C383.364 172.231 379.376 177.683 386.587 178.412C391.952 178.954 406.814 176.564 411.312 178.914C394.814 179.169 378.313 179.209 361.814 179.033L361.626 171.875Z"
     id="path97" />
  <path
     fill="#1F3952"
     d="M526.257 169.071C538.165 171.595 557.459 175.327 568.753 178.617C557.554 179.286 533.175 179.51 522.106 178.842C523.698 177.877 529.679 178.433 532.264 178.168C531.026 174.707 531.288 175.124 533.382 172.367L533.016 171.52C530.607 170.923 528.206 170.296 525.813 169.64L526.257 169.071Z"
     id="path98" />
  <path
     fill="#29425F"
     d="M410.351 118.417C447.641 117.867 484.937 117.876 522.227 118.443C530.319 118.525 560.133 118.462 565.961 119.981L566.724 121.532L566.262 122.878C563.07 125.499 555.31 126.005 550.928 126.96C536.553 130.009 522.146 132.913 507.712 135.672C493.441 138.86 469.663 144.122 454.939 146.268C451.731 146.736 426.85 140.448 422.227 139.399L361.665 125.918C361.585 123.559 361.286 121.73 362.172 119.585C365.83 118.058 403.745 118.457 410.351 118.417Z"
     id="path99" />
  <path
     fill="#29425F"
     d="M566.322 130.104C568.6 130.388 568.852 131.488 570.786 133.597C570.811 136.888 571.17 150.08 570.722 152.561C569.323 160.307 567.926 163.462 567.265 172.099C542.733 165.995 516.622 160.509 491.855 154.857C485.984 153.633 475.585 151.611 470.266 149.732L566.322 130.104Z"
     id="path100" />
  <path
     fill="#29425F"
     d="M358.721 131.554C385.412 137.844 412.678 143.44 439.52 149.671C434.947 150.863 428.816 151.953 424.079 152.912C404.373 157.854 380.917 161.686 360.673 166.216C358.676 158.787 354.059 137.599 358.721 131.554Z"
     id="path101" />
  <defs
     id="defs102">
    <linearGradient
       id="gradient_3"
       gradientUnits="userSpaceOnUse"
       x1="750.75446"
       y1="642.60553"
       x2="828.99408"
       y2="640.91968">
      <stop
         offset="0"
         stop-color="#A79C57"
         id="stop101" />
      <stop
         offset="1"
         stop-color="#676D5A"
         id="stop102" />
    </linearGradient>
  </defs>
  <path
     fill="url(#gradient_3)"
     d="M743.517 577.627L743.531 423.888C743.547 403.653 744.214 380.786 742.709 360.483C742.429 356.708 728.69 355.766 734.088 348.914C739.868 347.174 749.45 353.895 750.294 359.748C751.7 369.486 751.221 379.815 751.195 389.687L751.215 434.064L751.272 526.132C751.249 544.088 750.931 562.925 751.643 580.806L752.403 580.549C756.354 579.179 762.141 575.535 766.282 574.047C778.593 569.625 784.601 567.675 797.83 569.023C800.016 569.246 805.344 568.805 807.504 569.231C810.033 569.73 812.436 571.205 815.325 571.755C821.491 577.566 821.094 583.893 822.725 591.569C826.685 610.203 828.671 628.986 829.256 648.025C828.08 667.479 827.662 692.795 817.54 709.697C815.635 712.876 807.731 714.518 804.059 714.184C794.466 713.313 782.393 712.09 772.902 710.739C766.14 709.777 758.684 706.6 751.371 705.438C750.238 701.333 747.641 700.453 743.494 701.373L743.281 700.604C740.132 700.192 737.609 700.044 734.435 699.888C734.393 704.109 734.357 708.097 734.104 712.321C733.87 708.122 733.936 703.058 733.88 698.791C733.45 700.426 733.341 701.519 732.21 702.765L731.185 697.557C728.921 697.288 726.7 696.669 724.871 697.949C720.457 696.061 712.225 696.453 707.173 696.388C710.226 695.032 710.337 696.412 712.516 695.235L712.365 693.889C708.505 688.847 708.581 694.018 703.611 690.711C707.193 690.446 709.246 690.483 712.851 690.658L710.958 690.022C709.979 688.675 710.266 686.674 710.276 684.912C709.929 682.05 709.721 678.862 709.558 675.967C708.11 650.207 705.742 624.367 704.332 598.626C706.817 598.855 724.217 594.271 726.848 591.982C727.842 591.117 730.086 590.323 731.206 590.692C731.348 592.22 731.47 592.541 732.218 593.885C732.176 590.765 732.193 587.644 732.269 584.524C736.862 582.759 738.708 582.634 743.548 581.877L743.517 577.627Z"
     id="path102" />
  <path
     fill="#E5DB94"
     d="M704.332 598.626C706.817 598.855 724.217 594.271 726.848 591.982C727.842 591.117 730.086 590.323 731.206 590.692C731.348 592.22 731.47 592.541 732.218 593.885C733.63 626.923 734.097 665.696 733.88 698.791C733.45 700.426 733.341 701.519 732.21 702.765L731.185 697.557C728.921 697.288 726.7 696.669 724.871 697.949C720.457 696.061 712.225 696.453 707.173 696.388C710.226 695.032 710.337 696.412 712.516 695.235L712.365 693.889C708.505 688.847 708.581 694.018 703.611 690.711C707.193 690.446 709.246 690.483 712.851 690.658L710.958 690.022C709.979 688.675 710.266 686.674 710.276 684.912C709.929 682.05 709.721 678.862 709.558 675.967C708.11 650.207 705.742 624.367 704.332 598.626Z"
     id="path103" />
  <path
     fill="#6E7158"
     d="M703.611 690.711C707.193 690.446 709.246 690.483 712.851 690.658C720.735 690.562 727.063 689.311 731.185 697.557C728.921 697.288 726.7 696.669 724.871 697.949C720.457 696.061 712.225 696.453 707.173 696.388C710.226 695.032 710.337 696.412 712.516 695.235L712.365 693.889C708.505 688.847 708.581 694.018 703.611 690.711Z"
     id="path104" />
  <path
     fill="#BDDAEE"
     d="M743.517 577.627L743.531 423.888C743.547 403.653 744.214 380.786 742.709 360.483C742.429 356.708 728.69 355.766 734.088 348.914C739.868 347.174 749.45 353.895 750.294 359.748C751.7 369.486 751.221 379.815 751.195 389.687L751.215 434.064C749.904 481.269 752.54 531.371 750.9 578.199C747.436 577.757 747.818 577.608 744.468 578.464L743.517 577.627Z"
     id="path105" />
  <path
     fill="#A49655"
     d="M743.548 581.877L743.545 662.702C743.564 668.049 744.012 696.967 743.281 700.604C740.132 700.192 737.609 700.044 734.435 699.888C734.393 704.109 734.357 708.097 734.104 712.321C733.87 708.122 733.936 703.058 733.88 698.791C734.097 665.696 733.63 626.923 732.218 593.885C732.176 590.765 732.193 587.644 732.269 584.524C736.862 582.759 738.708 582.634 743.548 581.877Z"
     id="path106" />
  <path
     fill="#E5DB94"
     d="M743.517 577.627L744.468 578.464C747.818 577.608 747.436 577.757 750.9 578.199C751.206 605.353 751.289 632.509 751.151 659.664C751.096 672.039 750.548 693.539 751.371 705.438C750.238 701.333 747.641 700.453 743.494 701.373L743.281 700.604C744.012 696.967 743.564 668.049 743.545 662.702L743.548 581.877L743.517 577.627Z"
     id="path107" />
  <defs
     id="defs108">
    <linearGradient
       id="gradient_4"
       gradientUnits="userSpaceOnUse"
       x1="98.394211"
       y1="641.49371"
       x2="176.12599"
       y2="642.43005">
      <stop
         offset="0"
         stop-color="#676D5A"
         id="stop107" />
      <stop
         offset="1"
         stop-color="#A99E58"
         id="stop108" />
    </linearGradient>
  </defs>
  <path
     fill="url(#gradient_4)"
     d="M144.018 711.411C131.241 713.732 112.086 719.809 106.57 704.641C103.802 699.604 105.086 691.887 103.769 687.06C93.8561 650.721 99.2384 613.601 107.192 577.524C107.722 575.117 112.767 572.136 114.949 571.077C119.059 569.083 140.131 569.882 143.418 571.406C146.167 573.076 147.55 572.09 149.189 572.915C147.566 573.707 147.203 573.725 145.4 574.075C149.116 575.44 152.576 572.547 155.494 575.262L155.183 576.056C153.118 575.331 154.082 575.301 152.207 575.813L152.745 576.653C154.483 576.956 154.615 576.914 156.408 576.807L156.58 577.431C154.248 577.571 152.472 577.527 150.166 577.459L150.123 577.973C153.881 580.159 170.203 582.893 175.044 585.586C175.708 585.956 175.527 585.874 176.253 585.87C176.708 584.309 176.833 583.578 177.075 581.963L177.137 579.224C179.829 579.066 181.021 578.84 183.61 579.795L184.557 580.899L184.494 582.452L185.41 583.926C189.783 585.568 194.432 585.433 196.259 580.66L196.286 587.278C195.47 613.403 194.906 639.535 194.597 665.671C194.48 675.66 193.78 690.689 194.171 700.21L194.012 700.975C186.698 699.24 184.88 701.587 184.957 708.238C184.308 705.016 184.429 702.401 184.432 699.126C183.721 701.169 183.523 701.23 181.853 702.728C179.543 703.132 177.879 702.272 177.16 699.86L177.084 704.495L177.388 708.714C167.7 713.783 132.988 720.965 122.78 718.321L122.133 717.511C124.284 716.551 126.302 717.799 128.051 716.632L128.122 716.352C125.654 715.951 127.38 717.057 125.966 716.825C123.933 716.492 121.433 716.48 119.639 715.587C120.843 714.139 136.86 716.299 141.534 713.222C143.905 711.661 159.308 714.652 162.622 711.932L162.591 711.625C160.541 711.533 160.244 711.696 158.42 711.896C153.805 712.402 148.733 711.391 144.018 711.411Z"
     id="path108" />
  <path
     fill="#A49655"
     d="M184.494 582.452L185.41 583.926C189.783 585.568 194.432 585.433 196.259 580.66L196.286 587.278C195.47 613.403 194.906 639.535 194.597 665.671C194.48 675.66 193.78 690.689 194.171 700.21L194.012 700.975C186.698 699.24 184.88 701.587 184.957 708.238C184.308 705.016 184.429 702.401 184.432 699.126C185.348 661.095 184.06 620.729 184.494 582.452Z"
     id="path109" />
  <path
     fill="#E5DB94"
     d="M177.137 579.224C179.829 579.066 181.021 578.84 183.61 579.795L184.557 580.899L184.494 582.452C184.06 620.729 185.348 661.095 184.432 699.126C183.721 701.169 183.523 701.23 181.853 702.728C179.543 703.132 177.879 702.272 177.16 699.86C176.701 688.356 177.088 673.841 177.095 662.16L177.075 581.963L177.137 579.224Z"
     id="path110" />
  <path
     fill="#6E7158"
     d="M176.337 698.525L177.084 704.495L177.388 708.714C167.7 713.783 132.988 720.965 122.78 718.321L122.133 717.511C124.284 716.551 126.302 717.799 128.051 716.632L128.122 716.352C125.654 715.951 127.38 717.057 125.966 716.825C123.933 716.492 121.433 716.48 119.639 715.587C120.843 714.139 136.86 716.299 141.534 713.222C143.905 711.661 159.308 714.652 162.622 711.932L162.591 711.625C160.541 711.533 160.244 711.696 158.42 711.896C153.805 712.402 148.733 711.391 144.018 711.411C141.472 711.089 141.201 710.445 139.043 709.102L139.057 708.277C140.482 707.879 139.774 707.841 141.229 708.605C145.996 706.05 153.663 706.882 158.494 704.236C161.923 702.359 164.635 705.504 167.322 702.691C164.98 702.748 162.288 702.517 159.923 702.381C165.386 701.063 170.858 699.777 176.337 698.525Z"
     id="path111" />
  <path
     fill="#BDDAEE"
     d="M397.281 209.752C402.615 209.417 407.941 208.966 413.256 208.4C406.751 239.956 421.593 265.076 452.498 274.368C444.548 274.541 433.349 274.366 425.615 274.848C355.175 276.149 272.405 280.504 202.032 289.896C204.867 277.195 208.199 267.98 216.862 257.718C221.894 251.7 228.12 246.792 235.147 243.304C244.043 238.893 256.726 235.629 266.51 232.941C309.324 221.336 353.088 213.576 397.281 209.752Z"
     id="path112" />
  <defs
     id="defs113">
    <linearGradient
       id="gradient_5"
       gradientUnits="userSpaceOnUse"
       x1="479.92053"
       y1="265.16455"
       x2="718.24634"
       y2="237.51765">
      <stop
         offset="0"
         stop-color="#C8DAE0"
         id="stop112" />
      <stop
         offset="1"
         stop-color="#B6D9F5"
         id="stop113" />
    </linearGradient>
  </defs>
  <path
     fill="url(#gradient_5)"
     d="M514.89 208.528C521.232 208.925 526.726 209.827 533.28 209.897C535.41 210.33 536.644 210.44 538.819 210.596C536.352 212.435 534.66 213.664 532.786 216.14C525.091 226.309 531.309 242.617 544.496 243.77C549.503 244.208 554.144 243.178 558.231 239.915C561.929 236.959 564.233 232.598 564.591 227.877C565.039 221.692 562.731 217.559 559.163 212.847C594.165 216.981 628.8 223.787 662.764 233.206C682.321 238.633 700.087 242.7 712.856 259.91C720.433 270.123 723.61 277.511 725.95 289.916C704.705 286.701 682.466 284.774 661.068 282.981C636.358 280.817 611.615 279.051 586.848 277.684C570.988 276.828 555.118 276.157 539.242 275.673C531.684 275.426 520.466 274.829 513.071 275.126C501.49 274.397 487.413 274.647 475.469 274.307C505.816 266.031 522.213 239.287 514.89 208.528Z"
     id="path113" />
  <path
     fill="#BDDAEE"
     d="M696.513 741.089C699.888 741.001 725.607 740.612 727.313 741.132L727.818 742.11L727.45 743.182C723.545 744.18 707.45 743.655 701.024 744.301C699.423 752.565 691.61 800.378 688.075 804.246L687.142 804.23C686.436 802.002 686.945 798.375 686.819 796.254C685.391 775.359 694.212 750.788 662.904 752.598C651.714 753.245 637.488 752.184 625.991 752.682C617.17 753.065 607.422 751.866 598.538 752.828C587.846 753.987 583.475 759.788 582.679 769.922L582.64 788.161C572.787 788.894 569.117 790.29 566.059 800.146C563.836 794.492 561.066 790.378 554.76 788.815C550.947 787.888 546.922 788.519 543.575 790.568C540.202 792.626 537.808 795.964 536.94 799.819C535.731 805.268 537.414 809.15 540.166 813.541L528.889 813.403C529.519 795.988 529.412 775.539 528.633 758.015C528.149 747.121 516.92 745.357 507.75 745.325L442.717 745.304C437.275 745.294 415.643 744.952 411.567 745.618C408.316 746.168 405.334 747.766 403.075 750.168C397.809 755.697 399.2 770.591 399.211 777.994L399.306 813.532L387.97 813.568C391.214 808.564 392.899 803.842 390.751 797.896C389.428 794.258 386.698 791.305 383.174 789.702C379.519 788.022 375.33 787.937 371.609 789.466C366.182 791.71 364.149 795.462 362.086 800.425C360.021 790.673 354.265 788.668 345.369 788.342C345.691 769.31 349.565 752.038 323.552 752.576C300.371 753.055 276.611 751.616 253.515 753.637C248.989 754.033 243.356 759.957 242.567 764.5C240.862 778.073 241.57 792.771 241.505 806.598C234.782 796.405 229.416 757.798 226.901 744.007C221.863 743.641 202.884 745.017 200.643 742.052C201.859 740.955 206.575 741.177 208.676 741.094C229.226 740.537 251.464 741.039 272.157 741.027L392.542 741.051L671.477 741.01L671.753 741.333C674.09 743.975 674.597 744.483 677.52 746.335C682.907 746.753 685.896 746.69 691.18 746.418C694.194 744.213 694.4 744.067 696.513 741.089Z"
     id="path114" />
  <path
     fill="#BDDAEE"
     d="M254.926 876.958C260.623 876.646 286.626 882.838 294.419 884.426C314.138 888.246 333.808 892.313 353.425 896.626C363.217 898.696 382.122 901.657 390.991 906.143C398.38 911.296 401.623 921.558 403.266 929.517C405.495 940.32 405.404 945.861 393.44 948.195C386.155 948.53 373.589 947.524 365.855 947.112C351.232 946.472 336.616 945.691 322.008 944.77C308.576 943.947 292.129 943.257 278.819 941.584C267.439 938.603 254.491 922.416 247.676 913.976C240.549 905.15 245.89 882.602 254.926 876.958Z"
     id="path115" />
  <path
     fill="#BDDAEE"
     d="M669.105 877.106C669.757 877.018 670.412 876.932 671.07 876.907C672.98 876.833 674.719 877.79 676.071 879.085C681.246 884.039 683.492 894.894 683.803 901.772C684.155 909.547 681.089 914.293 676.023 919.864C670.557 925.874 661.02 937.022 653.617 940.389C644.97 944.322 556.208 947.462 539.474 948.221C533.913 948.078 524.749 947.223 524.019 940.144C523.22 932.402 527.559 918.234 531.434 911.824C536.883 902.81 555.475 900.707 565.33 898.688L592.784 892.875C617.526 887.817 644.545 881.627 669.105 877.106Z"
     id="path116" />
  <path
     fill="#BDDAEE"
     d="M600.167 759.041C606.142 758.921 612.26 758.947 618.238 758.971C635.42 759.039 652.651 758.83 669.82 759.325C672.203 759.393 677.036 760.525 678.42 762.516C680.595 765.88 680.84 770.673 680.665 774.613C680.258 784.634 680.497 794.694 680.687 804.719C680.829 812.157 680.154 819.102 671.113 820.182L622.484 820.228C614.468 820.226 606.378 820.442 598.381 820.012C593.913 819.81 590.033 816.263 589.666 811.787C588.687 799.655 589.075 787.29 589.04 775.121C589.029 771.032 588.891 765.92 591.503 762.648C593.882 759.668 596.719 759.42 600.167 759.041Z"
     id="path117" />
  <path
     fill="#BDDAEE"
     d="M284.845 759.093C292.379 758.993 331.021 757.441 335.036 760.667C337.721 762.824 338.777 767.02 339.127 770.315C339.931 777.881 339.895 802.699 338.771 809.951C338.386 812.434 337.515 815.993 335.761 817.834C331.984 821.8 308.394 820.201 301.881 820.164L272.929 820.228C264.37 820.265 248.222 822.799 248.013 810.526C247.946 796.842 247.536 782.756 248.197 769.113C248.768 757.334 259.926 759.211 268.333 759.089C273.862 759.009 279.363 759.09 284.845 759.093Z"
     id="path118" />
  <path
     fill="#BDDAEE"
     d="M412.92 751.585C416.659 751.445 420.729 751.52 424.496 751.56C454.632 751.877 484.866 750.972 514.969 751.87C518.71 751.982 520.414 754.51 522.486 757.196C523.252 767.469 522.628 779.118 522.829 789.38C522.927 794.432 523.827 817.723 519.85 820.118C513.567 823.9 492.598 822.4 484.678 822.337L484.555 800.837C495.113 800.396 494.899 800.405 494.637 789.469C494.554 784.55 495.456 771.587 493.416 768.234C489.108 766.609 440.542 766.48 434.534 768.393C432.609 771.127 432.72 795.623 434.921 799.391C435.972 801.189 441.772 800.8 443.653 800.78L443.607 822.299C436.547 822.365 416.909 823.711 411.058 821.617C408.936 820.858 406.736 818.573 405.972 816.453C404.466 812.273 404.993 759.12 406.122 756.699C407.503 753.735 410.026 752.621 412.92 751.585Z"
     id="path119" />
  <path
     fill="#BDDAEE"
     d="M288.629 828.148C296.912 828.06 305.195 828.092 313.477 828.243C315.237 831.76 316.987 834.77 317.765 838.652C323.348 838.468 329.553 838.603 335.19 838.618C335.167 850.539 335.191 859.525 336.404 871.423C332.843 871.405 325.663 870.476 323.4 872.437L323.277 874.547L323.341 884.115L309.795 881.175L309.759 871.373L283.806 871.279C283.561 863.704 283.683 856.127 283.683 848.561C283.682 839.553 283.625 835.752 288.629 828.148Z"
     id="path120" />
  <path
     fill="#BDDAEE"
     d="M177.055 385.589C177.061 377.204 176.504 367.41 177.709 359.224C178.265 355.451 190.254 344.463 194.564 349.531C194.767 351.765 194.753 352.853 194.64 355.099C186.049 357.465 184.652 358.449 184.542 367.538C184.395 379.633 184.471 391.733 184.484 403.829L184.503 468.766C184.501 504.879 183.624 545.173 184.557 580.899L183.61 579.795C181.021 578.84 179.829 579.066 177.137 579.224L177.075 581.963C176.833 583.578 176.708 584.309 176.253 585.87C175.527 585.874 175.708 585.956 175.044 585.586C170.203 582.893 153.881 580.159 150.123 577.973L150.166 577.459C152.472 577.527 154.248 577.571 156.58 577.431L156.408 576.807C154.615 576.914 154.483 576.956 152.745 576.653L152.207 575.813C154.082 575.301 153.118 575.331 155.183 576.056L155.494 575.262C152.576 572.547 149.116 575.44 145.4 574.075C147.203 573.725 147.566 573.707 149.189 572.915C147.55 572.09 146.167 573.076 143.418 571.406C144.005 571.02 143.978 570.919 144.436 570.342C142.428 568.91 136.749 570.906 134.987 568.944C137.486 568.241 138.503 568.308 141.055 568.225C139.936 567.945 139.857 567.869 138.826 567.324C139.944 566.673 140.935 566.275 142.113 565.767C148.498 566.523 170.916 572.359 176.37 575.341C177.177 559.645 176.742 540.819 176.764 524.893L176.8 432.797C176.812 419.556 176.103 398.255 177.055 385.589Z"
     id="path121" />
  <path
     fill="#6E7158"
     d="M176.37 575.341C177.177 559.645 176.742 540.819 176.764 524.893L176.8 432.797C176.812 419.556 176.103 398.255 177.055 385.589C177.458 414.136 177.156 443.393 177.151 471.992L177.137 579.224L177.075 581.963C176.833 583.578 176.708 584.309 176.253 585.87C175.527 585.874 175.708 585.956 175.044 585.586C170.203 582.893 153.881 580.159 150.123 577.973L150.166 577.459C152.472 577.527 154.248 577.571 156.58 577.431L156.408 576.807C154.615 576.914 154.483 576.956 152.745 576.653L152.207 575.813C154.082 575.301 153.118 575.331 155.183 576.056L155.494 575.262C152.576 572.547 149.116 575.44 145.4 574.075C147.203 573.725 147.566 573.707 149.189 572.915C147.55 572.09 146.167 573.076 143.418 571.406C144.005 571.02 143.978 570.919 144.436 570.342C142.428 568.91 136.749 570.906 134.987 568.944C137.486 568.241 138.503 568.308 141.055 568.225C139.936 567.945 139.857 567.869 138.826 567.324C139.944 566.673 140.935 566.275 142.113 565.767C148.498 566.523 170.916 572.359 176.37 575.341Z"
     id="path122" />
  <path
     fill="#BDDAEE"
     d="M621.085 828.264L639.327 828.353C642.991 833.044 644.016 836.37 644.217 842.278C644.546 851.948 644.315 861.654 644.198 871.329C635.578 871.334 626.958 871.383 618.339 871.478C618.642 876.902 620.855 880.257 615.174 882.065L608.753 883.395C609.041 879.462 609.171 875.281 609.364 871.322L591.638 871.291C592.979 859.403 592.985 850.48 592.973 838.547L610.35 838.675C611.373 835.003 612.92 831.926 614.518 828.49L621.085 828.264Z"
     id="path123" />
  <path
     fill="#BDDAEE"
     d="M705.629 749.841C714.211 749.881 722.735 749.404 731.307 749.986C737.503 750.407 738.192 755.869 738.385 761.109C739.363 787.647 738.633 814.186 738.57 840.737L738.501 872.578C738.492 877.413 738.721 886.855 738.036 891.254C734.9 892.181 732.233 892.965 729.722 890.571C728.878 887.225 728.495 871.139 728.328 866.889L726.404 812.177C726.204 804.911 726.532 796.128 724.732 788.843C722.38 779.321 704.288 758.408 705.629 749.841Z"
     id="path124" />
  <path
     fill="#BDDAEE"
     d="M189.75 886.286L189.473 805.518C189.449 796.906 188.343 757.709 191.684 752.384C197.051 748.002 207.797 750.297 214.373 749.864C217.137 749.682 220.831 749.348 222.847 751.328C223.861 755.865 204.321 782.959 203.085 789.965C202.009 796.063 202.067 802.431 201.831 808.504L200.546 843.501L199.465 873.86C199.316 878.386 198.864 886.505 199.233 890.619C198.096 891.368 196.135 892.091 194.784 892.171C190.182 892.442 190.088 889.528 189.75 886.286Z"
     id="path125" />
  <path
     fill="#BDDAEE"
     d="M189.75 886.286C193.037 887.452 194.574 886.127 198.218 888.586L199.233 890.619C198.096 891.368 196.135 892.091 194.784 892.171C190.182 892.442 190.088 889.528 189.75 886.286Z"
     id="path126" />
  <path
     fill="#BDDAEE"
     d="M484.59 838.607C504.303 838.461 524.017 838.459 543.731 838.601C544.093 849.551 543.81 860.512 542.882 871.428C538.307 871.589 533.551 871.555 528.96 871.588L489.738 871.606C486.279 871.612 474.984 872.634 473.507 870.038C475.153 865.58 497.287 866.886 484.727 848.38L484.59 838.607Z"
     id="path127" />
  <path
     fill="#BDDAEE"
     d="M384.366 838.47C403.95 838.767 423.854 838.458 443.51 838.615L443.478 848.352C433.969 860.617 442.624 865.684 454.255 868.628C454.547 869.99 454.472 869.528 454.293 870.973C452.559 871.973 392.72 871.676 385.322 871.686C384.247 861.56 384.354 848.807 384.366 838.47Z"
     id="path128" />
  <path
     fill="#BDDAEE"
     d="M236.719 810.116C245.684 812.869 239.871 818.631 252.577 825.819L252.589 871.264C244.505 875.593 243.143 881.197 240.137 889.248L238.62 882.324C237.758 877.956 237.462 875.723 237.199 871.281C231.632 871.37 226.732 870.952 222.245 867.256C214.873 861.182 213.237 847.923 219.643 840.635C224.399 835.225 229.616 834.528 236.287 833.9C236.249 827.986 235.842 815.411 236.719 810.116Z"
     id="path129" />
  <path
     fill="#BDDAEE"
     d="M690.431 809.902L691.416 810.644C692.75 814.493 692.194 828.756 692.126 833.747C697.968 834.573 703.004 835.121 707.316 839.319C717.465 849.202 712.072 868.96 697.594 871.073C695.559 871.37 693.363 871.327 691.36 871.326C690.876 874.354 690.517 877.678 690.125 880.743C689.889 883.061 688.992 886.988 688.514 889.403C685.313 881.586 683.61 875.207 675.828 871.491L675.963 825.466C687.286 819.574 682.525 814.753 690.431 809.902Z"
     id="path130" />
  <path
     fill="#BDDAEE"
     d="M453.706 782.417C454.1 783.06 453.172 792.505 453.256 794.88C453.478 801.162 454.329 807.725 454.824 813.972C455.474 822.185 453.746 844.354 456.087 850.738C458.214 851.819 457.511 851.869 459.368 851.423C461.116 849 461.528 848.089 464.306 847.364C466.112 847.741 467.539 849.811 469.128 851.094C474.893 851.44 473.458 844.399 473.389 840.02C473.155 825 473.393 810.496 475.007 795.565C475.395 791.97 474.209 787.814 474.723 783.714L475.314 783.259C479.571 787.341 478.472 801.599 478.486 807.464L478.529 841.094L478.635 851.925C480.341 853.512 481.223 854.06 482.031 856.264C481.65 862.275 472.278 862.257 467.361 862.916C467.505 871.904 467.543 880.909 467.603 889.897C467.631 894.119 468.321 900.452 464.663 903.203C462.615 902.854 463.374 903.145 461.723 901.712C459.874 897.639 460.709 869.446 460.751 862.954C455.804 862.327 447.285 862.486 446.028 856.847C446.458 854.424 447.909 853.217 449.581 851.318C450.579 832.253 447.978 804.058 450.043 786.213C451.168 784.968 452.524 783.636 453.706 782.417Z"
     id="path131" />
  <path
     fill="#BDDAEE"
     d="M374.074 794.866C376.701 794.433 379.242 794.713 381.727 795.711C383.191 796.299 384.252 797.183 384.81 798.689C386.538 803.351 383.206 808.247 381.223 812.246C377.279 820.201 378.033 869.392 379.936 878.726C380.446 881.225 382.329 883.345 383.095 885.8C384.062 888.9 383.119 892.264 381.661 895.034C378.721 895.553 375.093 895.998 372.793 893.451C368.776 889.004 372.677 884.631 372.563 879.63C372.333 869.46 370.764 858.931 370.73 848.789C370.689 836.385 372.058 823.757 372.66 811.333C367.815 804.73 366.577 800.287 374.074 794.866Z"
     id="path132" />
  <path
     fill="#BDDAEE"
     d="M548.373 794.864C560.882 793.628 561.959 802.848 555.672 811.622C555.384 823.763 558.018 836.971 557.418 849.554C556.921 859.987 556.143 870.119 555.411 880.468C555.078 885.174 561.342 889.658 553.296 895.148C550.989 895.414 547.77 896.227 546.269 893.804C542.157 887.166 547.634 882.941 548.237 877.723C550.658 856.253 550.575 833.275 547.377 811.93C546.797 808.064 536.405 802.593 548.373 794.864Z"
     id="path133" />
  <path
     fill="#BDDAEE"
     d="M345.362 794.643C357.319 794.715 359.521 803.57 351.077 811.366C348.455 829.779 348.796 853.764 349.944 872.459C350.329 878.731 353.726 883.257 353.594 889.198C351.278 890.356 344.798 888.471 341.88 887.819C342.769 883.289 343.236 880.461 342.815 875.838C341.325 859.512 341.061 843.27 341.55 826.892C341.675 822.731 344.233 816.764 344.979 812.498C345.934 807.044 345.479 800.252 345.362 794.643Z"
     id="path134" />
  <path
     fill="#BDDAEE"
     d="M579.594 794.348L581.561 794.543C584.514 797.872 581.662 808.032 582.691 810.667C588.794 826.291 586.422 841.345 586.468 857.87C586.497 868.355 583.798 876.808 586.63 887.64C583.177 888.665 579.59 889.262 576.046 889.926C572.509 886.457 577.162 881.568 577.761 876.815C580.441 855.573 579.597 832.214 577.126 811.072C570.035 805.213 569.859 797.071 579.594 794.348Z"
     id="path135" />
  <path
     fill="#BDDAEE"
     d="M656.378 826.405L669.699 826.52C669.663 837.134 669.869 858.539 669.443 870.064C669.149 870.372 668.855 870.679 668.561 870.986L656.451 873.391C656.226 857.911 656.363 841.9 656.378 826.405Z"
     id="path136" />
  <path
     fill="#BDDAEE"
     d="M258.707 826.369L271.726 826.618L271.696 873.243C267.534 872.251 263.021 871.644 258.773 870.983C258.643 856.112 258.621 841.24 258.707 826.369Z"
     id="path137" />
  <path
     fill="#BDDAEE"
     d="M575.69 196.934C581.319 196.442 609.187 195.687 613.339 198.578C613.804 200.351 613.737 199.428 613.164 201.447C607.909 204.578 609.016 207.623 609.274 213.328L608.912 214.388C606.277 214.813 584.394 210.656 580.042 209.979C580.277 207.809 580.773 206.026 579.81 204.185C577.51 201.911 576.156 202.728 574.468 201.149C574.287 199.252 574.778 198.726 575.69 196.934Z"
     id="path138" />
  <path
     fill="#BDDAEE"
     d="M315.802 196.919C325.704 196.372 336.019 196.969 345.956 196.677C349.838 196.562 355.754 196.755 352.801 202.441C351.177 202.558 351.197 202.528 349.572 203.131C347.545 205.371 347.982 206.961 348.015 210.042C338.435 211.519 328.865 213.061 319.305 214.668C319.249 212.706 319.757 204.155 318.184 203.024C317.217 202.329 315.808 202.732 314.414 200.754C314.431 198.882 314.781 198.598 315.802 196.919Z"
     id="path139" />
  <path
     fill="#BDDAEE"
     d="M679.215 706.656C683.006 706.413 686.875 706.505 690.68 706.534C691.004 713.075 691.252 731.976 690.359 739.351C689.987 739.802 689.615 740.252 689.243 740.702C684.616 740.722 682.322 740.754 677.746 740.034C677.142 732.318 677.562 723.165 677.449 715.33C677.4 711.973 677.018 708.798 679.215 706.656Z"
     id="path140" />
  <path
     fill="#BDDAEE"
     d="M544.726 215.183C548.733 214.399 552.852 215.84 555.496 218.953C558.14 222.065 558.897 226.363 557.476 230.192C556.055 234.021 552.677 236.783 548.643 237.416C542.566 238.37 536.844 234.281 535.776 228.222C534.709 222.163 538.688 216.364 544.726 215.183Z"
     id="path141" />
  <path
     fill="#BDDAEE"
     d="M563.52 838.574L573.196 838.568C573.37 849.274 573.596 860.904 572.013 871.484C568.94 871.62 565.437 871.57 562.327 871.597C563.429 859.182 563.638 851.152 563.52 838.574Z"
     id="path142" />
  <path
     fill="#BDDAEE"
     d="M355.065 838.625L364.468 838.634C364.395 849.897 364.993 860.191 365.697 871.385L356.045 871.567C355.062 862.159 355.129 848.354 355.065 838.625Z"
     id="path143" />
  <path
     fill="#BDDAEE"
     d="M463.106 776.948C471.754 779.856 469.681 805.078 465.218 811.959C464.068 812.207 464.513 812.148 463.27 811.857C457.193 806.203 458.653 784.148 463.106 776.948Z"
     id="path144" />
  <path
     fill="#BDDAEE"
     d="M596.486 951.435L602.312 951.314C602.421 961.204 603.701 966.359 595.763 973.593C588.997 974.816 589.176 968.972 589.255 963.956C589.318 959.893 589.43 955.849 589.468 951.784L596.486 951.435Z"
     id="path145" />
  <path
     fill="#BDDAEE"
     d="M325.805 951.286L338.595 951.746C338.662 956.419 339.431 969.566 337.575 973.025C324.913 977.257 325.889 958.39 325.805 951.286Z"
     id="path146" />
  <path
     fill="#4D5A5C"
     d="M724.871 697.949C726.7 696.669 728.921 697.288 731.185 697.557L732.21 702.765C733.341 701.519 733.45 700.426 733.88 698.791C733.936 703.058 733.87 708.122 734.104 712.321C734.128 717.512 735.793 737.316 732.472 740.203C732.014 734.372 732.41 720.298 732.31 713.481C731.119 710.116 729.336 709.495 726.011 709.46L725.84 702.045C725.563 700.679 725.205 699.305 724.871 697.949Z"
     id="path147" />
  <path
     fill="#BDDAEE"
     d="M733.88 698.791C733.936 703.058 733.87 708.122 734.104 712.321C734.128 717.512 735.793 737.316 732.472 740.203C732.014 734.372 732.41 720.298 732.31 713.481L732.255 704.643L732.21 702.765C733.341 701.519 733.45 700.426 733.88 698.791Z"
     id="path148" />
  <path
     fill="#5A635C"
     d="M724.871 697.949C726.7 696.669 728.921 697.288 731.185 697.557L732.21 702.765L732.255 704.643C731.251 702.619 727.907 702.429 725.84 702.045C725.563 700.679 725.205 699.305 724.871 697.949Z"
     id="path149" />
  <path
     fill="#BDDAEE"
     d="M308.699 950.632C312.446 950.648 316.082 950.84 319.82 951.024L320.025 964.309C306.927 964.622 308.503 962.712 308.699 950.632Z"
     id="path150" />
  <path
     fill="#BDDAEE"
     d="M608.597 950.718L619.367 950.51C619.53 954.417 620.184 960.147 618.575 963.58C615.7 964.458 611.35 964.167 608.229 964.119C608.42 959.7 608.482 955.15 608.597 950.718Z"
     id="path151" />
  <path
     fill="#BDDAEE"
     d="M743.494 701.373C747.641 700.453 750.238 701.333 751.371 705.438C751.146 712.964 746.38 716.494 740.23 719.382C739.991 710.324 743.687 709.477 743.494 701.373Z"
     id="path152" />
  <defs
     id="defs153">
    <linearGradient
       id="gradient_6"
       gradientUnits="userSpaceOnUse"
       x1="180.57498"
       y1="705.41364"
       x2="184.83347"
       y2="717.10901">
      <stop
         offset="0"
         stop-color="#CEDCDC"
         id="stop152" />
      <stop
         offset="1"
         stop-color="#B0D0EE"
         id="stop153" />
    </linearGradient>
  </defs>
  <path
     fill="url(#gradient_6)"
     d="M177.16 699.86C177.879 702.272 179.543 703.132 181.853 702.728C183.523 701.23 183.721 701.169 184.432 699.126C184.429 702.401 184.308 705.016 184.957 708.238L186.656 710.5C188.304 712.696 187.96 716.471 187.902 719.186C181.656 716.265 179.999 715.247 177.388 708.714L177.084 704.495L177.16 699.86Z"
     id="path153" />
  <path
     fill="#BDDAEE"
     d="M194.171 700.21L195.016 700.467C195.39 699.968 195.622 699.646 195.97 699.117L196.368 699.456L196.374 700.596L195.875 715.835C195.79 720.456 196.462 736.308 195.204 739.461L194.485 738.794C192.965 733.577 194.024 708.316 194.012 700.975L194.171 700.21Z"
     id="path154" />
  <path
     fill="#BDDAEE"
     d="M460.668 838.65C462.831 838.516 464.666 838.196 466.691 838.866C467.931 840.63 467.497 840.473 467.531 843.114C465.397 843.191 463.86 843.374 461.769 842.892C460.389 841.273 460.85 841.323 460.668 838.65Z"
     id="path155" />
  <path
     fill="#BDDAEE"
     d="M466.712 817.633C467.27 817.984 467.684 818.95 468.06 819.607L467.32 821.337C465.254 822.737 464.361 822.442 461.842 822.33C460.592 821.372 460.449 820.132 461.093 818.835C463.022 817.551 464.367 817.739 466.712 817.633Z"
     id="path156" />
  <path
     fill="#BDDAEE"
     d="M362.062 806.032C362.989 807.55 364.349 811.227 365.112 813.105L364.016 813.673C362.277 813.671 361.101 813.877 359.644 812.982L359.506 811.821C360.754 809.576 361.19 808.381 362.062 806.032Z"
     id="path157" />
  <path
     fill="#BDDAEE"
     d="M565.907 805.939C566.748 808.907 568.276 810.09 568.905 813.21L567.546 813.927C566.007 813.818 565.026 813.925 563.785 813.034L563.614 811.673C564.628 809.6 565.152 808.085 565.907 805.939Z"
     id="path158" />
  <path
     fill="#1F3952"
     d="M220.49 762.885C224.049 763.094 224.787 764.618 224.771 767.874C223.051 767.984 222.236 768.221 220.746 767.375C219.815 765.769 220.206 764.854 220.49 762.885Z"
     id="path159" />
</svg>
