<?xml version="1.0" encoding="UTF-8" standalone="no"?>
<svg
   width="928"
   height="1152"
   viewBox="0 0 928 1152"
   version="1.1"
   id="svg59"
   sodipodi:docname="horn_high.svg"
   inkscape:version="1.4.4 (dcaf3e7d9e, 2026-05-05)"
   xmlns:inkscape="http://www.inkscape.org/namespaces/inkscape"
   xmlns:sodipodi="http://sodipodi.sourceforge.net/DTD/sodipodi-0.dtd"
   xmlns="http://www.w3.org/2000/svg"
   xmlns:svg="http://www.w3.org/2000/svg">
  <defs
     id="defs59" />
  <sodipodi:namedview
     id="namedview59"
     pagecolor="#ffffff"
     bordercolor="#000000"
     borderopacity="0.25"
     inkscape:showpageshadow="2"
     inkscape:pageopacity="0.0"
     inkscape:pagecheckerboard="0"
     inkscape:deskcolor="#d1d1d1"
     inkscape:zoom="0.27693966"
     inkscape:cx="464"
     inkscape:cy="577.74319"
     inkscape:window-width="1259"
     inkscape:window-height="1387"
     inkscape:window-x="12"
     inkscape:window-y="39"
     inkscape:window-maximized="1"
     inkscape:current-layer="svg59" />
  <path
     fill="#B6D0E1"
     d="M178.248 374.832C178.852 374.761 179.457 374.702 180.063 374.653C215.139 371.77 247.945 388.715 273.919 411.196C337.641 466.347 377.515 558.878 384.894 641.671C388.619 692.816 382.195 751.352 347.701 791.82C333.414 808.582 310.93 823.427 288.658 825.094L288.024 825.183C257.462 829.327 223.433 814.71 199.838 795.835C135.523 744.387 93.7562 655.498 82.966 575.113C75.5915 520.175 79.642 457.88 113.953 412.273C130.189 390.691 151.584 378.322 178.248 374.832Z"
     id="path26" />
  <path
     fill="#245063"
     d="M181.49 391.727C181.616 391.703 181.742 391.68 181.868 391.657C211.375 388.441 240.475 402.293 263.246 419.881C322.047 465.296 358.917 543.87 370.41 615.864C378.655 667.508 374.149 731.098 342.043 773.917C327.913 793.068 306.617 805.666 283.03 808.827C192.518 815.754 123.625 699.424 102.922 624.912C97.5167 604.902 93.8194 584.47 91.8696 563.834C85.5506 500.748 102.982 399.452 181.49 391.727Z"
     id="path27" />
  <path
     fill="#E51818"
     d="M368.001 678.784C365.58 732.074 338.249 802.858 275.027 803.836C241.96 804.348 207.362 782.818 185.005 759.714C127.795 700.594 95.7825 617.213 95.9327 535.136C95.8753 475.97 119.906 396.4 191.674 396.657C225.017 396.777 256.82 418.379 279.498 441.336C336.527 497.88 368.24 583.677 368.889 663.513C368.909 665.992 368.552 676.696 368.001 678.784Z"
     id="path28" />
  <path
     fill="#B80200"
     d="M279.498 441.336C336.527 497.88 368.24 583.677 368.889 663.513C368.909 665.992 368.552 676.696 368.001 678.784C366.759 679.917 365.461 681.467 364.258 682.699C337.17 710.433 297.475 693.097 273.965 669.161C238.498 633.048 216.771 578.683 216.401 528.035C216.403 502.397 221.397 473.869 240.14 454.992C252.729 442.313 262.807 441.386 279.498 441.336Z"
     id="path29" />
  <path
     fill="#B6D0E1"
     d="M281.172 410.507C343.248 431.036 401.441 434.991 466.034 424.749C475.292 423.236 484.498 421.427 493.64 419.325C499.432 417.966 516.013 413.057 520.173 413.821C556.052 420.414 581.8 483.723 559.676 513.112C556.069 517.902 542.428 525.82 537.568 528.987C531.83 532.729 526.198 536.631 520.678 540.688C503.559 553.149 487.407 566.887 472.359 581.784C438.251 613.661 410.41 651.642 390.278 693.766C390.949 682.558 391.194 671.329 391.013 660.103C388.293 565.774 348.885 476.227 281.172 410.507Z"
     id="path30" />
  <path
     fill="#B6D0E1"
     d="M645.167 293.569C650.917 291.051 657.754 287.421 663.908 287.363C686.179 287.151 711.117 300.679 727.067 315.444C732.204 320.578 736.471 325.6 741.066 331.23C742.919 334.835 748.067 341.351 750.518 345.414C759.573 360.681 765.814 377.449 768.945 394.921C770.084 401.322 770.831 407.787 771.182 414.28C771.8 427.089 770.486 432.742 775.534 444.957C782.145 460.953 795.612 460.756 803.079 474.584C806.234 480.426 806.915 490.272 804.998 496.519C802.196 505.651 786.428 511.372 777.657 515.741C778.003 514.98 778.33 514.211 778.638 513.434C783.339 501.525 780.459 485.669 769.198 478.435C765.117 475.813 756.844 473.12 753.853 469.508C746.492 460.624 738.476 444.501 734.007 434.056C738.256 437.493 749.805 446.631 753.54 445.269C763.747 441.549 757.033 402.91 755.705 396.184C753.519 385.116 743.151 353.22 735.205 348.076C733.062 347.808 733.678 347.565 732.139 348.486C731.34 351.434 736.139 358.057 737.688 361.052C741.256 367.895 744.251 375.023 746.641 382.361C754.273 405.22 754.437 417.342 752.949 440.935C747.592 437.795 727.552 420.914 724.157 421.079C723.28 421.122 723.309 421.379 722.765 421.984C722.337 428.993 740.175 456.275 743.893 464.447C746.973 471.215 754.811 477.79 762.205 480.428C775.453 485.155 778.613 501.305 773.127 513.029C763.636 530.606 735.948 512.417 721.639 511.358C710.84 510.559 706.279 511.662 696.142 514.796C695.067 509.388 693.963 504.988 692.528 499.665C707.948 492.771 722.188 479.72 726.362 462.162C726.579 461.251 725.334 460.46 724.742 459.969C721.899 459.756 721.03 462.864 719.51 465.915C711.444 482.117 706.475 485.767 691.032 494.318C688.288 482.649 685.403 471.014 682.377 459.415C688.428 451.996 689.673 449.911 692.352 440.759C699.559 438.631 707.175 436.516 714.204 433.957C715.87 413.25 709.205 418.247 691.576 412.521C691.512 412.212 691.441 411.904 691.363 411.598C687.523 396.08 679.286 381.728 665.305 373.388C665.615 354.916 673.493 344.892 652.723 342.158C647.887 344.353 641.255 349.587 636.738 352.632C626.531 359.511 616.525 367.07 606.241 373.815C608.532 363.73 614.734 348.677 622.573 342.264C661.242 310.633 706.048 352.508 720.277 389.177C722.595 395.151 725.486 409.517 728.454 412.816L729.383 412.676C731.956 408.254 729.047 399.896 727.709 395.314C722.178 376.381 712.732 361.506 699.066 347.557C662.153 309.879 606.191 322.638 600.195 378.094C595.069 381.901 589.068 385.868 583.773 389.539C583.651 384.915 583.636 380.023 583.77 375.515C585.668 311.612 642.299 276.322 697.14 314.206C699.792 316.038 710.864 325.061 713.088 325.631C714.688 324.38 714.18 325.154 714.743 323.28C714.326 321.646 713.69 320.832 712.45 319.633C694.449 302.234 670.19 292.836 645.167 293.569Z"
     id="path31" />
  <path
     fill="#B6D0E1"
     d="M662.279 449.536L664.067 450.166C665.677 453.207 669.052 469.5 670.198 473.734C682.574 519.466 692.898 566.097 705.743 611.669C701.161 610.224 695.918 608.093 691.37 606.374L642.376 587.681C642.509 550.025 643.015 512.371 643.893 474.725C657.296 469.406 660.097 463.166 662.279 449.536Z"
     id="path32" />
  <path
     fill="#B6D0E1"
     d="M674.405 282.393C682.908 279.047 691.528 276.381 700.725 276.102C767.185 274.08 814.113 352.028 804.42 412.276C796.268 416.737 785.182 421.345 776.555 425.147C776.824 395.424 769.258 365.909 753.641 340.523C752.285 338.32 746.953 329.657 745.085 328.419C742.75 327.356 741.663 325.415 739.64 324.998C738.853 327.17 740.511 328.956 741.066 331.23C736.471 325.6 732.204 320.578 727.067 315.444C729.019 313.894 729.205 313.73 730.013 311.359C713.86 296.811 695.948 286.643 674.405 282.393Z"
     id="path33" />
  <path
     fill="#415F79"
     d="M730.013 311.359C734.357 315.676 741.989 323.297 745.085 328.419C742.75 327.356 741.663 325.415 739.64 324.998C738.853 327.17 740.511 328.956 741.066 331.23C736.471 325.6 732.204 320.578 727.067 315.444C729.019 313.894 729.205 313.73 730.013 311.359Z"
     id="path34" />
  <path
     fill="#B6D0E1"
     d="M711.207 573.257C716.066 570.965 720.877 568.574 725.637 566.083C733.362 569.155 764.826 581.109 768.988 585.358C769.259 586.245 769.432 586.142 768.92 587.045C766.064 592.083 728.011 610.914 720.653 614.509L711.348 619.493C704.792 623.451 696.408 627.106 690.093 630.887C656.389 651.066 653.824 648.439 619.359 633.768C607.431 628.773 595.535 623.7 583.672 618.551L585.35 617.051C602.749 609.929 622.848 600.426 640.1 592.526L683.629 609.129C691.607 612.162 701.015 616.024 709.05 618.579C711.794 617.971 717.71 614.369 720.356 612.824C720.703 607.455 712.953 580.633 711.207 573.257Z"
     id="path35" />
  <path
     fill="#245063"
     d="M733.693 578.394C738.337 578.138 755.296 578.027 752.813 588.789C752.229 591.317 746.252 593.517 743.542 594.274C725.339 596.664 713.981 583.203 733.693 578.394Z"
     id="path36" />
  <path
     fill="#B6D0E1"
     d="M737.615 583.486C740.753 583.563 745.085 583.381 746.648 586.508L745.997 587.591C744.004 588.843 742.101 588.876 739.734 589.204C736.346 589.128 731.757 589.318 729.826 586.205L730.52 585.128C732.949 583.75 734.829 583.783 737.615 583.486Z"
     id="path37" />
  <path
     fill="#245063"
     d="M647.927 622.774C654.373 622.4 664.522 622.083 667.357 630.338C668.902 634.839 661.55 637.618 658.044 638.468C652.861 639.211 647.608 638.967 642.919 636.629C637.87 634.112 635 629.166 640.701 625.582C643.27 623.967 645.031 623.476 647.927 622.774Z"
     id="path38" />
  <path
     fill="#B6D0E1"
     d="M649.571 627.928C653.214 627.712 657.83 627.808 660.823 630.066L660.911 631.136C659.496 632.719 658.03 632.844 655.925 633.415C652.262 633.482 646.31 633.348 643.487 630.737L643.683 629.741C645.83 628.311 647.029 628.331 649.571 627.928Z"
     id="path39" />
  <path
     fill="#B6D0E1"
     d="M637.649 476.986L638.158 477.403C638.876 483.085 637.976 503.325 638.013 510.013C638.153 535.708 637.045 562.062 637.256 587.707C621.152 595.493 604.711 602.614 588.597 610.372L588.123 610.278C586.492 607.666 598.963 524.549 600.31 514.873C600.525 513.331 605.311 506.255 606.637 503.912C609.833 498.269 610.982 493.316 612.368 487.045C620.83 483.781 629.257 480.428 637.649 476.986Z"
     id="path40" />
  <path
     fill="#B6D0E1"
     d="M768.681 595.078L769.121 595.207C770.562 596.91 769.813 605.102 769.709 607.838C762.658 612.514 752.743 617.697 745.214 621.811L705.98 643.025C692.715 650.128 679.671 657.524 666.015 663.937C652.078 670.482 641.326 663.841 628.386 658.396C620.443 655.054 612.568 651.528 604.651 648.127L522.999 612.908C519.994 609.894 520.945 602.069 521.088 597.891C561.88 615.597 604.098 633.131 645.31 649.906C660.507 656.091 682.366 640.919 696.292 633.608L768.681 595.078Z"
     id="path41" />
  <path
     fill="#B6D0E1"
     d="M661.886 377.984C662.793 377.909 663.057 377.923 663.956 378.455C675.408 385.221 682.98 401.469 686.871 413.503C663.197 423.873 636.35 433.921 612.053 444.05L608.276 445.579C602.355 430.498 598.904 421.861 588.697 408.88C596.06 406.063 604.512 402.198 611.878 399.108C628.601 392.194 645.27 385.152 661.886 377.984Z"
     id="path42" />
  <path
     fill="#B6D0E1"
     d="M544.015 391.085C548.566 390.671 553.153 391.148 557.521 392.489C594.978 403.606 620.771 471.576 600.227 504.418C594.817 513.067 588.817 515.273 580.194 519.877C578.739 520.782 578.098 521.38 576.388 521.449C576.373 520.057 579.236 515.476 580.159 513.262C581.574 509.783 582.681 506.186 583.465 502.513C591.958 463.596 565.763 405.828 524.54 396.947C530.686 394.992 537.808 392.098 544.015 391.085Z"
     id="path43" />
  <path
     fill="#B6D0E1"
     d="M804.664 418.531C806.004 419.836 809.573 432.165 812.48 435.282C825.695 449.448 844.264 457.059 837.753 480.543C834.25 493.177 818.266 499.486 806.986 505.289C806.855 504.351 809.226 500.333 809.843 498.289C811.454 493.031 811.745 487.456 810.692 482.058C809.27 474.934 805.289 465.405 799.124 461.395C785.16 452.31 781.338 446.799 776.901 430.538C786.221 426.69 795.477 422.687 804.664 418.531Z"
     id="path44" />
  <path
     fill="#B6D0E1"
     d="M567.868 565.947C570.923 567.311 574.163 568.932 577.206 570.378C575.742 583.318 573.826 596.294 572.548 609.231C572.293 611.817 572.743 612.151 574.074 613.649L573.508 614.486C565.32 611.206 556.475 607.13 548.288 603.656C541.558 600.8 528.31 595.94 522.703 592.254C521.769 590.609 522.012 591.269 522.238 589.095C525.307 585.77 561.564 569.011 567.868 565.947Z"
     id="path45" />
  <path
     fill="#245063"
     d="M547.628 581.186C565.342 579.679 576.58 592.172 556.411 597.205C550.466 597.729 539.347 596.778 537.542 589.727C537.227 588.511 537.416 587.219 538.066 586.143C539.93 583.08 544.387 582.011 547.628 581.186Z"
     id="path46" />
  <path
     fill="#B6D0E1"
     d="M549.222 586.267C551.984 586.114 560.329 586.223 561.101 589.288C559.932 590.888 558.298 591.13 556.326 591.791C552.509 591.932 546.8 591.951 543.659 589.513L543.631 588.529C545.229 587.052 547.056 586.839 549.222 586.267Z"
     id="path47" />
  <path
     fill="#B6D0E1"
     d="M516.878 401.778C560.701 400.47 592.897 477.791 574.916 512.585C567.879 526.203 561.028 529.774 546.451 530.069C549.226 527.856 550.854 526.749 553.876 524.872C575.663 513.211 575.592 481.986 569.375 461.261C563.54 441.807 551.336 422.443 533.158 412.552C521.091 405.986 510.978 408.526 498.626 412.439C504.457 405.719 507.977 403.11 516.878 401.778Z"
     id="path48" />
  <path
     fill="#B6D0E1"
     d="M709.506 516.482C714.41 515.915 718.054 516.215 722.889 516.601C722.807 531.596 722.934 546.593 723.271 561.585C719.245 563.505 715.262 565.515 711.326 567.613L710.569 567.952C710.277 567.747 709.985 567.543 709.694 567.338C707.01 557.039 699.695 528.167 697.551 519.736C702.097 518.241 704.734 517.414 709.506 516.482Z"
     id="path49" />
  <path
     fill="#B6D0E1"
     d="M673.088 446.555C674.797 448.657 711.828 597.111 714.748 608.87C714.124 610.643 713.872 610.268 711.695 611.512L710.743 610.82C708.259 602.303 706.261 593.414 704.021 584.794C698.312 562.936 692.727 541.044 687.268 519.122C682.456 500.727 677.869 482.274 673.509 463.766C672.606 459.881 671.148 456.096 670.408 452.186C669.619 448.02 669.777 448.11 673.088 446.555Z"
     id="path50" />
  <path
     fill="#B6D0E1"
     d="M660.711 352.791C661.14 355.449 659.925 370.025 659.659 373.685C653.478 375.4 643.817 379.812 637.569 382.442C623.14 388.514 608.941 394.724 594.419 400.645L594.515 399.892C600.592 394.982 609.352 389.111 615.947 384.436L660.711 352.791Z"
     id="path51" />
  <path
     fill="#B6D0E1"
     d="M656.322 451.814C656.946 453.332 655.897 457.093 655.271 458.502C651.33 467.363 639.169 470.699 630.834 473.99L613.248 480.979C612.816 479.706 612.812 467.652 612.575 464.978C626.608 461.246 642.252 456.047 656.322 451.814Z"
     id="path52" />
  <path
     fill="#B6D0E1"
     d="M708.699 425.399C709.602 426.917 709.27 426.819 709.232 428.922C708.959 429.295 708.687 429.668 708.414 430.041C681.623 438.802 636.967 452.255 611.679 459.637C611.074 457.628 610.711 457.016 611.031 455.019C612.817 453.829 623.877 450.74 626.656 449.946C654.041 442.115 681.25 432.931 708.699 425.399Z"
     id="path53" />
  <path
     fill="#B6D0E1"
     d="M593.267 518.595L593.532 518.85C594.198 521.249 583.28 601.62 581.806 610.083C581.72 610.574 580.116 610.82 579.33 611.032L578.136 609.86C577.134 606.12 587.302 530.961 589.238 521.983L593.267 518.595Z"
     id="path54" />
  <path
     fill="#B6D0E1"
     d="M653.124 347.605C654.801 347.683 655.645 347.556 657.058 348.459C655.153 351.165 592.13 395.121 583.521 401.382L582.791 401.555C581.136 400.825 581.136 400.712 579.859 399.522C580.505 397.47 645.737 352.904 653.124 347.605Z"
     id="path55" />
  <path
     fill="#B6D0E1"
     d="M690.021 417.946L702.275 421.447C682.313 428.691 655.175 435.987 634.635 442.086C630.673 443.353 627.462 444.252 623.419 445.23C631.435 441.527 639.285 438.648 647.398 435.3C661.523 429.312 675.732 423.527 690.021 417.946Z"
     id="path56" />
  <path
     fill="#B6D0E1"
     d="M581.805 529.73C582.364 533.033 579.014 560.342 577.774 563.711C575.979 564.046 575.534 563.395 573.603 562.447L572.613 561.847C572.093 559.951 580.566 533.748 581.805 529.73Z"
     id="path57" />
  <path
     fill="#B6D0E1"
     d="M684.7 443.269L685.765 443.587C685.767 446.439 682.781 450.376 681.147 452.785C680.312 452.028 679.72 450.598 679.464 449.496C678.355 444.725 681.449 444.05 684.7 443.269Z"
     id="path58" />
  <path
     fill="#A1BACF"
     d="M574.074 613.649C577.203 614.785 582.101 616.695 585.35 617.051L583.672 618.551C581.375 617.861 575.969 615.481 573.508 614.486L574.074 613.649Z"
     id="path59" />
</svg>
