<?xml version="1.0" encoding="UTF-8" standalone="no"?>
<svg
   width="928"
   height="1152"
   viewBox="0 0 928 1152"
   version="1.1"
   id="svg58"
   sodipodi:docname="horn_low.svg"
   inkscape:version="1.4.4 (dcaf3e7d9e, 2026-05-05)"
   xmlns:inkscape="http://www.inkscape.org/namespaces/inkscape"
   xmlns:sodipodi="http://sodipodi.sourceforge.net/DTD/sodipodi-0.dtd"
   xmlns="http://www.w3.org/2000/svg"
   xmlns:svg="http://www.w3.org/2000/svg">
  <defs
     id="defs58" />
  <sodipodi:namedview
     id="namedview58"
     pagecolor="#ffffff"
     bordercolor="#000000"
     borderopacity="0.25"
     inkscape:showpageshadow="2"
     inkscape:pageopacity="0.0"
     inkscape:pagecheckerboard="0"
     inkscape:deskcolor="#d1d1d1"
     inkscape:zoom="0.27693966"
     inkscape:cx="464"
     inkscape:cy="577.74319"
     inkscape:window-width="1259"
     inkscape:window-height="1387"
     inkscape:window-x="12"
     inkscape:window-y="39"
     inkscape:window-maximized="1"
     inkscape:current-layer="svg58" />
  <path
     fill="#BCD9EB"
     d="M155.619 476.67C174.791 474.155 197.981 485.508 212.944 497.078C255.012 529.862 279.117 582.028 286.641 633.856C293.455 680.79 280.882 750.629 223.764 757.731C199.819 758.475 180.078 750.208 161.709 735.107C119.814 700.2 95.4828 646.115 89.8689 592.597C84.9984 546.167 99.6743 481.785 155.619 476.67Z"
     id="path26" />
  <path
     fill="#28415B"
     d="M155.431 486.21C175.955 484.381 195.686 492.506 211.707 504.856C250.998 535.524 273.317 583.435 280.305 631.86C286.649 675.82 274.82 741.475 221.726 748.566C149.867 752.244 102.714 660.169 96.2024 599.282C91.5469 555.748 102.405 492.198 155.431 486.21Z"
     id="path27" />
  <path
     fill="#E72022"
     d="M275.262 674.765C270.666 706.178 255.035 740.078 219.215 743.465C199.093 745.367 178.403 734.609 163.472 721.71C126.688 689.933 105.392 640.834 100.815 592.999C97.0269 553.647 109.971 495.068 157.887 491.16C177.347 489.572 198.104 499.681 212.662 512.217C246.125 538.404 270.752 592.085 275.261 633.612C276.627 646.187 276.811 662.217 275.262 674.765Z"
     id="path28" />
  <path
     fill="#BD0A09"
     d="M212.662 512.217C246.125 538.404 270.752 592.085 275.261 633.612C276.627 646.187 276.811 662.217 275.262 674.765C271.906 677.433 268.033 679.377 263.889 680.474C225.825 690.628 189.746 633.318 182.694 601.531C176.635 574.225 172.228 530.55 201.995 514.929C204.683 513.519 209.352 513.103 212.292 512.318L212.662 512.217Z"
     id="path29" />
  <path
     fill="#BCD9EB"
     d="M524.654 423.698C533.008 424.096 539.086 425.516 546.231 431.691C563.692 446.78 575.135 483.272 557.618 502.02C553.318 506.621 537.7 514.819 531.328 518.517L497.403 538.345C458.819 560.713 420.881 584.175 383.633 608.705C351.773 630.065 317.318 654.584 291.756 683.15C293.559 673.399 293.818 657.942 293.147 648.106C292.839 642.856 292.367 637.617 291.731 632.396C285.014 580.077 257.485 524.871 215.291 492.286C288.024 496.17 397.668 460.061 468.269 440.299C486.016 435.331 507.062 427.606 524.654 423.698Z"
     id="path30" />
  <path
     fill="#BCD9EB"
     d="M660.163 287.413C669.05 286.882 678.222 288.405 686.734 291.204C732.985 306.412 761.747 352.193 769.584 398.417C772.493 412.738 769.359 427.738 774.471 441.539C779.067 453.949 786.688 458.661 796.352 466.127C804.681 472.563 808.045 486.359 804.955 496.22C801.95 505.808 786.259 511.531 777.739 515.56C783.514 501.246 781.483 485.853 767.354 477.138C763.674 474.869 757.077 473.437 754.388 470.022C745.842 459.171 739.545 445.919 733.224 433.617C737.21 436.474 753.995 450.445 756.633 444.008C760.546 434.462 758.621 410.266 756.819 400.522C753.868 384.473 748.321 369.013 740.397 354.749C738.604 351.509 737.187 347.044 733.112 347.829C730.596 351.379 736.909 358.472 738.814 362.49C751.629 389.525 755.589 411.562 752.828 440.695C742.788 434.965 735.035 427.63 725.866 420.725C724.997 420.07 724.052 420.795 723.34 421.199C723.114 421.762 722.906 422.263 722.849 422.873C722.309 428.718 744.89 466.791 749.703 472.561C753.679 476.688 758.863 478.965 764.114 481.345C781.79 488.423 778.795 524.602 757.188 520.574C730.652 515.627 724.467 506.263 696.113 514.821C695.065 508.56 692.697 500.305 691.072 494.034C687.991 482.498 685.091 470.914 682.375 459.286C688.255 452.539 689.959 449.075 692.841 440.616C699.826 438.453 707.03 436.319 713.889 433.837C716.381 413.984 709.125 417.85 691.791 412.595C687.214 395.497 680.046 382.803 665.191 372.993C665.249 367.728 666.965 349.74 665.675 346.247C663.363 343.929 654.673 341.251 651.878 342.74C644.373 346.741 637.052 352.42 630.023 357.348L583.248 390.188C583.316 368.144 584.989 347.682 597.068 328.91C624.916 285.633 677.679 293.188 711.078 324.96C711.946 325.786 712.755 325.46 713.668 325.248C714.988 323.712 714.673 324.563 714.807 322.675C708.258 310.862 676.996 296.324 664.331 294.712C657.668 293.863 651.809 293.52 645.134 293.687C649.858 291.554 655.333 289.42 660.163 287.413Z"
     id="path31" />
  <path
     fill="#BCD9EB"
     d="M662.065 449.513C662.529 449.55 664.11 449.833 664.242 450.334C668.277 465.558 672.147 480.827 675.987 496.101C685.627 534.686 695.473 573.218 705.523 611.698C701.068 610.194 696.094 608.136 691.663 606.422C675.184 600.281 658.741 594.047 642.332 587.721C642.167 550.35 643.435 512.204 643.593 474.743C656.89 470.06 660.086 462.841 662.065 449.513Z"
     id="path32" />
  <path
     fill="#BCD9EB"
     d="M700.535 275.854C729.935 273.42 760.149 293.721 777.667 316.15C799.073 343.488 808.658 378.252 804.289 412.699L779.101 423.937C777.85 424.529 778.501 424.394 777.062 424.276C776.061 422.031 776.271 410.243 775.75 405.731C773.072 381.37 764.827 357.952 751.652 337.288C732.797 308.063 707.864 289.798 673.83 282.457C683.81 278.901 689.793 276.702 700.535 275.854Z"
     id="path33" />
  <path
     fill="#BCD9EB"
     d="M725.542 565.919C732.842 568.974 765.479 581.384 768.996 585.236C769.14 586.394 769.363 586.895 768.645 587.908C766.127 591.458 680.221 636.591 669.998 641.485C666.414 643.2 661.774 645.376 657.817 645.917C653.793 646.467 648.661 645.422 644.796 644.264C635.725 641.545 626.689 636.932 617.979 633.202C606.485 628.279 594.733 623.718 583.418 618.421L584.27 617.341C591.183 614.91 599.492 610.878 606.295 607.791L639.979 592.462L684.703 609.467C691.498 612.049 703.041 616.797 709.734 618.553C712.892 616.856 718.066 614.269 720.904 612.359C718.837 602.274 714.105 583.231 711.121 573.239C715.991 570.84 720.767 568.511 725.542 565.919Z"
     id="path34" />
  <path
     fill="#28415B"
     d="M733.744 578.403C738.619 578.096 755.283 578.097 752.528 589.025C751.882 591.584 745.748 593.552 743.018 594.262C725.289 596.326 713.789 583.083 733.744 578.403Z"
     id="path35" />
  <path
     fill="#BCD9EB"
     d="M736.077 583.487C736.688 583.445 737.3 583.421 737.913 583.417C740.91 583.408 744.564 583.802 746.75 586.016L746.676 587.037C745.055 588.566 743.042 588.671 740.764 589.131C737.48 589.293 731.57 589.44 729.606 586.388L730.091 585.294C732.079 583.955 733.699 583.898 736.077 583.487Z"
     id="path36" />
  <path
     fill="#28415B"
     d="M647.786 622.767C650.19 622.628 653.231 622.345 655.591 622.697C668.223 624.578 673.504 634.804 658.085 638.357C640.621 640.672 627.034 628.036 647.786 622.767Z"
     id="path37" />
  <path
     fill="#BCD9EB"
     d="M648.695 627.906C651.697 627.669 660.095 627.528 661.243 630.917C660.058 632.549 658.495 632.733 656.478 633.366C652.622 633.576 646.67 633.601 643.53 631.08L643.544 630.038C645.153 628.601 646.585 628.455 648.695 627.906Z"
     id="path38" />
  <path
     fill="#BCD9EB"
     d="M637.727 476.543C638.743 477.784 637.271 577.768 637.241 587.844C622.21 594.106 603.126 603.322 588.351 610.348C588.01 610.111 587.617 609.922 587.654 609.611C592.01 572.829 596.864 535.611 601.92 498.853C602.53 494.42 604.288 491.806 605.791 489.23C614.835 486.125 628.936 480.415 637.727 476.543Z"
     id="path39" />
  <path
     fill="#BCD9EB"
     d="M769.361 594.571C770.604 596.039 769.971 605.032 769.902 607.518C765.982 610.715 756.376 615.705 751.72 618.238L722.581 634.045L687.644 652.908C659.645 668.019 658.34 671.79 628.427 658.521C593.646 643.091 558.095 628.645 523.312 613.138C520.057 611.282 521.108 601.625 521.146 597.914L602.854 632.331C659.322 656.035 647.82 659.251 702.744 629.998L769.361 594.571Z"
     id="path40" />
  <path
     fill="#BCD9EB"
     d="M662.462 377.496C675.516 385.341 682.526 399.628 686.846 413.654C662.731 422.461 635.088 434.722 610.927 444.547C609.952 445.023 610.02 445.019 608.943 445.096C608.628 444.752 604.233 433.555 603.316 431.607C598.904 422.24 594.581 416.631 587.334 409.339C612.141 398.567 637.866 388.634 662.462 377.496Z"
     id="path41" />
  <path
     fill="#BCD9EB"
     d="M556.279 401.276C591.223 401.036 614.242 452.144 603.211 481.778C596.874 498.8 590.748 500.459 575.597 508.055L574.432 508.128C574.542 506.077 576.826 503.511 577.636 501.477C592.03 465.325 572.282 417.008 533.327 407.454C541.565 404.617 547.591 401.97 556.279 401.276Z"
     id="path42" />
  <path
     fill="#BCD9EB"
     d="M804.23 418.445C805.554 419.474 811.123 435.104 814.063 437.668C828.619 450.358 843.442 458.366 837.651 481.102C834.597 493.094 817.539 499.764 806.812 505.502L806.122 505.383C806.782 504.445 807.396 503.474 807.959 502.475C814.263 491.474 810.694 470.882 801.313 463.494C786.491 451.819 782.302 450.42 776.846 430.846C784.532 426.783 795.78 422.557 804.23 418.445Z"
     id="path43" />
  <path
     fill="#BCD9EB"
     d="M567.487 565.936L577.259 570.106C576.52 578.279 571.739 607.615 572.786 613.022L571.748 613.804C564.165 610.306 525.186 595.344 522.834 592.117C522.334 591.431 522.133 590.801 522.355 589.97C522.807 588.275 524.77 587.02 526.156 586.133C530.189 583.553 535.039 581.782 539.366 579.705C548.783 575.205 558.157 570.615 567.487 565.936Z"
     id="path44" />
  <path
     fill="#28415B"
     d="M547.673 581.152C552.814 580.849 569.271 581.013 566.163 591.695C565.46 594.111 560.385 595.942 557.845 596.729C539.377 599.508 527.444 585.648 547.673 581.152Z"
     id="path45" />
  <path
     fill="#BCD9EB"
     d="M549.133 586.296C552.796 586.057 557.568 586.165 560.639 588.328L560.767 589.414C559.394 591.025 557.917 591.174 555.824 591.779C554.56 591.852 553.294 591.888 552.028 591.887C549.417 591.866 545.339 591.313 543.425 589.369L543.594 588.375C545.369 586.953 546.9 586.82 549.133 586.296Z"
     id="path46" />
  <path
     fill="#BCD9EB"
     d="M712.768 516.014C716.808 515.739 719.352 516.077 723.414 516.497C723.02 531.09 723.267 546.73 723.296 561.37C718.864 563.703 714.267 565.986 709.796 568.265C705.814 552.041 701.724 535.844 697.524 519.675C703.041 517.875 706.98 516.608 712.768 516.014Z"
     id="path47" />
  <path
     fill="#BCD9EB"
     d="M524.627 412.459C559.336 411.444 580.621 454.083 576.973 484.464C575.58 496.063 569.967 509.069 558.705 514.185C554.023 516.313 550.405 516.496 545.398 516.956C548.451 514.816 552.455 512.632 555.733 510.73C560.084 507.86 563.676 503.979 566.202 499.418C580.887 473.416 563.222 426.857 533.493 419.408C523.468 416.897 516.142 420.531 506.606 423.151C512.305 416.555 515.982 413.924 524.627 412.459Z"
     id="path48" />
  <path
     fill="#BCD9EB"
     d="M672.697 446.461L673.36 446.863C675.986 452.067 714.859 608.965 714.73 609.497C714.539 610.288 712.114 611.282 711.328 611.701L710.647 611.219C707.087 597.375 669.269 450.131 669.847 447.955L672.697 446.461Z"
     id="path49" />
  <path
     fill="#BCD9EB"
     d="M660.108 353.15L660.412 353.43C661.122 355.035 660.016 370.195 659.86 373.092C638.652 382.182 615.579 391.213 594.769 400.543L594.318 400.095C598.464 396.394 610.635 388.174 615.514 384.729C630.461 374.319 645.326 363.792 660.108 353.15Z"
     id="path50" />
  <path
     fill="#BCD9EB"
     d="M655.951 451.761L656.175 451.969C656.797 453.93 655.607 456.816 654.817 458.809C652.5 464.426 646.746 467.932 641.323 469.964C630.517 474.015 619.793 478.2 609.107 482.518C608.97 482.269 611.077 467.657 611.297 465.301C624.469 462.091 642.623 455.897 655.951 451.761Z"
     id="path51" />
  <path
     fill="#BCD9EB"
     d="M708.53 425.369L708.894 425.622C709.77 427.521 709.57 426.517 709.26 428.778C707.09 431.627 677.766 439.737 672.099 441.464C651.752 447.83 631.358 454.047 610.921 460.117C610.601 457.759 610.452 457.267 610.768 454.961C614.565 452.353 698.435 428.344 708.53 425.369Z"
     id="path52" />
  <path
     fill="#BCD9EB"
     d="M595.516 502.846C595.591 503.188 595.719 503.685 595.68 504.015C591.61 538.352 586.78 572.627 582.535 606.95C582.343 608.503 582.406 609.657 581.32 610.718L578.495 610.449C576.628 607.65 580.319 587.662 580.768 583.171C583.321 557.603 588.409 531.711 590.741 506.184L595.516 502.846Z"
     id="path53" />
  <path
     fill="#BCD9EB"
     d="M653.239 347.506C654.459 347.635 656.29 347.753 656.99 348.728C650.572 353.931 642.862 358.89 636.089 363.822C617.995 377.001 597.893 390.004 580.461 403.909L576.105 401.427C585.562 394.187 598.454 385.677 608.51 378.717L653.239 347.506Z"
     id="path54" />
  <path
     fill="#BCD9EB"
     d="M689.803 417.849C692.518 418.111 699.853 420.506 702.818 421.392C682.502 428.142 659.044 435.033 638.351 440.848C633.792 442.331 630.019 443.41 625.402 444.612C631.565 441.548 640.382 438.289 646.926 435.57L689.803 417.849Z"
     id="path55" />
  <path
     fill="#BCD9EB"
     d="M582.383 527.476C582.671 530.999 578.959 560.108 577.871 563.959C576.318 564.21 574.936 563.178 573.481 562.385C572.555 562.282 573.015 562.402 572.163 561.622C573.923 553.431 579.573 535.819 582.383 527.476Z"
     id="path56" />
  <path
     fill="#BCD9EB"
     d="M685.942 442.815C686.502 445.071 682.607 451.546 680.409 452.344L678.546 445.054L685.942 442.815Z"
     id="path57" />
  <path
     fill="#ACC6DD"
     d="M572.786 613.022C576.361 614.012 580.753 615.926 584.27 617.341L583.418 618.421C581.687 617.987 573.853 614.651 571.748 613.804L572.786 613.022Z"
     id="path58" />
</svg>
