<?xml version="1.0" encoding="UTF-8" standalone="no"?>
<svg
   width="187"
   height="195"
   viewBox="0 0 187 195"
   version="1.1"
   id="svg98"
   sodipodi:docname="injector.svg"
   inkscape:version="1.4.4 (dcaf3e7d9e, 2026-05-05)"
   xmlns:inkscape="http://www.inkscape.org/namespaces/inkscape"
   xmlns:sodipodi="http://sodipodi.sourceforge.net/DTD/sodipodi-0.dtd"
   xmlns="http://www.w3.org/2000/svg"
   xmlns:svg="http://www.w3.org/2000/svg">
  <defs
     id="defs98">
    <linearGradient
       id="gradient_1"
       gradientUnits="userSpaceOnUse"
       x1="963.74487"
       y1="1051.7085"
       x2="872.21051"
       y2="934.47986"
       gradientTransform="matrix(1.5,0,0,1.5,-1282.936,-1392.0953)">
      <stop
         offset="0"
         stop-color="#28456C"
         id="stop16" />
      <stop
         offset="1"
         stop-color="#41699E"
         id="stop17" />
    </linearGradient>
  </defs>
  <sodipodi:namedview
     id="namedview98"
     pagecolor="#ffffff"
     bordercolor="#000000"
     borderopacity="0.25"
     inkscape:showpageshadow="2"
     inkscape:pageopacity="0.0"
     inkscape:pagecheckerboard="0"
     inkscape:deskcolor="#d1d1d1"
     inkscape:zoom="1.1077586"
     inkscape:cx="31.595331"
     inkscape:cy="266.3035"
     inkscape:window-width="1259"
     inkscape:window-height="1387"
     inkscape:window-x="12"
     inkscape:window-y="39"
     inkscape:window-maximized="1"
     inkscape:current-layer="svg98" />
  <path
     fill="#badbf8"
     d="m 94.219235,93.038735 c 0.3315,-4.515 -0.005,-8.61 5.0865,-9.315 3.234005,2.325 3.450005,4.485 4.722005,8.355 10.1115,0.405 45.0165,-2.145 54.753,-4.29 l 1.176,-0.27 0.1755,2.235 c 1.278,4.23 2.5545,6.75 1.4415,10.950005 -4.11,3.18 -3.765,2.175 -9.9465,2.55 3.7185,1.755 5.5215,1.305 9.1695,3.525 -7.689,-0.57 -52.6395,-4.8 -56.8275,-2.205 -2.4,4.89 -1.536,5.04 -5.553005,7.47 l -2.847,-0.765 c -1.3785,-3.48 -1.2345,-4.05 -0.642,-7.785 -6.252,-1.68 -32.6595,0.96 -38.19,3.945 -5.2995,7.17 3.0225,9.555 0.849,14.565 l -5.2485,0.765 c -5.811,0.075 -10.0635,-0.135 -15.8685,-0.57 -0.0735,-6.51 0.174,-13.29 0.3135,-19.815 3.525,-2.790005 7.926,-0.855 12.7275,-5.655005 l -1.4595,-2.325 c -5.7915,-3.03 -3.684,-2.25 -10.4565,-2.13 l 0.237,-6.135 c 4.7985,-0.15 9.8295,-0.78 14.235,0.765 l 2.616,-2.22 c 2.2035,0.63 3.132,2.37 4.6125,4.245 9.8145,1.965 24.903,4.035 34.9245,4.11 z"
     id="path206"
     style="stroke-width:1.5" />
  <path
     fill="#1b2f4a"
     d="m 52.421735,102.81874 c 43.0215,-4.620005 56.088005,-2.925005 99.205505,0.435 3.7185,1.755 5.5215,1.305 9.1695,3.525 -7.689,-0.57 -52.6395,-4.8 -56.8275,-2.205 -2.4,4.89 -1.536,5.04 -5.553005,7.47 l -2.847,-0.765 c -1.3785,-3.48 -1.2345,-4.05 -0.642,-7.785 -6.252,-1.68 -32.6595,0.96 -38.19,3.945 -5.2995,7.17 3.0225,9.555 0.849,14.565 l -5.2485,0.765 z"
     id="path207"
     style="stroke-width:1.5" />
  <path
     fill="#203551"
     d="m 52.066235,86.903735 2.616,-2.22 c 2.2035,0.63 3.132,2.37 4.6125,4.245 9.8145,1.965 24.903,4.035 34.9245,4.11 l -0.171,2.34 c -11.115,-0.765 -28.71,0.51 -39.393,-3.18 -1.9125,-0.675 -1.8855,-2.79 -2.589,-5.295 z"
     id="path208"
     style="stroke-width:1.5" />
  <path
     fill="#1b2f4a"
     d="m 104.02774,92.078735 c 10.1115,0.405 45.0165,-2.145 54.753,-4.29 l 1.176,-0.27 0.1755,2.235 c -11.541,3.27 -40.9215,5.64 -53.271,4.995 z"
     id="path209"
     style="stroke-width:1.5" />
  <path
     fill="#1b2f4a"
     d="m 94.219235,93.038735 c 0.3315,-4.515 -0.005,-8.61 5.0865,-9.315 3.234005,2.325 3.450005,4.485 4.722005,8.355 l 2.8335,2.67 -12.813005,0.63 z"
     id="path210"
     style="stroke-width:1.5" />
  <path
     fill="#33445e"
     d="m 33.718235,111.44374 c -1.8255,-0.93 -6.4155,-1.755 -8.6235,-2.235 -2.8335,-2.28 -3.405,-2.415 -4.371,-5.73 l 1.7505,-2.43 c 4.4205,-1.875005 10.938,-2.370005 14.3085,1.335 -0.1395,6.525 -0.387,13.305 -0.3135,19.815 l -1.4265,0.84 c -2.997,0.015 -3.681,-0.3 -6.6045,-1.125 l -0.5775,-1.95 c 2.0925,-2.88 3.9015,-5.55 5.8575,-8.52 z"
     id="path211"
     style="stroke-width:1.5" />
  <path
     fill="#1b2f4a"
     d="m 33.718235,111.44374 0.834,-1.305 c 0.651,5.355 0.666,7.53 0.4905,12.9 -2.997,0.015 -3.681,-0.3 -6.6045,-1.125 l -0.5775,-1.95 c 2.0925,-2.88 3.9015,-5.55 5.8575,-8.52 z"
     id="path212"
     style="stroke-width:1.5" />
  <path
     fill="#203551"
     d="m 37.594235,92.273735 c -3.885,2.43 -13.6815,2.34 -16.4745,-1.755 3.4755,-6.465 8.922,-5.58 15.5085,-5.655 l 1.203,1.275 z"
     id="path213"
     style="stroke-width:1.5" />
</svg>
