<?xml version="1.0" encoding="UTF-8" standalone="no"?>
<svg
   width="187"
   height="195"
   viewBox="0 0 187 195"
   version="1.1"
   id="svg98"
   sodipodi:docname="interior_light.svg"
   inkscape:version="1.4.4 (dcaf3e7d9e, 2026-05-05)"
   xmlns:inkscape="http://www.inkscape.org/namespaces/inkscape"
   xmlns:sodipodi="http://sodipodi.sourceforge.net/DTD/sodipodi-0.dtd"
   xmlns="http://www.w3.org/2000/svg"
   xmlns:svg="http://www.w3.org/2000/svg">
  <defs
     id="defs98">
    <linearGradient
       id="gradient_1"
       gradientUnits="userSpaceOnUse"
       x1="963.74487"
       y1="1051.7085"
       x2="872.21051"
       y2="934.47986"
       gradientTransform="matrix(1.5,0,0,1.5,-1282.936,-1392.0953)">
      <stop
         offset="0"
         stop-color="#28456C"
         id="stop16" />
      <stop
         offset="1"
         stop-color="#41699E"
         id="stop17" />
    </linearGradient>
  </defs>
  <sodipodi:namedview
     id="namedview98"
     pagecolor="#ffffff"
     bordercolor="#000000"
     borderopacity="0.25"
     inkscape:showpageshadow="2"
     inkscape:pageopacity="0.0"
     inkscape:pagecheckerboard="0"
     inkscape:deskcolor="#d1d1d1"
     inkscape:zoom="1.1077586"
     inkscape:cx="31.595331"
     inkscape:cy="266.3035"
     inkscape:window-width="1259"
     inkscape:window-height="1387"
     inkscape:window-x="12"
     inkscape:window-y="39"
     inkscape:window-maximized="1"
     inkscape:current-layer="svg98" />
  <path
     fill="#203551"
     d="m 83.751537,59.950554 c 6.5745,-0.153 17.893503,-1.767 23.020503,2.922 4.3095,3.942 4.092,11.1345 4.6005,16.596 5.8155,3.558 10.746,8.4315 13.836,14.5635 5.676,11.264996 3.2655,22.987496 -0.3645,34.432496 -7.2885,7.197 -13.5285,12.3375 -23.3295,15.882 -4.420503,0.225 -9.274503,0.414 -13.653003,-0.1875 -8.7255,-1.2 -17.9265,-7.131 -23.238,-14.043 -5.52,-7.185 -8.1735,-16.62 -6.7485,-25.6125 1.866,-11.783996 8.733,-18.491996 17.9895,-25.292996 0.2325,-3.7065 0.1035,-8.127 0.9765,-11.7345 0.9345,-3.8595 3.7845,-5.55 6.9105,-7.5255 z"
     id="path466"
     style="stroke-width:1.5" />
  <path
     fill="#badbf8"
     d="m 79.916037,81.634554 c 0.0525,-3.6795 -0.1275,-9.7455 2.3355,-12.714 5.334,-6.4275 16.314,-6.756 22.351503,-1.02 1.5405,5.949 1.5615,7.848 1.7955,14.01 12.186,6.0075 18.354,16.8975 17.451,30.227996 -2.7465,40.557 -64.998003,32.3415 -61.758003,-5.727 0.906,-10.645496 9.711,-18.839996 17.8245,-24.776996 z"
     id="path467"
     style="stroke-width:1.5" />
  <path
     fill="#1b2f4a"
     d="m 104.60304,67.900554 c 1.5405,5.949 1.5615,7.848 1.7955,14.01 l -0.8955,9.0735 c 0.9015,5.292 1.002,6.348 0.5985,11.740496 l -1.6605,1.365 c -6.538503,-4.504496 -13.090503,0.3105 -22.084503,-2.4405 -5.8365,-6.820496 -0.102,-28.343996 4.23,-32.113496 l 1.8645,1.329 c 2.3715,8.682 -6.6705,12.825 -1.545,22.926 4.0995,2.6835 4.7325,2.754 9.642,3.126 9.732003,-5.3265 -0.5265,-17.985 3.372,-26.6265 l 3.088503,0.441 z"
     id="path468"
     style="stroke-width:1.5" />
  <path
     fill="#badbf8"
     d="m 104.60304,67.900554 c 1.5405,5.949 1.5615,7.848 1.7955,14.01 l -0.8955,9.0735 c -1.1295,-5.025 -1.902,-14.805 -2.4945,-20.253 z"
     id="path469"
     style="stroke-width:1.5" />
  <path
     fill="#203551"
     d="m 83.220537,53.176554 0.1425,-1.404 c -1.719,-1.731 -1.8015,-1.578 -2.4675,-3.885 5.001,-4.893 19.407003,-4.4415 25.060503,0.6705 l -0.339,3.6375 1.008,2.4225 c -4.71,4.6215 -17.892003,3.336 -24.216003,2.085 l -1.3065,-1.557 z"
     id="path470"
     style="stroke-width:1.5" />
  <path
     fill="#1b2f4a"
     d="m 105.61704,52.195554 1.008,2.4225 c -4.71,4.6215 -17.892003,3.336 -24.216003,2.085 l -1.3065,-1.557 2.118,-1.9695 c 4.4415,1.3845 17.331003,-0.4425 22.396503,-0.981 z"
     id="path471"
     style="stroke-width:1.5" />
  <path
     fill="#badbf8"
     d="m 132.20604,120.20705 c 1.3125,0.0255 2.574,0.1725 3.8655,0.39 6.369,1.074 10.425,2.3085 14.214,7.686 -3.1275,-0.147 -6.435,-0.723 -9.4605,-1.518 -4.2795,-1.1235 -6.426,-2.8605 -8.619,-6.558 z"
     id="path472"
     style="stroke-width:1.5" />
  <path
     fill="#badbf8"
     d="m 118.11804,141.12755 c 1.6575,0.723 2.763,1.554 4.0695,2.826 4.4115,4.2975 6.3285,8.2815 6.483,14.472 -5.259,-4.8705 -9.6465,-9.963 -10.5525,-17.298 z"
     id="path473"
     style="stroke-width:1.5" />
  <path
     fill="#badbf8"
     d="m 51.063537,120.06155 c 1.7925,0.234 1.794,0.495 3.123,1.5855 -3.096,3.4095 -8.5485,4.9335 -12.786,6.6585 l -3.0285,-0.7575 -0.3,-1.6455 c 3.5475,-3.1455 8.5755,-4.341 12.9915,-5.841 z"
     id="path475"
     style="stroke-width:1.5" />
  <path
     fill="#badbf8"
     d="m 35.766537,90.690054 c 7.9815,-0.4785 13.0575,1.5885 19.1475,6.6105 -0.5055,0.012 -1.011,0.0315 -1.5165,0.0345 -7.614,0.054 -12.159,-1.257 -17.631,-6.645 z"
     id="path476"
     style="stroke-width:1.5" />
  <path
     fill="#badbf8"
     d="m 67.724037,140.95355 1.8375,2.523 c -0.8055,5.1885 -4.9785,9.222 -8.223,13.1505 l -1.686,-1.9875 c 0.7995,-5.139 5.007,-9.6195 8.0715,-13.686 z"
     id="path477"
     style="stroke-width:1.5" />
  <path
     fill="#badbf8"
     d="m 144.07254,90.619554 c 2.4075,-0.2595 2.784,-0.2145 4.9785,0.798 -2.412,3.3825 -6.342,4.686 -10.0155,6.2925 l -4.0605,-0.2805 -1.101,-1.3395 c 2.526,-2.979 6.6465,-4.0605 10.1985,-5.4705 z"
     id="path478"
     style="stroke-width:1.5" />
</svg>
