<?xml version="1.0" encoding="UTF-8" standalone="no"?>
<svg
   width="187"
   height="195"
   viewBox="0 0 187 195"
   version="1.1"
   id="svg98"
   sodipodi:docname="mute_sounds.svg"
   inkscape:version="1.4.4 (dcaf3e7d9e, 2026-05-05)"
   xmlns:inkscape="http://www.inkscape.org/namespaces/inkscape"
   xmlns:sodipodi="http://sodipodi.sourceforge.net/DTD/sodipodi-0.dtd"
   xmlns="http://www.w3.org/2000/svg"
   xmlns:svg="http://www.w3.org/2000/svg">
  <defs
     id="defs98">
    <linearGradient
       id="gradient_1"
       gradientUnits="userSpaceOnUse"
       x1="963.74487"
       y1="1051.7085"
       x2="872.21051"
       y2="934.47986"
       gradientTransform="matrix(1.5,0,0,1.5,-1282.936,-1392.0953)">
      <stop
         offset="0"
         stop-color="#28456C"
         id="stop16" />
      <stop
         offset="1"
         stop-color="#41699E"
         id="stop17" />
    </linearGradient>
  </defs>
  <sodipodi:namedview
     id="namedview98"
     pagecolor="#ffffff"
     bordercolor="#000000"
     borderopacity="0.25"
     inkscape:showpageshadow="2"
     inkscape:pageopacity="0.0"
     inkscape:pagecheckerboard="0"
     inkscape:deskcolor="#d1d1d1"
     inkscape:zoom="1.1077586"
     inkscape:cx="31.595331"
     inkscape:cy="266.3035"
     inkscape:window-width="1259"
     inkscape:window-height="1387"
     inkscape:window-x="12"
     inkscape:window-y="39"
     inkscape:window-maximized="1"
     inkscape:current-layer="svg98" />
  <path
     fill="#badbf8"
     d="m 81.657092,49.77732 c 5.364,-0.42 10.788,-0.66 15.0075,3.36 8.651998,8.22 5.527498,59.49 5.290498,72.39 -0.1545,8.4 -0.3795,20.1 -7.294498,26.1 -2.2965,1.995 -5.139,2.895 -8.1615,2.67 -9.186,-0.675 -16.05,-8.955 -21.897,-15.225 -8.982,-10.965 -20.2515,-1.53 -28.845,-9.435 -4.908,-4.515 -5.742,-13.41 -6.138,-19.65 -0.684,-10.8 -0.9795,-27.72 7.0875,-35.97 5.2485,-5.385 16.3065,-4.065 23.2995,-4.125 7.581,-6 14.3385,-13.665 21.651,-20.115 z"
     id="path223"
     style="stroke-width:1.5" />
  <path
     fill="#375d8e"
     d="m 84.279092,66.98232 c 0.6825,0.27 1.3965,1.17 1.9245,1.695 1.3065,23.325 0.45,46.995 0.366,70.365 -6.6195,-6.84 -12.984,-13.605 -20.7825,-19.14 -6.3285,-2.55 -13.155,-2.1 -19.86,-2.115 l -0.1155,-31.41 c 20.283,-1.545 23.874,-5.46 38.4675,-19.395 z"
     id="path224"
     style="stroke-width:1.5" />
  <path
     fill="#badbf8"
     d="m 138.07059,91.38732 c 0.9165,-1.605 1.8405,-3.21 2.7735,-4.8 3.5655,-6.105 6.9885,-13.77 14.433,-15.735 l 1.1085,1.35 c 0.438,10.455 -6.8775,19.245 -12.2835,27.585 4.1265,7.14 13.125,15.975 13.7415,24.33 0.1725,2.325 -2.172,4.245 -3.6075,6 -6.6855,-2.07 -12.5895,-15.195 -16.089,-21.03 -2.6325,4.71 -5.283,9.66 -8.4975,13.995 -2.184,2.955 -5.232,5.835 -8.967,6.345 l -0.888,-1.725 c 0.093,-10.77 6.906,-18.96 12.5895,-27.555 -4.44,-7.065 -12.6885,-16.425 -13.7835,-24.81 -0.306,-2.34 1.929,-4.425 3.27,-6.3 7.713,3.315 12.1905,15.18 16.2,22.35 z"
     id="path225"
     style="stroke-width:1.5" />
</svg>
