<?xml version="1.0" encoding="UTF-8" standalone="no"?>
<svg
   width="187"
   height="195"
   viewBox="0 0 187 195"
   version="1.1"
   id="svg98"
   sodipodi:docname="radio_command.svg"
   inkscape:version="1.4.4 (dcaf3e7d9e, 2026-05-05)"
   xmlns:inkscape="http://www.inkscape.org/namespaces/inkscape"
   xmlns:sodipodi="http://sodipodi.sourceforge.net/DTD/sodipodi-0.dtd"
   xmlns="http://www.w3.org/2000/svg"
   xmlns:svg="http://www.w3.org/2000/svg">
  <defs
     id="defs98">
    <linearGradient
       id="gradient_1"
       gradientUnits="userSpaceOnUse"
       x1="963.74487"
       y1="1051.7085"
       x2="872.21051"
       y2="934.47986"
       gradientTransform="matrix(1.5,0,0,1.5,-1282.936,-1392.0953)">
      <stop
         offset="0"
         stop-color="#28456C"
         id="stop16" />
      <stop
         offset="1"
         stop-color="#41699E"
         id="stop17" />
    </linearGradient>
  </defs>
  <sodipodi:namedview
     id="namedview98"
     pagecolor="#ffffff"
     bordercolor="#000000"
     borderopacity="0.25"
     inkscape:showpageshadow="2"
     inkscape:pageopacity="0.0"
     inkscape:pagecheckerboard="0"
     inkscape:deskcolor="#d1d1d1"
     inkscape:zoom="1.1077586"
     inkscape:cx="31.595331"
     inkscape:cy="266.3035"
     inkscape:window-width="1259"
     inkscape:window-height="1387"
     inkscape:window-x="12"
     inkscape:window-y="39"
     inkscape:window-maximized="1"
     inkscape:current-layer="svg98" />
  <path
     fill="#1b2f4a"
     d="m 47.706066,52.662815 c -6.132,-2.025 -8.2785,-2.025 -9.582,-9.42 1.6035,-1.575 2.3445,-2.49 5.28,-1.89 36.4545,7.44 80.152504,16.365 113.808004,30.345 1.353,13.14 3.7515,67.575005 -0.9525,77.910005 -7.482,5.805 -34.839,7.875 -44.064,6.24 -13.606504,-2.4 -66.318004,2.04 -75.397504,-3.09 -9.0405,-13.02 -4.809,-58.425005 -4.368,-75.030005 0.1965,-7.32 10.041,-8.31 15.78,-9.375 0.63,-4.875 -0.0945,-10.695 -0.504,-15.69 z"
     id="path281"
     style="stroke-width:1.5" />
  <path
     fill="#375d8e"
     d="m 47.706066,52.662815 c 18.75,3.705 37.44,7.725 56.059504,12.03 -3.904504,2.295 -6.741004,2.55 -11.118004,3.345 -13.0005,0.765 -29.97,-0.315 -44.4375,0.315 0.63,-4.875 -0.0945,-10.695 -0.504,-15.69 z"
     id="path282"
     style="stroke-width:1.5" />
  <path
     fill="#335584"
     d="m 103.76557,64.692815 c 3.798,0.825 4.3845,0.18 5.9325,2.49 -6.591,1.44 -10.278004,1.08 -17.050504,0.855 4.377,-0.795 7.2135,-1.05 11.118004,-3.345 z"
     id="path283"
     style="stroke-width:1.5" />
  <path
     fill="#badbf8"
     d="m 41.455566,99.117815 c 35.658,-0.225 71.316004,-0.24 106.974004,-0.045 0.207,15.585005 0.2985,31.170005 0.273,46.740005 H 41.397066 c -0.183,-15.555 0.036,-31.14 0.0585,-46.695005 z"
     id="path284"
     style="stroke-width:1.5" />
  <path
     fill="#1b2f4a"
     d="m 120.38257,106.60282 c 9.0465,-2.61 18.4965,2.61 21.1035,11.655 2.6055,9.045 -2.6175,18.495 -11.6655,21.105 -9.045,2.61 -18.4875,-2.625 -21.093,-11.67 -2.6055,-9.045 2.6115,-18.48 11.655,-21.09 z"
     id="path285"
     style="stroke-width:1.5" />
  <path
     fill="#badbf8"
     d="m 121.24507,116.99782 c 2.262,-1.47 5.1435,-1.56 7.497,-0.255 2.355,1.305 3.801,3.795 3.765,6.495 -0.036,2.685 -1.548,5.145 -3.936,6.39 -3.4635,1.8 -7.731,0.555 -9.69,-2.82 -1.959,-3.375 -0.918,-7.71 2.364,-9.81 z"
     id="path286"
     style="stroke-width:1.5" />
  <path
     fill="#203551"
     d="m 71.940066,129.02782 c 1.3635,-0.99 3.171,-1.125 4.6635,-0.345 1.494,0.78 2.4135,2.34 2.373,4.035 -0.0405,1.68 -1.0335,3.195 -2.562,3.9 -2.067,0.96 -4.527,0.195 -5.6835,-1.77 -1.1565,-1.965 -0.633,-4.485 1.209,-5.82 z"
     id="path287"
     style="stroke-width:1.5" />
  <path
     fill="#1b2f4a"
     d="m 57.388566,118.60282 c 2.0295,-1.02 4.5045,-0.33 5.715,1.59 1.212,1.92 0.7635,4.455 -1.035,5.85 -1.326,1.02 -3.1185,1.2 -4.6245,0.465 -1.5075,-0.735 -2.4675,-2.25 -2.4795,-3.93 -0.012,-1.68 0.927,-3.21 2.424,-3.975 z"
     id="path288"
     style="stroke-width:1.5" />
  <path
     fill="#1b2f4a"
     d="m 88.608066,118.51282 c 2.064,-0.87 4.4535,-0.045 5.5365,1.905 1.0845,1.965 0.5115,4.425 -1.3275,5.715 -1.371,0.96 -3.168,1.05 -4.629,0.24 -1.461,-0.825 -2.331,-2.4 -2.241,-4.065 0.0885,-1.665 1.122,-3.15 2.661,-3.795 z"
     id="path289"
     style="stroke-width:1.5" />
  <path
     fill="#203551"
     d="m 71.434566,110.41282 c 1.131,-1.065 2.751,-1.44 4.2285,-0.96 1.4775,0.48 2.58,1.725 2.8755,3.255 0.2955,1.515 -0.261,3.09 -1.4535,4.08 -1.77,1.47 -4.3905,1.275 -5.919,-0.45 -1.527,-1.725 -1.4085,-4.35 0.2685,-5.925 z"
     id="path290"
     style="stroke-width:1.5" />
  <path
     fill="#badbf8"
     d="m 66.961566,77.562815 c 12.3975,0.045 74.599504,-3.39 80.928004,1.95 1.287,3.465 0.507,6.465 -0.072,10.005 -15.15,0.045 -67.950004,3.075 -78.804004,-0.465 -2.496,-4.275 -2.0325,-6.6 -2.052,-11.49 z"
     id="path291"
     style="stroke-width:1.5" />
  <path
     fill="#c6e1f8"
     d="m 41.251566,77.487815 c 4.401,-0.15 8.5755,-0.66 12.696,1.155 2.2695,4.08 1.848,6.525 1.8825,11.145 -4.2555,0.21 -8.3805,0.69 -12.423,-0.96 -2.5845,-4.035 -2.055,-6.615 -2.1555,-11.34 z"
     id="path292"
     style="stroke-width:1.5" />
</svg>
