<?xml version="1.0" encoding="UTF-8" standalone="no"?>
<svg
   width="380"
   height="472"
   viewBox="0 0 380 472"
   version="1.1"
   id="svg104"
   sodipodi:docname="red_lights.svg"
   inkscape:version="1.4.4 (dcaf3e7d9e, 2026-05-05)"
   xmlns:inkscape="http://www.inkscape.org/namespaces/inkscape"
   xmlns:sodipodi="http://sodipodi.sourceforge.net/DTD/sodipodi-0.dtd"
   xmlns="http://www.w3.org/2000/svg"
   xmlns:svg="http://www.w3.org/2000/svg">
  <defs
     id="defs104" />
  <sodipodi:namedview
     id="namedview104"
     pagecolor="#ffffff"
     bordercolor="#000000"
     borderopacity="0.25"
     inkscape:showpageshadow="2"
     inkscape:pageopacity="0.0"
     inkscape:pagecheckerboard="0"
     inkscape:deskcolor="#d1d1d1"
     inkscape:zoom="1.3526316"
     inkscape:cx="188.5214"
     inkscape:cy="253.57976"
     inkscape:window-width="2560"
     inkscape:window-height="1387"
     inkscape:window-x="0"
     inkscape:window-y="53"
     inkscape:window-maximized="1"
     inkscape:current-layer="svg104" />
  <path
     fill="#BDDBF1"
     transform="scale(0.409722 0.409722)"
     d="M423.61 280.94C463.543 279.389 510.489 280.669 550.293 282.321C607.25 284.685 669.85 288.377 726.329 296.022C727.131 310.117 726.892 328.698 727.216 343.282L729.569 452.088L731.363 549.848C732.881 610.303 733.952 670.769 734.577 731.241C734.582 733.613 734.474 738.561 732.774 740.276C730.335 736.477 735.981 699.133 728.257 693.239C723.492 689.603 716.203 690.304 710.366 690.324C707.808 648.236 704.932 606.168 701.74 564.123L699.11 526.476C698.457 516.526 700.071 490.556 684.745 493.374C683.276 493.644 682.892 494.758 682.342 495.884C682.707 501.889 690.537 498.79 691.189 506.516C691.897 514.894 692.35 523.308 692.88 531.7L695.852 575.441C698.421 613.468 701.736 652.286 703.651 690.283L650.855 690.406C660.245 684.633 666.609 680.094 672.783 670.538C680.363 658.781 682.921 644.479 679.885 630.824C676.761 616.487 667.95 604.034 655.471 596.319C643.575 588.944 629.233 586.608 615.612 589.829C601.858 593.058 589.957 601.633 582.538 613.657C569.483 634.794 572.18 661.104 589.493 679.065C594.221 683.97 598.761 686.847 604.479 690.333L504.635 690.333L323.881 690.323C332.119 685.683 338.764 680.279 344.207 672.446C352.427 660.662 355.567 646.069 352.923 631.946C350.364 618.143 342.413 605.928 330.829 598C305.172 580.727 272.142 587.497 255.389 613.499C247.759 625.327 245.197 639.724 248.281 653.459C252.396 671.496 262.771 680.979 277.493 690.306L224.382 690.275C226.936 645.008 230.626 599.063 233.789 553.797L235.918 520.409C236.265 515.255 236.528 508.559 237.581 503.598C238.479 499.366 243.324 501.204 245.818 497.349C245.947 495.346 246.021 495.424 245.115 493.676C238.369 489.457 231.204 498.193 230.679 505.218C230.174 511.969 229.655 518.595 229.208 525.354L226.755 559.846C223.71 602.935 221.175 647.405 217.674 690.334C213.007 690.273 203.664 689.908 200.407 692.934C192.672 700.122 196.866 730.378 195.904 740.516C193.987 739.212 193.506 736.867 193.532 734.652C193.672 722.7 193.897 710.746 194.052 698.792L195.45 614.041L198.633 440.753C199.953 392.531 200.913 344.3 201.512 296.063C223.321 293.115 246.647 291.069 268.573 289.192C320.149 284.762 371.855 282.01 423.61 280.94Z"
     id="path18" />
  <path
     fill="#284363"
     transform="scale(0.409722 0.409722)"
     d="M613.378 300.421C615.979 297.37 619.533 290.543 624.039 291.658C625.999 294.921 623.353 298.473 621.384 300.828C648.458 303.022 675.706 304.125 702.675 307.497C707.914 308.152 712.754 311.541 713.252 316.908C714.171 326.826 714.159 337.687 714.348 347.623L715.717 399.867L716.508 439.43C716.67 450.751 719.645 467.266 703.014 467.603C694.971 467.766 686.793 466.992 678.735 466.564C663.64 465.771 648.538 465.119 633.43 464.607C617.143 464.506 599.201 463.204 582.628 462.801C543.232 461.845 503.821 461.037 464.418 460.429C453.61 460.262 441.074 460.924 430.111 461.079C384.002 461.611 337.903 462.821 291.829 464.711C278.065 465.163 264.307 465.763 250.555 466.508C208.809 468.735 210.797 470.609 211.943 428.324L213.006 381.093C213.303 366.512 213.676 351.933 214.123 337.356C214.317 330.481 213.061 315.891 217.58 311.286C222.749 306.018 244.111 305.59 251.458 304.982L306.433 300.933C305.046 298.914 304.163 297.89 303.429 295.532C303.777 292.962 303.484 293.93 305.366 291.548C309.507 292.981 311.76 296.883 314.424 300.422C349.193 297.572 389.071 296.379 423.877 295.685C487.083 294.292 550.32 295.872 613.378 300.421Z"
     id="path19" />
  <path
     fill="#BDDBF1"
     transform="scale(0.409722 0.409722)"
     d="M454.637 301.255C466.279 300.406 490.122 301.42 502.936 301.728C537.543 302.558 574.588 303.684 609.195 306.482L603.789 312.929C582.933 312.347 561.889 310.133 541.035 309.737C538.349 309.904 534.459 310.595 532.369 312.182C525.452 317.434 527.334 329.939 527.329 338.092L527.35 372.656L527.362 411.778C527.37 418.602 527.183 425.953 527.696 432.746C528.09 437.97 533.552 443.885 539.046 444.186C547.735 444.663 556.571 444.815 565.328 445.053C581.339 445.494 597.348 446.018 613.353 446.624L663.928 448.787C673.006 449.195 682.166 449.766 691.141 449.785C698.599 449.8 702.421 444.403 702.601 437.519C702.972 423.33 701.976 408.561 701.713 394.405L700.902 352.407C700.714 343.141 703.066 320.78 691.297 319.231C665.337 315.813 637.508 315.761 611.491 313.344L616.695 307.021C625.845 307.312 701.266 311.683 705.433 315.076C706.98 316.336 707.332 322.419 707.435 324.393C708.838 351.496 708.929 378.92 709.409 406.061C709.672 420.879 710.929 436.256 710.21 451.037C710.098 453.33 710.078 457.42 708.402 459.138C706.719 460.864 705.604 461.279 703.274 461.326C694.783 461.498 686.112 460.695 677.628 460.281C662.919 459.538 648.205 458.901 633.486 458.371C579.731 456.274 525.948 454.965 472.155 454.442C405.353 454.734 338.564 456.325 271.824 459.215C264.936 459.548 225.279 462.629 221.525 460.502C220.027 459.654 219.379 458.564 218.912 456.932C216.639 448.989 218.228 432.029 218.396 423.104L219.566 369.986C219.744 362.811 219.859 320.115 222.086 316.274C227.853 311.976 247.787 311.532 255.946 310.875C274.374 309.272 292.83 308.009 311.304 307.085C313.095 309.035 315.008 311.369 316.755 313.4L267.003 316.63C258.082 317.226 249.033 317.637 240.171 318.753C234.222 319.502 228.49 322.663 228.028 329.355C227.419 338.181 227.459 347.15 227.212 356.005L225.587 421.335C225.29 432.855 222.215 450.391 238.788 449.811C249.129 449.449 259.448 448.951 269.784 448.503L327.5 446.176C340.553 445.708 353.609 445.308 366.667 444.975C373.775 444.76 380.662 444.487 387.75 444.051C402.641 443.135 400.702 430.065 400.735 418.85L400.781 394.178C400.815 371.137 400.88 348.101 400.803 325.056C400.779 317.895 398.241 310.694 389.903 310.033C382.105 309.415 373.686 310.286 365.842 310.745L324.53 313.233L319.272 306.574C362.711 302.02 410.919 302.907 454.637 301.255Z"
     id="path20" />
  <path
     fill="#284363"
     transform="scale(0.409722 0.409722)"
     d="M422.403 307.92C437.589 307.792 503.153 306.003 511.382 309.57C513.908 310.665 516.196 313.695 517.045 316.269C518.233 319.871 518.259 420.949 517.502 431.437C517.363 433.366 516.908 434.751 515.977 436.449C513.866 440.301 510.733 441.589 506.739 442.7L452.517 442.729C443.059 442.736 433.618 442.857 424.157 442.649C406.652 442.265 410.727 425.751 410.343 413.593C410.097 405.802 410.375 397.738 410.375 389.953L410.364 344.677C410.364 336.266 410.225 327.859 410.589 319.456C410.912 312.018 415.546 308.926 422.403 307.92Z"
     id="path21" />
  <path
     fill="#BDDBF1"
     transform="scale(0.409722 0.409722)"
     d="M423.415 314.146C435.823 313.89 502.94 312.378 509.105 315.695C510.167 316.267 510.405 316.934 510.695 318.062C512.432 324.806 511.339 334.196 511.325 341.193L511.234 383.487C511.205 398.299 511.397 413.158 511.362 427.971C511.351 432.812 510.289 435.54 505.198 436.5C494.377 436.506 423.091 437.664 419.758 435.427C417.933 434.202 417.304 432.986 417.025 430.843C416.281 425.112 416.722 418.906 416.737 413.113L416.792 382.414L416.705 344.278C416.668 336.911 416.519 329.506 416.756 322.146C416.922 317.002 418.091 314.727 423.415 314.146Z"
     id="path22" />
  <path
     fill="#BDDBF1"
     transform="scale(0.409722 0.409722)"
     d="M376.041 316.449C379.898 316.195 390.931 314.801 392.581 318.033C395.688 324.118 394.445 340.181 394.464 346.759C394.599 363.078 394.589 379.398 394.433 395.717C394.368 407.935 394.73 421.005 393.786 433.129C393.246 440.073 372.134 438.346 367.282 438.513L316.616 440.253C291.914 441.118 260.546 442.839 235.364 442.967C232.59 442.981 231.627 437.689 231.703 435.168C232.683 401.595 233.326 368.056 234.085 334.47C234.348 322.856 240.641 324.885 249.96 323.929C254.064 323.508 258.562 323.532 262.709 323.356C268.095 322.6 277.162 322.216 282.785 321.875C295.618 321.199 308.441 320.348 321.251 319.324C325.808 324.277 330.247 330.823 334.56 336.124C345.311 349.342 355.639 363.664 366.618 376.624C366.493 381.919 365.272 408.303 366.924 411.69C368.66 412.835 367.718 412.538 369.882 412.509C374.015 409.605 372.418 394.281 372.565 388.949C372.991 376.429 373.282 363.905 373.438 351.379C373.487 346.606 374.897 337.386 370.758 334.566L369.705 334.951C366.316 339.958 367.01 360.071 366.909 366.929C354.221 351.208 341.873 334.909 329.322 318.999C344.889 318.039 360.462 317.189 376.041 316.449Z"
     id="path23" />
  <path
     fill="#BDDBF1"
     transform="scale(0.409722 0.409722)"
     d="M539.831 315.707L598.798 319.058C587.209 334.639 573.473 351.306 561.347 366.66C561.383 361.029 561.801 338.282 558.798 334.867C556.478 334.506 554.757 336.926 554.763 339.01C554.785 346.693 554.982 354.411 555.111 362.101C555.294 372.155 555.532 382.207 555.826 392.257C555.946 396.628 555.57 408.932 557.729 411.827C559.862 412.537 558.806 412.508 561.011 411.848C561.845 410.856 562.52 410.296 562.521 408.878C562.528 398.43 562.067 386.713 561.797 376.333L606.768 319.386C622.29 320.807 640.415 321.675 656.058 322.476C663.028 323.126 687.699 322.623 691.884 326.818C693.266 328.202 693.697 329.7 693.92 331.606C695.174 342.341 694.396 353.837 694.692 364.671L695.673 415.696C695.838 422.3 698.24 438.119 693.642 442.778C686.001 443.806 653.138 441.747 642.957 441.369L543.297 438.059C539.523 437.899 534.78 437.017 534.289 432.601C533.305 423.742 533.671 413.814 533.668 404.893C533.612 385.784 533.663 366.676 533.82 347.568C533.851 340.055 533.291 332.498 533.473 325.008C533.595 319.966 534.715 316.882 539.831 315.707Z"
     id="path24" />
  <path
     fill="#284363"
     transform="scale(0.409722 0.409722)"
     d="M416.263 475.432C435.373 474.564 457.42 475.783 476.842 475.245C481.567 475.115 508.523 474.985 511.9 475.566C514.61 476.026 517.142 477.223 519.216 479.028C526.583 485.315 524.68 497.364 524.696 506.448L524.732 538.169L524.735 565.802C524.729 580.335 527.478 596.222 507.553 596.859L469.078 596.747C468.431 598.895 467.138 601.743 464.84 602.628C460.148 604.436 460.13 597.136 455.572 596.913C444.644 596.38 421.769 598.878 412.7 595.275C408.657 593.669 405.903 590.52 404.341 586.488C402.44 581.582 402.886 502.66 403.495 491.917C403.634 489.455 403.796 486.538 404.884 484.288C407.228 479.439 411.373 477.043 416.263 475.432Z"
     id="path25" />
  <path
     fill="#BDDBF1"
     transform="scale(0.409722 0.409722)"
     d="M450.4 590.664C444.249 590.704 437.909 590.768 431.747 590.76C424.805 590.705 409.94 592.534 409.765 581.778C409.298 553.104 409.629 524.309 409.574 495.616C409.56 488.63 410.432 482.091 419.121 481.745C434.179 481.146 449.495 481.414 464.643 481.426L494.643 481.465C500.789 481.475 513.327 480.043 516.479 485.183C519.596 490.265 518.508 504.975 518.508 511.136L518.504 547.829C518.507 554.275 518.322 563.65 518.509 569.594C519.112 588.749 517.711 591.516 498.02 590.779C492.918 590.588 483.944 590.655 478.365 590.725C481.357 587.874 484.338 585.546 483.86 581.124C482.946 572.665 483.048 556.456 478.479 549.66L475.155 546.231C465.832 540.582 460.276 541.2 451.616 547.422C451.732 538.938 452.316 531.202 445.8 524.544C442.484 521.09 437.862 519.201 433.078 519.344C428.244 519.476 423.676 521.584 420.441 525.178C413.614 532.799 415.699 540.106 415.297 549.22C414.756 561.48 413.057 567.305 428.03 569.22C428.497 572.393 428.685 576.656 430.235 579.172C432.727 580.946 436.251 580.975 437.97 578.069C439.962 574.7 438.352 569.919 442.258 568.378C443.715 568.679 444.195 568.662 445.363 569.617C445.988 578.393 441.675 583.07 449.541 589.928C449.825 590.176 450.111 590.421 450.4 590.664Z"
     id="path26" />
  <path
     fill="#284363"
     transform="scale(0.409722 0.409722)"
     d="M475.808 545.63C475.171 544.565 473.724 542.063 473.789 540.913C474.197 533.743 473.725 515.815 475.31 509.796C476.581 505.14 479.696 501.204 483.935 498.897C487.88 496.757 494.445 495.456 498.855 497.013C514.569 502.56 512.226 519.054 512.135 532.105C512.052 543.905 513.995 548.974 498.998 549.515C497.693 552.809 495.978 557.538 494.395 560.575C482.334 562.828 484.083 558.476 487.696 549.588C484.446 549.387 482.129 549.391 479.045 548.28L478.479 549.66L475.155 546.231L475.808 545.63Z"
     id="path27" />
  <path
     fill="#95ADC1"
     transform="scale(0.409722 0.409722)"
     d="M475.808 545.63L479.045 548.28L478.479 549.66L475.155 546.231L475.808 545.63Z"
     id="path28" />
  <path
     fill="#BDDBF1"
     transform="scale(0.409722 0.409722)"
     d="M489.919 502.991C490.804 502.922 491.69 502.868 492.577 502.829C505.953 502.284 506.199 514.239 506.135 523.967C502.372 523.2 501.18 523.119 497.324 523.056C491.741 522.977 485.858 522.585 480.555 524.22C480.472 514.633 479.584 507.197 489.919 502.991Z"
     id="path29" />
  <path
     fill="#BDDBF1"
     transform="scale(0.409722 0.409722)"
     d="M483.85 529.49C489.011 529.208 498.212 528.124 502.711 529.875C507.098 531.583 509.498 541.108 502.731 543.274C497.249 543.3 477.683 546.04 480.014 536.69C480.961 532.889 480.491 531.803 483.85 529.49Z"
     id="path30" />
  <path
     fill="#BDDBF1"
     transform="scale(0.409722 0.409722)"
     d="M424.284 548.552C429.521 548.291 434.802 548.303 439.973 548.194C448.272 548.02 450.236 558.861 444.833 562.44C438.913 562.732 420.679 565.781 421.026 557.041C421.187 552.997 421.367 551.405 424.284 548.552Z"
     id="path31" />
  <path
     fill="#BDDBF1"
     transform="scale(0.409722 0.409722)"
     d="M454.319 571.601C459.06 571.288 464.606 571.469 469.156 571.155C477.779 570.561 480.752 581.259 475.209 585.374C469.105 585.444 450.473 588.349 450.848 579.822C451.015 576.028 451.638 574.216 454.319 571.601Z"
     id="path32" />
  <path
     fill="#BDDBF1"
     transform="scale(0.409722 0.409722)"
     d="M430.254 526.048C442.425 524.765 444.824 531.987 445.208 542.302L435.476 542.173C431.092 542.039 427.018 542.473 422.686 542.559C421.852 542.575 421.329 541.578 420.911 540.986C419.91 535.301 425.293 528.506 430.254 526.048Z"
     id="path33" />
  <path
     fill="#BDDBF1"
     transform="scale(0.409722 0.409722)"
     d="M460.667 549.115C473.33 547.568 475.538 554.623 475.357 565.295L467.781 565.096C463.184 565.044 457.94 565.243 453.303 565.325L453.971 555.219C456.056 551.872 457.423 550.987 460.667 549.115Z"
     id="path34" />
  <path
     fill="#284363"
     transform="scale(0.409722 0.409722)"
     d="M515.22 651.505C531.82 650.653 522.876 662.119 535.213 666.32C539.094 667.641 544.691 665.602 546.907 661.902C550.41 656.055 550.615 649.108 559.806 651.737C561.585 652.232 561.527 652.478 562.306 654.033C561.94 656.024 561.952 655.914 560.57 657.432C559.504 657.52 558.232 657.625 556.754 657.747C552.591 662.223 552.221 668.196 545.783 671.029C533.044 676.634 524.807 668.382 519.768 658.13C516.75 657.877 514.621 657.843 513.304 654.854C513.612 652.994 513.83 652.921 515.22 651.505Z"
     id="path45" />
  <path
     fill="#284363"
     transform="scale(0.409722 0.409722)"
     d="M367.827 651.488C384.269 650.75 375.309 662.797 387.86 666.227C398.024 668.018 399.389 661.228 403.204 654.315C405.105 650.869 412.426 649.29 414.5 653.923C414.484 655.993 414.488 655.879 413.279 657.587C408.888 658.125 408.405 657.41 406.395 661.806C404.378 666.217 401.568 669.309 397.023 671.357C393.1 673.123 388.631 673.231 384.627 671.658C377.823 669.046 374.977 663.922 372.189 657.738C369.176 657.477 367.565 658.148 365.936 655.206C366.184 653.188 366.418 653.093 367.827 651.488Z"
     id="path46" />
  <path
     fill="#BDDBF1"
     transform="scale(0.409722 0.409722)"
     d="M206.568 696.549C227.483 695.84 251.573 696.447 272.874 696.45L399.93 696.461L713.071 696.462C715.51 696.484 721.974 696.42 723.693 697.536C727.433 702.652 726.153 726.839 726.139 734.784C716.538 734.841 706.938 734.825 697.338 734.735L697.302 718.982C697.238 713.47 698.375 703.06 691.776 701.224C685.59 699.504 671.876 698.75 671.758 708.089C671.714 711.551 669.936 712.395 667.33 713.766C664.884 717.071 666.05 720.001 666 723.491C665.883 731.75 668.777 728.419 671.37 731.709C671.534 733.614 671.804 733.283 671.018 734.645C666.471 735.054 658.529 734.822 653.805 734.824L622.512 734.826L522.272 734.835L202.314 734.794C202.231 724.861 201.537 709.806 202.987 700.072C203.257 698.256 205.023 697.333 206.568 696.549Z"
     id="path47" />
  <path
     fill="#BDDBF1"
     transform="scale(0.409722 0.409722)"
     d="M401.137 107.69C419.083 107.082 438.012 107.452 456.041 107.446C481.214 107.236 506.388 107.372 531.556 107.854C550.018 108.326 569.411 107.592 587.63 110.613C595.969 111.996 603.293 114.23 610.179 119.266C615.263 122.984 640.877 146.934 641.472 152.474C641.604 153.711 641.41 153.848 640.669 154.75C633.645 155.878 617.055 134.907 610.804 129.894C599.455 120.793 595.067 119 580.415 118.555C580.556 124.825 581.79 129.074 576.497 133.38C576.423 145.485 576.578 154.575 579.243 166.372C580.138 170.331 579.583 175.074 580.879 179.256C582.826 179.756 582.927 179.796 584.9 179.612C587.173 176.379 591.372 170.195 596.61 174.653C600.695 178.129 600.502 185.889 600.578 191.097C595.935 191.088 589.369 191.265 584.89 190.816L583.805 189.416C580.099 188.499 571.277 194.186 565.887 194.451C558.964 194.791 552.308 194.676 545.412 194.667L508.059 194.616C502.875 187.085 499.515 183.933 491.92 179C517.288 178.525 543.174 179.476 568.538 178.805C562.812 176.875 553.054 174.919 546.916 173.563L513.079 166.047C500.002 163.877 486.333 159.647 473.278 157.05C462.337 154.874 457.534 152.046 446.288 154.672C437.32 156.767 427.68 158.555 418.619 160.445C399.629 164.463 380.6 168.294 361.535 171.939C361.662 174.279 361.905 176.811 362.091 179.164C386.377 178.627 411.895 178.905 436.262 178.923C428.502 183.639 425.102 187.323 419.979 194.713C407.514 194.594 395.048 194.582 382.583 194.676C375.932 194.689 369.469 194.768 362.807 194.466C356.795 194.193 349.648 189.183 344.549 189.356L343.67 190.644C340.648 191.203 330.976 191.113 327.484 191.147C327.441 186.696 327.617 183.362 327.942 178.928C337.114 165.071 341.923 182.255 346.479 179.319C349.027 174.571 348.044 168.264 348.81 163.002C349.15 160.668 351.194 156.833 351.282 154.729C351.486 149.791 351.745 144.176 351.662 139.242C351.554 132.773 352.17 134.106 348.432 130.362C347.57 127.446 347.836 121.793 347.844 118.547C324.139 119.302 317.477 129.973 301.342 145.526C297.939 148.807 292.12 156.05 287.262 154.774L286.569 153.546C286.642 149.867 288.39 148.22 290.95 145.717C302.683 134.313 316.151 115.86 332.941 112.216C353.909 107.664 379.514 108.278 401.137 107.69Z"
     id="path48" />
  <path
     fill="#284363"
     transform="scale(0.409722 0.409722)"
     d="M415.525 118.418C448.339 117.884 481.159 117.882 513.973 118.412C525.18 118.467 536.387 118.594 547.593 118.793C551.474 118.879 563.915 118.526 566.51 120.636C566.93 122.284 566.832 121.714 565.966 123.641C560.732 125.348 550.355 127.145 544.406 128.357L503.251 136.689L473.013 142.946C463.985 144.811 456.455 147.294 447.309 145.055C439.896 143.24 432.257 141.599 424.799 139.933L361.54 125.879C361.528 123.327 361.486 122.341 361.986 119.798C364.044 118.14 409.173 118.459 415.525 118.418Z"
     id="path49" />
  <path
     fill="#284363"
     transform="scale(0.409722 0.409722)"
     d="M566.719 130.122L567.685 130.114L570.762 133.562C570.81 137.419 571.141 148.752 570.594 152.056C569.419 159.153 567.889 164.306 567.098 171.956C543.478 165.878 516.049 160.405 491.926 154.844C486.836 153.8 474.893 151.491 470.528 149.741C501.939 143.485 535.416 135.594 566.719 130.122Z"
     id="path50" />
  <path
     fill="#284363"
     transform="scale(0.409722 0.409722)"
     d="M357.938 131.921C360.967 131.9 376.666 135.541 380.751 136.432C400.294 140.71 419.808 145.116 439.294 149.649C434.762 150.871 428.411 152.016 423.674 152.992C418.777 154.414 408.16 156.286 402.798 157.392L360.617 166.176C359.952 162.336 358.561 158.113 357.871 154.757C356.91 150.082 356.604 136.256 357.938 131.921Z"
     id="path51" />
  <path
     fill="#BDDBF1"
     transform="scale(0.409722 0.409722)"
     d="M405.273 209.025L413.4 208.413C406.07 239.376 422.155 265.885 452.747 274.275C446.454 274.762 437.241 274.582 430.647 274.702C416.22 274.949 401.795 275.311 387.373 275.787C340.288 277.365 293.265 280.44 246.375 285.008C231.564 286.282 216.787 287.911 202.055 289.894C210.757 250.324 231.428 242.592 266.448 232.921C311.883 220.673 358.358 212.673 405.273 209.025Z"
     id="path52" />
  <path
     fill="#BDDBF1"
     transform="scale(0.409722 0.409722)"
     d="M514.657 208.516C522.303 208.709 531.032 209.772 538.736 210.552C538.43 210.768 538.127 210.987 537.826 211.209C523.849 221.613 528.02 241.632 544.204 243.674C549.275 244.351 554.4 242.902 558.367 239.671C562.109 236.615 564.391 232.126 564.655 227.302C564.95 221.222 562.459 217.184 558.679 212.882C587.379 215.155 673.815 231.623 696.607 245.214C710.804 253.679 720.691 268.344 724.732 284.202C725.147 286.061 725.789 287.981 724.963 289.485C718.749 289.407 703.474 286.919 696.326 286.181C676.079 284.218 655.814 282.458 635.532 280.902C580.817 276.648 530.262 275.381 475.671 274.324C506.151 265.422 522.107 239.686 514.657 208.516Z"
     id="path53" />
  <path
     fill="#BDDBF1"
     transform="scale(0.409722 0.409722)"
     d="M206.082 741.081C246.289 740.824 286.496 740.825 326.703 741.083L671.602 740.956L672.157 741.638C674.32 744.331 674.511 744.453 677.356 746.333C685.598 746.888 691.017 748.661 696.42 741.239C701.588 740.973 725.086 740.019 728.113 742.113L727.994 742.788C725.325 744.023 706.473 743.863 701.093 744.264C697.927 757.585 696.438 771.85 693.267 785.217C691.975 790.66 691.936 800.397 687.681 804.156L687.077 803.963C685.42 796.904 688.277 772.336 685.885 764.173C684.694 759.964 681.757 756.466 677.817 754.566C675.893 753.624 674.12 753.229 672.013 753.026C661.855 752.047 599.193 751.744 592.901 753.991C588.328 755.623 585.808 759.061 583.763 763.206C582.041 769.356 582.622 781.492 582.673 788.378C572.425 788.579 569.58 790.745 565.63 800.115C564.256 794.883 561.74 791.07 556.347 789.218C552.355 787.867 547.982 788.221 544.259 790.196C540.626 792.127 537.982 795.508 536.983 799.5C535.593 805.163 537.314 808.988 540.192 813.493L528.872 813.476L529.111 777.634C529.142 771.681 529.428 764.588 528.732 758.735C528.38 755.778 527.028 752.196 524.893 750.086C520.601 745.841 516.37 745.351 510.687 745.34C488.937 745.297 466.905 745.334 445.192 745.317C439.612 745.313 415.036 744.92 410.959 745.734C408.024 746.346 405.337 747.814 403.235 749.952C397.84 755.502 399.204 770.561 399.215 777.987L399.306 813.511L388.009 813.535C388.699 812.478 389.387 811.4 389.94 810.264C391.849 806.411 392.135 801.953 390.733 797.888C389.418 794.261 386.693 791.319 383.177 789.729C373.355 785.261 365.928 791.371 362.188 800.145C359.217 790.612 354.892 788.685 345.378 788.376C345.332 779.205 347.814 763.777 340.504 757.144C338.291 755.117 335.549 753.757 332.597 753.221C326.794 752.144 310.937 752.622 304.357 752.61C290.412 752.604 275.554 752.756 261.708 752.857C244.068 752.985 241.048 762.002 241.535 777.513C241.729 783.692 241.354 790.447 241.764 796.7C241.912 798.969 242.281 803.117 240.691 804.817C237.046 802.016 235.162 787.602 234.259 782.95L226.932 744.201C219.483 743.23 207.953 744.426 201.264 743.218L200.609 742.241L201.363 741.369L206.082 741.081Z"
     id="path54" />
  <path
     fill="#BDDBF1"
     transform="scale(0.409722 0.409722)"
     d="M255.36 876.906C260.69 876.846 291.532 883.785 298.266 885.175C317.705 889.048 337.114 893.07 356.491 897.241C365.729 899.208 382.426 901.85 390.742 905.997C397.735 910.647 401.229 920.111 402.837 927.561C405.328 939.1 406.664 945.824 392.99 948.263C385.236 948.503 373.279 947.531 365.159 947.112C349.062 946.361 332.97 945.483 316.886 944.476C305.812 943.798 287.841 943.168 277.417 941.254C267.015 937.387 252.874 921.43 247.126 912.972C240.899 903.807 246.065 882.001 255.36 876.906Z"
     id="path55" />
  <path
     fill="#BDDBF1"
     transform="scale(0.409722 0.409722)"
     d="M669.815 877.137C670.379 877.061 670.696 877 671.233 876.982C673.127 876.92 674.921 877.912 676.264 879.186C681.352 884.013 683.569 895.326 683.816 902.049C684.111 910.069 680.602 914.871 675.387 920.528C669.551 926.858 661.237 937.026 653.267 940.559C645.056 944.199 554.177 947.61 538.093 948.295C535.075 948.235 530.681 947.614 528.089 946.087C525.94 944.795 524.445 942.647 523.98 940.182C522.791 934.162 527.89 916.995 531.582 911.624C537.67 902.766 553.198 901.158 563.303 899.081L590.784 893.293L638.635 883.512C648.868 881.383 659.557 878.817 669.815 877.137Z"
     id="path56" />
  <path
     fill="#BDDBF1"
     transform="scale(0.409722 0.409722)"
     d="M299.131 594.898C325.042 594.116 346.705 614.441 347.578 640.353C348.45 666.265 328.203 688.002 302.297 688.964C276.264 689.932 254.4 669.56 253.523 643.52C252.647 617.48 273.092 595.684 299.131 594.898Z"
     id="path57" />
  <path
     fill="#284363"
     transform="scale(0.409722 0.409722)"
     d="M294.261 604.038C315.316 600.543 335.185 614.881 338.506 635.968C341.827 657.054 327.327 676.806 306.217 679.954C285.351 683.065 265.88 668.768 262.598 647.926C259.315 627.084 273.449 607.493 294.261 604.038Z"
     id="path58" />
  <path
     fill="#BDDBF1"
     transform="scale(0.409722 0.409722)"
     d="M295.365 610.242C312.894 607.38 329.429 619.252 332.324 636.777C335.219 654.302 323.381 670.863 305.864 673.792C288.299 676.73 271.685 664.85 268.782 647.277C265.879 629.704 277.789 613.111 295.365 610.242Z"
     id="path59" />
  <path
     fill="#284363"
     transform="scale(0.409722 0.409722)"
     d="M296.88 643.202C304.967 641.12 313.216 645.966 315.338 654.044C317.46 662.122 312.657 670.396 304.591 672.559C296.467 674.736 288.122 669.891 285.985 661.755C283.848 653.62 288.735 645.298 296.88 643.202Z"
     id="path60" />
  <path
     fill="#C63131"
     transform="scale(0.409722 0.409722)"
     d="M299.64 648.848C304.65 648.268 309.183 651.859 309.764 656.87C310.346 661.881 306.756 666.415 301.745 666.998C296.734 667.58 292.199 663.988 291.618 658.976C291.036 653.964 294.628 649.429 299.64 648.848Z"
     id="path61" />
  <path
     fill="#BDDBF1"
     transform="scale(0.409722 0.409722)"
     d="M626.113 594.931C652.019 594.046 673.759 614.287 674.727 640.194C675.695 666.1 655.526 687.908 629.626 688.959C603.609 690.014 581.684 669.731 580.711 643.707C579.739 617.684 600.089 595.82 626.113 594.931Z"
     id="path62" />
  <path
     fill="#284363"
     transform="scale(0.409722 0.409722)"
     d="M621.919 603.997C642.988 600.784 662.644 615.342 665.715 636.436C668.785 657.529 654.097 677.089 632.986 680.018C612.076 682.919 592.744 668.398 589.702 647.505C586.661 626.612 601.049 607.18 621.919 603.997Z"
     id="path63" />
  <path
     fill="#BDDBF1"
     transform="scale(0.409722 0.409722)"
     d="M622.625 610.272C640.151 607.475 656.636 619.391 659.478 636.912C662.321 654.433 650.45 670.95 632.939 673.839C615.363 676.739 598.773 664.813 595.92 647.227C593.067 629.641 605.034 613.08 622.625 610.272Z"
     id="path64" />
  <path
     fill="#284363"
     transform="scale(0.409722 0.409722)"
     d="M623.756 643.166C631.882 641.044 640.19 645.907 642.318 654.033C644.446 662.158 639.588 670.471 631.466 672.604C623.335 674.739 615.014 669.876 612.884 661.743C610.755 653.61 615.623 645.291 623.756 643.166Z"
     id="path65" />
  <path
     fill="#C63131"
     transform="scale(0.409722 0.409722)"
     d="M626.633 648.841C631.595 648.277 636.082 651.823 636.682 656.781C637.283 661.739 633.772 666.254 628.819 666.891C623.813 667.535 619.241 663.978 618.634 658.967C618.027 653.956 621.618 649.41 626.633 648.841Z"
     id="path66" />
  <path
     fill="#BDDBF1"
     transform="scale(0.409722 0.409722)"
     d="M460.274 176.974C485.743 174.894 508.066 193.877 510.109 219.352C512.153 244.826 493.141 267.126 467.667 269.134C442.244 271.138 420.001 252.17 417.962 226.746C415.922 201.322 434.857 179.05 460.274 176.974Z"
     id="path67" />
  <path
     fill="#284363"
     transform="scale(0.409722 0.409722)"
     d="M458.192 186.025C478.683 182.765 497.924 196.775 501.115 217.28C504.307 237.785 490.235 256.981 469.722 260.105C449.306 263.214 430.222 249.221 427.045 228.812C423.869 208.403 437.797 189.27 458.192 186.025Z"
     id="path68" />
  <path
     fill="#BDDBF1"
     transform="scale(0.409722 0.409722)"
     d="M459.318 192.223C476.287 189.599 492.187 201.179 494.9 218.136C497.612 235.094 486.118 251.057 469.177 253.859C452.11 256.683 436.004 245.082 433.271 227.998C430.538 210.914 442.222 194.866 459.318 192.223Z"
     id="path69" />
  <path
     fill="#BDDBF1"
     transform="scale(0.409722 0.409722)"
     d="M598.407 759.04C613.629 758.912 628.852 758.874 644.074 758.927C652.806 758.928 666.085 758.567 674.401 759.468C676.533 760.922 678.76 762.537 679.77 765.005C681.265 768.661 681.216 810.998 679.498 814.634C677.992 817.824 675.337 819.148 672.12 820.167L625.443 820.27C617.35 820.276 590.923 823.301 589.927 812.978C588.606 799.308 589.053 784.203 588.998 770.317C588.974 764.033 592.515 760.233 598.407 759.04Z"
     id="path70" />
  <path
     fill="#BDDBF1"
     transform="scale(0.409722 0.409722)"
     d="M257.992 759.057C269.172 759.026 327.004 757.437 333.46 760.027C335.895 761.004 337.785 763.307 338.601 765.764C340.233 770.682 339.623 811.994 337.524 815.549C335.862 818.366 333.323 819.402 330.284 820.164C319.65 820.181 257.795 821.412 253.495 819.1C251.216 817.874 249.028 815.299 248.335 812.791C247.741 810.641 247.443 772.679 247.837 769.466C248.104 767.293 248.629 765.179 249.86 763.337C251.822 760.399 254.699 759.6 257.992 759.057Z"
     id="path71" />
  <path
     fill="#BDDBF1"
     transform="scale(0.409722 0.409722)"
     d="M412.254 751.61C444.039 749.843 478.788 752.657 510.864 751.575C513.808 751.074 522.225 753.133 522.267 757.31C522.458 775.914 524.77 801.662 520.808 819.365C519.77 824.002 489.585 822.373 484.552 822.327L484.553 800.777C495.569 801 494.86 799.181 494.59 789.113C494.627 784.35 495.466 771.52 493.285 768.205C488.209 766.422 439.164 766.618 434.282 768.616C432.556 771.991 432.715 795.451 435.066 799.515C436.012 801.15 441.869 800.777 443.681 800.736L443.621 822.337C439.97 822.372 435.607 822.537 432.18 822.436C411.751 821.828 404.002 827.047 405.335 802.306C406.08 788.477 404.418 771.487 405.745 757.404C405.99 754.806 410.255 752.614 412.254 751.61Z"
     id="path72" />
  <path
     fill="#BDDBF1"
     transform="scale(0.409722 0.409722)"
     d="M733.368 348.486C750.58 348.712 751.446 360.851 751.205 374.473C751.021 384.899 751.202 395.854 751.202 406.319L751.21 490.356L751.249 636.265C751.247 658.708 751.311 681.2 751.332 703.645C751.338 710.095 750.127 712.206 745.591 716.558C743.883 717.526 741.973 718.422 740.203 719.3C739.689 708.039 743.063 712.374 743.36 704.454C743.746 694.179 743.503 682.658 743.503 672.288L743.525 464.443L743.541 397.508C743.542 386.268 743.624 374.777 743.405 363.562C743.282 357.32 738.413 357.946 734.701 354.786C732.996 353.335 733.372 350.856 733.368 348.486Z"
     id="path73" />
  <path
     fill="#BDDBF1"
     transform="scale(0.409722 0.409722)"
     d="M189.784 348.862C191.484 348.671 192.569 348.345 194.088 349.074C195.126 350.511 194.699 353.085 194.616 355.008C187.564 357.116 184.657 358.003 184.556 366.164C184.374 380.917 184.478 395.683 184.492 410.439L184.524 496.024L184.506 630.897C184.414 656.6 184.461 682.303 184.648 708.005C187.124 710.779 189.33 714.649 187.545 718.429L186.464 718.671C177.933 714.435 176.993 710.519 176.953 701.701C176.835 675.061 176.869 648.422 176.934 621.781L176.981 502.025L176.982 412.12C176.979 395.909 176.862 379.57 177.17 363.364C177.202 361.647 177.945 358.989 178.732 357.392C181.284 352.214 184.781 350.579 189.784 348.862Z"
     id="path74" />
  <path
     fill="#BDDBF1"
     transform="scale(0.409722 0.409722)"
     d="M288.669 828.137L313.317 828.136C315.57 832.229 316.854 834.108 317.853 838.663C323.5 838.507 329.533 838.593 335.211 838.58C335.11 850.223 335.165 859.914 336.433 871.427C332.874 871.429 325.638 870.511 323.411 872.44L323.285 874.547L323.353 884.032C319.033 883.285 314.028 882.074 309.689 881.139C309.769 877.963 309.712 874.564 309.715 871.368L283.728 871.323C283.511 863.758 283.57 856.171 283.583 848.609C283.598 839.781 283.561 835.443 288.669 828.137Z"
     id="path75" />
  <path
     fill="#BDDBF1"
     transform="scale(0.409722 0.409722)"
     d="M617.095 828.283L639.482 828.28C640.412 829.573 642.542 832.487 642.853 833.882C645.422 845.38 644.415 859.639 644.337 871.339L618.452 871.463C618.522 874.127 619.08 879.558 617.971 881.397L608.793 883.542L609.264 871.345L591.627 871.325C592.922 859.832 592.927 850.136 593.032 838.578L610.534 838.65C611.137 834.677 612.698 828.917 617.095 828.283Z"
     id="path76" />
  <path
     fill="#BDDBF1"
     transform="scale(0.409722 0.409722)"
     d="M705.855 749.893C714.811 749.813 724.081 749.369 732.95 750.348C737.775 750.881 738.273 757.73 738.386 761.663C739.165 788.797 738.933 816.382 738.58 843.512C738.466 852.274 739.729 884.357 737.808 891.443C734.62 892.111 731.871 892.962 729.616 890.287C728.719 885.877 728.581 872.565 728.365 867.085C727.672 849.545 727.082 831.771 726.45 814.213C726.258 808.895 726.41 793.021 724.728 788.77C720.183 777.281 710.045 764.928 705.46 753.186C705.219 752.567 705.668 750.628 705.855 749.893Z"
     id="path77" />
  <path
     fill="#BDDBF1"
     transform="scale(0.409722 0.409722)"
     d="M196.525 750.063C201.508 749.887 218.575 749.26 222.326 750.775C224.016 755.969 206.483 781.299 203.627 788.202C200.977 794.607 199.83 864.342 199.432 875.39C199.045 880.496 200.341 886.91 197.913 890.799C195.308 892.562 192.596 892.76 190.297 890.272C189.643 885.628 189.775 877.074 189.733 872.147L189.578 839.488L189.464 787.748C189.489 778.388 189.45 768.989 189.821 759.638C190.042 754.086 190.857 751.305 196.525 750.063Z"
     id="path78" />
  <path
     fill="#BDDBF1"
     transform="scale(0.409722 0.409722)"
     d="M384.47 838.483C403.967 838.74 423.984 838.512 443.555 838.569C443.583 841.74 443.448 845.18 443.383 848.373C434.625 861.084 442.037 865.777 454.285 868.554C454.505 869.808 454.414 869.68 454.306 870.99C452.511 872.104 392.67 871.674 385.381 871.672C384.301 861.691 384.179 848.483 384.47 838.483Z"
     id="path79" />
  <path
     fill="#BDDBF1"
     transform="scale(0.409722 0.409722)"
     d="M484.622 838.564L543.773 838.538C543.971 850.349 543.721 859.734 542.97 871.552C537.999 871.704 532.433 871.601 527.413 871.606C523.048 871.602 475.807 871.977 474.039 871.27L473.544 870.106C474.472 867.381 481.704 866.619 484.241 864.419C486.2 862.72 488.33 861.583 488.718 858.661C489.245 854.693 486.941 851.599 484.755 848.657L484.622 838.564Z"
     id="path80" />
  <path
     fill="#BDDBF1"
     transform="scale(0.409722 0.409722)"
     d="M237.099 809.983L241.293 811.963C243.693 819.378 245.782 822.011 252.531 825.746L252.56 871.418C244.354 875.735 243.06 881.124 240.056 889.267L238.264 880.893C237.7 877.454 237.487 874.77 237.237 871.283C235.347 871.295 232.985 871.41 231.143 871.174C214.02 868.983 209.607 843.931 225.274 836.299C229.143 834.414 232.05 834.298 236.257 833.844C236.183 828.483 235.572 814.156 237.099 809.983Z"
     id="path81" />
  <path
     fill="#BDDBF1"
     transform="scale(0.409722 0.409722)"
     d="M690.374 809.901L691.408 810.689C692.847 814.814 692.258 828.434 692.198 833.635C697.998 834.48 702.435 834.927 706.838 838.912C717.331 848.41 712.682 867.78 698.645 870.896C696.326 871.41 693.608 871.313 691.292 871.311C690.876 874.452 690.494 877.598 690.143 880.748L688.433 889.96C685.481 881.704 684.113 875.721 675.866 871.606C675.757 856.246 675.787 840.885 675.957 825.525C686.241 820.268 683.378 814.445 690.374 809.901Z"
     id="path82" />
  <path
     fill="#BDDBF1"
     transform="scale(0.409722 0.409722)"
     d="M453.765 782.302C454.17 784.951 452.956 791.711 453.071 794.87C453.318 801.594 454.724 808.642 454.865 815.315C455.081 825.564 454.73 835.968 454.83 846.215C454.847 848.017 455.419 849.394 456.398 850.858C458.398 851.884 457.361 851.702 459.63 851.365C460.602 850.098 461.136 849.252 461.972 847.887C466.231 845.867 465.914 851.255 471.495 850.815C471.911 850.484 472.415 850.083 473.008 849.611C473.97 838.072 473.087 824.902 473.534 813.5C473.825 806.096 474.789 801.764 475.082 794.771C475.225 791.364 473.804 785.68 474.873 783.391L475.858 783.916C479.538 789.311 478.472 800.73 478.486 807.356L478.523 841.641L478.637 851.956C480.349 853.551 481.42 854.221 482.074 856.443C481.237 862.305 472.195 862.252 467.393 862.751C467.457 869.012 468.31 897.839 466.72 901.761C465.143 903.14 464.309 903.881 462.457 902.549C459.479 897.441 460.673 870.826 460.719 862.875C455.734 862.345 446.968 862.524 445.929 856.616C446.447 854.4 447.797 853.398 449.42 851.716C450.315 832.999 448.909 812.427 449.46 793.551C449.647 787.115 449.49 786.36 453.765 782.302Z"
     id="path83" />
  <path
     fill="#BDDBF1"
     transform="scale(0.409722 0.409722)"
     d="M374.091 794.888C376.925 794.562 380.001 794.596 382.508 796.079C389.789 800.385 380.915 810.66 380.478 814.098C377.841 835.255 377.654 857.664 379.877 878.86C380.406 883.895 386.973 885.219 381.533 895.043C378.844 895.704 374.824 895.66 372.885 893.528C368.777 889.009 372.885 884.098 372.563 878.724C372.268 869.153 370.727 859.256 370.695 849.707C370.654 836.995 371.948 823.837 372.68 811.132C367.224 804.495 366.968 800.064 374.091 794.888Z"
     id="path84" />
  <path
     fill="#BDDBF1"
     transform="scale(0.409722 0.409722)"
     d="M548.4 794.815C552.943 794.256 558.395 795.377 559.326 800.824C560.133 805.553 558.233 807.969 555.616 811.595C555.571 823.3 557.916 836.507 557.471 848.884C557.524 859.168 555.806 869.588 555.526 879.824C555.341 886.562 561.384 890.587 552.22 895.417C541.457 896.309 545.646 886.694 547.036 880.614C551.944 859.144 550.074 833.036 547.52 811.306C541.617 804.922 540.548 800.108 548.4 794.815Z"
     id="path85" />
  <path
     fill="#BDDBF1"
     transform="scale(0.409722 0.409722)"
     d="M345.417 794.616C357.274 794.672 359.626 803.595 351.039 811.297C348.501 829.966 348.816 853.914 349.972 872.815C350.348 878.955 353.671 882.96 353.586 888.774C352.975 889.663 353.203 889.343 352.117 889.9C349.951 889.508 344.049 888.697 342.588 887.612C341.778 884.589 343.416 883.037 343.138 879.152C342.637 872.13 341.925 865.117 341.594 858.088C341.164 846.463 341.286 834.824 341.962 823.21C342.206 818.815 344.759 815.858 345.138 813.268C345.883 808.17 345.51 799.897 345.417 794.616Z"
     id="path86" />
  <path
     fill="#BDDBF1"
     transform="scale(0.409722 0.409722)"
     d="M579.567 794.285C580.491 794.368 581 794.505 581.907 794.697C583.91 797.816 582.313 805.942 582.668 810.052C583.032 815.308 586.45 820.215 586.586 825.445C587.043 843.034 586.533 860.52 585.312 878.066C585.091 881.239 585.862 884.737 586.498 887.861C583.055 888.729 579.053 889.469 575.539 890.204C572.814 885.905 577.72 879.502 578.141 874.404C579.725 855.212 580.094 829.873 576.943 810.944C570.007 804.943 570.111 797.183 579.567 794.285Z"
     id="path87" />
  <path
     fill="#BDDBF1"
     transform="scale(0.409722 0.409722)"
     d="M656.344 826.369L669.643 826.412C669.734 840.44 669.854 854.843 669.567 868.877C669.533 870.553 669.586 870.149 668.587 871.008C664.548 871.851 660.44 872.618 656.387 873.41L656.344 826.369Z"
     id="path88" />
  <path
     fill="#BDDBF1"
     transform="scale(0.409722 0.409722)"
     d="M258.701 826.409L271.738 826.45L271.724 873.351C267.159 872.371 263.334 871.705 258.748 871.001C258.647 856.137 258.632 841.273 258.701 826.409Z"
     id="path89" />
  <path
     fill="#BDDBF1"
     transform="scale(0.409722 0.409722)"
     d="M315.766 196.924C320.419 196.543 350.575 196.098 352.824 197.878C353.859 199.941 353.62 199.059 353.508 201.396C351.698 204.341 352.203 201.219 348.916 203.623C347.582 205.724 347.965 207.504 348.067 210.073C338.701 211.34 328.457 213.135 319.118 214.688C319.022 212.689 319.735 204.192 318.379 203.204C317.353 202.457 315.88 202.874 314.335 200.756C314.276 198.873 314.666 198.594 315.766 196.924Z"
     id="path90" />
  <path
     fill="#BDDBF1"
     transform="scale(0.409722 0.409722)"
     d="M576.09 196.862C582.149 196.689 588.538 196.695 594.621 196.686C599.559 196.679 609.893 195.613 613.386 199.019C613.751 200.968 613.864 200.055 613.041 201.855C607.789 204.043 609.071 208.824 609.238 213.773L608.819 214.412C605.269 214.796 584.994 210.74 579.964 210.004C580.259 207.588 580.384 206.597 580.244 204.184C578.506 201.6 575.708 203.964 574.026 200.505C574.374 198.63 574.792 198.382 576.09 196.862Z"
     id="path91" />
  <path
     fill="#BDDBF1"
     transform="scale(0.409722 0.409722)"
     d="M678.328 706.635C682.465 706.383 686.507 706.489 690.645 706.545C690.816 711.725 691.471 737.108 689.944 740.657C686.378 740.782 681.521 741.313 678.399 739.772C677.023 736.018 677.006 709.946 678.328 706.635Z"
     id="path92" />
  <path
     fill="#BDDBF1"
     transform="scale(0.409722 0.409722)"
     d="M544.528 215.19C550.651 213.905 556.657 217.825 557.947 223.948C559.236 230.071 555.321 236.08 549.2 237.374C543.073 238.67 537.056 234.749 535.765 228.62C534.475 222.491 538.399 216.477 544.528 215.19Z"
     id="path93" />
  <path
     fill="#BDDBF1"
     transform="scale(0.409722 0.409722)"
     d="M563.504 838.486L573.212 838.484C573.473 849.869 573.457 860.188 572.041 871.519C568.863 871.603 565.514 871.573 562.32 871.596C563.338 859.137 563.598 850.957 563.504 838.486Z"
     id="path94" />
  <path
     fill="#BDDBF1"
     transform="scale(0.409722 0.409722)"
     d="M355.106 838.585L364.532 838.6C364.389 849.972 365.014 860.215 365.721 871.525L356.014 871.513C355.072 862.079 354.94 848.046 355.106 838.585Z"
     id="path95" />
  <path
     fill="#BDDBF1"
     transform="scale(0.409722 0.409722)"
     d="M463.153 776.963C471.729 778.234 469.539 805.266 465.146 811.963C457.566 813.392 459.22 788.017 460.317 783.889C461.167 780.689 461.315 779.825 463.153 776.963Z"
     id="path96" />
  <path
     fill="#BDDBF1"
     transform="scale(0.409722 0.409722)"
     d="M596.341 951.432L602.32 951.269C602.341 961.208 603.655 966.394 595.71 973.639C588.558 974.856 589.2 968.069 589.304 963.019C589.38 959.296 589.466 955.58 589.497 951.855L596.341 951.432Z"
     id="path97" />
  <path
     fill="#BDDBF1"
     transform="scale(0.409722 0.409722)"
     d="M325.955 951.295L338.556 951.723C338.639 956.196 339.151 968.909 337.948 972.745C331.665 975.15 329.637 971.712 326.426 966.828C326.015 961.934 326.045 956.26 325.955 951.295Z"
     id="path98" />
  <path
     fill="#BDDBF1"
     transform="scale(0.409722 0.409722)"
     d="M308.718 950.571C312.555 950.614 316.081 950.819 319.914 951.061L320.002 964.22C307.008 964.714 308.469 962.669 308.718 950.571Z"
     id="path99" />
  <path
     fill="#BDDBF1"
     transform="scale(0.409722 0.409722)"
     d="M608.591 950.797L619.355 950.517C619.488 954.446 620.141 960.612 618.258 963.819C615.133 964.351 611.42 964.182 608.21 964.148L608.591 950.797Z"
     id="path100" />
  <path
     fill="#BDDBF1"
     transform="scale(0.409722 0.409722)"
     d="M460.712 817.851C462.996 817.89 464.39 817.425 466.627 818.053C467.81 819.807 467.391 819.854 467.455 822.403C465.388 822.456 464.107 822.569 462.032 822.175C460.495 820.458 460.991 820.711 460.712 817.851Z"
     id="path101" />
  <path
     fill="#BDDBF1"
     transform="scale(0.409722 0.409722)"
     d="M460.711 838.617C462.83 838.548 464.178 838.44 466.303 838.741C467.849 840.271 467.347 839.869 467.527 842.745C465.384 842.827 463.865 842.996 461.747 842.573C460.359 841.035 460.822 841.308 460.711 838.617Z"
     id="path102" />
  <path
     fill="#BDDBF1"
     transform="scale(0.409722 0.409722)"
     d="M362.332 805.327C362.912 808.211 365.188 811.706 364.766 813.355L362.907 813.855C361.014 813.612 360.848 813.898 359.552 812.915C359.466 811.131 361.4 807.946 362.332 805.327Z"
     id="path103" />
  <path
     fill="#BDDBF1"
     transform="scale(0.409722 0.409722)"
     d="M565.9 805.921C566.453 807.723 568.327 810.929 569.272 813.035L568.179 813.606C566.426 813.631 565.279 813.845 563.768 812.997C563.392 811.32 565.092 808.174 565.9 805.921Z"
     id="path104" />
</svg>
