<?xml version="1.0" encoding="UTF-8" standalone="no"?>
<svg
   width="928"
   height="1152"
   viewBox="0 0 928 1152"
   version="1.1"
   id="svg150"
   sodipodi:docname="roof_headlight.svg"
   inkscape:version="1.4.4 (dcaf3e7d9e, 2026-05-05)"
   xmlns:inkscape="http://www.inkscape.org/namespaces/inkscape"
   xmlns:sodipodi="http://sodipodi.sourceforge.net/DTD/sodipodi-0.dtd"
   xmlns="http://www.w3.org/2000/svg"
   xmlns:svg="http://www.w3.org/2000/svg">
  <sodipodi:namedview
     id="namedview150"
     pagecolor="#ffffff"
     bordercolor="#000000"
     borderopacity="0.25"
     inkscape:showpageshadow="2"
     inkscape:pageopacity="0.0"
     inkscape:pagecheckerboard="0"
     inkscape:deskcolor="#d1d1d1"
     inkscape:zoom="0.55387931"
     inkscape:cx="496.49805"
     inkscape:cy="570.5214"
     inkscape:window-width="2560"
     inkscape:window-height="1387"
     inkscape:window-x="0"
     inkscape:window-y="53"
     inkscape:window-maximized="1"
     inkscape:current-layer="svg150" />
  <defs
     id="defs20">
    <linearGradient
       id="gradient_0"
       gradientUnits="userSpaceOnUse"
       x1="440.55045"
       y1="754.07135"
       x2="475.0571"
       y2="276.04092">
      <stop
         offset="0"
         stop-color="#93AEC6"
         id="stop19" />
      <stop
         offset="1"
         stop-color="#D0EBF9"
         id="stop20" />
    </linearGradient>
  </defs>
  <path
     fill="url(#gradient_0)"
     d="M709.433 106.606C737.176 91.7313 746.833 84.8835 779.555 85.4519C818.688 86.1316 813.769 94.2352 820.767 127.944C832.077 182.227 836.143 241.22 821.142 295.17C817.079 309.782 812.301 322.538 795.103 321.664C772.619 320.522 748.554 317.378 726.605 312.877C726.54 327.618 727.179 341.901 727.491 356.615L728.784 424.323L729.457 455.442C729.522 459.067 729.853 467.995 729.536 471.244L729.475 471.846C728.141 485.813 729.61 500.427 729.198 514.69L728.523 514.801L727.471 513.937L727.091 514.502C724.349 518.508 719.908 517.447 716.587 520.383L715.495 519.833C712.731 522.367 710.098 524.953 706.924 526.955L706.44 528.294L705.781 528.389C705.332 526.95 704.91 525.519 704.368 524.112C702.998 526.972 705.484 538.83 701.961 541.054C700.474 540.575 701.113 540.992 700.111 539.593C698.819 527.218 699.381 513.362 696.265 501.232C694.945 496.094 689.683 491.742 684.088 493.696C682.66 495.128 683.064 494.292 682.812 496.279C684.051 500.279 686.528 500.919 690.34 503.012C691.459 508.858 691.664 513.146 691.945 519.011C695.965 567.324 698.12 616.127 702.082 664.495C702.787 673.097 703.371 682.026 703.755 690.649C686.523 690.65 667.997 690.244 650.881 690.637C665.468 681.488 675.929 671.51 680.005 653.903C683.087 640.127 680.543 625.691 672.937 613.799C665.455 601.95 652.795 592.857 639.076 589.891C628.255 587.483 616.953 588.493 606.73 592.783C598.344 596.553 590.946 601.909 585.407 609.31C576.56 621.271 572.845 636.266 575.084 650.974C578.039 670.65 589.245 679.452 603.731 690.215C593.209 690.622 580.866 690.272 570.176 690.279L502.092 690.263L324.833 690.196C332.95 685.501 339.24 679.946 344.555 672.132C352.735 660.359 355.719 645.741 352.808 631.703C350.13 617.901 342.065 605.734 330.395 597.894C304.375 580.509 271.823 588.506 254.937 614.317C247.613 625.722 245.076 639.554 247.877 652.817C251.569 669.669 262.502 681.327 276.615 690.259C260.332 690.452 240.416 691.129 224.526 690.034C227.431 650.48 230.065 610.908 232.425 571.318C233.576 552.708 234.814 521.114 237.585 503.535C240.487 500.888 243.565 500.143 245.566 497.335C245.954 495.34 246.103 496.251 245.157 494.499C241.391 492.073 236.999 493.335 234.085 496.494C232.527 498.203 231.497 500.326 231.119 502.607C229.766 510.867 229.113 524.107 228.553 532.623L225.131 583.733C223.155 607.86 221.369 632.002 219.775 656.157C219.175 664.947 217.431 682.717 217.806 690.575C198.878 690.629 195.497 692.534 195.489 712.766C195.486 721.319 196.051 731.889 195.272 740.343C192.945 729.252 194.381 697.157 194.702 684.745L196.205 608.053C196.606 536.835 197.789 465.624 199.754 394.433L200.938 342.172C201.046 337.032 201.028 321.024 201.764 316.601L201.305 314.433C201.533 312.499 201.439 309.228 201.444 307.183C201.807 304.275 201.695 298.777 201.722 295.668C211.642 294.921 222.092 293.375 232.058 292.322C245.424 291.037 258.801 289.873 272.187 288.832C278.142 288.344 291.938 286.896 297.338 287.154L301.631 286.361L297.356 286.08C299.039 285.431 306.104 285.051 308.852 284.375C315.366 282.771 321.618 280.926 328.032 279.001C332.9 278.343 338.729 277.993 343.699 277.576C361.833 276.866 379.871 275.849 398.03 275.536C401.941 274.878 410.818 275.007 414.924 275.005L441.81 275.01C444.886 274.545 449.948 274.607 453.207 274.555C441.758 270.781 435.323 267.47 426.355 259.564L425.493 257.972C428.483 257.314 429.74 257.302 432.779 257.19C426.619 251.086 421.943 243.907 419.662 235.482C416.34 223.512 417.968 210.71 424.179 199.953C429.789 190.344 439.488 182.116 450.311 179.219C460.771 175.974 471.25 176.934 481.527 180.318C485.081 179.654 489.182 179.072 492.453 177.654L504.92 173.629C508.827 171.707 517.678 170.274 522.547 167.846L523.686 168.129C526.849 165.916 529.661 167.111 531.624 163.807L532.179 163.817C534.662 163.245 542.427 160.071 545.355 158.979C553.854 155.877 562.331 152.716 570.787 149.497L570.891 149.245C573.102 149.303 574.418 148.888 576.553 148.404L576.548 147.796C581.215 146.46 614.485 136.572 616.064 135.016L616.273 135.152C618.377 137.286 620.544 139.548 622.717 141.594C624.721 141.076 629.169 140.247 630.359 138.824L625.118 132.83C631.029 132.258 655.296 120.068 661.921 116.938C665.306 114.825 671.996 111.505 676.081 111.319C678.08 111.228 678.434 112.067 679.508 113.255C685.672 110.405 694.406 108.918 700.691 105.387C704.108 103.467 706.034 105.096 709.433 106.606Z"
     id="path20" />
  <path
     fill="#DADAAB"
     d="M709.433 106.606C737.176 91.7313 746.833 84.8835 779.555 85.4519C818.688 86.1316 813.769 94.2352 820.767 127.944C832.077 182.227 836.143 241.22 821.142 295.17C817.079 309.782 812.301 322.538 795.103 321.664C772.619 320.522 748.554 317.378 726.605 312.877C726.597 307.232 726.466 301.588 726.212 295.949C710.546 293.334 688.045 291.461 672.062 290.099C659.578 289.112 639.525 288.025 627.627 286.405C625.17 286.448 624.07 286.336 621.627 286.008L622.91 285.487L622.271 284.542C615.074 283.228 603.834 280.238 596.821 278.311C596.292 278.293 594.718 278.009 594.106 277.916C569.154 277.92 540.186 274.274 515.4 275.12C504.061 274.786 486.76 274.568 475.676 275.044C475.395 275.092 473.05 275.501 473.011 275.499C469.782 275.334 466.906 278.228 464.319 278.318C464.264 277.101 464.336 277.696 464.111 276.532C456.74 276.318 449.216 275.562 441.81 275.01C444.886 274.545 449.948 274.607 453.207 274.555C441.758 270.781 435.323 267.47 426.355 259.564L425.493 257.972C428.483 257.314 429.74 257.302 432.779 257.19C426.619 251.086 421.943 243.907 419.662 235.482C416.34 223.512 417.968 210.71 424.179 199.953C429.789 190.344 439.488 182.116 450.311 179.219C460.771 175.974 471.25 176.934 481.527 180.318C485.081 179.654 489.182 179.072 492.453 177.654L504.92 173.629C508.827 171.707 517.678 170.274 522.547 167.846L523.686 168.129C526.849 165.916 529.661 167.111 531.624 163.807L532.179 163.817C534.662 163.245 542.427 160.071 545.355 158.979C553.854 155.877 562.331 152.716 570.787 149.497L570.891 149.245C573.102 149.303 574.418 148.888 576.553 148.404L576.548 147.796C581.215 146.46 614.485 136.572 616.064 135.016L616.273 135.152C618.377 137.286 620.544 139.548 622.717 141.594C624.721 141.076 629.169 140.247 630.359 138.824L625.118 132.83C631.029 132.258 655.296 120.068 661.921 116.938C665.306 114.825 671.996 111.505 676.081 111.319C678.08 111.228 678.434 112.067 679.508 113.255C685.672 110.405 694.406 108.918 700.691 105.387C704.108 103.467 706.034 105.096 709.433 106.606Z"
     id="path21" />
  <defs
     id="defs22">
    <linearGradient
       id="gradient_1"
       gradientUnits="userSpaceOnUse"
       x1="829.51636"
       y1="199.67747"
       x2="657.6142"
       y2="212.21269">
      <stop
         offset="0"
         stop-color="#394D5C"
         id="stop21" />
      <stop
         offset="1"
         stop-color="#938C5D"
         id="stop22" />
    </linearGradient>
  </defs>
  <path
     fill="url(#gradient_1)"
     d="M709.433 106.606C737.176 91.7313 746.833 84.8835 779.555 85.4519C818.688 86.1316 813.769 94.2352 820.767 127.944C832.077 182.227 836.143 241.22 821.142 295.17C817.079 309.782 812.301 322.538 795.103 321.664C772.619 320.522 748.554 317.378 726.605 312.877C726.597 307.232 726.466 301.588 726.212 295.949C710.546 293.334 688.045 291.461 672.062 290.099L671.863 289.418C669.645 288.298 666.606 288.61 663.635 287.919C663.985 286.7 667.031 285.396 668.503 284.553C670.963 284.911 671.62 285.016 673.942 284.113C676.114 283.98 684.343 284.902 686.848 285.144C699.945 286.425 713.008 288.029 726.025 289.954C718.504 253.358 697.508 242.451 664.346 233.686C667.718 232.156 688.479 240.085 693.126 242.272C696.098 243.67 698.678 246.459 700.949 246.696C709.075 237.692 698.385 186.287 697.43 173.45C696.658 163.081 697.57 124.87 690.57 118.884C688.437 118.363 687.249 118.99 685.125 119.661C689.477 116.079 702.64 113.183 709.433 106.606Z"
     id="path22" />
  <path
     fill="#948E5D"
     d="M679.508 113.255C685.672 110.405 694.406 108.918 700.691 105.387C704.108 103.467 706.034 105.096 709.433 106.606C702.64 113.183 689.477 116.079 685.125 119.661C687.249 118.99 688.437 118.363 690.57 118.884C697.57 124.87 696.658 163.081 697.43 173.45C698.385 186.287 709.075 237.692 700.949 246.696C698.678 246.459 696.098 243.67 693.126 242.272C688.479 240.085 667.718 232.156 664.346 233.686C629.928 224.073 594.826 217.103 559.346 212.835C563.155 217.564 565.212 222.286 564.473 228.57C563.953 233.35 561.455 237.694 557.585 240.548C550.778 245.52 542.744 244.626 535.991 240.32C536.04 238.048 536.448 238.077 535.347 236.82L535.382 237.607C534.512 236.552 533.66 235.483 532.826 234.399C524.212 223.111 538.064 213.37 538.448 210.446C535.578 208.08 526.773 209.348 522.143 207.889C520.786 206.263 520.511 198.526 520.521 196.065C525.772 195.889 542.81 196.313 546.711 195.17C539.229 194.117 516.763 194.733 508.502 194.811C503.832 188.187 499.783 184.808 493.522 179.845C494.706 179.118 497.414 179.134 499.002 179.006C496.566 178.592 494.852 178.24 492.453 177.654L504.92 173.629C508.827 171.707 517.678 170.274 522.547 167.846L523.686 168.129C526.849 165.916 529.661 167.111 531.624 163.807L532.179 163.817C534.662 163.245 542.427 160.071 545.355 158.979C553.854 155.877 562.331 152.716 570.787 149.497L570.891 149.245C573.102 149.303 574.418 148.888 576.553 148.404L576.548 147.796C581.215 146.46 614.485 136.572 616.064 135.016L616.273 135.152C618.377 137.286 620.544 139.548 622.717 141.594C624.721 141.076 629.169 140.247 630.359 138.824L625.118 132.83C631.029 132.258 655.296 120.068 661.921 116.938C665.306 114.825 671.996 111.505 676.081 111.319C678.08 111.228 678.434 112.067 679.508 113.255Z"
     id="path23" />
  <path
     fill="#DADAAB"
     d="M576.553 148.404C577.152 152.154 580.219 177.1 581.388 178.55C588.38 179.633 599.142 161.268 600.707 191.27C593.959 191.234 587.977 190.82 581.346 189.969C578.963 189.663 571.557 193.56 568.777 194.037C562.229 195.453 553.456 195.153 546.711 195.17C539.229 194.117 516.763 194.733 508.502 194.811C503.832 188.187 499.783 184.808 493.522 179.845C494.706 179.118 497.414 179.134 499.002 179.006C496.566 178.592 494.852 178.24 492.453 177.654L504.92 173.629C508.827 171.707 517.678 170.274 522.547 167.846L523.686 168.129C526.849 165.916 529.661 167.111 531.624 163.807L532.179 163.817C534.662 163.245 542.427 160.071 545.355 158.979C553.854 155.877 562.331 152.716 570.787 149.497L570.891 149.245C573.102 149.303 574.418 148.888 576.553 148.404Z"
     id="path24" />
  <path
     fill="#948E5D"
     d="M522.547 167.846L523.686 168.129C537.567 172.299 555.383 174.011 569.666 178.729C552.939 179.406 536.866 179.19 520.165 179.138C514.66 179.12 503.917 178.601 499.002 179.006C496.566 178.592 494.852 178.24 492.453 177.654L504.92 173.629C508.827 171.707 517.678 170.274 522.547 167.846Z"
     id="path25" />
  <path
     fill="#948E5D"
     d="M532.179 163.817C534.662 163.245 542.427 160.071 545.355 158.979C553.854 155.877 562.331 152.716 570.787 149.497C570.582 156.854 567.845 164.032 567.366 171.985C556.847 169.751 542.376 166.684 532.179 163.817Z"
     id="path26" />
  <path
     fill="#737661"
     d="M679.508 113.255C685.672 110.405 694.406 108.918 700.691 105.387C704.108 103.467 706.034 105.096 709.433 106.606C702.64 113.183 689.477 116.079 685.125 119.661C682.391 121.73 680.732 122.174 677.351 122.585C674.044 124.382 665.378 128.953 662.532 130.208C658.258 132.093 635.256 139.26 631.867 139.195L631.01 139.467L630.359 138.824L625.118 132.83C631.029 132.258 655.296 120.068 661.921 116.938C665.306 114.825 671.996 111.505 676.081 111.319C678.08 111.228 678.434 112.067 679.508 113.255Z"
     id="path27" />
  <path
     fill="#465660"
     d="M661.921 116.938C665.306 114.825 671.996 111.505 676.081 111.319C678.08 111.228 678.434 112.067 679.508 113.255C672.179 116.832 669.998 117.568 661.921 116.938Z"
     id="path28" />
  <path
     fill="#4A5457"
     d="M631.867 139.195C636.306 135.893 661.083 132.171 667.122 126.863C668.422 125.721 675.574 122.192 677.351 122.585C674.044 124.382 665.378 128.953 662.532 130.208C658.258 132.093 635.256 139.26 631.867 139.195Z"
     id="path29" />
  <path
     fill="#DADAAB"
     d="M630.359 138.824L631.01 139.467C633.879 142.599 640.391 148.988 640.011 153.267C636.048 156.051 625.577 144.428 622.717 141.594C624.721 141.076 629.169 140.247 630.359 138.824Z"
     id="path30" />
  <path
     fill="#DADAAB"
     d="M586.058 196.557C591.006 196.277 610.943 195.71 613.453 199.619C612.763 201.802 610.875 203.637 609.336 205.445C609.138 208.476 609.866 211.075 608.794 213.811C607.244 214.808 607.46 214.41 605.036 214.057C596.844 212.876 588.679 211.512 580.549 209.966C580.543 209.747 580.434 207.252 580.432 207.26C581.311 204.387 571.7 198.673 577.576 197.251C580.088 196.643 583.879 196.635 586.058 196.557Z"
     id="path31" />
  <path
     fill="#DADAAB"
     d="M544.244 215.227C550.318 213.753 556.431 217.509 557.86 223.594C559.29 229.68 555.489 235.766 549.394 237.151C543.362 238.522 537.354 234.768 535.939 228.746C534.524 222.723 538.233 216.686 544.244 215.227Z"
     id="path32" />
  <path
     fill="#F3DE7E"
     d="M450.311 179.219C460.771 175.974 471.25 176.934 481.527 180.318C493.783 185.791 502.373 193.982 507.289 206.737C511.633 218.266 511.213 231.05 506.123 242.27C503.796 247.476 499.642 253.466 495.353 257.258C499.013 259.204 499.896 256.691 502.315 258.753L501.393 260.107C495.203 265.492 490.806 268.206 483.26 271.628C481.785 272.297 476.736 274.361 475.676 275.044C475.395 275.092 473.05 275.501 473.011 275.499C469.782 275.334 466.906 278.228 464.319 278.318C464.264 277.101 464.336 277.696 464.111 276.532C456.74 276.318 449.216 275.562 441.81 275.01C444.886 274.545 449.948 274.607 453.207 274.555C441.758 270.781 435.323 267.47 426.355 259.564L425.493 257.972C428.483 257.314 429.74 257.302 432.779 257.19C426.619 251.086 421.943 243.907 419.662 235.482C416.34 223.512 417.968 210.71 424.179 199.953C429.789 190.344 439.488 182.116 450.311 179.219Z"
     id="path33" />
  <path
     fill="#948E5D"
     d="M432.779 257.19C452.162 272.678 476.136 274.097 495.353 257.258C499.013 259.204 499.896 256.691 502.315 258.753L501.393 260.107C495.203 265.492 490.806 268.206 483.26 271.628C481.785 272.297 476.736 274.361 475.676 275.044C475.395 275.092 473.05 275.501 473.011 275.499C469.782 275.334 466.906 278.228 464.319 278.318C464.264 277.101 464.336 277.696 464.111 276.532C456.74 276.318 449.216 275.562 441.81 275.01C444.886 274.545 449.948 274.607 453.207 274.555C441.758 270.781 435.323 267.47 426.355 259.564L425.493 257.972C428.483 257.314 429.74 257.302 432.779 257.19Z"
     id="path34" />
  <path
     fill="#E8CC5C"
     d="M445.389 255.994C430.489 247.468 423.206 229.969 427.655 213.387C432.105 196.805 447.17 185.305 464.336 185.386C481.502 185.467 496.458 197.108 500.752 213.731C505.045 230.354 497.598 247.783 482.618 256.169C471.038 262.652 456.907 262.585 445.389 255.994Z"
     id="path35" />
  <path
     fill="#C7B15A"
     d="M445.389 255.994C450.113 253.899 461.565 257.921 467.037 257.924C471.074 257.926 479.394 254.174 482.618 256.169C471.038 262.652 456.907 262.585 445.389 255.994Z"
     id="path36" />
  <path
     fill="#F3DE7E"
     d="M458.816 192.208C475.801 189.259 491.97 200.611 494.966 217.591C497.962 234.57 486.655 250.772 469.687 253.815C452.652 256.87 436.375 245.508 433.367 228.463C430.359 211.418 441.764 195.17 458.816 192.208Z"
     id="path37" />
  <path
     fill="#FEFEFE"
     d="M459.807 201.462C485.811 198.055 493.59 229.897 472.52 242.161C469.326 244.021 469.781 244.001 466.017 244.673C446.292 245.149 434.664 230.391 442.722 211.28C445.295 205.178 453.851 203.058 459.807 201.462Z"
     id="path38" />
  <path
     fill="#C8D7D6"
     d="M501.393 260.107C514.441 259.984 527.308 263.853 540.126 266.11C555.35 268.79 570.333 270.932 585.232 275.125C588.451 276.031 591.69 275.656 594.106 277.916C569.154 277.92 540.186 274.274 515.4 275.12C504.061 274.786 486.76 274.568 475.676 275.044C476.736 274.361 481.785 272.297 483.26 271.628C490.806 268.206 495.203 265.492 501.393 260.107Z"
     id="path39" />
  <path
     fill="#C7B15A"
     d="M492.453 177.654C494.852 178.24 496.566 178.592 499.002 179.006C497.414 179.134 494.706 179.118 493.522 179.845C499.783 184.808 503.832 188.187 508.502 194.811C516.763 194.733 539.229 194.117 546.711 195.17C542.81 196.313 525.772 195.889 520.521 196.065C520.511 198.526 520.786 206.263 522.143 207.889C526.773 209.348 535.578 208.08 538.448 210.446C538.064 213.37 524.212 223.111 532.826 234.399C533.66 235.483 534.512 236.552 535.382 237.607L535.347 236.82C536.448 238.077 536.04 238.048 535.991 240.32C532.017 236.789 529.454 232.657 529.227 227.145C529.069 222.474 530.727 217.922 533.853 214.446C534.877 213.314 536.76 211.813 538.003 210.936C530.101 209.679 522.931 209.421 515.006 208.719C518.73 224.928 515.961 247.62 502.315 258.753C499.896 256.691 499.013 259.204 495.353 257.258C499.642 253.466 503.796 247.476 506.123 242.27C511.213 231.05 511.633 218.266 507.289 206.737C502.373 193.982 493.783 185.791 481.527 180.318C485.081 179.654 489.182 179.072 492.453 177.654Z"
     id="path40" />
  <path
     fill="#948E5D"
     d="M596.821 278.311C601.19 277.336 665.981 282.677 673.942 284.113C671.62 285.016 670.963 284.911 668.503 284.553C667.031 285.396 663.985 286.7 663.635 287.919C666.606 288.61 669.645 288.298 671.863 289.418L672.062 290.099C659.578 289.112 639.525 288.025 627.627 286.405C625.17 286.448 624.07 286.336 621.627 286.008L622.91 285.487L622.271 284.542C615.074 283.228 603.834 280.238 596.821 278.311Z"
     id="path41" />
  <path
     fill="#737661"
     d="M622.271 284.542C624.153 284.744 631.345 285.274 632.485 286.008C630.659 286.269 629.473 286.342 627.627 286.405C625.17 286.448 624.07 286.336 621.627 286.008L622.91 285.487L622.271 284.542Z"
     id="path42" />
  <defs
     id="defs43">
    <linearGradient
       id="gradient_2"
       gradientUnits="userSpaceOnUse"
       x1="719.94629"
       y1="675.63831"
       x2="634.46338"
       y2="564.30884">
      <stop
         offset="0"
         stop-color="#6F8698"
         id="stop42" />
      <stop
         offset="1"
         stop-color="#ABC7DC"
         id="stop43" />
    </linearGradient>
  </defs>
  <path
     fill="url(#gradient_2)"
     d="M691.945 519.011C695.965 567.324 698.12 616.127 702.082 664.495C702.787 673.097 703.371 682.026 703.755 690.649C686.523 690.65 667.997 690.244 650.881 690.637C665.468 681.488 675.929 671.51 680.005 653.903C683.087 640.127 680.543 625.691 672.937 613.799C665.455 601.95 652.795 592.857 639.076 589.891C628.255 587.483 616.953 588.493 606.73 592.783C605.616 592.395 606.107 592.684 605.359 591.741C606.987 582.507 613.564 581.58 621.715 579.012C629.58 576.535 633.941 572.673 640.585 568.486C653.304 560.472 665.711 552.109 678.543 544.273C681.056 542.691 687.186 541.967 689.33 540.36C695.101 536.035 689.721 526.725 691.945 519.011Z"
     id="path43" />
  <path
     fill="#BDD9EC"
     d="M629.704 584.091C632.354 583.473 636.51 583.409 639.208 583.821L639.533 584.446L637.999 585.616C634.431 586.335 632.779 586.014 629.704 584.091Z"
     id="path44" />
  <path
     fill="#28405D"
     d="M475.676 275.044C486.76 274.568 504.061 274.786 515.4 275.12C507.387 276.468 498.377 277.215 490.255 277.769C485.07 278.122 478.808 275.175 475.75 277.546C476.457 282.999 492.503 277.58 494.63 280.684C492.566 281.02 473.216 280.951 469.635 280.813C458.024 280.366 442.219 281.545 431.124 280.67C387.927 281.714 344.754 283.611 301.631 286.361L297.356 286.08C299.039 285.431 306.104 285.051 308.852 284.375C315.366 282.771 321.618 280.926 328.032 279.001C332.9 278.343 338.729 277.993 343.699 277.576C361.833 276.866 379.871 275.849 398.03 275.536C401.941 274.878 410.818 275.007 414.924 275.005L441.81 275.01C449.216 275.562 456.74 276.318 464.111 276.532C464.336 277.696 464.264 277.101 464.319 278.318C466.906 278.228 469.782 275.334 473.011 275.499C473.05 275.501 475.395 275.092 475.676 275.044Z"
     id="path45" />
  <path
     fill="#737661"
     d="M475.676 275.044C486.76 274.568 504.061 274.786 515.4 275.12C507.387 276.468 498.377 277.215 490.255 277.769C485.07 278.122 478.808 275.175 475.75 277.546C476.457 282.999 492.503 277.58 494.63 280.684C492.566 281.02 473.216 280.951 469.635 280.813C458.024 280.366 442.219 281.545 431.124 280.67L431.612 280.038C438.088 278.961 452.912 279.443 459.513 279.955L459.588 279.333L459.823 279.509C455.911 279.05 453.032 278.152 448.538 277.98C444.891 277.84 438.022 277.846 434.772 277.3C422.222 275.189 410.551 275.975 398.03 275.536C401.941 274.878 410.818 275.007 414.924 275.005L441.81 275.01C449.216 275.562 456.74 276.318 464.111 276.532C464.336 277.696 464.264 277.101 464.319 278.318C466.906 278.228 469.782 275.334 473.011 275.499C473.05 275.501 475.395 275.092 475.676 275.044Z"
     id="path46" />
  <path
     fill="#28405D"
     d="M515.4 275.12C540.186 274.274 569.154 277.92 594.106 277.916C594.718 278.009 596.292 278.293 596.821 278.311C603.834 280.238 615.074 283.228 622.271 284.542L622.91 285.487L621.627 286.008C579.325 283.558 536.988 281.783 494.63 280.684C492.503 277.58 476.457 282.999 475.75 277.546C478.808 275.175 485.07 278.122 490.255 277.769C498.377 277.215 507.387 276.468 515.4 275.12Z"
     id="path47" />
  <path
     fill="#C8D7D6"
     d="M201.722 295.668C211.642 294.921 222.092 293.375 232.058 292.322C245.424 291.037 258.801 289.873 272.187 288.832C278.142 288.344 291.938 286.896 297.338 287.154C292.513 288.533 285.542 288.527 283.747 289.4L283.982 290.056L285.877 290.715C283.437 293.281 247.978 296.399 244.599 294.03L244.472 292.824C242.982 291.704 207.297 296.245 203.17 297.196C202.417 302.981 202.817 311.548 201.764 316.601L201.305 314.433C201.533 312.499 201.439 309.228 201.444 307.183C201.807 304.275 201.695 298.777 201.722 295.668Z"
     id="path48" />
  <path
     fill="#28405D"
     d="M304.965 291.471C309.32 292.75 311.875 296.921 314.539 300.482C328.744 299.085 345.269 298.566 359.603 297.845C395.125 295.905 430.697 295.021 466.272 295.194C495.855 295.198 525.435 295.804 554.994 297.013C573.917 297.753 594.661 298.594 613.467 300.457C615.924 296.625 618.679 292.838 623.559 292.568C626.586 294.802 623.097 298.587 621.469 300.859C635.386 302.608 702.42 304.078 709.106 310.14C711.515 312.324 712.784 315.236 713.354 318.392C715.319 329.273 714.408 344.756 714.655 356.26L716.398 430.32C716.578 439.145 716.956 448.822 716.21 457.623C715.826 459.319 713.292 463.98 711.903 464.823C704.296 469.44 685.942 467.004 677.526 466.589L634.691 464.648C618.81 464.55 602.818 463.452 586.94 462.875C564.135 462.191 541.327 461.626 518.517 461.18C458.411 460.121 398.289 460.702 338.215 462.919C313.633 463.788 289.056 464.792 264.485 465.93C251.905 466.493 231.458 468.771 218.818 466.241C213.576 465.192 211.474 456.769 211.503 451.62C211.548 443.432 211.791 434.717 211.976 426.239L213.063 378.629C213.527 359.76 213.746 340.574 214.523 321.715C214.675 318.034 215.51 315.438 216.839 312.038C224.236 305.751 241.572 305.768 251.413 304.954L306.303 300.932C303.824 296.82 302.768 295.889 304.965 291.471Z"
     id="path49" />
  <path
     fill="#BDD9EC"
     d="M444.322 301.193C481.389 300.616 518.465 301.352 555.48 303.401C570.956 304.153 594.22 304.733 609.051 306.743C607.212 309.062 605.533 310.664 603.432 312.736C584.544 313.166 562.872 309.73 543.775 309.738C536.342 309.741 533.281 311.029 528.272 316.238C527.33 325.255 527.481 336.612 527.403 345.843C527.241 362.915 527.231 379.989 527.371 397.061C527.405 408.939 527.016 422.953 528.138 434.596C529.335 447.016 556.039 444.792 564.951 444.99L603.022 446.101C620.044 446.752 637.061 447.521 654.072 448.409C664.073 448.903 688.029 450.791 696.359 448.834C699.343 446.358 702.208 443.616 702.373 439.483C703.055 422.375 701.875 404.407 701.536 387.349L700.904 350.329C700.749 342.513 702.455 321.879 692.473 319.718C683.403 317.755 672.347 317.358 663.013 316.746C645.827 315.759 628.653 314.587 611.492 313.23L616.723 307.128L621.698 307.369C631.43 307.856 701.199 310.699 705.661 316.165C706.984 317.786 707.27 319.801 707.449 321.818C708.24 330.725 707.861 339.979 707.983 348.929C708.157 361.655 708.654 374.386 708.926 387.112C709.427 410.496 711.821 434.732 709.386 458.004C708.348 459.084 706.931 460.245 705.784 461.247C681.943 461.417 652.031 459.094 627.422 458.2C579.801 456.36 532.157 455.129 484.504 454.508C416.879 454.139 349.256 455.684 281.718 459.141C262.16 459.955 241.27 461.481 221.926 460.751C216.097 460.531 218.396 428.257 218.486 423.228C218.755 405.605 219.134 387.985 219.624 370.367C219.841 361.097 219.584 321.516 222.429 316.213C228.066 312.097 249.645 311.325 257.598 310.691C275.426 309.213 293.276 308.013 311.142 307.09L316.881 313.593C301.419 314.427 285.963 315.368 270.514 316.416C260.34 317.048 250.217 317.188 240.155 318.969C235.563 319.303 228.748 322.512 228.429 327.96C226.353 362.913 226.415 398.148 225.505 433.163C224.958 454.245 239.846 450.062 255.205 449.292L284.181 447.952C314.534 446.495 344.902 445.381 375.28 444.612C385.905 444.248 399.162 445.92 400.347 431.798C401.527 417.737 400.904 403.312 400.95 389.159C401.019 367.8 401.004 346.403 400.724 325.049C400.592 315.201 397.049 310.434 386.945 309.989C366.511 310.627 344.946 311.225 324.629 313.446L319.234 306.684C333.257 304.963 352.126 304.399 366.316 303.765C392.303 302.498 418.308 301.641 444.322 301.193Z"
     id="path50" />
  <path
     fill="#28405D"
     d="M452.791 307.386C468.922 307.099 485.97 307.032 502.084 307.99C508.748 308.386 512.376 309.586 516.484 314.596C517.801 321.019 517.814 345.122 517.897 352.851C517.995 370.076 517.999 387.301 517.909 404.525C517.739 448.085 518.697 443.075 475.67 442.814L441.268 442.775C428.591 442.763 410.694 446.39 410.622 428.847C410.476 393.104 410.29 357.332 410.634 321.588C410.787 305.706 424.564 307.796 436.125 307.586C441.673 307.513 447.236 307.518 452.791 307.386Z"
     id="path51" />
  <path
     fill="#BDD9EC"
     d="M426.656 314.116C448.19 313.51 469.92 314.077 491.473 313.855C498.018 313.787 504.703 313.471 510.588 316.606C510.759 317.702 510.89 318.803 510.983 319.908C511.261 323.11 511.335 326.632 511.315 329.849C511.109 362.815 511.495 395.797 511.135 428.758C511.071 434.676 508.93 436.519 502.948 436.461C490.476 436.51 428.008 437.853 420.967 435.383C419.3 434.798 418.451 434.01 417.73 432.411C416.786 430.318 416.509 427.59 416.438 425.306C415.962 410.154 416.821 394.71 416.792 379.51C416.757 360.738 415.895 341.643 416.693 322.903C416.784 320.763 416.931 318.776 417.753 316.771C420.352 313.998 422.837 314.319 426.656 314.116Z"
     id="path52" />
  <path
     fill="#BDD9EC"
     d="M374.19 316.444C381.58 315.933 394.148 313.323 394.401 324.191C395.209 358.914 395.066 393.88 394.062 428.612C393.839 436.322 390.94 437.475 383.726 437.85C336.747 440.292 289.68 441.205 242.682 443.293C240.825 443.375 234.58 443.007 233.252 441.878C230.283 433.619 232.365 410.667 232.588 400.77L233.413 364.236C233.596 353.115 233.087 336.462 236 326.126C243.784 323.52 253.842 323.535 262.088 323.366C279.111 321.669 304.231 319.922 321.459 319.383C336.461 336.856 351.485 358.373 366.64 376.705C366.631 382.045 363.845 411.991 369.033 413.143C370.265 412.16 372.393 409.767 372.219 408.314C370.905 397.386 376.569 340.849 371.383 335.436C365.63 335.286 367.039 362.53 367.009 367.552C356.944 352.906 340.614 333.785 329.469 318.904C343.218 317.449 360.244 317.04 374.19 316.444Z"
     id="path53" />
  <path
     fill="#BDD9EC"
     d="M538.212 316.295C556.495 315.789 580.606 317.663 598.944 319.097C586.229 334.993 574.198 351.317 561.031 366.873C561.331 359.751 562.668 339.94 557.486 335.138L556.775 335.332C556.502 335.751 556.356 335.937 556.157 336.368C555.139 338.566 554.868 341.629 554.785 344.035C554.489 352.654 555.337 406.351 557.372 411.415C557.853 412.61 558.106 412.501 559.301 412.989C564.622 409.534 561.994 383.093 561.818 375.949L589.882 340.76C594.815 334.552 601.713 326.317 605.911 319.939C618.727 319.228 640.762 321.885 654.802 322.428C698.279 327.073 693.864 314.49 694.757 364.087L695.582 403.725C695.668 411.627 698.005 437.593 693.898 442.667C688.986 443.975 542.489 438.116 537.944 436.84C536.771 436.511 535.852 435.818 535.297 434.724C534.075 432.319 533.778 429.053 533.622 426.395C532.728 411.163 533.619 395.344 533.648 380.045C533.682 361.99 532.974 343.694 533.494 325.672C533.552 323.675 533.714 321.21 534.512 319.374C535.337 317.476 536.437 317.007 538.212 316.295Z"
     id="path54" />
  <path
     fill="#28405D"
     d="M416.136 475.457C436.203 474.661 457.324 475.493 477.501 475.314C489.004 475.55 500.667 474.808 512.132 475.749C518.486 476.412 524.151 482.701 524.321 489.038C524.996 515.323 524.644 541.675 524.743 567.972C524.798 582.644 526.425 595.761 507.351 596.762C494.773 596.845 482.195 596.813 469.618 596.667L466.169 601.999C458.401 601.585 459.897 597.85 456.147 597.044C444.246 594.484 424.21 599.84 412.975 595.267C409.299 593.775 406.377 590.869 404.862 587.202C402.454 581.287 401.943 491.175 404.722 484.778C406.916 479.728 411.309 477.376 416.136 475.457Z"
     id="path55" />
  <path
     fill="#BDD9EC"
     d="M450.699 590.949C442.121 591.265 418.823 592.463 412.368 587.825C410.31 584.698 409.394 578.75 409.38 575.026C409.406 552.049 409.252 529.109 409.367 506.123C409.405 498.597 407.445 483.272 417.552 482.053C430.045 480.547 442.469 481.422 455 481.379C474.298 481.313 493.524 481.228 512.819 481.662C514.563 483.205 516.216 485.025 517.832 486.717C519.042 496.32 518.589 514.409 518.545 524.662C518.459 544.507 518.771 564.889 518.355 584.67C516.738 586.746 514.703 588.584 512.798 590.411C502.564 591.184 489.184 590.827 478.771 590.665C488.26 580.423 482.646 580.017 482.781 569.396C483.035 549.34 471.752 533.801 451.601 547.595C451.537 536.47 450.77 522.592 437.189 519.606C432.548 518.599 427.697 519.547 423.776 522.228C413.032 529.526 415.836 543.546 415.082 554.617C414.368 565.103 418.582 567.793 428.222 569.062C428.419 571.135 428.735 577.157 429.673 578.553C431.638 577.402 436.274 576.967 438.07 578.459C439.793 576.386 438.177 572.125 440.152 569.538C441.886 568.671 442.349 568.953 444.386 569.331C446.171 571.922 444.997 580.343 444.894 584.204C447.145 587.508 447.779 588.202 450.699 590.949Z"
     id="path56" />
  <path
     fill="#17324E"
     d="M429.673 578.553C431.638 577.402 436.274 576.967 438.07 578.459C434.639 581.057 433.098 580.89 429.673 578.553Z"
     id="path57" />
  <path
     fill="#28405D"
     d="M489.87 496.734C516.961 493.637 511.345 523.291 512.393 540.642C512.842 548.075 504.675 548.759 498.838 549.785C497.509 554.221 496.809 556.814 493.866 560.387C482.962 563.926 484.651 556.739 487.686 549.809L478.638 548.133C475.937 545.879 475.205 544.381 473.681 541.366C475.205 524.307 468.801 502.404 489.87 496.734Z"
     id="path58" />
  <path
     fill="#BDD9EC"
     d="M489.352 502.995C494.302 502.66 495.884 502.98 500.454 504.351C506.488 510.256 506.118 515.717 506.234 523.776L497.448 523.152C491.135 523.028 486.547 523.189 480.324 524.151C480.348 514.272 479.723 508.293 489.352 502.995Z"
     id="path59" />
  <path
     fill="#BDD9EC"
     d="M483.933 529.343C492.02 529.043 510.575 526.285 506.383 540.208C505.894 541.832 504.626 542.489 503.243 543.279C495.029 543.527 468.279 545.296 483.933 529.343Z"
     id="path60" />
  <path
     fill="#BDD9EC"
     d="M423.991 548.556C428.796 548.375 434.166 547.914 438.915 548.389C448.326 549.331 450.959 555.191 445.146 562.605C435.255 563.586 412.27 565.688 423.991 548.556Z"
     id="path61" />
  <path
     fill="#BDD9EC"
     d="M462.168 571.19C465.53 571.071 469.647 571.387 473.076 571.562C477.026 574.412 480.534 578.98 476.193 583.553C473.758 586.118 470.495 585.681 467.093 585.753C461.954 585.954 445.424 585.851 452.008 574.28C453.727 571.259 458.788 571.274 462.168 571.19Z"
     id="path62" />
  <path
     fill="#BDD9EC"
     d="M429.692 525.997C442.39 525.417 444.67 530.89 444.921 542.441L434.828 542.201C430.779 542.112 423.673 543.743 421.128 541.759C418.583 536.58 425.586 528.741 429.692 525.997Z"
     id="path63" />
  <path
     fill="#BDD9EC"
     d="M460.528 549.09C468.724 548.357 471.788 550.024 475.401 557.367L475.195 565.382L467.727 565.014L453.304 565.296C453.534 561.217 453.762 558.258 454.355 554.23C456.899 551.528 457.382 551.035 460.528 549.09Z"
     id="path64" />
  <path
     fill="#28405D"
     d="M516.944 651.47C529.377 650.232 526.188 667.337 539.396 666.523C548.874 665.939 548.044 651.339 557.087 651.221C559.397 651.191 562.552 652.146 562.193 655.031C560.979 657.033 560.443 657.014 558.106 657.912C553.466 659.19 548.422 674.838 537.746 673.268C525.256 671.431 524.575 661.968 514.583 656.408C513.337 655.715 513.129 654.711 513.075 653.536C514.29 652.025 514.965 652.045 516.944 651.47Z"
     id="path75" />
  <path
     fill="#28405D"
     d="M376.086 651.893C381.162 661.045 389.284 676.095 399.762 660.478C403.1 655.502 403.415 649.789 411.247 651.586C413.152 652.023 413.562 652.661 414.499 654.196C414.413 656.438 414.614 655.593 413.176 657.59C403.658 660.252 403.181 671.358 392.524 672.947C380.67 674.714 376.661 662.588 366.523 655.778C366.288 653.752 366.873 653.581 368.07 651.519C370.621 651.551 373.509 651.76 376.086 651.893Z"
     id="path76" />
  <defs
     id="defs77">
    <linearGradient
       id="gradient_3"
       gradientUnits="userSpaceOnUse"
       x1="111.27956"
       y1="198.95329"
       x2="402.24081"
       y2="218.85399">
      <stop
         offset="0"
         stop-color="#43545C"
         id="stop76" />
      <stop
         offset="1"
         stop-color="#C3AF5D"
         id="stop77" />
    </linearGradient>
  </defs>
  <path
     fill="url(#gradient_3)"
     d="M159.428 87.0885C161.954 85.872 170.69 81.2026 173.207 81.3411C184.33 81.9534 200.172 88.5604 211.031 91.7655C216.421 93.3567 226.612 97.7501 230.004 100.711L230.333 101.623C227.324 102.85 225.616 101.219 224.344 102.934C225.42 104.517 225.583 104.53 227.313 105.479C233.123 108.527 236.048 110.264 242.495 111.755C244.923 110.936 249.799 108.825 251.903 109.627L252.557 109.164L252.599 108.182C254.949 107.668 270.912 113.834 273.394 115.258C277.472 123.734 281.043 116.341 284.444 120.789L283.641 122.553L284.73 123.851C290.827 126.14 298.872 129.407 304.979 131.111L305.142 131.051C307.355 133.228 309.793 133.539 312.832 134.055L313.168 133.898C315.934 135.135 348.625 145.081 351.524 145.578L351.604 146.023C353.368 146.516 355.493 147.046 357.177 147.686C363.948 148.931 384.045 157.058 391.921 159.734L392.648 159.819C393.757 161.672 396.976 162.723 399.442 164.413L401.526 163.967C409.164 167.916 423.766 171.406 432.642 175.929C439.852 178.049 442.615 178.677 450.311 179.219C439.488 182.116 429.789 190.344 424.179 199.953C417.968 210.71 416.34 223.512 419.662 235.482C421.943 243.907 426.619 251.086 432.779 257.19C429.74 257.302 428.483 257.314 425.493 257.972L426.355 259.564C435.323 267.47 441.758 270.781 453.207 274.555C449.948 274.607 444.886 274.545 441.81 275.01L414.924 275.005C410.818 275.007 401.941 274.878 398.03 275.536C379.871 275.849 361.833 276.866 343.699 277.576C338.729 277.993 332.9 278.343 328.032 279.001C321.618 280.926 315.366 282.771 308.852 284.375C306.104 285.051 299.039 285.431 297.356 286.08L301.631 286.361L297.338 287.154C291.938 286.896 278.142 288.344 272.187 288.832C258.801 289.873 245.424 291.037 232.058 292.322C222.092 293.375 211.642 294.921 201.722 295.668C201.695 298.777 201.807 304.275 201.444 307.183C201.439 309.228 201.533 312.499 201.305 314.433C200.11 314.406 198.041 314.672 196.772 314.797C183.81 320.041 149.007 324.932 134.369 321.781C132.354 321.347 130.069 317.816 129.885 315.766L127.806 314.891C117.596 315.356 112.352 307.193 109.122 299.007C106.604 292.524 107.129 281.98 106.038 275.049C104.98 268.333 103.581 261.547 102.48 254.842C94.8434 208.331 101.175 160.514 113.547 115.398C115.22 109.3 116.251 99.3825 119.85 94.5447C122.608 90.8378 131.566 88.2553 136.133 87.6878C151.149 87.5938 157.999 87.1725 173.028 90.1162L172.647 89.1603C168.413 87.4728 163.937 87.269 159.428 87.0885Z"
     id="path77" />
  <path
     fill="#DADAAB"
     d="M402.513 209.155C406.072 209.28 409.226 208.758 412.769 208.795C411.372 227.007 410.729 241.518 423.997 256.812C424.432 257.313 424.941 257.613 425.493 257.972L426.355 259.564C435.323 267.47 441.758 270.781 453.207 274.555C449.948 274.607 444.886 274.545 441.81 275.01L414.924 275.005C410.818 275.007 401.941 274.878 398.03 275.536C379.871 275.849 361.833 276.866 343.699 277.576C338.729 277.993 332.9 278.343 328.032 279.001C318.701 278.093 293.555 280.947 283.408 281.577C256.002 283.281 229.208 286.509 202 289.966C205.006 277.849 207.953 268.681 216.136 258.742C221.354 252.371 227.842 247.155 235.187 243.428C245.589 238.191 258.658 235.14 269.901 232.082C314.122 220.052 357.025 213.745 402.513 209.155Z"
     id="path78" />
  <path
     fill="#C8D7D6"
     d="M426.355 259.564C435.323 267.47 441.758 270.781 453.207 274.555C449.948 274.607 444.886 274.545 441.81 275.01L414.924 275.005C410.818 275.007 401.941 274.878 398.03 275.536C379.871 275.849 361.833 276.866 343.699 277.576L342.034 276.936C344.217 276.571 352.1 276.343 352.896 275.605C350.571 274.885 344.218 276.868 342.521 275.776C345.541 274.402 347.32 274.768 350.56 274.127L376.137 268.924C388.57 266.453 413.839 259.232 426.355 259.564Z"
     id="path79" />
  <path
     fill="#DADAAB"
     d="M351.604 146.023C353.368 146.516 355.493 147.046 357.177 147.686C363.948 148.931 384.045 157.058 391.921 159.734L392.648 159.819C393.757 161.672 396.976 162.723 399.442 164.413L401.526 163.967C409.164 167.916 423.766 171.406 432.642 175.929C439.852 178.049 442.615 178.677 450.311 179.219C439.488 182.116 429.789 190.344 424.179 199.953C417.968 210.71 416.34 223.512 419.662 235.482C421.943 243.907 426.619 251.086 432.779 257.19C429.74 257.302 428.483 257.314 425.493 257.972C424.941 257.613 424.432 257.313 423.997 256.812C410.729 241.518 411.372 227.007 412.769 208.795C409.226 208.758 406.072 209.28 402.513 209.155C400.994 208.505 399.834 208.626 398.18 208.593L397.926 207.746C398.755 204.855 403.282 196.871 406.04 195.71C402.736 194.86 396.276 195.114 392.561 195.016C382.802 195.101 371.144 195.527 361.482 194.247C356.128 193.176 351.225 190.352 345.734 189.937C339.033 189.43 325.736 196.509 327.737 184.079C328.365 180.177 329.032 174.833 333.548 173.434C337.037 172.353 341.414 177.889 344.51 179.71C346.439 179.849 345.6 180.104 347.12 178.949C348.195 176.562 351.474 149.541 351.604 146.023Z"
     id="path80" />
  <path
     fill="#C7B15A"
     d="M432.642 175.929C439.852 178.049 442.615 178.677 450.311 179.219C439.488 182.116 429.789 190.344 424.179 199.953C417.968 210.71 416.34 223.512 419.662 235.482C421.943 243.907 426.619 251.086 432.779 257.19C429.74 257.302 428.483 257.314 425.493 257.972C424.941 257.613 424.432 257.313 423.997 256.812C410.729 241.518 411.372 227.007 412.769 208.795C409.226 208.758 406.072 209.28 402.513 209.155C400.994 208.505 399.834 208.626 398.18 208.593L397.926 207.746C398.755 204.855 403.282 196.871 406.04 195.71C402.736 194.86 396.276 195.114 392.561 195.016C399.602 194.335 412.537 194.628 420.033 194.618C425.427 187.698 427.969 184.667 434.99 179.27C423.475 179.676 410.189 179.241 398.441 179.265C404.126 177.814 433.15 179 434.834 177.734L432.703 176.673L432.642 175.929Z"
     id="path81" />
  <path
     fill="#948E5D"
     d="M399.442 164.413L401.526 163.967C409.164 167.916 423.766 171.406 432.642 175.929L432.703 176.673L434.834 177.734C433.15 179 404.126 177.814 398.441 179.265C386.515 179.478 373.695 179.157 361.704 179.065L361.635 171.921C374.204 169.255 386.808 166.752 399.442 164.413Z"
     id="path82" />
  <path
     fill="#948E5D"
     d="M357.177 147.686C363.948 148.931 384.045 157.058 391.921 159.734C381.727 162.26 371.23 164.099 360.899 166.042C358.415 159.045 358.08 155.002 357.177 147.686Z"
     id="path83" />
  <path
     fill="#465660"
     d="M109.122 299.007C106.604 292.524 107.129 281.98 106.038 275.049C104.98 268.333 103.581 261.547 102.48 254.842C94.8434 208.331 101.175 160.514 113.547 115.398C115.22 109.3 116.251 99.3825 119.85 94.5447C122.608 90.8378 131.566 88.2553 136.133 87.6878L135.58 87.9626C131.145 90.128 121.934 92.2251 121.107 97.3129C119.717 105.858 117.837 117.285 117.063 125.967C116.173 135.938 118.016 147.509 117.197 157.659C115.792 168.682 114.88 177.396 115.979 188.716C116.299 192.005 114.495 198.01 114.599 201.578C114.691 216.475 114.312 232.066 113.474 246.934C112.953 256.178 111.658 266.304 110.769 275.549C110.335 280.069 108.019 285.123 108.126 288.914L108.408 289.223C108.561 287.686 108.696 286.148 108.813 284.608C109.166 289.204 109.792 294.498 109.122 299.007Z"
     id="path84" />
  <path
     fill="#737661"
     d="M227.313 105.479C233.123 108.527 236.048 110.264 242.495 111.755C244.923 110.936 249.799 108.825 251.903 109.627L252.557 109.164L252.599 108.182C254.949 107.668 270.912 113.834 273.394 115.258C277.472 123.734 281.043 116.341 284.444 120.789L283.641 122.553L284.73 123.851C290.827 126.14 298.872 129.407 304.979 131.111L303.082 132.849C296.811 135.334 299.009 140.663 291.462 137.984C275.429 132.292 259.668 126.423 243.286 121.698C236.835 119.838 228.292 114.582 222.045 113.384C223.12 110.922 225.527 107.489 227.313 105.479Z"
     id="path85" />
  <path
     fill="#4A5457"
     d="M251.903 109.627L252.557 109.164L252.599 108.182C254.949 107.668 270.912 113.834 273.394 115.258C277.472 123.734 281.043 116.341 284.444 120.789L283.641 122.553L284.73 123.851C280.099 122.376 253.939 112.273 251.903 109.627Z"
     id="path86" />
  <path
     fill="#4A5457"
     d="M159.428 87.0885C161.954 85.872 170.69 81.2026 173.207 81.3411C184.33 81.9534 200.172 88.5604 211.031 91.7655C216.421 93.3567 226.612 97.7501 230.004 100.711L230.333 101.623C227.324 102.85 225.616 101.219 224.344 102.934C225.42 104.517 225.583 104.53 227.313 105.479C225.527 107.489 223.12 110.922 222.045 113.384C212.971 110.212 191.019 103.789 183.828 99.611C186.263 100.057 188.065 100.495 190.558 100.423C192.202 99.361 192.445 99.635 192.806 98.2273C189.325 93.5968 177.354 92.9816 173.028 90.1162L172.647 89.1603C168.413 87.4728 163.937 87.269 159.428 87.0885Z"
     id="path87" />
  <path
     fill="#465660"
     d="M160.747 312.157C166.765 312.145 183.877 312.142 189.261 313.296C193.281 313.18 193.022 313.61 196.772 314.797C183.81 320.041 149.007 324.932 134.369 321.781C132.354 321.347 130.069 317.816 129.885 315.766L127.806 314.891C132.614 314.833 137.145 315.554 141.707 315.009C146.029 315.109 156.185 313.003 160.747 312.157Z"
     id="path88" />
  <path
     fill="#28405D"
     d="M160.747 312.157C166.765 312.145 183.877 312.142 189.261 313.296C180.401 315.436 169.228 311.463 159.452 314.089C153.663 315.645 147.461 314.509 141.114 317.208L140.631 316.431C141.096 315.367 140.811 315.69 141.707 315.009C146.029 315.109 156.185 313.003 160.747 312.157Z"
     id="path89" />
  <path
     fill="#4A5457"
     d="M160.747 312.157C162.74 311.531 163.063 311.844 163.837 310.493C162.789 308.833 160.797 308.368 158.7 307.354C163.156 304.81 187.147 301.417 194.807 298.731C193.74 298.588 193.511 298.564 192.494 298.231L192.836 297.432C194.129 297.449 195.173 297.446 196.48 297.375C195.307 296.906 194.922 296.877 193.705 296.619L193.993 295.868C196.532 294.96 198.431 295.087 201.119 295.013C201.126 299.223 201.117 302.968 201.444 307.183C201.439 309.228 201.533 312.499 201.305 314.433C200.11 314.406 198.041 314.672 196.772 314.797C193.022 313.61 193.281 313.18 189.261 313.296C183.877 312.142 166.765 312.145 160.747 312.157Z"
     id="path90" />
  <path
     fill="#DADAAB"
     d="M304.979 131.111L305.142 131.051C307.355 133.228 309.793 133.539 312.832 134.055C308.648 138.598 294.485 154.314 288.385 154.454C284.242 150.608 299.843 136.627 303.082 132.849L304.979 131.111Z"
     id="path91" />
  <path
     fill="#DADAAB"
     d="M316.889 197.033C323.093 196.76 348.874 195.766 352.954 198.388C353.53 202.126 351.946 201.539 349.553 203.529C347.88 204.92 347.93 207.86 347.408 210.002C340.451 211.702 327.088 213.378 319.591 214.55L319.342 204.192C317.545 202.997 315.277 201.647 314.692 199.668C315.231 197.837 315.028 198.43 316.889 197.033Z"
     id="path92" />
  <path
     fill="#758A9E"
     d="M209.254 696.584C255.082 697.274 302.673 696.545 348.632 696.488L577.213 696.574L656.389 696.756C664.98 696.72 720.451 695.765 723.48 697.624C727.32 702.694 725.858 726.946 725.822 734.788L697.38 734.65L697.395 719.859C697.514 707.135 697.964 699.858 682.457 700.672C674.12 701.109 672.763 703.326 671.137 711.084C670.973 711.865 667.51 713.19 667.103 714.097C665.757 718.046 665.456 723.669 667.317 727.504C669.119 730.756 671.079 730.652 671.506 734.007C669.316 735.362 655.858 734.922 652.35 734.932C628.404 734.998 604.453 734.993 580.507 734.991L341.595 735.038C295.693 734.988 248.339 734.349 202.555 734.916C202.589 724.38 202.093 713.701 202.545 703.174C202.758 698.23 204.664 697.243 209.254 696.584Z"
     id="path93" />
  <path
     fill="#BDD9EC"
     d="M305.142 131.051C327.246 107.669 344.492 109.254 375.218 108.386C427.144 107.104 479.092 106.957 531.025 107.946C550.822 108.389 571.151 107.556 590.658 111.108C605.706 113.848 614.306 122.124 624.562 132.5L625.118 132.83L630.359 138.824C629.169 140.247 624.721 141.076 622.717 141.594C620.544 139.548 618.377 137.286 616.273 135.152L616.064 135.016C614.485 136.572 581.215 146.46 576.548 147.796L576.553 148.404C574.418 148.888 573.102 149.303 570.891 149.245L570.787 149.497C562.331 152.716 553.854 155.877 545.355 158.979C542.427 160.071 534.662 163.245 532.179 163.817L531.624 163.807C529.661 167.111 526.849 165.916 523.686 168.129L522.547 167.846C517.678 170.274 508.827 171.707 504.92 173.629L492.453 177.654C489.182 179.072 485.081 179.654 481.527 180.318C471.25 176.934 460.771 175.974 450.311 179.219C442.615 178.677 439.852 178.049 432.642 175.929C423.766 171.406 409.164 167.916 401.526 163.967L399.442 164.413C396.976 162.723 393.757 161.672 392.648 159.819L391.921 159.734C384.045 157.058 363.948 148.931 357.177 147.686C355.493 147.046 353.368 146.516 351.604 146.023L351.524 145.578C348.625 145.081 315.934 135.135 313.168 133.898L312.832 134.055C309.793 133.539 307.355 133.228 305.142 131.051Z"
     id="path94" />
  <path
     fill="#28405D"
     d="M470.7 149.598C478.757 148.333 488.547 146.055 496.676 144.382L539.483 135.603C548.21 133.781 557.785 131.359 566.591 130.506C572.481 129.935 570.972 145.507 570.891 149.245L570.787 149.497C562.331 152.716 553.854 155.877 545.355 158.979C542.427 160.071 534.662 163.245 532.179 163.817L531.624 163.807C521.921 161.859 511.498 159.174 501.709 157.061C492.914 155.163 478.843 152.474 470.7 149.598Z"
     id="path95" />
  <defs
     id="defs96">
    <linearGradient
       id="gradient_4"
       gradientUnits="userSpaceOnUse"
       x1="450.97815"
       y1="154.43877"
       x2="455.11133"
       y2="182.66277">
      <stop
         offset="0"
         stop-color="#5C6155"
         id="stop95" />
      <stop
         offset="1"
         stop-color="#8F8B5B"
         id="stop96" />
    </linearGradient>
  </defs>
  <path
     fill="url(#gradient_4)"
     d="M401.526 163.967L426.888 158.739C435.392 156.915 447.088 153.457 455.483 154.001C469.023 154.879 484.6 159.141 497.881 162.266L498.23 163.822C496.438 165.043 494.868 166.001 493.317 167.527L493.494 168.341C497.497 170.616 500.374 172.501 504.92 173.629L492.453 177.654C489.182 179.072 485.081 179.654 481.527 180.318C471.25 176.934 460.771 175.974 450.311 179.219C442.615 178.677 439.852 178.049 432.642 175.929C423.766 171.406 409.164 167.916 401.526 163.967Z"
     id="path96" />
  <path
     fill="#28405D"
     d="M357.177 147.686C356.797 143.193 355.969 136.085 358.646 132.275C361.708 131.218 430.859 147.612 439.192 149.589C423.688 153.33 407.907 156.166 392.648 159.819L391.921 159.734C384.045 157.058 363.948 148.931 357.177 147.686Z"
     id="path97" />
  <path
     fill="#28405D"
     d="M580.437 118.197C597.907 119.8 603.919 122.482 616.064 135.016C614.485 136.572 581.215 146.46 576.548 147.796C576.407 143.359 576.521 138.264 576.521 133.775C577.738 132.517 579.065 131.292 580.335 130.08L580.437 118.197Z"
     id="path98" />
  <path
     fill="#28405D"
     d="M313.168 133.898C321.936 124.194 332.98 119.124 346.006 118.564C346.65 118.533 347.295 118.517 347.94 118.515C347.976 122.064 347.947 125.848 348.144 129.369L351.556 133.749L351.524 145.578C348.625 145.081 315.934 135.135 313.168 133.898Z"
     id="path99" />
  <defs
     id="defs100">
    <linearGradient
       id="gradient_5"
       gradientUnits="userSpaceOnUse"
       x1="515.12579"
       y1="162.12053"
       x2="498.61514"
       y2="172.40967">
      <stop
         offset="0"
         stop-color="#3D4549"
         id="stop99" />
      <stop
         offset="1"
         stop-color="#676754"
         id="stop100" />
    </linearGradient>
  </defs>
  <path
     fill="url(#gradient_5)"
     d="M497.881 162.266C505.439 163.929 515.255 165.794 522.547 167.846C517.678 170.274 508.827 171.707 504.92 173.629C500.374 172.501 497.497 170.616 493.494 168.341L493.317 167.527C494.868 166.001 496.438 165.043 498.23 163.822L497.881 162.266Z"
     id="path100" />
  <path
     fill="#DADAAB"
     d="M624.562 132.5L625.118 132.83L630.359 138.824C629.169 140.247 624.721 141.076 622.717 141.594C620.544 139.548 618.377 137.286 616.273 135.152C618.87 134.995 622.987 134.574 624.562 132.5Z"
     id="path101" />
  <path
     fill="#28405D"
     d="M386.479 118.404C426.803 117.947 467.13 117.871 507.456 118.178L540.284 118.572C544.864 118.647 563.473 118.392 566.226 121.022L566.155 122.516C562.183 125.7 534.953 130.379 527.977 131.794C513.324 134.406 460.776 147.971 449.829 145.692C422.171 139.937 390.034 132.274 362.28 125.508C361.282 125.265 361.355 120.834 362.717 120.392C368.174 117.454 380.268 118.486 386.479 118.404Z"
     id="path102" />
  <path
     fill="#758A9E"
     d="M696.55 740.978C702.414 740.797 723.19 740.219 727.332 742.319L726.054 742.795L726.047 741.975L725.768 741.954L725.183 742.986C720.861 743.799 706.151 743.914 700.897 744.046C699.307 757.846 692.181 793.956 687.555 806.235C686.454 794.632 691.7 755.309 675.36 753.714C651.409 751.375 625.024 752.917 600.759 752.758C590.283 752.689 585.623 757.185 583.153 766.819C582.348 772.165 582.673 782.027 582.726 787.846C573.265 789.565 570.228 789.538 566.043 799.118C561.817 790.749 554.315 785.282 544.868 789.895C541.375 791.607 538.704 794.636 537.444 798.317C535.416 804.276 537.394 808.254 539.85 813.352L529.183 813.301C529.256 794.909 529.88 774.193 528.279 755.835C527.461 746.454 514.5 745.286 506.743 745.263L443.148 745.245C403.62 745.19 398.522 739.352 398.932 781.85L399.249 813.381L388.423 813.509C390.882 808.252 392.848 804.154 390.859 798.134C389.651 794.444 386.996 791.404 383.503 789.71C380.003 788.043 375.978 787.858 372.339 789.197C366.786 791.215 364.696 794.848 362.322 799.696C358.62 789.98 355.131 789.414 345.504 788.063C346.16 770.325 348.905 752.367 324.858 752.64C301.208 752.908 277.128 751.584 253.553 753.727C251.557 753.991 247.685 756.089 246.512 757.661C238.684 768.158 241.564 794.764 241.466 806.846C234.334 791.53 229.119 760.807 227.416 743.934C221.006 743.478 207.665 744.248 202.03 742.654L201.877 742.065C203.666 741.177 206.58 741.219 208.69 741.08C231.399 740.858 254.11 740.8 276.82 740.907L408.038 741.07L671.429 740.913C676.793 748.265 683.156 747.207 691.106 746.358C693.949 744.399 694.655 743.735 696.55 740.978Z"
     id="path103" />
  <path
     fill="#758A9E"
     d="M669.131 877.126C680.16 875.843 682.923 893.599 683.474 901.517C684.619 915.183 672.578 922.783 664.876 931.9C655.475 943.027 641.603 942.58 627.998 943.548C599.135 945.603 569.444 947.705 540.506 947.963C534.571 947.885 525.377 947.774 524.424 940.27C523.179 931.284 527.45 918.981 532.374 911.608C538.492 902.446 557.14 900.473 567.417 898.267C581.349 895.179 595.319 892.268 609.324 889.536C628.838 885.612 649.807 880.323 669.131 877.126Z"
     id="path104" />
  <path
     fill="#758A9E"
     d="M255.273 876.976C263.055 877.041 291.453 883.927 300.917 885.876L357.926 897.507C367.16 899.455 381.473 901.944 389.832 905.633C398.208 909.331 407.432 934.058 402.979 942.705C401.272 946.019 398.177 946.932 394.868 947.835C385.03 948.515 373.446 947.526 363.494 947.075C336.327 945.844 309.114 944.305 282.028 941.803C269.058 940.604 257.891 925.677 249.787 916.537C240.527 906.095 244.405 884.947 255.273 876.976Z"
     id="path105" />
  <defs
     id="defs106">
    <linearGradient
       id="gradient_6"
       gradientUnits="userSpaceOnUse"
       x1="280.54968"
       y1="683.43921"
       x2="320.26904"
       y2="600.3316">
      <stop
         offset="0"
         stop-color="#8196A5"
         id="stop105" />
      <stop
         offset="1"
         stop-color="#AEC6D6"
         id="stop106" />
    </linearGradient>
  </defs>
  <path
     fill="url(#gradient_6)"
     d="M295.554 595.613C321.334 592.814 344.489 611.476 347.235 637.264C349.98 663.053 331.273 686.172 305.482 688.864C279.767 691.549 256.734 672.906 253.996 647.193C251.259 621.481 269.851 598.405 295.554 595.613Z"
     id="path106" />
  <path
     fill="#28405D"
     d="M294.794 604.059C315.869 600.831 335.553 615.347 338.701 636.436C341.849 657.525 327.262 677.157 306.163 680.226C285.177 683.279 265.675 668.784 262.544 647.806C259.412 626.829 273.832 607.27 294.794 604.059Z"
     id="path107" />
  <path
     fill="#6A747B"
     d="M306.993 673.843C290.976 677.055 275.103 667.719 270.124 652.159C265.145 636.599 272.65 619.781 287.555 613.097C302.461 606.412 320.008 611.993 328.314 626.062C336.62 640.13 333.032 658.193 319.98 668.018C316.142 670.908 311.703 672.898 306.993 673.843Z"
     id="path108" />
  <path
     fill="#4A5457"
     d="M306.993 673.843C304.512 672.871 304.161 673.066 302.493 670.568C298.775 664.996 299.243 649.957 309.086 653.439C313.592 655.033 318.062 663.326 319.98 668.018C316.142 670.908 311.703 672.898 306.993 673.843Z"
     id="path109" />
  <defs
     id="defs110">
    <linearGradient
       id="gradient_7"
       gradientUnits="userSpaceOnUse"
       x1="646.20795"
       y1="683.69739"
       x2="608.6142"
       y2="599.78674">
      <stop
         offset="0"
         stop-color="#7C909F"
         id="stop109" />
      <stop
         offset="1"
         stop-color="#A3BACA"
         id="stop110" />
    </linearGradient>
  </defs>
  <path
     fill="url(#gradient_7)"
     d="M622.306 595.591C647.929 592.613 671.139 610.91 674.229 636.523C677.319 662.137 659.125 685.429 633.529 688.631C607.775 691.852 584.31 673.52 581.201 647.748C578.092 621.977 596.525 598.588 622.306 595.591Z"
     id="path110" />
  <path
     fill="#28405D"
     d="M622.072 604.188C643.053 600.974 662.658 615.4 665.835 636.389C669.011 657.378 654.552 676.96 633.56 680.1C612.621 683.231 593.101 668.814 589.933 647.878C586.764 626.942 601.144 607.394 622.072 604.188Z"
     id="path111" />
  <path
     fill="#6A747B"
     d="M603.957 620.946C613.82 609.92 629.953 607.09 642.979 614.102C656.004 621.113 662.529 636.139 658.76 650.445C654.991 664.751 641.91 674.611 627.121 674.292C618.43 674.105 610.189 670.39 604.292 664.002C593.105 651.88 592.959 633.24 603.957 620.946Z"
     id="path112" />
  <path
     fill="#465660"
     d="M604.292 664.002C593.105 651.88 592.959 633.24 603.957 620.946C605.584 625.511 607.089 629.71 607.732 634.566C613.572 640.204 626.46 643.305 627.543 651.253C625.431 652.993 625.169 653.402 623.652 655.702C616.293 655.753 608.198 656.713 604.292 664.002Z"
     id="path113" />
  <path
     fill="#4A5457"
     d="M623.652 655.702C625.169 653.402 625.431 652.993 627.543 651.253C633.097 658.458 640.908 670.58 627.121 674.292C618.43 674.105 610.189 670.39 604.292 664.002C608.198 656.713 616.293 655.753 623.652 655.702Z"
     id="path114" />
  <path
     fill="#758A9E"
     d="M601.729 759.062C615.671 758.81 629.682 759.123 643.629 759.171C652.04 759.2 660.946 758.627 669.285 759.491C671.864 759.758 675.847 760.423 677.771 762.198C680.018 764.269 680.386 770.432 680.496 773.324C680.792 781.054 682.439 812.514 677.638 817.289C674.766 820.144 671.07 819.992 667.316 820.016C656.005 820.216 599.993 822.154 593.185 818.196C591.245 817.067 590.357 814.185 589.89 812.119C588.304 805.1 588.303 773.896 589.846 766.934C590.306 764.857 591.431 763.114 592.548 761.339C596.017 759.613 598.023 759.388 601.729 759.062Z"
     id="path115" />
  <path
     fill="#758A9E"
     d="M290.988 759.1C300.673 758.986 328.023 757.383 335.619 761.436C341.321 764.478 341.289 813.901 335.277 817.854C328.926 822.031 305.593 820.378 297.019 820.242C288.575 820.37 255.561 822.055 250.774 817.186C248.509 814.882 248.104 809.683 247.966 806.552C247.63 798.932 246.249 766.924 251.475 761.71C255.72 757.476 284.02 759.113 290.988 759.1Z"
     id="path116" />
  <path
     fill="#758A9E"
     d="M412.728 751.603C428.767 750.808 450.175 751.66 466.729 751.486C480.438 751.342 504.829 750.886 517.489 752.176C520.071 754.392 520.531 754.817 522.468 757.629C523.401 766.62 524.839 814.089 519.924 819.429C515.401 824.343 491.456 822.544 484.857 822.417L484.624 801.144C495.936 800.204 494.696 798.049 494.67 787.61C494.776 784.285 495.789 768.609 492.102 768.177C482.279 767.026 441.771 765.269 434.706 769.2C431.908 774.392 433.648 787.448 433.651 793.519C433.654 801.281 437.795 800.99 443.717 801.033L443.512 822.377C435.808 822.267 408.698 825.478 406.918 817.585C403.169 800.957 404.987 774.35 406.253 756.744C406.415 754.494 411.062 752.289 412.728 751.603Z"
     id="path117" />
  <defs
     id="defs118">
    <linearGradient
       id="gradient_8"
       gradientUnits="userSpaceOnUse"
       x1="775.16504"
       y1="713.8877"
       x2="686.03369"
       y2="534.33325">
      <stop
         offset="0"
         stop-color="#5F7484"
         id="stop117" />
      <stop
         offset="1"
         stop-color="#A4BFD4"
         id="stop118" />
    </linearGradient>
  </defs>
  <path
     fill="url(#gradient_8)"
     d="M729.536 471.244C730.725 483.142 730.35 503.001 730.612 515.84C731.386 546.219 731.97 576.603 732.363 606.989L733.722 682.372C734.012 695.334 735.796 729.62 732.832 740.914L732.372 742.673C732.075 734.535 732.359 725.485 732.354 717.305C732.34 694.756 733.851 690.629 710.295 690.603C709.995 677.986 708.857 664.682 708.008 652.01C706.302 626.636 704.468 601.27 702.505 575.914C701.722 564.999 700.359 550.291 700.111 539.593C701.113 540.992 700.474 540.575 701.961 541.054C705.484 538.83 702.998 526.972 704.368 524.112C704.91 525.519 705.332 526.95 705.781 528.389L706.44 528.294L706.924 526.955C710.098 524.953 712.731 522.367 715.495 519.833L716.587 520.383C719.908 517.447 724.349 518.508 727.091 514.502L727.471 513.937L728.523 514.801L729.198 514.69C729.61 500.427 728.141 485.813 729.475 471.846L729.536 471.244Z"
     id="path118" />
  <path
     fill="#758A9E"
     d="M288.61 828.077L313.325 828.18C315.016 831.815 316.377 834.935 317.835 838.667L335.025 838.7C335.152 850.03 335.214 859.959 336.433 871.241C332.742 871.157 324.069 869.838 323.317 873.985L323.489 884.147C319 883.138 314.504 882.161 310.002 881.214C309.827 878.109 309.86 874.482 309.816 871.329L284.007 871.354C283.776 863.838 283.887 856.239 283.771 848.73C283.634 839.91 284.324 835.704 288.61 828.077Z"
     id="path119" />
  <path
     fill="#758A9E"
     d="M614.645 828.426C622.952 828.285 631.26 828.306 639.566 828.49C644.735 836.831 644.194 842.424 644.246 851.937C644.282 858.39 644.369 864.808 644.162 871.272L618.618 871.387L618.866 880.067C614.89 882.07 613.028 882.362 608.733 883.172L609.355 871.332L591.808 871.214C592.626 860.229 592.962 849.613 593.325 838.606L610.314 838.671L614.645 828.426Z"
     id="path120" />
  <path
     fill="#758A9E"
     d="M705.372 750.154L705.774 750.123C712.68 749.627 731.357 748.135 736.341 752.432C739.546 758.66 738.766 779.483 738.811 787.771C738.921 806.839 738.866 825.907 738.644 844.974L738.598 874.005C738.589 878.566 738.808 887.178 737.962 891.283C735.614 891.928 733.992 892.265 731.731 891.446C727.545 888 728.907 880.65 728.754 875.657C728.625 871.47 728.415 867.357 728.248 863.182L726.801 822.152C726.535 814.198 726.545 793.652 724.153 786.986C720.135 775.784 707.433 762.749 705.372 750.154Z"
     id="path121" />
  <path
     fill="#758A9E"
     d="M197.057 749.898C203.465 749.423 217.117 749.414 223.282 750.728C219.154 763.932 208.612 775.466 203.995 787.809C201.696 793.956 201.572 813.302 201.208 820.782C200.334 838.704 200.327 857.117 199.235 875.055C198.979 879.508 199.736 885.356 198.504 889.557C197.286 893.71 193.353 892.79 190.686 890.229C189.929 888.673 189.835 887.311 189.734 885.609C188.905 871.68 188.683 760.083 190.857 754.312C191.851 751.673 194.667 750.815 197.057 749.898Z"
     id="path122" />
  <path
     fill="#758A9E"
     d="M484.71 838.737C504.421 838.574 524.133 838.543 543.845 838.644C544.025 849.992 543.641 860.083 543.053 871.343L529.255 871.518C520.376 871.461 479.941 872.343 474.908 870.69L474.6 869.868C479.085 865.114 491.26 864.816 487.697 855.211C485.469 849.204 484.629 845.202 484.71 838.737Z"
     id="path123" />
  <path
     fill="#758A9E"
     d="M384.5 838.594L443.281 838.671C443.516 841.691 443.448 845.057 443.452 848.114C434.524 861.255 441.962 864.266 453.694 868.747L454.203 869.431L454.033 870.337C449.012 872.36 393.74 871.698 385.134 871.589C384.194 862.404 384.52 848.093 384.5 838.594Z"
     id="path124" />
  <path
     fill="#758A9E"
     d="M689.379 809.711L691.091 810.719C692.627 814.018 692.074 828.736 692.036 833.417C697.348 834.612 702.031 835.408 706.324 838.998C709.869 841.976 712.07 846.253 712.433 850.87C713.611 864.515 703.928 870.953 691.316 871.402C690.876 874.226 690.74 877.018 690.542 879.869C690.084 883.397 689.47 885.911 688.628 889.378C685.438 881.128 683.334 876.063 675.97 871.225C675.284 858.891 675.994 838.793 676.045 825.773C683.744 820.708 684.022 817.119 689.379 809.711Z"
     id="path125" />
  <path
     fill="#758A9E"
     d="M236.317 810.279C239.612 811.067 240.117 811.311 241.882 814.167C245.332 819.751 247.019 822.165 252.522 825.805L252.626 871.135C244.294 876.692 244.606 879.713 240.127 888.353L238.415 880.441L237.2 871.373C220.406 870.596 210.049 858.666 219.03 841.925C222.058 836.282 230.267 834.73 236.319 833.715L236.317 810.279Z"
     id="path126" />
  <path
     fill="#BDD9EC"
     d="M177.157 568.428L177.083 429.802C176.907 414.116 176.885 398.429 177.018 382.742C177.074 376.301 177.111 370.003 177.289 363.557C177.504 355.765 187.546 344.68 194.826 349.928C197.371 355.374 189.307 356.274 185.364 359.735C183.996 367.973 184.411 379.634 184.421 388.256L184.478 429.517L183.942 566.95L183.537 570.732L183.396 570.753C183.458 564.254 185.295 544.704 177.841 542.77C176.347 547.453 179.029 561.474 177.157 568.428Z"
     id="path127" />
  <defs
     id="defs128">
    <linearGradient
       id="gradient_9"
       gradientUnits="userSpaceOnUse"
       x1="780.56622"
       y1="638.02356"
       x2="710.96393"
       y2="607.27747">
      <stop
         offset="0"
         stop-color="#66818E"
         id="stop127" />
      <stop
         offset="1"
         stop-color="#98ADCA"
         id="stop128" />
    </linearGradient>
  </defs>
  <path
     fill="url(#gradient_9)"
     d="M750.925 484.828C751.845 498.793 751.393 519.06 751.396 533.402L751.023 623.612L750.949 681.721C750.938 688.188 751.403 701.165 750.894 707.149C750.686 709.706 749.679 712.132 748.016 714.084C745.996 716.437 742.553 718.391 739.801 719.831C740.349 716.805 743.145 706.248 743.2 705.051C743.91 689.5 743.735 672.621 743.671 657.043L743.471 569.98C743.431 556.865 742.75 534.991 743.563 522.414C744.651 526.873 743.69 527.183 744.161 531.216L744.752 531.25C746.376 529.387 746.752 529.079 749.171 528.547C751.533 525.942 750.263 491.604 750.861 485.461L750.925 484.828Z"
     id="path128" />
  <defs
     id="defs130">
    <linearGradient
       id="gradient_10"
       gradientUnits="userSpaceOnUse"
       x1="703.16351"
       y1="461.97287"
       x2="782.2356"
       y2="415.83319">
      <stop
         offset="0"
         stop-color="#A8C0D5"
         id="stop129" />
      <stop
         offset="1"
         stop-color="#C4E1F3"
         id="stop130" />
    </linearGradient>
  </defs>
  <path
     fill="url(#gradient_10)"
     d="M742.284 359.199C739.132 357.217 731.368 354.232 733.337 349.37C737.533 347.048 743.577 350.46 746.544 353.48C748.701 355.632 750.149 358.392 750.694 361.391C751.652 366.777 751.339 395.57 751.338 401.859L751.027 451.913C750.99 462.768 751.263 474.049 750.925 484.828L750.861 485.461C750.263 491.604 751.533 525.942 749.171 528.547C746.752 529.079 746.376 529.387 744.752 531.25L744.161 531.216C743.69 527.183 744.651 526.873 743.563 522.414C742.912 512.232 743.448 494.86 743.443 483.919L743.512 404.479C743.525 393.49 744.018 368.974 742.284 359.199Z"
     id="path130" />
  <path
     fill="#758A9E"
     d="M452.76 783.284L453.167 783.413C454.167 784.704 452.869 799.014 453.721 801.794C456.145 809.702 452.814 847.505 457.523 851.498C460.071 851.237 462.31 848.67 464.235 846.873C466.075 848.493 467.484 849.993 469.737 850.903C472.045 850.687 471.173 850.959 473.114 849.469C473.779 841.766 473.964 784.957 475.245 783.696C475.375 783.789 475.519 783.865 475.634 783.975C480.284 788.402 478.486 834.34 478.469 842.203L478.528 851.957C487.556 860.905 473.467 862.094 467.358 863.142C467.545 874.098 467.951 885.651 467.562 896.605C467.467 899.275 466.409 901.306 464.332 902.992L463.342 902.855C459.226 898.28 460.628 870.326 460.679 863.004C457.848 862.643 454.899 862.206 452.138 861.533C443.812 859.504 446.982 854.95 449.99 850.313C449.92 834.834 449.22 819.321 449.269 803.843C449.289 797.237 448.331 788.435 452.76 783.284Z"
     id="path131" />
  <path
     fill="#758A9E"
     d="M177.157 568.428C179.029 561.474 176.347 547.453 177.841 542.77C185.295 544.704 183.458 564.254 183.396 570.753L183.537 570.732L183.942 566.95C184.731 571.465 184.374 597.909 184.391 604.13L184.536 698.021C184.557 700.095 184.579 705.367 185.077 707.015C186.936 713.162 187.808 712.307 187.91 719.069C181.753 716.235 177.737 712.839 177.457 705.552C177.078 695.704 177.213 685.844 177.207 675.987L177.128 621.875L176.997 586.829C176.969 582.17 176.636 572.453 177.157 568.428Z"
     id="path132" />
  <path
     fill="#758A9E"
     d="M374.759 794.817C391.858 793.946 382.962 806.584 380.78 814.353C378.344 823.019 378.314 837.337 378.417 846.482C378.55 858.23 377.587 872.728 381.852 883.698C383.7 888.406 384.366 890.919 381.186 895.214C372.493 896.189 371.086 893.283 371.93 885.246C373.148 873.635 371.327 861.84 371.209 850.141C371.078 837.057 371.967 824.34 372.947 811.314C372.5 810.682 372.06 810.044 371.626 809.402C367.116 802.708 368.276 799.014 374.759 794.817Z"
     id="path133" />
  <path
     fill="#758A9E"
     d="M550.439 794.9C567.295 795.664 555.243 808.821 555.708 815.035C557.343 836.202 557.905 856.478 555.474 877.647C554.701 884.381 562.138 893.298 550.124 895.859C541.439 893.412 546.265 885.665 547.475 879.864C551.974 858.279 550.219 832.656 547.528 810.945C542.052 804.157 540.072 797.945 550.439 794.9Z"
     id="path134" />
  <path
     fill="#758A9E"
     d="M345.468 794.705C357.568 796.351 359.125 802.622 351 811.46C348.35 828.986 348.656 854.203 350.17 872.174C350.55 876.69 352.727 883.601 353.641 888.665L352.417 889.533C349.567 889.629 345.218 888.486 342.289 887.845C344.338 861.839 337.085 836.8 345.181 811.35C345.954 808.921 345.507 797.86 345.468 794.705Z"
     id="path135" />
  <path
     fill="#758A9E"
     d="M577.812 794.717C579.525 794.677 579.828 794.72 581.536 794.98C584.434 797.917 581.797 806.096 582.72 809.138C587.569 825.126 587.074 838.645 586.464 855.361C586.096 865.454 584.072 877.079 586.716 887.126C583.866 888.126 580.576 888.93 577.628 889.719L575.972 889.227C573.814 885.66 577.293 880.286 577.675 876.361C579.53 857.262 581.048 829.663 576.978 810.961C570.635 804.707 570.429 799.762 577.812 794.717Z"
     id="path136" />
  <path
     fill="#758A9E"
     d="M656.415 826.912L669.675 826.718C669.791 832.221 670.24 868.827 668.957 870.878C665.007 871.832 660.532 872.596 656.507 873.37L656.415 826.912Z"
     id="path137" />
  <path
     fill="#758A9E"
     d="M258.708 826.733C262.913 826.602 267.426 826.808 271.655 826.922L271.682 872.932C267.199 872.116 263.272 871.61 258.773 871.069L258.708 826.733Z"
     id="path138" />
  <path
     fill="#758A9E"
     d="M681.019 706.792C684.113 706.615 687.4 706.56 690.514 706.456C691.115 713.14 691.498 731.979 690.146 739.034C689.97 739.951 688.786 740.177 687.984 740.463C685.916 740.43 677.975 740.95 677.863 738.275C677.463 728.741 676.554 717.888 678.34 708.555C678.558 707.416 680.108 707.118 681.019 706.792Z"
     id="path139" />
  <path
     fill="#758A9E"
     d="M563.807 838.769L573.108 838.757C573.314 847.95 573.403 862.453 571.979 871.345C568.788 871.607 565.637 871.488 562.435 871.435C563.685 861.106 563.647 849.258 563.807 838.769Z"
     id="path140" />
  <path
     fill="#758A9E"
     d="M355.459 838.769L364.363 838.733C364.397 849.507 364.996 860.517 365.546 871.29C362.462 871.418 359.203 871.435 356.101 871.502C355.377 860.439 355.46 849.839 355.459 838.769Z"
     id="path141" />
  <path
     fill="#758A9E"
     d="M325.865 951.267C330.265 951.48 334.667 951.65 339.07 951.778C339.088 958.281 339.486 966.717 337.551 972.808C324.896 976.821 326.006 958.978 325.865 951.267Z"
     id="path142" />
  <path
     fill="#758A9E"
     d="M463.57 777.081C472.333 782.358 469.027 804.251 465.044 812.082C456.092 809.029 459.12 783.683 463.57 777.081Z"
     id="path143" />
  <path
     fill="#758A9E"
     d="M600.3 951.46C600.815 951.412 601.244 951.567 601.79 951.68C604.534 957.962 601.29 972.809 592.49 973.846C587.58 969.05 589.27 958.489 589.407 951.796L600.3 951.46Z"
     id="path144" />
  <path
     fill="#758A9E"
     d="M609.819 950.897L619.332 950.656C619.478 955.319 620.619 960.683 617.204 964.006C614.274 964.121 611.115 964.097 608.163 964.129C608.242 961.296 607.775 952.325 609.819 950.897Z"
     id="path145" />
  <path
     fill="#758A9E"
     d="M308.859 950.777C312.163 950.739 316.471 951.089 319.842 951.266L320.033 964.304C307.499 964.1 308.414 962.272 308.859 950.777Z"
     id="path146" />
  <path
     fill="#758A9E"
     d="M463.303 837.967C465.581 838.563 466.324 838.966 467.457 840.916C466.995 842.984 467.263 842.266 465.353 843.913C462.642 843.196 461.358 842.919 460.654 840.121C461.59 838.408 461.207 838.968 463.303 837.967Z"
     id="path147" />
  <path
     fill="#758A9E"
     d="M463.957 817.276C466.096 817.957 466.761 818.146 467.821 819.791C467.196 821.452 467.31 820.98 465.657 822.243C463.396 821.969 462.193 822.091 460.911 820.474C461.342 818.88 462.561 818.305 463.957 817.276Z"
     id="path148" />
  <path
     fill="#758A9E"
     d="M361.828 807C363.29 808.726 364.305 810.711 364.295 812.994L363.087 814.126C361.998 813.824 361.296 813.55 360.248 813.152L359.728 811.963C360.389 810.135 361.014 808.769 361.828 807Z"
     id="path149" />
  <path
     fill="#758A9E"
     d="M565.893 806.471C567.072 808.851 568.746 811.47 567.711 813.963C565.52 813.551 565.963 813.944 564.452 812.672C563.874 810.674 565.073 808.572 565.893 806.471Z"
     id="path150" />
</svg>
