<?xml version="1.0" encoding="UTF-8" standalone="no"?>
<svg
   width="187"
   height="195"
   viewBox="0 0 187 195"
   version="1.1"
   id="svg98"
   sodipodi:docname="sander.svg"
   inkscape:version="1.4.4 (dcaf3e7d9e, 2026-05-05)"
   xmlns:inkscape="http://www.inkscape.org/namespaces/inkscape"
   xmlns:sodipodi="http://sodipodi.sourceforge.net/DTD/sodipodi-0.dtd"
   xmlns="http://www.w3.org/2000/svg"
   xmlns:svg="http://www.w3.org/2000/svg">
  <defs
     id="defs98">
    <linearGradient
       id="gradient_1"
       gradientUnits="userSpaceOnUse"
       x1="963.74487"
       y1="1051.7085"
       x2="872.21051"
       y2="934.47986"
       gradientTransform="matrix(1.5,0,0,1.5,-1282.936,-1392.0953)">
      <stop
         offset="0"
         stop-color="#28456C"
         id="stop16" />
      <stop
         offset="1"
         stop-color="#41699E"
         id="stop17" />
    </linearGradient>
  </defs>
  <sodipodi:namedview
     id="namedview98"
     pagecolor="#ffffff"
     bordercolor="#000000"
     borderopacity="0.25"
     inkscape:showpageshadow="2"
     inkscape:pageopacity="0.0"
     inkscape:pagecheckerboard="0"
     inkscape:deskcolor="#d1d1d1"
     inkscape:zoom="1.1077586"
     inkscape:cx="31.595331"
     inkscape:cy="266.3035"
     inkscape:window-width="1259"
     inkscape:window-height="1387"
     inkscape:window-x="12"
     inkscape:window-y="39"
     inkscape:window-maximized="1"
     inkscape:current-layer="svg98" />
  <path
     fill="#33445e"
     d="m 106.22025,54.343695 c 14.6325,-2.79 29.637,2.505 39.279,13.86 9.642,11.355 12.4305,27.015 7.2975,41.009995 -5.1315,13.98 -17.3895,24.135 -32.088,26.55 -22.324505,3.675 -43.459505,-11.28 -47.424005,-33.555 -3.9645,-22.274995 10.713,-43.604995 32.935505,-47.864995 z"
     id="path301"
     style="stroke-width:1.5" />
  <path
     fill="#335584"
     d="m 116.26125,106.36369 c 2.1675,0.6 3.2655,1.74 4.7025,3.39 3.021,3.465 6.924,8.475 6.615,13.2 -3.7635,1.11 -5.6715,2.19 -9.5085,0.99 -2.9205,-4.455 -1.86,-12.285 -1.809,-17.58 z"
     id="path302"
     style="stroke-width:1.5" />
  <path
     fill="#335584"
     d="m 115.95225,63.733695 c 3.066,0.66 5.5755,1.44 8.3475,2.925 0.897,4.065 -1.374,6.915 -3.0885,10.635 -1.6485,1.785 -1.6905,2.055 -4.059,2.46 -2.058,-4.35 -1.2165,-11.19 -1.2,-16.02 z"
     id="path303"
     style="stroke-width:1.5" />
  <path
     fill="#335584"
     d="m 141.87525,88.693695 c 1.401,0.27 1.7625,0.63 2.8545,1.485 l -0.2505,4.515 0.822,-0.915 -0.618,1.47 c -4.3995,2.865 -5.934,2.52 -11.0625,2.595 l -4.1265,-2.085 0.21,-1.95 c 3.939,-2.025 8.0385,-3.555 12.171,-5.115 z"
     id="path304"
     style="stroke-width:1.5" />
  <path
     fill="#335584"
     d="m 101.87775,64.888695 c 2.202,0.225 3.7155,0.675 5.7645,1.515 0.795,1.695 1.7625,3.675 1.992,5.565 0.39,3.21 -0.03,6.75 -1.8405,9.36 -2.706,-3.09 -6.7785,-6.81 -7.863005,-10.83 -0.6495,-2.4 0.733505,-3.555 1.947005,-5.61 z"
     id="path305"
     style="stroke-width:1.5" />
  <path
     fill="#335584"
     d="m 133.85775,71.773695 c 2.5335,1.995 4.9215,3.435 5.703,6.75 -2.664,3.585 -6.3645,4.305 -10.425,5.97 -1.563,0.735 -1.9035,0.615 -3.6435,0.39 1.0275,-4.56 5.5455,-9.33 8.3655,-13.11 z"
     id="path306"
     style="stroke-width:1.5" />
  <path
     fill="#335584"
     d="m 108.84375,108.08869 c 0.27,0.255 0.5835,0.465 0.81,0.765 1.686,2.175 1.7025,6.015 1.1955,8.58 -0.855,4.305 -3.5295,5.88 -6.9525,8.085 -0.951,-1.155 -1.704,-2.505 -2.508,-3.765 0.828,-4.98 4.641,-9.525 7.455,-13.665 z"
     id="path307"
     style="stroke-width:1.5" />
  <path
     fill="#335584"
     d="m 83.277745,90.208695 c 4.623,1.545 8.445,2.97 12.375,5.91 l -0.6855,1.935 c -3.507,1.23 -6.33,2.369995 -10.119,1.725 -2.196,-3.315 -1.5795,-5.7 -1.5705,-9.57 z"
     id="path308"
     style="stroke-width:1.5" />
  <path
     fill="#335584"
     d="m 96.882745,106.03369 2.1915,0.45 c -0.1515,3.705 -3.7455,6.945 -5.994,9.885 -2.46,-2.025 -4.395,-3.42 -5.5155,-6.48 2.5725,-2.655 5.7975,-2.895 9.318,-3.855 z"
     id="path309"
     style="stroke-width:1.5" />
  <path
     fill="#badbf8"
     d="m 30.435745,85.738695 h 18.3225 l -0.0855,18.809995 c 5.643,4.065 11.109,8.22 14.4435,14.445 -8.739,-1.575 -19.668,-5.955 -25.845,-12.495 -6.5895,-6.989995 -7.0785,-11.414995 -6.8355,-20.759995 z"
     id="path310"
     style="stroke-width:1.5" />
  <path
     fill="#badbf8"
     d="m 63.956245,118.97869 6.21,2.76 c 2.208,3.135 1.854,3.255 1.1955,7.095 l -1.647,0.06 c -3.4815,-2.85 -4.0815,-5.79 -5.7585,-9.915 z"
     id="path311"
     style="stroke-width:1.5" />
</svg>
