<?xml version="1.0" encoding="UTF-8" standalone="no"?>
<svg
   width="928"
   height="1152"
   viewBox="0 0 928 1152"
   version="1.1"
   id="svg126"
   sodipodi:docname="shunting_mode.svg"
   inkscape:version="1.4.4 (dcaf3e7d9e, 2026-05-05)"
   xmlns:inkscape="http://www.inkscape.org/namespaces/inkscape"
   xmlns:sodipodi="http://sodipodi.sourceforge.net/DTD/sodipodi-0.dtd"
   xmlns="http://www.w3.org/2000/svg"
   xmlns:svg="http://www.w3.org/2000/svg">
  <sodipodi:namedview
     id="namedview126"
     pagecolor="#ffffff"
     bordercolor="#000000"
     borderopacity="0.25"
     inkscape:showpageshadow="2"
     inkscape:pageopacity="0.0"
     inkscape:pagecheckerboard="0"
     inkscape:deskcolor="#d1d1d1"
     inkscape:zoom="0.78330363"
     inkscape:cx="517.04088"
     inkscape:cy="506.82773"
     inkscape:window-width="2560"
     inkscape:window-height="1387"
     inkscape:window-x="0"
     inkscape:window-y="53"
     inkscape:window-maximized="1"
     inkscape:current-layer="svg126" />
  <path
     fill="#A3BED4"
     d="M201.383 296.062C332.281 280.652 464.276 276.723 595.859 284.321C621.663 285.711 647.431 287.682 673.146 290.233C689.359 291.71 710.328 293.452 726.185 296.068L726.71 308.611C728.046 315.461 727.859 325.827 727.913 333.128C740.24 336.958 734.073 342.91 742.319 349.603C739.895 349.215 737.716 348.623 735.388 349.209C733.978 350.239 733.868 350.177 733.128 351.822C734.212 357.218 743.01 356.348 743.189 361.756C744.322 395.891 742.871 431.188 743.432 465.309C741.766 458.232 742.283 449.568 742.298 442.183C742.356 433.101 742.331 424.019 742.221 414.938C735.269 425.138 730.535 432.91 729.94 445.605C729.947 475.285 730.373 504.963 731.217 534.63L733.436 653.234C733.821 670.59 734.029 687.949 734.061 705.309C734.114 716.144 735.366 732.023 732.562 741.85L732.487 740.946C731.51 728.376 735.606 701.683 727.489 692.845C724.78 689.895 714.834 690.211 710.406 690.167C707.787 648.125 704.891 606.1 701.719 564.096L699.19 527.345C698.508 517.419 699.921 492.314 686.048 493.175C684.443 493.275 683.761 493.51 682.627 494.677C682.255 499.636 686.895 500.555 690.399 502.612C693.817 533.405 695.252 568.228 697.516 599.578L701.548 655.336C702.325 666.213 703.464 679.458 703.654 690.271C686.478 690.219 667.682 689.827 650.677 690.719C657.897 685.761 663.755 681.794 669.51 675.024C684.62 657.25 684.492 630.474 671.539 611.608C663.505 599.896 651.116 591.889 637.139 589.373C623.291 586.852 609.009 589.983 597.484 598.065C585.578 606.343 577.517 619.077 575.126 633.381C570.705 658.911 583.984 676.406 603.689 690.327L475.751 690.332C465.62 691.001 451.558 690.576 441.147 690.553C423.141 690.531 405.134 690.623 387.129 690.827C378.566 690.908 369.97 691.048 361.407 691.237C358.98 691.291 357.741 691.838 356.13 693.573L356.014 694.732C357.842 696.51 364.273 694.567 368.093 696.341C363.292 696.79 354.468 696.565 349.369 696.543L316.421 696.412C287.95 696.408 257.126 697.141 228.85 696.344C233.654 695.56 239.272 694.948 244.117 694.855C247.679 694.787 251.501 695.912 255.022 695.071C254.302 693.503 252.234 692.59 250.545 691.495C244.598 690.519 230.359 692.728 224.715 690.98C222.189 688.214 226.43 651.719 226.586 645.761C226.811 644.596 225.103 635.98 225.297 635.684C230.355 627.976 227.44 595.365 231.164 589.424C232.131 578.768 235.892 508.69 237.563 504.977C239.398 500.9 243.725 499.974 246.028 496.553C245.934 494.922 245.762 494.907 244.823 493.606C241.069 491.474 237.327 493.884 234.368 496.462C232.617 497.988 231.711 499.568 231.349 501.871C229.899 511.096 229.433 520.489 228.825 529.804L226.032 571.229C223.323 610.143 219.466 651.467 218.182 690.254C190.802 690.282 197.128 699.149 195.753 721.944C195.573 724.931 196.269 737.876 195.529 739.755L194.809 739.232C191 731.856 199.008 500.553 197.86 467.553C195.674 454.975 201.075 450.158 192.185 438.549C191.563 427.958 190.862 422.404 186.093 413.03C185.425 430.565 186.658 444.227 184.575 462.45L184.354 388.295C184.346 380.806 184.04 370.121 184.693 362.629C185.074 358.246 194.088 355.167 195.4 351.054C193.974 348.694 189.568 349.131 187.145 349.208C194.544 345.989 188.192 336.277 200.25 326.508C200.22 319.897 199.813 309.498 201.364 303.471L201.383 296.062Z"
     id="path4" />
  <path
     fill="#8A7A4D"
     d="M277.344 690.357C273.529 687.387 268.705 684.819 265.226 681.75C244.279 663.268 241 631.888 258.279 609.749C267.155 598.214 280.283 590.717 294.727 588.935C324.625 585.47 351.088 608.19 353.73 637.827C355.827 661.341 342.806 677.728 324.423 690.126C360.436 690.889 396.832 690.197 432.917 690.217L460.011 690.19C463.916 690.177 472.127 689.956 475.751 690.332C465.62 691.001 451.558 690.576 441.147 690.553C423.141 690.531 405.134 690.623 387.129 690.827C378.566 690.908 369.97 691.048 361.407 691.237C358.98 691.291 357.741 691.838 356.13 693.573L356.014 694.732C357.842 696.51 364.273 694.567 368.093 696.341C363.292 696.79 354.468 696.565 349.369 696.543L316.421 696.412C287.95 696.408 257.126 697.141 228.85 696.344C233.654 695.56 239.272 694.948 244.117 694.855C247.679 694.787 251.501 695.912 255.022 695.071C254.302 693.503 252.234 692.59 250.545 691.495C252.202 691.469 258.711 690.992 259.618 691.12L258.541 691.188C258.232 690.876 237.969 690.56 235.367 690.326C249.335 690.156 263.461 690.692 277.344 690.357Z"
     id="path5" />
  <path
     fill="#DCD9C2"
     d="M294.835 595.494C320.55 592.287 343.984 610.567 347.135 636.292C350.286 662.018 331.957 685.415 306.228 688.51C280.578 691.596 257.272 673.333 254.131 647.687C250.99 622.04 269.2 598.691 294.835 595.494Z"
     id="path6" />
  <path
     fill="#AF9E75"
     d="M295.524 603.865C316.592 601.081 335.931 615.894 338.735 636.961C341.54 658.029 326.749 677.386 305.688 680.212C284.596 683.042 265.207 668.224 262.399 647.126C259.59 626.028 274.426 606.653 295.524 603.865Z"
     id="path7" />
  <path
     fill="#FDE7A9"
     d="M300.069 609.885C317.935 609.527 332.695 623.749 333.002 641.619C333.31 659.488 319.048 674.21 301.18 674.467C283.383 674.722 268.735 660.528 268.429 642.73C268.123 624.932 282.274 610.242 300.069 609.885Z"
     id="path8" />
  <path
     fill="#AF9E75"
     d="M315.432 655.819C316.792 663.802 311.549 671.417 303.607 672.994C295.664 674.571 287.911 669.536 286.118 661.639C284.325 653.742 289.146 645.852 296.99 643.845C304.835 641.837 312.851 646.441 315.072 654.229C315.221 654.752 315.341 655.283 315.432 655.819Z"
     id="path9" />
  <path
     fill="#FDE7A9"
     d="M299.32 649.293C304.155 648.498 308.735 651.728 309.61 656.551C310.484 661.373 307.33 666.006 302.524 666.961C299.343 667.592 296.069 666.459 293.959 663.996C291.849 661.533 291.23 658.124 292.341 655.077C293.452 652.03 296.12 649.819 299.32 649.293Z"
     id="path10" />
  <path
     fill="#DCD9C2"
     d="M293.518 616.542C304.274 615.769 301.037 620.452 307.01 625.401C309.262 625.883 310.714 626.023 311.686 628.147C310.157 629.268 309.123 627.036 307.025 628.36C308.451 630.617 313.967 631.759 315.272 635.101C316.006 636.977 315.638 639.911 313.725 640.743C312.549 639.168 312.582 637.259 312.175 635.156C310.624 632.714 308.681 633.033 306.652 631.425C294.425 621.731 296.621 634.908 292.741 636.89C292.301 635.874 292.149 634.981 291.908 633.908L290.128 634.026C292.631 631.528 296.504 626.327 300.204 626.118C302.351 625.996 301.296 627.426 303.87 626.841C304.995 624.947 304.827 625.748 304.909 623.622L304.024 623.378L304.249 625.038L303.564 625.082C302.743 623.899 303.13 624.231 301.981 623.438C297.695 625.112 292.371 626.964 288.535 629.344C286.165 632.845 284.203 640.564 278.836 638.894C276.248 636.338 276.724 632.336 278.057 629.258C281.063 622.319 286.872 619.097 293.518 616.542Z"
     id="path11" />
  <path
     fill="#DCD9C2"
     d="M315.072 654.229L315.387 653.599C318.609 647.048 314.869 639.04 321.283 636.503C331.714 637.033 324.111 661.176 316.052 661.417C315.329 659.065 316.168 657.702 315.432 655.819C315.341 655.283 315.221 654.752 315.072 654.229Z"
     id="path12" />
  <path
     fill="#746D65"
     d="M200.25 326.508C200.22 319.897 199.813 309.498 201.364 303.471C202.477 313.43 200.981 337.555 200.85 348.385C200.567 376.375 199.969 404.361 199.055 432.338C198.675 444.128 198.664 455.769 197.86 467.553C195.674 454.975 201.075 450.158 192.185 438.549C191.563 427.958 190.862 422.404 186.093 413.03C185.425 430.565 186.658 444.227 184.575 462.45L184.354 388.295C184.346 380.806 184.04 370.121 184.693 362.629C185.074 358.246 194.088 355.167 195.4 351.054C193.974 348.694 189.568 349.131 187.145 349.208C194.544 345.989 188.192 336.277 200.25 326.508Z"
     id="path13" />
  <path
     fill="#746D65"
     d="M726.71 308.611C728.046 315.461 727.859 325.827 727.913 333.128C740.24 336.958 734.073 342.91 742.319 349.603C739.895 349.215 737.716 348.623 735.388 349.209C733.978 350.239 733.868 350.177 733.128 351.822C734.212 357.218 743.01 356.348 743.189 361.756C744.322 395.891 742.871 431.188 743.432 465.309C741.766 458.232 742.283 449.568 742.298 442.183C742.356 433.101 742.331 424.019 742.221 414.938C735.269 425.138 730.535 432.91 729.94 445.605C727.889 430.071 727.917 402.127 727.737 386.008L726.71 308.611Z"
     id="path14" />
  <path
     fill="#746D65"
     d="M231.164 589.424C231.055 616.895 226.167 646.595 225.584 674.28C225.486 678.943 225.046 685.593 224.365 690.196L235.367 690.326C237.969 690.56 258.232 690.876 258.541 691.188L259.618 691.12C258.711 690.992 252.202 691.469 250.545 691.495C244.598 690.519 230.359 692.728 224.715 690.98C222.189 688.214 226.43 651.719 226.586 645.761C226.811 644.596 225.103 635.98 225.297 635.684C230.355 627.976 227.44 595.365 231.164 589.424Z"
     id="path15" />
  <path
     fill="#A3BED4"
     d="M306.331 300.859C304.985 298.444 303.409 296.198 304.044 293.406C307.594 291.334 312.838 297.931 314.94 300.398C343.245 297.509 382.64 296.592 411.17 295.993C478.653 294.294 546.178 295.742 613.525 300.333L615.359 297.953C617.931 299.635 618.327 299.826 621.236 300.824L621.618 300.752C628.432 302.151 638.641 302.119 645.85 302.566C658.591 303.412 671.323 304.37 684.047 305.44C696.599 306.458 713.21 304.968 713.597 321.138C714.649 365.203 716.787 410.141 716.592 454.161C716.397 471.715 697.016 467.451 685.312 467.006C673.426 466.554 661.52 465.833 649.624 465.337C534.025 459.559 418.218 459.214 302.587 464.305C279.411 465.301 256.252 466.183 233.117 467.909C230.971 468.069 228.241 468.031 226.108 467.865C223.442 467.635 220.857 466.837 218.526 465.524C215.831 463.999 213.416 461.938 212.882 458.889C210.648 446.121 212.137 428.042 212.436 414.945L214.054 347.744C215.216 309.486 208.278 308.432 249.948 305.104C262.672 304.054 275.405 303.115 288.146 302.287C292.978 301.992 301.856 301.94 306.331 300.859Z"
     id="path16" />
  <path
     fill="#8A7A4D"
     d="M306.331 300.859C304.985 298.444 303.409 296.198 304.044 293.406C307.594 291.334 312.838 297.931 314.94 300.398C316.432 302.452 317.96 304.667 319.598 306.589C321.081 308.482 323.056 311.149 324.597 312.886C345.588 312.31 368.603 309.189 389.579 310.457C397.428 310.932 400.376 317.421 400.546 324.84C400.567 325.818 400.577 326.796 400.576 327.774C401.935 345.43 400.702 368.246 401.052 386.459C401.196 393.958 401.366 417.779 400.624 423.69C400.338 440.04 398.149 443.717 380.508 444.637C375.199 444.914 369.688 444.795 364.37 444.96L322.279 446.426C304.912 447.085 287.55 447.85 270.193 448.723C259.841 449.226 249.542 449.851 239.15 449.891C231.332 449.922 226.254 445.893 225.519 437.88C224.785 429.879 225.393 421.263 225.627 413.183L226.842 371.795C227.241 357.921 227.252 343.917 228.119 330.085C228.69 320.971 236.86 319.254 244.238 318.311C252.955 317.197 261.787 316.913 270.552 316.346L316.703 313.295L311.362 307.224C309.511 304.538 308.517 303.282 306.331 300.859Z"
     id="path17" />
  <path
     fill="#304152"
     d="M306.331 300.859C304.985 298.444 303.409 296.198 304.044 293.406C307.594 291.334 312.838 297.931 314.94 300.398C316.432 302.452 317.96 304.667 319.598 306.589C321.081 308.482 323.056 311.149 324.597 312.886C345.588 312.31 368.603 309.189 389.579 310.457C397.428 310.932 400.376 317.421 400.546 324.84C400.567 325.818 400.577 326.796 400.576 327.774C400.393 330.343 400.177 334.996 397.885 336.379C394.976 334.145 395 325.986 394.855 322.554C394.605 320.606 394.07 318.844 392.392 317.642C387.444 314.094 338.619 318.267 329.822 319.103C331.923 322.101 346.282 341.311 348.318 343.185C353.897 345.395 358.123 357.227 366.875 360.085C366.949 353.613 366.373 340.586 369.657 335.389L370.661 335.044C375.501 338.291 373.049 355.768 373.358 361.504C372.291 371.34 372.799 386.476 372.902 396.694C372.713 400.927 373.26 411.89 368.48 413.123C364.201 409.499 366.547 382.974 366.7 376.607L336.628 337.925C332.358 332.523 326.013 324.203 321.318 319.388L268.968 322.965C259.471 323.548 249.446 323.793 240.021 325.238C238.346 325.495 236.507 327.011 235.176 328.079C234.791 332.864 234.647 337.827 234.292 342.674C233.624 346.876 233.052 371.945 233.565 376.241L233.414 377.652C232.754 384.908 232.867 393.482 232.801 400.872C232.526 403.62 232.23 406.135 232.241 408.903C235.392 410.397 238.271 411.713 239.365 415.279C241.642 422.702 240.565 435.718 240.225 443.463C241.987 443.375 243.865 443.24 245.617 443.235C255.312 442.038 270.958 441.784 281.136 441.377L288.297 441.285C290.41 441.299 292.086 441.164 294.175 441.004C307.06 439.814 327.848 439.86 341.167 439.416L349.906 439.227L356.654 439.019C366.295 438.608 375.94 438.318 385.588 438.149C394.897 438.602 394.982 428.913 394.953 422.473C396.325 420.548 396.095 420.201 397.918 419.421C399.63 420.659 399.65 421.582 400.624 423.69C400.338 440.04 398.149 443.717 380.508 444.637C375.199 444.914 369.688 444.795 364.37 444.96L322.279 446.426C304.912 447.085 287.55 447.85 270.193 448.723C259.841 449.226 249.542 449.851 239.15 449.891C231.332 449.922 226.254 445.893 225.519 437.88C224.785 429.879 225.393 421.263 225.627 413.183L226.842 371.795C227.241 357.921 227.252 343.917 228.119 330.085C228.69 320.971 236.86 319.254 244.238 318.311C252.955 317.197 261.787 316.913 270.552 316.346L316.703 313.295L311.362 307.224C309.511 304.538 308.517 303.282 306.331 300.859Z"
     id="path18" />
  <path
     fill="#71572E"
     d="M232.241 408.903C235.392 410.397 238.271 411.713 239.365 415.279C241.642 422.702 240.565 435.718 240.225 443.463C226.57 443.255 232.118 419.624 232.241 408.903Z"
     id="path19" />
  <path
     fill="#7C7253"
     d="M348.318 343.185C353.897 345.395 358.123 357.227 366.875 360.085L366.697 366.9C361.04 358.974 354.296 351.121 348.318 343.185Z"
     id="path20" />
  <path
     fill="#4B3812"
     d="M281.136 441.377C282.422 436.833 285.199 430.032 289.805 427.756C302.437 421.515 329.524 422.903 343.212 425.431C350.41 426.76 353.387 433.477 356.654 439.019L349.906 439.227L341.167 439.416C327.848 439.86 307.06 439.814 294.175 441.004C292.086 441.164 290.41 441.299 288.297 441.285L281.136 441.377Z"
     id="path21" />
  <path
     fill="#4B3812"
     d="M294.175 441.004C294.752 439.914 297.125 435.291 298.243 434.977C308.677 432.046 325.936 432.599 336.706 434.082C338.743 434.362 340.252 437.797 341.167 439.416C327.848 439.86 307.06 439.814 294.175 441.004Z"
     id="path22" />
  <path
     fill="#8A7A4D"
     d="M288.297 441.285C289.138 438.179 290.335 433.66 293.886 432.355C306.591 427.685 327.463 428.046 340.434 430.973C345.984 432.225 347.738 435.374 349.906 439.227L341.167 439.416C340.252 437.797 338.743 434.362 336.706 434.082C325.936 432.599 308.677 432.046 298.243 434.977C297.125 435.291 294.752 439.914 294.175 441.004C292.086 441.164 290.41 441.299 288.297 441.285Z"
     id="path23" />
  <path
     fill="#746D65"
     d="M394.52 366.621C394.85 358.717 392.864 326.943 394.855 322.554C395 325.986 394.976 334.145 397.885 336.379C400.177 334.996 400.393 330.343 400.576 327.774C401.935 345.43 400.702 368.246 401.052 386.459C401.196 393.958 401.366 417.779 400.624 423.69C399.65 421.582 399.63 420.659 397.918 419.421C396.095 420.201 396.325 420.548 394.953 422.473C394.701 421.003 394.673 415.93 394.502 413.854C393.788 407.826 394.2 392.342 394.223 385.368C394.406 380.585 394.997 370.969 394.52 366.621Z"
     id="path24" />
  <path
     fill="#71572E"
     d="M236.111 342.731C237.823 342.242 238.023 341.963 239.154 340.588C241.363 340.128 240.302 340.055 242.449 340.867C247.989 346.39 248.49 378.026 240.991 380.194L240.697 379.703C241.781 377.757 242.289 377.723 241.885 376.168C239.278 376.634 235.77 377.588 233.414 377.652L233.565 376.241C233.052 371.945 233.624 346.876 234.292 342.674L236.111 342.731Z"
     id="path25" />
  <path
     fill="#4B3812"
     d="M234.292 342.674L236.111 342.731L237.833 343.502C239.122 347.762 237.248 374.827 233.565 376.241C233.052 371.945 233.624 346.876 234.292 342.674Z"
     id="path26" />
  <path
     fill="#4B3812"
     d="M240.954 401.224C243.083 401.381 242.286 401.177 244.141 402.439C245.878 405.46 245.055 407.764 245.753 411.232C246.599 423.201 246.673 431.271 245.617 443.235C243.865 443.24 241.987 443.375 240.225 443.463C240.565 435.718 241.642 422.702 239.365 415.279C238.271 411.713 235.392 410.397 232.241 408.903C232.23 406.135 232.526 403.62 232.801 400.872C234.812 402.19 236.366 403.593 238.656 403.561C240.139 402.857 240.108 402.619 240.954 401.224Z"
     id="path27" />
  <path
     fill="#71572E"
     d="M385.588 438.149C386.128 430.807 383.642 420.96 387.347 415.93C388.865 413.87 392.055 413.982 394.502 413.854C394.673 415.93 394.701 421.003 394.953 422.473C394.982 428.913 394.897 438.602 385.588 438.149Z"
     id="path28" />
  <path
     fill="#71572E"
     d="M240.954 401.224C238.144 398.11 241.149 392.245 238.401 388.738C237.734 387.886 236.016 384.746 236.212 383.62C239.497 381.073 244.554 381.975 245.53 386.188C247.196 393.376 246.222 403.822 245.753 411.232C245.055 407.764 245.878 405.46 244.141 402.439C242.286 401.177 243.083 401.381 240.954 401.224Z"
     id="path29" />
  <path
     fill="#71572E"
     d="M394.52 366.621C394.997 370.969 394.406 380.585 394.223 385.368C385.696 378.724 386.121 372.79 394.52 366.621Z"
     id="path30" />
  <path
     fill="#7C7253"
     d="M372.902 396.694C372.799 386.476 372.291 371.34 373.358 361.504C373.778 375.068 376.569 382.411 372.902 396.694Z"
     id="path31" />
  <path
     fill="#8A7A4D"
     d="M615.359 297.953C617.931 299.635 618.327 299.826 621.236 300.824C619.961 302.796 618.429 305.311 617.105 307.191C615.398 309.142 613.532 311.192 611.882 313.167L659.943 316.474C669.189 317.1 678.48 317.508 687.67 318.751C696.685 319.972 699.827 323.657 700.559 332.672C701.662 346.251 701.269 359.932 701.621 373.551C702.025 388.386 702.335 403.224 702.552 418.064C702.625 422.397 702.621 427.217 702.754 431.202C702.919 436.15 702.958 445.502 697.653 447.915C689.608 451.575 671.515 449.281 662.828 448.861C647.248 447.99 631.659 447.297 616.063 446.784L562.477 444.952C558.153 444.814 553.744 444.816 549.431 444.544C540.501 443.979 534.32 445.785 529.366 436.817C529.184 436.487 529.005 436.156 528.829 435.824C530.86 435.1 532.835 434.667 534.926 434.155C533.133 423.573 533.677 408.554 533.67 397.489C533.604 380.132 533.651 362.775 533.809 345.419C533.766 341.2 534.135 340.917 531.701 338.304L529.854 337.893C528.741 336.232 528.169 332.393 527.568 330.046C526.702 304.159 545.549 309.646 564.12 310.744C577.358 311.531 590.604 312.194 603.855 312.73C605.524 310.9 607.359 308.603 608.974 306.674C611.111 304.144 611.838 303.172 613.525 300.333L615.359 297.953Z"
     id="path32" />
  <path
     fill="#304152"
     d="M615.359 297.953C617.931 299.635 618.327 299.826 621.236 300.824C619.961 302.796 618.429 305.311 617.105 307.191C615.398 309.142 613.532 311.192 611.882 313.167L659.943 316.474C669.189 317.1 678.48 317.508 687.67 318.751C696.685 319.972 699.827 323.657 700.559 332.672C701.662 346.251 701.269 359.932 701.621 373.551C702.025 388.386 702.335 403.224 702.552 418.064C702.625 422.397 702.621 427.217 702.754 431.202C702.919 436.15 702.958 445.502 697.653 447.915C689.608 451.575 671.515 449.281 662.828 448.861C647.248 447.99 631.659 447.297 616.063 446.784L562.477 444.952C558.153 444.814 553.744 444.816 549.431 444.544C540.501 443.979 534.32 445.785 529.366 436.817C529.184 436.487 529.005 436.156 528.829 435.824C530.86 435.1 532.835 434.667 534.926 434.155C536.292 436.082 537.179 437.234 539.692 437.418C567.426 439.442 595.359 439.533 623.153 440.623C627.807 440.806 632.536 441 637.172 440.845C642.214 440.125 649.817 440.064 655.03 439.892C662.74 432.883 672.54 418.185 675.809 407.93C681.506 390.058 682.163 366.321 674.558 348.918C672.714 344.7 665.235 337.028 663.087 332.084C661.81 329.146 662.754 327.934 663.873 324.777C656.563 323.464 649.52 324.614 642.573 322.293C634.785 321.017 615.157 319.631 606.647 319.4C593.72 336.08 580.157 352.28 567.466 369.155C565.711 371.487 563.852 373.741 562.224 376.165C562.378 383.014 564.113 407.799 560.262 412.012C559.557 412.783 559.589 412.637 558.674 412.785C557.114 411.6 556.551 409.614 556.444 407.683C555.206 385.195 554.719 362.324 554.918 339.815C554.931 338.312 557.102 335.591 558.05 334.364L558.601 333.656C562.256 344.084 561.384 355.554 561.402 366.693C572.506 352.132 588.841 333.367 598.761 319.072C590.851 318.224 540.113 314.488 536.486 317.359C534.972 318.558 533.881 321.31 533.104 323.065C532.071 328.442 532.506 333.49 531.701 338.304L529.854 337.893C528.741 336.232 528.169 332.393 527.568 330.046C526.702 304.159 545.549 309.646 564.12 310.744C577.358 311.531 590.604 312.194 603.855 312.73C605.524 310.9 607.359 308.603 608.974 306.674C611.111 304.144 611.838 303.172 613.525 300.333L615.359 297.953Z"
     id="path33" />
  <path
     fill="#71572E"
     d="M642.573 322.293C650.448 320.773 682.911 323.627 691.721 327.077C692.669 327.448 693.962 332.642 694.028 334.024C695.645 367.492 695.272 401.279 695.853 434.813C695.922 438.752 695.299 442.783 690.512 443.09C673.091 443.913 654.381 440.783 637.172 440.845C642.214 440.125 649.817 440.064 655.03 439.892C662.74 432.883 672.54 418.185 675.809 407.93C681.506 390.058 682.163 366.321 674.558 348.918C672.714 344.7 665.235 337.028 663.087 332.084C661.81 329.146 662.754 327.934 663.873 324.777C656.563 323.464 649.52 324.614 642.573 322.293Z"
     id="path34" />
  <path
     fill="#7C7253"
     d="M531.701 338.304C532.506 333.49 532.071 328.442 533.104 323.065C535.826 326.821 534.86 340.683 533.809 345.419C533.766 341.2 534.135 340.917 531.701 338.304Z"
     id="path35" />
  <path
     fill="#746D65"
     d="M621.236 300.824L621.618 300.752C628.432 302.151 638.641 302.119 645.85 302.566C658.591 303.412 671.323 304.37 684.047 305.44C696.599 306.458 713.21 304.968 713.597 321.138C714.649 365.203 716.787 410.141 716.592 454.161C716.397 471.715 697.016 467.451 685.312 467.006C673.426 466.554 661.52 465.833 649.624 465.337C534.025 459.559 418.218 459.214 302.587 464.305C279.411 465.301 256.252 466.183 233.117 467.909C230.971 468.069 228.241 468.031 226.108 467.865C223.442 467.635 220.857 466.837 218.526 465.524C215.831 463.999 213.416 461.938 212.882 458.889C210.648 446.121 212.137 428.042 212.436 414.945L214.054 347.744C215.216 309.486 208.278 308.432 249.948 305.104C262.672 304.054 275.405 303.115 288.146 302.287C292.978 301.992 301.856 301.94 306.331 300.859C308.517 303.282 309.511 304.538 311.362 307.224C299.935 307.791 227.454 311.033 223.21 316.193C221.758 317.958 221.469 320.708 221.259 322.911C220.282 333.151 220.345 343.555 220.127 353.835C219.692 370.418 219.368 387.004 219.153 403.591C218.838 414.33 218.592 425.071 218.414 435.813C218.344 440.146 217.096 458.287 221.495 459.868C228.507 462.389 242.655 460.613 250.604 460.258L304.993 457.877C389.891 454.369 474.883 453.749 559.823 456.018C589.773 456.838 619.718 457.826 649.657 458.979C666.769 459.732 688.812 461.618 705.679 461.181C708.239 458.715 709.25 457.789 710.22 454.183C710.654 431.792 709.32 405.939 708.868 383.39L708.076 345.268C707.902 337.236 708.475 322.746 705.427 315.919C700.864 311.133 629.069 307.793 617.105 307.191C618.429 305.311 619.961 302.796 621.236 300.824Z"
     id="path36" />
  <path
     fill="#746D65"
     d="M314.94 300.398C343.245 297.509 382.64 296.592 411.17 295.993C478.653 294.294 546.178 295.742 613.525 300.333C611.838 303.172 611.111 304.144 608.974 306.674C605.586 305.454 580.02 304.857 574.863 304.598C489.827 299.523 404.545 300.188 319.598 306.589C317.96 304.667 316.432 302.452 314.94 300.398Z"
     id="path37" />
  <path
     fill="#746D65"
     d="M527.568 330.046C528.169 332.393 528.741 336.232 529.854 337.893L531.701 338.304C534.135 340.917 533.766 341.2 533.809 345.419C533.651 362.775 533.604 380.132 533.67 397.489C533.677 408.554 533.133 423.573 534.926 434.155C532.835 434.667 530.86 435.1 528.829 435.824C526.018 427.717 526.95 345.366 527.568 330.046Z"
     id="path38" />
  <path
     fill="#8A7A4D"
     d="M443.318 443.051C407.708 443.534 410.352 441.809 410.444 407.82L410.535 363.08C410.557 349.248 410.317 335.384 410.519 321.551C410.68 309.695 420.29 307.843 429.924 307.767C451.314 307.651 472.705 307.953 494.099 307.607C500.769 307.5 507.769 307.387 513.488 311.186C515.079 312.892 517.244 315.244 517.301 317.699C518.127 353.523 517.379 389.472 517.549 425.321C517.561 427.865 516.58 437.739 514.471 439.045C503.011 446.141 482.931 442.543 469.817 443.031C461.15 443.353 450.836 443.522 443.318 443.051Z"
     id="path39" />
  <defs
     id="defs40">
    <linearGradient
       id="gradient_0"
       gradientUnits="userSpaceOnUse"
       x1="514.59064"
       y1="372.3262"
       x2="408.42603"
       y2="378.07501">
      <stop
         offset="0"
         stop-color="#22344B"
         id="stop39" />
      <stop
         offset="1"
         stop-color="#6D645B"
         id="stop40" />
    </linearGradient>
  </defs>
  <path
     fill="url(#gradient_0)"
     d="M443.318 443.051C407.708 443.534 410.352 441.809 410.444 407.82L410.535 363.08C410.557 349.248 410.317 335.384 410.519 321.551C410.68 309.695 420.29 307.843 429.924 307.767C451.314 307.651 472.705 307.953 494.099 307.607C500.769 307.5 507.769 307.387 513.488 311.186C511.443 311.601 509.428 311.727 507.945 313.053L507.55 314.134L510.536 316.027C507.278 316.093 499.515 315.823 497.015 317.101C493.663 317.197 493.463 317.009 491.845 314.29C467.787 314.153 444.033 313.542 420.004 315.118C412.113 338.041 418.826 382.666 416.413 408.341C416.253 410.036 416.307 413.541 417.198 415.025C427.1 423.362 423.976 426.634 427.916 436.376C430.598 436.665 433.558 436.603 436.257 436.546C455.2 436.149 474.253 436.855 493.172 436.581C496.056 436.967 499.301 436.869 501.331 438.241C502.619 444.53 490.911 442.424 487.466 442.729C480.893 443.311 446.833 441.242 443.318 443.051Z"
     id="path40" />
  <path
     fill="#71572E"
     d="M417.198 415.025C427.1 423.362 423.976 426.634 427.916 436.376C421.719 435.805 421.328 435.986 417.322 431.568C417.101 426.164 417.197 420.454 417.198 415.025Z"
     id="path41" />
  <path
     fill="#7C7253"
     d="M491.845 314.29C496.124 314.27 503.521 314.451 507.55 314.134L510.536 316.027C507.278 316.093 499.515 315.823 497.015 317.101C493.663 317.197 493.463 317.009 491.845 314.29Z"
     id="path42" />
  <path
     fill="#2A435F"
     d="M475.207 437.107C478.375 437.197 484.664 437.486 487.177 439.718C484.451 440.563 482.227 440.455 479.382 440.511C477.864 439.426 476.612 438.316 475.207 437.107Z"
     id="path43" />
  <path
     fill="#746D65"
     d="M513.488 311.186C515.079 312.892 517.244 315.244 517.301 317.699C518.127 353.523 517.379 389.472 517.549 425.321C517.561 427.865 516.58 437.739 514.471 439.045C503.011 446.141 482.931 442.543 469.817 443.031C461.15 443.353 450.836 443.522 443.318 443.051C446.833 441.242 480.893 443.311 487.466 442.729C490.911 442.424 502.619 444.53 501.331 438.241C499.301 436.869 496.056 436.967 493.172 436.581C495.851 436.389 499.569 436.434 502.319 436.402C501.983 427.965 500.791 417.749 511.106 415.712C510.481 408.646 511.004 397.48 510.878 390.026C510.789 376.514 510.906 362.907 510.848 349.405C510.826 344.408 512.529 330.285 510.973 326.444C510.876 322.068 512.018 319.209 510.536 316.027L507.55 314.134L507.945 313.053C509.428 311.727 511.443 311.601 513.488 311.186Z"
     id="path44" />
  <path
     fill="#71572E"
     d="M511.106 415.712C511.495 425.15 514.056 434.807 502.319 436.402C501.983 427.965 500.791 417.749 511.106 415.712Z"
     id="path45" />
  <path
     fill="#71572E"
     d="M497.015 317.101C499.515 315.823 507.278 316.093 510.536 316.027C512.018 319.209 510.876 322.068 510.973 326.444C510.621 327.426 510.944 327.082 510.041 327.511C507.273 325.383 505.086 321.067 503.437 317.99L497.015 317.101Z"
     id="path46" />
  <path
     fill="#2A435F"
     d="M416.062 475.482C423.646 474.943 433.02 475.232 440.696 475.289C464.306 475.463 488.076 474.668 511.638 475.761C519 476.103 524.733 483.611 524.59 490.715C525.048 520.104 525.082 549.581 524.556 578.972C524.324 591.938 518.834 596.426 506.129 596.838L469.669 596.824C468.589 598.624 467.236 601.223 465.38 602.276C463.188 603.519 457.669 598.166 454.997 597.334C445.437 594.355 426.738 599.564 414.101 595.643C410.32 594.471 407.461 592.303 405.672 588.738C404.591 586.583 404.1 584.349 403.88 581.97C402.777 570.013 401.793 493.155 404.614 485.648C406.695 480.112 410.951 477.676 416.062 475.482Z"
     id="path47" />
  <path
     fill="#A3BED4"
     d="M416.762 481.553C429.527 481.296 507.826 480.306 513.332 482.633C515.372 483.495 516.916 485.616 517.676 487.639C519.359 492.118 519.032 567.553 518.421 577.498C518.216 580.833 517.725 584.139 516.429 587.235C510.474 592.754 486.861 591.054 478.72 590.758C481.032 588.474 481.686 587.644 483.563 585.005C484.376 576.741 483.025 559.841 479.573 552.334C473.66 539.471 461.973 541.765 451.914 546.959L451.649 538.735C451.684 530.607 446.229 522.514 438.385 520.056C434.231 518.712 429.71 519.103 425.848 521.141C415.411 526.727 414.856 539.592 415.21 549.835C415.395 555.19 413.065 562.314 418.337 566.17C420.962 568.089 425.655 567.618 427.702 570.554C429.257 573.184 428.824 576.375 430.527 579.375C440.039 586.011 437.701 566.849 443.905 568.793C448.47 574.323 440.246 580.414 450.184 590.847C440.098 590.663 429.652 591.216 419.602 590.531C417.54 590.288 413.548 589.633 412.45 587.791C409.931 583.549 409.746 577.968 409.691 573.147C409.439 551.344 409.477 529.527 409.53 507.724C409.546 501.155 409.345 494.154 410.134 487.661C412.166 484.262 413.5 483.401 416.762 481.553Z"
     id="path48" />
  <path
     fill="#2A435F"
     d="M489.573 496.702C511.565 495.274 512.829 512.717 512.276 529.627C511.902 541.069 515.805 548.68 499.159 549.549C497.46 553.988 496.615 556.513 494.142 560.549C483.288 562.981 484.12 557.719 487.683 549.73C483.24 549.355 480.989 548.634 476.955 546.913C475.221 544.541 474.632 543.132 473.382 540.483C476.07 522.07 468.133 505.148 489.573 496.702Z"
     id="path49" />
  <path
     fill="#708394"
     d="M490.83 502.878C505.763 501.778 505.879 512.171 506.135 523.6C503.215 523.121 498.34 523.155 495.212 523.092C489.364 522.974 486.024 523.046 480.299 524.18C480.398 513.422 479.877 507.385 490.83 502.878Z"
     id="path50" />
  <path
     fill="#708394"
     d="M483.991 529.404C489.072 529.212 493.835 528.974 498.927 529.16C506.881 529.45 509.843 538.823 503.705 543.363C497.095 543.469 486.052 544.796 480.77 540.127C477.461 537.203 481.541 531.678 483.991 529.404Z"
     id="path51" />
  <path
     fill="#708394"
     d="M431.816 548.119C437.28 547.898 452.48 548.539 447.001 559.94C445.684 562.681 440.268 562.816 437.267 562.946C432.133 563.099 415.019 563.485 422.122 551.555C424.059 548.304 428.202 548.229 431.816 548.119Z"
     id="path52" />
  <path
     fill="#708394"
     d="M453.607 571.604C458.751 571.416 464.544 570.898 469.61 571.546C478.515 572.684 481.025 578.519 475.012 585.36C464.732 585.707 442.893 588.6 453.607 571.604Z"
     id="path53" />
  <path
     fill="#708394"
     d="M430.113 526.099C442.538 524.515 444.621 531.808 445.195 542.251L436.019 542.172C431.449 542.136 427.147 542.597 422.434 542.495C416.898 537.857 425.598 528.523 430.113 526.099Z"
     id="path54" />
  <path
     fill="#708394"
     d="M453.094 565.303C454.827 554.936 455.681 545.011 469.188 550.125C472.454 552.282 474.347 553.959 475.166 558.117C475.308 558.873 475.425 559.633 475.517 560.397C475.824 561.624 475.284 563.168 474.503 564.135C469.756 565.961 458.698 565.364 453.094 565.303Z"
     id="path55" />
  <path
     fill="#A3BED4"
     d="M469.188 550.125C472.454 552.282 474.347 553.959 475.166 558.117C475.308 558.873 475.425 559.633 475.517 560.397L474.718 560.754C469.776 559.352 468.856 554.606 469.188 550.125Z"
     id="path56" />
  <defs
     id="defs57">
    <linearGradient
       id="gradient_1"
       gradientUnits="userSpaceOnUse"
       x1="542.78027"
       y1="586.64203"
       x2="387.63989"
       y2="661.78827">
      <stop
         offset="0"
         stop-color="#156A4E"
         id="stop56" />
      <stop
         offset="1"
         stop-color="#457C5A"
         id="stop57" />
    </linearGradient>
  </defs>
  <path
     fill="#2A435F"
     d="M515.972 651.445C529.847 650.997 526.441 666.231 538.258 667.281C545.481 667.923 548.726 656.686 552.179 652.837C554.774 649.946 559.126 650.546 561.545 653.695C561.881 655.732 562.019 654.794 561.191 656.62L559.966 657.023C554.918 657.67 553.646 663.239 550.082 666.93C538.1 679.337 528.794 671.718 520.8 660.688C519.474 658.859 514.272 656.83 513.333 654.579C514.201 652.325 513.808 653.084 515.972 651.445Z"
     id="path68" />
  <defs
     id="defs69">
    <linearGradient
       id="gradient_2"
       gradientUnits="userSpaceOnUse"
       x1="403.06836"
       y1="665.6059"
       x2="372.11591"
       y2="645.97235">
      <stop
         offset="0"
         stop-color="#3E4F5C"
         id="stop68" />
      <stop
         offset="1"
         stop-color="#7B7A75"
         id="stop69" />
    </linearGradient>
  </defs>
  <path
     fill="url(#gradient_2)"
     d="M407.578 650.999C411.525 651.4 416.561 652.113 413.437 657.316C406.186 658.909 405.408 665.241 399.687 669.308C388.088 677.553 380.019 671.637 373.876 661.073C373.298 660.079 368.159 657.219 366.51 655.058C366.736 653.877 366.788 652.904 368.157 652.106C377.687 646.551 380.055 665.702 388.552 666.546C401.802 667.863 399.146 655.933 407.578 650.999Z"
     id="path69" />
  <path
     fill="#304152"
     d="M407.578 650.999C411.525 651.4 416.561 652.113 413.437 657.316C411.469 656.935 411.209 657.209 409.882 656.104C409.465 653.419 409.481 652.875 407.578 650.999Z"
     id="path70" />
  <path
     fill="#2A435F"
     d="M615.359 297.953C617.852 294.911 618.687 293.117 622.479 292.624L623.921 293.12C625.378 296.22 623.518 298.266 621.618 300.752L621.236 300.824C618.327 299.826 617.931 299.635 615.359 297.953Z"
     id="path71" />
  <defs
     id="defs72">
    <linearGradient
       id="gradient_3"
       gradientUnits="userSpaceOnUse"
       x1="436.66412"
       y1="628.02435"
       x2="489.66516"
       y2="804.15564">
      <stop
         offset="0"
         stop-color="#BACAD0"
         id="stop71" />
      <stop
         offset="1"
         stop-color="#94B8DB"
         id="stop72" />
    </linearGradient>
  </defs>
  <path
     fill="url(#gradient_3)"
     d="M228.85 696.344C257.126 697.141 287.95 696.408 316.421 696.412L349.369 696.543C354.468 696.565 363.292 696.79 368.093 696.341L615.853 696.432L685.079 696.403C695.21 696.39 714.722 695.825 723.931 697.125C727.01 708.032 726.217 723.121 726.13 734.748L697.351 734.724C697.38 729.891 698.394 708.56 695.589 704.376C692.16 699.263 677.686 698.307 673.758 703.57C671.396 706.735 671.663 706.582 671.392 710.6C669.464 712.176 667.811 713.837 666.037 715.572C665.349 720.903 665.196 722.983 666.638 728.136C669.691 730.54 670.995 731.693 673.678 734.494C669.093 735.044 660.916 734.864 656.144 734.846L628.386 734.781L530.743 734.796L202.357 734.734L202.308 725.78C202.279 719.426 201.058 701.298 204.894 697.428C209.77 695.521 222.934 696.274 228.85 696.344Z"
     id="path72" />
  <path
     fill="#A3BED4"
     d="M401.004 107.738C439.152 106.473 478.077 107.544 516.761 107.732C544.073 107.865 586.697 104.796 610.949 120.04C615.772 123.072 643.982 149.411 640.232 154.425C633.204 155.095 618.485 136.551 612.801 131.499C602.102 121.989 594.913 119.203 580.464 118.439L580.293 129.901L576.517 133.59C576.332 141.62 578.225 173.004 581.341 178.248C588.261 179.687 590.488 172.109 596.461 174.344C600.045 178.035 600.212 186.104 600.673 191.238C597.688 191.293 586.934 192.002 584.849 190.407C581.155 187.582 572.017 193.544 567.715 194.105C561.387 194.931 553.42 194.685 546.943 194.68L508.097 194.64C502.228 186.762 499.894 184.178 491.75 178.862L533.091 178.997C546.22 179.163 556.671 179.776 569.745 178.558C553.471 174.23 531.954 170.161 515.058 166.433C501.051 163.896 486.616 159.161 472.441 156.826C465.695 155.714 457.705 152.989 450.838 153.882C441.36 155.115 432.062 157.863 422.661 159.585C402.35 163.432 382.07 168.32 361.754 171.964L361.599 178.955C372.655 179.223 384.005 178.872 395.103 178.974C408.828 179.101 422.441 179.272 436.16 178.759C427.933 184.743 426.107 186.788 419.979 194.792C401.169 194.194 382.151 195.006 363.328 194.489C359.26 195.088 349.871 189.405 346.874 189.752C340.304 190.513 334.342 191.268 327.568 191.25C327.715 186.039 327.499 177.013 332.223 173.765C338.383 172.311 342.659 181.177 347.02 179.076C348.325 175.864 348.177 172.232 348.77 168.862C351.066 155.8 351.577 146.226 351.559 132.987L348.218 130.159L347.886 118.564C324.859 118.888 314.817 132.142 299.619 147.117C296.879 149.818 291.46 155.912 287.387 154.076C285.057 148.135 314.715 120.935 320.215 117.979C342.188 106.168 376.063 108.274 401.004 107.738Z"
     id="path73" />
  <path
     fill="#2A435F"
     d="M400.971 118.393C440.97 117.871 480.974 117.893 520.972 118.46C534.224 118.596 547.736 118.56 560.977 119.328C563.455 119.472 565.323 119.659 566.431 121.956L566.07 122.913C561.49 125.684 523.904 132.53 516.327 134.062C495.986 137.659 475.766 144.258 455.125 146.074C451.736 146.214 447.982 145.595 444.705 144.767C417.779 137.964 390.347 133.085 363.492 126.118C361.552 125.615 361.397 121.473 362.67 119.652C366.838 118.321 394.495 118.457 400.971 118.393Z"
     id="path74" />
  <path
     fill="#2A435F"
     d="M566.634 130.116L567.088 130.103C575.788 133.839 568.126 164.475 567.253 172.075C545.483 165.922 516.736 160.347 494.242 155.341C486.602 153.801 477.209 152.142 469.982 149.546C479.926 148.107 492.773 145.177 502.89 143.095C524.093 138.548 545.342 134.221 566.634 130.116Z"
     id="path75" />
  <path
     fill="#2A435F"
     d="M358.889 131.434C366.887 133.692 378.722 136.002 387.143 137.896L439.669 149.496C434.065 151.121 428.789 152.068 423.069 153.171C402.305 157.752 381.491 162.105 360.632 166.229C358.085 155.608 354.208 141.568 358.889 131.434Z"
     id="path76" />
  <path
     fill="#A3BED4"
     d="M407.068 209.021C409.48 208.731 410.127 208.603 412.502 208.829C412.457 208.741 411.648 225.764 411.828 228.025C412.293 234.077 413.883 239.989 416.518 245.457C424.132 261.294 437.393 268.789 453.202 274.424C427.447 275.516 401.608 275.298 375.665 276.358C331.697 278.255 287.782 281.222 243.958 285.254C229.963 286.735 215.977 288.301 202.001 289.954C204.922 277.224 208.495 267.72 217.157 257.649C222.024 251.887 227.983 247.143 234.689 243.692C245.591 238.174 261.586 234.22 273.618 231.132C317.339 219.733 362.006 212.332 407.068 209.021Z"
     id="path77" />
  <path
     fill="#A3BED4"
     d="M514.913 208.635C522.174 208.828 531.025 209.776 538.257 210.544C534.938 213.623 531.828 216.966 530.365 221.334C527.299 230.487 533.115 241.011 542.419 243.356C547.21 244.555 552.281 243.792 556.507 241.236C560.628 238.741 563.5 234.617 564.413 229.886C565.711 223.034 563.055 218.222 559.415 212.847C593.291 216.711 669.545 229.625 696.851 245.533C711.851 254.271 720.685 269.199 725.04 285.626C725.465 287.911 725.722 287.314 724.783 288.858C720.719 290.22 702.561 287.173 697.016 286.567C681.018 284.907 665.004 283.409 648.976 282.074C609.53 278.933 570.016 276.699 530.468 275.375C512.06 274.824 493.708 274.94 475.139 274.362C507.355 263.665 521.05 242.374 514.913 208.635Z"
     id="path78" />
  <path
     fill="#A3BED4"
     d="M208.601 741.061C223.824 740.092 247.036 740.778 262.656 740.785L363.206 740.865L671.616 740.836C676.842 748.262 683.612 747.052 691.426 746.351C693.097 744.913 695.183 742.596 696.754 740.952C701.627 740.811 724.733 739.735 727.462 742.597C726.026 743.75 705.185 743.97 700.965 744.265C699.917 752.819 691.584 799.221 688.094 803.208C684.066 801.186 689.666 768.977 684.498 761.45C677.298 750.964 666.933 752.271 656.215 752.703C634.305 753.587 611.757 750.177 590.637 755.027C586.442 756.039 583.85 763.838 582.762 767.694C582.667 774.557 582.621 781.421 582.624 788.285C572.631 788.932 569.974 790.267 566.039 799.547C561.878 791.157 554.532 785.167 544.884 789.884C541.356 791.623 538.674 794.707 537.441 798.443C535.477 804.379 537.392 808.457 539.983 813.486L528.847 813.354C529.229 797.891 529.455 782.366 529.053 766.88C528.72 757.355 529.132 749.507 518.025 746.569C507.423 743.765 496.267 745.058 485.461 745.222C475.864 745.29 466.267 745.306 456.67 745.268L429.678 745.236C418.142 745.225 401.773 742.753 399.855 757.936C398.879 765.666 399.165 772.861 399.206 780.606L399.323 813.487L388.27 813.518C392.023 805.495 394.286 797.704 386.206 791.485C375.643 783.356 368.466 790.334 362.257 798.635C360.642 797.591 358.996 792.863 357.474 791.344C354.811 788.686 348.919 788.589 345.408 788.4C346.099 769.878 349.179 752.272 324.314 752.719C300.87 753.182 276.308 751.585 253.029 753.8C242.16 754.834 241.284 771.944 241.427 779.821C241.587 788.578 241.467 797.462 241.555 806.211C234.931 796.524 229.11 757.127 227.03 743.777C222.716 743.801 203.601 744.428 201.577 742.118L202.516 742.371L201.72 742.102L202.941 742.341L202.929 741.478C204.306 741.096 207.048 741.119 208.601 741.061Z"
     id="path79" />
  <path
     fill="#A3BED4"
     d="M254.715 876.892C263.443 877.062 293.745 884.212 303.942 886.3C322.228 889.897 340.479 893.67 358.693 897.617C367.778 899.552 381.309 901.918 389.871 905.579C398.895 909.437 407.063 933.633 403.316 942.803C402.121 945.728 397.742 947.042 394.812 947.873C391.12 948.366 387.35 948.182 383.638 948.023C367.257 947.32 285.01 944.343 275.944 940.593C268.345 937.45 261.777 930.312 256.302 924.321C249.401 916.771 243.93 910.674 244.497 899.852C244.955 891.105 248.087 882.788 254.715 876.892Z"
     id="path80" />
  <path
     fill="#A3BED4"
     d="M668.525 877.093C671.386 876.836 673.284 877.019 675.535 878.938C681.214 883.779 683.372 894.43 683.752 901.502C684.165 909.183 681.147 914.096 676.183 919.645C670.766 925.699 661.289 937.014 654.096 940.018C642.125 945.018 559.993 947.073 540.145 948.257C535.925 948.298 524.67 947.031 524.307 941.335C523.683 931.54 526.202 920.958 531.339 912.592C537.21 903.029 552.121 901.453 562.459 899.237L595.723 892.354C619.752 887.445 644.716 881.716 668.525 877.093Z"
     id="path81" />
  <path
     fill="#A3BED4"
     d="M622.545 595.316C648.302 592.444 671.514 610.988 674.403 636.746C677.293 662.504 658.767 685.732 633.014 688.64C607.236 691.55 583.985 672.999 581.092 647.216C578.2 621.433 596.764 598.191 622.545 595.316Z"
     id="path82" />
  <path
     fill="#304152"
     d="M623.584 603.925C644.747 601.624 663.734 617.003 665.882 638.184C668.03 659.366 652.518 678.245 631.324 680.241C610.344 682.217 591.701 666.893 589.574 645.926C587.447 624.958 602.635 606.202 623.584 603.925Z"
     id="path83" />
  <path
     fill="#708394"
     d="M621.357 615.927C624.577 615.651 629.409 616.507 629.002 620.646C625.071 626.353 615.478 624.518 613.159 631.874C612.637 633.53 611.459 635.957 610.797 637.62C609.034 638.469 608.074 638.314 606.21 638.028C601.271 633.473 607.754 624.462 611.756 621.057C615.036 618.268 617.333 617.363 621.357 615.927Z"
     id="path84" />
  <path
     fill="#2A435F"
     d="M627.375 649.437C632.102 649.435 635.979 653.185 636.134 657.911C636.289 662.637 632.668 666.633 627.95 666.941C624.759 667.15 621.709 665.603 619.991 662.906C618.273 660.209 618.16 656.79 619.698 653.986C621.235 651.182 624.177 649.439 627.375 649.437Z"
     id="path85" />
  <path
     fill="#708394"
     d="M649.734 639.819C658.729 643.491 649.686 656.422 644.925 660.52L643.373 661.279L642.583 660.652C641.21 655.348 645.108 642.886 649.734 639.819Z"
     id="path86" />
  <path
     fill="#A3BED4"
     d="M457.626 177.433C483.002 173.839 506.448 191.603 509.859 217.007C513.27 242.412 495.34 265.733 469.915 268.961C444.748 272.156 421.718 254.445 418.342 229.298C414.966 204.152 432.508 180.991 457.626 177.433Z"
     id="path87" />
  <path
     fill="#2A435F"
     d="M458.863 185.986C479.258 183.095 498.165 197.206 501.197 217.584C504.23 237.962 490.251 256.968 469.898 260.142C449.343 263.348 430.111 249.2 427.049 228.621C423.987 208.042 438.266 188.906 458.863 185.986Z"
     id="path88" />
  <path
     fill="#304152"
     d="M459.064 192.48C475.822 189.744 491.671 200.97 494.654 217.688C497.636 234.406 486.646 250.421 469.976 253.65C458.972 255.782 447.674 251.82 440.409 243.282C433.145 234.745 431.042 222.957 434.906 212.434C438.77 201.911 448.002 194.286 459.064 192.48Z"
     id="path89" />
  <path
     fill="#708394"
     d="M482.563 222.567C487.999 222.688 489.649 226.651 487.931 231.334C485.318 238.459 481.492 242.904 474.725 246.195C472.24 246.07 470.457 246.356 469.241 244.007C469.651 239.525 476.811 235.748 478.704 232.693C479.822 230.888 481.065 225.694 482.563 222.567Z"
     id="path90" />
  <path
     fill="#708394"
     d="M457.227 199.805C459.94 199.734 463.331 200.517 464.96 202.781L464.687 204.358C461.769 208.246 459.57 208.219 454.785 209.367C453.049 211.341 450.945 214.364 449.34 216.541C446.894 217.582 446.355 217.823 443.94 216.576C441.792 213.49 443.267 209.853 445.24 206.97C448.323 202.465 452.06 200.806 457.227 199.805Z"
     id="path91" />
  <path
     fill="#A3BED4"
     d="M603.457 759.065C624.19 758.582 654.214 758.383 674.531 759.473C677.367 761.565 677.939 762.28 679.82 765.079C681.722 777.377 680.165 792.394 680.66 804.933C681.086 815.699 678.076 820.124 667.176 820.188C655.079 820.426 601.756 821.933 593.277 818.469C587.315 812.88 588.591 787.735 588.901 779.531C589.427 765.586 588.288 759.694 603.457 759.065Z"
     id="path92" />
  <path
     fill="#A3BED4"
     d="M259.129 759.076C270.798 758.695 327.794 757.394 334.714 760.671C336.453 761.495 337.251 763.444 337.808 765.174C340.171 772.522 340.853 809.363 337.306 815.903C335.85 818.587 332.439 819.424 329.7 820.112C320.917 820.228 256.215 821.473 252.321 818.559C249.703 816.601 248.698 812.45 248.197 809.358C247.197 803.178 246.992 766.866 250.097 763.06C252.38 760.262 255.744 759.528 259.129 759.076Z"
     id="path93" />
  <path
     fill="#A3BED4"
     d="M412.308 751.576C439.292 750.61 466.612 751.704 493.629 751.607C501.312 751.579 509.254 751.629 516.904 752.082C519.425 753.838 520.348 754.868 522.483 757.061C523.08 771.984 523.228 786.921 522.928 801.852C522.776 811.57 524.663 821.449 512.489 822.327C503.566 822.97 493.702 822.466 484.767 822.313L484.715 800.986C496.67 800.314 494.828 796.951 494.61 786.457C494.675 782.235 495.385 771.408 493.115 768.538C486.991 766.424 440.894 766.51 434.852 768.83C432.196 773.277 432.692 794.338 435.382 799.358C436.334 801.134 441.704 800.89 443.57 800.918L443.562 822.28C434.211 822.526 423.025 824.144 413.869 822.204C411.643 821.732 408.732 820.838 407.509 818.761C403.996 812.792 404.067 764.705 406.157 757.058C406.904 754.327 410.041 752.86 412.308 751.576Z"
     id="path94" />
  <path
     fill="#A3BED4"
     d="M743.432 465.309C742.871 431.188 744.322 395.891 743.189 361.756C743.01 356.348 734.212 357.218 733.128 351.822C733.868 350.177 733.978 350.239 735.388 349.209C737.716 348.623 739.895 349.215 742.319 349.603C744.083 350.797 745.844 351.942 747.513 353.265C749.014 357.275 751.128 362.079 751.22 366.242C751.566 381.946 751.39 397.885 751.373 413.595L751.35 502.462L751.045 609.267C751.217 640.165 751.426 671.047 751.418 701.96C751.416 707.586 749.168 715.574 743.284 718.111C742.015 718.657 741.819 718.281 740.726 717.711C738.948 713.837 743.101 709.029 743.286 703.959C743.745 691.359 743.589 678.803 743.587 666.195L743.558 598.952L743.545 511.698C743.545 497.158 744.005 479.674 743.432 465.309Z"
     id="path95" />
  <path
     fill="#A3BED4"
     d="M187.145 349.208C189.568 349.131 193.974 348.694 195.4 351.054C194.088 355.167 185.074 358.246 184.693 362.629C184.04 370.121 184.346 380.806 184.354 388.295L184.575 462.45C183.669 490.25 184.462 523.214 184.457 551.4L184.531 707.76C188.155 712.649 187.892 712.935 187.995 719.202C181.364 716.059 177.443 712.918 177.132 704.946C176.516 689.146 176.95 673.239 176.968 657.411L176.94 566.339L176.743 430.255C176.797 405.967 176.374 382.995 177.417 358.663C179.987 354.953 183.103 351.345 187.145 349.208Z"
     id="path96" />
  <path
     fill="#A3BED4"
     d="M288.594 828.14C296.942 828.084 304.98 828.02 313.335 828.342C315.389 832.333 316.421 834.486 317.928 838.683L335.177 838.655C335.203 850.758 335.376 859.31 336.477 871.295C333.396 871.279 326.101 870.507 323.733 872.124C322.895 872.696 323.178 872.935 323.045 874.263C323.291 877.238 323.308 880.985 323.403 884.028L309.895 881.101L309.802 871.319L283.973 871.299C283.697 856.949 281.424 840.063 288.594 828.14Z"
     id="path97" />
  <path
     fill="#A3BED4"
     d="M617.995 828.292C625.07 828.139 632.579 828.286 639.687 828.309C646.442 839.404 644.641 858.198 644.335 871.333L618.625 871.333C618.709 874.219 619.558 879.927 617.356 881.554L609.091 883.504L609.3 871.305L591.488 871.286C592.994 859.388 592.846 850.562 592.859 838.575L610.273 838.604C611.934 833.977 612.645 829.059 617.995 828.292Z"
     id="path98" />
  <path
     fill="#A3BED4"
     d="M705.205 749.857C714.243 749.741 723.557 749.329 732.525 750.108C736.622 750.464 738.08 755.95 738.224 759.308C738.589 767.797 738.582 776.429 738.627 784.92L738.518 839.125L738.509 871.561C738.506 876.515 738.779 886.92 737.861 891.328C735.508 891.732 733.96 892.237 731.693 891.578C731.28 891.242 730.782 890.837 730.199 890.363C728.217 884.331 728.499 869.517 728.258 863.424L726.984 829.807C726.686 819.589 727.009 794.61 723.793 786.382C718.89 773.84 708.218 764.77 705.205 749.857Z"
     id="path99" />
  <path
     fill="#A3BED4"
     d="M195.419 749.916C204.016 749.605 214.361 749.378 222.827 750.638C219.608 764.484 209.012 774.262 204.181 787.186C199.623 799.38 199.752 860.138 199.528 875.878C199.363 880.928 200.615 897.081 191.02 890.585C189.051 887.665 189.547 862.003 189.54 857.334L189.516 811.615L189.525 778.21C189.538 770.636 189.238 761.234 190.487 753.933C192.482 751.805 193.044 751.46 195.419 749.916Z"
     id="path100" />
  <path
     fill="#A3BED4"
     d="M384.359 838.555L443.679 838.596L443.667 848.084C434.098 861.295 442.816 865.15 454.749 869.029C454.755 869.304 454.513 870.124 454.435 870.435C450.795 872.455 394.025 871.605 385.306 871.627C384.124 864.169 384.409 846.623 384.359 838.555Z"
     id="path101" />
  <path
     fill="#A3BED4"
     d="M484.648 838.681C504.369 838.561 524.091 838.546 543.812 838.637C543.927 849.895 543.608 860.168 543.162 871.408L526.922 871.509C515.082 871.613 482.237 872.473 471.718 870.355C482.651 863.371 494.883 864.858 484.793 848.338L484.648 838.681Z"
     id="path102" />
  <path
     fill="#A3BED4"
     d="M236.266 810.189C242.263 811.168 243.124 817.55 247.112 821.864C248.595 823.467 250.685 824.629 252.56 825.751L252.619 871.127C244.603 876.419 243.552 880.298 240.18 888.863L238.632 881.893C237.883 878.182 237.538 875.084 237.117 871.311C231.912 871.217 228.278 871.181 223.692 868.049C219.521 865.232 216.693 860.823 215.872 855.857C213.301 841.188 223.974 835.434 236.3 833.845C236.182 826.022 236.266 818.026 236.266 810.189Z"
     id="path103" />
  <path
     fill="#A3BED4"
     d="M689.958 809.795C693.525 812.301 692.315 828.674 692.229 833.535C697.873 834.622 702.663 835.383 707.09 839.516C714.444 846.38 714.31 858.844 707.216 865.87C702.383 870.657 697.999 871.323 691.448 871.361L690.326 879.314L688.596 889.435C685.096 880.842 683.707 876.408 675.922 871.3L676.026 825.624C685.875 819.635 683.382 815.426 689.958 809.795Z"
     id="path104" />
  <path
     fill="#A3BED4"
     d="M452.613 783.365C454.673 786.228 454.218 824.641 454.9 830.867C455.395 835.386 453.279 848.575 457.387 851.536C459.828 851.433 462.862 848.447 464.84 846.79C465.13 847.123 465.423 847.454 465.718 847.783C467.653 849.944 468.182 850.986 470.99 851.136C471.854 850.512 473.051 849.823 473.108 848.574C473.891 831.414 473.107 814.259 474.593 797.077C474.888 793.669 474.038 786.722 475.145 783.886L476.007 784.472C479.554 791.355 478.523 801.395 478.518 809.114L478.545 841.723L478.596 852.185C488.68 860.507 472.742 862.245 467.419 862.976C467.439 874.35 468.687 886.648 467.407 898.009C467.097 900.757 466.729 901.686 464.595 903.26L463.45 903.052C459.106 897.703 460.626 870.94 460.737 862.969C453.111 862.025 440.542 861.255 449.884 851.172C449.98 831.481 447.998 806.541 450.308 786.766C450.429 785.733 451.865 784.161 452.613 783.365Z"
     id="path105" />
  <path
     fill="#A3BED4"
     d="M374.434 794.832C392.824 793.435 382.173 806.585 381.027 812.816C377.282 833.173 377.901 857.055 379.815 877.698C380.535 885.46 386.32 885.083 381.658 894.901C379.929 895.395 379.143 895.492 377.329 895.333C367.381 894.457 372.857 885.176 372.501 879.353C372.064 872.221 371.377 865.268 371.223 858.163C371.027 842.59 371.612 827.017 372.975 811.503C367.92 804.342 366.555 800.23 374.434 794.832Z"
     id="path106" />
  <path
     fill="#A3BED4"
     d="M548.895 794.833C567.85 794.426 555.095 809.158 555.698 814.039C558.647 837.916 555.982 860.938 556.245 884.525C556.303 889.656 560.258 892.078 551.664 895.547C549.939 895.379 547.315 895.09 546.519 893.274C543.41 886.185 548.909 876.252 549.387 869.061C550.592 850.927 549.86 832.859 548.152 814.803C547.276 806.363 535.961 802.948 548.895 794.833Z"
     id="path107" />
  <path
     fill="#A3BED4"
     d="M345.385 794.63C357.734 795.219 358.68 803.125 351.168 811.355C348.306 829.779 348.61 855.243 350.406 873.992C350.697 877.034 352.891 884.764 353.745 888.06L353.295 888.853C350.392 890.367 345.761 888.699 342.3 887.902C343.455 870.448 340.445 852.254 341.427 834.455C341.98 824.429 343.549 817.968 345.282 808.282C345.724 805.812 345.456 797.518 345.385 794.63Z"
     id="path108" />
  <path
     fill="#A3BED4"
     d="M577.24 794.893C579.167 794.608 579.403 794.495 581.261 794.897C584.371 797.943 581.653 806.052 582.692 809.402C587.769 825.769 587.002 840.879 586.421 857.8C586.085 867.559 584.104 877.577 586.697 887.429C584.034 888.186 580.968 888.882 578.252 889.565C577.03 889.651 577.07 889.544 575.968 888.946C574.252 884.805 577.968 875.279 578.35 870.502C579.876 851.399 580.417 830.013 576.932 811.132C571.103 805.372 569.82 799.843 577.24 794.893Z"
     id="path109" />
  <path
     fill="#A3BED4"
     d="M656.412 826.478C660.866 826.481 665.319 826.516 669.772 826.584C669.81 838.262 670.151 857.561 669.43 869.649C669.124 870.093 668.819 870.537 668.513 870.981C664.756 871.867 660.294 872.617 656.455 873.363L656.412 826.478Z"
     id="path110" />
  <path
     fill="#A3BED4"
     d="M258.723 826.424L271.672 826.73L271.651 873.154C267.088 872.08 263.378 871.563 258.747 871.045C258.594 856.172 258.586 841.297 258.723 826.424Z"
     id="path111" />
  <path
     fill="#A3BED4"
     d="M584.164 196.54L597.295 196.373C601.961 196.34 609.907 195.887 613.341 199.269C613.78 201.219 613.873 200.292 612.998 202.138C611.216 202.944 610.941 202.994 609.537 204.293C608.181 207.956 610.804 212.03 608.262 214.624L606.168 214.359C597.862 212.616 588.807 211.388 580.371 210.092C580.349 198.416 577.628 205.532 574.248 200.212L574.652 199.128C577.798 196.695 580.162 196.907 584.164 196.54Z"
     id="path112" />
  <path
     fill="#A3BED4"
     d="M316.097 197.031C322.616 196.842 329.299 196.591 335.822 196.608C340.164 196.62 351.728 195.453 353.533 200.322C352.446 202.878 352.212 201.673 349.059 203.758C347.694 205.643 348.047 207.666 348.062 210.12L319.304 214.596L319.027 203.914C317.207 202.798 315.83 202.194 314.656 200.437C314.725 198.316 314.641 199.037 316.097 197.031Z"
     id="path113" />
  <path
     fill="#A3BED4"
     d="M678.522 706.699C682.353 706.477 686.774 706.551 690.655 706.523C690.91 716.888 691.671 730.807 689.864 740.841C685.986 740.405 681.735 740.333 677.808 740.185C677.443 731.162 676.453 715.167 678.522 706.699Z"
     id="path114" />
  <path
     fill="#304152"
     d="M543.912 214.915C558.763 213.279 564.221 232.376 549.868 236.684C547.955 237.076 545.296 237.534 543.405 237.045C540.686 236.322 538.386 234.51 537.047 232.035C533.22 224.84 537.631 218.484 543.912 214.915Z"
     id="path115" />
  <path
     fill="#A3BED4"
     d="M563.498 838.648L573.159 838.625C573.278 850.6 573.195 859.466 572.203 871.347L562.264 871.422C563.873 860.844 563.6 849.352 563.498 838.648Z"
     id="path116" />
  <path
     fill="#A3BED4"
     d="M355.207 838.669L364.471 838.711C364.353 849.188 365.114 860.744 365.678 871.288L356.035 871.402C355.561 860.497 355.284 849.584 355.207 838.669Z"
     id="path117" />
  <path
     fill="#A3BED4"
     d="M463.119 776.967C472.921 780.569 467.934 805.036 465.652 812.17C455.04 809.889 459.971 784.179 463.119 776.967Z"
     id="path118" />
  <path
     fill="#A3BED4"
     d="M599.24 951.433C605.552 951.657 602.553 961.853 600.987 965.437C599.097 969.763 597.563 971.763 593.704 974.486C587.182 971.496 589.302 958.049 589.452 951.804L599.24 951.433Z"
     id="path119" />
  <path
     fill="#A3BED4"
     d="M325.69 951.257L338.54 951.8C338.715 958.257 339.278 966.73 337.777 972.88C324.889 976.194 325.842 959.698 325.69 951.257Z"
     id="path120" />
  <path
     fill="#A3BED4"
     d="M308.764 950.681C312.95 950.675 315.75 950.803 319.915 951.211L320.027 964.266C307.497 964.278 308.407 962.146 308.764 950.681Z"
     id="path121" />
  <path
     fill="#A3BED4"
     d="M608.631 950.795L619.319 950.658C619.406 954.77 619.577 959.828 618.499 963.734C615.469 964.167 611.504 964.12 608.359 964.175L608.631 950.795Z"
     id="path122" />
  <path
     fill="#A3BED4"
     d="M459.893 838.746C462.163 838.572 464.061 838.191 466.162 838.938C467.724 840.091 467.735 840.924 468.344 842.903C465.91 843.127 464.765 843.391 462.373 842.795C460.579 841.552 460.614 840.966 459.893 838.746Z"
     id="path123" />
  <path
     fill="#A3BED4"
     d="M460.69 817.885C462.871 817.686 464.424 817.283 466.347 818.2C467.666 819.616 467.549 820.36 467.832 822.396C465.662 822.444 464.717 822.555 462.624 822.109C460.846 820.394 461.381 820.725 460.69 817.885Z"
     id="path124" />
  <path
     fill="#A3BED4"
     d="M362.127 806.468C364.013 808.372 365.56 812.428 362.979 814.467C361.309 813.916 360.903 813.918 359.8 812.524C359.538 810.477 361.053 808.43 362.127 806.468Z"
     id="path125" />
  <path
     fill="#A3BED4"
     d="M565.414 806.523C567.085 808.099 568.859 811.865 568.277 814.225C565.753 813.752 566.02 814.204 564.461 812.722C563.864 810.607 564.748 808.728 565.414 806.523Z"
     id="path126" />
</svg>
