<?xml version="1.0" encoding="UTF-8" standalone="no"?>
<svg
   width="187"
   height="195"
   viewBox="0 0 187 195"
   version="1.1"
   id="svg98"
   sodipodi:docname="sifa.svg"
   inkscape:version="1.4.4 (dcaf3e7d9e, 2026-05-05)"
   xmlns:inkscape="http://www.inkscape.org/namespaces/inkscape"
   xmlns:sodipodi="http://sodipodi.sourceforge.net/DTD/sodipodi-0.dtd"
   xmlns="http://www.w3.org/2000/svg"
   xmlns:svg="http://www.w3.org/2000/svg">
  <defs
     id="defs98">
    <linearGradient
       id="gradient_1"
       gradientUnits="userSpaceOnUse"
       x1="963.74487"
       y1="1051.7085"
       x2="872.21051"
       y2="934.47986"
       gradientTransform="matrix(1.5,0,0,1.5,-1282.936,-1392.0953)">
      <stop
         offset="0"
         stop-color="#28456C"
         id="stop16" />
      <stop
         offset="1"
         stop-color="#41699E"
         id="stop17" />
    </linearGradient>
  </defs>
  <sodipodi:namedview
     id="namedview98"
     pagecolor="#ffffff"
     bordercolor="#000000"
     borderopacity="0.25"
     inkscape:showpageshadow="2"
     inkscape:pageopacity="0.0"
     inkscape:pagecheckerboard="0"
     inkscape:deskcolor="#d1d1d1"
     inkscape:zoom="1.1077586"
     inkscape:cx="31.595331"
     inkscape:cy="266.3035"
     inkscape:window-width="1259"
     inkscape:window-height="1387"
     inkscape:window-x="12"
     inkscape:window-y="39"
     inkscape:window-maximized="1"
     inkscape:current-layer="svg98" />
  <path
     fill="#badbf8"
     d="m 63.040288,123.07123 c -6.009,-0.5355 -12.6225,-7.101 -15.5865,-11.853 -20.8635,-33.5025 4.3035,-76.6095 42.3195,-80.3235 6.5565,-0.6405 26.883002,1.383 33.319502,5.4945 54.669,34.917 25.1775,106.5105 -36.202502,100.3455 -2.892,-0.2895 -8.8905,-2.7975 -10.632,-5.598 -4.788,-2.0055 -9.246,-4.725 -13.218,-8.0655 z"
     id="path428"
     style="stroke-width:1.5" />
  <path
     fill="#1b2f4a"
     d="m 63.040288,123.07123 c -6.009,-0.5355 -12.6225,-7.101 -15.5865,-11.853 -20.8635,-33.5025 4.3035,-76.6095 42.3195,-80.3235 6.5565,-0.6405 26.883002,1.383 33.319502,5.4945 54.669,34.917 25.1775,106.5105 -36.202502,100.3455 -2.892,-0.2895 -8.8905,-2.7975 -10.632,-5.598 24.774002,10.374 53.355002,-0.0975 65.569502,-24.0225 12.2145,-23.9235 3.936,-53.2215 -18.9915,-67.212 -22.927502,-13.9905 -52.761002,-7.9485 -68.442002,13.8615 -15.6795,21.81 -11.9115,52.02 8.646,69.3075 z"
     id="path429"
     style="stroke-width:1.5" />
  <path
     fill="#335584"
     d="m 81.167788,42.78673 c 14.868,-5.493 31.545002,-2.4975 43.572002,7.8285 14.9475,12.8325 19.455,34.089 11.001,51.8865 -8.4525,17.7975 -27.774,27.7305 -47.163002,24.246 -19.3905,-3.4845 -34.047,-19.521 -35.778,-39.1485 -1.7325,-19.629 9.8895,-37.986 28.368,-44.8125 z"
     id="path430"
     style="stroke-width:1.5" />
  <path
     fill="#202632"
     d="m 81.167788,42.78673 c 14.868,-5.493 31.545002,-2.4975 43.572002,7.8285 -4.2705,-0.3495 -12.138,-6.477 -17.901,-7.755 -8.763002,-1.9425 -15.772502,0.1215 -24.705002,-0.048 z"
     id="path431"
     style="stroke-width:1.5" />
  <path
     fill="#badbf8"
     d="m 84.913288,95.90023 c -11.4585,-10.5075 -17.0295,-26.604 -0.9585,-36.069 5.5755,-3.219 12.1875,-4.128 18.424502,-2.5335 15.9735,4.1625 16.9365,18.906 13.059,32.1315 -0.234,4.3845 -5.8185,6.498 -6.546,8.376 -1.6515,4.2705 1.3035,9.633 -1.6755,13.7385 -8.925002,0.2415 -12.900002,0.1695 -21.877502,-0.7515 -0.954,-3.252 -0.999,-11.6415 -0.426,-14.892 z"
     id="path432"
     style="stroke-width:1.5" />
  <path
     fill="#203551"
     d="m 115.43829,89.42923 c -0.234,4.3845 -5.8185,6.498 -6.546,8.376 -1.6515,4.2705 1.3035,9.633 -1.6755,13.7385 -8.925002,0.2415 -12.900002,0.1695 -21.877502,-0.7515 -0.954,-3.252 -0.999,-11.6415 -0.426,-14.892 1.1955,2.379 2.301,7.6755 3.888,11.4735 l 2.0805,0.1125 6.264,-5.679 c 2.0505,3.2655 2.499,5.3865 5.490002,6.348 5.9865,-5.7585 1.614,-10.5405 11.811,-18.009 z"
     id="path433"
     style="stroke-width:1.5" />
  <path
     fill="#203551"
     d="m 82.289788,68.85223 c 3.423,-2.2785 8.025,-1.515 10.5285,1.7475 2.502,3.2625 2.049,7.9065 -1.038,10.623 -2.19,1.9275 -5.2695,2.475 -7.989,1.419 -2.718,-1.056 -4.623,-3.5385 -4.938,-6.438 -0.3165,-2.901 1.0095,-5.7345 3.4365,-7.3515 z"
     id="path434"
     style="stroke-width:1.5" />
  <path
     fill="#1b2f4a"
     d="m 101.53779,68.75923 c 2.3625,-1.5825 5.4,-1.7505 7.923,-0.4395 2.523,1.3125 4.131,3.8955 4.194,6.738 0.063,2.844 -1.4295,5.496 -3.8925,6.918 -3.636,2.1 -8.283,0.936 -10.503002,-2.6295 -2.22,-3.567 -1.212,-8.25 2.278502,-10.587 z"
     id="path435"
     style="stroke-width:1.5" />
  <path
     fill="#1b2f4a"
     d="m 128.83629,80.81773 c 1.095,0.8775 1.791,1.3965 2.223,2.8275 2.2245,7.3725 -3.366,18.633 -6.8955,24.858 -0.4815,-0.624 -1.2195,-1.116 -1.443,-1.8705 -0.1575,-0.5265 1.704,-5.1345 1.9965,-5.9685 2.3955,-6.8205 4.0755,-12.483 4.119,-19.8465 z"
     id="path436"
     style="stroke-width:1.5" />
  <path
     fill="#1b2f4a"
     d="m 61.525288,79.28923 c 3.3975,5.025 2.913,11.6295 3.204,17.5275 2.424,3.024 5.628,6.1395 6.3945,10.0185 -2.4075,-0.4065 -2.6295,-0.9885 -4.0845,-2.859 -5.4975,-7.0665 -6.573,-16.0125 -5.514,-24.687 z"
     id="path437"
     style="stroke-width:1.5" />
  <path
     fill="#badbf8"
     d="m 108.67329,141.51973 c 29.769,-0.381 34.6875,-7.8555 32.8845,25.8045 -16.281,0.5685 -36.2775,1.3815 -52.500002,0.756 -7.5345,0.135 -29.208,0.789 -35.3295,-0.972 l -4.3485,-1.044 c -2.7435,-5.772 -3.5355,-17.3865 0.081,-22.866 5.2185,-3.444 13.602,-1.881 19.8855,-1.3095 3.9525,-0.1425 10.509,-0.5775 14.235,-0.396 z"
     id="path438"
     style="stroke-width:1.5" />
  <path
     fill="#badbf8"
     d="m 108.67329,141.51973 c 29.769,-0.381 34.6875,-7.8555 32.8845,25.8045 -16.281,0.5685 -36.2775,1.3815 -52.500002,0.756 l 6.1215,-3.4905 c -2.9535,-5.3865 -2.82,-15.804 2.514,-20.3745 4.336502,-0.57 5.734502,0.099 9.781502,1.3695 z"
     id="path439"
     style="stroke-width:1.5" />
  <path
     fill="#1b2f4a"
     d="m 95.179288,164.58973 c -2.9535,-5.3865 -2.82,-15.804 2.514,-20.3745 4.336502,-0.57 5.734502,0.099 9.781502,1.3695 -2.643,2.244 -4.0605,2.676 -7.398,3.561 l -0.910502,2.3625 c 2.451002,2.031 2.889002,1.9665 6.081002,2.7285 -4.7685,5.871 -3.9765,-2.4075 -7.380002,8.9505 z"
     id="path440"
     style="stroke-width:1.5" />
  <path
     fill="#1b2f4a"
     d="m 119.06529,142.17523 3.2625,2.2725 c 2.619,4.9785 8.457,14.0565 6.984,19.8555 -3.7095,-0.429 -4.845,-2.3115 -7.4325,-4.779 -4.1985,0.4215 -6.9765,2.8965 -11.3865,2.772 l 1.311,-0.6345 -1.8255,-4.1595 c 3.1665,-5.0265 6.1965,-10.137 9.087,-15.327 z"
     id="path441"
     style="stroke-width:1.5" />
  <path
     fill="#badbf8"
     d="m 83.581288,141.49273 25.092002,0.027 -1.1985,4.065 c -4.047,-1.2705 -5.445,-1.9395 -9.781502,-1.3695 -5.334,4.5705 -5.4675,14.988 -2.514,20.3745 l -6.1215,3.4905 c -7.5345,0.135 -29.208,0.789 -35.3295,-0.972 2.16,-0.426 7.011,-0.516 9.4305,-0.636 l 1.122,-1.6005 c 4.7265,0.6975 5.625,0.8625 10.5195,0.132 3.9195,-2.007 4.2825,-3.429 6.1695,-7.3755 l 2.6055,-5.8245 1.3365,-8.6235 z"
     id="path442"
     style="stroke-width:1.5" />
  <path
     fill="#1b2f4a"
     d="m 84.911788,143.18023 c 6.2865,4.167 5.1285,12.7695 2.8005,19.1295 l -2.0265,1.9875 c -2.4225,-2.943 -2.091,-8.5125 -2.1105,-12.4935 z"
     id="path443"
     style="stroke-width:1.5" />
  <path
     fill="#203551"
     d="m 69.346288,141.88873 c 3.9525,-0.1425 10.509,-0.5775 14.235,-0.396 l 1.3305,1.6875 -1.3365,8.6235 -2.6055,5.8245 c -1.887,3.9465 -2.25,5.3685 -6.1695,7.3755 -4.8945,0.7305 -5.793,0.5655 -10.5195,-0.132 l -0.435,-3.4005 1.7805,-1.377 c 2.9835,0.6105 4.554,1.2225 7.4505,0.5715 -0.0675,-6.579 -8.2185,-3.9 -10.524,-12.0465 2.085,-3.735 3.381,-4.011 7.149,-6.003 z"
     id="path444"
     style="stroke-width:1.5" />
  <path
     fill="#badbf8"
     d="m 69.346288,141.88873 c 3.9525,-0.1425 10.509,-0.5775 14.235,-0.396 l 1.3305,1.6875 -1.3365,8.6235 -2.6055,5.8245 c -2.772,-2.0775 -7.935,-5.1825 -10.989,-7.1415 l 0.1245,-1.4445 c 2.784,-0.7125 5.562,-1.4445 8.3355,-2.1945 -3.171,-3.0225 -4.56,-3.1485 -8.739,-4.2315 z"
     id="path445"
     style="stroke-width:1.5" />
  <path
     fill="#203551"
     d="m 49.379788,166.06423 c -2.7435,-5.772 -3.5355,-17.3865 0.081,-22.866 0.321,8.472 0.5505,14.3475 -0.081,22.866 z"
     id="path446"
     style="stroke-width:1.5" />
</svg>
