<?xml version="1.0" encoding="UTF-8" standalone="no"?>
<svg
   width="187"
   height="195"
   viewBox="0 0 187 195"
   version="1.1"
   id="svg98"
   sodipodi:docname="smoke.svg"
   inkscape:version="1.4.4 (dcaf3e7d9e, 2026-05-05)"
   xmlns:inkscape="http://www.inkscape.org/namespaces/inkscape"
   xmlns:sodipodi="http://sodipodi.sourceforge.net/DTD/sodipodi-0.dtd"
   xmlns="http://www.w3.org/2000/svg"
   xmlns:svg="http://www.w3.org/2000/svg">
  <defs
     id="defs98">
    <linearGradient
       id="gradient_1"
       gradientUnits="userSpaceOnUse"
       x1="963.74487"
       y1="1051.7085"
       x2="872.21051"
       y2="934.47986"
       gradientTransform="matrix(1.5,0,0,1.5,-1282.936,-1392.0953)">
      <stop
         offset="0"
         stop-color="#28456C"
         id="stop16" />
      <stop
         offset="1"
         stop-color="#41699E"
         id="stop17" />
    </linearGradient>
  </defs>
  <sodipodi:namedview
     id="namedview98"
     pagecolor="#ffffff"
     bordercolor="#000000"
     borderopacity="0.25"
     inkscape:showpageshadow="2"
     inkscape:pageopacity="0.0"
     inkscape:pagecheckerboard="0"
     inkscape:deskcolor="#d1d1d1"
     inkscape:zoom="1.1077586"
     inkscape:cx="31.595331"
     inkscape:cy="266.3035"
     inkscape:window-width="1259"
     inkscape:window-height="1387"
     inkscape:window-x="12"
     inkscape:window-y="39"
     inkscape:window-maximized="1"
     inkscape:current-layer="svg98" />
  <path
     fill="#1b2f4a"
     d="m 77.31289,130.44387 c -30.7245,17.4615 -24.4575,4.353 -40.9395,-18.5115 -6.423,-8.91 -9.4275,-13.056002 -5.505,-24.873002 3.6585,-14.934 16.0155,-12.7815 26.9595,-17.502 1.9365,-0.8355 12.48,-11.0925 14.5605,-13.2645 18.6375,-19.458 31.9575,-15.9525 47.841,4.218 12.4725,1.4595 16.0395,3.201 23.0025,13.839 -0.1815,21.6045 12.8235,34.879502 7.14,54.897002 l -2.3205,1.8165 -3.03,-0.4635 -14.37,0.54 c -3.216,0.8205 -3.0945,0.9375 -6.2595,0.21 l -0.2775,-2.6115 c -4.5525,2.6025 -14.232,2.121 -19.4475,1.2615 l -1.065,-2.1015 c -5.742,6.318 -17.604,2.8905 -26.289,2.5455 z"
     id="path518"
     style="stroke-width:1.5" />
  <path
     fill="#badbf8"
     d="m 130.65139,131.13987 c -3.4905,-43.479002 -45.51,-1.386 -53.0775,-34.495502 -0.8415,-3.6825 -13.5105,-7.806 -14.817,-15.2775 2.328,-6.915 6.015,-8.0655 9.3105,-13.641 5.271,-8.919 10.323,-16.4625 21.7965,-17.436 10.0365,-0.852 15.225,9.8625 22.0425,16.1775 8.811,0.09 26.9385,6.885 21.336,18.2835 -12.8925,7.1475 -23.949,-23.199 -39.015,-2.9385 l 0.6075,1.8225 c 5.151,1.5525 6.954,-0.063 11.8845,-0.702 9.3675,-1.215 7.038,7.8825 15.912,10.9125 4.5045,1.5375 11.4825,0.8715 14.031,3.8715 5.154,6.067502 4.3515,24.973502 4.359,32.883002 z"
     id="path519"
     style="stroke-width:1.5" />
  <path
     fill="#badbf8"
     d="m 103.60189,127.89837 c -16.1355,-15.606 -46.635,9.4365 -49.8075,1.7115 -7.0965,-17.2815 -28.4655,-34.198502 -8.397,-50.056502 2.67,-2.1675 4.0995,-2.559 7.4325,-2.5065 l 2.388,1.302 c 1.374,6.792 1.9305,12.6165 7.7445,17.1705 9.828,7.698002 16.1025,22.185002 30.2565,21.256502 13.521,-0.888 25.944,-4.452 30.8955,11.9625 -4.5525,2.6025 -14.232,2.121 -19.4475,1.2615 z"
     id="path520"
     style="stroke-width:1.5" />
  <path
     fill="#1b2f4a"
     d="m 116.79889,135.65787 c 9.876,-0.2055 20.076,-0.8085 29.9235,-0.0915 4.212,0.3075 9.5055,0.669 12.4035,4.035 0.063,1.35 0.0945,2.274 -0.294,3.5805 -0.93,3.132 -3.321,6.627 -6.1815,8.1795 -0.2025,0.111 -0.4155,0.204 -0.6225,0.3045 l 0.897,2.877 c -0.6495,2.2425 -1.056,5.637 -3.0195,7.0095 -3.2865,2.298 -10.1265,3.159 -14.0805,2.7015 -5.1015,-0.591 -10.68,-3.7305 -13.6455,-7.932 -3.9435,-5.589 -6.6,-13.971 -5.3805,-20.664 z"
     id="path521"
     style="stroke-width:1.5" />
</svg>
