<?xml version="1.0" encoding="UTF-8" standalone="no"?>
<svg
   width="187"
   height="195"
   viewBox="0 0 187 195"
   version="1.1"
   id="svg98"
   sodipodi:docname="sound.svg"
   inkscape:version="1.4.4 (dcaf3e7d9e, 2026-05-05)"
   xmlns:inkscape="http://www.inkscape.org/namespaces/inkscape"
   xmlns:sodipodi="http://sodipodi.sourceforge.net/DTD/sodipodi-0.dtd"
   xmlns="http://www.w3.org/2000/svg"
   xmlns:svg="http://www.w3.org/2000/svg">
  <defs
     id="defs98">
    <linearGradient
       id="gradient_1"
       gradientUnits="userSpaceOnUse"
       x1="963.74487"
       y1="1051.7085"
       x2="872.21051"
       y2="934.47986"
       gradientTransform="matrix(1.5,0,0,1.5,-1282.936,-1392.0953)">
      <stop
         offset="0"
         stop-color="#28456C"
         id="stop16" />
      <stop
         offset="1"
         stop-color="#41699E"
         id="stop17" />
    </linearGradient>
  </defs>
  <sodipodi:namedview
     id="namedview98"
     pagecolor="#ffffff"
     bordercolor="#000000"
     borderopacity="0.25"
     inkscape:showpageshadow="2"
     inkscape:pageopacity="0.0"
     inkscape:pagecheckerboard="0"
     inkscape:deskcolor="#d1d1d1"
     inkscape:zoom="1.1077586"
     inkscape:cx="31.595331"
     inkscape:cy="266.3035"
     inkscape:window-width="1259"
     inkscape:window-height="1387"
     inkscape:window-x="12"
     inkscape:window-y="39"
     inkscape:window-maximized="1"
     inkscape:current-layer="svg98" />
  <path
     fill="#badbf8"
     d="m 137.27601,32.568157 c 2.484,-0.2985 4.02,-0.03885 6.5055,0.13665 2.7735,2.2059 4.488,3.39345 4.764,7.61235 1.794,27.4731 0.51,56.3145 -0.066,83.772153 -0.3525,16.7715 -36.2175,26.6655 -42.876,13.2885 -12.934502,-25.9839 14.3415,-31.06455 33.9915,-30.19995 l 0.2355,-42.866253 c -18.7665,4.69125 -37.86,11.20395 -57.172502,16.0632 -10.818,7.07085 2.6835,57.876003 -9.366,68.445003 -39.5175,34.6575 -67.0620004,-29.3985 -5.9115,-27.588 -0.0225,-81.270453 -8.9055,-65.330403 69.895502,-88.663653 z"
     id="path494"
     style="stroke-width:1.5" />
</svg>
