<?xml version="1.0" encoding="UTF-8" standalone="no"?>
<svg
   width="187"
   height="195"
   viewBox="0 0 187 195"
   version="1.1"
   id="svg98"
   sodipodi:docname="stairs.svg"
   inkscape:version="1.4.4 (dcaf3e7d9e, 2026-05-05)"
   xmlns:inkscape="http://www.inkscape.org/namespaces/inkscape"
   xmlns:sodipodi="http://sodipodi.sourceforge.net/DTD/sodipodi-0.dtd"
   xmlns="http://www.w3.org/2000/svg"
   xmlns:svg="http://www.w3.org/2000/svg">
  <defs
     id="defs98">
    <linearGradient
       id="gradient_1"
       gradientUnits="userSpaceOnUse"
       x1="963.74487"
       y1="1051.7085"
       x2="872.21051"
       y2="934.47986"
       gradientTransform="matrix(1.5,0,0,1.5,-1282.936,-1392.0953)">
      <stop
         offset="0"
         stop-color="#28456C"
         id="stop16" />
      <stop
         offset="1"
         stop-color="#41699E"
         id="stop17" />
    </linearGradient>
  </defs>
  <sodipodi:namedview
     id="namedview98"
     pagecolor="#ffffff"
     bordercolor="#000000"
     borderopacity="0.25"
     inkscape:showpageshadow="2"
     inkscape:pageopacity="0.0"
     inkscape:pagecheckerboard="0"
     inkscape:deskcolor="#d1d1d1"
     inkscape:zoom="1.1077586"
     inkscape:cx="31.595331"
     inkscape:cy="266.3035"
     inkscape:window-width="1259"
     inkscape:window-height="1387"
     inkscape:window-x="12"
     inkscape:window-y="39"
     inkscape:window-maximized="1"
     inkscape:current-layer="svg98" />
  <path
     fill="#1b2f4a"
     d="m 124.33387,40.419553 c 15.0825,-0.345 30.2325,0.03 45.3315,-0.225 l 0.0975,16.56 -27.7035,0.015 c -0.48,10.47 -0.276,21.045 -0.3225,31.53 -12.3075,0.48 -24.7185,0.03 -37.035,-0.105 l -0.093,30.839997 c -12.508497,-0.225 -25.019997,-0.225 -37.526997,-0.015 l -0.1965,27.405 c -0.4005,1.29 -1.014,1.47 -2.0385,2.295 -10.977,0.735 -25.0635,3.195 -35.709,-0.315 -4.0785,-1.35 -5.0865,-3.24 -6.9315,-6.765 0.0615,-3.72 -0.513,-4.425 2.214,-7.14 7.8525,-2.715 17.6925,-1.5 25.9365,-1.38 l 0.213,-30.84 37.203,0.285 -0.054,-31.169997 36.458997,0.06 z"
     id="path403"
     style="stroke-width:1.5" />
  <path
     fill="#badbf8"
     d="m 46.897873,71.919553 0.651,0.705 c 1.164,3.405 1.149,3.51 0.2925,6.945 -3.801,0.825 -1.3425,-3.135 -6.426,-6.195 l -3.9345,2.64 -1.3725,-1.05 1.152,-5.31 c -2.4,-2.16 -3.822,-1.275 -7.935,-1.08 l -0.396,-1.185 c 2.148,-0.69 4.3125,-1.32 6.4905,-1.89 l 1.2165,-2.415 -1.266,-2.535 c -3.4515,-0.6 -3.807,-0.48 -6.1515,-2.85 7.293,-4.425 14.349,-11.19 22.3245,-8.64 1.2915,2.61 1.1235,2.58 0.765,5.355 l 1.9995,0.33 c 2.94,0.255 3.4935,0.105 5.763,2.055 l 2.571,0.285 c -1.803,2.61 -2.544,3.57 -4.7655,5.835 1.566,1.725 2.739,2.955 4.44,4.56 -2.4345,1.77 -5.2965,1.38 -8.4,1.395 l -0.981,0.69 -3.411,2.07 z"
     id="path404"
     style="stroke-width:1.5" />
  <path
     fill="#33445e"
     d="m 46.897873,71.919553 0.651,0.705 c 1.164,3.405 1.149,3.51 0.2925,6.945 -3.801,0.825 -1.3425,-3.135 -6.426,-6.195 l -3.9345,2.64 -1.3725,-1.05 1.152,-5.31 c -2.4,-2.16 -3.822,-1.275 -7.935,-1.08 l -0.396,-1.185 c 2.148,-0.69 4.3125,-1.32 6.4905,-1.89 l 1.2165,-2.415 -1.266,-2.535 c -3.4515,-0.6 -3.807,-0.48 -6.1515,-2.85 7.293,-4.425 14.349,-11.19 22.3245,-8.64 1.2915,2.61 1.1235,2.58 0.765,5.355 l -2.388,5.7 c -6.498,1.755 -6.585,-4.02 -11.7195,-1.755 -2.124,8.67 0.981,11.055 8.697,13.56 z"
     id="path405"
     style="stroke-width:1.5" />
  <path
     fill="#335584"
     d="m 54.307873,54.744553 c 2.94,0.255 3.4935,0.105 5.763,2.055 l 2.571,0.285 c -1.803,2.61 -2.544,3.57 -4.7655,5.835 1.566,1.725 2.739,2.955 4.44,4.56 -2.4345,1.77 -5.2965,1.38 -8.4,1.395 l 0.219,-0.855 c 1.6485,-6.24 1.551,-6.87 0.1725,-13.275 z"
     id="path406"
     style="stroke-width:1.5" />
  <path
     fill="#335584"
     d="m 52.935373,69.564553 c 2.3355,2.7 3.114,2.58 3.075,5.22 -3.3885,-0.78 -3.7605,-0.99 -6.486,-3.15 z"
     id="path407"
     style="stroke-width:1.5" />
</svg>
