<?xml version="1.0" encoding="UTF-8" standalone="no"?>
<svg
   width="187"
   height="195"
   viewBox="0 0 187 195"
   version="1.1"
   id="svg98"
   sodipodi:docname="steam_release.svg"
   inkscape:version="1.4.4 (dcaf3e7d9e, 2026-05-05)"
   xmlns:inkscape="http://www.inkscape.org/namespaces/inkscape"
   xmlns:sodipodi="http://sodipodi.sourceforge.net/DTD/sodipodi-0.dtd"
   xmlns="http://www.w3.org/2000/svg"
   xmlns:svg="http://www.w3.org/2000/svg">
  <defs
     id="defs98">
    <linearGradient
       id="gradient_1"
       gradientUnits="userSpaceOnUse"
       x1="963.74487"
       y1="1051.7085"
       x2="872.21051"
       y2="934.47986"
       gradientTransform="matrix(1.5,0,0,1.5,-1282.936,-1392.0953)">
      <stop
         offset="0"
         stop-color="#28456C"
         id="stop16" />
      <stop
         offset="1"
         stop-color="#41699E"
         id="stop17" />
    </linearGradient>
  </defs>
  <sodipodi:namedview
     id="namedview98"
     pagecolor="#ffffff"
     bordercolor="#000000"
     borderopacity="0.25"
     inkscape:showpageshadow="2"
     inkscape:pageopacity="0.0"
     inkscape:pagecheckerboard="0"
     inkscape:deskcolor="#d1d1d1"
     inkscape:zoom="1.1077586"
     inkscape:cx="31.595331"
     inkscape:cy="266.3035"
     inkscape:window-width="1259"
     inkscape:window-height="1387"
     inkscape:window-x="12"
     inkscape:window-y="39"
     inkscape:window-maximized="1"
     inkscape:current-layer="svg98" />
  <path
     fill="#1b2f4a"
     d="m 86.210402,24.416342 c 7.482,1.29 13.879498,5.76 19.184998,11.04 15.9915,15.885 17.4975,37.905 17.3385,59.055 3.4605,-3.75 5.4405,-6.255 10.566,-6.9 4.215,1.365 7.074,3.48 9.6345,7.05 7.122,9.944998 9.699,25.979998 7.7955,37.889998 -1.7205,11.475 -8.0835,21.735 -17.595,28.365 -7.3365,5.07 -17.1855,8.475 -26.1165,6.84 -2.421,-2.175 -1.8255,-8.085 -2.079,-11.43 -0.912,-12.075 -2.709,-15.525 -11.929498,-23.46 -4.197,-4.995 -6.6975,-10.29 -9.39,-16.155 -15.9255,26.55 -2.7615,24.495 -5.2275,46.59 -0.375,3.375 -0.945,3.93 -3.4575,5.82 -1.4985,0.09 -2.6895,0.075 -4.1445,-0.36 -12.279,-3.675 -25.032,-13.74 -30.8505,-25.23 -3.762,-7.44 -4.6365,-15.405 -3.324,-23.58 5.142,-32.099998 31.0275,-37.319998 43.044,-59.474998 6.1305,-11.295 2.7615,-24.255 6.5505,-36.06 z"
     id="path227"
     style="stroke-width:1.5" />
  <path
     fill="#badbf8"
     d="m 96.723902,44.486342 c 24.490498,15.6 7.268998,46.38 15.781498,64.424998 1.011,0.72 2.265,1.98 3.501,1.98 6.8265,0.075 11.772,-5.565 16.2945,-9.96 4.719,8.55 7.782,16.59 6.8055,26.505 -0.8955,9.12 -5.034,20.52 -12.648,26.175 -2.679,1.995 -4.9815,1.92 -8.1465,1.41 -3.606,-3.435 -1.68,-10.44 -3.774,-15.285 -6.6135,-15.27 -17.495998,-15.75 -20.713498,-35.415 -0.5715,-3.465 -0.516,-4.2 -2.898,-6.704998 l -3.6105,0.075 c -5.568,2.789998 -9.621,7.184998 -13.2,12.209998 -10.413,14.64 -11.9835,27.48 -9.078,44.58 -4.9485,-3.24 -9.1155,-6.96 -12.3555,-11.94 -20.331,-31.26 22.386,-54.869998 36.576,-77.129998 4.2375,-6.645 5.895,-13.275 7.4655,-20.925 z"
     id="path228"
     style="stroke-width:1.5" />
</svg>
