<?xml version="1.0" encoding="UTF-8" standalone="no"?>
<svg
   width="1024"
   height="1024"
   viewBox="0 0 1024 1024"
   version="1.1"
   id="svg30"
   sodipodi:docname="ticket_check.svg"
   inkscape:version="1.4.4 (dcaf3e7d9e, 2026-05-05)"
   xmlns:inkscape="http://www.inkscape.org/namespaces/inkscape"
   xmlns:sodipodi="http://sodipodi.sourceforge.net/DTD/sodipodi-0.dtd"
   xmlns="http://www.w3.org/2000/svg"
   xmlns:svg="http://www.w3.org/2000/svg">
  <defs
     id="defs30" />
  <sodipodi:namedview
     id="namedview30"
     pagecolor="#ffffff"
     bordercolor="#000000"
     borderopacity="0.25"
     inkscape:showpageshadow="2"
     inkscape:pageopacity="0.0"
     inkscape:pagecheckerboard="0"
     inkscape:deskcolor="#d1d1d1"
     inkscape:zoom="0.70986892"
     inkscape:cx="495.16184"
     inkscape:cy="440.92648"
     inkscape:window-width="1259"
     inkscape:window-height="1387"
     inkscape:window-x="12"
     inkscape:window-y="39"
     inkscape:window-maximized="1"
     inkscape:current-layer="svg30" />
  <path
     fill="#B9D9ED"
     d="M845.811 440.182C848.242 440.077 850.739 440.225 853.176 440.315C854.016 442.049 854.665 443.869 855.112 445.743C855.618 447.923 855.867 465.229 856 468.937C857.465 509.947 857.159 551.002 856.977 592.005C856.858 618.962 858.299 646.804 858.421 674.168C858.493 707.546 857.774 740.92 856.266 774.263C855.846 785.074 856.301 796.155 855.26 806.921C855.092 808.653 854.976 810.619 853.99 812.102C852.934 813.69 851.656 814.437 849.805 814.76C840.258 816.427 784.059 816.169 778.233 810.398C776.421 808.602 775.849 803.68 775.573 801.15C774.761 793.696 774.859 785.909 774.665 778.407C774.213 760.905 774.234 743.466 774.413 725.963C774.507 716.659 773.68 698.191 776.047 690.075C778.331 682.244 783.634 674.42 787.119 667.002C794.006 652.342 826.367 582.353 825.973 572.161C825.897 570.171 825.488 568.973 824.001 567.566C816.273 565.339 807.552 590.852 805.096 596.497L791.502 627.12C787.195 636.995 782.737 646.803 778.128 656.54C766.046 682.478 753.219 714.581 717.33 703.684C693.256 696.373 669.592 687.84 646.227 678.505C631.21 672.506 615.713 666.814 601.525 659.018C571.172 642.613 586.026 593.84 620.418 598.531C636.584 600.677 650.31 607.682 665.559 612.887C680.546 618.003 695.953 623.544 711.144 628.142C715.745 620.717 722.392 602.129 726.204 593.239C731.702 580.418 737.461 567.542 742.794 554.65C753.354 529.123 764.159 496.732 781.624 474.98C797.608 455.388 820.67 442.885 845.811 440.182Z"
     id="path3" />
  <path
     fill="#B9D9ED"
     d="M428.085 116.71C451.821 114.543 494.395 119.839 513.367 134.639C518.706 139.038 522.208 145.251 522.761 152.16C524.134 169.333 509.802 176.299 500.974 187.115C499.684 192.764 499.328 203.242 498.959 209.266C505.317 215.467 510.801 220.962 516.088 228.199C530.233 247.561 507.935 249.825 494.021 251.929C494.087 272.645 487.146 292.774 474.326 309.046C460.064 327.117 439.307 337.723 416.623 340.439C413.672 340.652 410.428 340.901 407.493 340.86C354.82 340.132 314.125 289.314 323.702 237.661C324.876 231.329 326.467 225.545 327.961 219.338C324.578 211.855 325.459 200.848 325.431 192.34C322.794 189.447 317.158 185.801 313.87 183.347C303.94 177.004 301.001 162.145 310.073 153.553C337.211 127.85 393.059 119.032 428.085 116.71Z"
     id="path4" />
  <path
     fill="#B9D9ED"
     d="M342.64 341.509C346.292 341.791 347.852 343.617 349.433 346.699C354.367 356.319 358.203 366.657 362.389 376.631L387.486 437.034C388.978 423.15 391.861 408.924 393.448 394.919C390.692 391.595 388.183 388.317 385.506 384.945C379.41 377.267 385.352 368.217 392.623 363.67C408.89 363.079 409.606 362.634 417.742 377.753C414.657 385.928 411.086 388.545 408.413 394.696C410.731 408.914 416.375 425.192 418.032 438.878C425.486 410.454 429.157 380.744 436.609 352.369C437.31 349.702 440.681 348.326 442.982 347.397C452.838 349.597 462.356 353.944 471.86 357.18C481.74 360.543 490.945 363.088 500.455 367.456C524.159 378.344 534.126 399.085 544.491 421.395C547.934 428.806 552.349 436.908 555.102 444.539C553.618 448.333 551.41 452.501 549.295 455.984C544.067 448.631 532.986 423.676 528.241 414.273C511.22 380.538 497.99 377.355 464.229 366.382C466.278 373.359 478.069 397.085 474.884 402.853C472.695 406.815 460.745 409.521 456.492 411.22C459.946 416.56 465.962 422.286 467.574 428.214C467.935 429.74 466.508 432.98 465.678 434.175C455.389 448.989 445.14 463.872 434.7 478.587C432.712 481.389 428.826 486.517 425.392 486.998C424.44 486.552 423.942 486.424 423.695 485.266C422.038 477.476 451.82 437.764 457.3 428.987C443.029 407.545 437.158 407.112 465.575 397.078C461.164 385.63 457.065 374.064 453.283 362.393C450.885 361.272 448.398 360.535 445.882 359.705C441.997 379.655 437.404 403.848 432.802 423.106C428.675 439.685 424.682 456.297 420.822 472.941C416.563 490.977 414.521 497.288 414.527 515.625C411.725 516.634 408.856 518.04 405.971 518.184C403.746 516.609 403.744 502.902 401.81 498.639C380.212 451.032 361.64 401.983 340.623 354.171C337.799 355.012 334.987 355.896 332.189 356.821C329.631 367.882 327.922 384.324 325.592 396.329C361.616 404.944 356.097 403.568 340.338 431.13C345.412 436.807 351.107 442.189 356.457 447.658C364.913 456.299 373.22 465.086 381.373 474.014C384.181 477.102 392.014 484.81 387.442 488.727C386.26 489.026 385.55 488.921 384.46 488.436C381.13 486.954 336.162 441.897 331.868 436.629C330.56 435.025 329.839 433.286 329.104 431.367C331.538 425.075 337.526 416.706 341.388 410.954C336.032 409.421 318.213 406.044 316.383 403.076C313.051 397.673 321.037 366.323 322.342 359.988C310.12 362.966 275.775 374.503 264.941 380.472C259.014 383.696 253.709 387.951 249.276 393.037C245.476 397.498 242.231 402.403 239.613 407.647C235.152 416.801 230.074 430.573 226.347 440.27L210.041 482.491C202.953 500.632 196.138 518.877 189.596 537.221C184.999 549.793 177.381 565.368 178.189 578.876C179.073 593.657 189.298 608.797 204.761 610.96C226.695 614.027 249.695 612.535 271.769 611.387C304.496 610.214 336.669 607.215 369.252 604.343C369.588 597.408 367.581 548.805 364.616 545.718C362.66 543.683 331.347 545.602 326.79 545.725C315.34 546.222 244.018 549.863 238.914 546.659C237.825 545.976 237.182 544.731 237.019 543.499C236.857 542.273 237.475 541.224 238.281 540.341C242.283 535.954 255.373 536.29 261.028 535.953C270.781 513.636 277.915 490.345 287.407 467.948C288.689 464.922 291.397 460.201 295.212 460.724C297.809 462.158 299.106 464.817 298.286 467.728C291.76 490.888 281.57 512.96 273.865 535.753C283.876 536.012 296.418 535.339 306.469 534.962C318.668 534.537 330.871 534.233 343.076 534.048C351.419 533.911 366.197 532.568 374.14 536.081C375.345 536.614 376.309 539.369 376.478 540.697C379.218 562.116 379.983 584.113 379.852 605.696C379.5 612.097 377.045 614.823 370.832 615.703C335.968 620.641 299.839 620.492 264.906 623.323C264.068 652.39 261.202 681.305 258.916 710.278C258.68 713.272 257.889 721.296 259.01 723.628C268.771 732.474 354.427 735.07 372.008 734.843C383.6 734.693 392.188 734.962 400.995 726.015C403.955 723.006 405.902 720.209 406.569 715.982C408.846 701.542 408.167 684.645 407.943 670.091C407.623 652.145 407.452 634.197 407.43 616.248C411.425 616.979 413.931 617.318 417.977 617.645C418.815 641.873 419.302 666.112 419.438 690.355C419.542 701.389 416.087 718.293 424.157 726.502C433.152 735.652 449.167 731.8 460.427 729.982C474.806 727.66 489.355 725.96 503.71 723.526C509.087 722.392 510.518 720.449 510.035 715.167C506.503 676.536 501.902 637.47 500.963 598.676C504.545 595.408 508.016 592.022 511.371 588.521C513.49 610.63 514.41 632.978 516.4 655.138C517.771 669.512 519.018 683.898 520.142 698.293C520.687 705.383 521.156 712.288 521.478 719.382C521.959 729.984 515.209 733.245 505.563 734.825L505.801 781.841C505.903 791.489 506.367 801.449 505.548 811.075C505.203 819.56 494.485 819.276 494.333 811.588C493.855 787.279 493.423 761.588 493.588 737.359C483.488 738.004 470.941 740.658 460.777 742.139C439.357 745.259 426.699 748.15 412.301 729.686C402.96 741.855 395.091 746.153 379.534 746.468C363.682 746.789 348.038 746.093 332.206 745.503C314.524 744.843 297.097 743.516 279.623 740.691C278.906 763.856 281.313 787.598 280.512 810.824C280.137 821.685 269.678 817.727 269.408 809.922C268.594 786.441 267.578 762.672 268.492 739.184C262.689 738.356 251.107 736.956 248.271 731.799C244.81 725.506 247.175 708.941 247.757 701.891L250.532 668.418C251.571 654.854 251.673 637.267 253.55 624.43C233.921 624.569 208.544 626.799 190.558 618.404C179.337 613.167 171.693 601.457 167.804 590.01C161.818 572.387 170.035 555.238 175.984 538.842C181.898 522.414 188.019 506.06 194.344 489.785C201.539 470.946 208.837 452.147 216.238 433.387C220.939 421.457 225.55 408.837 231.445 397.366C246.966 367.159 279.853 361.483 309.05 351.742C320.021 348.082 331.486 344.974 342.64 341.509Z"
     id="path9" />
  <path
     fill="#B9D9ED"
     d="M840.683 237.209C850.32 236.907 855.939 235.966 856.287 247.453C856.475 253.65 856.489 259.803 856.503 266.006C856.572 273.775 856.733 281.543 856.985 289.309C857.712 316.081 858.628 342.232 857.589 369.04C857.251 377.743 857.838 387.41 857.315 396.036C856.938 402.234 855.357 412.04 854.228 418.266C853.569 418.428 852.904 418.565 852.234 418.676C832.181 421.913 807.492 412.229 791.324 400.447C790.627 399.92 789.943 399.379 789.269 398.824C770.145 383.339 758.078 360.793 755.799 336.291C753.718 311.593 761.507 287.076 777.461 268.108C793.743 248.922 815.886 239.254 840.683 237.209Z"
     id="path10" />
  <path
     fill="#B9D9ED"
     d="M533.378 471.494C533.747 471.513 535.556 471.679 535.996 471.887C541.403 474.449 546.875 484.512 549.704 489.772C550.543 491.331 550.587 493.053 549.968 494.454C547.415 500.232 540.208 492.928 536.002 495.291C529.556 498.914 532.582 506.234 530.829 511.899C530.635 512.707 527.651 515.421 527.714 516.015C529.006 528.243 528.311 535.926 523.927 547.545C533.947 544.86 548.171 533.471 556.794 527.382C558.422 526.233 556.903 523.255 555.478 522.251C550.435 523.82 547.191 527.206 541.282 529.159L540.569 529.391C535.138 527.631 532.588 525.529 528.501 521.848C533.102 514.928 535.853 517.778 541.956 521.039C546.883 518.892 554.258 514.546 559.285 511.894C567.912 522.106 571.917 529.282 559.225 537.511C545.222 546.589 536.303 553.985 519.756 558.325C506.051 585.633 488.424 595.152 466.9 615.148C460.062 621.5 455.106 636.183 442.814 632.419C440.272 631.661 438.175 629.854 437.049 627.452C435.245 623.692 436.251 619.903 437.429 616.237L446.091 614.14C445.226 616.859 443.135 622.129 446.404 623.677C446.935 623.585 447.465 623.492 447.996 623.4C452.038 619.448 456.497 612.766 460.177 608.78C471.241 596.796 486.443 587.302 497.321 575.391C508.284 563.386 518.127 545.21 519.838 528.912C520.249 524.996 519.904 519.507 519.707 515.473C521.895 512.069 522.744 511.438 525.667 508.65C524.493 497.328 524.41 491.017 537.244 488.005C536.11 485.641 534.836 483.474 533.541 481.2C520.735 489.564 505.022 496.45 496.495 509.535C484.685 530.987 500.528 535.768 498.096 554.387C496.564 566.109 482.953 579.329 473.666 586.122C474.518 581.688 475.124 577.717 475.735 573.239C488.673 559.642 492.746 554.963 485.234 536.736C466.606 533.171 462.537 532.482 445.793 539.451C441.905 538.588 438.778 537.987 435.068 536.558C435.625 536.155 436.187 535.759 436.754 535.369C453.095 524.139 464.832 523.182 483.257 526.627C483.166 522.25 483.396 517.949 484.166 513.64C465.358 515.121 444.69 519.036 428.407 530.349C427.252 530.893 427.344 532.393 427.372 533.752C427.457 537.846 423.014 538.042 424.002 542.625C426.304 545.35 436.242 545.915 440.175 546.784C443.204 547.475 446.173 548.413 449.05 549.586C473.825 559.643 471.088 594.046 447.395 603.355C428.698 610.701 408.307 607.669 390.302 599.529C390.035 581.971 389.037 562.26 386.718 544.894C393.872 539.91 399.955 533.815 407.486 528.893C412.403 525.679 416.591 525.229 420.602 523.028C443.081 510.697 461.936 504.237 487.929 504.568C490.835 500.341 494.274 496.507 498.161 493.159C504.645 487.52 525.301 474.117 533.378 471.494Z"
     id="path11" />
  <path
     fill="#B9D9ED"
     d="M605.426 366.936C610.833 367.944 621.01 371.546 626.367 373.462C626.318 375.02 626.312 376.579 626.348 378.137C626.544 382.953 628.711 387.476 632.342 390.645C635.554 393.481 639.74 394.97 644.02 394.526C651.612 393.739 654.514 389.298 658.982 383.985C663.079 384.925 681.163 390.472 681.147 392.577C681.09 399.763 665.793 429.226 662.677 434.561C657.524 433.128 653.473 432.034 648.04 432.008C624.34 431.884 605.109 455.591 605.326 478.353C605.457 492.169 610.427 498.431 619.752 507.672C616.579 514.428 611.078 523.067 607.304 530.162C605.051 534.392 602.665 538.832 599.877 542.714C592.897 540.14 584.616 537.143 577.912 534.129C579.275 522.96 580.769 516.491 568.458 511.993C568.309 511.676 568.155 511.361 567.998 511.048C560.555 496.326 552.625 507.075 542.667 512.763C539.738 511.171 539.186 510.797 536.612 508.677C537.064 506.04 537.739 503.722 538.438 501.15C540.167 502.007 541.915 502.793 543.621 503.583C549.222 506.275 557.163 499.928 558.618 494.739C560.194 489.12 553.611 480.048 550.713 475.139C563.028 453.544 577.601 424.621 588.071 401.928C591.205 395.089 594.251 388.21 597.207 381.292C599.22 376.529 600.937 369.394 605.426 366.936Z"
     id="path12" />
  <path
     fill="#B9D9ED"
     d="M645.267 443.133C651.804 442.567 658.371 443.803 664.255 446.706C687.739 458.255 681.072 491.809 665.983 507.386C659.542 514.036 653.322 517.521 644.624 520.363C646.727 525.952 646.13 529.907 641.718 534.228C622.079 553.392 602.615 572.826 581.268 590.111C559.648 607.617 536.878 602.114 520.619 580.943C519.709 579.783 519.646 579.829 519.209 578.449C520.01 574.618 521.673 573.333 524.237 570.338C529.39 574.249 533.146 580.418 539.194 584.647C544.804 588.595 551.794 590.053 558.514 588.678C563.081 587.766 569.1 584.966 572.741 582.308C586.115 572.544 627.81 536.095 635.704 524.402C630.492 523.278 628.724 522.863 624.148 520.022L628.892 511.282C632.32 511.565 641.236 512.201 641.865 507.776C640.822 505.441 630.499 500.393 627.476 498.456C604.634 483.819 621.472 446.746 645.267 443.133Z"
     id="path13" />
  <path
     fill="#B9D9ED"
     d="M395.62 767.467C397.501 767.392 399.309 767.271 400.683 768.842C404.379 773.068 401.699 803.948 400.738 810.432C400.175 814.228 399.084 815.885 396.007 818.195C390.765 817.708 388.64 815.986 388.911 810.306C389.436 803.517 389.551 796.354 390.312 789.611C391.071 782.885 390.591 772.406 395.62 767.467Z"
     id="path14" />
  <path
     fill="#B9D9ED"
     d="M476.455 467.72C478.783 467.606 486.027 467.225 487.462 468.572C499.821 480.169 469.948 479.051 465.123 479.378C462.423 479.488 455.495 480.106 453.863 478.407C442.44 466.505 473.12 467.826 476.455 467.72Z"
     id="path15" />
  <path
     fill="#B9D9ED"
     d="M503.486 450.786C511.308 453.403 509.48 467.275 509.444 474.263C507.652 475.536 505.39 476.883 503.503 478.075C502.315 478.856 501.748 479.442 500.354 479.333C498.683 476.055 499.29 464.207 499.463 460.046C499.647 455.661 500.285 453.542 503.486 450.786Z"
     id="path16" />
  <path
     fill="#B9D9ED"
     d="M505.497 520.343C509.192 519.457 512.913 521.709 513.842 525.394C514.77 529.079 512.561 532.825 508.887 533.796C506.472 534.433 503.902 533.724 502.156 531.939C500.41 530.154 499.758 527.568 500.45 525.168C501.141 522.769 503.069 520.926 505.497 520.343Z"
     id="path17" />
</svg>
