<?xml version="1.0" encoding="UTF-8" standalone="no"?>
<svg
   width="187"
   height="195"
   viewBox="0 0 187 195"
   version="1.1"
   id="svg98"
   sodipodi:docname="toilet.svg"
   inkscape:version="1.4.4 (dcaf3e7d9e, 2026-05-05)"
   xmlns:inkscape="http://www.inkscape.org/namespaces/inkscape"
   xmlns:sodipodi="http://sodipodi.sourceforge.net/DTD/sodipodi-0.dtd"
   xmlns="http://www.w3.org/2000/svg"
   xmlns:svg="http://www.w3.org/2000/svg">
  <defs
     id="defs98">
    <linearGradient
       id="gradient_1"
       gradientUnits="userSpaceOnUse"
       x1="963.74487"
       y1="1051.7085"
       x2="872.21051"
       y2="934.47986"
       gradientTransform="matrix(1.5,0,0,1.5,-1282.936,-1392.0953)">
      <stop
         offset="0"
         stop-color="#28456C"
         id="stop16" />
      <stop
         offset="1"
         stop-color="#41699E"
         id="stop17" />
    </linearGradient>
  </defs>
  <sodipodi:namedview
     id="namedview98"
     pagecolor="#ffffff"
     bordercolor="#000000"
     borderopacity="0.25"
     inkscape:showpageshadow="2"
     inkscape:pageopacity="0.0"
     inkscape:pagecheckerboard="0"
     inkscape:deskcolor="#d1d1d1"
     inkscape:zoom="1.1077586"
     inkscape:cx="31.595331"
     inkscape:cy="266.3035"
     inkscape:window-width="1259"
     inkscape:window-height="1387"
     inkscape:window-x="12"
     inkscape:window-y="39"
     inkscape:window-maximized="1"
     inkscape:current-layer="svg98" />
  <path
     fill="#1b2f4a"
     d="m 61.783308,50.970221 c 23.8035,0.1455 69.265502,-3.489 90.546002,2.946 4.659,3.6225 5.922,9.885 6.723,15.4515 1.725,11.9865 3.21,67.414499 -3.714,75.233999 -4.1595,4.698 -11.628,5.067 -17.4135,5.8425 -13.548,-0.0285 -90.114002,3.2145 -96.463502,-3.1515 -5.3235,-5.3385 -6.558,-15.6495 -6.7635,-22.791 -0.3555,-12.387 -2.5485,-60.688499 5.868,-68.731499 5.616,-5.3655 14.028,-4.6965 21.2175,-4.8 z"
     id="path389"
     style="stroke-width:1.5" />
  <path
     fill="#badbf8"
     d="m 48.649308,60.367721 c 17.628,-0.888 90.052502,-3.9795 100.167002,4.374 2.7495,5.8005 2.7765,58.747499 1.869,67.294499 -0.5235,4.9425 -2.1375,6.372 -5.8815,9.336 -17.5485,0.0495 -87.963002,4.4625 -98.874002,-4.1025 -3.867,-7.095 -2.835,-45.632999 -2.817,-56.167499 0.0135,-7.881 -0.441,-14.8215 5.5365,-20.7345 z"
     id="path390"
     style="stroke-width:1.5" />
  <path
     fill="#1b2f4a"
     d="m 66.104808,111.45472 c 1.593,-9.8115 2.3865,-25.406999 8.9715,-33.259499 0.783,-0.9345 1.989,-0.6975 3.1515,-0.828 7.4985,6.3765 8.805,23.206499 10.6575,32.659499 1.7295,-7.887 2.58,-27.250499 7.62,-32.786999 2.7285,-0.3555 3.520502,-0.6225 6.120002,0.4785 1.149,5.7015 -1.407,12.855 -2.679002,18.4755 -1.4025,8.161499 -2.1165,18.874499 -6.3345,26.080499 -1.479,2.523 -1.5375,2.943 -4.344,3.675 -7.602,-5.2215 -9.663,-23.352 -11.7285,-32.092499 -2.391,7.289999 -3.4335,15.218999 -5.22,22.697999 -0.99,4.143 -2.019,7.7415 -5.823,10.089 l -2.4225,-0.663 c -8.73,-9.0795 -11.0325,-36.886499 -13.6695,-49.804499 l 6.9675,0.9825 c 6.6795,6.4785 6.708,24.814499 8.733,34.295999 z"
     id="path391"
     style="stroke-width:1.5" />
  <path
     fill="#1b2f4a"
     d="m 120.77231,75.709721 c 0.237,-0.005 0.4755,-0.012 0.714,-0.015 9.843,-0.0975 14.13,3.627 20.7975,10.2045 0.5175,1.968 0.9255,2.2935 0.007,4.0755 -7.332,4.272 -12.7815,-4.7175 -21.765,-4.305 -3.1815,1.569 -4.533,2.112 -5.583,5.8215 -1.5255,5.3865 -0.3645,17.381999 2.517,22.103999 1.7895,2.9325 4.179,4.107 7.4055,4.86 3.417,-0.717 3.693,-0.927 6.0555,-3.5085 1.0305,-1.89 1.851,-3.5265 3.8145,-4.59 1.815,-0.9825 2.421,-0.372 4.2885,0.1395 1.2165,2.757 1.32,3.5055 0.717,6.48 -0.711,3.456 -2.859,6.4455 -5.9055,8.2215 -3.897,2.3085 -8.8185,2.1735 -13.0665,1.014 -5.319,-1.452 -9.507,-4.722 -12.081,-9.642 -4.215,-8.0595 -3.7815,-18.701999 -0.8595,-27.101999 2.481,-7.1355 6.327,-10.488 12.9435,-13.758 z"
     id="path392"
     style="stroke-width:1.5" />
</svg>
