<?xml version="1.0" encoding="UTF-8" standalone="no"?>
<svg
   width="187"
   height="195"
   viewBox="0 0 187 195"
   version="1.1"
   id="svg98"
   sodipodi:docname="valve.svg"
   inkscape:version="1.4.4 (dcaf3e7d9e, 2026-05-05)"
   xmlns:inkscape="http://www.inkscape.org/namespaces/inkscape"
   xmlns:sodipodi="http://sodipodi.sourceforge.net/DTD/sodipodi-0.dtd"
   xmlns="http://www.w3.org/2000/svg"
   xmlns:svg="http://www.w3.org/2000/svg">
  <defs
     id="defs98">
    <linearGradient
       id="gradient_1"
       gradientUnits="userSpaceOnUse"
       x1="963.74487"
       y1="1051.7085"
       x2="872.21051"
       y2="934.47986"
       gradientTransform="matrix(1.5,0,0,1.5,-1282.936,-1392.0953)">
      <stop
         offset="0"
         stop-color="#28456C"
         id="stop16" />
      <stop
         offset="1"
         stop-color="#41699E"
         id="stop17" />
    </linearGradient>
  </defs>
  <sodipodi:namedview
     id="namedview98"
     pagecolor="#ffffff"
     bordercolor="#000000"
     borderopacity="0.25"
     inkscape:showpageshadow="2"
     inkscape:pageopacity="0.0"
     inkscape:pagecheckerboard="0"
     inkscape:deskcolor="#d1d1d1"
     inkscape:zoom="1.1077586"
     inkscape:cx="31.595331"
     inkscape:cy="266.3035"
     inkscape:window-width="1259"
     inkscape:window-height="1387"
     inkscape:window-x="12"
     inkscape:window-y="39"
     inkscape:window-maximized="1"
     inkscape:current-layer="svg98" />
  <path
     fill="#1b2f4a"
     d="m 75.428364,70.256134 c 13.326,-15.5025 22.8105,-18.894 34.780496,-0.1035 l 19.71,0.048 -0.141,22.824 c -5.622,-0.1275 -12.6375,-0.948 -17.3385,1.713 -6.009,8.843996 3.618,12.730496 1.332,22.079996 -1.8195,2.754 -4.3335,4.401 -7.881,4.842 -7.027496,0.873 -23.480996,2.4735 -29.552996,-1.362 -2.4615,-1.554 -4.101,-4.6185 -4.4235,-6.9285 -0.7905,-5.6685 4.086,-11.4855 7.2135,-15.797996 -1.281,-1.329 -2.241,-2.325 -2.8815,-2.9895 -8.3475,-3.879 -16.89,1.2285 -19.6455,-3.903 0.267,-5.631 0.048,-12.312 0.008,-18.027 4.1205,-3.6705 12.8595,-2.5515 18.8205,-2.3955 z"
     id="path460"
     style="stroke-width:1.5" />
  <path
     fill="#1b2f4a"
     d="m 58.098864,123.71013 c 13.356,1.374 27.186,4.11 40.5825,4.113 8.816996,0.003 18.470996,-5.9625 26.951996,-3.408 2.808,3.063 2.6505,4.545 3.168,8.538 -4.275,-0.15 -7.7985,-0.111 -11.931,1.284 -12.0045,4.0545 -27.176996,6.2205 -39.473996,2.4075 -5.001,-1.551 -9.207,-3.99 -14.547,-4.2255 -0.2985,-0.012 -0.597,-0.009 -0.8955,-0.0135 -3.2175,-2.4855 -2.9805,-4.86 -3.855,-8.6955 z"
     id="path461"
     style="stroke-width:1.5" />
  <path
     fill="#badbf8"
     d="m 29.765364,73.238134 c 8.961,0.007 17.916,0.1755 26.8425,-0.5865 0.0405,5.715 0.2595,12.396 -0.008,18.027 -4.425,-0.894 -21.426,-0.6225 -26.8455,-0.6315 z"
     id="path462"
     style="stroke-width:1.5" />
  <path
     fill="#badbf8"
     d="m 130.87136,73.175134 25.947,0.0405 0.1725,16.914 -26.034,-0.0915 z"
     id="path463"
     style="stroke-width:1.5" />
</svg>
