<?xml version="1.0" encoding="UTF-8" standalone="no"?>
<svg
   width="187"
   height="195"
   viewBox="0 0 187 195"
   version="1.1"
   id="svg98"
   sodipodi:docname="wheels.svg"
   inkscape:version="1.4.4 (dcaf3e7d9e, 2026-05-05)"
   xmlns:inkscape="http://www.inkscape.org/namespaces/inkscape"
   xmlns:sodipodi="http://sodipodi.sourceforge.net/DTD/sodipodi-0.dtd"
   xmlns="http://www.w3.org/2000/svg"
   xmlns:svg="http://www.w3.org/2000/svg">
  <defs
     id="defs98">
    <linearGradient
       id="gradient_1"
       gradientUnits="userSpaceOnUse"
       x1="963.74487"
       y1="1051.7085"
       x2="872.21051"
       y2="934.47986"
       gradientTransform="matrix(1.5,0,0,1.5,-1282.936,-1392.0953)">
      <stop
         offset="0"
         stop-color="#28456C"
         id="stop16" />
      <stop
         offset="1"
         stop-color="#41699E"
         id="stop17" />
    </linearGradient>
  </defs>
  <sodipodi:namedview
     id="namedview98"
     pagecolor="#ffffff"
     bordercolor="#000000"
     borderopacity="0.25"
     inkscape:showpageshadow="2"
     inkscape:pageopacity="0.0"
     inkscape:pagecheckerboard="0"
     inkscape:deskcolor="#d1d1d1"
     inkscape:zoom="1.1077586"
     inkscape:cx="31.595331"
     inkscape:cy="266.3035"
     inkscape:window-width="1259"
     inkscape:window-height="1387"
     inkscape:window-x="12"
     inkscape:window-y="39"
     inkscape:window-maximized="1"
     inkscape:current-layer="svg98" />
  <path
     fill="#badbf8"
     d="m 88.395805,43.642203 c 29.581505,-3.8115 56.631005,17.139 60.346505,46.7385 3.717,29.599497 -17.3145,56.588997 -46.92,60.211497 -29.472005,3.6075 -56.308505,-17.313 -60.007505,-46.7805 -3.7005,-29.467497 17.1315,-56.375997 46.581,-60.169497 z"
     id="path335"
     style="stroke-width:1.5" />
  <path
     fill="#375d8e"
     d="m 89.447305,46.516203 c 27.889505,-3.255 53.170505,16.635 56.577005,44.5125 3.405,27.877497 -16.344,53.270997 -44.1975,56.827497 -28.066505,3.5835 -53.691005,-16.353 -57.123005,-44.445 -3.4305,-28.091997 16.6395,-53.612997 44.7435,-56.894997 z"
     id="path336"
     style="stroke-width:1.5" />
  <path
     fill="#badbf8"
     d="m 89.102305,53.123703 c 24.246005,-3.363 46.654505,13.4925 50.154005,37.7235 3.4995,24.232497 -13.224,46.741497 -37.4295,50.380497 -24.402005,3.6675 -47.128505,-13.224 -50.658005,-37.653 -3.528,-24.427497 13.491,-47.062497 37.9335,-50.450997 z"
     id="path337"
     style="stroke-width:1.5" />
  <path
     fill="#375d8e"
     d="m 90.228805,86.825703 c 5.9175,-2.7885 12.975005,-0.258 15.775505,5.6565 2.8005,5.913 0.2865,12.976497 -5.619,15.791997 -5.925005,2.823 -13.015505,0.2985 -15.825005,-5.634 -2.8095,-5.932497 -0.2685,-13.018497 5.6685,-15.814497 z"
     id="path338"
     style="stroke-width:1.5" />
  <path
     fill="#335584"
     d="m 109.67031,111.0417 -0.4275,-3.51 c 5.775,-2.8335 18.7065,3.573 24.4875,6.4455 -2.5065,4.0965 -4.821,8.796 -8.5515,11.571 l -1.644,0.0795 -3.186,3.7035 c -1.668,-0.1035 -3.339,-0.183 -5.0085,-0.24 -3.7875,-3.0045 -4.9365,-3.651 -6.8505,-8.289 -0.108,-5.157 -3.4455,-5.328 -2.9445,-9.45 1.8405,-0.288 2.2665,-0.345 4.125,-0.3105 z"
     id="path339"
     style="stroke-width:1.5" />
  <path
     fill="#4e77aa"
     d="m 108.48981,120.8022 c -0.108,-5.157 -3.4455,-5.328 -2.9445,-9.45 1.8405,-0.288 2.2665,-0.345 4.125,-0.3105 5.0775,4.0095 9.588,9.648 13.8645,14.586 l -3.186,3.7035 c -1.668,-0.1035 -3.339,-0.183 -5.0085,-0.24 -3.7875,-3.0045 -4.9365,-3.651 -6.8505,-8.289 z"
     id="path340"
     style="stroke-width:1.5" />
  <path
     fill="#335584"
     d="m 77.609305,107.2137 2.829,0.198 0.882,1.77 c -2.745,6.594 -8.9985,14.652 -14.652,19.023 -3.6705,-3.786 -6.528,-8.493 -9.504,-12.8355 z"
     id="path341"
     style="stroke-width:1.5" />
  <path
     fill="#375d8e"
     d="m 89.969305,110.9907 c 2.013,7.8 3.7125,18.252 -0.063,25.5645 -4.119,1.74 -6.102,0.366 -10.3245,-0.834 l -2.5875,-2.127 c -0.006,-5.9625 9.4335,-17.355 12.975,-22.6035 z"
     id="path342"
     style="stroke-width:1.5" />
  <path
     fill="#375d8e"
     d="m 86.567305,56.710203 1.425,0.4065 c 0.726,1.2285 1.248,2.1465 1.632,3.5325 1.4775,5.331 2.4015,16.71 -0.534,21.3585 l -2.436,-2.526 c -3.6705,-5.403 -9.969,-10.917 -10.2945,-17.559 2.3445,-3.474 6.3825,-4.0635 10.2075,-5.2125 z"
     id="path343"
     style="stroke-width:1.5" />
  <path
     fill="#335584"
     d="m 66.291805,67.019703 c 4.338,5.2425 14.346,15.348 14.5185,21.894 l -2.5185,-0.2025 -21.48,-7.9965 c 2.7945,-4.764 6.2505,-9.2145 9.48,-13.695 z"
     id="path344"
     style="stroke-width:1.5" />
  <path
     fill="#375d8e"
     d="m 115.34031,129.0912 c 0.036,1.5525 -0.2355,2.8605 -0.453,4.4025 -3.801,2.376 -9.036,5.3235 -13.362,3.4065 -0.4065,-5.0205 -2.325005,-19.023 -0.543,-22.8675 3.96,0.9195 4.389,2.934 7.5075,6.7695 1.914,4.638 3.063,5.2845 6.8505,8.289 z"
     id="path345"
     style="stroke-width:1.5" />
  <path
     fill="#375d8e"
     d="m 134.76681,88.987203 c 2.142,1.8195 2.115,2.2395 2.4555,5.0445 0.474,3.9285 -0.005,5.82 -2.3565,8.747997 -4.6815,1.4415 -11.166,-1.395 -15.768,-2.797497 l -4.839,-1.8585 -0.033,-1.902 c 5.751,-3.9435 13.869,-5.352 20.541,-7.2345 z"
     id="path346"
     style="stroke-width:1.5" />
  <path
     fill="#375d8e"
     d="m 99.969805,55.645203 c 5.526005,1.023 10.893005,3.411 16.137005,5.3985 -3.4245,4.3935 -6.573,9.054 -9.819,13.5825 l -6.507005,9.0855 z"
     id="path347"
     style="stroke-width:1.5" />
  <path
     fill="#335584"
     d="m 122.92581,66.689703 c 4.266,3.318 7.347,8.358 10.4985,12.711 l -15.468,6.036 c -2.9385,0.855 -4.2525,1.545 -7.2735,0.8385 0.153,-5.667 8.748,-14.817 12.243,-19.5855 z"
     id="path348"
     style="stroke-width:1.5" />
  <path
     fill="#375d8e"
     d="m 53.664805,89.920203 c 5.9805,1.6395 18.912,3.837 22.413,8.6415 l -1.92,1.627497 c -3.2715,1.1085 -6.5595,2.2605 -9.8805,3.213 -4.122,1.185 -6.0765,1.3695 -9.78,-0.6405 -2.1225,-4.060497 -1.2075,-8.425497 -0.8325,-12.841497 z"
     id="path349"
     style="stroke-width:1.5" />
  <path
     fill="#375d8e"
     d="m 93.143305,54.616203 1.86,0.852 c 4.725,6.6585 2.2305,19.4415 1.7565,27.378 l -2.5545,-2.0355 c -2.259,-8.325 -1.725,-17.664 -1.062,-26.1945 z"
     id="path350"
     style="stroke-width:1.5" />
  <path
     fill="#4e77aa"
     d="m 118.17531,63.103203 c 0.636,0.741 1.08,2.037 1.503,2.928 -2.361,7.548 -9.042,14.4465 -14.178,20.2485 l -1.122,-2.3745 c 1.473,-7.6035 8.8185,-15.045 13.797,-20.802 z"
     id="path351"
     style="stroke-width:1.5" />
  <path
     fill="#476fa3"
     d="m 69.702805,62.980203 c 1.0395,0.4155 1.7625,0.696 2.6295,1.4265 4.8705,4.0995 13.6215,15.8445 14.241,22.2195 -2.499,-1.1175 -3.8535,-2.397 -5.652,-4.422 -4.0965,-4.6155 -11.628,-12.711 -11.2185,-19.224 z"
     id="path352"
     style="stroke-width:1.5" />
  <path
     fill="#335584"
     d="m 94.556305,112.2717 c 0.2145,0.1965 0.4455,0.375 0.642,0.588 4.521,4.857 3.0885,19.557 2.862,26.1225 -1.362,-0.471 -1.794,-0.7515 -2.781,-1.884 -3.588,-4.113 -1.1265,-19.371 -0.723,-24.8265 z"
     id="path353"
     style="stroke-width:1.5" />
  <path
     fill="#375d8e"
     d="m 133.32231,82.442703 0.636,0.9105 -0.555,2.493 c -6.369,3.7965 -14.0535,5.5215 -21.1155,7.6515 l -0.861,-1.218 0.3915,-1.7355 c 6.3405,-4.071 14.352,-5.865 21.504,-8.1015 z"
     id="path354"
     style="stroke-width:1.5" />
  <path
     fill="#375d8e"
     d="m 54.896305,85.070703 c 8.7135,-1.1625 19.1925,3.834 25.9995,8.904 -1.4745,0.072 -2.943,0.0435 -4.4085,-0.153 -6.678,-0.894 -17.2875,-3.1455 -21.591,-8.751 z"
     id="path355"
     style="stroke-width:1.5" />
  <path
     fill="#375d8e"
     d="m 84.686305,109.9137 1.197,2.1495 c -2.856,7.2855 -8.337,13.803 -12.852,20.1525 -1.0575,-1.2045 -1.2345,-1.866 -1.7055,-3.3615 2.889,-7.095 8.568,-13.044 13.3605,-18.9405 z"
     id="path356"
     style="stroke-width:1.5" />
  <path
     fill="#375d8e"
     d="m 108.37131,101.0757 c 3.492,-0.6345 6.78,0.096 10.1955,0.837 5.508,1.1955 13.6335,2.9775 16.872,8.016 -8.7165,-1.623 -20.058,-3.2295 -27.0675,-8.853 z"
     id="path357"
     style="stroke-width:1.5" />
  <path
     fill="#375d8e"
     d="m 76.163305,102.2277 c 1.722,0.018 1.503,0.138 2.7615,1.1115 -4.752,3.891 -13.416,5.9415 -19.236,8.139 l -3.144,-0.8715 0.5115,-1.6605 c 5.661,-3.429 12.7815,-4.878 19.107,-6.7185 z"
     id="path358"
     style="stroke-width:1.5" />
</svg>
