<?xml version="1.0" encoding="UTF-8" standalone="no"?>
<svg
   width="928"
   height="1152"
   viewBox="0 0 928 1152"
   version="1.1"
   id="svg76"
   sodipodi:docname="whistle.svg"
   inkscape:version="1.4.4 (dcaf3e7d9e, 2026-05-05)"
   xmlns:inkscape="http://www.inkscape.org/namespaces/inkscape"
   xmlns:sodipodi="http://sodipodi.sourceforge.net/DTD/sodipodi-0.dtd"
   xmlns="http://www.w3.org/2000/svg"
   xmlns:svg="http://www.w3.org/2000/svg">
  <defs
     id="defs76" />
  <sodipodi:namedview
     id="namedview76"
     pagecolor="#ffffff"
     bordercolor="#000000"
     borderopacity="0.25"
     inkscape:showpageshadow="2"
     inkscape:pageopacity="0.0"
     inkscape:pagecheckerboard="0"
     inkscape:deskcolor="#d1d1d1"
     inkscape:zoom="0.55387931"
     inkscape:cx="399.00389"
     inkscape:cy="568.71595"
     inkscape:window-width="2560"
     inkscape:window-height="1387"
     inkscape:window-x="0"
     inkscape:window-y="53"
     inkscape:window-maximized="1"
     inkscape:current-layer="svg76" />
  <path
     fill="#BCD8EC"
     d="M450.6 104.304C455.958 103.71 467.254 103.955 472.851 104.016C540.065 105.109 607.488 128.373 655.295 176.752C686.297 207.76 697.369 248.521 653.382 274.271C639.65 282.309 636.749 278.387 636.572 294.145C647.179 301.235 639.89 311.96 633.689 318.949C630.499 319.462 627.462 314.311 623.809 312.364C615.493 307.933 606.806 304.703 598.083 301.296C589.596 303.139 585.499 301.241 577.39 298.656L573.909 294.383C569.569 292.597 561.038 291.005 556.284 290.047C529.391 284.806 502.087 281.955 474.691 281.526C440.412 281.101 406.199 284.669 372.744 292.16C368.027 293.188 358.441 295.034 354.472 297.347C354.116 298.003 353.041 300.149 352.481 300.446C345.712 304.04 338.134 305.466 330.638 304.393C326.946 305.902 323.204 307.327 319.461 308.706C310.809 311.895 303.174 317.146 294.908 321.163C287.207 313.51 281.492 306.376 290.665 296.632C291.107 281.311 290.46 285.495 277.826 278.615C211.452 242.471 250.813 191.231 293.894 159.196C342.64 122.948 391.261 107.797 450.6 104.304Z"
     id="path20" />
  <path
     fill="#27405A"
     d="M290.784 275.657C276.288 268.144 257.663 258.059 252.425 241.634C245.595 220.22 263.928 197.797 278.065 183.95C306.317 156.277 340.674 137.39 378.167 125.447C449.358 103.758 530.822 108.58 596.937 143.979C625.807 159.437 661.151 186.171 672.254 218.49C679.469 239.488 666.726 256.534 648.679 266.648C646.373 267.927 642.378 269.984 640.298 271.357C638.987 271.997 638.549 272.359 637.088 272.24C634.09 265.18 639.045 255.726 631.891 246.762C625.646 238.936 618.597 234.814 610.524 229.429C579.459 208.711 548.044 200.142 511.596 194.459L510.237 202.352C546.462 208.24 582.368 218.254 612.24 240.504C617.89 244.713 623.742 248.326 627.616 254.382C628.663 263.786 628.611 279.479 628.91 289.397C619.312 283.681 613.512 280.848 603.208 276.495C600.153 268.165 595.724 265.309 586.584 264.212C582.336 263.702 580.177 264.354 576.918 267.257C502.758 246.401 424.197 247.071 350.403 269.188C344.313 264.171 333.181 268.372 327.482 272.783C325.278 274.489 326.169 277.613 322.307 279.342C314.344 282.909 306.463 286.743 298.524 290.339C298.613 282.845 298.336 270.03 299.142 263.068C299.116 262.402 299.098 261.736 299.089 261.07C299.039 257.222 299.014 255.049 301.669 252.322C305.506 247.569 312.22 242.435 317.256 238.816C344.895 218.957 387.241 205.68 420.892 202.146C422.168 202.012 423.446 201.892 424.724 201.787C424.575 199.233 424.496 196.455 424.084 193.95C380.937 198.16 328.426 214.042 296.416 246.025C289.473 252.962 291.412 266.159 290.784 275.657Z"
     id="path21" />
  <path
     fill="#253D57"
     d="M640.298 271.357C640.176 268.674 639.744 267.949 641.818 266.218C644.219 265.738 646.235 266.263 648.679 266.648C646.373 267.927 642.378 269.984 640.298 271.357Z"
     id="path22" />
  <path
     fill="#BCD8EC"
     d="M449.861 210.802C449.427 208.819 449.097 207.37 448.883 205.34L448.842 204.934L448.071 204.581C446.644 205.555 445.977 206.204 444.261 206.431C443.423 204.687 444.63 205.42 444.797 202.582C443.102 203.43 442.407 203.696 440.595 204.258L439.763 203.643C439.493 201.313 440.653 199.294 441.245 196.619C439.443 196.34 437.038 196.25 436.362 194.379C437.669 193.776 438.055 193.715 439.075 192.689C436.79 191.591 436.827 192.737 435.635 191.162C436.119 188.827 438.137 188.788 438.528 186.55L435.864 184.969L435.763 184.24L437.231 183.831L437.327 183.315L435.5 181.519C435.834 179.536 436.34 180.353 438.449 178.29C437.592 177.349 437.448 177.341 437.028 176.166C438.139 174.612 439.212 172.297 440.1 170.545C441.033 170.018 441.008 170.065 442.037 170.002L441.654 167.827C445.568 165.29 442.616 166.11 445.138 164.209C452.543 165.283 463.397 173.564 458.325 181.296C457.624 182.364 458.272 183.539 458.78 184.454C462.455 184.995 465.845 175.354 466.303 172.387C464.978 171.094 462.538 171.184 460.07 169.857L460.298 169.088L461.751 169.227L462.351 168.667C460.68 168.098 460.937 168.558 460.3 167.518C466.373 161.482 460.866 161.662 462.241 158.607C466.582 159.733 468.469 157.045 472.797 158.87C471.25 164.221 472.76 165.633 473.073 171.033C473.271 174.462 471.403 182.544 474.642 184.814C476.487 184.203 476.427 184.278 477.851 182.99C471.188 173.645 479.279 168.707 487.594 164.316C488.62 163.774 490.118 164.185 491.118 164.744C491.057 168.185 493.798 168.546 494.714 172.77L496.643 172.817C497.535 174.121 497.084 177.013 496.99 178.772L499.269 180.052L499.542 181.145L497.913 182.815C498.227 185.617 498.843 188.414 499.392 191.182L498.844 191.853L495.704 191.813L495.339 192.484C496.846 193.586 497.104 193.775 498.324 195.165C497.255 196.014 494.221 195.794 492.659 195.82C493.488 197.974 495.619 202.137 494.206 204.056C492.744 203.822 491.88 203.183 490.596 202.446L490.374 202.713L491.854 206.39L491.296 207.056C489.738 206.544 488.511 205.028 487.217 203.792L486.596 203.899C486.326 205.626 485.994 207.343 485.601 209.047L484.772 209.442L482.175 207.089L480.318 207.617C478.857 211.962 481.877 213.706 484.937 216.647C487.143 216.041 488.581 215.321 490.608 216.145C493.694 219.475 490.051 223.291 487.109 225.334C485.737 224.678 485.734 220.444 482.751 219.744L481.116 221.534C479.432 221.398 480.206 221.647 478.743 220.667L478.186 220.299L476.916 222.008C477.332 223.599 477.608 223.853 478.528 225.16C477.931 229.805 473.779 228.234 471.058 226.865C469.053 227.779 470.286 229.56 467.942 231.405C465.403 229.897 466.217 226 464.282 226.909C461.466 228.231 462.91 228.423 459.869 228.421C458.36 227.522 458.208 227.594 457.449 225.969C457.792 224.28 457.912 224.124 458.596 222.607L457.829 221.61L455.948 222.206C454.086 221.117 453.65 219.648 451.263 220.502C450.865 222.871 450.907 223.962 449.19 225.417C448.457 224.358 447.955 223.684 447.141 222.687L445.624 223.409L444.606 222.906C443.829 220.844 443.947 221.711 444.492 219.411C444.083 218.91 443.656 218.494 443.15 218.091C445.601 213.191 454.117 219.156 455.873 209.334L454.813 208.522C454.353 206.074 457.176 205.178 456.858 202.349C454.218 206.164 452.963 204.504 449.861 210.802Z"
     id="path23" />
  <path
     fill="#253D57"
     d="M455.948 222.206C456.079 219.886 455.763 219.544 454.58 217.538C456.296 212.533 458.299 213.707 462.239 211.122C462.615 210.876 463.851 205.782 464.906 205.348C465.143 208.458 464.483 210.086 464.429 213.223C463.392 214.377 463.03 214.501 461.718 215.241C461.975 217.909 463.53 216.461 463.391 218.848C461.273 220.111 460.134 217.765 457.599 219.199C457.468 220.788 457.299 220.269 457.829 221.61L455.948 222.206Z"
     id="path24" />
  <path
     fill="#253D57"
     d="M478.186 220.299L477.477 218.8C474.518 217.843 473.914 221.076 472.085 218.206C472.651 217.397 473.233 216.598 473.829 215.811C471.823 212.613 469.69 215.465 471.538 211.208L471.324 210.569C470.632 208.46 470.374 207.813 470.31 205.548L470.669 205.122C472.499 207.398 472.621 210.105 473.571 211.052C477.24 214.712 479.423 212.282 480.356 218.086C479.793 219.137 479.406 219.693 478.743 220.667L478.186 220.299Z"
     id="path25" />
  <path
     fill="#253D57"
     d="M475.757 198.698L482.175 207.089L480.318 207.617C478.745 204.747 476.982 201.709 475.757 198.698Z"
     id="path26" />
  <path
     fill="#27405A"
     d="M448.486 260.156C480.713 258.208 517.636 261.325 549.197 267.605C558.967 269.549 567.962 272.405 577.536 274.415C577.585 279.395 577.067 281.956 576.267 286.84C542.69 277.849 512.535 275.127 478.029 273.863C440.988 273.491 387.455 277.861 352.146 289.616C351.426 285.709 350.877 281.152 350.3 277.175C378.869 267.361 418.604 261.573 448.486 260.156Z"
     id="path27" />
  <path
     fill="#27405A"
     d="M303.108 296.563C307.976 293.614 319.408 288.76 324.99 286.217C325.525 290.646 325.811 293.24 327.442 297.411C320.376 300.461 310.239 304.708 303.79 308.607L299.27 310.903C299.311 305.739 299.263 304.267 297.509 299.426L303.108 296.563Z"
     id="path28" />
  <path
     fill="#27405A"
     d="M303.108 296.563C304.667 298.833 303.93 305.64 303.79 308.607L299.27 310.903C299.311 305.739 299.263 304.267 297.509 299.426L303.108 296.563Z"
     id="path29" />
  <path
     fill="#27405A"
     d="M603.363 284.104C608.203 285.905 626.109 294.486 629.636 297.424C630.146 298.984 629.426 307.299 629.094 309.004C619.751 302.957 611.422 298.986 601.226 294.755C602.466 291.083 602.812 287.91 603.363 284.104Z"
     id="path30" />
  <path
     fill="#27405A"
     d="M584.947 271.316C588.958 272.292 593.537 272.815 595.692 276.771C598.247 281.462 595.659 290.494 593.586 295.045C590.37 294.542 585.616 293.283 582.337 292.519C585.005 283.777 584.929 280.301 584.947 271.316Z"
     id="path31" />
  <path
     fill="#27405A"
     d="M341.519 275.162L341.837 275.227C341.853 275.249 345.173 292.295 345.972 295.108C342.31 296.174 340.105 296.694 336.354 297.345C332.418 295.256 330.683 282.603 332.625 278.659C333.463 276.956 339.677 275.626 341.519 275.162Z"
     id="path32" />
  <path
     fill="#BCD8EC"
     d="M339.215 332.281C406.073 353.931 528.742 356.068 594.769 333.514C594.419 339.128 593.658 348.282 594.388 353.679C595.691 364.562 601.482 374.194 602.901 385.05C603.759 389.722 603.461 394.383 603.674 399.061C603.916 404.356 602.123 410.995 608.03 413.395C615.255 412.803 616.381 399.863 620.843 396.553C645.203 378.478 652.767 411.949 650.643 429.228C648.579 446.014 644.388 459.419 632.454 471.129C628.626 474.886 620.206 479.352 614.689 478.995C608.46 477.854 613.653 471.729 609.05 465.907C606.598 466.431 606.26 466.498 604.352 468.1C599.634 498.564 591.83 540.767 570.59 564.412C567.147 560.12 564.063 556.544 558.382 555.339C559.802 557.681 560.299 557.59 560.055 559.931C556.938 563.159 548.867 561.216 546.536 558.903L545.201 560.147C545.551 560.388 537.595 550.254 535.37 547.905C526.705 538.754 511.195 523.412 501.122 516.763C496.629 513.798 467.753 515.975 460.936 516.498C456.985 516.8 450.405 521.696 445.463 523.222C444.05 517.484 440.22 501.515 433.282 500.684L431.741 501.246C430.842 507.368 439.316 519.407 437.181 530.14C435.158 540.315 431.1 543.243 428.603 550.91C430.005 552.65 429.296 552.245 431.273 552.86C439.934 551.532 443.775 538.58 445.088 531.29C446.911 530.942 448.736 530.608 450.564 530.29C450.497 532.485 450.485 534.749 450.487 536.952C450.493 547.527 472.327 561.836 470.036 570.834C466.094 573.787 456.946 566.33 450.464 571.324C446.002 574.762 444.603 577.292 443.325 583.134C441.914 594.154 440.28 604.893 438.24 615.829C418.901 611.108 408.255 606.319 392.44 593.999C390.319 596.656 388.473 598.082 386.982 599.878L382.303 596.152C384.114 594.695 385.889 591.152 386.283 588.808C345.066 553.094 334.545 520.502 326.052 468.619C325.818 467.187 324.091 466.012 322.842 465.464C316.704 467.533 321.988 474.491 318.816 477.948C308.592 480.227 301.075 476.802 293.228 468.603C277.844 452.526 269.033 413.321 285.345 395.332C292.834 387.073 310.244 394.103 313.637 404.008C314.895 406.155 317.343 415.557 319.284 416.649C333.685 424.755 333.157 407.537 333.195 401.184C333.241 393.439 332.191 384.254 333.174 379.297C336.878 360.627 342.064 351.746 339.215 332.281Z"
     id="path33" />
  <path
     fill="#253D57"
     d="M546.536 558.903C550.769 555.009 552.98 554.836 558.382 555.339C559.802 557.681 560.299 557.59 560.055 559.931C556.938 563.159 548.867 561.216 546.536 558.903Z"
     id="path34" />
  <path
     fill="#253D57"
     d="M386.283 588.808L392.44 593.999C390.319 596.656 388.473 598.082 386.982 599.878L382.303 596.152C384.114 594.695 385.889 591.152 386.283 588.808Z"
     id="path35" />
  <path
     fill="#27405A"
     d="M485.995 382.111C488.585 382.675 488.146 382.173 489.667 383.785C490.965 389.544 491.522 396.853 492.144 402.842C494.142 422.786 501.22 441.777 503.702 461.621C505.1 472.801 498.944 481.822 488.401 485.444C477.662 489.133 468.47 486.758 458.474 482.047C455.891 480.252 451.558 476.447 455.471 473.563C463.967 471.87 476.803 485.032 489.165 476.226C500.327 468.275 495.125 457.624 493.142 447.058C489.352 426.866 480.976 402.329 485.995 382.111Z"
     id="path36" />
  <path
     fill="#27405A"
     d="M382.004 362.953C394.664 359.099 405.913 357.546 419.064 360.692C424.047 361.811 431.17 363.23 433.358 368.495C434.403 371.009 430.86 373.627 428.699 373.4C417.808 372.252 408.023 368.412 396.784 369.898C391.905 370.543 387.71 371.252 383.03 373.013C377.18 374.677 368.699 379.956 363.143 378.305C361.801 376.738 362.12 377.613 362.063 375.625C364.148 371.15 370.433 368.185 374.714 365.869L382.004 362.953Z"
     id="path37" />
  <path
     fill="#253D57"
     d="M374.714 365.869L382.004 362.953C383.299 365.159 383.765 365.165 383.755 367.51C381.059 371.393 376.585 369.706 374.714 365.869Z"
     id="path38" />
  <path
     fill="#27405A"
     d="M537.25 356.834C545.93 356.009 578.726 361.048 579.903 371.038C576.873 378.438 562.95 370.596 556.108 368.672C544.073 366.04 535.428 366.96 523.667 370.024C519.446 371.123 512.796 373.177 510.818 368.11C511.601 359.176 530.191 357.73 537.25 356.834Z"
     id="path39" />
  <path
     fill="#27405A"
     d="M399.117 389.358C412.518 388.445 416.352 400.634 413.538 411.778C412.408 416.252 409.569 418.725 405.578 420.71C386.713 421.94 385.605 396.579 399.117 389.358Z"
     id="path40" />
  <path
     fill="#27405A"
     d="M539.999 388.143C555.646 388.728 559.131 414.721 543.112 420.245C526.247 419.834 524.674 394.354 539.999 388.143Z"
     id="path41" />
  <path
     fill="#253D57"
     d="M535.46 393.444C536.554 395.459 536.558 411.906 535.053 413.301L534.287 412.789C534.336 409.337 533.52 398.986 533.918 396.799L534.902 397.946L535.349 397.7L535.46 393.444Z"
     id="path42" />
  <path
     fill="#27405A"
     d="M290.799 406.176C307.334 404.971 320.862 433.253 314.315 439.957L313.007 439.926C308.749 437.31 307.572 431.518 305.995 426.857C302.781 432.551 301.45 434.819 301.635 441.488C302.554 446.474 307.357 450.235 304.844 454.136C297.724 456.828 293.647 444.314 294.199 438.84C295.024 430.648 297.36 426.889 303.3 421.524C298.771 415.65 293.164 413.58 289.861 409.399C289.722 407.295 289.573 408.126 290.799 406.176Z"
     id="path43" />
  <path
     fill="#27405A"
     d="M633.526 406.114C636.037 406.201 637.197 405.97 638.484 408.246C637.769 411.956 630.374 414.597 626.473 420.699L626.114 421.267C632.203 426.746 634.836 433.416 634.107 441.625C633.652 446.749 630.072 454.569 623.89 453.725C620.72 450.816 623.225 448.025 625.082 445.112C625.219 444.737 625.348 444.359 625.471 443.979C627.712 436.983 626.165 433.038 623.021 426.918C621.624 431.154 620.308 438.686 615.373 439.585C610.807 436.492 614.319 427.527 616.154 423.452C619.95 415.026 624.799 409.447 633.526 406.114Z"
     id="path44" />
  <path
     fill="#BCD8EC"
     d="M476.699 667.595C477.539 667.707 478.122 667.735 478.929 667.325C502.294 655.456 524.311 636.295 540.439 615.72C544.574 610.445 549.968 603.499 551.606 596.643C553.906 587.009 548.824 575.498 550.833 566.527C551.273 565.328 553.464 563.315 554.672 563.149C566.014 561.59 573.561 587.032 575.72 593.965C580.809 610.307 571.599 624.941 563.65 638.387C564.666 639.398 568.789 642.674 569.994 643.011C575.085 635.247 578.249 629.166 581.831 620.594C587.466 631.871 589.483 637.88 585.256 650.414C582.134 659.671 578.669 665.946 573.399 673.998L573.672 674.315C575.943 676.991 576.233 678.962 579.163 680.595L589.52 662.42C592.147 677.736 589.998 687.915 581.505 701.046C578.411 705.829 569.593 716.44 571.278 721.876C575.424 725.089 583.574 712.534 585.95 709.433C584.044 723.649 579.594 729.981 570.182 740.402C548.759 764.123 518.463 776.671 494.742 797.719C486.431 805.094 480.415 813.591 474.272 822.734C444.055 804.93 421.538 786.851 397.004 761.94C417.212 737.922 417.47 713.612 422.546 684.264C424.397 673.56 430.78 660.332 435.341 650.254C444.329 630.392 448.555 609.93 450.501 588.292C451.214 577.047 458.783 572.718 466.507 582.747C483.959 605.407 469.15 630.903 471.673 654.913C480.838 659.661 475.597 661.145 476.699 667.595Z"
     id="path45" />
  <path
     fill="#27405A"
     d="M557.621 647.416C560.478 649.561 560.817 651.744 562.048 655.143C558.868 659.595 550.309 673.852 544.488 673.385C542.297 671.096 542.67 669.918 544.329 667.06C548.198 660.395 553.239 653.74 557.621 647.416Z"
     id="path46" />
  <path
     fill="#253D57"
     d="M573.399 673.998L573.672 674.315C575.943 676.991 576.233 678.962 579.163 680.595C576.68 684.431 568.825 698.677 563.439 697.401C560.934 691.758 570.425 678.741 573.399 673.998Z"
     id="path47" />
  <path
     fill="#253D57"
     d="M563.65 638.387C564.666 639.398 568.789 642.674 569.994 643.011C567.41 647.097 564.761 651.142 562.048 655.143C560.817 651.744 560.478 649.561 557.621 647.416C559.128 644.809 561.898 640.978 563.65 638.387Z"
     id="path48" />
  <path
     fill="#253D57"
     d="M471.673 654.913C480.838 659.661 475.597 661.145 476.699 667.595C474.05 665.114 472.778 658.704 471.673 654.913Z"
     id="path49" />
  <path
     fill="#BCD8EC"
     d="M355.253 600.457C355.543 603.627 355.85 606.394 355.771 609.584C343.27 616.132 331.315 630.218 320.289 639.303C316.415 642.494 312.241 646.715 310.993 651.579C307.496 664.174 304.991 677.037 301.772 689.706C298.064 706.381 291.658 726.443 290.026 743.134L290.758 743.479C300.399 747.973 332.437 752.115 336.636 758.038C337.214 765.077 319.438 793.713 315.342 803.259C316.696 805.208 317.848 806.932 319.423 808.728C329.019 798.932 337.809 788.44 347.194 778.481C355.328 769.849 363.927 758.135 376.791 757.925C377.841 757.914 378.891 757.939 379.939 758C372.614 766.577 367.084 769.186 360.786 776.016L269.76 874.812L267.078 877.865C242.171 904.788 217.781 932.989 192.46 959.637C190.397 961.808 185.145 966.631 182.19 964.726C181.308 962.089 181.899 960.273 183.622 958.072C196.654 941.428 211.536 926.34 225.803 910.763C255.472 878.973 284.867 846.929 313.986 814.634C310.5 810.857 308.578 808.813 305.887 804.456C307.892 795.598 322.887 770.773 327.937 761.942C318.266 759.48 288.809 753.961 282.976 749.167C280.39 744.286 282.343 734.901 283.675 729.677C290.06 704.635 295.642 678.84 302.136 653.906C293.708 658.773 284.25 663.241 275.466 667.567C256.792 676.76 237.958 685.628 218.975 694.166C194.485 705.408 160.48 719.597 141.554 738.023L139.301 740.278C118.489 766.914 104.588 875.29 101.158 912.414C99.9673 925.307 98.7562 941.489 97.6414 954.721C97.0652 961.558 96.6188 969.181 95.7144 976.056C95.3327 978.957 94.4621 981.946 92.582 984.213C84.9483 987.782 86.9869 972.708 87.1437 969.291C87.4233 963.195 87.8859 957.08 88.3739 950.998C90.8645 920.103 94.3472 889.295 98.8165 858.623C103.131 828.383 114.222 752.674 136.658 729.945C154.942 711.421 199.852 693.417 223.611 681.973C237.779 675.148 256.753 666.132 271.426 659.495L274.619 658.027C283.632 653.477 295.265 647.518 304.663 644.129C308.397 638.693 312.783 634.204 318.045 630.249C330.483 620.898 340.96 606.769 355.253 600.457Z"
     id="path50" />
  <path
     fill="#BCD8EC"
     d="M584.738 610.945C595.291 614.953 618.063 632.948 623.299 642.273C639.707 648.754 654.449 656.378 670.497 663.484L711.847 681.989C736.397 692.938 761.48 704.178 783.196 720.851C803.308 736.292 806.322 764.869 813.734 786.845C821.549 810.014 846.582 975.61 838.897 984.032C834.896 985.312 832.801 981.556 832.264 978.126C831.097 970.669 830.549 963.119 829.839 955.603C828.665 942.814 827.397 930.034 826.036 917.264C821.336 873.666 815.48 828.639 804.464 786.068C798.265 762.111 793.35 737.02 771.046 722.78C729.62 696.331 681.385 680.691 637.81 658.047C634 656.067 629.694 653.906 625.771 652.278C629.814 664.038 654.984 734.821 651.808 741.759C648.607 748.75 608.927 755.486 607.539 759.569C607.91 760.258 608.45 761.351 608.847 761.975C611.542 761.888 610.906 761.492 612.593 762.812C613.747 765.05 613.901 767.732 613.245 770.143C616.819 778.791 627.076 791.72 627.726 801.159C627.882 803.415 623.334 809.218 621.738 811.248C607.332 829.559 592.047 847.158 576.945 864.891L532.181 918.095C523.639 928.198 515.787 938.783 506.988 948.65C504.462 951.483 500.494 956.69 496.446 956.178C493.952 952.984 496.736 949.289 498.888 946.481C510.725 931.033 523.351 916.02 535.904 901.138L586.643 840.646C597.17 828.017 609.712 813.273 619.602 800.238C613.852 788.837 606.864 777.497 600.965 766.154C599.965 764.368 596.825 757.541 597.928 755.702C600.413 751.56 611.029 748.789 615.382 746.892L617.16 746.483C626.19 742.958 635.458 740.931 644.132 737.698C637.226 713.301 630.391 689.348 621.871 665.423C619.517 658.811 616.771 648.584 613.097 643.005C609.043 636.849 599.485 630.934 594.414 625.501C590.957 621.798 587.924 615.394 584.738 610.945Z"
     id="path51" />
  <path
     fill="#253D57"
     d="M608.847 761.975C611.542 761.888 610.906 761.492 612.593 762.812C613.747 765.05 613.901 767.732 613.245 770.143C611.81 767.746 610.193 764.496 608.847 761.975Z"
     id="path52" />
  <path
     fill="#BCD8EC"
     d="M358.036 619.74C363.128 625.679 367.16 632.094 372.819 638.24C386.482 653.077 400.686 662.211 417.462 672.685C410.6 695.684 411.606 713.948 403.464 736.723C402.129 740.038 398.993 745.27 397.154 748.551C393.882 742.882 390.113 732.983 387.648 726.815C382.78 714.717 378.068 702.557 373.516 690.336C368.705 677.492 363.775 664.804 359.438 651.778C355.3 639.349 354.798 632.338 358.036 619.74Z"
     id="path53" />
  <path
     fill="#BCD8EC"
     d="M495.877 522.254L497.363 522.218C504.709 526.937 530.746 553.285 536.574 561.508C542.841 570.351 545.154 587.268 543.306 598.468C539.101 595.348 535.668 593.15 530.034 593.581C526.582 593.822 523.378 595.461 521.162 598.12C517.721 602.279 517.675 605.271 518.12 610.179C514.538 613.833 513.325 615.448 511.213 620.077C510.164 620.659 504.945 621.123 503.397 621.309C507.805 613.426 509.347 608.747 509.725 599.569C510.641 577.381 500.015 564.772 486.422 549.037C479.145 540.698 471.731 532.481 464.182 524.388C474.612 523.281 484.705 523.513 495.877 522.254Z"
     id="path54" />
  <path
     fill="#27405A"
     d="M509.078 544.275C511.27 543.971 514.57 543.869 516.875 543.735C519.704 546.586 525.856 551.574 525.111 555.579C522.517 558.15 512.555 558.515 508.476 558.959C506.11 559.297 503.907 559.401 501.531 559.54C498.421 556.838 491.653 551.944 491.733 547.86C494.02 545.11 504.867 544.738 509.078 544.275Z"
     id="path55" />
  <path
     fill="#BCD8EC"
     d="M363.277 577.551C369.624 584.357 375.187 590.164 382.303 596.152L386.982 599.878C401.254 611.911 418.482 619.912 436.883 623.053C434.239 634.826 425.228 653.13 420.017 665.144C407.65 656.929 396.872 649.666 385.861 639.88C358.875 615.895 365.23 610.265 363.277 577.551Z"
     id="path56" />
  <path
     fill="#EEE3A6"
     d="M722.077 455.334C724.807 456.045 726.61 457.302 728.573 459.287C768.313 499.463 774.169 567.973 742.992 614.871C738.942 620.964 735.17 625.408 730.195 630.74C727.807 633.491 723.071 638.762 719.648 634.015C719.584 633.231 719.668 631.676 720.147 630.997C752.127 585.646 753.93 523.111 728.323 474.48C725.709 469.516 721.806 464.149 719.762 459.029C719.95 457.287 720.86 456.643 722.077 455.334Z"
     id="path57" />
  <path
     fill="#BCD8EC"
     d="M311.641 320.549C312.725 320.601 328.121 328.226 331.102 329.434C336.006 352.539 327.072 360.649 325.269 382.647C324.756 388.911 326.499 405.731 325.084 409.185L324.351 408.847L323.252 405.688C317.992 393.382 312.535 388.33 299.889 384.089C299.366 376.616 298.191 368.969 297.715 361.335C296.948 349.058 297.854 339.066 299.365 326.965C303.142 325.214 307.879 322.535 311.641 320.549Z"
     id="path58" />
  <path
     fill="#BCD8EC"
     d="M386.243 762.545C390.795 765.708 404.38 780.447 409.682 785.211C430.391 803.818 457.37 823.842 482.452 835.707C480.713 838.87 477.019 844.083 474.931 847.313C470.879 845.97 461.533 841.061 457.573 838.906C435.124 826.689 412.631 808.992 394.504 790.995C389.276 785.804 382.532 777.729 377.513 772.113C380.687 768.826 383.27 766.061 386.243 762.545Z"
     id="path59" />
  <path
     fill="#EEE3A6"
     d="M681.58 484.794C684.218 485.626 686.869 487.735 688.774 489.725C719.147 521.444 718.437 572.906 687.754 604.03C685.177 606.478 683.372 607.816 679.737 606.733C678.9 605.68 678.419 604.26 679.052 603.021C686.847 587.76 692.052 576.636 694.178 559.202C696.725 539.504 693.51 519.491 684.92 501.583C683.599 498.851 678.559 490.535 678.403 488.556C679.362 486.501 679.792 486.32 681.58 484.794Z"
     id="path60" />
  <path
     fill="#BCD8EC"
     d="M618.891 320.532C621.551 320.338 626.038 323.605 628.029 325.377C631.072 349.176 630.304 361.285 627.745 384.565C619.616 387.174 617.843 387.789 612.133 394.425L611.662 394.493C610.65 388.351 611.242 382.043 609.143 375.638C607.574 370.85 606.258 365.694 604.352 360.997C600.139 350.617 601.59 340.986 602.791 330.16C608.26 327.13 613.561 323.803 618.891 320.532Z"
     id="path61" />
  <path
     fill="#BCD8EC"
     d="M428.294 965.015C426.196 968.728 416.856 987.712 411.623 984.698C410.04 981.75 411.681 977.297 413.28 974.584C434.577 938.447 455.646 902.142 476.379 865.673C479.096 860.894 482.567 855.884 482.473 850.28C482.442 848.407 486.021 844.348 487.304 842.743C489.676 847.599 490.954 853.338 488.646 858.323C478.086 881.132 462.825 904.269 451.111 926.254C455.34 930.694 459.489 935.21 463.555 939.799C466.395 943.06 470.605 947.987 470.301 952.485L469.47 953.161C463.01 952.417 451.383 937.913 447.055 932.933L429.911 962.514L428.294 965.015Z"
     id="path62" />
  <path
     fill="#BCD8EC"
     d="M458.413 529.525C459.81 530.101 463.033 533.689 464.033 535.018C477.705 553.197 500.943 569.652 501.886 594.215C502.241 603.46 501.723 611.812 495.386 618.95C492.457 620.87 490.493 621.187 486.986 620.517C486.319 620.647 483.666 618.677 483.607 618.325C482.626 612.446 483.097 606.264 482.339 600.267C481.354 592.478 478.016 585.688 474.125 579.055C475.923 575.396 477.383 572.31 478.929 568.544C475.739 558.713 464.276 546.469 457.899 537.677C458.264 535.49 458.313 531.869 458.413 529.525Z"
     id="path63" />
  <path
     fill="#BCD8EC"
     d="M545.837 771.192C546.214 775.515 522.741 843.381 519.537 853.011L517.038 842.663C515.029 831.055 510.102 808.976 507.05 797.758C519.209 788.979 533.323 779.83 545.837 771.192Z"
     id="path64" />
  <path
     fill="#EEE3A6"
     d="M644.016 512.213C647.423 513.038 651.252 516.051 653.714 518.542C664.793 529.816 667.237 548.404 661.149 562.724C658.655 568.592 655.389 572.048 650.963 576.487C648.354 578.668 646.339 579.936 642.816 578.953C641.917 578.013 640.887 576.311 641.519 575.149C645.271 568.257 647.746 562.395 648.946 554.46C650.475 544.617 649.202 534.543 645.274 525.39C644.088 522.631 641.723 518.666 641.188 516.076C641.615 514.131 642.479 513.656 644.016 512.213Z"
     id="path65" />
  <path
     fill="#BCD8EC"
     d="M481.919 626.748C491.543 631.047 499.079 629.419 509.33 628.213C509.154 630.671 509.404 634.274 509.511 636.824C505.76 639.994 501.343 643.357 497.464 646.445C494.824 648.778 484.378 655.96 480.959 657.092L480.019 656.443C477.587 649.853 480.73 634.267 481.919 626.748Z"
     id="path66" />
  <path
     fill="#BCD8EC"
     d="M530.317 600.28C533.795 600.562 536.179 600.741 537.674 604.165C537.481 608.237 534.673 610.621 531.969 613.777C530.743 614.323 531.395 614.179 529.937 613.88C527.646 611.932 526.506 606.484 525.604 603.411C526.763 601.657 528.353 601.205 530.317 600.28Z"
     id="path67" />
  <path
     fill="#253D57"
     d="M766.277 521.495L766.724 521.448C767.894 528.799 768.481 561.033 767.005 568.219C764.353 565.337 766.194 528.149 766.277 521.495Z"
     id="path68" />
  <path
     fill="#253D57"
     d="M654.376 408.652C655.22 409.06 654.903 408.881 655.499 409.763C655.866 414.489 656.287 436.598 654.971 440.352L653.968 439.275C653.216 434.07 653.686 413.897 654.376 408.652Z"
     id="path69" />
  <path
     fill="#BCD8EC"
     d="M521.413 616.267C523.199 617.147 524.336 619.14 525.569 620.828L518.677 628.557L517.569 629.564L516.935 629.229C516.408 625.349 519.25 619.46 521.413 616.267Z"
     id="path70" />
  <path
     fill="#253D57"
     d="M604.352 468.1C606.26 466.498 606.598 466.431 609.05 465.907C608.395 470.577 607.381 481.013 607.004 485.885C605.95 484.75 605.716 472.653 604.352 468.1Z"
     id="path71" />
  <path
     fill="#253D57"
     d="M271.426 659.495C269.426 657.982 267.685 658.705 264.733 657.003C267.087 655.671 272.389 655.992 274.619 658.027L271.426 659.495Z"
     id="path72" />
  <path
     fill="#253D57"
     d="M269.76 874.812C271.122 875.844 271.113 876.252 271.627 877.869C271.231 879.779 271.735 879.122 270.301 880.069C268.539 879.644 268.477 879.515 267.078 877.865L269.76 874.812Z"
     id="path73" />
  <path
     fill="#253D57"
     d="M141.554 738.023C142.654 739.936 143.015 740.266 143.148 742.384L142.54 743.578C140.619 743.222 140.099 741.952 139.301 740.278L141.554 738.023Z"
     id="path74" />
  <path
     fill="#253D57"
     d="M615.382 746.892C614.096 746.148 610.672 745.899 608.537 745.342L608.454 744.891C612.501 744.467 614.07 743.995 617.16 746.483L615.382 746.892Z"
     id="path75" />
  <path
     fill="#253D57"
     d="M429.911 962.514C431.104 964.54 431.177 964.809 431.278 967.16L430.803 968.179C429.245 967.604 429.373 966.951 428.294 965.015L429.911 962.514Z"
     id="path76" />
</svg>
