<?xml version="1.0" encoding="UTF-8" standalone="no"?>
<svg
   width="187"
   height="195"
   viewBox="0 0 187 195"
   version="1.1"
   id="svg98"
   sodipodi:docname="window.svg"
   inkscape:version="1.4.4 (dcaf3e7d9e, 2026-05-05)"
   xmlns:inkscape="http://www.inkscape.org/namespaces/inkscape"
   xmlns:sodipodi="http://sodipodi.sourceforge.net/DTD/sodipodi-0.dtd"
   xmlns="http://www.w3.org/2000/svg"
   xmlns:svg="http://www.w3.org/2000/svg">
  <defs
     id="defs98">
    <linearGradient
       id="gradient_1"
       gradientUnits="userSpaceOnUse"
       x1="963.74487"
       y1="1051.7085"
       x2="872.21051"
       y2="934.47986"
       gradientTransform="matrix(1.5,0,0,1.5,-1282.936,-1392.0953)">
      <stop
         offset="0"
         stop-color="#28456C"
         id="stop16" />
      <stop
         offset="1"
         stop-color="#41699E"
         id="stop17" />
    </linearGradient>
  </defs>
  <sodipodi:namedview
     id="namedview98"
     pagecolor="#ffffff"
     bordercolor="#000000"
     borderopacity="0.25"
     inkscape:showpageshadow="2"
     inkscape:pageopacity="0.0"
     inkscape:pagecheckerboard="0"
     inkscape:deskcolor="#d1d1d1"
     inkscape:zoom="1.1077586"
     inkscape:cx="31.595331"
     inkscape:cy="266.3035"
     inkscape:window-width="1259"
     inkscape:window-height="1387"
     inkscape:window-x="12"
     inkscape:window-y="39"
     inkscape:window-maximized="1"
     inkscape:current-layer="svg98" />
  <path
     fill="#1b2f4a"
     d="m 134.32218,38.282422 c 7.8885,-0.615 20.547,-1.65 27.8775,1.35 1.9605,0.81 3.924,1.785 4.7955,3.765 3.4155,7.74 2.01,91.994998 1.005,105.494998 -0.408,5.49 -1.2555,10.815 -3.297,15.93 -10.407,4.23 -92.140797,1.125 -110.059797,1.125 -8.80005,0.39 -25.3989,2.505 -32.43015,-3.33 -5.52825,-12.585 -2.3925,-73.814998 -2.36505,-91.109998 14.44095,-9.765 27.7995,-21.855 41.3403,-32.88 24.3699,0.135 48.775197,0.54 73.133697,-0.345 z"
     id="path262"
     style="stroke-width:1.5" />
  <path
     fill="#335584"
     d="m 32.635683,108.15242 c 41.0949,-0.36 82.190997,-0.465 123.287997,-0.33 0.2025,15.435 1.431,32.055 -1.4775,47.25 l -122.403297,0.3 z"
     id="path263"
     style="stroke-width:1.5" />
  <path
     fill="#badbf8"
     d="m 77.083833,73.742422 c 25.450347,-2.325 53.051847,-0.255 78.748347,-0.24 l -0.102,23.625 -16.728,0.03 c -13.4445,0 -72.356997,3.809998 -79.957947,-3.405 -1.62015,-1.545 -1.23375,-2.655 -1.32975,-4.785 4.3611,-7.425 12.14685,-11.055 19.36935,-15.225 z"
     id="path264"
     style="stroke-width:1.5" />
  <path
     fill="#badbf8"
     d="m 138.84768,50.162422 c 5.772,-0.72 10.1355,-1.065 15.123,2.1 1.6515,3.24 2.0265,3.75 1.5855,7.32 -8.472,6.885 -47.1825,2.145 -59.627697,1.68 -19.92225,-0.78 -33.3954,4.65 -47.62665,18.645 -2.4741,2.43 -3.4389,3.735 -3.5277,7.2 -0.2025,3.075 -0.40305,5.475 -1.76745,8.31 -1.29165,2.67 -2.4993,2.475 -5.21955,3.39 -0.3825,-0.345 -0.7824,-0.66 -1.1478,-1.02 -5.34075,-5.205 -4.33035,-13.875 -4.2054,-20.7 10.61205,-9.12 21.60825,-19.53 33.8682,-26.325 24.03615,0.06 48.584547,1.14 72.545547,-0.6 z"
     id="path265"
     style="stroke-width:1.5" />
</svg>
