<?xml version="1.0" encoding="UTF-8" standalone="no"?>
<svg
   width="39"
   height="52"
   viewBox="0 0 39 52"
   version="1.1"
   id="svg147"
   sodipodi:docname="z21.svg"
   inkscape:version="1.4.4 (dcaf3e7d9e, 2026-05-05)"
   xmlns:inkscape="http://www.inkscape.org/namespaces/inkscape"
   xmlns:sodipodi="http://sodipodi.sourceforge.net/DTD/sodipodi-0.dtd"
   xmlns="http://www.w3.org/2000/svg"
   xmlns:svg="http://www.w3.org/2000/svg">
  <defs
     id="defs147" />
  <sodipodi:namedview
     id="namedview147"
     pagecolor="#ffffff"
     bordercolor="#000000"
     borderopacity="0.25"
     inkscape:showpageshadow="2"
     inkscape:pageopacity="0.0"
     inkscape:pagecheckerboard="0"
     inkscape:deskcolor="#d1d1d1"
     inkscape:zoom="6.2370444"
     inkscape:cx="8.4976146"
     inkscape:cy="0.40083088"
     inkscape:window-width="2560"
     inkscape:window-height="1440"
     inkscape:window-x="0"
     inkscape:window-y="0"
     inkscape:window-maximized="1"
     inkscape:current-layer="svg147" />
  <path
     fill="#0B4296"
     transform="scale(0.0433333 0.0433333)"
     d="M421.285 72.9492L421.945 72.9125C439.823 71.962 465.036 72.5712 482.898 73.103C518.148 74.0692 553.351 76.3397 588.434 79.9099C597.551 80.8794 618.48 82.7461 626.288 84.8114C631.599 86.1774 636.488 88.8396 640.516 92.5594C654.147 105.116 652.696 125.823 653.547 142.968L656.003 195.908C658.705 256.936 660.227 318.012 660.568 379.099L660.589 425.389C660.557 432.826 661.124 444.818 659.978 451.825C656.139 475.309 647.277 498.688 642.058 521.999C630.6 575.434 624.77 629.922 624.661 684.571C624.255 747.423 627.642 810.241 634.805 872.685C636.788 890.397 639.203 908.058 642.047 925.652C644.694 942.492 648.205 958.965 648.435 976.051C648.712 996.549 648.7 1017.12 648.67 1037.64C648.341 1049.92 649.387 1062.35 648.006 1074.56C645.561 1096.18 624.855 1100.32 607.695 1105.32C580.664 1113.27 553.077 1119.2 525.165 1123.05C509.445 1125.2 489.219 1127.05 473.345 1127.48C472.557 1127.52 471.77 1127.56 470.982 1127.6C410.076 1130.26 349.147 1122.89 290.629 1105.8C268.351 1099.35 247.737 1095.7 247.623 1066.94C247.505 1036.97 247.562 1006.94 247.923 976.966C248.132 959.582 251.738 943.046 254.417 925.948C257.262 908.448 259.646 890.876 261.565 873.251C270.166 799.342 273.893 720.771 270.631 646.259C268.878 606.204 263.608 564.886 255.27 525.673C252.321 511.802 248.216 498.613 244.437 485.014C241.1 473.007 236.489 459.039 236.18 446.667C235.468 418.161 235.795 389.63 236.104 361.125C236.737 307.601 238.155 254.088 240.356 200.605L242.986 143.914C243.792 127.405 242.253 107.071 254.316 94.351C258.545 89.9012 263.874 86.647 269.765 84.9176C276.766 82.8889 295.755 81.2133 303.624 80.3733C342.727 76.2989 381.98 73.8222 421.285 72.9492Z"
     id="path2" />
  <path
     fill="#F7F7F7"
     transform="scale(0.0433333 0.0433333)"
     d="M437.151 85.2382C486.865 85.0076 536.556 87.352 586.027 92.262C598.211 93.4841 611.493 94.4963 623.263 97.0366C632.496 99.0292 638.426 108.409 639.288 117.231C640.478 129.418 640.995 141.954 641.6 154.159C642.944 181.526 644.041 208.905 644.89 236.292C646.668 286.346 647.754 336.423 648.146 386.507L648.129 425.815C648.103 433.007 648.289 442.795 647.591 449.768C646.507 460.604 642.176 473.455 639.052 484.059C635.296 496.567 631.969 509.2 629.078 521.936C617.724 575.595 612.076 630.303 612.229 685.149C611.65 748.638 615.047 812.102 622.4 875.166C624.653 893.745 627.162 912.292 629.926 930.801C632.029 944.307 635.262 957.888 635.581 971.862C636.345 1005.22 636.647 1039.76 635.688 1073.08C635.303 1086.44 613.208 1090.49 602.62 1093.74C555.617 1108.15 508.765 1113.6 459.853 1115.43C404.255 1116.76 348.782 1109.57 295.363 1094.1C287.987 1092.01 280.653 1090.09 273.382 1087.38C258.616 1081.88 260.105 1068.91 260.223 1055.59C260.481 1026.3 259.68 996.668 261.245 967.377C261.875 955.606 264.497 943.911 266.293 932.224C269.322 913.042 271.956 893.8 274.194 874.51C283.224 794.798 288.071 698.403 281.528 618.316C278.977 584.916 274.017 551.744 266.687 519.059C264.058 507.975 261.183 496.952 258.063 485.996C254.41 473.348 248.676 457.437 248.531 444.609C247.673 368.63 249.513 292.558 252.224 216.643C253.051 194.661 254.019 172.685 255.13 150.716C255.797 137.601 255.666 122.304 259.114 109.7C260.563 104.661 267.461 98.3851 272.616 97.2887C287.031 94.2227 303.023 92.9333 317.671 91.6349C357.396 87.91 397.255 85.7761 437.151 85.2382Z"
     id="path3" />
  <path
     fill="#0B4296"
     transform="scale(0.0433333 0.0433333)"
     d="M318.009 135.593L503.19 135.778C514.4 135.775 576.263 134.464 582.184 136.55C584.769 137.46 588.176 140.335 589.173 142.932C590.221 145.662 590.396 149.058 590.512 151.95C590.939 162.586 590.588 173.369 590.59 184.017L590.571 247.064L590.533 291.467C590.617 301.348 590.881 311.305 590.675 321.174C590.518 328.688 587.588 333.288 580.706 336.27C570.44 337.052 552.432 336.462 541.758 336.454L468.557 336.45L369.884 336.481C353.274 336.491 336.663 336.554 320.057 336.442C315.164 337.086 307.677 333.324 306.835 328.075C305.109 317.315 305.757 304.383 305.771 293.472L305.806 238.645L305.813 177.906C305.812 168.16 304.014 149.872 308.352 140.989C309.891 137.838 314.554 136.198 318.009 135.593Z"
     id="path4" />
  <path
     fill="#F7F7F7"
     transform="scale(0.0433333 0.0433333)"
     d="M317.747 146.115C372.357 145.382 428.632 146.07 483.336 146.103L539.996 146.07C552.035 146.032 567.819 145.681 579.641 146.522C580.328 152.378 580.04 164.865 580.04 171.236L580.027 214.496L580.015 285.444C580.017 291.965 580.935 323.068 578.687 326.245L328.459 326.24C326.112 326.227 318.282 326.221 316.786 324.708C316.007 319.49 316.389 307.202 316.404 301.365L316.446 258.926L316.415 186.802C316.403 174.777 316.328 162.626 316.421 150.595C316.441 148.02 316.511 147.929 317.747 146.115Z"
     id="path5" />
  <path
     fill="#0B4296"
     transform="scale(0.0433333 0.0433333)"
     d="M491.456 185.215C497.811 185.239 504.619 185.135 510.932 185.297C512.029 186.408 513.839 188.005 514.769 189.119C519.219 194.446 525.228 193.961 530.801 196.467C531.036 199.117 531.79 204.261 530.063 206.324C525.41 205.295 520.655 194.431 515.102 204.466C514.586 205.399 514.093 206.282 513.075 206.684C508.623 207.599 498.276 206.721 496.813 207.47C496.247 209.756 493.975 211.184 491.67 210.703C489.365 210.222 487.854 208.004 488.25 205.683L485.929 206.022C483.928 205.934 484.787 206.258 483.236 205.086C482.026 202.134 482.374 198.164 482.4 194.856L491.456 185.215Z"
     id="path6" />
  <path
     fill="#0B4296"
     transform="scale(0.0433333 0.0433333)"
     d="M488.25 205.683C488.52 204.104 489.631 202.799 491.146 202.279C492.662 201.76 494.34 202.111 495.521 203.193C496.702 204.275 497.197 205.915 496.813 207.47C496.247 209.756 493.975 211.184 491.67 210.703C489.365 210.222 487.854 208.004 488.25 205.683Z"
     id="path7" />
  <path
     fill="#F1F6FB"
     transform="scale(0.0433333 0.0433333)"
     d="M485.929 206.022C487.431 203.167 488.631 200.988 491.911 199.943C497.119 200.815 497.055 204.658 499.8 205.784C502.578 206.923 509.493 206.16 513.075 206.684C508.623 207.599 498.276 206.721 496.813 207.47C497.197 205.915 496.702 204.275 495.521 203.193C494.34 202.111 492.662 201.76 491.146 202.279C489.631 202.799 488.52 204.104 488.25 205.683L485.929 206.022Z"
     id="path8" />
  <path
     fill="#F7F7F7"
     transform="scale(0.0433333 0.0433333)"
     d="M505.276 187.722C509.176 187.569 512.171 188.981 514.263 192.404L513.996 193.311L512.314 193.451C508.51 193.535 504.183 194.803 502.287 191.4C502.396 189.368 502.062 189.392 503.053 188.03L505.276 187.722Z"
     id="path9" />
  <path
     fill="#F1F6FB"
     transform="scale(0.0433333 0.0433333)"
     d="M493.858 187.744L494.337 187.717C497.443 187.567 497.802 187.464 499.78 189.247C500.512 191.397 500.552 190.495 499.687 192.487C497.449 193.92 497.768 193.466 494.734 193.507C492.372 193.617 490.148 194.318 488.967 192.09L489.538 190.619C491.209 189.223 491.828 188.54 493.858 187.744Z"
     id="path10" />
  <path
     fill="#0B4296"
     transform="scale(0.0433333 0.0433333)"
     d="M560.977 167.958C562.834 164.716 565.857 157.411 568.361 155.359C570.197 155.491 569.429 155.164 570.792 156.256C571.53 161.015 562.896 172.48 560.968 178.133C560.989 182.628 561.625 207.693 560.31 210.21C558.611 211.066 559.206 210.82 556.926 210.403C555.181 206.983 557.044 180.052 555.984 177.015C554.472 172.687 547.302 162.046 545.883 156.939L548.016 154.891C551.04 156.068 554.461 164.216 556.196 167.649C556.218 163.39 555.359 158.282 558.225 155.195L559.106 155.374C561.757 159.164 561.082 163.35 560.977 167.958Z"
     id="path11" />
  <path
     fill="#0B4296"
     transform="scale(0.0433333 0.0433333)"
     d="M447.057 172.983C449.274 173.125 449.801 172.786 451.379 173.963C452.023 181.307 451.463 201.517 451.153 209.839C451.134 210.339 448.781 210.954 447.952 211.243C446.393 210.852 446.012 210.855 444.735 209.82C444.393 205.836 443.949 175.399 445.089 173.409L447.057 172.983Z"
     id="path12" />
  <path
     fill="#0B4296"
     transform="scale(0.0433333 0.0433333)"
     d="M432.429 173.164C434.871 173.136 436.9 172.862 439.067 173.867C439.95 177.244 439.529 205.04 439.509 210.511L432.43 210.509L432.429 173.164Z"
     id="path13" />
  <path
     fill="#0B4296"
     transform="scale(0.0433333 0.0433333)"
     d="M493.835 257.001C496.219 257.581 496.859 259.592 498.015 261.616C495.83 266.515 486.833 288.344 483.739 290.052C481.656 288.823 480.74 288.463 479.205 286.561C478.464 282.456 488.144 263.785 490.786 259.073C491.108 258.499 493.124 257.371 493.835 257.001Z"
     id="path14" />
  <path
     fill="#0B4296"
     transform="scale(0.0433333 0.0433333)"
     d="M510.069 219.381C512.337 220.381 516.186 222.339 515.036 225.289C513.116 230.214 506.034 249.391 502.247 251.681C499.752 252.209 500.132 252.538 498.171 251.754C497.963 251.443 497.33 250.516 497.289 250.148C496.63 244.255 507.272 224.126 510.069 219.381Z"
     id="path15" />
  <path
     fill="#0B4296"
     transform="scale(0.0433333 0.0433333)"
     d="M331.791 219.704C336.66 219.441 364.813 219.298 368.316 220.022L369.79 221.682C368.976 222.472 363.93 227.645 363.522 227.847L361.486 227.602C354.849 227.888 346.119 227.602 339.32 227.583C336.629 224.954 334.183 222.641 331.791 219.704Z"
     id="path16" />
  <path
     fill="#F1F6FB"
     transform="scale(0.0433333 0.0433333)"
     d="M368.316 220.022L369.79 221.682C368.976 222.472 363.93 227.645 363.522 227.847L361.486 227.602C363.319 225.87 366.523 222.036 368.316 220.022Z"
     id="path17" />
  <path
     fill="#0B4296"
     transform="scale(0.0433333 0.0433333)"
     d="M461.282 173.17C463.718 174.785 472.329 188.211 474.602 191.621L467.107 202.72C465.328 205.365 463.487 207.967 461.584 210.525C461.187 198.46 461.359 185.319 461.282 173.17Z"
     id="path18" />
  <path
     fill="#0B4296"
     transform="scale(0.0433333 0.0433333)"
     d="M532.648 281.675L534.592 282.063C541.12 281.518 549.907 281.783 556.626 281.811C559.767 284.478 561.151 286.201 563.824 289.399C558.049 289.821 532.633 290.269 527.864 289.106L527.331 286.554C529.013 284.763 530.543 282.944 532.648 281.675Z"
     id="path19" />
  <path
     fill="#F1F6FB"
     transform="scale(0.0433333 0.0433333)"
     d="M532.648 281.675L534.592 282.063C532.453 284.141 529.559 286.763 527.864 289.106L527.331 286.554C529.013 284.763 530.543 282.944 532.648 281.675Z"
     id="path20" />
  <path
     fill="#0B4296"
     transform="scale(0.0433333 0.0433333)"
     d="M382.53 219.903C388.952 219.098 411.71 219.599 419.349 219.611L414.593 224.956C410.089 229.742 395.777 227.78 389.088 227.622C388.569 227.145 388.056 226.661 387.547 226.172C385.732 224.412 382.557 221.952 382.53 219.903Z"
     id="path21" />
  <path
     fill="#0B4296"
     transform="scale(0.0433333 0.0433333)"
     d="M527.918 219.936C532.637 219.128 559.275 219.588 565.382 219.6L560.633 224.753L557.639 227.676L534.805 227.706C532.746 225.861 529.259 222.253 527.918 219.936Z"
     id="path22" />
  <path
     fill="#0B4296"
     transform="scale(0.0433333 0.0433333)"
     d="M429.538 219.724C438.452 219.011 457.668 219.64 467.074 219.672C465.581 221.389 463.728 223.294 462.16 224.984L459.246 227.722C451.957 227.801 444.313 227.623 436.994 227.566C433.933 224.668 432.168 222.973 429.538 219.724Z"
     id="path23" />
  <path
     fill="#0B4296"
     transform="scale(0.0433333 0.0433333)"
     d="M389.129 281.916C396.395 281.708 404.189 281.802 411.498 281.756C414.11 284.093 416.921 287.072 419.42 289.592C417.22 289.73 414.666 289.751 412.434 289.82C402.053 289.858 391.673 289.725 381.296 289.42C384.149 286.409 385.979 284.586 389.129 281.916Z"
     id="path24" />
  <path
     fill="#0B4296"
     transform="scale(0.0433333 0.0433333)"
     d="M436.896 281.83C443.982 281.607 452.014 281.815 459.17 281.843C461.414 283.807 464.84 286.126 465.19 288.855C463.362 290.065 462.915 289.708 460.513 289.836L429.002 289.657C431.489 287.059 434.318 284.375 436.896 281.83Z"
     id="path25" />
  <path
     fill="#0B4296"
     transform="scale(0.0433333 0.0433333)"
     d="M461.196 228.78C462.566 227.24 465.856 223.283 467.385 222.407C468.247 222.884 468.498 222.769 468.716 223.83C469.669 228.471 470.127 248.985 468.442 252.448C467.778 252.904 467.225 253.346 466.495 253.669L465.117 255.064C463.8 253.643 462.139 252.145 460.717 250.791L461.572 249.622C460.86 244.213 461.162 234.606 461.196 228.78Z"
     id="path26" />
  <path
     fill="#F1F6FB"
     transform="scale(0.0433333 0.0433333)"
     d="M461.572 249.622C463.791 250.754 464.961 251.628 466.495 253.669L465.117 255.064C463.8 253.643 462.139 252.145 460.717 250.791L461.572 249.622Z"
     id="path27" />
  <path
     fill="#0B4296"
     transform="scale(0.0433333 0.0433333)"
     d="M331.404 255.919C333.081 256.674 336.034 259.165 337.609 260.398L337.652 282.974L333.249 287.675L331.781 288.597L330.733 287.95C328.869 284.006 328.41 259.105 331.404 255.919Z"
     id="path28" />
  <path
     fill="#0B4296"
     transform="scale(0.0433333 0.0433333)"
     d="M338.632 250.679C346.521 250.597 354.41 250.621 362.298 250.75C363.878 251.898 365.555 253.377 367.073 254.643C365.871 255.878 364.244 257.258 362.938 258.434C358.461 258.658 353.682 258.678 349.19 258.69C344.866 258.702 336.849 259.448 335.11 254.715C335.932 252.33 336.486 252.449 338.632 250.679Z"
     id="path29" />
  <path
     fill="#0B4296"
     transform="scale(0.0433333 0.0433333)"
     d="M533.974 250.802C541.628 250.483 549.567 250.654 557.249 250.714C559.326 252.125 560.459 252.695 561.194 254.799C560.652 256.63 559.328 257.288 557.735 258.495C552.002 258.584 532.262 260.583 530.387 254.781C530.905 252.721 532.202 252.125 533.974 250.802Z"
     id="path30" />
  <path
     fill="#0B4296"
     transform="scale(0.0433333 0.0433333)"
     d="M368.117 256.345C369.215 256.451 369.104 256.546 370.168 257.03C371.911 260.105 372.065 285.444 369.527 288.552L368.499 288.501C366.838 286.66 364.886 284.096 363.293 282.11L363.315 260.594C364.897 259.281 366.566 257.726 368.117 256.345Z"
     id="path31" />
  <path
     fill="#0B4296"
     transform="scale(0.0433333 0.0433333)"
     d="M437.267 250.601C444.996 250.645 453.026 250.425 460.717 250.791C462.139 252.145 463.8 253.643 465.117 255.064C463.652 256.201 461.672 257.471 460.107 258.541C452.561 258.404 444.743 258.575 437.175 258.644L432.746 254.831L437.267 250.601Z"
     id="path32" />
  <path
     fill="#0B4296"
     transform="scale(0.0433333 0.0433333)"
     d="M388.08 250.71C394.336 250.308 404.791 250.672 411.366 250.683L415.677 254.759L411.502 258.497L388.084 258.575L383.442 254.781C384.874 253.443 386.586 252.017 388.08 250.71Z"
     id="path33" />
  <path
     fill="#0B4296"
     transform="scale(0.0433333 0.0433333)"
     d="M466.642 255.905C467.1 256.09 468.022 256.859 468.468 257.2C470.021 260.555 470.077 284.641 467.63 286.953L466.65 286.31L461.301 280.987L461.224 260.436L466.642 255.905Z"
     id="path34" />
  <path
     fill="#0B4296"
     transform="scale(0.0433333 0.0433333)"
     d="M563.724 256.432C564.914 256.64 564.582 256.624 565.693 257.325C567.343 260.534 567.728 284.643 564.768 287.006L563.869 286.57C562.044 284.364 560.584 282.962 558.533 280.981L558.538 260.746L563.724 256.432Z"
     id="path35" />
  <path
     fill="#0B4296"
     transform="scale(0.0433333 0.0433333)"
     d="M380.256 221.997C382.728 223.652 385.254 226.843 387.27 229.16C387.205 234.62 387.748 239.948 387.404 245.378C387.16 249.226 387.15 249.002 384.626 251.26C383.187 252.487 383.002 252.629 381.324 253.473C378.084 251.449 378.754 225.324 380.256 221.997Z"
     id="path36" />
  <path
     fill="#0B4296"
     transform="scale(0.0433333 0.0433333)"
     d="M525.697 222.179C528.278 222.876 531.319 227.09 533.07 229.185C533.17 232.866 533.236 236.548 533.269 240.23C533.275 244.665 533.953 247.792 531.106 250.647C529.447 252.068 528.969 252.696 526.949 253.333L526.12 252.658C524.42 248.594 524.754 226.647 525.697 222.179Z"
     id="path37" />
  <path
     fill="#0B4296"
     transform="scale(0.0433333 0.0433333)"
     d="M330.577 221.828C332.354 222.875 335.995 227.18 337.589 228.938C337.565 234.688 338.105 240.616 337.581 246.283C337.266 249.693 336.722 249.913 334.017 252.039C333.054 252.645 333.044 252.552 331.934 252.909L330.655 252.148C328.746 248.081 329.094 225.956 330.577 221.828Z"
     id="path38" />
  <path
     fill="#0B4296"
     transform="scale(0.0433333 0.0433333)"
     d="M369.79 221.682C371.836 225.41 372.113 250.897 369.502 253.531C367.243 252.565 365.205 250.354 363.34 248.624C363.269 242.62 362.939 233.532 363.522 227.847C363.93 227.645 368.976 222.472 369.79 221.682Z"
     id="path39" />
  <path
     fill="#0B4296"
     transform="scale(0.0433333 0.0433333)"
     d="M380.817 255.674C383.167 256.855 385.301 258.979 387.315 260.75L387.275 280.395L384.059 283.672C382.875 284.841 381.649 286.423 380.045 286.258C378.007 280.622 379.649 265.066 379.456 258.477C379.434 257.739 380.348 256.31 380.817 255.674Z"
     id="path40" />
  <path
     fill="#0B4296"
     transform="scale(0.0433333 0.0433333)"
     d="M527.331 286.554L526.59 286.732L525.608 285.981C524.444 282.444 524.236 259.052 527.018 256.26C529.155 257.017 531.274 259.251 533.049 260.838C533.147 265.663 533.488 277.391 532.648 281.675C530.543 282.944 529.013 284.763 527.331 286.554Z"
     id="path41" />
  <path
     fill="#0B4296"
     transform="scale(0.0433333 0.0433333)"
     d="M544.226 182.919C546.638 182.798 550.058 182.775 552.229 183.75C553.512 185.428 553.313 184.551 553.229 186.354C551.203 188.459 545.822 187.307 541.47 188.358L540.792 188.527C538.096 190.236 537.06 191.573 533.921 190.25C533.04 185.438 540.795 183.684 544.226 182.919Z"
     id="path42" />
  <path
     fill="#0B4296"
     transform="scale(0.0433333 0.0433333)"
     d="M543.67 192.921C546.328 192.726 554.969 192.754 551.894 197.651C549.57 198.303 549.506 197.827 546.939 197.029C542.307 197.758 543.558 199.674 538.938 198.453C537.777 195.549 541.506 193.859 543.67 192.921Z"
     id="path43" />
  <path
     fill="#0B4296"
     transform="scale(0.0433333 0.0433333)"
     d="M519.154 202.453C520.646 201.811 522.369 202.039 523.642 203.047C524.915 204.055 525.532 205.68 525.249 207.279C524.966 208.877 523.827 210.191 522.285 210.7C520.042 211.441 517.612 210.284 516.773 208.075C515.935 205.866 516.984 203.388 519.154 202.453Z"
     id="path44" />
  <path
     fill="#0B4296"
     transform="scale(0.0433333 0.0433333)"
     d="M544.9 202.945C546.88 201.939 549.301 202.698 550.352 204.654C551.404 206.609 550.703 209.047 548.772 210.145C547.482 210.878 545.896 210.855 544.628 210.085C543.36 209.314 542.608 207.917 542.665 206.435C542.721 204.952 543.577 203.617 544.9 202.945Z"
     id="path45" />
  <path
     fill="#0B4296"
     transform="scale(0.0433333 0.0433333)"
     d="M442.913 529.716C446.005 529.558 449.933 529.705 453.096 529.74C454.159 531.09 455.466 533.275 456.428 534.773C461.225 535.354 466.006 536.052 470.769 536.867C472.062 535.435 473.669 533.989 475.085 532.651C482.686 534.169 485.548 533.613 487.31 541.547C492.42 543.342 495.745 544.67 500.658 546.951C505.595 543.672 506.242 543.838 511.739 546.764C514.736 548.486 514.289 550.814 515.105 553.296C516.253 556.788 522.733 560.852 525.511 563.015C527.763 564.769 530.199 564.099 532.559 563.512C535.727 564.226 538.42 568.08 540.662 570.63L538.891 576.356C543.16 581.209 546.227 588.576 552.978 588.487C555.038 588.459 558.151 595.536 559.107 597.444C558.218 599.107 557.01 600.877 555.976 602.478C558.081 606.788 559.724 611.241 561.461 615.71C569.159 617.631 568.537 620.503 570.156 627.625C568.922 629.175 567.144 630.695 565.666 632.06C566.824 637.666 567.195 640.301 567.565 645.919C569.359 647.012 571.142 648.123 572.913 649.251C573.411 656.864 574.795 659.229 567.552 663.005C567.127 668.082 566.679 671.672 565.716 676.684L570.053 681.099C568.55 688.463 569.258 691.068 561.479 693.045C559.835 697.693 557.964 701.906 556.003 706.419C557.077 708.018 558.129 709.809 559.144 711.461C557.735 714.451 555.812 720.322 551.906 720.42C546.941 720.545 541.683 729.12 538.642 732.839L540.584 738.337C536.22 743.544 534.128 747.572 527.01 744.63L515.353 753.764C515.946 761.644 511.725 762.243 505.459 765.11L500.7 762.081C493.998 765.485 486.741 765.527 485.108 772.793C484.669 774.745 477.301 776.1 475.121 776.611C473.756 775.359 472.14 773.423 470.875 771.998C466.622 772.992 460.765 773.594 456.326 774.176L453.651 778.935C446.736 780.173 443.219 780.881 439.654 774.203C434.781 773.629 429.918 772.973 425.067 772.235L421.091 776.33C414.402 775.087 410.387 775.407 409.337 767.997C404.833 766.234 399.901 763.993 395.421 762.057C393.762 763.015 392.09 763.953 390.407 764.87C387.773 763.659 383.474 761.959 381.935 759.685C381.232 751.874 375.177 749.227 369.214 744.764C361.325 747.957 354.517 741.379 357.384 732.747L348.403 721.291C340.461 721.44 340.252 718.097 337.191 711.601L340.055 706.541C339.302 704.924 338.032 701.867 337.479 700.177C335.134 693.008 334.005 693.597 328.561 690.2C327.058 687.808 326.604 683.948 326.058 681.049C327.256 679.667 328.916 678.24 330.288 676.985C329.523 672.331 328.914 667.653 328.463 662.958C321.519 659.261 322.665 656.47 323.312 649.261C324.78 648.144 326.88 647.003 328.51 646.05C328.775 641.636 329.648 636.59 330.299 632.165L326.098 627.989C326.672 624.657 326.958 620.296 329.274 617.994C336.772 615.581 337.076 609.513 340.199 602.463C339.184 601 338.069 598.986 337.141 597.419C338.394 594.79 340.354 589.937 342.733 588.457C349.893 588.507 352.911 581.715 357.403 576.491C356.845 574.584 356.297 572.674 355.761 570.761C360.197 565.087 361.631 561.833 369.031 564.385C374.827 560.095 381.773 556.794 381.846 549.561C381.866 547.59 388.41 545.043 390.364 544.149C391.972 544.882 393.808 546.057 395.354 546.981C398.904 545.475 409.676 542.391 410.323 537.982C410.948 533.717 417.645 533.549 421.103 532.929L425.295 536.935C429.935 536.005 434.869 535.545 439.588 535.007C440.732 532.702 441.443 531.746 442.913 529.716Z"
     id="path46" />
  <path
     fill="#F7F7F7"
     transform="scale(0.0433333 0.0433333)"
     d="M396.167 626.38C409.555 626.222 423.294 626.398 436.711 626.414L436.631 634.975C430.572 644.681 415.646 663.003 408.063 673.051L435.923 673.206C435.965 676.284 435.876 678.979 435.734 682.057L394.68 682.108L394.55 673.673C402.373 662.045 415.08 646.587 423.839 635.381C414.764 635.163 405.317 635.272 396.214 635.25L396.167 626.38Z"
     id="path47" />
  <path
     fill="#F7F7F7"
     transform="scale(0.0433333 0.0433333)"
     d="M445.379 636.415C453.173 636.327 459.668 636.234 467.953 636.759C480.708 637.567 482.762 652.783 475.654 660.785C470.695 666.368 457.487 660.388 452.265 665.119C450.532 666.689 451.059 671.118 451.112 673.297L486.674 673.274C486.749 676.481 487.306 679.472 485.49 681.892L483.014 682.054L440.064 682.021C439.94 676.214 439.342 668.074 441.053 662.61C445.149 649.534 456.502 659.135 467.183 653.845C476.722 641.668 444.09 644.983 439.888 644.994C441.499 642.158 443.565 639.166 445.379 636.415Z"
     id="path48" />
  <path
     fill="#F7F7F7"
     transform="scale(0.0433333 0.0433333)"
     d="M487.466 636.432C491.988 636.345 496.874 636.451 501.427 636.474L501.375 665.417C501.379 669.795 501.669 677.588 501.016 681.504C499.686 682.296 497.517 682.09 495.877 682.107C493.733 682.186 493.463 682.205 491.39 681.763C489.822 679.899 490.57 649.76 490.574 645.074L481.444 645.053C483.463 641.554 484.959 639.647 487.466 636.432Z"
     id="path49" />
  <path
     fill="#0B4296"
     transform="scale(0.0433333 0.0433333)"
     d="M440.713 374.771C463.663 370.714 485.539 386.087 489.496 409.052C493.452 432.018 477.982 453.823 454.997 457.679C432.154 461.511 410.51 446.159 406.578 423.335C402.645 400.511 417.904 378.803 440.713 374.771Z"
     id="path50" />
  <path
     fill="#F7F7F7"
     transform="scale(0.0433333 0.0433333)"
     d="M453.582 404.875C466.034 405.43 466.041 422.846 457.329 427.401C444.029 427.235 444.65 409.442 453.582 404.875Z"
     id="path51" />
  <path
     fill="#0B4296"
     transform="scale(0.0433333 0.0433333)"
     d="M453.424 408.169C455.305 408.206 455.813 408.056 457.341 408.997C460.261 412.644 459.774 420.632 457.153 424.246C455.193 424.206 455.077 424.253 453.412 423.327C450.204 419.709 450.92 412.036 453.424 408.169Z"
     id="path52" />
  <path
     fill="#F1F6FB"
     transform="scale(0.0433333 0.0433333)"
     d="M466.217 405.349C470.751 405.217 479.316 404.598 480.904 411.205C482.152 416.395 476.032 418.634 471.675 419.221L470.667 419.223C469.057 422.08 471.166 423.621 469.599 426.6C467.804 427.306 468.709 427.205 466.78 426.877C466.124 425.308 466.262 408.534 466.217 405.349Z"
     id="path53" />
  <path
     fill="#0B4296"
     transform="scale(0.0433333 0.0433333)"
     d="M470.023 408.294C473.211 408.33 474.066 408.093 476.183 410.428C476.674 412.733 476.349 413.246 475.706 415.616C473.324 416.004 472.488 416.296 470.594 415.374C469.507 413.499 469.944 410.629 470.023 408.294Z"
     id="path54" />
  <path
     fill="#F7F7F7"
     transform="scale(0.0433333 0.0433333)"
     d="M420.725 404.914C425.679 404.919 427.505 405.685 429.717 410.214L429.358 410.675C427.145 410.853 424.121 408.907 420.429 408.858L419.653 409.637C420.23 414.987 440.133 421.59 423.627 427.573C420.372 427.127 416.374 425.739 415.353 422.23C416.013 420.332 415.424 420.988 417 420.05C419.848 420.556 420.78 424.434 424.192 424.257C425.531 422.547 425.114 423.484 425.476 421.331C423.654 417.49 418.646 416.394 416.557 413.339C415.943 412.427 415.723 411.305 415.946 410.228C416.483 407.739 418.758 406.181 420.725 404.914Z"
     id="path55" />
  <path
     fill="#F7F7F7"
     transform="scale(0.0433333 0.0433333)"
     d="M430.986 405.394C434.385 405.279 441.747 405.133 445.193 405.648C445.734 405.729 445.843 406.574 446.103 407.292C444.813 408.993 444.133 408.119 441.004 408.769C439.986 410.963 440.438 419.594 440.48 422.574C440.563 424.265 440.724 424.959 440.119 426.564C438.475 427.286 439.302 427.182 437.555 426.926C434.76 423.218 438.453 411.351 435.697 408.443C434.046 408.485 433.217 408.637 431.668 408.025L430.986 405.394Z"
     id="path56" />
  <path
     fill="#0B4296"
     transform="scale(0.0433333 0.0433333)"
     d="M338.147 377.572C359.672 374.307 379.748 389.169 382.908 410.707C386.069 432.246 371.108 452.247 349.552 455.302C328.144 458.336 308.308 443.502 305.169 422.111C302.03 400.72 316.769 380.814 338.147 377.572Z"
     id="path57" />
  <path
     fill="#0B4296"
     transform="scale(0.0433333 0.0433333)"
     d="M342.231 1012.7C353.419 1011.01 366.024 1013.48 375.576 1019.41C393.681 1030.66 394.486 1053.06 376.496 1064.87C369.665 1069.36 364.364 1070.68 356.489 1072.22C300.559 1076.81 289.914 1020.22 342.231 1012.7Z"
     id="path58" />
  <path
     fill="#F7F7F7"
     transform="scale(0.0433333 0.0433333)"
     d="M346.39 1030.59C348 1030.57 348.983 1030.36 350.269 1031.28C351.371 1033.6 350.573 1037.75 350.431 1040.54C352.932 1039.32 357.96 1036.14 360.064 1039.07C358.328 1042.61 355.465 1042.64 351.801 1043.62C354.526 1046.92 356.564 1048.53 356.453 1052.74C353.51 1054.51 351.648 1050.17 350.384 1047.96C349.705 1046.93 349.797 1046.86 348.67 1046.42C346.766 1047.78 346.264 1050.7 343.878 1053.21L342.818 1053.19C340.986 1051.92 341.318 1052.54 340.681 1050.74L345.838 1043.58C342.982 1042.84 337.657 1042.2 338.101 1038.44L339.534 1037.74C342.122 1037.63 344.464 1039.01 346.923 1040.1L346.39 1030.59Z"
     id="path59" />
  <path
     fill="#0B4296"
     transform="scale(0.0433333 0.0433333)"
     d="M540.239 1012.69C591.556 1005.88 608.887 1063.21 554.495 1072.19C499.105 1076.53 488.29 1021.19 540.239 1012.69Z"
     id="path60" />
  <path
     fill="#F7F7F7"
     transform="scale(0.0433333 0.0433333)"
     d="M536.435 1029.49C547.48 1030.61 548.019 1042.03 544.649 1050.49C543.475 1053.44 541.163 1054.3 538.319 1055.19C524.74 1054.19 524.866 1033.19 536.435 1029.49Z"
     id="path61" />
  <path
     fill="#0B4296"
     transform="scale(0.0433333 0.0433333)"
     d="M536.015 1032.8C544.819 1034.12 543.579 1047.45 538.594 1051.93C529.722 1050.77 531.112 1037.15 536.015 1032.8Z"
     id="path62" />
  <path
     fill="#F7F7F7"
     transform="scale(0.0433333 0.0433333)"
     d="M550.017 1029.79C551.733 1029.79 552.273 1029.64 553.705 1030.59C554.962 1033.4 554.357 1037.57 554.298 1040.93C556.455 1037.56 560.56 1030.29 564.726 1029.92C565.392 1032.78 560.685 1038.4 558.953 1040.8L564.462 1050.31C565.308 1051.78 565.393 1051.95 565.934 1053.55L565.16 1054.98L563.839 1055.36C561.463 1054.08 558.433 1047.94 556.553 1045.17L555.756 1045.34C554.11 1049.03 554.618 1051.93 553.242 1055.08C548.16 1055.53 550.01 1034.48 550.017 1029.79Z"
     id="path63" />
  <path
     fill="#0B4296"
     transform="scale(0.0433333 0.0433333)"
     d="M542.345 868.565C595.561 863.628 606.068 922.951 552.118 928.341C500.763 932.818 486.848 875.635 542.345 868.565Z"
     id="path64" />
  <path
     fill="#F7F7F7"
     transform="scale(0.0433333 0.0433333)"
     d="M529.256 883.089C530.638 884.187 530.217 885.144 529.993 886.588C527.993 887.196 526.587 887.684 524.65 888.467C523.171 890.106 523.038 890.331 522.523 892.475C523.97 894.642 527.532 891.38 530.45 893.958C535.217 898.17 533.883 905.4 530.407 909.904C527.795 910.996 524.805 911.908 522.305 910.127C515.98 905.623 516.755 893.273 520.935 887.481C523.242 884.283 525.749 883.757 529.256 883.089Z"
     id="path65" />
  <path
     fill="#0B4296"
     transform="scale(0.0433333 0.0433333)"
     d="M523.882 896.261C531.434 896.306 530.565 902.693 528.078 907.871C526.637 907.881 526.166 907.753 524.796 907.477C520.682 904.545 521.365 900.111 523.882 896.261Z"
     id="path66" />
  <path
     fill="#F7F7F7"
     transform="scale(0.0433333 0.0433333)"
     d="M569.95 897.512C579.236 897.011 579.778 905.24 574.576 910.923C566.304 912.148 565.344 902.76 569.95 897.512Z"
     id="path67" />
  <path
     fill="#0B4296"
     transform="scale(0.0433333 0.0433333)"
     d="M570.768 899.12C571.929 899.172 572.483 899.374 573.604 899.666C576.854 902.336 575.526 905.694 574.218 909.108C571.88 909.174 571.542 908.884 570.033 907.399C568.836 904.325 569.563 902.076 570.768 899.12Z"
     id="path68" />
  <path
     fill="#F7F7F7"
     transform="scale(0.0433333 0.0433333)"
     d="M548.441 897.046C553.743 898.306 553.927 907.302 551.855 910.472L550.858 910.313C549.039 906.617 552.728 900.121 547.647 899.387C544.093 902.457 547.302 908.367 545.156 910.759L543.995 909.93L543.765 907.764C543.917 904.806 544.842 899.686 540.943 899.118C537.296 901.433 540.646 907.275 538.52 910.757L537.482 910.555C536.704 908.069 536.777 902.082 537.38 899.447C540.345 895.75 542.751 900.289 548.441 897.046Z"
     id="path69" />
  <path
     fill="#F7F7F7"
     transform="scale(0.0433333 0.0433333)"
     d="M561.046 897.469L561.717 897.352C566.123 899.174 565.259 906.337 564.131 910.192L563.414 910.256C561.81 905.373 564.196 901.566 560.046 898.574C556.64 901.73 558.183 904.898 557.714 910.238L556.704 910.735L555.873 910.014C555.545 906.746 554.619 900.432 556.842 898.12C558.503 897.991 559.406 897.807 561.046 897.469Z"
     id="path70" />
  <path
     fill="#0B4296"
     transform="scale(0.0433333 0.0433333)"
     d="M343.678 868.571C361.463 866.641 386.459 874.867 389.359 895.074C390.26 901.743 388.436 908.493 384.299 913.8C377.646 922.498 366.4 926.767 355.851 928.127C300.593 933.309 289.774 874.754 343.678 868.571Z"
     id="path71" />
  <path
     fill="#F7F7F7"
     transform="scale(0.0433333 0.0433333)"
     d="M335.151 883.44C336.881 883.427 336.897 883.38 338.527 883.86C341.415 888.19 338.35 898.208 339.777 900.873L341.924 901.459C342.595 903.006 342.522 902.21 342.001 903.934C337.817 904.605 340.186 906.282 339.03 910.348C337.348 910.938 338.205 910.854 336.36 910.472C335.34 909.259 335.449 907.56 335.328 905.905C335.377 905.635 335.229 905.151 335.164 904.838C332.971 904.174 327.012 904.367 324.428 904.357C325.615 899.84 332.537 888.122 335.151 883.44Z"
     id="path72" />
  <path
     fill="#0B4296"
     transform="scale(0.0433333 0.0433333)"
     d="M334.952 890.56L335.276 890.931C335.997 894.113 336.28 897.288 334.96 900.296C333.319 901.665 333.097 901.244 330.61 901.36L329.984 900.303C330.837 897.487 333.433 893.256 334.952 890.56Z"
     id="path73" />
  <path
     fill="#F7F7F7"
     transform="scale(0.0433333 0.0433333)"
     d="M346.755 910.237L346.509 909.603C343.987 903.008 343.602 897.042 352.64 897.953L354.002 897.142C357.16 900.385 355.886 913.918 350.45 916.089C348.025 915.914 348.977 916.215 346.78 914.493L346.319 913.383L346.755 910.237Z"
     id="path74" />
  <path
     fill="#0B4296"
     transform="scale(0.0433333 0.0433333)"
     d="M346.755 910.237C348.997 910.658 349.544 910.609 351.684 909.82L352.699 910.158C352.912 912.438 353.186 911.737 352.084 913.282C348.972 914.238 348.317 913.04 346.319 913.383L346.755 910.237Z"
     id="path75" />
  <path
     fill="#0B4296"
     transform="scale(0.0433333 0.0433333)"
     d="M348.454 898.993L351.053 899.404C354.078 902.074 353.208 905.595 351.882 909.045L349.277 908.574C346.048 905.968 347.376 902.444 348.454 898.993Z"
     id="path76" />
  <path
     fill="#F7F7F7"
     transform="scale(0.0433333 0.0433333)"
     d="M358.399 891.333C360.045 892.168 359.379 891.581 360.377 893.253C360.135 895.346 359.897 895.947 360.589 897.853C362.101 897.585 362.835 897.582 364.381 897.549C368.438 899.735 367.713 906.052 366.258 909.754L365.567 909.824C364.468 907.415 364.758 904.324 364.782 901.618C364.63 899.665 363.766 899.587 362.217 899.237C357.95 901.761 362.082 908.933 359.064 910.389C357.519 907.138 357.872 895.216 358.399 891.333Z"
     id="path77" />
  <path
     fill="#F7F7F7"
     transform="scale(0.0433333 0.0433333)"
     d="M370.963 896.8C373.752 898.511 372.558 907.743 372.439 911.074C371.844 910.848 370.98 910.673 370.804 910.225C369.659 907.306 370.167 899.523 370.963 896.8Z"
     id="path78" />
  <path
     fill="#0B4296"
     transform="scale(0.0433333 0.0433333)"
     d="M342.558 940.622C360.09 938.056 385.22 946.081 389.102 965.683C390.361 972.325 388.857 979.194 384.935 984.701C378.207 994.329 366.905 998.226 355.839 1000.07C301.616 1005.23 289.413 948.005 342.558 940.622Z"
     id="path79" />
  <path
     fill="#F7F7F7"
     transform="scale(0.0433333 0.0433333)"
     d="M318.701 955.199C323.692 954.861 330.683 955.042 335.826 955.038C334.451 960.861 328.546 975.75 326.161 982.332C324.335 982.415 324.077 982.534 322.502 981.759C322.746 979.251 329.896 961.986 331.302 958.486C328.019 958.367 322.394 959.341 319.676 957.832C318.962 957.435 318.932 956.223 318.701 955.199Z"
     id="path80" />
  <path
     fill="#F7F7F7"
     transform="scale(0.0433333 0.0433333)"
     d="M338.724 968.376L340.382 969.204C343.661 969.032 345.787 968.74 347.988 971.616C348.982 974.848 348.644 981.01 344.621 982.02L341.475 981.679C339.74 983.268 341.803 984.389 340.136 987.201L339.1 987.161C337.998 985.685 338.643 971.353 338.724 968.376Z"
     id="path81" />
  <path
     fill="#0B4296"
     transform="scale(0.0433333 0.0433333)"
     d="M342.837 970.224C347.542 972.5 346.753 977.013 344.32 980.951C339.073 979.28 339.164 973.266 342.837 970.224Z"
     id="path82" />
  <path
     fill="#F7F7F7"
     transform="scale(0.0433333 0.0433333)"
     d="M353.422 968.394C356.399 968.533 356.589 970.025 359.271 968.822C360.592 971.149 360.292 984.395 359.193 986.82L357.663 987.227C357.749 985.28 357.955 983.979 357.354 982.11C347.938 981.082 347.935 974.097 353.422 968.394Z"
     id="path83" />
  <path
     fill="#0B4296"
     transform="scale(0.0433333 0.0433333)"
     d="M354.442 970.076L356.531 971.008C358.811 973.738 358.302 978.473 356.087 981.096C351.093 978.967 351.899 973.996 354.442 970.076Z"
     id="path84" />
  <path
     fill="#F7F7F7"
     transform="scale(0.0433333 0.0433333)"
     d="M373.167 968.507C375.894 968.514 379.028 968.886 379.138 972.077L378.555 972.502C377.304 971.772 376.048 971.053 374.785 970.344L373.739 970.712L373.247 972.31C374.711 975.583 379.064 974.226 379.839 978.729C379.098 980.763 378.865 980.838 377.194 982.338C375.264 982.292 374.831 982.236 372.964 981.746C371.325 980.149 371.227 980.55 370.761 978.676C372.557 978.603 374.645 980.252 376.889 979.677C378.124 975.702 372.801 976.949 370.903 972.831C371.209 970.579 371.635 970.344 373.167 968.507Z"
     id="path85" />
  <path
     fill="#F1F6FB"
     transform="scale(0.0433333 0.0433333)"
     d="M363.33 968.671C365.111 969.458 365.898 968.959 368.286 969.813C364.963 973.444 365.256 973.658 365.451 978.662C365.492 980.119 365.365 981.063 364.798 982.427C362.826 979.782 363.304 972.287 363.33 968.671Z"
     id="path86" />
  <path
     fill="#0B4296"
     transform="scale(0.0433333 0.0433333)"
     d="M540.574 940.614C589.406 933.389 609.965 990.297 554.961 1000.03C536.414 1002.25 510.018 995.069 506.943 973.568C506.037 967.056 507.785 960.453 511.794 955.241C518.51 946.435 529.939 942.119 540.574 940.614Z"
     id="path87" />
  <path
     fill="#F7F7F7"
     transform="scale(0.0433333 0.0433333)"
     d="M520.367 954.498C537.042 954.073 531.551 981.992 520.153 982.191C518.103 981.248 518.786 981.887 517.788 979.403C521.269 978.729 527.59 976.973 525.895 971.989C523.822 972.59 522.868 972.823 520.734 973.112C511.56 970.356 513.64 959.307 520.367 954.498Z"
     id="path88" />
  <path
     fill="#0B4296"
     transform="scale(0.0433333 0.0433333)"
     d="M521.38 957.785C527.82 959.557 528.148 965.85 523.932 970.144L521.327 969.514C517.5 966.251 518.5 961.338 521.38 957.785Z"
     id="path89" />
  <path
     fill="#F7F7F7"
     transform="scale(0.0433333 0.0433333)"
     d="M543.851 978.574L543.93 978.138C544.357 975.827 545.187 970.375 547.223 968.973C547.949 970.946 547.624 970.66 547.203 973.071C546.676 975.898 546.382 979.427 544.48 981.432L543.467 981.179C541.853 979.061 541.278 975.286 540.675 972.573C539.944 975.852 539.652 979.046 537.414 981.424L536.316 981.307C534.575 979.122 533.32 971.07 533.922 968.41C536.136 969.717 536.737 975.361 537.278 977.941C537.911 975.286 538.46 971.418 540.458 969.75L541.506 970.171C543.005 972.52 543.332 975.77 543.851 978.574Z"
     id="path90" />
  <path
     fill="#F1F6FB"
     transform="scale(0.0433333 0.0433333)"
     d="M560.747 968.39C563.711 969.092 564.555 976.12 565.209 978.918C565.844 975.999 566.327 972.443 568.075 970.13L568.792 970.288C569.183 972.883 567.964 975.971 567.184 978.559C566.326 981.686 565.431 986.384 562.266 987.601L561.111 986.855C567.74 978.132 559.821 976.794 560.747 968.39Z"
     id="path91" />
  <path
     fill="#F7F7F7"
     transform="scale(0.0433333 0.0433333)"
     d="M549.819 968.465C552.707 969.245 552.2 969.748 554.032 972.424C556.032 972.314 554.839 970.248 557.642 968.616L558.372 969.128C558.26 970.807 556.399 973.687 555.497 975.309C556.958 977.694 558.786 980.084 558.512 982.669C556.537 981.883 556.162 980.901 554.966 979.079L554.511 978.379C552.887 978.305 553.295 980.952 550.769 982.184C549.701 979.933 551.927 977.307 553.148 975.489C551.748 973.074 550.416 971.177 549.819 968.465Z"
     id="path92" />
  <path
     fill="#F7F7F7"
     transform="scale(0.0433333 0.0433333)"
     d="M573.835 968.848C576.147 968.735 578.487 968.883 580.804 968.976C579.518 971.435 575.033 977.831 574.884 979.611C576.797 979.98 578.413 980.279 580.301 980.808L580.398 981.53L579.081 982.31L570.716 981.999C572.689 978.19 574.954 975.662 576.784 971.514C575.45 969.92 573.782 971.714 571.327 970.147L571.72 969.408L573.835 968.848Z"
     id="path93" />
  <path
     fill="#0B4296"
     transform="scale(0.0433333 0.0433333)"
     d="M341.808 797.049C396.512 790.857 407.19 849.094 357.498 856.008C306.501 864.387 285.837 805.85 341.808 797.049Z"
     id="path94" />
  <path
     fill="#F7F7F7"
     transform="scale(0.0433333 0.0433333)"
     d="M351.277 812.018L351.841 812.201C353.153 814.054 353.662 836.717 350.757 839.366L349.323 839.283C348.274 838.011 348.644 837.798 348.558 835.693L348.638 817.148C346.436 818.096 345.023 819.007 342.7 818.711L342.374 818.07C344.316 814.598 347.739 813.529 351.277 812.018Z"
     id="path95" />
  <path
     fill="#0B4296"
     transform="scale(0.0433333 0.0433333)"
     d="M540.168 797.067C590.845 790.164 608.976 846.693 555.472 856.084C537.024 858.678 510.189 851.417 506.893 830.083C505.952 823.815 507.547 817.43 511.324 812.34C518.068 803.152 529.287 798.802 540.168 797.067Z"
     id="path96" />
  <path
     fill="#F7F7F7"
     transform="scale(0.0433333 0.0433333)"
     d="M529.27 811.488C531.592 811.486 534.95 812.135 536.528 813.426C541.062 817.134 536.134 821.912 535.831 825.636C535.825 825.71 538.94 830.561 538.925 832.399C538.912 833.96 538.812 834.966 537.506 836.34C535.728 838.21 532.112 840.094 529.541 840.079C528.106 840.071 526.37 839.328 525.533 838.194C524.088 836.237 523.335 834.741 523.457 832.364L524.652 831.517C526.292 831.826 525.7 831.416 526.624 832.548C526.996 833.339 527.521 834.228 527.949 835.005C529.648 836.187 529.915 836.214 531.99 836.358C534.807 835.013 535.2 832.08 534.546 829.222C531.74 826.436 529.764 829.056 527.772 825.11C528.898 823.637 530.208 824.104 532.887 822.921C535.088 820.399 535.003 818.074 532.885 815.628C527.896 814.264 526.694 819.229 523.509 819.209C523.654 814.248 525.1 813.344 529.27 811.488Z"
     id="path97" />
  <path
     fill="#F7F7F7"
     transform="scale(0.0433333 0.0433333)"
     d="M550.005 819.859C550.582 820.184 551.336 820.441 551.445 820.974C552.209 824.722 552.416 835.473 551.632 838.625C549.114 839.061 547.334 839.506 544.77 839.295C542.863 836.91 540.712 831.595 542.547 828.857C544.379 826.123 547.428 827.026 549.349 825.689C549.71 823.551 549.84 822.003 550.005 819.859Z"
     id="path98" />
  <path
     fill="#0B4296"
     transform="scale(0.0433333 0.0433333)"
     d="M546.615 827.268C547.875 827.691 547.931 827.78 549.056 828.52C550.465 831.868 550.332 835.462 547.578 838.098C543.405 835.235 543.24 830.902 546.615 827.268Z"
     id="path99" />
  <path
     fill="#F7F7F7"
     transform="scale(0.0433333 0.0433333)"
     d="M557.373 826.159C559.113 825.988 559.326 826.024 561.071 826.291C563.102 827.653 563.409 827.847 564.784 829.851C564.925 831.801 565.04 831.038 563.959 832.874C562.786 832.957 561.615 833.057 560.445 833.174C558.211 833.419 557.606 833.355 556.477 834.744C557.658 837.747 559.543 837.556 562.085 837.13C562.458 836.499 562.244 836.791 563.136 836.424L563.485 837.219C560.198 844.138 548.971 835.78 557.373 826.159Z"
     id="path100" />
  <path
     fill="#F7F7F7"
     transform="scale(0.0433333 0.0433333)"
     d="M569.613 820.012C570.736 820.18 571.56 820.492 572.628 820.843L572.739 821.555C571.27 822.555 571.017 822.75 569.743 823.981C569.583 827.138 570.5 824.473 571.673 826.989C569.102 831.146 569.719 832.266 569.903 837.158L569.537 838.813L568.741 838.958C568.481 838.633 568.103 838.216 568.061 837.832C567.208 830.141 565.547 826.621 569.613 820.012Z"
     id="path101" />
  <path
     fill="#0B4296"
     transform="scale(0.0433333 0.0433333)"
     d="M442.126 806.431C453.872 804.895 467.214 807.743 476.782 814.708C494.821 827.84 490.995 851.011 471.759 860.618C465.292 863.848 461.349 864.669 454.16 865.712C436.376 868.017 410.732 859.617 407.812 839.362C406.912 832.88 408.66 826.309 412.662 821.13C419.794 811.766 430.952 808.045 442.126 806.431Z"
     id="path102" />
  <path
     fill="#F7F7F7"
     transform="scale(0.0433333 0.0433333)"
     d="M426.49 820.914C430.422 820.352 436.636 821.047 436.897 826.062C437.26 833.051 430.971 839.841 426.889 844.995C429.92 845.045 435.62 844.298 437.666 846.705C434.88 849.149 428.429 848.492 424.706 848.396C423.009 848.329 423.731 848.588 422.403 847.79C421.871 841.005 438.89 830.287 431.194 823.887C427.708 823.795 425.937 827.128 422.64 829.615L421.926 829.348C421.537 824.536 422.841 823.462 426.49 820.914Z"
     id="path103" />
  <path
     fill="#F7F7F7"
     transform="scale(0.0433333 0.0433333)"
     d="M453.546 829.21C457.623 831.04 453.994 832.152 456.047 835.525C459.648 835.657 460.535 835.396 462.721 837.695C463.788 840.722 462.939 844.317 461.975 847.294C459.521 848.544 457.106 849.207 454.641 847.566C452.231 843.634 453.421 834.496 453.546 829.21Z"
     id="path104" />
  <path
     fill="#0B4296"
     transform="scale(0.0433333 0.0433333)"
     d="M457.529 836.393C458.298 836.775 459.066 837.279 459.805 837.73C461.634 841.171 461.47 844.551 458.737 847.508C457.769 847 457.113 846.44 456.256 845.777C454.551 842.313 454.666 839.221 457.529 836.393Z"
     id="path105" />
  <path
     fill="#F7F7F7"
     transform="scale(0.0433333 0.0433333)"
     d="M440.916 839.404C442.023 835.991 443.312 834.455 447.005 835.283C450.94 838.234 451.596 843.437 449.938 847.839C447.272 848.676 445.055 848.726 442.481 847.605C440.629 845.519 440.946 844.069 442.454 841.749L440.916 839.404Z"
     id="path106" />
  <path
     fill="#0B4296"
     transform="scale(0.0433333 0.0433333)"
     d="M440.916 839.404C444.548 837.827 443.853 837.524 447.274 838.104L448.001 838.796C446.828 840.741 446.284 840.795 443.826 841.417C443.37 841.532 442.912 841.643 442.454 841.749L440.916 839.404Z"
     id="path107" />
  <path
     fill="#F7F7F7"
     transform="scale(0.0433333 0.0433333)"
     d="M468.172 834.903C470.664 834.852 474.533 835.728 475.118 838.43L473.755 839.362C471.868 837.944 470.438 836.375 468.134 837.248C466.916 839.42 467.388 842.839 467.812 845.202C469.189 846.849 468.617 846.325 471.017 846.984C471.92 845.824 472.095 845.69 473.154 844.758L474.1 844.854L474.006 846.174C472.036 849.086 469.585 849.345 466.66 847.504C463.554 843.806 464.904 838.099 468.172 834.903Z"
     id="path108" />
  <path
     fill="#0B4296"
     transform="scale(0.0433333 0.0433333)"
     d="M441.604 1021.47C453.219 1020.03 465.878 1022.45 475.702 1028.84C488.207 1036.96 492.917 1052.68 483.937 1065.28C477.324 1074.55 466.833 1078.48 456.027 1080.36C437.599 1082.55 411.433 1075.93 407.845 1054.66C406.81 1048.22 408.446 1041.64 412.375 1036.44C419.174 1027.29 430.682 1022.99 441.604 1021.47Z"
     id="path109" />
  <path
     fill="#F7F7F7"
     transform="scale(0.0433333 0.0433333)"
     d="M445.316 1036.5C456.463 1035.44 456.623 1046.37 455.867 1054.72C455.476 1059.04 454.27 1061.46 450.714 1064.09C439.041 1065.19 439.259 1053.77 440.175 1045.17C440.607 1041.11 441.929 1038.88 445.316 1036.5Z"
     id="path110" />
  <path
     fill="#0B4296"
     transform="scale(0.0433333 0.0433333)"
     d="M447.085 1039.02C450.807 1040.66 451.439 1042.27 451.88 1046.25C452.454 1051.43 452.354 1057.41 448.94 1061.49C447.852 1061.16 447.134 1060.68 446.154 1060.13C442.365 1055.34 443.16 1043.64 447.085 1039.02Z"
     id="path111" />
  <path
     fill="#0B4296"
     transform="scale(0.0433333 0.0433333)"
     d="M440 878.505C457.968 875.805 483.954 882.884 488.143 903.189C489.404 909.57 488.05 916.191 484.384 921.565C477.974 931.075 466.969 935.196 456.191 937.203C403.213 944.421 387.571 886.938 440 878.505Z"
     id="path112" />
  <path
     fill="#F7F7F7"
     transform="scale(0.0433333 0.0433333)"
     d="M430.758 892.433C433.844 892.428 440.362 892.241 443.143 892.684C443.919 894.335 443.827 893.513 443.567 895.214C441.257 896.754 438.228 895.004 434.588 896.807C429.611 904.318 439.063 901.615 440.901 903.414C447.995 910.357 444.995 919.771 434.363 920.325C431.51 918.898 428.326 916.414 428.927 912.858L430.092 912.305C433.669 913.58 432.967 916.826 437.164 917.144C440.41 915.378 440.989 912.144 440.306 908.558C439.354 903.558 432.577 907.75 429.933 906.094C429.477 903.027 430.425 895.823 430.758 892.433Z"
     id="path113" />
  <path
     fill="#F7F7F7"
     transform="scale(0.0433333 0.0433333)"
     d="M453.624 900.66L455.445 901.399C456.47 903.95 455.888 909.509 455.744 912.418L456.222 911.742C457.639 909.756 458.917 907.62 461.37 907.213C461.22 909.048 459.493 910.646 458.234 912.14L461.911 917.573C462.428 918.594 462.356 918.548 462.258 919.705C459.658 919.791 459.23 915.696 456.308 914.85C455.931 916.298 455.643 918.113 454.687 919.162C453.161 916.548 453.615 904.185 453.624 900.66Z"
     id="path114" />
  <path
     fill="#F7F7F7"
     transform="scale(0.0433333 0.0433333)"
     d="M448.877 906.158L449.779 906.753C451.309 909.324 450.662 917.268 450.434 920.301C450.222 923.114 449.819 924.032 447.741 925.889L446.405 924.607C446.073 922.411 448.06 923.993 448.302 920.749C448.631 916.356 447.56 910.225 448.877 906.158Z"
     id="path115" />
  <path
     fill="#F7F7F7"
     transform="scale(0.0433333 0.0433333)"
     d="M465.37 900.69L466.755 901.238C468.282 903.86 467.51 916.447 467.409 920.052L465.922 919.675C464.469 917.016 465.272 904.276 465.37 900.69Z"
     id="path116" />
  <path
     fill="#0B4296"
     transform="scale(0.0433333 0.0433333)"
     d="M440.769 949.983C453.203 948.531 465.25 950.354 475.907 957.466C488.084 965.591 492.966 981.211 483.807 993.596C476.805 1003.06 466.217 1006.94 454.891 1008.82C405.646 1015.77 385.551 959.121 440.769 949.983Z"
     id="path117" />
  <path
     fill="#F7F7F7"
     transform="scale(0.0433333 0.0433333)"
     d="M430.059 963.892C433.339 963.957 436.158 964.299 438.512 966.84C440.774 971.667 436.692 975.041 437.27 977.498C438.748 983.777 443.801 987.568 433.748 992.148C417.486 992.025 427.225 980.139 426.929 976.962C426.382 971.079 420.361 969.547 430.059 963.892Z"
     id="path118" />
  <path
     fill="#0B4296"
     transform="scale(0.0433333 0.0433333)"
     d="M430.788 978.875C437.001 979.559 436.7 984.553 433.955 988.889C426.878 988.32 426.574 983.592 430.788 978.875Z"
     id="path119" />
  <path
     fill="#0B4296"
     transform="scale(0.0433333 0.0433333)"
     d="M430.429 967.06C431.731 967.19 432.19 967.361 433.434 967.714C436.505 970.693 435.747 972.348 433.736 975.955C432.536 975.907 431.876 975.684 430.736 975.385C427.789 972.529 428.327 970.46 430.429 967.06Z"
     id="path120" />
  <path
     fill="#F1F6FB"
     transform="scale(0.0433333 0.0433333)"
     d="M451.553 978.224C455.848 979.253 451.908 985.436 454.944 989.812L456.145 989.91C460.982 986.462 456.59 981.269 459.217 978.388L460.161 978.786L460.47 980.127C460.564 983.563 460.783 987.454 460.408 990.825C458.915 991.877 454.972 991.961 453.204 991.217C450.727 988.08 451.486 982.395 451.553 978.224Z"
     id="path121" />
  <path
     fill="#F1F6FB"
     transform="scale(0.0433333 0.0433333)"
     d="M467.537 987.98C468.013 985.747 469.166 979.652 471.317 978.708C471.915 980.019 471.603 979.895 471.101 981.721C470.259 984.899 469.708 989.144 467.126 990.871C464.809 988.876 463.682 981.477 462.926 978.117L464.382 978.596C465.591 980.173 466.875 985.734 467.537 987.98Z"
     id="path122" />
  <path
     fill="#F7F7F7"
     transform="scale(0.0433333 0.0433333)"
     d="M445.522 974.258C450.198 977.649 446.343 983.52 447.183 988.731C448.473 990.026 448.771 990.293 449.156 992.081C447.516 991.812 447.544 991.795 446.136 991.123C443.058 987.237 443.844 978.735 445.522 974.258Z"
     id="path123" />
  <path
     fill="#0B4296"
     transform="scale(0.0433333 0.0433333)"
     d="M276.584 433.831C281.402 435.296 292.174 447.287 296.325 451.45L327.788 483.083C331.988 487.288 338.201 494.47 343.372 497.069C349.302 499.529 357.515 495.33 362.806 493.001C377.295 486.624 391.658 482.565 407.187 479.543C444.857 472.337 483.761 475.187 519.978 487.805C522.969 488.841 526.216 490.108 529.143 491.204C546.805 497.82 548.593 503.526 563.341 488.398C579.907 471.403 597.355 454.592 613.881 437.466C615.964 435.307 616.904 434.51 619.875 434.526C621.59 435.593 621.495 435.535 622.366 437.384C622.353 439.174 621.656 439.734 620.525 441.267C607.461 454.18 594.466 467.162 581.541 480.214C575.145 486.66 568.841 492.958 562.366 499.325C549.747 511.733 534.05 500.576 519.949 495.575C501.123 488.724 481.41 484.613 461.415 483.367C432.914 481.635 404.354 485.607 377.407 495.048C353.285 503.343 345.681 514.797 324.982 490.692C321.152 486.231 313.605 479.174 309.128 474.719L286.421 451.995C283.622 449.178 274.318 440.681 273.795 437.663C274.239 435.667 274.985 435.3 276.584 433.831Z"
     id="path124" />
  <path
     fill="#0B4296"
     transform="scale(0.0433333 0.0433333)"
     d="M563.742 394.148C571.786 392.435 580.129 395.173 585.592 401.319C591.056 407.465 592.797 416.071 590.152 423.857C587.507 431.643 580.883 437.409 572.807 438.956C560.496 441.314 548.582 433.321 546.097 421.037C543.612 408.753 551.483 396.759 563.742 394.148Z"
     id="path125" />
  <path
     fill="#F7F7F7"
     transform="scale(0.0433333 0.0433333)"
     d="M572.963 407.199C585.241 408 576.57 418.516 572.868 423.337C575.24 423.4 577.16 423.214 579.235 424.268L579.05 424.898C576.42 425.955 574.048 425.622 571.208 425.502L570.453 425.317C568.235 422.3 577.315 417.148 577.004 411.274C575.862 409.576 576.443 410.138 574.499 409.255C571.457 410.32 573.403 410.705 570.6 413.056L569.51 412.227L569.388 410.992C570.449 408.86 570.996 408.601 572.963 407.199Z"
     id="path126" />
  <path
     fill="#F7F7F7"
     transform="scale(0.0433333 0.0433333)"
     d="M562.173 407.5C564.039 407.414 565.907 407.03 567.101 408.557C565.721 409.693 562.924 409.632 560.992 409.796C559.762 410.981 560.204 411.043 560.148 413.439C561.553 415.314 563.995 416.013 566.262 417.138C564.414 417.932 562.991 417.795 560.972 417.845C559.139 420.695 561.343 422.391 559.636 425.259L558.55 425.228C557.619 423.992 557.57 410.953 558.259 408.836C559.789 407.281 559.377 407.779 562.173 407.5Z"
     id="path127" />
  <path
     fill="#0B4296"
     transform="scale(0.0433333 0.0433333)"
     d="M517.68 427.022C530.098 425.666 541.287 434.575 542.746 446.979C544.206 459.384 535.39 470.645 522.997 472.208C510.456 473.789 499.03 464.847 497.554 452.295C496.077 439.743 505.115 428.394 517.68 427.022Z"
     id="path128" />
  <path
     fill="#F7F7F7"
     transform="scale(0.0433333 0.0433333)"
     d="M523.685 440.523C532.871 440.78 529.827 444.028 529.504 449.903C529.358 452.539 532.224 453.476 530.026 457.37C526.475 459.964 520.47 459.243 521.606 454.387L522.721 454.349L524.274 455.917L524.951 456.723C527.104 456.82 526.149 457.099 527.912 455.854C528.713 454.208 528.804 454.272 528.535 452.53C527.615 451.11 526.835 451.028 525.186 450.385L524.565 450.148L524.299 449.434C526.619 448.313 528.099 448.015 528.839 445.552C528.176 443.411 528.775 444.225 527.138 442.917C524.886 442.879 523.787 443.739 521.783 444.82L521.256 444.47C521.554 442.351 522.063 442.134 523.685 440.523Z"
     id="path129" />
  <path
     fill="#F7F7F7"
     transform="scale(0.0433333 0.0433333)"
     d="M509.77 440.836C512.174 440.704 516.78 440.416 518.963 441.346L519.006 441.306C515.624 442.472 512.959 443.045 511.757 446.617C513.06 451.265 514.43 447.295 517.965 449.42L517.827 450.956C516.035 450.991 514.511 451.122 512.724 451.279C510.951 453.881 513.25 455.459 511.504 458.552L510.604 458.732C509.036 456.758 509.729 444.301 509.77 440.836Z"
     id="path130" />
  <path
     fill="#0B4296"
     transform="scale(0.0433333 0.0433333)"
     d="M516.388 370.044C528.813 367.992 540.538 376.434 542.531 388.866C544.524 401.299 536.026 412.983 523.583 414.917C511.222 416.838 499.633 408.41 497.653 396.06C495.673 383.71 504.046 372.082 516.388 370.044Z"
     id="path131" />
  <path
     fill="#F7F7F7"
     transform="scale(0.0433333 0.0433333)"
     d="M510.336 383.578C512.419 383.565 517.348 383.423 518.923 384.458L519.008 383.978L519.601 384.191C515.648 385.154 512.049 386.322 512.744 390.964L513.619 391.525C515.838 391.452 516.139 391.372 518.229 391.965L518.997 393.584C516.891 393.642 515.206 393.743 513.11 393.951C511.633 396.109 514.007 399.069 511.871 401.401L510.793 401.062C509.959 399.098 510.34 386.523 510.336 383.578Z"
     id="path132" />
  <path
     fill="#F7F7F7"
     transform="scale(0.0433333 0.0433333)"
     d="M527.663 383.762C529.712 384.318 528.638 399.187 528.103 401.039L527.108 401.306L526.364 400.625C526.471 397.166 527.328 389.852 525.224 387.479L523.112 387.362L522.583 386.66C523.451 385.357 526.094 384.461 527.663 383.762Z"
     id="path133" />
  <path
     fill="#0B4296"
     transform="scale(0.0433333 0.0433333)"
     d="M541.383 375.065C551.079 364.142 542.328 367.207 546.681 358.254C548.126 357.364 548.613 357.445 550.279 357.309C551.339 355.536 550.948 354.385 550.384 352.205C550.261 351.728 550.132 351.253 549.999 350.779L550.471 349.928C552.728 349.334 553.496 349.589 555.817 349.9C557.018 352.585 554.076 354.563 555.563 357.262C557.389 357.801 557.302 357.741 559.161 357.159C560.148 356 560.197 355.658 560.705 354.27C562.451 353.73 561.569 353.767 563.443 354.324L563.879 355.094C564.489 356.155 564.716 356.391 565.522 357.288C567.519 357.791 567.77 357.771 569.788 357.342L570.435 356.803C569.981 353.149 568.435 354.207 568.903 350.964C571.404 349.036 578.648 349.331 581.723 349.796C582.303 349.882 582.88 349.992 583.451 350.126L583.722 350.94C581.245 354.854 581.088 363.351 581.893 367.863C583.465 368.998 584.038 369.002 584.684 370.498C583.257 373.528 582.164 372.032 579.376 373.146C577.67 379.536 572.883 378.715 569.645 373.725C567.333 376.137 566.537 379.631 562.011 376.963C561.268 375.657 560.565 374.43 559.768 373.156C556.126 374.361 558.085 378.614 552.927 377.711C548.365 373.454 547.496 374.661 541.383 375.065Z"
     id="path134" />
  <path
     fill="#0B4296"
     transform="scale(0.0433333 0.0433333)"
     d="M569.645 373.725C571.155 373.015 572.257 372.468 573.706 371.641C577.181 371.39 577.028 373.469 579.376 373.146C577.67 379.536 572.883 378.715 569.645 373.725Z"
     id="path135" />
  <path
     fill="#F7F7F7"
     transform="scale(0.0433333 0.0433333)"
     d="M572.773 353.496C574.961 353.408 576.539 353.112 578.492 354.011C579.643 355.726 579.2 357.801 579.081 360.009C576.976 359.983 575.25 360.181 573.387 359.296C572.249 357.654 572.67 355.636 572.773 353.496Z"
     id="path136" />
  <path
     fill="#F7F7F7"
     transform="scale(0.0433333 0.0433333)"
     d="M563.249 371.238C563.955 370.748 564.873 370.684 565.64 371.071C566.407 371.459 566.899 372.236 566.923 373.095C566.946 373.954 566.497 374.757 565.752 375.186C564.666 375.812 563.279 375.47 562.608 374.411C561.937 373.353 562.22 371.953 563.249 371.238Z"
     id="path137" />
  <path
     fill="#F1F6FB"
     transform="scale(0.0433333 0.0433333)"
     d="M548.613 112.905C549.855 116.129 551.898 119.19 549.083 121.581C547.743 121.054 547.788 121.119 546.728 120.162C546.342 117.667 547.63 115.367 548.613 112.905Z"
     id="path140" />
</svg>
