<?xml version="1.0" encoding="UTF-8" standalone="no"?>
<svg
   width="1024"
   height="1024"
   viewBox="0 0 1024 1024"
   version="1.1"
   id="svg120"
   sodipodi:docname="brutto.svg"
   inkscape:version="1.4.4 (dcaf3e7d9e, 2026-05-05)"
   xmlns:inkscape="http://www.inkscape.org/namespaces/inkscape"
   xmlns:sodipodi="http://sodipodi.sourceforge.net/DTD/sodipodi-0.dtd"
   xmlns="http://www.w3.org/2000/svg"
   xmlns:svg="http://www.w3.org/2000/svg">
  <defs
     id="defs120" />
  <sodipodi:namedview
     id="namedview120"
     pagecolor="#ffffff"
     bordercolor="#000000"
     borderopacity="0.25"
     inkscape:showpageshadow="2"
     inkscape:pageopacity="0.0"
     inkscape:pagecheckerboard="0"
     inkscape:deskcolor="#d1d1d1"
     inkscape:zoom="0.25097656"
     inkscape:cx="512"
     inkscape:cy="510.00778"
     inkscape:window-width="839"
     inkscape:window-height="1387"
     inkscape:window-x="859"
     inkscape:window-y="39"
     inkscape:window-maximized="1"
     inkscape:current-layer="svg120" />
  <path
     fill="#FEFEFE"
     d="M0 0L1024 0L1024 1024L0 1024L0 0Z"
     id="path1" />
  <path
     fill="#2A4462"
     d="M615.409 39.7642C619.244 39.6768 623.08 39.6141 626.915 39.5762C681.145 39.1489 735.377 39.62 789.591 40.9893C816.119 41.5869 845.457 40.7383 871.238 45.607C900.121 51.0616 921.92 77.1864 927.01 105.299C929.639 119.816 930.182 134.791 930.966 149.456C932.614 182.28 933.477 215.139 933.555 248.004L935.361 333.768C935.899 371.418 935.681 410.621 935.707 448.343C935.628 532.945 934.423 617.543 932.094 702.113C931.694 723.972 931.034 745.826 930.114 767.67C929.592 781.944 929.95 794.752 927.169 808.901C919.506 847.878 890.265 875.433 851.26 882.129C834.903 884.938 818.399 885.234 801.719 885.979C770.187 887.13 738.643 887.948 707.093 888.434C607.326 890.578 507.529 890.937 407.75 889.51C347.725 889.343 287.706 888.28 227.713 886.319L191.69 884.845C173.927 884.01 159.026 883.673 142.462 875.83C113.54 862.136 97.6939 831.928 95.1009 800.94C94.0201 793.247 94.8738 784.977 94.112 777.337C92.0797 756.956 92.5449 736.959 92.3762 716.507L91.8427 641.25C91.65 593.637 89.5086 544.429 88.6068 496.678C87.1883 402.457 88.1506 308.215 91.4929 214.043C91.9889 197.242 92.296 180.436 92.4142 163.628C92.5067 146.925 91.9069 124.328 95.0929 108.232C109.431 35.7937 181.673 42.1426 238.604 43.0434C264.335 43.4684 290.07 43.6112 315.804 43.4719L615.409 39.7642Z"
     id="path2" />
  <path
     fill="#BADAED"
     d="M318.824 307.128C323.594 307.187 336.508 306.626 340.354 307.594C349.726 309.953 355.527 313.36 365.976 313.369C377.005 313.379 383.515 309.901 393.859 307.471C397.503 306.615 405.198 307.046 408.988 307.211C410.508 313.785 410.336 314.248 417.072 315.311C420.247 318.52 416.898 323.901 418.852 328.557C419.926 329.454 420.553 329.791 421.929 329.962C435.374 331.628 432.947 325.616 432.705 315.51L479.004 315.423C479.093 318.73 478.741 322.4 478.673 325.24C478.517 331.665 489.134 331.718 492.195 328.325C493.992 326.334 493.129 317.407 493.078 315.521L538.567 315.46C538.23 328.781 536.456 330.93 551.01 330.056L550.7 500.678C550.743 504.76 550.74 508.842 550.692 512.923C524.738 513.454 496.891 512.94 470.809 512.937L323.898 512.834L323.674 502.825C327.237 502.634 334.523 503.483 337.071 500.996C340.537 497.178 339.951 482.637 336.141 479.537C332.939 476.931 316.611 477.931 311.819 477.95C310.933 463.954 310.802 447.818 310.471 433.798C309.677 400.117 310.107 365.525 314.274 332.084C315.212 324.562 316.37 314.167 318.824 307.128Z"
     id="path3" />
  <path
     fill="#2A4462"
     d="M351.645 457.64C359.133 457.649 390.143 456.249 394.466 459.248C396.096 462.592 395.946 484.682 395.834 490.294C395.804 491.799 394.359 492.759 393.081 493.446C383.562 493.197 373.819 493.69 364.28 493.657C360.591 493.644 352.784 494.304 350.112 491.675C349.056 489.309 348.673 486.518 348.823 483.825C349.262 475.908 347.389 467.622 348.872 459.851C349.11 458.602 350.642 458.116 351.645 457.64Z"
     id="path4" />
  <path
     fill="#BADAED"
     d="M615.23 307.106C619.157 306.972 626.994 306.589 630.473 307.441C640.772 309.964 647.604 313.297 658.534 313.248C669.22 313.2 675.791 309.683 685.582 307.383C688.74 306.641 701.366 307.074 705.528 307.148C708.113 316.015 710.036 332.359 710.916 341.691C715.153 386.643 713.76 432.953 712.267 478.045C708.399 478.04 704.435 477.849 700.62 477.869C694.216 477.924 686.55 476.54 685.232 484.901C684.488 489.614 684.454 496.188 687.122 500.354C688.155 501.968 690.334 502.381 692.074 502.634L700.333 502.905C700.425 505.977 700.294 509.598 700.255 512.715C686.62 513.118 671.883 512.886 658.174 512.897C639.204 513.012 620.233 512.941 601.264 512.687L601.126 375.25C600.988 360.419 601.182 345.276 600.73 330.486C611.575 330.461 609.172 323.976 608.859 315.537C614.364 313.719 614.026 312.607 615.23 307.106Z"
     id="path5" />
  <path
     fill="#BADAED"
     d="M728.117 307.251C746.535 307.018 766.161 306.665 784.562 307.333C796.137 341.479 795.745 478.65 785.441 512.786C782.222 512.953 778.518 512.916 775.257 512.959C765.162 512.966 754.606 513.127 744.553 512.751L744.499 502.989C748.044 502.917 754.714 503.395 757.395 501.048C761.229 497.693 761.18 481.876 756.909 479.407C752.456 476.833 738.699 477.892 732.788 477.951C734.285 439.5 735.834 402.049 733.219 363.549C732.398 351.461 731.362 339.935 729.943 327.916C729.433 323.593 726.827 310.599 726.96 307.677L728.117 307.251Z"
     id="path6" />
  <path
     fill="#BADAED"
     d="M245.352 307.244C261.401 306.818 281.432 306.88 297.454 307.281C295.345 316.605 293.844 329.084 292.799 338.609C287.727 384.883 289.194 431.533 291.475 477.915C284.695 478.036 277.595 477.271 271 477.952C264.643 478.608 263.749 485.735 264.165 490.729C264.689 497.018 263.842 499.412 269.772 502.674C272.549 502.961 276.916 502.93 279.827 502.991C279.882 506.133 279.723 509.434 279.624 512.592C267.363 512.952 253.536 513.365 241.339 512.509C235.591 512.106 234.109 485.125 233.67 480.127C229.916 439.393 229.54 398.419 232.546 357.624C233.856 340.092 235.086 324.506 239.586 307.531L245.352 307.244Z"
     id="path7" />
  <path
     fill="#BADAED"
     d="M590.444 331.466C590.44 327.248 588.5 317.43 591.397 314.453C593.27 313.973 592.304 314.03 594.402 314.625C597.247 319.31 595.904 552.441 595.85 577.625C595.915 580.807 596.301 585.324 595.164 588.169C593.681 589.31 594.488 588.97 592.66 589.254C590.822 588.06 591.264 587.358 589.657 585.136C582.257 584.566 569.62 584.979 561.835 584.99L561.723 585.382C561.026 587.696 561.143 589.055 558.401 589.39C557.3 588.745 557.067 588.317 556.623 587.126C556.114 585.717 555.852 584.231 555.85 582.733L556.034 421.132L556.009 352.357C556.003 347.941 555.6 316.574 556.454 314.693C558.183 314.666 558.918 314.707 560.645 314.877C561.888 316.961 561.382 328.369 561.356 331.474L590.444 331.466Z"
     id="path8" />
  <path
     fill="#2A4462"
     d="M561.369 368.51L590.682 368.58C590.71 377.862 590.686 387.144 590.612 396.425C580.855 396.345 571.098 396.323 561.341 396.359C561.411 387.076 561.421 377.793 561.369 368.51Z"
     id="path9" />
  <path
     fill="#BADAED"
     d="M565.224 372.553L586.625 372.624C586.674 377.609 586.96 387.398 586.437 392.057L565.317 392.02C565.125 385.773 565.245 378.852 565.224 372.553Z"
     id="path10" />
  <path
     fill="#2A4462"
     d="M561.327 433.361C570.943 433.564 580.963 433.439 590.61 433.455L590.602 461.218L561.345 461.1L561.327 433.361Z"
     id="path11" />
  <path
     fill="#BADAED"
     d="M565.145 437.527L586.613 437.58C586.624 442.112 586.938 453.017 586.426 457.022L565.262 457.008L565.145 437.527Z"
     id="path12" />
  <path
     fill="#2A4462"
     d="M561.403 466.102C571.116 466.075 580.828 466.123 590.54 466.246C590.619 475.441 590.612 484.636 590.52 493.831C580.764 493.743 571.008 493.742 561.253 493.828L561.403 466.102Z"
     id="path13" />
  <path
     fill="#BADAED"
     d="M565.241 470.241L586.572 470.215C586.694 476.548 586.566 483.287 586.551 489.652C579.482 489.699 572.413 489.687 565.345 489.618L565.241 470.241Z"
     id="path14" />
  <path
     fill="#2A4462"
     d="M561.394 400.987C571.051 401.13 580.915 401.041 590.589 401.056L590.579 428.575C580.832 428.702 571.084 428.735 561.336 428.673L561.394 400.987Z"
     id="path15" />
  <path
     fill="#BADAED"
     d="M566.652 405.24C573.245 405.156 580.03 405.267 586.639 405.3C586.709 408.764 587.186 421.757 586.218 424.23L585.125 424.484L565.314 424.456C565.265 421.113 564.888 408.059 565.666 405.588L566.652 405.24Z"
     id="path16" />
  <path
     fill="#2A4462"
     d="M561.421 336.171C570.803 336.555 581.132 336.384 590.584 336.416C590.63 345.564 590.63 354.713 590.582 363.862C580.803 363.742 571.023 363.754 561.244 363.896L561.421 336.171Z"
     id="path17" />
  <path
     fill="#BADAED"
     d="M565.244 340.448L586.665 340.469C586.818 346.645 586.646 353.397 586.594 359.618L565.323 359.65L565.244 340.448Z"
     id="path18" />
  <path
     fill="#2A4462"
     d="M561.405 498.499C571.137 498.57 580.871 498.579 590.603 498.527L590.537 523.53L561.331 523.607L561.405 498.499Z"
     id="path19" />
  <path
     fill="#BADAED"
     d="M565.303 502.659C572.449 502.648 579.583 502.579 586.722 502.876C586.81 506.191 586.787 509.635 586.811 512.962C580.089 513.221 572.249 513.007 565.445 512.978L565.303 502.659Z"
     id="path20" />
  <path
     fill="#2A4462"
     d="M561.339 528.61L590.598 528.638L590.578 552.519C580.846 552.574 571.113 552.578 561.38 552.532C561.438 544.558 561.424 536.584 561.339 528.61Z"
     id="path21" />
  <path
     fill="#BADAED"
     d="M565.308 532.589L586.528 532.658L586.574 542.95L565.38 543.08L565.308 532.589Z"
     id="path22" />
  <path
     fill="#2A4462"
     d="M561.381 557.546L590.541 557.576C590.588 565.151 590.588 572.726 590.538 580.301C581.122 580.015 570.827 580.169 561.339 580.117L561.381 557.546Z"
     id="path23" />
  <path
     fill="#BADAED"
     d="M179.44 522.626C192.197 522.086 207.859 522.472 220.755 522.541L287.623 522.733L550.91 522.603C551.014 529.478 551 536.354 550.869 543.228L533.95 543.284C518.35 543.131 502.748 543.155 487.148 543.354C488.909 529.398 475.152 533.58 465.103 532.992C456.271 532.476 449.561 532.509 450.31 543.212L273.326 543.1L215.434 543.236C205.585 543.268 194.3 542.954 184.563 543.451C184.595 545.674 184.826 547.71 184.1 549.771C182.912 551.173 183.022 551.1 181.267 551.647C174.919 550.154 176.768 525.263 179.44 522.626Z"
     id="path24" />
  <path
     fill="#BADAED"
     d="M790.657 307.459C816.932 307.75 825.411 336.771 830.419 357.98C840.323 399.925 840.317 460.881 816.873 498.266C810.431 507.884 804.054 510.734 792.846 512.224C793.375 501.42 796.198 486.773 797.082 474.794C799.569 439.508 799.905 404.102 798.088 368.774C797.111 348.817 795.974 326.798 790.657 307.459Z"
     id="path25" />
  <path
     fill="#BADAED"
     d="M228.64 307.586C230.575 307.421 230.871 307.416 232.802 307.595C233.169 309.626 230.096 321.826 229.709 325.185C222.797 385.307 222.44 452.372 231.761 511.994C222.235 511.207 217.184 509.162 210.524 502.17C202.774 492.545 197.165 478.862 194.024 465.998C182.907 420.473 185.307 366.802 205.997 324.302C210.268 315.528 219.584 309.847 228.64 307.586Z"
     id="path26" />
  <path
     fill="#BADAED"
     d="M711.419 561.719C737.289 561.11 758.848 563.117 784.348 566.115C812.279 569.4 822.107 569.325 808.721 601.39C807.911 588.06 811.024 577.756 792.919 578.855C785.525 579.303 782.504 581.028 777.452 586.605C770.561 594.213 764.028 602.087 757.064 609.617C750.203 617.12 745.489 616.701 736.226 616.918C726.675 616.971 702.459 618.977 694.527 613.426C688.288 607.789 681.855 600.513 676.446 594.147C666.199 582.089 661.916 576.231 644.913 579.667C635.808 581.507 640.707 595.611 638.442 599.893L637.712 599.403C634.689 594.251 629.758 576.581 635.648 572.17C642.141 567.308 657.139 567.012 665.377 565.96C680.536 564.024 696.144 562.409 711.419 561.719Z"
     id="path27" />
  <path
     fill="#2A4462"
     d="M705.048 580.282C705.637 582.073 707.063 586.992 708.47 587.482C712.941 589.037 733.97 588.633 737.882 588.321C739.52 587.234 740.885 584.237 742.124 582.303L742.796 582.351C747.614 588.144 743.971 594.864 745.156 601.741C745.673 604.743 747.443 602.853 748.471 605.58C747.853 607.575 747.088 607.992 745.483 609.479C739.028 612.828 732.614 610.798 725.076 610.689C718.465 610.594 702.566 614.388 699.1 605.94C697.62 602.333 702.418 604.599 702.49 601.071C702.658 592.863 700.996 587.973 705.048 580.282Z"
     id="path28" />
  <path
     fill="#BADAED"
     d="M708.006 603.075C711.485 602.997 718.716 602.289 721.174 604.348C721.275 606 721.456 605.217 720.376 606.711C716.759 606.902 711.067 607.661 708.054 606.07C707.231 604.445 707.466 605.359 708.006 603.075Z"
     id="path29" />
  <path
     fill="#BADAED"
     d="M727.026 603.115C730.557 602.995 738.654 601.916 740.493 605.302C739.772 606.513 740.202 605.963 738.875 606.752C735.552 606.736 729.144 607.594 726.549 605.923C726.068 604.248 726.122 605.149 727.026 603.115Z"
     id="path30" />
  <path
     fill="#BADAED"
     d="M708.041 597.052C711.485 596.915 717.93 596.253 720.668 597.828C721.418 599.451 721.264 598.597 720.954 600.505C717.375 600.554 710.781 601.557 707.912 599.884C707.302 598.209 707.423 599.111 708.041 597.052Z"
     id="path31" />
  <path
     fill="#BADAED"
     d="M726.897 597.081C730.938 597.065 735.5 596.246 739.157 597.455C740.249 598.868 739.937 598.291 739.811 600.538C735.884 600.628 730.447 601.391 726.916 600.019C726.038 598.482 726.276 599.371 726.897 597.081Z"
     id="path32" />
  <path
     fill="#BADAED"
     d="M726.957 591.179C730.337 591.051 737.292 590.334 739.833 592.055C740.238 593.72 740.294 592.894 739.4 594.589C736.011 594.716 729.254 595.383 726.582 593.876C726.015 592.266 726.07 593.133 726.957 591.179Z"
     id="path33" />
  <path
     fill="#BADAED"
     d="M707.993 591.138C711.34 590.952 717.86 590.186 720.583 591.71C721.351 593.275 721.112 592.418 720.87 594.468C717.393 594.537 710.739 595.401 707.845 593.927C707.154 592.259 707.244 593.151 707.993 591.138Z"
     id="path34" />
  <path
     fill="#2A4462"
     d="M684.787 571.17C688.672 570.833 692.186 570.048 694.911 573.565C697.804 577.385 697.598 584.042 697.033 588.665C696.536 592.733 694.961 596.581 690.218 595.305C682.869 589.735 664.688 573.539 684.787 571.17Z"
     id="path35" />
  <path
     fill="#2A4462"
     d="M755.04 571.061C758.264 570.562 767.353 570.964 769.615 573.371C775.379 579.506 765.559 587.722 761.518 591.674C760.75 592.442 759.957 593.184 759.139 593.9C750.592 601.268 749.051 584.71 750.366 579.711C751.679 574.721 750.728 574.323 755.04 571.061Z"
     id="path36" />
  <path
     fill="#2A4462"
     d="M705.816 568.086C717.058 567.559 731.072 567.612 742.381 568.489C745.222 568.709 747.002 574.868 742.448 576.772C740.916 576.194 741.3 576.074 740.294 574.088C738.018 572.626 712.732 572.966 708.663 573.457C707.017 574.354 706.437 575.693 705.412 577.311C703.114 575.04 701.645 573.991 702.246 570.644C703.482 568.983 703.841 568.968 705.816 568.086Z"
     id="path37" />
  <path
     fill="#2A4462"
     d="M712.141 576.738C719.346 576.66 730.11 576.345 737.108 577.136C736.84 579.93 736.754 582.186 735.34 584.585C730.385 584.764 714.014 585.703 710.897 583.081C710.247 581.463 710.17 578.816 710.871 577.166L712.141 576.738Z"
     id="path38" />
  <path
     fill="#BADAED"
     d="M289.715 561.741C300.041 561.664 310.378 561.523 320.697 562.001C331.246 562.49 379.509 566.672 386.909 570.941C389.056 572.18 390.25 574.024 390.832 576.413C392.473 583.158 389.182 595.22 385.519 600.941C384.576 591.049 387.816 578.639 373.832 578.911C370.879 578.99 363.762 578.665 361.335 580.544C351.41 588.23 342.155 601.002 333.376 609.865C325.216 618.103 322 616.627 311.761 616.822C306.026 616.911 281.757 617.839 277.058 616.176C257.327 609.195 247.662 568.988 220.068 580.473C213.663 583.138 217.108 594.148 215.493 599.638L214.696 599.512C211.781 595.921 210.579 586.065 209.887 581.321C208.59 576.78 212.948 570.063 217.737 569.335C240.793 565.828 266.615 562.511 289.715 561.741Z"
     id="path39" />
  <path
     fill="#2A4462"
     d="M318.586 580.784C324.806 585.832 320.335 599.376 322.17 603.066C323.669 603.29 324.052 603.237 325.389 603.969C325.861 607.694 322.298 609.395 319.241 610.303C317.428 610.834 315.559 611.148 313.673 611.24C309.623 611.473 305.101 610.892 300.977 610.834C293.174 610.725 286.001 613.025 278.767 609.273C277.266 607.979 275.216 606.545 275.831 604.518L278.429 603.255C281.881 598.112 275.717 588.129 281.639 581.825L282.185 581.872C282.489 582.597 282.8 583.32 283.116 584.04C283.671 585.295 284.648 587.921 286.322 588.115C292.151 588.596 298.352 588.708 304.221 588.487C313.978 588.12 316.07 590.841 318.586 580.784Z"
     id="path40" />
  <path
     fill="#BADAED"
     d="M304.395 603.19C307.599 603.046 315.976 601.704 316.856 605.168C316.089 606.634 316.664 606.072 314.876 606.69C311.745 606.834 304.667 607.651 302.581 605.399C303.185 603.693 302.718 604.485 304.395 603.19Z"
     id="path41" />
  <path
     fill="#BADAED"
     d="M285.362 603.105C288.517 602.991 296.149 602.215 298.17 604.713C297.713 606.238 298.125 605.542 296.533 606.617C293.584 606.731 286.445 607.459 284.396 605.777C284.191 604.035 284.075 604.931 285.362 603.105Z"
     id="path42" />
  <path
     fill="#BADAED"
     d="M303.89 597.161C306.96 597.027 314.386 596.271 316.565 598.151C316.795 599.741 316.909 598.958 315.902 600.513C312.884 600.622 305.172 601.388 303.168 599.674C302.941 598.002 302.83 598.838 303.89 597.161Z"
     id="path43" />
  <path
     fill="#BADAED"
     d="M303.467 591.133C307.222 591.067 312.619 590.225 315.913 591.623C317.096 593.076 316.694 592.213 316.661 594.5C313.213 594.647 306.138 595.34 303.42 593.797C302.731 592.259 302.87 593.103 303.467 591.133Z"
     id="path44" />
  <path
     fill="#BADAED"
     d="M284.397 597.113C287.998 596.931 293.474 596.291 296.755 597.479C297.935 598.99 297.551 598.091 297.378 600.484C293.708 600.667 288.262 601.352 284.988 599.968C283.991 598.345 284.277 599.241 284.397 597.113Z"
     id="path45" />
  <path
     fill="#BADAED"
     d="M285.005 591.23C289.034 591 293.277 590.25 297.003 591.482C298.129 593.02 297.737 592.124 297.652 594.476C294.555 594.586 286.718 595.282 284.524 593.73C284.197 592.047 284.104 592.863 285.005 591.23Z"
     id="path46" />
  <path
     fill="#2A4462"
     d="M331.909 571.038C335.821 570.809 343.435 570.684 346.358 573.165C352.817 578.645 342.441 587.566 338.877 591.152C338.565 591.473 338.25 591.79 337.932 592.104C326.514 603.329 325.462 583.955 327.447 576.931C328.444 573.403 328.673 572.993 331.909 571.038Z"
     id="path47" />
  <path
     fill="#2A4462"
     d="M262.485 571.181C271.596 569.838 274 574.278 274.107 582.883C274.171 588.046 273.757 598.254 266.012 595.163C258.417 587.973 241.412 573.895 262.485 571.181Z"
     id="path48" />
  <path
     fill="#2A4462"
     d="M281.775 568.096C287.327 567.828 316.925 566.862 320.272 569.108C321.355 569.834 321.968 571.014 322.089 572.302C322.207 573.564 321.725 575.04 320.787 575.918C319.908 576.739 319.285 576.761 318.193 576.73L317.103 574.761C317.006 574.635 316.923 574.498 316.812 574.383C314.568 572.064 289.224 573.36 285.031 573.375C284.072 574.683 283.512 575.821 282.039 576.347C279.93 576.096 280.784 576.517 279.298 575.25C277.925 571.802 278.764 570.12 281.775 568.096Z"
     id="path49" />
  <path
     fill="#2A4462"
     d="M295.345 576.744C301.447 576.662 307.55 576.688 313.651 576.824L313.645 578.15C313.62 580.661 313.909 582.321 312.096 584.099C310.067 585.032 307.46 584.699 305.123 584.647C301.848 584.608 298.903 584.769 295.641 584.943C288.033 585.35 287.434 583.378 287.051 576.901L295.345 576.744Z"
     id="path50" />
  <path
     fill="#BADAED"
     d="M601.037 522.655L777.739 522.748C785.123 522.778 843.302 521.663 845.711 523.731C847.439 528.55 846.683 544.671 846.461 550.584C843.861 551.416 843.02 552.019 840.734 550.399C839.564 548.289 839.621 545.811 839.415 543.332C820.728 542.648 799.267 543.091 780.366 543.119L668.836 543.092C647.061 543.122 622.637 543.703 601.07 543.001C600.938 536.22 600.926 529.437 601.037 522.655Z"
     id="path51" />
  <path
     fill="#BADAED"
     d="M542.501 301.333C542.535 292.92 542.855 284.374 542.828 275.919C542.792 264.635 534.698 271.668 529.724 267.123C529.477 265.13 529.266 265.992 530.09 264.399C533.057 262.429 543.293 263.39 545.113 266.06C550.208 273.535 548.271 292.185 548.35 301.198C565.252 301.491 582.157 301.502 599.059 301.232C599.235 293.766 597.768 272.222 601.609 265.152C602.542 263.433 606.46 263.264 608.615 264.579C609.57 266.174 609.384 265.324 609.096 267.238C608.098 268.834 607.429 268.945 605.626 269.824L605.004 270.12C604.574 277.345 604.536 284.002 604.51 291.25C604.35 296.532 602.992 300.115 608.393 302.102C609.597 303.779 610.092 307.415 608.243 308.886C606.739 308.951 606.14 308.872 604.754 309.512C603.431 313.296 606.409 322.104 602.929 325.166C601.132 325.44 601.968 325.563 600.329 324.796C599.758 322.796 599.625 311.81 599.546 309.042C582.572 308.948 565.598 308.962 548.625 309.085C548.399 312.072 549.198 323.753 547.282 325.148C545.119 325.083 546.083 325.378 544.264 324.282C542.255 320.981 543.063 313.421 543.035 309C524.872 308.929 506.708 308.956 488.545 309.081C488.453 313.419 489.658 322.149 487.032 325.005C485.394 325.391 486.148 325.484 484.684 324.81C482.577 321.84 483.382 313.339 483.393 309.084C465.716 308.604 446.163 309.004 428.365 309.034C428.101 312.279 428.835 323.381 426.846 325.285C425.355 325.328 424.434 325.55 423.258 324.69C422.584 321.032 422.937 313.436 422.766 309.043C418.899 309.134 416.207 309.698 413.922 305.916C413.856 302.219 416.439 301.579 419.519 301.234C419.355 291.096 420.305 280.37 418.847 270.425C418.61 268.803 415.741 268.757 414.467 266.926C414.574 265.36 415.35 264.753 416.383 263.534L417.27 263.501C422.344 263.329 463.675 262.426 466.94 266.085C471.214 270.875 469.853 293.24 469.823 301.203C477.422 301.588 486.749 301.345 494.523 301.357L542.501 301.333Z"
     id="path52" />
  <path
     fill="#2A4462"
     d="M424.699 268.781C435.867 268.835 452.343 267.931 463.034 270.572C465.056 271.072 464.826 299.873 463.845 301.396L424.724 301.278C424.966 290.447 424.957 279.612 424.699 268.781Z"
     id="path53" />
  <path
     fill="#BADAED"
     d="M710.886 304.386C719.365 304.086 720.918 303.49 722.412 312.977C731.358 369.796 729.831 427.548 726.947 484.792C726.65 490.687 726.572 496.602 726.159 502.492C723.009 502.589 719.6 502.496 716.43 502.466C716.31 493.518 717.315 481.277 717.736 471.998C718.571 453.397 719.127 434.785 719.404 416.168C719.523 386.71 717.926 357.27 714.623 327.997C713.675 320.04 711.912 312.335 710.886 304.386Z"
     id="path54" />
  <path
     fill="#BADAED"
     d="M308.855 304.148C310.472 304.153 311.235 303.994 312.619 304.824C313.425 307.779 309.988 323.386 309.472 327.65C304.367 369.78 303.818 411.768 305.627 454.107C305.873 459.873 308.297 499.808 307.324 502.017C305.742 502.812 303.301 502.616 301.442 502.639C300.171 502.62 300.083 502.572 298.838 502.255C298.661 501.99 298.357 501.583 298.338 501.271C294.69 442.423 291.905 383.001 300.184 324.397C300.827 319.849 301.99 309.226 304.104 305.588C305.681 304.319 306.748 304.42 308.855 304.148Z"
     id="path55" />
  <path
     fill="#BADAED"
     d="M369.778 550.704C379.722 549.331 391.909 555.147 399.092 561.663C408.689 570.368 413.224 584.658 411.683 597.374C410.363 608.378 404.606 618.365 395.744 625.021C384.052 633.931 367.935 635.577 354.484 629.67C346.74 626.27 341.808 620.889 336.861 614.245C338.177 612.543 339.691 610.112 341.571 609.358C343.328 609.773 342.82 609.754 344.189 611.748C348.617 618.107 356.868 623.547 364.447 625.067C373.116 626.881 382.15 625.122 389.505 620.189C397.018 615.037 402.179 607.114 403.855 598.159C405.507 589.055 403.466 579.668 398.184 572.071C391.913 563.057 381.526 557.804 370.549 558.096C358.508 558.534 362.155 561.743 346.617 558.889C354.301 553.46 360.541 551.578 369.778 550.704Z"
     id="path56" />
  <path
     fill="#BADAED"
     d="M650.951 550.708C660.627 549.873 669.79 553.201 677.286 559.201C675.402 559.396 668.777 560.432 667.405 560.272C662.682 559.719 658.208 558.145 653.188 557.958C645.086 557.657 636.279 561.401 630.443 566.99C623.805 573.409 620.011 582.217 619.908 591.45C619.7 600.736 623.296 609.703 629.862 616.271C635.973 622.468 644.338 625.917 653.04 625.827C662.536 625.807 670.851 621.855 677.449 615.164C679.27 613.068 680.533 611.021 682.055 608.714C684.313 610.808 685.31 612 687.257 614.356C686.441 615.724 685.77 616.669 684.782 617.925C678.286 626.357 668.631 631.773 658.049 632.922C647.092 634.291 636.049 631.161 627.441 624.246C598.999 601.557 611.691 554.559 650.951 550.708Z"
     id="path57" />
  <path
     fill="#BADAED"
     d="M791.579 550.68C806.617 549.3 821.109 557.539 828.915 570.22C834.653 579.744 836.398 591.148 833.768 601.952C825.361 637.154 778.772 644.767 760.114 613.742C760.671 613.103 761.232 612.468 761.799 611.838C763.065 610.431 763.783 609.373 765.593 609.277L766.442 610.404C776.859 626.935 798.113 630.812 813.808 619.282C821.02 613.917 825.817 605.917 827.152 597.028C830.264 576.208 813.666 556.473 792.136 558.078C788.013 558.386 783.325 560.198 779.242 560.295C776.698 560.356 772.232 559.511 769.595 559.132C777.518 553.519 781.991 551.918 791.579 550.68Z"
     id="path58" />
  <path
     fill="#BADAED"
     d="M226.787 550.687C236.856 549.447 246.551 553.646 254.597 559.236C252.373 559.485 246.295 560.545 244.447 560.315C240.098 559.921 235.478 558.105 231.12 558.028C211.66 557.685 197.49 572.027 196.883 590.819C196.524 599.825 199.788 608.599 205.946 615.181C219.95 629.945 239.813 629.174 254.071 615.256C255.664 613.622 257.974 610.671 259.506 608.818C261.089 610.452 262.689 612.342 264.207 614.059C244.068 646.466 194.425 635.358 189.589 597.498C188.101 586.205 191.25 574.79 198.319 565.858C205.673 556.589 215.213 552.024 226.787 550.687Z"
     id="path59" />
  <path
     fill="#BADAED"
     d="M490.791 281.71C501.54 281.069 524.634 280.683 534.418 283.82L534.5 296.028L522.375 295.972L478.436 296.025L478.464 283.367C482.932 282.332 486.209 282.083 490.791 281.71Z"
     id="path60" />
  <path
     fill="#BADAED"
     d="M676.907 278.128C681.626 278.238 684.925 278.806 689.482 279.836C689.594 284.025 692.565 296.356 687.847 297.335C684.965 295.863 685.664 294.035 685.65 291.208C665.268 289.806 650.893 289.687 630.635 291.119L630.498 297.113C623.164 296.331 624.872 288.678 627.97 287.346C638.09 282.995 653.991 279.898 664.879 281.628C672.557 282.848 677.942 284.685 684.527 285.916L685.416 285.235L685.462 284.381C682.51 282.394 676.389 283.538 675.043 280.542C675.393 279.533 675.488 279.457 676.245 278.741L676.907 278.128Z"
     id="path61" />
  <path
     fill="#BADAED"
     d="M146.038 525.527C154.412 525.288 163.661 525.52 172.099 525.565C172.146 529.128 172.559 543.98 171.945 546.574C163.415 546.619 153.633 546.819 145.224 546.302C144.88 541.569 144.34 529.84 146.038 525.527Z"
     id="path62" />
  <path
     fill="#BADAED"
     d="M852.276 525.526C859.326 525.508 866.576 525.544 873.594 525.133C881.796 524.651 878.895 540.85 878.457 546.401C870.065 546.728 860.581 546.516 852.106 546.506C852.094 539.512 852.151 532.519 852.276 525.526Z"
     id="path63" />
  <path
     fill="#BADAED"
     d="M862.013 431.679C863.462 431.915 863.387 431.942 864.672 432.695C866.972 436.082 866.516 447.143 866.394 451.977C865.9 468.761 867.504 486.273 865.301 502.874C864.246 510.827 851.814 507.044 847.871 510.481C845.969 512.139 847.157 515.448 845.375 517.234C837.893 517.796 839.879 512.081 842.682 507.667C848.445 498.591 862.543 509.946 860.727 493.304C860.575 491.91 860.698 487.805 860.689 486.133L860.505 451.701C860.48 446.766 859.634 435.454 862.013 431.679Z"
     id="path64" />
  <path
     fill="#BADAED"
     d="M649.444 294.726C659.324 294.327 670.458 294.891 680.347 295.542L680.467 302.757C674.982 305.625 672.199 306.243 666.122 307.352C655.734 308.847 645.137 307.266 635.638 302.805C635.581 300.424 635.693 297.746 635.737 295.34C639.59 294.902 645.434 294.87 649.444 294.726Z"
     id="path65" />
  <path
     fill="#BADAED"
     d="M353.994 294.724C365.678 294.325 376.78 294.98 388.437 295.516L388.432 303.013C384.657 304.955 381.926 305.659 377.862 306.764C365.69 308.902 355.215 308.197 343.877 302.846C343.775 300.415 343.849 297.732 343.861 295.278C346.951 294.962 350.83 294.878 353.994 294.724Z"
     id="path66" />
  <path
     fill="#BADAED"
     d="M361.212 281.166C369.605 279.843 380.927 282.919 389.118 284.837C391.591 285.416 396.649 286.739 397.861 289.097C399.259 291.816 398.5 295.248 395.83 296.854L394.593 296.442C393.386 294.985 393.6 293.818 393.572 291.914L393.563 291.108L371.933 290.053C366.414 290.003 344.13 290.158 339.855 291.459C338.481 292.854 338.62 293.208 338.415 295.442L338.332 296.387L337.61 296.947C333.759 296.871 331.789 292.21 333.766 289.939C338.779 284.183 354.12 282.291 361.212 281.166Z"
     id="path67" />
  <path
     fill="#BADAED"
     d="M731.924 494.458L738.918 494.261L738.953 502.875L738.867 517.331C727.887 517.479 716.906 517.372 705.932 517.011C705.724 509.728 705.885 501.678 705.877 494.335C717.684 494.07 709.535 500.424 712.612 505.934C713.672 506.811 714.625 507.518 716.009 507.683C731.815 509.568 731.372 507.572 731.924 494.458Z"
     id="path68" />
  <path
     fill="#BADAED"
     d="M285.488 494.2L292.417 494.283C292.447 496.891 291.938 507.319 295.897 507.699C317.858 509.804 309.199 506.128 312.987 494.887C314.622 494.14 316.427 494.193 317.782 495.366C318.603 497.664 318.304 501.255 318.273 503.827C318.346 508.301 318.35 512.776 318.287 517.25C307.894 517.654 296.005 517.226 285.517 517.068C285.447 509.446 285.438 501.822 285.488 494.2Z"
     id="path69" />
  <path
     fill="#BADAED"
     d="M464.583 558.193C468.241 558.115 469.786 558.096 473.398 558.581C476.424 561.883 476.743 561.631 481.053 562.783C482.022 565.173 481.898 573.81 481.245 576.367C476.397 576.806 476.826 578.517 472.007 581.36C469.313 581.609 465.792 582.041 463.75 580.002C461.146 577.403 458.923 576.984 455.767 575.831C455.23 573.724 455.429 565.184 455.433 562.523C461.175 562.176 460.546 562.368 464.583 558.193Z"
     id="path70" />
  <path
     fill="#BADAED"
     d="M516.078 263.321C518.144 263.68 520.055 263.734 520.971 265.767C520.388 267.146 520.225 267.43 519.911 268.93C522.612 272.761 539.155 271.812 538.095 278.242C537.171 278.856 536.068 278.883 534.984 278.749C521.39 277.069 509.06 276.305 495.376 277.048C490.693 277.145 478.341 279.039 475.326 278.876C474.169 277.685 474.579 278.434 474.591 276.289C477.224 272.121 497.851 269.107 503.188 268.204C504.658 267.955 503.926 266.2 505.737 266.094C508.822 265.914 510.67 269.47 514.114 268.645C514.755 266.687 515.279 265.219 516.078 263.321Z"
     id="path71" />
  <path
     fill="#BADAED"
     d="M494.545 562.707C502.728 562.545 510.297 562.462 516.904 568.214C522.181 572.808 524.74 579.256 525.2 586.091C520.749 586.233 516.069 586.097 511.599 586.038C509.876 580.42 509.497 579.442 504.26 576.541L494.453 576.416C494.436 571.846 494.466 567.276 494.545 562.707Z"
     id="path72" />
  <path
     fill="#BADAED"
     d="M892.536 515.403C892.882 515.4 893.228 515.405 893.574 515.416C902.347 515.756 901.934 550.578 895.583 556.053C893.397 556.672 894.508 556.6 892.119 556.02C890.313 552.531 890.283 547.596 889.958 543.575C887.934 543.282 885.57 543.147 883.506 542.977L883.479 528.999L889.675 528.709C890.345 523.789 889.664 519.317 892.536 515.403Z"
     id="path73" />
  <path
     fill="#BADAED"
     d="M417.792 548.463L431.479 548.57C431.561 557.783 433.504 561.488 442.885 562.69L442.906 576.49C424.592 576.647 418.436 564.826 417.792 548.463Z"
     id="path74" />
  <path
     fill="#BADAED"
     d="M128.658 515.331C130.036 515.43 129.792 515.423 131.138 515.811C134.308 518.764 133.857 524.105 134.192 528.665L140.468 528.936L140.387 542.843C132.212 543.205 133.974 546.519 133.319 553.746C131.889 555.616 131.873 555.75 129.904 556.361C121.562 553.942 122.822 521.643 128.658 515.331Z"
     id="path75" />
  <path
     fill="#BADAED"
     d="M648.546 583.056C657.048 582.293 665.156 584.001 662.972 595.459C662.221 599.4 660.008 601.723 656.661 603.801C642.204 608.424 636.91 587.237 648.546 583.056Z"
     id="path76" />
  <path
     fill="#2A4462"
     d="M651.563 585.78C655.961 585.141 660.038 588.206 660.645 592.608C661.253 597.01 658.159 601.064 653.753 601.641C649.391 602.211 645.386 599.155 644.784 594.797C644.183 590.44 647.21 586.413 651.563 585.78Z"
     id="path77" />
  <path
     fill="#BADAED"
     d="M651.106 588.766C653.875 587.866 656.847 589.396 657.723 592.172C658.6 594.949 657.044 597.908 654.26 598.76C651.51 599.602 648.595 598.07 647.729 595.327C646.863 592.584 648.37 589.656 651.106 588.766Z"
     id="path78" />
  <path
     fill="#BADAED"
     d="M226.289 583.082C235.742 582.416 242.151 585.721 239.452 597.023C238.574 600.7 236.196 602.662 232.906 604.342C222.184 605.22 216.658 598.621 220.26 587.469C221.091 584.898 223.806 583.82 226.289 583.082Z"
     id="path79" />
  <path
     fill="#2A4462"
     d="M228.748 585.808C233.159 585.27 237.175 588.399 237.732 592.808C238.288 597.217 235.176 601.246 230.77 601.821C226.337 602.4 222.279 599.265 221.719 594.83C221.159 590.394 224.311 586.349 228.748 585.808Z"
     id="path80" />
  <path
     fill="#BADAED"
     d="M228.264 588.779C230.08 588.225 232.053 588.69 233.431 589.996C234.809 591.302 235.379 593.248 234.923 595.091C234.467 596.934 233.056 598.39 231.229 598.903C228.446 599.684 225.552 598.081 224.74 595.307C223.928 592.533 225.499 589.622 228.264 588.779Z"
     id="path81" />
  <path
     fill="#BADAED"
     d="M367.655 583.104C376.834 582.419 383.621 584.926 381.311 596.483C380.597 600.053 378.316 602.228 375.198 603.974C369.605 605.581 363.677 603.469 361.903 597.82C359.731 590.903 360.454 585.378 367.655 583.104Z"
     id="path82" />
  <path
     fill="#2A4462"
     d="M369.706 585.844C374.016 584.942 378.253 587.664 379.223 591.96C380.192 596.255 377.537 600.534 373.257 601.572C370.428 602.258 367.449 601.366 365.463 599.237C363.477 597.109 362.792 594.076 363.671 591.301C364.55 588.526 366.856 586.44 369.706 585.844Z"
     id="path83" />
  <path
     fill="#BADAED"
     d="M369.649 588.848C372.363 587.847 375.374 589.237 376.374 591.951C377.373 594.666 375.983 597.677 373.268 598.675C370.554 599.673 367.545 598.283 366.546 595.57C365.547 592.857 366.936 589.848 369.649 588.848Z"
     id="path84" />
  <path
     fill="#BADAED"
     d="M791.187 583.074C800.489 582.437 806.819 585.477 804.303 596.886C803.546 600.319 800.672 602.698 797.572 604.24C795.315 604.628 791.735 604.856 789.804 603.558C782.25 598.482 781.142 586.024 791.187 583.074Z"
     id="path85" />
  <path
     fill="#2A4462"
     d="M793.565 585.785C796.465 585.508 799.288 586.822 800.944 589.218C802.6 591.615 802.83 594.72 801.546 597.335C800.261 599.949 797.663 601.665 794.754 601.819C790.385 602.051 786.633 598.747 786.309 594.384C785.986 590.021 789.21 586.2 793.565 585.785Z"
     id="path86" />
  <path
     fill="#BADAED"
     d="M793.375 588.73C796.214 588.19 798.95 590.063 799.474 592.904C799.997 595.746 798.108 598.471 795.263 598.978C792.442 599.48 789.745 597.61 789.226 594.792C788.707 591.974 790.561 589.266 793.375 588.73Z"
     id="path87" />
  <path
     fill="#BADAED"
     d="M164.399 483.222C169.929 483.897 168.578 487.361 168.363 492.03C170.329 492.083 173.073 492.213 174.97 491.936C177.123 491.621 180.77 490.397 182.891 490.746C184.559 493.289 184.01 513.352 183.417 517.13C181.933 517.9 182.711 517.73 180.985 517.582C177.721 515.598 176.801 510.328 173.913 506.575C172.458 504.576 171.743 503.707 171.568 501.214C174.433 501.52 176.393 504.595 178.263 506.861C178.453 503.665 178.399 500.264 178.406 497.042C175.048 496.987 171.826 496.682 168.482 496.4C168.533 498.941 169.224 504.522 165.922 504.985C161.405 501.914 162.039 487.517 164.399 483.222Z"
     id="path88" />
  <path
     fill="#BADAED"
     d="M851.559 552.233C864.002 557.032 863.738 568.929 868.327 579.305C872.052 587.73 883.196 580.222 885.766 586.141C885.469 587.982 885.303 588.011 884.271 589.509C881.244 589.582 873.639 589.904 871.152 589.148C860.217 585.822 861.186 571.717 856.899 563.599C855.693 561.315 851.643 558.889 849.71 555.729C849.945 553.758 850.148 554.084 851.559 552.233Z"
     id="path89" />
  <path
     fill="#BADAED"
     d="M171.01 552.851C172.862 552.803 173.221 552.921 174.429 554.123C174.417 558.218 168.125 561.342 166.767 564.657C159.561 582.242 165.317 589.747 141.875 589.526C141.161 589.501 140.575 589.309 139.86 589.144C138.351 587.63 138.756 588.499 138.437 586.528C139.825 582.409 143.089 583.729 146.421 583.555C165.209 582.576 152.055 565.392 171.01 552.851Z"
     id="path90" />
  <path
     fill="#BADAED"
     d="M279.535 548.557C293.288 548.223 308.182 548.527 322.022 548.556L319.478 554.564L318.921 555.452C316.819 556.587 286.709 556.059 282.412 556.045C281.328 553.767 280.405 550.96 279.535 548.557Z"
     id="path91" />
  <path
     fill="#BADAED"
     d="M702.607 548.623C714.532 548.257 732.744 548.25 744.538 548.802C743.756 550.902 742.89 552.924 742.023 554.989C739.773 557.389 710.411 556.094 705.371 556.02C704.343 553.71 703.464 551.025 702.607 548.623Z"
     id="path92" />
  <path
     fill="#BADAED"
     d="M455.46 537.576C462.407 537.381 474.542 537.02 481.43 538.123C482.16 538.24 482.197 538.766 482.626 539.589C482.545 541.406 482.866 540.654 481.742 541.966C478.637 543.244 474.583 542.731 471.076 542.645C470.946 545.034 470.58 546.433 470.947 548.884C473.009 550.383 474.895 549.299 477.467 550.713C477.314 552.306 477.211 552.718 476.839 554.218C474.904 554.817 462.082 554.631 460.225 553.925C459.86 552.299 459.649 552.104 460.256 550.553C462.11 549.138 463.808 550.237 466.749 549.316C466.28 546.722 466.23 545.345 466.151 542.747C462.824 542.827 456.411 543.8 454.451 540.808C454.416 539.05 454.57 539.046 455.46 537.576Z"
     id="path93" />
  <path
     fill="#BADAED"
     d="M565.398 315.473L586.003 315.51L586.4 327.429L565.356 327.433L565.398 315.473Z"
     id="path94" />
  <path
     fill="#BADAED"
     d="M269.734 483.531C274.028 483.327 287.938 482.815 291.58 483.824C292.363 485.133 292.359 487.109 291.324 488.27C288.796 489.175 285.183 488.834 282.375 488.786C280.892 489.037 281.525 488.733 280.403 489.721C279.567 492.109 279.814 494.898 279.828 497.496C266.998 497.976 269.165 494.612 269.734 483.531Z"
     id="path95" />
  <path
     fill="#BADAED"
     d="M732.495 483.48C739.527 483.178 747.422 483.299 754.444 483.532C754.582 488.303 754.492 492.429 754.348 497.179C751.605 497.571 747.389 497.467 744.477 497.479L744.39 489.108C739.718 488.452 736.538 489.586 733.063 487.935C731.971 486.201 732.413 486.001 732.495 483.48Z"
     id="path96" />
  <path
     fill="#BADAED"
     d="M311.932 483.494C319.265 483.384 326.173 483.32 333.499 483.52C333.991 487.89 333.964 492.809 333.743 497.201C331.105 497.591 326.735 497.49 323.907 497.504L323.985 488.994C319.635 488.421 316.521 489.504 313.1 488.033C311.665 486.193 312.137 486.325 311.932 483.494Z"
     id="path97" />
  <path
     fill="#BADAED"
     d="M690.524 483.495C693.928 483.438 710.62 482.562 712.019 484.377C712.029 486.085 712.211 486.69 711.174 488.029C708.97 489.266 705.12 488.918 702.375 488.949C701.213 489.012 701.776 488.894 700.735 489.548C700.092 491.893 700.332 494.973 700.367 497.479C696.696 497.495 694.225 497.448 690.582 497.112C690.407 492.278 690.369 488.326 690.524 483.495Z"
     id="path98" />
  <path
     fill="#BADAED"
     d="M509.51 548.476L523.163 548.488C523.149 554.479 523.028 560.468 522.8 566.455C516.396 562.216 517.506 561.748 509.421 558.52L509.51 548.476Z"
     id="path99" />
  <path
     fill="#BADAED"
     d="M543.177 556.742C546.081 556.662 549.311 555.957 551.375 558.115C551.593 559.847 551.641 559.732 550.93 561.315C548.199 563.718 541.316 562.678 537.235 562.609C534.686 562.549 531.761 563.084 529.358 562.673C527.379 562.334 526.795 558.702 528.009 557.101C531.253 556.46 539.485 556.758 543.177 556.742Z"
     id="path100" />
  <path
     fill="#BADAED"
     d="M447.678 556.859C448.678 556.926 451.497 557.137 451.668 558.183C452.647 564.161 452.66 576.388 451.879 582.181C449.456 582.578 448.753 582.949 447.162 580.94C446.667 577.479 446.395 559.621 447.678 556.859Z"
     id="path101" />
  <path
     fill="#BADAED"
     d="M486.584 556.733C487.502 557.027 488.487 557.405 489.401 557.732C491.513 560.612 490.284 576.275 490.291 580.571C490.293 581.437 489.378 582.396 488.809 583.013C486.656 582.348 486.517 582.476 485.398 580.933C484.945 577.173 484.635 559.552 486.584 556.733Z"
     id="path102" />
  <path
     fill="#BADAED"
     d="M506.625 590.105C511.375 589.846 526.624 588.598 529.837 591.376C530.461 593.262 530.261 592.686 529.668 594.942C525.234 595.184 509.239 596.405 506.294 593.455C505.835 591.351 505.863 592.431 506.625 590.105Z"
     id="path103" />
  <path
     fill="#BADAED"
     d="M179.424 556.507C181.349 556.527 181.072 556.239 182.485 557.099C184.009 560.509 184.202 562.701 181.394 565.571C179.074 567.942 176.239 567.45 173.207 567.372C172.096 567.218 171.215 567.031 170.123 566.807L169.698 566.028C171.336 562.167 175.043 564.795 178.078 562.582C179.18 560.753 179.174 558.69 179.424 556.507Z"
     id="path104" />
  <path
     fill="#BADAED"
     d="M841.524 556.226C843.97 556.787 843.374 556.273 844.698 557.902C845.487 566.226 848.582 561.881 853.549 564.451C854.519 565.908 854.232 565.119 854.355 566.933C843.129 568.099 840.822 568.208 841.524 556.226Z"
     id="path105" />
  <path
     fill="#BADAED"
     d="M780.322 590.908C781.26 593.264 782.445 601.655 780.466 603.664C778.587 603.232 778.823 602.945 777.183 601.343C776.149 600.371 774.355 599.05 773.198 598.139C775.743 595.09 777.325 593.442 780.322 590.908Z"
     id="path106" />
  <path
     fill="#BADAED"
     d="M488.842 264.163C491.755 263.791 493.808 264.202 495.552 266.812L495.122 267.698C493.947 268.445 490.65 268.141 488.35 268.487L487.745 268.581C485.025 269.17 482.654 270.62 480.701 268.368L480.928 267.297C483.475 264.43 485.007 264.69 488.842 264.163Z"
     id="path107" />
  <path
     fill="#BADAED"
     d="M666.743 590.653C668.904 592.36 671.883 595.569 673.899 597.621C672.235 598.905 671.882 599.246 670.477 600.807C669.366 602.433 668.776 603.421 666.992 603.808C665.326 601.832 666.536 593.751 666.743 590.653Z"
     id="path108" />
  <path
     fill="#BADAED"
     d="M243.587 590.717C245.61 591.777 248.975 595.854 250.635 597.71L247.025 601.115C245.716 602.761 244.023 604.476 242.568 606.028C243.166 600.371 243.517 596.458 243.587 590.717Z"
     id="path109" />
  <path
     fill="#BADAED"
     d="M356.926 590.913L357.423 591.546C357.787 594.632 358.92 600.797 357.579 603.453L356.609 603.548L355.005 602.173C353.605 600.521 352.049 599.134 350.474 597.647C352.473 595.253 354.716 593.117 356.926 590.913Z"
     id="path110" />
</svg>
