<?xml version="1.0" encoding="UTF-8" standalone="no"?>
<svg
   width="1024"
   height="1024"
   viewBox="0 0 1024 1024"
   version="1.1"
   id="svg222"
   sodipodi:docname="passenger.svg"
   inkscape:version="1.4.4 (dcaf3e7d9e, 2026-05-05)"
   xmlns:inkscape="http://www.inkscape.org/namespaces/inkscape"
   xmlns:sodipodi="http://sodipodi.sourceforge.net/DTD/sodipodi-0.dtd"
   xmlns="http://www.w3.org/2000/svg"
   xmlns:svg="http://www.w3.org/2000/svg">
  <sodipodi:namedview
     id="namedview222"
     pagecolor="#ffffff"
     bordercolor="#000000"
     borderopacity="0.25"
     inkscape:showpageshadow="2"
     inkscape:pageopacity="0.0"
     inkscape:pagecheckerboard="0"
     inkscape:deskcolor="#d1d1d1"
     inkscape:zoom="0.25097656"
     inkscape:cx="512"
     inkscape:cy="510.00778"
     inkscape:window-width="839"
     inkscape:window-height="1387"
     inkscape:window-x="859"
     inkscape:window-y="39"
     inkscape:window-maximized="1"
     inkscape:current-layer="svg222" />
  <path
     fill="#FEFEFE"
     d="M0 0L1024 0L1024 1024L0 1024L0 0Z"
     id="path1" />
  <path
     fill="#294362"
     d="M616.237 39.7661L628.794 39.5776C682.424 39.1946 736.056 39.6642 789.67 40.9863C807.812 41.3762 825.817 41.5827 843.899 42.5159C868.789 43.8004 888.15 46.6225 906.474 65.187C929.686 88.7038 929.081 118.641 930.882 149.091C932.906 183.314 933.134 217.175 933.515 251.363L935.626 462.112C935.353 543.254 934.139 624.39 931.985 705.504C931.579 726.769 930.887 748.027 929.91 769.273C929.406 782.644 930.073 795.222 927.258 808.44C923.365 826.719 915.198 843.57 901.928 856.795C888.902 869.599 871.555 877.963 853.772 881.615C843.559 883.712 833.949 884.404 823.641 884.904C813.285 885.405 803.001 885.942 792.662 886.309C763.272 887.32 733.874 888.053 704.47 888.507C605.244 890.638 505.988 890.971 406.75 889.504C347.001 889.328 287.259 888.272 227.541 886.335L194.554 884.927C182.288 884.416 171.819 884.279 159.694 881.707C125.929 874.544 103.565 846.737 96.9666 813.742C93.867 802.243 95.3561 790.306 94.2714 778.838C92.2176 757.123 92.5116 736.049 92.3774 714.277L91.8061 656.419C91.5447 601.805 89.4068 547.481 88.5803 492.984C88.0298 434.475 88.0264 375.962 88.57 317.453C89.1652 284.028 90.6834 250.974 91.4378 217.764C91.9411 199.75 92.2739 181.732 92.4364 163.712C92.5364 146.497 92.3311 125.43 94.9913 108.562C97.2632 94.1558 105.323 78.1023 115.521 67.729C128.118 54.915 146.333 47.3808 164.03 45.006C186.805 41.9497 212.035 42.7171 235.035 43.0328C261.719 43.4525 288.407 43.6011 315.095 43.4786L616.237 39.7661Z"
     id="path2" />
  <path
     fill="#9FB6CE"
     d="M169.519 416.333C183.489 417.355 202.125 415.836 216.566 415.5C246.287 414.738 276.019 414.44 305.749 414.607C420.818 416.364 535.907 416.488 650.98 414.978C664.211 414.911 677.123 415.389 690.276 415.472C702.392 415.444 714.508 415.329 726.623 415.127C756.282 414.828 785.779 413.931 815.511 414.504C821.477 414.619 850.383 417.322 853.617 415.95L853.821 415.284C847.678 408.521 713.77 411.731 695.818 411.926L533.293 412.87C514.675 412.996 496.099 412.347 477.502 412.28L334.25 411.715C304.659 411.255 275.063 411.079 245.468 411.188C225.638 411.399 205.813 411.943 186 412.817C181.691 413.015 176.139 413.141 171.841 413.798C171.01 414.421 170.317 414.941 169.764 415.356C168.824 410.95 173.63 383.845 177.069 378.808C178.59 376.581 180.868 374.264 183.669 374.09C208.009 372.582 235.036 371.275 259.26 371.611C261.45 374.106 262.833 374.563 266.283 374.621C277.023 374.804 288.021 374.6 298.758 374.512L301.365 371.663L551.774 371.987L633.372 371.867C662.036 371.643 690.821 371.062 719.474 371.696C722.49 371.763 725.418 371.593 728.01 373.247C732.934 376.389 757.954 375.032 765.111 374.947L767.873 371.576C790.853 371.703 815.101 372.394 838.105 373.859C840.495 374.011 844.168 375.459 845.82 377.247C853.384 385.499 855.203 411.617 855.607 422.68C850.74 421.946 844.043 421.63 839.013 421.249C836.94 418.846 835.94 417.811 832.507 417.88C825.232 418.025 790.525 415.532 786.313 418.288C785.276 419.891 785.37 420.037 785.07 421.875C784.498 444.612 784.303 467.358 784.487 490.101L781.936 490.127C780.746 491.36 781.073 492.519 780.925 494.615C780.243 486.819 780.913 479.012 780.374 471.236C780.231 469.177 778.207 468.374 776.356 468.727C775.187 470.025 775.51 469.3 775.226 470.917C776.001 472.262 776.448 472.284 777.86 472.984C779.13 475.954 778.483 496.255 778.425 500.766C778.468 505.729 778.85 521.548 777.96 525.93L777.621 526.2C777.153 524.135 777.569 524.514 776.252 523.387C761.425 522.854 742.433 523.488 727.248 523.471L617.864 523.466L613.626 531.926L734.565 531.822C740 531.81 774.345 531.01 777.701 532.101L778.052 532.67C776.73 535.17 775.797 534.607 775.642 536.618C776.959 537.54 776.925 537.428 778.555 537.595C781.738 535.946 779.838 533.675 782.025 531.345C783.45 531.194 783.371 531.279 784.662 531.966C785.316 534.456 785.092 537.419 785.062 540.05C781.767 540.09 777.499 540.023 774.318 540.437L774.887 540.5C778.213 540.841 781.404 540.817 784.743 540.845C783.315 541.271 783.078 541.303 781.59 541.461L781.16 541.9C783.012 541.995 783.529 541.709 784.874 542.568C785.608 548.797 784.964 561.065 785.19 568.02C781.691 567.988 777.321 568.06 773.902 567.837C768.757 564.008 762.249 557.205 757.574 552.521C749.246 552.474 740.917 552.473 732.588 552.517C733.488 550.713 735.362 547.035 734.949 545.064C732.732 546.218 735.352 547.39 733.173 547.191C732.089 545.555 730.945 544.035 728.955 543.459C729.043 545.92 728.88 547.511 729.953 549.715L730.464 549.414C730.422 548.188 730.526 546.968 730.606 545.746L731.068 545.539C735.778 551.702 731.11 552.735 725.797 552.42L274.186 552.603C268.511 556.874 264.321 563.14 257.648 568.015L246.078 568.117C246.32 559.392 246.434 550.664 246.421 541.936L251.351 541.846C249.983 540.977 248.593 541.269 246.75 541.237L246.668 540.763C253.782 540.684 262.831 540.99 269.695 540.41C263.299 539.844 252.988 540.085 246.294 540.047C246.23 537.641 245.807 533.94 247.337 532.193C250.095 533.542 250.374 537.201 253.548 537.018C255.196 535.865 254.673 536.601 255.325 534.853L254.812 533.799L253.009 533.509L252.322 533.647C250.939 532.035 251.549 513.48 251.606 509.788L251.466 488.439C251.354 484.938 250.689 475.429 251.877 472.633C252.78 472.506 253.66 472.347 254.545 472.126C255.155 470.524 255.01 471.377 254.63 469.442C253.347 468.038 254.099 468.422 252.422 468.038C247.141 470.229 249.235 484.552 249.017 490.025L246.666 490.067C246.446 486.926 246.451 483.412 246.553 480.252C247.186 460.629 246.009 440.953 246.066 421.363C245.585 420.138 244.683 417.935 243.112 417.835C229.356 416.955 215.147 417.532 201.337 417.768C197.707 417.831 194.07 418.516 192.11 421.632C189.829 422.696 172.486 422.429 168.95 422.312C169.087 420.419 169.182 418.173 169.519 416.333Z"
     id="path3" />
  <path
     fill="#B9D6ED"
     d="M251.466 488.439L253.486 489.315C258.783 490.891 296.367 490.068 304.44 490.087L476.437 489.544C495.729 489.576 515.01 490.37 534.29 490.929C545.404 491.25 556.994 490.548 568 491.102C591.483 492.284 614.44 491.118 637.881 490.592C649.8 490.324 661.933 491.545 673.87 491.444C695.328 491.692 717.257 491.259 738.684 490.535C744.662 490.333 773.395 490.605 777.122 489.475C778.483 490.624 777.926 498.219 778.425 500.766C778.468 505.729 778.85 521.548 777.96 525.93L777.621 526.2C777.153 524.135 777.569 524.514 776.252 523.387C761.425 522.854 742.433 523.488 727.248 523.471L617.864 523.466L613.626 531.926L734.565 531.822C740 531.81 774.345 531.01 777.701 532.101L778.052 532.67C776.73 535.17 775.797 534.607 775.642 536.618C776.959 537.54 776.925 537.428 778.555 537.595C781.738 535.946 779.838 533.675 782.025 531.345C783.45 531.194 783.371 531.279 784.662 531.966C785.316 534.456 785.092 537.419 785.062 540.05C781.767 540.09 777.499 540.023 774.318 540.437L774.887 540.5C778.213 540.841 781.404 540.817 784.743 540.845C783.315 541.271 783.078 541.303 781.59 541.461L781.16 541.9C783.012 541.995 783.529 541.709 784.874 542.568C785.608 548.797 784.964 561.065 785.19 568.02C781.691 567.988 777.321 568.06 773.902 567.837C768.757 564.008 762.249 557.205 757.574 552.521C749.246 552.474 740.917 552.473 732.588 552.517C733.488 550.713 735.362 547.035 734.949 545.064C732.732 546.218 735.352 547.39 733.173 547.191C732.089 545.555 730.945 544.035 728.955 543.459C729.043 545.92 728.88 547.511 729.953 549.715L730.464 549.414C730.422 548.188 730.526 546.968 730.606 545.746L731.068 545.539C735.778 551.702 731.11 552.735 725.797 552.42L274.186 552.603C268.511 556.874 264.321 563.14 257.648 568.015L246.078 568.117C246.32 559.392 246.434 550.664 246.421 541.936L251.351 541.846C249.983 540.977 248.593 541.269 246.75 541.237L246.668 540.763C253.782 540.684 262.831 540.99 269.695 540.41C263.299 539.844 252.988 540.085 246.294 540.047C246.23 537.641 245.807 533.94 247.337 532.193C250.095 533.542 250.374 537.201 253.548 537.018C255.196 535.865 254.673 536.601 255.325 534.853L254.812 533.799L253.009 533.509L252.322 533.647C250.939 532.035 251.549 513.48 251.606 509.788L251.466 488.439Z"
     id="path4" />
  <path
     fill="#B9D6ED"
     d="M269.695 540.41C309.439 539.758 349.562 540.345 389.283 540.441L582.787 540.385C636.827 540.238 690.464 536.915 744.429 539.895C754.087 540.429 764.963 539.7 774.318 540.437L774.887 540.5C778.213 540.841 781.404 540.817 784.743 540.845C783.315 541.271 783.078 541.303 781.59 541.461L781.16 541.9C783.012 541.995 783.529 541.709 784.874 542.568C785.608 548.797 784.964 561.065 785.19 568.02C781.691 567.988 777.321 568.06 773.902 567.837C768.757 564.008 762.249 557.205 757.574 552.521C749.246 552.474 740.917 552.473 732.588 552.517C733.488 550.713 735.362 547.035 734.949 545.064C732.732 546.218 735.352 547.39 733.173 547.191C732.089 545.555 730.945 544.035 728.955 543.459C729.043 545.92 728.88 547.511 729.953 549.715L730.464 549.414C730.422 548.188 730.526 546.968 730.606 545.746L731.068 545.539C735.778 551.702 731.11 552.735 725.797 552.42L274.186 552.603C268.511 556.874 264.321 563.14 257.648 568.015L246.078 568.117C246.32 559.392 246.434 550.664 246.421 541.936L251.351 541.846C249.983 540.977 248.593 541.269 246.75 541.237L246.668 540.763C253.782 540.684 262.831 540.99 269.695 540.41Z"
     id="path5" />
  <path
     fill="#1E3856"
     d="M269.695 540.41C309.439 539.758 349.562 540.345 389.283 540.441L582.787 540.385C636.827 540.238 690.464 536.915 744.429 539.895C754.087 540.429 764.963 539.7 774.318 540.437L774.887 540.5C778.213 540.841 781.404 540.817 784.743 540.845C783.315 541.271 783.078 541.303 781.59 541.461L781.16 541.9C746.943 543.076 713.366 539.728 679.161 540.503C654.522 541.061 629.784 541.98 605.144 542.188L424.356 541.999L337.603 541.974C309.144 542.113 279.768 542.647 251.351 541.846C249.983 540.977 248.593 541.269 246.75 541.237L246.668 540.763C253.782 540.684 262.831 540.99 269.695 540.41Z"
     id="path6" />
  <path
     fill="#C3DCF7"
     d="M727.494 543.848L728.23 542.993L728.955 543.459C729.043 545.92 728.88 547.511 729.953 549.715L730.464 549.414C730.422 548.188 730.526 546.968 730.606 545.746L731.068 545.539C735.778 551.702 731.11 552.735 725.797 552.42C724.326 552.037 723.044 551.907 721.542 551.692C724.746 551.6 728.041 551.563 731.227 551.29L731.33 550.915C729.303 549.9 725.714 551.063 722.68 550.213L722.733 549.595C723.637 549.742 723.919 549.701 724.839 549.701L725.908 548.557L726.959 548.912C726.893 546.6 726.987 546.117 727.494 543.848Z"
     id="path7" />
  <path
     fill="#364D64"
     d="M727.494 543.848C727.955 546.132 728.105 546.554 727.971 548.83L727.437 549.21L726.959 548.912C726.893 546.6 726.987 546.117 727.494 543.848Z"
     id="path8" />
  <path
     fill="#1E3856"
     d="M722.733 549.595C722.499 548.11 722.584 547.589 722.656 546.1C723.648 544.532 722.966 545.176 725.082 544.478L725.451 545.022L723.548 547.497L723.75 548.435C724.694 548.444 724.942 548.453 725.908 548.557L724.839 549.701C723.919 549.701 723.637 549.742 722.733 549.595Z"
     id="path9" />
  <path
     fill="#C3DCF7"
     d="M540.176 551.075C537.418 551.336 537.708 551.723 535.521 550.747C533.504 548.308 533.57 546.433 535.348 543.932C537.732 543.093 537.933 544.442 540.324 544.013C545.524 545.064 544.404 551.074 540.176 551.075Z"
     id="path10" />
  <path
     fill="#1E3856"
     d="M540.324 544.013C545.524 545.064 544.404 551.074 540.176 551.075C539.951 547.982 539.886 547.169 540.324 544.013Z"
     id="path11" />
  <path
     fill="#C3DCF7"
     d="M541.466 544.807C542.955 546.55 542.499 548.179 541.971 550.185L541.212 549.326C540.683 547.285 540.92 546.943 541.466 544.807Z"
     id="path12" />
  <path
     fill="#1E3856"
     d="M535.78 544.096C537.84 544.551 537.87 544.603 538.911 546.254C539.181 548.466 539.005 548.761 538.454 550.987C536.14 550.839 536.962 551.321 535.635 550.006C534.969 548.009 535.471 546.238 535.78 544.096Z"
     id="path13" />
  <path
     fill="#C3DCF7"
     d="M711.71 545.803C713.08 544.841 714.248 544.56 715.89 544.545L716.306 545.099C716.171 546.504 716.147 547.099 716.185 548.508L717.51 549.433L717.32 550.273C715.187 550.61 707.178 550.48 705.033 550.165C704.787 548.485 704.561 549.155 705.225 547.933L706.128 549.695L706.563 549.751C707.031 547.737 706.62 545.106 707.353 542.952L708.118 544.556C710.599 544.821 709.783 544.423 711.71 545.803Z"
     id="path14" />
  <path
     fill="#364D64"
     d="M708.118 544.556C710.599 544.821 709.783 544.423 711.71 545.803C711.618 547.043 711.713 548.139 710.951 549.175L711.12 549.423C710.633 548.005 710.302 547.207 709.704 545.866C708.06 546.105 709.943 548.03 708.41 549.457C707.744 548.052 708.037 546.175 708.118 544.556Z"
     id="path15" />
  <path
     fill="#1E3856"
     d="M517.947 543.989L519.337 544.709C520.99 547.257 520.544 549.524 518.52 551.551C515.275 549.443 515.911 546.587 517.947 543.989Z"
     id="path16" />
  <path
     fill="#B9D6ED"
     d="M517.915 545.24L518.632 545.852C519.431 547.435 519.015 548.689 518.768 550.499C516.996 548.885 517.498 547.318 517.915 545.24Z"
     id="path17" />
  <path
     fill="#1E3856"
     d="M524.271 544.106C526.503 544.464 526.413 544.467 527.541 546.215C527.836 548.52 527.584 549.049 527.064 551.384C524.839 550.825 525.708 551.384 524.245 549.852C523.565 547.79 523.985 546.28 524.271 544.106Z"
     id="path18" />
  <path
     fill="#364D64"
     d="M494.838 543.686C498.558 545.512 497.925 548.079 496.593 551.373C492.689 550.586 493.573 546.375 494.838 543.686Z"
     id="path19" />
  <path
     fill="#C3DCF7"
     d="M495.487 544.799C496.853 546.557 496.382 548.22 495.975 550.207L495.187 549.362C494.712 547.279 494.935 546.955 495.487 544.799Z"
     id="path20" />
  <path
     fill="#1E3856"
     d="M528.844 544.168C530.216 544.356 530.194 544.287 531.386 544.949C532.817 547.223 532.134 548.628 531.544 551.325C529.222 550.636 530.08 551.281 528.702 549.586C528.116 547.511 528.504 546.366 528.844 544.168Z"
     id="path21" />
  <path
     fill="#C3DCF7"
     d="M529.87 545.227L530.611 545.849C531.427 547.426 531.02 548.651 530.778 550.462C529.125 548.575 529.522 547.523 529.87 545.227Z"
     id="path22" />
  <path
     fill="#364D64"
     d="M501.965 543.768C505.412 545.452 504.78 548.765 503.32 551.573C499.688 550.838 500.624 546.15 501.965 543.768Z"
     id="path23" />
  <path
     fill="#C3DCF7"
     d="M502.659 544.857C503.482 547.204 503.327 547.866 502.924 550.277C502.14 549.713 502.403 549.898 501.867 548.996C501.884 546.845 501.92 546.914 502.659 544.857Z"
     id="path24" />
  <path
     fill="#1E3856"
     d="M489.832 543.749C491.589 544.005 492.341 543.914 492.771 545.671C491.597 545.433 491.908 545.465 490.649 545.469L491.131 546.663C493.697 548.508 493.109 548.221 492.637 551.207C491.017 551.032 490.882 551.202 489.704 550.172L489.684 549.381L491.748 549.655L491.989 549.046C490.296 545.852 489.013 548.97 489.832 543.749Z"
     id="path25" />
  <path
     fill="#1E3856"
     d="M513.103 544.932L514.308 544.484L515.086 544.943C515.77 547.293 514.217 547.879 515.032 550.971L513.866 551.827L512.282 550.721L512.188 549.837C513.34 548.56 514.746 547.408 514.056 545.654L512.446 545.979C512.578 545.213 512.409 545.589 513.103 544.932Z"
     id="path26" />
  <path
     fill="#1E3856"
     d="M297.273 548.764C300.488 548.274 304.276 547.803 307.189 549.25C303.955 549.558 300.189 550.133 297.273 548.764Z"
     id="path27" />
  <path
     fill="#294362"
     d="M553.669 544.158C555.493 545.821 555.123 549.553 553.755 551.415C553.6 549.007 553.14 547.901 552.568 545.609L553.669 544.158Z"
     id="path28" />
  <path
     fill="#1E3856"
     d="M545.948 545.269L546.637 545.105C547.588 546.814 546.93 549.534 546.265 551.273C546.107 548.842 545.874 547.971 545.255 545.594L545.948 545.269Z"
     id="path29" />
  <path
     fill="#294362"
     d="M252.969 497.86C255.93 496.51 294.932 497.678 302.203 497.587C327.957 497.268 354.363 497.465 380.175 497.601C388.687 497.741 406.449 498.6 414.617 499.601C404.15 500.785 385.187 501.477 374.322 501.528L371.348 502.512C375.186 502.7 399.724 503.379 401.643 503.847L401.948 505.132C392.115 505.938 381.034 506.048 371.065 506.467L371.082 507.491C382.474 507.704 395.651 508.212 406.811 509.495L406.202 509.345L405.712 509.708C396.722 510.62 385.778 510.737 376.614 511.058C374.091 511.407 372.189 511.56 369.671 511.717L369.415 512.103L369.546 512.388C374.618 512.573 402.568 513.413 405.227 514.417C401.74 515.176 378.106 516.078 373.656 516.065C372.508 516.209 367.939 516.49 367.517 516.999L368.081 517.472C378.348 517.469 391.936 518.541 402.301 519.348L402.514 519.578C396.839 520.408 377.908 521.11 371.59 521.003C370.918 521.509 370.375 521.873 369.771 522.455C373.453 522.617 398.925 523.668 400.234 524.464C397.49 525.264 375.078 525.88 370.658 526.064C368.11 526.354 365.558 526.598 363.001 526.797L362.716 527.389C374.579 527.804 387.351 528.395 399.218 529.079C394.301 530.239 386.473 530.273 381.26 530.499C369.725 531.05 358.181 531.38 346.633 531.487C323.201 532.063 299.761 532.306 276.321 532.214C269.316 532.201 260.417 532.499 253.597 532.281L253.009 533.509L252.322 533.647C250.939 532.035 251.549 513.48 251.606 509.788C252.559 506.195 251.773 501.39 252.471 497.382L252.969 497.86Z"
     id="path30" />
  <path
     fill="#FEFEFE"
     d="M251.606 509.788C252.559 506.195 251.773 501.39 252.471 497.382L252.969 497.86C253.731 508.404 252.712 523.362 253.597 532.281L253.009 533.509L252.322 533.647C250.939 532.035 251.549 513.48 251.606 509.788Z"
     id="path31" />
  <path
     fill="#7B94B3"
     d="M356.934 522.113C361.92 521.237 366.548 521.062 371.59 521.003C370.918 521.509 370.375 521.873 369.771 522.455C366.726 522.703 360.223 522.25 356.934 522.113Z"
     id="path32" />
  <path
     fill="#7B94B3"
     d="M353.879 526.864C359.707 526.239 364.804 525.877 370.658 526.064C368.11 526.354 365.558 526.598 363.001 526.797L362.716 527.389C359.425 527.607 357.146 527.248 353.879 526.864Z"
     id="path33" />
  <path
     fill="#7B94B3"
     d="M358.582 517.117C364.003 516.122 368.18 515.904 373.656 516.065C372.508 516.209 367.939 516.49 367.517 516.999L368.081 517.472C365.757 517.589 361.079 517.236 358.582 517.117Z"
     id="path34" />
  <path
     fill="#7B94B3"
     d="M361.737 511.982C367.002 510.995 371.297 510.911 376.614 511.058C374.091 511.407 372.189 511.56 369.671 511.717L369.415 512.103L369.546 512.388C367.506 512.593 363.904 512.166 361.737 511.982Z"
     id="path35" />
  <path
     fill="#7B94B3"
     d="M371.082 507.491C369.424 507.507 368.041 507.739 366.663 506.924C368.04 506.157 369.431 506.416 371.065 506.467L371.082 507.491Z"
     id="path36" />
  <path
     fill="#7B94B3"
     d="M371.348 502.512C370.108 502.51 370.676 502.661 369.633 502.099C371.437 501.271 372.264 501.476 374.322 501.528L371.348 502.512Z"
     id="path37" />
  <path
     fill="#0F253C"
     d="M401.643 503.847C403.673 503.914 406.588 503.916 408.536 504.115L408.878 504.65L409.036 504.175L409.392 504.594L409.755 504.299L409.8 504.34L409.55 504.616L409.413 504.283L409.254 504.671L409.245 504.265L409.002 504.711L408.849 504.232L408.285 504.805C406.175 504.954 404.062 505.063 401.948 505.132L401.643 503.847Z"
     id="path38" />
  <path
     fill="#0F253C"
     d="M456.561 496.746C462.988 496.805 501.291 495.984 504.247 497.738C505.752 498.631 506.983 500.009 507.209 501.806C507.379 503.157 507.03 503.688 506.348 504.751C503.04 506.886 495.507 505.967 491.071 505.889C488.345 511.683 485.715 517.153 483.372 523.117C487.633 523.467 493.845 523.331 498.252 523.366C495.071 532.089 490.212 532.848 481.426 532.626C474.067 532.44 466.589 532.551 459.243 531.946L459.289 531.673C463.334 530.741 466.168 530.948 470.334 531C466.576 524.08 464.555 521.445 467.225 513.564C471.336 505.608 476.164 503.137 483.337 498.136C479.563 498.398 474.725 498.353 470.871 498.427L468 505.875C463.99 506.024 459.613 505.977 455.57 506.016C452.867 511.241 449.435 517.523 447.728 523.032C451.854 523.263 457.257 523.063 461.477 523.025C459.745 526.416 458.533 528.798 457.185 532.341C451.926 532.439 438.804 533.138 434.659 531.715C429.183 526.095 442.665 504.079 446.547 498.388C447.881 496.433 454.294 496.782 456.561 496.746Z"
     id="path39" />
  <path
     fill="#9FB6CE"
     d="M468.313 498.248L468.677 498.611C468.029 500.428 467.296 502.193 466.573 503.98L454.339 503.976C452.299 508.021 444.314 521.177 446.837 524.722C449.551 525.295 455.314 525.008 458.35 524.956L455.471 530.746L449.125 530.726L441.166 530.645C438.888 530.61 436.327 530.817 434.772 529.21C434.214 523.435 443.87 505.321 447.319 500.092C448.994 497.553 464.255 498.252 468.313 498.248Z"
     id="path40" />
  <path
     fill="#B9D6ED"
     d="M486.296 498.248C490.326 498.19 507.916 496.023 505.16 503.384C502.403 505.358 494.322 504.522 490.41 504.514C488.378 508.654 482.318 519.743 482.968 523.729C485.926 525.989 493.625 523.751 495.732 525.126L495.836 526.295C490.99 533.055 481.769 531.075 474.071 530.955C476.05 529.161 479.104 526.837 478.218 524.123C476.727 523.043 474.521 523.334 472.577 523.327C473.526 517.409 476.783 511.229 479.56 505.997C485.822 505.812 488.909 505.95 486.296 498.248Z"
     id="path41" />
  <path
     fill="#B9D6ED"
     d="M475.789 505.21C477.037 505.584 476.624 505.405 477.697 506.146C475.342 511.866 472.683 517.369 470.685 523.244C470.221 523.544 469.756 523.843 469.291 524.142L468.538 523.843C463.769 518.292 471.582 508.83 475.789 505.21Z"
     id="path42" />
  <path
     fill="#B9D6ED"
     d="M469.057 525.134C471.185 524.994 474.767 524.491 476.576 525.239L476.789 526.202L475.423 528.116C474.118 529.207 474.045 529.411 472.395 529.943C470.413 529.061 470.086 527.369 469.057 525.134Z"
     id="path43" />
  <path
     fill="#B9D6ED"
     d="M484.09 499.378C485.526 499.782 485.928 500.199 486.482 501.394L485.74 502.837C483.269 504.519 481.859 504.358 478.93 504.5C478.422 504.531 478.047 504.396 477.521 504.286C478.545 502.841 482.422 500.495 484.09 499.378Z"
     id="path44" />
  <path
     fill="#1E3856"
     d="M424.849 507.979C429.121 507.853 433.652 507.942 437.946 507.954C434.25 516.218 430.379 524.402 426.334 532.502L412.857 532.435C416.285 524.94 420.866 515.012 424.849 507.979Z"
     id="path45" />
  <path
     fill="#9FB6CE"
     d="M425.9 509.948L435.255 509.887L425.233 530.48L415.78 530.618C419.244 523.781 422.161 516.713 425.9 509.948Z"
     id="path46" />
  <path
     fill="#1E3856"
     d="M429.976 496.958L443.354 496.955C441.891 500.202 440.948 502.454 439.004 505.444L425.564 505.509L429.976 496.958Z"
     id="path47" />
  <path
     fill="#9FB6CE"
     d="M431.111 498.52L440.963 498.428L438.212 503.883C435.358 503.988 431.313 503.791 428.371 503.737L431.111 498.52Z"
     id="path48" />
  <path
     fill="#1E3856"
     d="M561.434 522.527C563.771 522.367 565.939 521.812 567.544 523.523C567.821 523.265 568.559 522.797 568.904 522.564C568.279 525.648 566.359 529.427 566.237 531.455L565.149 530.636C563.054 531.977 560.265 531.606 557.66 531.603C558.835 528.415 560.058 525.635 561.434 522.527Z"
     id="path49" />
  <path
     fill="#C3DCF7"
     d="M567.544 523.523C567.821 523.265 568.559 522.797 568.904 522.564C568.279 525.648 566.359 529.427 566.237 531.455L565.149 530.636C563.431 530.203 561.79 530.51 560.349 529.188C562.275 527.874 563.718 528.446 565.637 526.817L565.252 526.142L562.1 525.652L561.821 525.16C563.763 523.803 565.234 523.764 567.544 523.523Z"
     id="path50" />
  <path
     fill="#1E3856"
     d="M568.904 522.564C571.399 522.433 573.406 522.103 575.752 522.871L576.136 523.713C574.193 526.766 572.326 527.162 573.769 530.542L573.337 531.441L572.544 531.678C570.484 529.504 571.99 528.976 569.763 527.802C566.987 529.469 568.81 530.604 566.237 531.455C566.359 529.427 568.279 525.648 568.904 522.564Z"
     id="path51" />
  <path
     fill="#0F253C"
     d="M589.02 522.7C591.964 522.34 596.215 521.432 598.383 523.612C598.836 525.012 598.549 524.757 599.434 525.748C600.916 524.356 602.281 522.67 604.203 522.36L604.32 522.817C601.175 525.961 597.79 531.023 596.439 532.259C596.904 529.194 598.922 526.066 595.801 523.347C592.637 523.579 591.808 530.185 589.315 531.649C589.13 529.159 590.998 527.324 591.37 524.836C591.623 523.15 590.779 525.357 589.02 522.7Z"
     id="path52" />
  <path
     fill="#0F253C"
     d="M526.884 522.509C529.03 522.377 530.075 522.171 532.123 522.685C533.643 523.905 533.149 523.16 533.732 524.948C532.656 528.248 529.873 528.453 526.894 528.435L526.446 528.512C525.82 529.835 525.629 530.1 524.778 531.305L524.282 531.383C524.717 528.461 525.954 525.417 526.884 522.509Z"
     id="path53" />
  <path
     fill="#C3DCF7"
     d="M528.82 523.409C530.302 523.591 530.245 523.566 531.597 524.19C531.87 525.768 531.746 525.305 530.618 527.105C529.144 527.082 529.115 527.182 527.797 526.597C527.534 525.043 527.874 525.164 528.82 523.409Z"
     id="path54" />
  <path
     fill="#1E3856"
     d="M509.935 522.412L510.83 522.415C513.825 522.402 514.726 521.809 516.268 524.514C515.585 528.176 512.705 528.425 509.529 528.608L508.846 528.853C508.326 530.073 508.219 530.671 507.235 531.535L506.564 531.429C506.458 529.74 509.089 524.363 509.935 522.412Z"
     id="path55" />
  <path
     fill="#0F253C"
     d="M544.5 522.239C545.223 522.391 545.332 522.508 546.009 522.827C546.886 524.785 547.084 527.407 547.391 529.591C548.04 527.866 549.484 523.211 551.435 522.881C549.83 526.976 550.061 529.951 546.782 532.065C545.784 529.576 545.449 526.846 544.979 524.183C544.019 526.723 543.36 529.175 541.575 531.151L541.192 530.84C541.673 527.485 542.83 525.184 544.5 522.239Z"
     id="path56" />
  <path
     fill="#0F253C"
     d="M518.695 522.157C519.591 522.611 519.22 522.272 519.752 523.235C519.071 524.46 519.049 524.366 519 525.751C520.865 525.797 522.814 522.651 525.228 522.498C525.101 523.298 522.193 525.415 521.041 526.557C520.682 528.398 521.095 528.401 521.934 530.511L522.257 530.95L521.784 531.477L520.617 531.354C519.743 530.163 519.628 529.306 519.246 527.891L518.516 527.598C517.446 528.74 516.824 529.983 516.034 531.335L515.787 530.952C516.191 527.576 517.365 525.279 518.695 522.157Z"
     id="path57" />
  <path
     fill="#0F253C"
     d="M579.793 522.597C581.808 522.448 582.329 522.306 584.243 522.78C581.722 524.679 576.727 525.693 577.232 529.363C578.633 530.567 578.968 530.465 580.792 530.593L581.477 530.284L581.648 530.924C579.97 531.974 578.269 531.785 576.457 531.19C573.994 528.522 577.595 524.339 579.793 522.597Z"
     id="path58" />
  <path
     fill="#1E3856"
     d="M551.903 522.691C554.74 522.33 556.409 522.451 559.221 522.569L559.302 523.064L558.405 523.791C555.712 526.008 555.962 525.439 554.752 528.747L554.497 529.465C553.605 531.344 554.254 530.705 552.777 531.734L552.217 531.314C552.162 529.151 554.463 526.813 554.624 524.261C553.151 523.84 552.915 523.842 551.903 522.691Z"
     id="path59" />
  <path
     fill="#1E3856"
     d="M459.817 507.376C460.057 509.619 455.049 519.742 453.56 521.764C452.669 518.993 457.785 509.527 459.817 507.376Z"
     id="path60" />
  <path
     fill="#0F253C"
     d="M540.803 522.167L541.552 522.51C542.059 524.756 539.371 529.626 538.304 531.854C537.56 531.531 537.917 531.782 537.317 530.993C538.069 528.125 539.604 524.931 540.803 522.167Z"
     id="path61" />
  <path
     fill="#0F253C"
     d="M586.986 522.24L587.67 522.92C587.519 525.423 585.625 529.48 584.536 531.844L583.669 530.931C584.073 528.149 585.751 524.825 586.986 522.24Z"
     id="path62" />
  <path
     fill="#B9D6ED"
     d="M169.519 416.333C183.489 417.355 202.125 415.836 216.566 415.5C246.287 414.738 276.019 414.44 305.749 414.607C420.818 416.364 535.907 416.488 650.98 414.978C664.211 414.911 677.123 415.389 690.276 415.472C702.392 415.444 714.508 415.329 726.623 415.127C756.282 414.828 785.779 413.931 815.511 414.504C821.477 414.619 850.383 417.322 853.617 415.95L853.821 415.284C847.678 408.521 713.77 411.731 695.818 411.926L533.293 412.87C514.675 412.996 496.099 412.347 477.502 412.28L334.25 411.715C304.659 411.255 275.063 411.079 245.468 411.188C225.638 411.399 205.813 411.943 186 412.817C181.691 413.015 176.139 413.141 171.841 413.798C171.01 414.421 170.317 414.941 169.764 415.356C168.824 410.95 173.63 383.845 177.069 378.808C178.59 376.581 180.868 374.264 183.669 374.09C208.009 372.582 235.036 371.275 259.26 371.611C261.45 374.106 262.833 374.563 266.283 374.621C277.023 374.804 288.021 374.6 298.758 374.512L301.365 371.663L551.774 371.987L633.372 371.867C662.036 371.643 690.821 371.062 719.474 371.696C722.49 371.763 725.418 371.593 728.01 373.247C732.934 376.389 757.954 375.032 765.111 374.947L767.873 371.576C790.853 371.703 815.101 372.394 838.105 373.859C840.495 374.011 844.168 375.459 845.82 377.247C853.384 385.499 855.203 411.617 855.607 422.68C850.74 421.946 844.043 421.63 839.013 421.249C836.94 418.846 835.94 417.811 832.507 417.88C825.232 418.025 790.525 415.532 786.313 418.288C785.276 419.891 785.37 420.037 785.07 421.875C777.578 421.154 766.274 421.698 758.381 421.709L715.593 421.481L566.531 421.927L246.066 421.363C245.585 420.138 244.683 417.935 243.112 417.835C229.356 416.955 215.147 417.532 201.337 417.768C197.707 417.831 194.07 418.516 192.11 421.632C189.829 422.696 172.486 422.429 168.95 422.312C169.087 420.419 169.182 418.173 169.519 416.333Z"
     id="path63" />
  <path
     fill="#0F253C"
     d="M376.382 393.732C399.645 393.104 419.44 394.348 442.295 395.092C461.774 395.575 481.258 395.831 500.743 395.863C529.887 395.897 558.941 393.66 588.062 393.478C608.757 393.35 629.51 393.179 650.199 393.614C668.361 393.995 686.544 394.971 704.71 394.937C715.062 394.918 773.16 393.859 778.781 395.895C774.926 397.302 748.32 396.287 743 396.415C712.98 397.141 683.112 396.17 653.122 395.28C578.802 392.95 504.837 400.402 430.535 396.119C410.333 394.955 390.385 395.073 370.166 395.329L288.57 397.171C281.304 397.266 258.601 397.682 252.302 396.409C253.708 395.383 320.791 395.945 329.33 395.204C341.468 394.15 363.853 393.916 376.382 393.732Z"
     id="path64" />
  <path
     fill="#0F253C"
     d="M440.373 379.224C452.506 378.538 469.273 379.465 482.049 379.55L562.133 380.093C584.676 380.47 608.266 379.898 630.916 379.884L709.924 380.393C718.013 380.4 770.906 378.794 773.699 381.158C763.238 381.873 749.588 381.17 738.499 381.413C719.421 381.966 700.335 382.161 681.25 381.999C672.717 381.927 664.211 381.451 655.581 381.404L590.511 381.523C544.178 381.923 496.753 380.644 450.333 380.595L279.932 381.067C276.718 381.05 257.891 381.828 256.735 381.046C259.728 379.171 297.081 380.099 303.101 380.125L374.215 379.994C396.709 380.007 417.894 380.385 440.373 379.224Z"
     id="path65" />
  <path
     fill="#0F253C"
     d="M518.628 385.759C569.982 384.572 621.299 387.596 672.655 386.483C692.445 386.054 711.903 386.849 731.594 386.668L762.681 386.535C767.006 386.554 771.89 386.23 776.092 386.781C769.728 389.297 702.308 387.501 692 387.745C632.085 389.162 572.035 386.266 512.086 387.326C450.682 388.079 389.273 388.285 327.866 387.944C310.846 388.034 293.825 388.033 276.805 387.94C272.675 387.931 258.479 388.25 255.196 387.72C258.606 385.219 376.434 386.904 390.304 386.913L518.628 385.759Z"
     id="path66" />
  <path
     fill="#0F253C"
     d="M262.373 404.223C276.578 403.625 290.365 404.24 304.466 404.412L377.047 405.005L537.001 404.563C551.593 404.619 566.433 405.271 581.064 405.44C612.479 405.601 643.895 405.549 675.31 405.284L724.661 405.119C731.008 405.035 777.493 403.824 779.537 405.318L779.275 405.62C776.985 406.715 770.418 406.375 767.51 406.384L331.242 406.089L289.078 405.472C283.063 405.434 254.806 406.191 251.556 405.14C255.075 404.447 258.776 404.39 262.373 404.223Z"
     id="path67" />
  <path
     fill="#1E3856"
     d="M776.481 373.212C782.487 376.049 785.122 400.573 784.287 406.539C783.052 405.188 782.94 401.826 782.733 399.901C781.728 390.548 779.373 382.108 776.481 373.212Z"
     id="path68" />
  <path
     fill="#0F253C"
     d="M185.255 379.861C185.267 379.913 180.678 407.56 180.121 409.679C178.098 403.198 182.483 386.338 185.255 379.861Z"
     id="path69" />
  <path
     fill="#0F253C"
     d="M252.69 374.464C252.469 372.605 246.192 407.482 246.287 407.134C245.244 401.24 248.813 379.458 252.69 374.464Z"
     id="path70" />
  <path
     fill="#1E3856"
     d="M841.185 389.43L841.543 389.754C843.744 395.43 844.233 403.202 844.52 409.265C842.373 407.705 841.839 393.464 841.185 389.43Z"
     id="path71" />
  <path
     fill="#0F253C"
     d="M253.486 489.315C255.726 488.236 274.443 488.957 278.369 488.939C304.504 488.809 330.64 488.827 356.775 488.99C415.864 488.991 474.707 486.713 533.834 489.208C554.359 490.073 576.555 489.813 597.258 489.912L689.635 489.549C698.953 489.536 774.168 487.045 777.122 489.475C773.395 490.605 744.662 490.333 738.684 490.535C717.257 491.259 695.328 491.692 673.87 491.444C661.933 491.545 649.8 490.324 637.881 490.592C614.44 491.118 591.483 492.284 568 491.102C556.994 490.548 545.404 491.25 534.29 490.929C515.01 490.37 495.729 489.576 476.437 489.544L304.44 490.087C296.367 490.068 258.783 490.891 253.486 489.315Z"
     id="path72" />
  <path
     fill="#294362"
     d="M457.106 425.278C474.713 424.459 491.124 425.649 508.625 425.567L652.558 425.166C664.701 425.08 677.355 425.45 689.296 425.563C707.167 424.932 706.04 437.442 705.404 451.264C704.968 460.739 709.527 481.883 695.283 482.866C689.815 483.243 683.203 482.736 677.751 482.644C667.656 482.53 657.559 482.481 647.463 482.496C623.968 482.491 598.829 483.674 575.625 483.224C554.45 482.481 529.808 482.888 508.584 483.034C466.041 483.716 423.489 483.687 380.947 482.946C371.952 482.785 362.954 482.8 353.96 482.992C348.603 483.074 342.447 483.469 337.226 482.833C330.201 481.979 327.33 475.454 327.215 469.168C326.833 462.095 327.548 454.748 327.341 447.703C327.06 438.12 325.4 427.096 338.526 426.009C349.111 425.131 360.043 425.64 370.793 425.517L457.106 425.278Z"
     id="path73" />
  <path
     fill="#294362"
     d="M268.849 425.676C278.471 425.459 304.239 421.521 304.345 435.307C304.442 447.978 305.12 461.425 304.079 474.068C303.634 479.476 299.578 482.09 294.668 482.752C286.296 483.108 259.191 486.635 258.773 474.781C258.322 461.977 257.975 448.105 258.699 435.246C259.059 428.847 263.281 426.6 268.849 425.676Z"
     id="path74" />
  <path
     fill="#B9D6ED"
     d="M262.507 445.49C275.107 445.345 287.708 445.351 300.308 445.505C300.423 453.206 301.803 471.818 298.416 477.632C297.534 478.068 296.598 478.385 295.632 478.574C291.982 479.289 267.23 479.427 264.759 477.368C260.684 473.972 262.397 451.842 262.507 445.49Z"
     id="path75" />
  <path
     fill="#B9D6ED"
     d="M267.588 431.697C275.116 431.563 290.347 429.904 297.011 433.713C298.929 434.81 300.003 439.102 298.283 440.956L295.625 441.03C290.701 441.013 267.229 441.302 263.839 440.276C262.308 437.022 264.241 433.123 267.588 431.697Z"
     id="path76" />
  <path
     fill="#294362"
     d="M758.037 425.734C758.806 425.698 759.576 425.671 760.345 425.654C778.224 425.287 772.762 442.731 773.225 454.868C774.422 486.212 772.225 482.921 745.125 482.847C740.64 482.951 734.942 483.415 731.35 480.385C729.367 478.7 727.639 473.253 727.782 470.652C728.352 460.288 725.103 437.194 731.022 428.953C733.747 425.158 752.461 425.823 758.037 425.734Z"
     id="path77" />
  <path
     fill="#B9D6ED"
     d="M732.383 446.456L769.09 446.478C769.153 453.551 771.148 472.226 767.945 476.958C762.103 480.95 749.892 478.352 742.757 479.152C730.001 480.583 732.368 470.673 732.205 461.749C732.113 456.704 732.317 451.518 732.383 446.456Z"
     id="path78" />
  <path
     fill="#B9D6ED"
     d="M736.306 430.555C743.092 430.198 759.804 429.48 766.669 431.461C768.472 431.981 769.815 439.657 768.498 441.833L766.625 441.922L732.67 442.038C732.858 437.434 732.222 433.38 736.306 430.555Z"
     id="path79" />
  <path
     fill="#1E3856"
     d="M710.104 456C714.879 455.886 719.657 455.904 724.431 456.054C724.517 459.089 725.005 468.374 723.993 470.828C710.083 471.302 707.491 472.096 710.104 456Z"
     id="path80" />
  <path
     fill="#9FB6CE"
     d="M710.93 457.201C715.085 457.124 719.241 457.076 723.396 457.057C723.489 460.09 723.45 462.016 723.255 465.031C719.173 465.155 714.964 464.782 710.776 464.819L710.93 457.201Z"
     id="path81" />
  <path
     fill="#9FB6CE"
     d="M710.607 465.642C715.844 466.763 718.428 465.108 722.951 466.471C723.549 466.652 723.754 468.25 723.976 469.088C721.122 470.064 714.778 469.984 711.568 469.033C710.297 467.624 710.701 468.069 710.607 465.642Z"
     id="path82" />
  <defs
     id="defs83">
    <linearGradient
       id="gradient_0"
       gradientUnits="userSpaceOnUse"
       x1="713.27795"
       y1="440.6091"
       x2="720.72742"
       y2="452.17557">
      <stop
         offset="0"
         stop-color="#153151"
         id="stop82" />
      <stop
         offset="1"
         stop-color="#2F4A67"
         id="stop83" />
    </linearGradient>
  </defs>
  <path
     fill="url(#gradient_0)"
     d="M711.178 439.191C711.346 436.846 710.857 437.7 712.271 436.326C715.76 435.305 719.434 434.7 722.855 436.484C723.2 437.996 723.172 437.379 722.664 438.971C722.119 445.131 719.962 446.652 715.371 450.553C718.006 450.659 720.077 450.372 722.01 452.073L721.671 452.787C719.262 453.525 713.813 454.305 711.829 452.442C711.526 449.439 717.928 444.274 720.16 440.673C717.96 440.6 713.233 440.838 711.496 440.152L711.178 439.191Z"
     id="path83" />
  <path
     fill="#7B94B3"
     d="M711.178 439.191C711.346 436.846 710.857 437.7 712.271 436.326C715.76 435.305 719.434 434.7 722.855 436.484C723.2 437.996 723.172 437.379 722.664 438.971C718.638 438.939 715.194 438.984 711.178 439.191Z"
     id="path84" />
  <path
     fill="#1E3856"
     d="M316.206 435.311L317.127 435.679C318.256 438.349 318.307 452.673 316.075 454.484L315.294 454.182L314.84 452.625C314.824 450.606 315.043 442.574 314.354 441.254L311.127 441.35L310.506 440.741C311.046 439.064 314.623 436.588 316.206 435.311Z"
     id="path85" />
  <path
     fill="#B9D6ED"
     d="M210.291 421.723C220.357 421.218 231.829 421.461 241.958 421.606C241.563 446.331 242.223 471.862 242.008 496.703C241.802 520.538 241.446 544.236 242.228 568.042L229.462 567.637C218.137 567.467 206.811 567.538 195.489 567.851L196.064 491.115C196.035 468.487 195.295 444.946 196.319 422.358C200.208 421.896 206.232 421.866 210.291 421.723Z"
     id="path86" />
  <path
     fill="#294362"
     d="M211.925 430.179C217.403 429.98 224.677 430.056 230.061 430.506C231.707 431.654 233.754 433.158 234.315 435.184C235.615 439.889 235.212 477.008 233.291 480.334C232.177 482.265 230.674 482.939 228.625 483.58C223.082 483.665 213.432 484.945 208.479 482.347C206.765 481.447 206.17 479.968 205.701 478.168C204.338 472.937 203.711 436.852 206.188 433.086C207.562 430.996 209.607 430.579 211.925 430.179Z"
     id="path87" />
  <path
     fill="#1E3856"
     d="M230.018 492.691C232.736 492.533 235.078 492.744 237.776 492.925C238.381 496.868 238.914 502.558 238.31 506.531C238.061 508.167 237.402 508.291 236.19 509.12C230.621 506.736 226.982 501.757 227.738 495.198C227.897 493.815 228.969 493.356 230.018 492.691Z"
     id="path88" />
  <path
     fill="#B9D6ED"
     d="M230.183 499.913C232.071 499.944 233.959 499.738 235.499 500.72C236.638 502.324 236.375 504.801 236.417 506.881C232.857 505.749 231.967 503.164 230.183 499.913Z"
     id="path89" />
  <path
     fill="#C3DCF7"
     d="M229.77 495.111C231.688 494.966 232.916 494.83 234.823 494.971C236.465 496.082 235.94 495.545 236.486 498.065C234.252 498.027 232.934 498.111 230.766 497.545C229.492 496.388 229.917 497.119 229.77 495.111Z"
     id="path90" />
  <path
     fill="#1E3856"
     d="M204.105 523.163C204.724 523.435 204.881 523.628 205.43 524.043C206.112 526.052 205.665 527.675 205.38 529.818C204.468 529.495 204.656 529.524 203.845 528.934C203.201 526.987 203.751 525.25 204.105 523.163Z"
     id="path91" />
  <path
     fill="#B9D6ED"
     d="M795.132 421.263C806.764 421.011 822.964 421.202 834.52 422.022C835.074 441.207 834.565 460.637 834.592 479.879C834.917 509.215 834.948 538.553 834.684 567.89L828.625 567.895L788.452 567.933C789.674 552.333 789.137 530.448 789.151 514.433L789.156 421.385L795.132 421.263Z"
     id="path92" />
  <path
     fill="#294362"
     d="M803.934 430.223C809.597 430.077 815.262 430.001 820.927 429.998C823.582 431.901 825.998 433.465 826.193 437.033C826.665 446.905 826.487 456.817 826.522 466.716C826.537 470.941 827.158 478.002 824.401 481.418C823.065 483.073 821.621 483.343 819.625 483.502C814.043 483.58 805.307 484.875 800.186 482.585C798.566 481.861 797.955 480.445 797.423 478.842C795.559 473.221 795.248 437.058 797.605 433.336C799.067 431.028 801.435 430.595 803.934 430.223Z"
     id="path93" />
  <path
     fill="#1E3856"
     d="M793.112 492.953C804.754 492.342 806.651 495.279 800.324 505.9C798.503 507.834 796.487 509.776 793.961 507.938C792.112 504.051 792.931 497.461 793.112 492.953Z"
     id="path94" />
  <path
     fill="#B9D6ED"
     d="M795.074 500.188L801.354 499.975L798.47 504.831C797.257 505.925 796.962 506.388 795.485 506.135C794.673 504.578 795.012 502.051 795.074 500.188Z"
     id="path95" />
  <path
     fill="#C3DCF7"
     d="M794.757 494.947C796.738 494.851 798.106 494.715 800.065 494.959C801.586 496.069 801.111 495.511 801.515 497.923C799.281 497.873 798.276 498.225 795.987 497.777C794.687 496.674 795.098 497.096 794.757 494.947Z"
     id="path96" />
  <path
     fill="#1E3856"
     d="M824.999 523.109C825.904 523.49 825.605 523.346 826.357 524.04C826.968 526.234 826.591 527.716 826.314 529.985C823.527 528.285 824.418 525.878 824.999 523.109Z"
     id="path97" />
  <path
     fill="#B9D6ED"
     d="M519.012 556.006L585.763 555.058C585.838 562.51 586.07 569.96 586.461 577.403C571.023 577.682 555.584 577.883 540.144 578.007C535.792 578.047 522.898 578.457 519.507 577.84C518.754 576.965 518.987 577.403 518.677 576.603C519.22 572.949 519 569.485 518.913 565.794L519.012 556.006Z"
     id="path98" />
  <path
     fill="#1E3856"
     d="M550.27 557.732C553.999 557.712 557.857 557.819 561.597 557.875L561.808 565.585L547.375 565.6L535.489 565.693L535.473 558.206L550.27 557.732Z"
     id="path99" />
  <path
     fill="#B9D6ED"
     d="M557.519 559.732C559.237 559.782 558.521 559.471 559.848 560.311C560.138 562.321 560.343 561.451 559.488 563.058C555.984 564.964 544.133 564.108 539.375 564.046C538.675 564.062 538.265 563.93 537.565 563.8C536.581 562.302 536.44 561.512 537.617 560.24C542.138 559.607 552.207 559.838 557.519 559.732Z"
     id="path100" />
  <path
     fill="#9FB6CE"
     d="M168.95 422.312C172.486 422.429 189.829 422.696 192.11 421.632C192.519 424.725 192.142 427.117 192.3 430.077C192.841 440.174 191.968 450.047 191.507 460.116C190.675 478.293 192.398 497.74 191.41 515.779C190.544 512.224 190.861 494.625 190.883 489.829C188.834 488.462 174.11 489.031 170.333 489.056C170.731 465.685 168.861 445.083 168.95 422.312Z"
     id="path101" />
  <path
     fill="#B9D6ED"
     d="M454.47 555.508C470.813 555.364 487.201 556.26 503.558 556.033C507.678 555.976 512.452 555.879 516.534 556.206L517.188 557.074L518.087 556.912C518.453 559.768 518.218 563.509 518.913 565.794C519 569.485 519.22 572.949 518.677 576.603C518.379 576.937 517.761 577.578 517.554 577.926C514.696 578.608 501.49 578.368 497.509 578.381C483.018 578.481 468.527 578.496 454.036 578.425C454.336 570.572 454.537 563.358 454.47 555.508Z"
     id="path102" />
  <path
     fill="#1E3856"
     d="M517.188 557.074L518.087 556.912C518.453 559.768 518.218 563.509 518.913 565.794C519 569.485 519.22 572.949 518.677 576.603C518.379 576.937 517.761 577.578 517.554 577.926C517.132 571.959 516.984 563.008 517.188 557.074Z"
     id="path103" />
  <path
     fill="#B9D6ED"
     d="M190.883 489.829C190.861 494.625 190.544 512.224 191.41 515.779C191.688 523.223 191.469 532.043 191.476 539.596C184.488 539.476 177.5 539.434 170.512 539.47C168.727 525.081 169.495 505.547 170.118 490.957C174.807 490.621 187.372 491.178 190.883 489.829Z"
     id="path104" />
  <path
     fill="#1E3856"
     d="M177.98 513.567C179.448 513.581 181.622 513.749 182.051 515.591C183.32 521.041 183.128 527.894 181.911 533.343C181.759 534.023 180.651 534.156 179.991 534.384C179.002 534.315 175.629 534.244 175.306 533.237C173.623 527.973 174.011 520.972 174.998 515.559C175.27 514.067 176.81 513.929 177.98 513.567Z"
     id="path105" />
  <path
     fill="#C3DCF7"
     d="M176.562 520.926C177.465 520.941 179.327 520.866 179.861 521.502C181.428 523.369 180.572 529.902 180.468 532.596C179.539 532.587 177.695 532.682 177.142 532.02C175.564 530.126 176.445 523.647 176.562 520.926Z"
     id="path106" />
  <path
     fill="#B9D6ED"
     d="M177.098 515.864C177.613 515.315 178.385 515.088 179.114 515.272C179.844 515.455 180.417 516.02 180.611 516.747C180.805 517.474 180.589 518.249 180.047 518.771C179.238 519.551 177.956 519.544 177.156 518.755C176.356 517.967 176.33 516.684 177.098 515.864Z"
     id="path107" />
  <path
     fill="#9FB6CE"
     d="M839.013 421.249C844.043 421.63 850.74 421.946 855.607 422.68C856.154 434.708 855.137 446.774 854.796 458.78C854.518 468.609 854.509 478.633 854.427 488.481L839.499 488.105C839.503 465.747 838.951 443.555 839.013 421.249Z"
     id="path108" />
  <path
     fill="#B9D6ED"
     d="M158.709 415.155C161.106 416.139 163.085 416.851 165.521 417.678C165.237 435.892 166.538 453.618 166.926 471.797C167.287 488.679 165.602 505.608 166.137 522.47C166.246 525.914 166.983 531.098 166.315 534.339C163.38 534.394 161.089 534.158 158.191 533.893C157.281 526.882 157.518 517.857 157.53 510.662L157.582 478.026C157.577 466.433 156.332 423.803 158.709 415.155Z"
     id="path109" />
  <path
     fill="#B9D6ED"
     d="M859.498 415.937C862.584 416.415 864.81 416.952 867.831 417.699C867.402 425.221 867.62 432.747 867.294 440.243C865.969 470.773 866.847 501.354 866.467 531.904C866.452 533.056 866.242 533.473 865.716 534.43C862.972 534.997 860.535 534.948 857.753 534.996C856.873 518.964 857.861 499.316 858.263 483.249L859.498 415.937Z"
     id="path110" />
  <path
     fill="#B9D6ED"
     d="M839.461 490.299L854.188 490.366C853.835 497.966 853.717 505.574 853.835 513.181C853.974 520.703 854.549 532.213 853.552 539.311C851.321 539.637 841.819 539.434 839.055 539.43C839.076 523.052 839.212 506.675 839.461 490.299Z"
     id="path111" />
  <path
     fill="#1E3856"
     d="M842.746 520.031C845.299 519.961 847.914 520.111 850.472 520.209C850.656 524.326 850.691 526.775 850.406 530.865C848.027 530.985 845.907 531.463 843.945 530.323C841.584 527.667 842.532 523.873 842.746 520.031Z"
     id="path112" />
  <path
     fill="#C3DCF7"
     d="M844.523 521.954C846.189 521.917 847.242 521.669 848.541 522.638C849.53 524.344 849.029 526.888 848.87 528.977C847.225 529.049 846.255 529.303 844.936 528.372C843.967 526.639 844.406 524.053 844.523 521.954Z"
     id="path113" />
  <path
     fill="#B9D6ED"
     d="M366.007 564.767C365.329 562.993 365.147 562.698 363.881 561.281L363.827 560.613C376.128 559.667 389.384 560.736 401.78 560.563C409.457 560.456 417.39 560.857 425.057 561.2C426.394 561.287 426.543 561.648 427.494 562.445C427.928 564.076 428.074 564.197 427.826 565.903C424.561 568.795 389.82 566.056 383.533 568.091C380.927 568.934 378.133 572.112 376.203 574.148L366.499 574.299C366.446 572.507 366.094 569.679 366.944 568.28C370.039 567.607 370.038 568.615 371.629 567.063C371.88 565.135 372.037 566.012 371.239 564.322C369.947 563.766 370.582 563.779 369.274 564.273L368.596 566.077C367.35 566.372 367.801 566.353 366.516 566.233L366.007 564.767Z"
     id="path114" />
  <path
     fill="#B9D6ED"
     d="M655.406 574.045C654.086 572.734 650.039 568.788 648.507 568.338C637.835 565.203 613.989 569.062 604.054 566.087L603.576 564.888C603.724 563.196 603.604 563.037 604.583 561.616C607.726 560.442 663.913 559.854 666.922 560.949C667.057 562.645 666.952 562.704 667.912 564.175C669.179 564.997 670.435 564.734 672.012 564.68L672.79 564.649C670.59 565.178 665.549 565.593 663.448 564.874L662.812 563.807C661.043 563.648 661.793 563.421 660.33 564.055C659.692 565.564 659.712 565.448 660.036 567.058C661.636 568.234 662.856 567.57 664.848 568.669C665.538 570.4 665.482 572.484 664.299 573.934C661.977 574.779 658.146 574.186 655.406 574.045Z"
     id="path115" />
  <path
     fill="#B9D6ED"
     d="M310.825 560.257C313.746 560.202 323.656 559.448 325.057 561.35C324.15 562.07 323.993 562.165 323.264 563.05L323.717 563.955C328.21 566.134 336.678 563.944 340.549 564.91L340.884 565.505C338.296 567.148 324.73 567.406 320.919 567.56L320.916 575.301C318.978 575.387 316.781 575.248 314.824 575.175C312.594 572.506 310.28 569.504 307.284 567.769C297.729 566.427 277.735 566.962 267.182 566.967C268.445 565.155 271.076 561.096 273.428 560.931C285.594 560.081 298.597 560.385 310.825 560.257Z"
     id="path116" />
  <path
     fill="#B9D6ED"
     d="M713.512 560.238C727.607 559.88 743.784 560.431 758.121 560.48C761.243 562.955 762.019 563.964 764.431 567.022C753.457 566.974 742.163 566.782 731.22 567.167C728.337 567.333 726.321 567.549 723.489 567.94C719.819 570.9 719.578 573.365 714.376 575.397C709.993 575.042 710.901 570.771 710.941 567.348C707.405 567.229 693.953 566.954 691.301 566.175L690.946 565.443C694.154 563.501 704.979 566.025 708.501 564.066C708.954 562.616 707.148 562.855 707.376 560.929C709.069 559.982 711.484 560.243 713.512 560.238Z"
     id="path117" />
  <path
     fill="#9FB6CE"
     d="M615.033 570.225C615.622 570.232 616.211 570.247 616.799 570.271C617.254 570.294 619.601 570.557 619.712 570.672C622.584 573.651 618.558 582.429 622.637 585.668C627.493 589.525 633.752 585.752 638.794 584.675C641.19 584.164 643.403 583.905 645.622 583.652C644.203 586.581 643.427 587.93 641.658 590.642C626.906 604.871 606.329 588.974 615.033 570.225Z"
     id="path118" />
  <path
     fill="#9FB6CE"
     d="M411.051 570.562C411.946 570.498 414.635 570.221 415.133 570.608C423.638 577.219 416.095 593.441 406.774 595.329C401.094 596.481 397.77 595.489 393.355 593.083C389.659 590.447 388.394 587.699 387.001 583.545C402.81 585.3 410.973 596.526 411.051 570.562Z"
     id="path119" />
  <path
     fill="#B9D6ED"
     d="M170.392 541.675C174.383 541.041 186.746 541.465 191.472 541.546C191.543 550.832 192.283 558.941 192.505 567.963L183.091 567.991C183.127 563.097 182.811 548.492 177.828 545.415C175.36 543.89 172.936 544.811 170.392 541.675Z"
     id="path120" />
  <path
     fill="#B9D6ED"
     d="M437.612 555.743L452.484 555.764C452.48 559.445 452.407 575.858 451.213 578.222L450.124 578.455L443.915 578.575C441.288 571.787 436.732 562.983 434.721 556.595C435.583 555.59 435.805 555.918 437.612 555.743Z"
     id="path121" />
  <path
     fill="#1E3856"
     d="M444.864 557.74C446.513 557.472 448.179 558.12 449.214 559.432C450.249 560.744 450.492 562.515 449.846 564.057C449.201 565.599 447.771 566.67 446.109 566.854C443.629 567.129 441.382 565.377 441.044 562.905C440.706 560.432 442.4 558.141 444.864 557.74Z"
     id="path122" />
  <path
     fill="#B9D6ED"
     d="M444.8 559.834C445.684 559.546 446.655 559.772 447.322 560.421C447.989 561.069 448.241 562.034 447.977 562.926C447.713 563.818 446.976 564.49 446.064 564.671C444.764 564.93 443.488 564.131 443.153 562.849C442.818 561.566 443.54 560.245 444.8 559.834Z"
     id="path123" />
  <path
     fill="#9FB6CE"
     d="M275.92 569.923L278.117 570.112C283.641 574.389 266.275 598.23 305.342 583.705C303.795 586.381 303.199 587.246 301.293 589.69C299.067 591.795 296.94 593.42 293.959 594.345C289.729 595.669 285.143 595.221 281.248 593.106C277.466 591.056 274.721 587.511 273.684 583.337C272.414 578.376 273.391 574.21 275.92 569.923Z"
     id="path124" />
  <path
     fill="#9FB6CE"
     d="M751.957 570.344C755.118 570.216 757.191 570.811 757.754 574.29C760.466 591.062 746.861 600.057 732.679 591.857C729.819 589.357 728.937 587.567 727.226 584.321C731.861 586.355 739.649 589.044 744.767 588.602C754.211 587.787 752.454 576.949 751.957 570.344Z"
     id="path125" />
  <path
     fill="#B9D6ED"
     d="M758.632 570.112C760.344 570.067 760.964 569.869 762.326 570.882C763.94 573.524 764.306 581.036 763.508 583.91C757.814 604.422 734.381 606.001 723.424 589.007C722.658 587.341 721.767 585.801 721.695 583.991L722.321 583.518C727.016 584.286 725.494 590.758 733.729 595.443C737.935 597.849 742.953 598.393 747.576 596.942C760.203 592.943 762.206 581.366 758.632 570.112Z"
     id="path126" />
  <path
     fill="#9FB6CE"
     d="M269.269 569.86L271.861 570.146C272.992 571.248 271.567 574.961 271.28 576.819C268.654 593.79 289.731 604.854 301.955 592.549C304.711 589.775 306.222 584.312 309.736 583.331L310.208 583.894L310.061 585.508C307.41 591.106 304.987 595.192 299.15 598.191C293.891 600.867 287.775 601.307 282.187 599.412C268.844 594.838 265.204 582.431 269.269 569.86Z"
     id="path127" />
  <path
     fill="#B9D6ED"
     d="M665.315 585.935C678.995 586.506 691.835 586.176 705.431 586.202C706.266 587.439 706.033 588.585 706.156 590.339C704.517 590.695 696.366 590.49 694.312 590.478L666.048 590.291C665.139 589.041 665.422 587.805 665.315 585.935Z"
     id="path128" />
  <path
     fill="#B9D6ED"
     d="M325.726 586.145C338.763 586.64 352.958 586.221 366.083 586.24C366.675 587.889 366.38 588.626 366.245 590.489C357.398 590.266 348.411 590.497 339.567 590.465C336.703 590.455 328.451 590.902 326.107 590.495C325.321 589.296 325.65 587.689 325.726 586.145Z"
     id="path129" />
  <path
     fill="#B9D6ED"
     d="M839.035 541.523C844.281 541.444 849.527 541.489 854.771 541.658C844.674 547.28 843.507 546.459 843.416 559.147C843.495 561.341 843.992 565.957 842.74 567.508C840.956 567.537 840.016 567.671 838.298 567.118C837.854 564.419 838.871 545.862 839.035 541.523Z"
     id="path130" />
  <path
     fill="#B9D6ED"
     d="M419.135 569.901C420.556 569.894 421.952 570.111 422.431 571.699C425.704 582.561 422.066 593.479 411.43 598.467C406.083 600.97 399.959 601.242 394.411 599.223C388.12 596.886 385.102 592.864 382.363 587.111C381.801 585.759 381.681 585.119 381.335 583.709L382.178 583.012C387.312 585.583 388.649 602.055 406.51 597.887C411.472 596.739 415.768 593.653 418.439 589.317C422.82 582.197 420.899 577.13 419.135 569.901Z"
     id="path131" />
  <path
     fill="#B9D6ED"
     d="M609.489 569.604C610.598 569.733 612.513 569.643 612.003 571.021C602.887 595.639 636.008 610.658 646.66 586.597C647.404 584.917 647.102 583.547 649.007 583.021L649.877 583.687C647.907 595.838 636.213 603.066 624.432 600.104C618.735 598.625 613.864 594.933 610.898 589.849C606.768 582.76 607.563 576.951 609.489 569.604Z"
     id="path132" />
  <path
     fill="#C3DCF7"
     d="M197.341 581.518C210.509 581.734 229.845 580.892 242.628 582.174L243.188 582.995L242.693 584.858C236.381 585.603 204.24 585.309 198.026 584.442C197.035 583.393 197.381 583.435 197.341 581.518Z"
     id="path133" />
  <path
     fill="#B9D6ED"
     d="M751.78 366.712C754.669 366.429 758.909 366.559 761.91 366.57C762.971 368.186 764.148 369.846 765.245 371.45C758.272 371.748 752.335 371.918 745.375 371.741C742.999 371.69 732.089 371.522 730.542 370.428L730.8 369.484C734.749 365.66 745.201 367.191 751.78 366.712Z"
     id="path134" />
  <path
     fill="#C3DCF7"
     d="M482.536 582.173C491.194 582.146 544.518 581.334 549.362 582.781L548.906 583.33C537.682 585.679 497.722 583.812 483.95 584.224C483.368 584.241 482.913 582.911 482.536 582.173Z"
     id="path135" />
  <path
     fill="#C3DCF7"
     d="M829.479 581.74C831.94 581.641 832.271 581.259 833.93 583.091L833.841 583.947C831.055 585.378 797.536 585.027 791.875 585C789.497 584.987 788.519 585.349 787.381 583.114L787.963 582.454C792.601 581.216 823.006 581.824 829.479 581.74Z"
     id="path136" />
  <path
     fill="#B9D6ED"
     d="M163.633 548.104C167.779 548.431 172.286 548.578 176.457 548.757C177.71 551.71 178.266 554.85 178.69 558.002L163.563 557.988C163.486 554.787 163.591 551.326 163.633 548.104Z"
     id="path137" />
  <path
     fill="#C3DCF7"
     d="M266.666 366.973C275.081 366.971 285.353 366.623 293.68 367.579C295.321 367.767 295.915 368.769 296.764 370.034L296.521 370.845L295.125 371.066C284.384 371.162 273.643 371.126 262.903 370.96L266.666 366.973Z"
     id="path138" />
  <path
     fill="#C3DCF7"
     d="M780.925 494.615C781.073 492.519 780.746 491.36 781.936 490.127L784.487 490.101C784.543 496.912 785.144 517.102 784.392 522.999C782.885 523.722 783.711 523.489 781.693 523.199C781.482 522.886 781.27 522.574 781.059 522.262C781.261 514.518 780.609 501.859 780.925 494.615Z"
     id="path139" />
  <path
     fill="#B9D6ED"
     d="M849.778 548.72L860.351 548.395C860.5 550.839 861.234 556.298 859.722 558.015L858.126 558.086L846.82 557.845C847.308 554.281 847.19 550.923 849.778 548.72Z"
     id="path140" />
  <path
     fill="#B9D6ED"
     d="M587.734 555.158C591.317 555.021 595.427 555.111 599.054 555.108C597.232 559.139 594.986 563.376 592.976 567.348L588.695 574.157C588.568 567.696 588.165 561.605 587.734 555.158Z"
     id="path141" />
  <path
     fill="#C3DCF7"
     d="M179.276 562.847C180.274 566.522 173.104 577.988 182.135 579.525C186.215 580.22 186.943 574.177 189.946 571.942C190.44 573.618 190.092 574.262 189.813 576.117C188.765 578.808 186.752 583.199 183.569 582.727C171.925 581.001 172.929 569.229 179.276 562.847Z"
     id="path142" />
  <path
     fill="#B9D6ED"
     d="M333.61 556.722C339.213 556.784 357.025 556.409 361.454 557.171L361.771 557.837L360.874 559.26C354 560.046 346.879 559.728 339.952 560.039C337.483 560.15 335.469 560.272 333.625 558.491L333.61 556.722Z"
     id="path143" />
  <defs
     id="defs144">
    <linearGradient
       id="gradient_1"
       gradientUnits="userSpaceOnUse"
       x1="735.14142"
       y1="582.32355"
       x2="721.92352"
       y2="571.73175">
      <stop
         offset="0"
         stop-color="#9EBBD4"
         id="stop143" />
      <stop
         offset="1"
         stop-color="#C1D2F4"
         id="stop144" />
    </linearGradient>
  </defs>
  <path
     fill="url(#gradient_1)"
     d="M738.065 585.192C734.453 583.662 731.066 582.146 727.192 581.435C723.386 580.737 719.65 580.697 715.971 579.555L715.737 578.655C718.237 576.053 723.926 579.798 728.792 578.921C735.909 577.64 732.46 573.647 738.91 572.188L738.999 573.75C733.968 577.174 735.515 580.778 738.065 585.192Z"
     id="path144" />
  <path
     fill="#C3DCF7"
     d="M203.016 571.73C207.651 571.734 236.546 571.394 238.415 572.778L238.343 574.48C232.058 574.526 225.283 574.168 218.921 574.074C215.048 574.017 206.101 574.315 203.004 573.751L202.552 572.994L203.016 571.73Z"
     id="path145" />
  <defs
     id="defs146">
    <linearGradient
       id="gradient_2"
       gradientUnits="userSpaceOnUse"
       x1="296.00116"
       y1="582.50153"
       x2="309.99142"
       y2="571.79913">
      <stop
         offset="0"
         stop-color="#A2BDDA"
         id="stop145" />
      <stop
         offset="1"
         stop-color="#C6DFF4"
         id="stop146" />
    </linearGradient>
  </defs>
  <path
     fill="url(#gradient_2)"
     d="M293.593 572.549C296.893 573.341 297.651 578.324 301.543 578.845C305.227 579.338 313.082 576.806 316.329 578.425L316.534 579.177C315.349 580.174 312.359 580.5 311.015 580.294C305.75 579.484 298.98 583.529 294.84 583.742C295.581 579.47 296.527 577.065 293.115 573.742L293.593 572.549Z"
     id="path146" />
  <path
     fill="#B9D6ED"
     d="M633.085 572.757C635.866 573.701 637.245 575.316 639.41 577.294C644.124 577.748 654.931 577.084 657.341 577.837C658.011 579.123 657.881 578.426 657.376 580.033C648.935 579.997 644.745 580.796 636.449 581.614C635.722 578.55 635.116 575.018 633.085 572.757Z"
     id="path147" />
  <path
     fill="#B9D6ED"
     d="M397.389 573.05L397.441 573.079C397.467 573.207 396.176 580.543 396.038 581.577C389.13 580.474 383.345 579.903 376.375 580.098L375.242 580.092C374.148 579.183 374.541 579.73 374.227 578.308C375.702 576.911 387.932 577.695 391.415 577.568C393.742 575.515 394.65 574.684 397.389 573.05Z"
     id="path148" />
  <path
     fill="#C3DCF7"
     d="M159.051 541.74L159.843 542.181C161.448 544.358 160.492 560.414 160.62 563.911C160.2 564.337 159.779 564.763 159.358 565.189C155.651 561.7 155.856 545.827 159.051 541.74Z"
     id="path149" />
  <path
     fill="#B9D6ED"
     d="M667.571 568.552L680.775 568.578L680.725 574.096C676.515 574.525 671.826 574.456 667.558 574.493L667.571 568.552Z"
     id="path150" />
  <path
     fill="#C3DCF7"
     d="M792.6 572.218C796.243 571.869 825.582 571.526 827.779 572.318L828.498 574.381C824.652 574.664 818.123 574.054 813.931 574.101C807.922 574.168 801.461 574.077 795.444 573.888C793.67 573.833 793.458 573.293 792.6 572.218Z"
     id="path151" />
  <path
     fill="#C3DCF7"
     d="M863.708 541.168C864.244 541.417 865.097 541.945 865.635 542.255C867.995 546.368 867.039 559.471 866.027 564.232L864.252 564.387L863.564 563.677C863.276 560.051 863.167 544.587 863.708 541.168Z"
     id="path152" />
  <path
     fill="#B9D6ED"
     d="M350.857 568.679C355.435 568.862 359.992 567.663 363.257 569.423C364.296 571.265 363.905 572.021 363.865 574.362C359.304 574.339 355.107 575.471 351.492 573.339C350.381 571.371 350.806 571.342 350.857 568.679Z"
     id="path153" />
  <path
     fill="#9FB6CE"
     d="M690.549 568.411C695.194 568.92 699.533 568.138 703.126 570.009C704.443 571.839 703.959 571.839 703.95 574.664C699.169 574.434 695.017 575.446 691.28 573.34C690.095 571.436 690.518 570.928 690.549 568.411Z"
     id="path154" />
  <path
     fill="#B9D6ED"
     d="M741.251 574.769C743.724 574.052 746.32 575.424 747.121 577.872C747.921 580.319 746.637 582.961 744.218 583.843C742.579 584.442 740.744 584.098 739.432 582.948C738.12 581.797 737.54 580.023 737.918 578.32C738.297 576.616 739.575 575.255 741.251 574.769Z"
     id="path155" />
  <path
     fill="#B9D6ED"
     d="M332.309 569.187C335.612 568.945 339.572 568.061 341.903 570.921C342.351 573.836 340.042 573.888 337.877 574.127C334.344 574.518 330.503 575.813 327.87 573.383C327.408 571.758 327.264 571.788 327.725 570.208C329.341 568.985 329.855 569.376 332.309 569.187Z"
     id="path156" />
  <path
     fill="#B9D6ED"
     d="M288.227 574.689C290.746 574.16 293.223 575.752 293.787 578.263C294.352 580.773 292.796 583.272 290.293 583.873C288.642 584.269 286.906 583.746 285.749 582.503C284.592 581.26 284.194 579.491 284.708 577.872C285.221 576.254 286.566 575.038 288.227 574.689Z"
     id="path157" />
  <path
     fill="#9FB6CE"
     d="M627.618 574.706C630.057 573.821 632.751 575.088 633.625 577.531C634.5 579.974 633.221 582.662 630.774 583.526C628.342 584.383 625.675 583.115 624.806 580.687C623.937 578.259 625.194 575.586 627.618 574.706Z"
     id="path158" />
  <path
     fill="#C3DCF7"
     d="M158.494 412.072C157.815 411.898 156.724 411.862 156.49 411.218C154.415 405.494 161.155 394.209 168.02 396.765C168.478 398.621 168.399 397.656 167.77 399.808C165.442 401.421 161.886 401.186 160.488 404.355C159.57 406.437 159.296 409.503 159.349 411.746L158.494 412.072Z"
     id="path159" />
  <path
     fill="#B9D6ED"
     d="M401.24 574.635C403.646 573.889 406.21 575.192 407.026 577.576C407.842 579.96 406.614 582.56 404.255 583.445C402.666 584.041 400.88 583.726 399.591 582.623C398.301 581.521 397.714 579.804 398.057 578.142C398.4 576.481 399.619 575.137 401.24 574.635Z"
     id="path160" />
  <path
     fill="#B9D6ED"
     d="M670.327 557.194C675.531 556.867 693.085 556.723 697.569 557.2C698.426 558.385 698.121 558.114 697.853 560.054C690.816 560.376 680.375 558.867 672.965 558.909C671.634 558.917 671.019 558.181 670.327 557.194Z"
     id="path161" />
  <path
     fill="#B9D6ED"
     d="M863.87 412.792C867.312 410.177 864.041 403.638 861.855 401.047C860.464 399.4 857.848 400.825 856.231 398.238L856.42 397.268C863.86 394.369 870.543 407.042 867.888 412.891C866.724 413.747 866.195 413.602 864.722 413.69L863.87 412.792Z"
     id="path162" />
  <path
     fill="#1E3856"
     d="M353.334 581.431C351.991 581.277 351.905 581.259 350.628 580.815L350.864 580.343C353.456 579.728 361.331 578.939 363.944 579.465C363.811 580.973 363.678 580.726 364.001 582.114C362.554 583.87 361.856 583.446 359.306 583.784C357.299 584.051 351.995 584.443 350.339 583.478L350.261 582.537C351.466 581.595 351.722 581.758 353.334 581.431Z"
     id="path163" />
  <path
     fill="#B9D6ED"
     d="M350.261 582.537C355.372 583.029 359.205 581.487 364.001 582.114C362.554 583.87 361.856 583.446 359.306 583.784C357.299 584.051 351.995 584.443 350.339 583.478L350.261 582.537Z"
     id="path164" />
  <path
     fill="#B9D6ED"
     d="M353.334 581.431C351.991 581.277 351.905 581.259 350.628 580.815L350.864 580.343C353.456 579.728 361.331 578.939 363.944 579.465C361.191 580.757 356.563 581.007 353.334 581.431Z"
     id="path165" />
  <path
     fill="#B9D6ED"
     d="M298.388 570.096C301.651 569.999 310.809 570.044 308.883 575.627C304.585 576.185 297.179 576.862 298.388 570.096Z"
     id="path166" />
  <path
     fill="#9FB6CE"
     d="M726.825 570.1C728.911 569.981 731.14 569.677 732.874 570.714C734.583 573.391 731.581 574.819 729.42 576.128C728.611 576.105 727.803 576.073 726.995 576.033C724.765 575.917 724.012 575.938 722.593 574.346L722.848 573.207C724.269 571.557 724.934 571.282 726.825 570.1Z"
     id="path167" />
  <path
     fill="#B9D6ED"
     d="M685.447 562.707L686.807 563.232C688.258 565.601 687.976 576.04 686.222 578.414L684.574 577.683C683.105 574.907 683.052 565.052 685.447 562.707Z"
     id="path168" />
  <path
     fill="#B9D6ED"
     d="M638.196 570.162C643.202 569.792 646.022 569.394 650.062 573.078C650.419 574.422 650.541 573.812 649.869 574.974C646.075 575.048 639.046 575.594 637.564 571.235L638.196 570.162Z"
     id="path169" />
  <path
     fill="#9FB6CE"
     d="M343.928 563.413C345.469 563.396 345.614 563.254 346.977 563.878C348.323 566.366 347.627 574.693 347.725 578.365C346.789 578.153 346.287 577.979 345.377 577.682C343.822 575.582 344.076 566.651 343.928 563.413Z"
     id="path170" />
  <path
     fill="#9FB6CE"
     d="M387.325 569.653C389.322 569.644 392.18 569.988 394.235 570.172L393.949 570.602L393.462 571.309C391.503 574.202 391.377 574.78 387.763 574.89C385.477 574.9 382.983 574.696 380.685 574.558C382.969 571.98 384.059 570.711 387.325 569.653Z"
     id="path171" />
  <path
     fill="#B9D6ED"
     d="M342.523 582.736L342.193 583.47C339.701 584.767 331.374 584.337 329.225 582.316C330.525 579.913 338.9 579.278 341.154 580.214L340.526 581.096L342.523 582.736Z"
     id="path172" />
  <path
     fill="#364D64"
     d="M342.523 582.736C339.846 582.231 333.837 582.939 331.709 582.054C334.554 581.3 337.578 581.259 340.526 581.096L342.523 582.736Z"
     id="path173" />
  <path
     fill="#FEFEFE"
     d="M837.252 571.127C840.756 572.189 838.844 575.644 840.788 578.373C842.489 580.762 844.578 579.861 846.874 581.04L846.477 582.269C837.852 584.594 837.326 577.509 837.252 571.127Z"
     id="path174" />
  <path
     fill="#9FB6CE"
     d="M323.33 569.615C326.324 571.154 325.575 581.648 325.241 584.766L323.565 583.977C322.139 581.412 322.915 572.679 323.33 569.615Z"
     id="path175" />
  <path
     fill="#9FB6CE"
     d="M706.978 569.563L707.979 569.955C709.172 572.01 708.902 581.659 708.667 584.386L707.206 583.973C705.626 581.916 706.745 572.406 706.978 569.563Z"
     id="path176" />
  <path
     fill="#9FB6CE"
     d="M677.386 580.162C678.867 579.878 679.526 579.92 681.001 579.926L681.364 580.462C680.056 581.283 676.1 581.59 673.976 582.173L674.32 582.718L673.923 582.291C676.695 583.413 677.95 581.559 681.171 582.335L681.305 583.407C677.36 583.664 673.04 583.865 669.221 582.683L669.175 582.089C671.698 580.876 674.579 580.619 677.386 580.162Z"
     id="path177" />
  <path
     fill="#B9D6ED"
     d="M701.009 581.221C702.789 580.999 702.187 580.712 703.202 581.498L702.666 582.291C698.383 584.138 696.459 583.819 691.875 583.585C690.585 583.543 690.819 583.547 689.557 583.243L689.897 582.675C693.231 581.868 697.524 581.568 701.009 581.221Z"
     id="path178" />
  <path
     fill="#C3DCF7"
     d="M672.79 564.649C675.474 564.557 677.732 564.288 680.31 564.986C678.231 566.655 665.706 566.761 663.438 565.877L663.448 564.874C665.549 565.593 670.59 565.178 672.79 564.649Z"
     id="path179" />
  <path
     fill="#B9D6ED"
     d="M693.077 577.571C695.589 577.454 701.219 577.031 703.261 578.362C702.269 579.219 701.774 578.939 700.124 579.054C696.782 579.067 693.2 579.867 690.118 579.456C690.575 578.326 691.568 578.261 693.077 577.571Z"
     id="path180" />
  <path
     fill="#FEFEFE"
     d="M847.011 564.345C849.375 567.353 849.146 573.496 847.631 576.909C847.107 576.74 847.46 576.889 846.715 576.212C846.35 572.94 846.635 567.634 847.011 564.345Z"
     id="path181" />
  <path
     fill="#C3DCF7"
     d="M366.007 564.767L366.516 566.233C361.509 565.942 356.846 566.642 351.489 566.074L351.039 565.498C352.034 564.686 363.799 564.834 366.007 564.767Z"
     id="path182" />
  <path
     fill="#B9D6ED"
     d="M676.341 576.706C677.781 576.557 678.926 576.239 680.164 576.88L679.811 577.483C677.263 578.727 675.687 578.557 672.899 578.604C670.58 578.892 670.379 578.897 668.084 578.571L668.079 578.196C671.068 576.938 673.114 576.956 676.341 576.706Z"
     id="path183" />
  <path
     fill="#9FB6CE"
     d="M293.115 573.742C292.561 573.611 292.003 573.493 291.443 573.389C285.947 572.397 286.468 574.245 282.242 576.216L281.907 575.424C281.997 573.885 281.875 573.23 282.807 572.011C285.752 571.665 290.473 572.266 293.593 572.549L293.115 573.742Z"
     id="path184" />
  <path
     fill="#B9D6ED"
     d="M333.5 577.289C335.373 577.079 339.364 576.439 340.717 577.766C339.19 578.667 337.213 578.565 335.38 578.664C333.194 578.928 330.067 579.536 328.26 578.313C329.784 577.304 331.626 577.409 333.5 577.289Z"
     id="path185" />
  <path
     fill="#FEFEFE"
     d="M246.666 490.067L249.017 490.025C249.192 492.346 249.632 494.341 248.69 496.376L247.879 497.048C245.65 495.74 246.422 492.427 246.666 490.067Z"
     id="path186" />
  <path
     fill="#C3DCF7"
     d="M788.025 571.579C789.18 571.8 788.983 571.762 790.067 572.197C790.995 574.213 790.586 577.604 790.506 580C789.782 579.84 789.261 579.631 788.56 579.39C787.446 577.409 787.913 573.982 788.025 571.579Z"
     id="path187" />
  <path
     fill="#9FB6CE"
     d="M738.91 572.188L739.812 572.243C743.278 572.423 745.18 571.55 748.61 572.477C749.434 573.493 749.065 573.017 748.926 574.989L748.216 575.38C743.644 573.523 743.996 572.763 738.999 573.75L738.91 572.188Z"
     id="path188" />
  <path
     fill="#C3DCF7"
     d="M198.384 571.428C199.587 571.611 199.538 571.536 200.397 572.38C201.105 575.062 200.63 577.207 200.319 579.987L198.739 579.491C197.55 577.851 198.201 573.57 198.384 571.428Z"
     id="path189" />
  <path
     fill="#FEFEFE"
     d="M240.674 571.593C241.756 571.853 241.688 571.811 242.498 572.572C243.189 575.085 242.679 577.495 242.391 580.136L240.882 579.424C239.532 577.533 240.342 573.867 240.674 571.593Z"
     id="path190" />
  <path
     fill="#FEFEFE"
     d="M831.063 571.323L832.29 572.109C832.934 574.619 832.732 577.165 832.703 579.783C831.458 579.505 831.82 579.691 830.871 578.964C830.027 576.195 830.262 574.097 831.063 571.323Z"
     id="path191" />
  <path
     fill="#B9D6ED"
     d="M354.89 576.716C357.707 576.589 360.343 576.393 363.064 577.165C362.241 578.179 362.614 577.719 360.625 577.97C358.401 578.068 353.185 578.375 351.32 577.469C352.418 576.732 353.535 576.817 354.89 576.716Z"
     id="path192" />
  <path
     fill="#B9D6ED"
     d="M158.494 412.072L159.349 411.746C161.951 412.401 163.879 412.404 164.986 415.02L164.35 415.539C162.266 415.406 162.354 415.424 160.438 414.585C159.76 413.356 159.562 412.972 158.494 412.072Z"
     id="path193" />
  <path
     fill="#B9D6ED"
     d="M663.364 576.619C664.405 576.835 664.113 576.759 665.071 577.24C665.857 579.525 665.498 581.617 665.357 584.073C664.265 583.735 664.322 583.775 663.426 583.069C662.674 580.982 663.139 578.895 663.364 576.619Z"
     id="path194" />
  <path
     fill="#C3DCF7"
     d="M366.586 576.634C367.004 576.792 367.675 577.186 368.093 577.412C368.929 579.52 368.658 581.616 368.616 583.934C367.586 583.682 367.718 583.688 366.751 583.22C365.939 581.235 366.402 578.869 366.586 576.634Z"
     id="path195" />
  <path
     fill="#C3DCF7"
     d="M320.461 584.459C323.475 586.702 322.965 587.883 323.071 591.431C321.729 590.947 322.148 591.119 320.967 590.224C320.033 588.316 320.361 586.638 320.461 584.459Z"
     id="path196" />
  <path
     fill="#C3DCF7"
     d="M710.525 584.765L711.285 585.641C711.727 588.428 711.17 589.233 709.526 591.516C707.251 589.311 708.874 586.843 710.525 584.765Z"
     id="path197" />
  <path
     fill="#C3DCF7"
     d="M370.753 583.866L371.194 584.325C371.578 586.63 371.233 588.998 370.206 591.098L369.485 590.222C368.84 587.469 369.439 586.3 370.753 583.866Z"
     id="path198" />
  <path
     fill="#7B94B3"
     d="M399.429 572.272C401.865 571.897 407.086 571.114 408.375 573.709L407.753 574.235C404.807 572.601 403.061 572.854 399.697 572.79L399.429 572.272Z"
     id="path199" />
  <path
     fill="#FEFEFE"
     d="M660.576 584.391C662.897 586.191 662.456 588.177 662.481 590.855L661.14 590.132C660.245 588.276 660.528 586.51 660.576 584.391Z"
     id="path200" />
  <path
     fill="#C3DCF7"
     d="M864.722 413.69C863.18 414.41 861.369 415.024 859.995 413.712C861.583 412.65 861.667 412.985 863.87 412.792L864.722 413.69Z"
     id="path201" />
</svg>
